<?xml version="1.0" encoding="utf-8"?>
<!-- Generator: Adobe Illustrator 15.0.0, SVG Export Plug-In . SVG Version: 6.00 Build 0)  -->
<!DOCTYPE svg PUBLIC "-//W3C//DTD SVG 1.1//EN" "http://www.w3.org/Graphics/SVG/1.1/DTD/svg11.dtd">
<svg version="1.1" id="Layer_1" xmlns="http://www.w3.org/2000/svg" xmlns:xlink="http://www.w3.org/1999/xlink" x="0px" y="0px"
	 width="178.582px" height="249.449px" viewBox="0 0 178.582 249.449" enable-background="new 0 0 178.582 249.449"
	 xml:space="preserve">
<g>
	<path fill="#FFFFFF" d="M8.504,0"/>
	<path fill="#D40000" d="M3.785,32.855v-2.191h2.129l4.531-23.418h2.582l4.992,23.418h1.719v2.191h-5.856v-2.191h1.583l-0.629-3.59
		H8.925l-0.457,3.59h1.582v2.191H3.785z M14.328,24.523l-2.567-12.539L9.355,24.523H14.328z"/>
	<path fill="#D40000" d="M174.792,216.797v2.191h-2.129l-4.531,23.414h-2.577l-4.996-23.414h-1.716v-2.191h5.853v2.191h-1.582
		l0.634,3.586h5.905l0.457-3.586h-1.582v-2.191H174.792z M164.25,225.129l2.566,12.539l2.406-12.539H164.25z"/>
	<path fill="#D40000" d="M4.625,45.605C3.355,42.828,3.218,38.082,7,37.437c2.851-0.367,4.011,0.961,4.242,2.997
		c0.113,0.593,0.449,0.628,0.555-0.047c0.164-2.09,2.23-3.309,3.843-3c4.422,0.754,4.164,5.621,2.719,8.922
		c-2.184,4.386-4.48,7.152-6.594,11.562C9.332,53.277,6.558,49.547,4.625,45.605L4.625,45.605z"/>
	<path fill="#D40000" d="M79.648,101.73c5.719-0.382,8.695,4.5,9.277,8.348c0.348,0.609,0.54,0.438,0.672-0.035
		c0.277-4.938,4.699-8.977,8.793-8.422c6.658,0.086,10.711,7.5,9.572,13.774c-1.391,7.664-5.521,12.281-8.646,17.035
		c-3.535,4.922-8.297,12.031-9.833,15.453c0,0-4.84-7.363-11.133-16.023c-4.211-5.788-7.578-12.064-7.89-17.466
		C70.101,108.219,72.632,102.687,79.648,101.73L79.648,101.73z"/>
	<path fill="#D40000" d="M159.328,204.355c-1.266,2.777-1.406,7.523,2.375,8.164c2.852,0.365,4.012-0.957,4.242-2.992
		c0.113-0.596,0.449-0.633,0.555,0.048c0.164,2.086,2.23,3.305,3.844,3c4.422-0.759,4.164-5.625,2.719-8.927
		c-2.184-4.385-4.479-7.147-6.594-11.563C164.039,196.68,161.262,200.411,159.328,204.355L159.328,204.355z"/>
</g>
</svg>
