<?xml version="1.0" encoding="utf-8"?>
<!-- Generator: Adobe Illustrator 15.0.0, SVG Export Plug-In . SVG Version: 6.00 Build 0)  -->
<!DOCTYPE svg PUBLIC "-//W3C//DTD SVG 1.1//EN" "http://www.w3.org/Graphics/SVG/1.1/DTD/svg11.dtd">
<svg version="1.1" id="Layer_1" xmlns="http://www.w3.org/2000/svg" xmlns:xlink="http://www.w3.org/1999/xlink" x="0px" y="0px"
	 width="178.582px" height="249.449px" viewBox="0 0 178.582 249.449" enable-background="new 0 0 178.582 249.449"
	 xml:space="preserve">
<g>
	<path fill="#FFFFFF" d="M8.504,0"/>
	<path fill="#131F67" d="M154.164,19.551L23.609,19.617l0.785,209.613l131.023-0.272C154.402,159.07,154.304,89.316,154.164,19.551
		L154.164,19.551z M138.761,21.316l13.77,0.071v80.656c0,0-0.859-0.023-0.777-0.59c0.105-0.754-0.012-2.168-0.539-2.766
		c-0.223-0.25-0.59-0.644-0.734-0.929c-0.359-0.723-0.957-1.469-1.434-1.668c-0.234-0.102-0.508-0.156-0.547-0.32
		c-0.031-0.153-0.109-0.657-0.211-1.118c-0.254-1.16-0.477-1.121,0.258-2.273c2.555-3.992,3.535-7.664,3.215-11.305
		c-0.102-1.137-0.387-2.609-0.523-2.812c-2.465,2.472-4.25,5.527-5.93,7.785c-0.375-3.227-0.32-5.66-0.375-8.242
		c1.316-0.375,2.113-1.078,2.684-2.871c0,0,1.41,1.105,2.273,0.949l-0.566-2.086c3.777-1.156,4.293-6.086-0.168-7.129l0.402-2.594
		c0,0-1.348,0.449-1.938,0.738c-0.297,0.125-0.371,0.028-0.574-0.402c-2.082-3.234-5.313-2.547-6.734,0.645l-1.742-0.739
		c0.188,0.883,0.414,1.778,0.254,2.661c-3.656,1.628-2.754,6.082,0.164,6.668l-0.254,2.078l2.195-0.707
		c0.32,0.976,0.156,1.543,1.914,2.64c-0.043,4.36-0.117,7.086,0.02,10.961c-2.285-2.34-4.492-3.969-8.363-5.16
		c0,0-0.035,0.938,0.191,2.363c0.074,0.473,0.059,0.403-0.164,0.403c-0.504-0.012-2.77-3.657-2.77-3.657s-0.262,0.004-0.492,0.231
		c-0.27,0.265,0.348,0.762,1.215,2.051c1.012,1.504,0.914,1.441,0.117,2.117c-4.531,3.844-11.074,18.476-9.973,19.898
		c-2.867,0.172-14.027,5.645-16.055,16.93c-0.121,0.508-0.359,1.168-0.359,1.168l-3.227-0.805c1.945-9.242,6.34-28.035,6.34-28.035
		s3.09-0.875,4.898-1.07l-0.02-0.727l-4.254,0.988l0.203-1.609l4.016-0.789l-0.012-0.383l-4.25,0.571l0.695-2.68
		c0,0-9.543,1.398-12.957,1.297c0,0-0.004,6.136,0.008,13.554c-0.688,5.485-1.004,16.164-1.004,16.164l-3.832-2.218
		c-0.414-7.824-0.539-27.586-0.539-27.586l-12.879-2.02l0.43,3.102c-10.676-4.231-21.387-8.121-29.27-16.395
		c4.852-3.726,12.953-7.422,12.953-7.422l-0.265-0.589C43.328,78.578,35.929,85.711,25.918,94.562l-0.27-73.175l54.371-0.028
		l-0.183,13.344c0,0-0.071,0.348-0.172,0.469c-0.664,3.23,1.242,8.969,0.859,11.765c0.176,0.864,0.113,2.465,0.113,2.465
		c-3.246,4.446-4.964,8.668-6.41,13.836c-0.558,0.219-1.383,0.676-1.965,0.836l-0.164,0.703c1.274-0.699,4.883-1.84,4.883-1.84
		c16.09,7.844,27.914,5.922,40.566,0.094c-2.02,7.082,2.367,16.09,9.586,17.981c0.824,0.218,2.238,0.402,3.047,0.191
		c0.809-0.234-1.82-6.246-2.984-6.469c-3.484-1.511-4.922-5.058-4.547-9.129l-0.578-0.968c-1.191,4.941,1.668,9.961,5.598,11.187
		l1.055,2.305c-7.117-2.137-10.148-8.801-7.777-15.391c0.039-4.109-2.625-5.929-3.848-7.699c-6.188-2.363-7.336-8.094-6.254-12.727
		c2.879,1.227-1.941-4.066-1.941-4.066c-2.125,4.594-3.012,10.406,1.844,16.297c-3.141,4.16-7.188,7.449-11.715,10.262
		c-6.617,3.453-11.578,1.125-14.777-6.52c-1.918-4.59-2.606-9.164-2.594-13.957c0.008-2.969,0.043-3.058,1.156-2.555
		c1.043,0.473,3.309,0.539,4.66-0.156c1.844-0.953,1.754-0.371-0.25,1.692c-0.547,0.558-1.129,1.066-1.129,1.171
		c-0.004,0.61,0.856,0.098,2.078-1.117c0.45-0.441,0.778-0.867,0.918-0.859c0.161,0.004,0.145,0.578-0.039,1.191
		c-0.07,0.239-0.293,1.239-0.5,2.219c-0.203,0.984-0.488,2.137-0.625,2.566c-0.543,1.704-0.394,2.497,1.239,3.282
		c0.863,0.414,2.336,1.828,2.324,1.828c0,0-0.352-1.551-0.223-2.047c0.156-0.598,0.867-0.176,1.594,0.172
		c1.605,0.765,2.535,0.785,3.398,0.066c1.188-0.988,0.848-3.215-0.621-3.797c-1.078-0.425-1.266-0.031-0.191,0.719
		c1.613,1.125-0.207,2.863-1.574,1.785c-1.07-0.843-2.93-0.937-3.141-0.238c-0.195,0.664-0.398,0.543-1.141,0.113
		c-1.152-0.676-1.16-0.793-0.195-4.508c1.828-7.039,1.648-9.621-0.773-11.757c-1.793-1.586-4.758-2.321-7.832-0.559v-2.398
		c4.511-1.805,7.797-4.786,10.445-9.782h0.516c2.637,5.707,6.895,9.809,14.914,12.813c3.129,3.094-3.973-8.883-1.703-3.981
		c-4.254-1.644-8.047-4.839-10.133-8.832h1.16c1.219,1.766,3.695,4.989,8.105,7.211c0.398,0.336,0.785-0.011,0.785-0.011
		s-3.699-5.793-4.305-7.172l36.949-0.262c-1.172,9-2.82,18.777,3.676,36.305c-3.047-1.602-15.27,1.808-13.117,2.48
		c1.082-1.246,8.867-3.082,14.629-1.723C142.238,57.773,133.929,38.492,138.761,21.316L138.761,21.316z M142.714,58.187
		c0.012,0.008,0.02,0.012,0.023,0.004C142.73,58.187,142.722,58.187,142.714,58.187L142.714,58.187z M114.167,92.914l0.035,1.41
		l0.293-0.07l-0.172-1.371L114.167,92.914z M80.808,21.359h1.621c-0.355,0.731-0.875,1.282-1.668,1.735L80.808,21.359z
		 M83.597,21.359h1.746c-1.363,2.164-2.808,3.473-4.55,4.5l0.031-1.695C81.832,23.281,82.793,22.367,83.597,21.359L83.597,21.359z
		 M86.48,21.359h1.613c-2.187,3.356-4.429,5.614-7.3,7.039v-1.371C82.566,25.648,85.082,23.621,86.48,21.359L86.48,21.359z
		 M88.941,21.359h1.301c-2.238,4.266-5.36,7.211-9.449,8.848v-1.023C85.269,26.797,87.23,24.133,88.941,21.359L88.941,21.359z
		 M92.5,21.359h1.563c2.148,4.266,6.605,8.297,11.5,10.067l0.75,1.73C99.859,30.84,95.585,27.457,92.5,21.359L92.5,21.359z
		 M97.027,21.359h1.117c1.176,1.637,2.598,2.965,4.262,4.071l1.012,1.961C101.171,25.883,98.667,24.047,97.027,21.359L97.027,21.359
		z M99.066,21.359l1.246,0.067l1.652,2.754C100.863,23.559,100.031,22.301,99.066,21.359L99.066,21.359z M97.632,32.43
		c-1.711-0.008-3.27,0.465-4.398,1.386c-1.188,0.969-0.313,2.028,1.398,1.231c2.918-1.356,6.273-0.742,9.891,1.238
		c3.047,1.668,1.98-0.07-0.863-1.926C101.71,33.07,99.57,32.441,97.632,32.43L97.632,32.43z M83.871,34.617
		c2.453,0.02,5.265,1.106,5.336,2.547c-1.629-1.363-4.903-2.023-8.042-0.625c-0.239-0.051-0.274-0.906-0.129-1.219
		C81.711,34.82,82.754,34.605,83.871,34.617L83.871,34.617z M98.738,35.543c-1.555,0-2.973,0.406-3.629,1.281
		c-0.336,0.414-0.426,0.457-0.793,0.395c-0.723-0.117-0.684,0.301,0.141,1.441c0.398,0.555,0.336,1.188-0.199,1.938
		c-0.613,0.863-0.496,0.898,1.332,1.773c1.398,0.68,2.52,1.645,3.789,2.438c0.906,0.511,1.086,0.062,0.25-0.61
		c-0.289-0.234-1.141-0.84-1.906-1.34c-1.293-0.843-2.246-1.695-1.215-1.316c0.473,0.148,0.594,0.211,1.113,0.301
		c1.336,0.289,2.652,0.449,3.773,0.222c0.805-0.16,1.852-0.691,2.715-1.437c0.219-0.102,0.438,0.008,0.969,0.027
		c2.043,0.078,1.59-0.519-1.34-2.117c-2.902-1.582-5.176-1.871-7.031-1.004c-0.785,0.367-1.234,0.461-1.121,0.227
		c0.117-0.242,0.336-0.524,0.691-0.727c2.996-1.793,5.406-0.308,8.051,1.039c1.133,0.676,1.441,0.852,1.574,0.637
		c0.172-0.277-1.266-1.297-3.191-2.266C101.578,35.859,100.105,35.543,98.738,35.543L98.738,35.543z M89.152,37.621
		c0.504,0.199,0.277,0.781-0.184,0.598c-2.769-1.242-3.328-1.852-6.628-0.699c-1.09,0.378-1.52,0.042-0.184-0.532
		C85.074,35.77,87.187,36.594,89.152,37.621L89.152,37.621z M87.254,39.086c-0.75,3.809-4.543,2.633-4.118,0.019l0.7,0.004
		c0.054,2.301,2.359,2.286,2.754,0.024L87.254,39.086z M109.308,39.094l1.02,2.183c-2.23,5.5,0.801,12.907,7.395,14.684
		c0,0,1.063,1.633,0.855,1.84C106.199,55.062,107.152,43.258,109.308,39.094L109.308,39.094z M97.582,39.234l0.348,0.02
		c1.066,2.656,2.621,1.129,2.922,0.008l0.789,0.019C101.402,42.031,97.23,42.5,97.582,39.234L97.582,39.234z M88.039,39.312
		c0.5-0.058,0.672,0.692,0.531,0.833c-0.039,0.039-0.953,0.929-1.066,0.406C87.34,39.781,87.832,39.352,88.039,39.312L88.039,39.312
		z M82.265,39.391c0.039,0,0.082,0,0.129,0.007c0.313,0.235,0.43,0.946,0.266,1.309c-0.184,0.191-0.926-0.07-1.07-0.355
		C81.367,39.937,81.629,39.387,82.265,39.391L82.265,39.391z M102.343,39.645c0.246,0.007,0.918,0.3,0.852,0.625
		c-0.016,0.082-0.953,0.769-1.164,0.656c-0.406-0.215,0.156-1.207,0.234-1.266C102.281,39.648,102.308,39.641,102.343,39.645
		L102.343,39.645z M96.871,39.762c0.008,0,0.016,0,0.016,0c0.074,0.054,0.672,0.425,0.164,1.113
		c-0.035,0.051-0.715-0.191-0.727-0.273C96.269,40.203,96.781,39.793,96.871,39.762L96.871,39.762z M111.875,44.586
		c-0.152,3.164,0.672,6.23,4.125,8.203l-0.742-1.355c-0.887-0.707-2.738-2.719-2.508-5.114L111.875,44.586z M80.871,50.238
		l0.386,2.082c-1.898,3.157-3.343,6.258-4.539,9.883l-1.793,0.656C76.351,58.285,77.668,54.664,80.871,50.238L80.871,50.238z
		 M81.625,53.477l0.507,1.789c-0.933,1.718-1.929,3.66-2.531,5.921l-1.984,0.731C78.511,58.926,79.816,56.016,81.625,53.477
		L81.625,53.477z M87.914,54.219c-0.028,0-0.059,0.004-0.086,0.011c-0.024,0.352-0.02,1.325,0.054,2.93
		c0.016,0.305,0.317,0.176,1.157-0.254c0.738-0.375,0.66-0.433,1.371-0.195c1.973,0.676,2.871,0.383,3.645,0.184
		c1.172-0.305,1.652-0.18,2.336,0.226c0.375,0.227,0.891,0.391,0.992,0.43c0.539,0.195,0.332-0.043-0.035-1.504
		c-0.418-1.641-0.238-1.824-0.898-1.395c-0.145,0.094-0.563,0.325-0.789,0.352c-0.574,0.066-1.531-0.637-2.105-0.414
		c-1.383,0.543-1.371,0.402-2.656,0.086c-0.641-0.156-1.258,0.234-1.816,0.344C88.765,55.059,88.359,54.215,87.914,54.219
		L87.914,54.219z M111.46,55.07c2.34,2.145,4.746,2.879,7.352,3.692c-0.313,1.066-0.941,2.265-1.234,3.66
		c-13.574,7.172-27.215,6.945-40.078,0.433l6.675-2.55c3.649,6.316,8.325,8.004,13.579,5.937
		C103.628,63.508,107.98,59.707,111.46,55.07L111.46,55.07z M82.461,56.332l0.578,1.551l-0.86,2.332l-1.636,0.664
		C80.855,59.289,81.461,57.98,82.461,56.332L82.461,56.332z M94.726,58.129c-0.406,0.019-1.02,0.293-2.418,0.301
		c-0.758,0.004-1.352-0.063-1.645-0.004c-0.609,0.121,0.102,0.394,1.465,0.785c1.367,0.387,3.035-0.199,3.242-0.789
		C95.421,58.277,95.242,58.105,94.726,58.129L94.726,58.129z M83.418,58.891l0.359,0.785l-0.613,0.222L83.418,58.891z
		 M119.507,59.336l1.012,2.305c-1.754,3.8-2.922,14.214,8.801,17.453l0.512,1.492C121.855,80.742,113.859,70.602,119.507,59.336
		L119.507,59.336z M92.667,60.121c-1.145-0.012-2.344,0.274-3.113,0.887c-0.699,0.551,0.152,0.898,1.063,0.457
		c1.176-0.574,3.137-0.524,4.289,0.195c0.883,0.602,1.344,0.496,0.754-0.418C95.195,60.523,93.968,60.133,92.667,60.121
		L92.667,60.121z M143.843,62.715c3.063-0.051,3.383,4.332,2.785,4.711c0.172-0.059,0.695-0.215,1.441-0.196
		c2.246,0.059,3.414,1.301,3.543,3.106c0.133,1.82-1.25,2.832-3.266,2.734c-0.75-0.039-1.262-0.113-1.23,0.02
		c0.375,1.453-0.078,3.644-2.004,4.191c-0.219,0.063-0.535,0.371-0.543,0.481c-0.145,2.304,0.516,10.222,0.516,10.222
		s3.609-6.066,4.422-6.988c1.59-2.168,1.875-1.973,1.879,1.633c-0.262,5-1.066,6.144-4.012,10.344
		c-1.258,1.804-4.246,0.855-3.973,2.078c0.059,0.269,0.543,0.754,1.027,1.215c0.309,0.293,0.629,0.476,1.355,0.453
		c1.273-0.043,1.77-0.301,1.008,0.808c-0.602,0.875-2.715,1.055-2.953,1.512c-0.555,1.059-0.176,0.824-1.125,1.758
		c-0.727,0.793-0.473,0.39-0.141,1.043c0.516,0.844,0.301,2.527-0.215,3.664c-0.418,0.926-0.371,1.586-0.371,1.586
		c0.008,0.074,1.18-1.211,1.531-2.695c0.293-1.235,0.641-1.856,0.637-1.165c-0.004,0.875,0.148,2.059,0.938,2.512
		c0.621,0.36,0.711,0.715,0.605,1.156c-0.105,0.454,0.379,0.856,0.859,1.239c0.113,0.109,0.492,0.258,0.453,0.5
		c-0.129,0.758,0.18,1.652,0.734,1.797c0.246,0.121,1.816-0.012,2.078-0.895c-0.027-0.285-0.004-1.445-0.629-1.512
		c-0.441-0.203-0.395-0.324,0.273-0.722c1-0.598,1.727-1.028,2.223-1.118c0.664-0.089,1.297-0.812,1.297-0.812l0.129,47.733
		l-21.039,18.082c-4.988-4.159-10.441-8.366-16.23-11.519l-2-1.184l0.715-0.918l-3.469-4.574l3.906-3.145l0.988,1.25l-1.848,1.796
		l2.773,3.067l6.234-6.078l-4.109-3.93l2.141-4.004l1.367,0.672l-1.031,2.539l3.121,1.977l3.914-7.77l-4.961-2.258l1.258-5.216
		l1.527,0.161l-0.508,3.757l3.863,0.767l1.574-8.855l-5.672-1.016l0.48-5.051l1.586,0.02l-0.234,2.793l4.008,0.57l0.754-7.719
		l-5.559-0.922l0.719-5.961l1.27,0.184l-0.246,3.676l4.078,0.695c0.449-2.492,0.816-5.621,1.48-8.066l-5.254-1.957l1.859-5.004
		l1.184,0.41l-1.031,2.715l3.879,1.648l3.27-6.453l-4.566-3.234c1.023-1.7,2.043-3.313,3.508-4.688l0.898,0.781
		c0,0-0.328,0.297-0.836,1c-0.617,0.848-0.809,1.282-0.727,1.5c0.086,0.219,2.906,2.305,3.121,2.305c0.25,0,1.188-0.851,1.668-1.426
		c0.52-0.613,0.789-0.672,1.324-0.289c0.105,0.078,0.258,0.227,0.367,0.36c0.129,0.152,0.18,0.281,0.195,0.379
		c0.012,0.097-0.016,0.164-0.039,0.203c0.043-0.043,0.145-0.118,0.352-0.235c0.387-0.215-0.742-1.207-1.664-1.718
		c-2.754-1.547-5.996-4.461-6.746-8.106c-0.273-1.637,3.961,0.332,6.875,3.234c0.441,0.442,2.086,2.032,2.086,2.032
		c-0.242-4.215-0.586-8.496-0.398-12.762l-0.645-0.445c-0.898-0.629-1.246-1.657-1.328-2.688c-0.055-0.715,0.555-1.078-0.84-1.031
		c-2.902,0.027-4.578-2.703-2.82-5.039c0.629-0.871,3.305-1.301,3.301-1.277C140.277,64.352,142.332,62.855,143.843,62.715
		L143.843,62.715z M142.789,95.18C142.734,95.23,142.757,95.23,142.789,95.18L142.789,95.18z M146.628,67.426
		c-0.039,0.011-0.082,0.027-0.082,0.027C146.574,67.449,146.605,67.441,146.628,67.426L146.628,67.426z M50.035,76.543
		c8.105,6.82,13.273,11.41,29.762,16.547l0.41,2.441c-9.485-2.187-19.828-6.617-32.125-17.636L50.035,76.543z M47.597,78.121
		c5.129,4.789,10.391,8.434,15.711,11.496l1.867,1.125l-0.96,0.985l3.132,4.515l-4.031,3.285l-0.957-0.953l2.102-2.062l-2.993-2.946
		l-6.101,6.172l4.183,3.707l-2.425,3.727l-0.879-0.399l1.289-2.593l-3.883-2.121l-4.344,7.98l5.528,2.516l-1.246,4.894l-1.293-0.062
		l0.437-3.84l-4.156-0.735l-1.399,8.965l5.348,0.84l-0.129,5.165l-1.426-0.023l0.102-2.918l-4.223-0.195l-0.379,7.523l5.2,0.672
		l-0.52,6.109l-1.277-0.328l0.14-3.965l-3.957-0.391l-1.367,8.43l5.344,1.527l-1.887,5.254l-1.16-0.637l0.762-2.711
		c-0.977-0.426-3.715-1.563-3.715-1.563l-3.492,6.543l4.527,3.082l-2.785,4.896l-1.074-0.723l1.921-2.852l-3.761-2.364l-2.141,2.927
		c-0.91-0.793-2.543-1.888-3.168-2.621c-0.664-0.605-1.172-0.699-2.027-0.496c-0.68,0.16-1.328,0.281-1.18,0.043
		c0.074-0.121,1.36-0.984,3.32-2.228c0.547-0.351,0.981-0.651,0.973-0.964c-0.004-0.23,0.301-0.602,0.695-0.84
		c0.438-0.266,0.34-0.512,0.27-0.785c-0.379-1.473-0.141-3.77,0.602-5.313c0.496-1.035,0.652-1.224,0.328-1.224
		c-0.957,0.122-2.121,3.582-2.344,4.56c-0.074-0.078-0.18-0.992-0.246-1.34c-0.121-0.638-0.211-1.027-0.719-1.148
		c-0.609-0.145-0.418-0.438-0.48-0.895c-0.102-0.742-0.45-1.216-1.086-1.477c-0.61-0.254-0.676-0.355-0.653-0.961
		c0-0.48-0.5-1.289-0.867-1.547l-2.121,0.746c-0.168,0.562,0.055,1.285,0.406,1.551c1.063,1-0.496,1.016-1.563,1.668
		c-0.289,0.188-0.633,0.593-0.867,0.457c-0.676-0.219-0.622,1.804-1.289,1.55l0.16-48.554
		C31.054,90.379,47.597,78.121,47.597,78.121L47.597,78.121z M133.41,86.707l0.816,0.906c-2.531,2.848-4.371,5.785-6.395,9.367
		c-1.727,3.059-3.219,7.34-4.004,12.012c-0.602,2.856-0.695,5.766-1.07,8.692c-0.379,3.144-0.453,7.381-1.055,10.703
		c-1.113,9.113-3.672,13.965-9.234,19.133c-2.445,2.273-10.051,6.566-10.262,6.523l-1.801-0.449
		c15.598-7.985,19.496-13.489,21.184-32.391C121.921,97.488,132.707,88.305,133.41,86.707L133.41,86.707z M134.945,88.293
		l0.836,0.805l-4.555,6.433l4.488,3.16l-1.781,4.157l-1.359-0.504l0.969-2.836l-3.777-1.59l-3.051,8.262l5.379,1.695l-0.887,5.379
		l-1.086-0.293l0.004-3.668l-3.992-0.813l-1.16,9.227l5.879,0.82l-0.43,4.762l-1.391-0.098l-0.055-2.836l-4.078-0.214l-0.934,7.996
		l5.789,0.984l-1.047,5.68l-1.234-0.289l0.277-3.75l-3.883-0.512l-2.246,7.672l4.879,2.461l-2.402,4.918l-1.027-0.715l1.328-2.91
		l-3.793-1.871l-3.664,6.348l3.977,3.909l-3.883,4.071l-0.867-1.11l2.004-2.159l-2.996-2.962l-6.227,4.95l3.18,4.188l-0.375,0.526
		l-3.281-1.315l-1.57-2.078l-1.883,0.824l-1.48-0.563c9.195-4.825,15.176-10.414,17.648-18.844c1.355-4.664,1.758-9.75,2.199-14.875
		c0.227-2.664,0.465-5.336,0.852-7.969c0.453-4.297,1.109-7.902,2.855-12.047C129.207,95.672,131.777,92.129,134.945,88.293
		L134.945,88.293z M85.461,91.473l6.316,3.328l-0.094,2.211l-5.836-2.922L85.461,91.473z M87.238,91.535l4.5,0.617l0.02,1.813
		L87.238,91.535z M66.953,91.594l2.629,1.179l2.226,2.571l1.668-1.094l1.809,0.68c-5.719,2.937-10.797,6.457-14.75,12.527
		c-4.406,6.766-4.895,15.621-5.461,24.168c-0.938,11.789-2.961,20.07-10.797,29.629l-1.156-0.727l4.23-6.719l-4.769-3.082
		l2.172-3.973l1.097,0.379L45,149.5l3.945,2.082l3.027-8.469l-5.566-1.734l0.934-5.297l1.398,0.121L48.367,140l3.976,0.629
		l1.141-8.953l-5.359-0.821l0.121-4.733l1.312,0.129l-0.008,2.879l4.227,0.226l0.328-8.167l-5.254-0.582l0.645-5.765l1.472,0.148
		l-0.339,3.461l4.046,0.578l1.918-7.468l-5.253-2.372l2.835-5.042l1.274,0.585l-1.301,2.793l3.645,1.774l3.82-5.84l-4.059-3.898
		l3.985-4.172l0.98,0.961l-2.164,2.488l3,2.773l5.942-4.984l-2.903-4.363L66.953,91.594z M104.742,91.871l-0.184,2.09l-6.328,3.594
		l-0.004-2.047L104.742,91.871z M138.714,91.941l1.398,0.868l-1.012,1.203l-1.223-0.77L138.714,91.941z M102.082,92.238
		l-3.793,2.188V92.25L102.082,92.238z M146.785,94.281c0.199,0.004,0.383,0.047,0.523,0.137c0.379,0.25,0.324,0.863-0.105,1.164
		c-0.563,0.395-2.098,0.367-2.25-0.039C144.734,94.961,145.929,94.262,146.785,94.281L146.785,94.281z M86.281,95.145l5.441,2.933
		l-0.02,2.07l-5.235-2.878L86.281,95.145z M104.003,95.211l-0.32,2.695l-5.602,2.969l-0.047-2.336L104.003,95.211z M76.89,95.258
		l2.231,0.566c-8.258,3.688-16.422,9.028-19.594,18.352c-0.992,2.789-1.66,5.894-2.098,9.871c-0.203,4.191-0.746,8.316-0.941,11.812
		c-0.406,7.121-2.75,16.763-10.844,27.005l-0.773-0.605c4.965-6.121,7.547-11.668,9.14-17.531
		c2.528-9.329,1.274-19.622,3.969-29.008c1.645-5.715,5.055-10.821,10.168-15.239C71.703,97.715,76.89,95.258,76.89,95.258
		L76.89,95.258z M80.636,96.043c0.028-0.004,0.036-0.004,0.039,0.008c2.004,6.746,4.481,19.051,4.481,19.051
		c-5.301-2.567-14.129-2.098-14.129-2.098s-4.969-6.406-5.93-6.934C69.07,100.711,79.879,96.078,80.636,96.043L80.636,96.043z
		 M148.921,97.105c1.223-0.039,1.133,1.817-0.414,3.079c-0.789,0.644-1.152,0.554-1.734,0.039c-0.172-0.231-0.672-0.395-1.035-0.352
		c-0.867-0.004,0.848-1.793,2.371-2.535C148.421,97.184,148.695,97.113,148.921,97.105L148.921,97.105z M86.922,98.617l4.851,2.488
		l0.043,2.047l-4.488-2.433L86.922,98.617z M103.363,98.895l-0.262,2.25l-5.051,2.628l0.027-2.074L103.363,98.895z M150.628,99.734
		c0.168-0.015,0.297,0.047,0.418,0.184c0.691,0.766-0.617,3.09-2.102,3.785c-0.57,0.27-0.922,0.227-1.395-0.183
		c-0.23-0.2-0.57-0.461-0.766-0.438c-0.852,0.086-0.383-0.867,0.301-0.922c0.191-0.015,1.379-0.906,2.277-1.652
		C149.968,100.004,150.347,99.758,150.628,99.734L150.628,99.734z M145.496,100.637c1.074-0.024,1.461,0.867,0.191,1.258
		c-0.902,0.277-1.406,0.078-1.406-0.528C144.472,100.742,145.019,100.668,145.496,100.637L145.496,100.637z M87.59,101.844
		l4.3,2.156l0.02,2.211l-3.953-2.059L87.59,101.844z M102.988,102.148l-0.301,2.09l-4.637,2.383l0.012-1.73L102.988,102.148z
		 M151.562,103.027c0.293,0.016,0.383,0.344,0.379,0.922c-0.004,0.961-0.641,1.848-1.594,2.281
		c-0.699,0.321-1.195,0.293-1.543-0.078c-0.156-0.172-0.379-0.308-0.492-0.312c-1.496-0.059-1.254-0.445,0.176-1.047
		c0.508-0.211,1.496-0.895,1.965-1.231C150.984,103.184,151.335,103.012,151.562,103.027L151.562,103.027z M146.07,103.707
		c0.734,0.004,1.383,0.523,0.977,0.855c-0.316,0.262-1.5,0.387-1.734,0.153C144.867,104.266,145.261,103.707,146.07,103.707
		L146.07,103.707z M88.3,105.195l3.668,1.977l-0.02,2.105l-3.504-1.98L88.3,105.195z M102.371,105.355l-0.086,2.157l-4.211,2.074
		l-0.027-2.051L102.371,105.355z M147.675,106.25c0.715,0.051,0.625,0.742,0.047,1.074c-0.43,0.301-0.984,0.145-1.215-0.207
		C145.996,106.145,147.16,106.262,147.675,106.25L147.675,106.25z M149.105,108.461c0.117,0.238,0.055,0.664-0.18,0.797
		c-0.313,0.133-1.125-0.004-1.25-0.242c-0.102-0.192-0.078-0.293,0.121-0.493C148.128,108.262,148.871,108.066,149.105,108.461
		L149.105,108.461z M88.832,108.5l3.132,1.711l-0.02,2.066l-2.879-1.672L88.832,108.5z M101.859,108.555l-0.156,1.988l-3.645,1.809
		l0.051-1.942L101.859,108.555z M63.703,109.809c0.781,0.007,1.383,0.527,0.922,1.418c-0.285,0.554-0.5,0.757-1.75,1.64
		c-0.512,0.36-0.953,0.688-0.989,0.731c-0.035,0.043-0.359,0.269-0.574,0.418c-1.117,0.773-0.73-0.844,0.668-3.231
		C62.379,110.102,63.093,109.801,63.703,109.809L63.703,109.809z M101.582,111.578l-0.289,2.188l-3.262,1.668v-2.11L101.582,111.578
		z M89.324,111.785l2.637,1.305L92,115.219l-2.395-1.254L89.324,111.785z M120.98,111.949c0.086-0.004,0.16,0.028,0.215,0.102
		c0.215,0.301,0.25,1.605,0.039,2.344c-0.371,0.871-1.086-1.325-1.008-1.879C120.378,112.262,120.726,111.961,120.98,111.949
		L120.98,111.949z M65.586,112.348c1.066-0.02,1.836,0.707,1.476,1.785c-0.418,1.043-2.824,1.699-3.906,2.418
		c-0.711,0.351-0.883-0.031-0.664-0.645c0.101-0.285,0.18-0.508-0.363-0.586c-1.313-0.195-0.512-0.832,1.898-2.445
		C64.554,112.52,65.101,112.355,65.586,112.348L65.586,112.348z M118.437,113.027c0.375-0.004,0.844,0.219,1.324,0.739
		c0.828,0.902,1.426,2.793,0.973,3.285c-0.344-0.039-0.516,0.469-0.535,0.676c-0.051,0.597-1.141-0.493-2.168-2.207
		C117.203,114.137,117.605,113.035,118.437,113.027L118.437,113.027z M74.05,113.348c3.247-0.024,9.45,0.648,18.04,6.023
		c1.094,0.684,2.188,1.441,3.426,2.051c3.258,1.758,5.945,2.949,10.145,3.729l-0.117,2.173c-0.039,0.688,1.09,4.655,0.57,6.891
		c-0.77-0.016,0.746,0.656,0.746,0.656l0.984,2.02c0,0-5.152-0.043-7.496-0.504c-3.773-0.614-10.664-3.813-13.992-6.332
		c-3.457-2.535-8.683-4.645-13.16-5.461l-0.063-1.867c0,0-0.445-6.399-0.8-7.278l-0.825-2.019
		C71.711,113.508,72.574,113.359,74.05,113.348L74.05,113.348z M101.152,114.75l-0.25,2.145l-2.859,1.343v-1.84L101.152,114.75z
		 M115.398,114.848c0.801,0,2.012,0.938,3.395,2.808c0.313,0.422,0.555,0.785,0.598,1.039c0.043,0.235-0.102,0.367-0.332,0.34
		c-0.543-0.101-0.742-0.297-0.895,0.379c-0.039,0.168,0.059,0.473-0.129,0.418c-0.969-0.285-3.746-3.086-3.574-3.98
		C114.589,115.18,114.921,114.844,115.398,114.848L115.398,114.848z M89.941,114.988l2.086,1.11l0.09,2.117l-1.852-0.801
		L89.941,114.988z M67.543,115.633c0.64-0.02,1.039,0.23,1.242,0.726c0.488,1.2-0.379,1.918-2.957,2.457
		c-2.238,0.536-2.192,0.567-1.879-0.265c0.207-0.551-0.484-0.61-0.871-0.758c-0.653-0.246-0.117-0.324,1.762-1.258
		C66.019,115.945,66.902,115.652,67.543,115.633L67.543,115.633z M60.093,116.199c0.063-0.008,0.137,0.055,0.25,0.192
		c3.254,3.945,2.418,9.691-1.703,12.527c-0.468,0.312-0.484,0.022-0.433-0.59l0.082-1.172c0.019-0.234,4.734-3.125,1.25-9.563
		l0.293-0.91C59.922,116.395,59.984,116.207,60.093,116.199L60.093,116.199z M113.277,117.422c1.285,0.008,4.891,3.277,3.355,3.394
		c-0.18,0.016-0.117,0.25-0.121,0.399c0,0.148-0.008,0.433-0.047,0.539c-0.113,0.285-0.531,0.23-1.18-0.152
		c-1.641-0.973-2.016-1.282-2.582-1.821C111.585,118.727,111.902,117.418,113.277,117.422L113.277,117.422z M100.574,117.984
		l-0.023,1.766l-2.57,1.246l0.016-1.598L100.574,117.984z M68.007,119.254c1.731-0.059,2.704,1.664,0.977,2.57
		c-0.691,0.36-2.965,0.106-4.023,0.016c-1.192-0.106-0.489-0.461-0.422-0.567c0.164-0.269,0.289-0.312-0.332-0.683
		c-0.496-0.52-0.778-0.649,0.457-0.809c0.601-0.078,2.058-0.219,2.562-0.386C67.5,119.309,67.761,119.262,68.007,119.254
		L68.007,119.254z M120.656,119.672c0.125-0.004,0.113,0.207,0.059,0.758l-0.082,1.179c-0.789,0.125-4.703,4.989-1.523,10.649
		l-0.266,1.004c-0.121,0.496-0.16,0.57-0.574,0.261c-2.383-1.644-3.156-10.026,1.781-13.496
		C120.371,119.816,120.554,119.68,120.656,119.672L120.656,119.672z M111.363,120.656c0.461,0.008,1.023,0.137,1.668,0.43
		c1.504,0.687,2.5,1.238,2.734,1.605c0.145,0.223-0.082,0.414-0.387,0.5c-0.363,0.106-0.41,0.258-0.309,0.688
		c-0.004,0.25,0.063,0.527-0.254,0.543c-0.578,0.031-1.875-0.375-3.184-1.082C109.417,122.152,109.718,120.625,111.363,120.656
		L111.363,120.656z M100.121,120.684v2.144l-2.113-0.973L100.121,120.684z M64.73,122.527c0.223,0.008,0.52,0.047,0.91,0.11
		c0.477,0.074,1.215,0.148,1.594,0.14c2.406-0.039,3.402,1.637,1.418,2.489c-0.543,0.23-0.77,0.207-2.254-0.227
		c-0.711-0.207-1.582-0.422-1.937-0.523c-0.715-0.204-0.961-0.426-0.489-0.59c0.442-0.149,0.477-0.453,0.203-0.86
		C64.109,122.664,64.238,122.516,64.73,122.527L64.73,122.527z M120.644,122.527c-0.344,3.325-0.621,5.914-1.121,9.168
		C119.156,131.551,116.558,125.422,120.644,122.527L120.644,122.527z M110.519,124.121c0.781,0.012,2.105,0.313,3.391,0.819
		c1.121,0.414,1.266,0.524,0.488,0.856c-0.469,0.199-0.41,0.379-0.273,0.683c0.215,0.231,0.617,0.692-0.02,0.599
		c-0.754,0.059-2.742-0.056-3.348-0.16c-1.813-0.32-2.309-1.953-0.82-2.715C110.058,124.145,110.257,124.113,110.519,124.121
		L110.519,124.121z M63.929,124.961c0.168-0.004,0.473,0.09,1.032,0.266c3.257,1.027,4.578,2.27,2.984,3.477
		c-0.465,0.352-1.184,0.203-2.535-0.556c-1.387-0.772-2.082-1.194-2.34-1.472c-0.258-0.27-0.117-0.582,0.277-0.559
		c0.539,0.039,0.461-0.234,0.414-0.688C63.734,125.108,63.715,124.961,63.929,124.961L63.929,124.961z M72.715,125.262l2.496,0.563
		l-6.235,27.262c0.031,0.324-2.043,0.219-4.758,1.351c-0.136,0.165-0.093,0.333-0.093,0.333l4.312-0.742l-0.375,1.949l-3.914,0.734
		l-0.09,0.582l4.485-0.81c0,0-0.157,1.864-0.313,2.582c0,0,8.317-1.202,11.465-1.519c0.457-0.063,1.344-0.047,1.344-0.047
		s0.105-21.517,0.09-23.859c-0.02-2.536,0.003-5.566,0.003-5.566l4.313,2.438l0.715,27.113l13.512,2.195
		c-1.043-5.074,28.66,13.77,28.66,13.77l-4.996,2.621c-0.727,0.559-7.156,4.09-7.156,4.09l-0.59,0.847
		c10.309-4.815,25.98-14.827,37.297-25.89l0.25,71.695l-54.164,0.215c0,0-0.004-3.453-0.004-6.707L99,214.465
		c-0.219-3.844,0.449-8.078-0.73-11.301l-0.23-3.379c3.34-3.884,5.145-8.777,6.734-13.781c0,0,1.609-0.621,2.391-0.899l0.27-0.979
		c-1.555,0.793-5.117,2.121-5.117,2.121c0.383-0.301-7.578-3.652-12.492-4.438c-8.113-1.301-19.027,0.039-27.731,4.352
		c-0.425,0.301-0.605,0.293-0.5-0.095c2.02-7.347-2.234-14.722-9.703-16.858c-1.586-0.453-2.883-0.453-2.883-0.453l0.137,0.644
		c12.203,1.375,15.067,14.274,10.367,20.267c-1.23,1.977-1.418,2.555,1.168,2.487c10.45-0.086,14.082,11.591,9.321,18.056
		c0.011-0.051,0.386,0.75,0.386,0.75c2.969-3.922,3.762-11.371-1.504-16.605c3.891-4.336,11.364-11.281,17.825-10.875
		c2.351,0.148,4.671,2.996,6.218,5.266c3.27,4.813,4.113,11.53,4.344,15.359c0.059,1.003,0.191,1.734,0.191,2.262
		c0.008,1.534-0.285,1.352-1.277,1.094c-1.246-0.32-2.949-0.332-4.211,0.051c-2.027,0.617-1.699,0.265,0.105-1.969
		c1.063-1.316,1.203-1.724,0.766-1.81c-0.137-0.026-0.586,0.427-1.176,1.332c-1.777,2.735-1.641,1.614-0.355-2.655
		c0.836-2.773,0.754-2.966-1.523-4.691c-0.754-0.57-1.68-1.125-1.762-1.297c-0.43-0.91-0.609,0.229-0.223,0.979
		c0.375,0.735-0.422,1.071-1.82,0.313c-3.289-1.824-5.434,1.867-2.496,3.469c0.691,0.375,1.078,0.066,0.543-0.43
		c-1.805-1.668-0.551-3.078,1.894-1.599c1.415,0.856,1.954,0.582,2.426-0.487c0.262-0.438,2.457,1.133,2.453,1.746
		c0,0.398-0.254,1.68-0.504,2.539c-0.703,2.418-0.895,3.172-1.199,4.741c-0.551,2.845-0.535,4.306,0.055,5.556
		c1.324,2.801,4.66,4.125,7.551,2.996c0.422-0.164,1.227-0.302,1.227-0.302l0.035,2.06c-5.703,2.16-9.824,8.897-9.636,9.129
		l-2.035,0.004c-2.7-5.36-7.45-9.395-13.489-11.625c0,0-0.726-1.211-0.074,0.996c0.039,0.887,0.969,2.133,1.723,2.57
		c2.871,1.457,6.664,4.043,8.758,8.055l-1.442,0.023c-1.754-2.676-4.031-4.484-6.191-6.063c-0.508-0.106,0.371,4.855,2.445,6.387
		l-37.18,0.648c2.539-9.926,3.024-20.941-2.918-35.379c4.926,0.301,9.301-0.754,13.305-2.504l-0.363-1.027
		c-4.563,2.176-9.571,2.605-14.586,2.094c3.805,7.039,7.133,21.793,3.894,35.984l-13.648,0.07l-0.188-77.352
		c0,0,0.532,0.488,0.7,0.656c0.429,0.43,0.718,1.07,0.839,1.535c0.157,0.598,0.325,0.633,1.172,1.27
		c0.411,0.305,0.645,0.574,0.645,0.73c-0.024,0.176-0.031,0.719,0.246,1.055c0.75,0.902,0.617,1.484,0.055,2.07
		c-2.618,2.723-4.254,8.441-2.934,14.477c3.106-2.09,6.301-7.551,6.402-7.559l0.297,7.457c-0.273-0.063-2.168,1.059-2.191,2.526
		c-0.856,0.254-1.902-0.171-2.774-0.429L29.429,176c-3.187,1.27-3.355,5.625,0.332,6.871c0,0-0.336,1.703-0.625,2.617l2.395-0.367
		c1.394,4.16,6.738,2.828,6.711-0.074c0,0,1.629,0.613,2.242,0.883l-0.598-2.832c6.075-3.032,1.532-7.004,0.141-6.945
		c0.02-0.794,0.383-1.044,0.719-1.966l-2.457,0.157c-0.449-1.465-2.098-2.664-2.16-2.504l-0.34-10.676
		c1.855,1.621,3.683,3.281,6.14,4.565c2.274,1.188,2.504,0.927,2.168-1.128c-0.152-0.926-0.14-1.531-0.14-1.531
		c0.851,0.199,3,2.991,2.898,4.366c0.785,1.024,1.496-1.729-0.527-4.073c5.387-5.645,9.492-14.996,10.371-21.371l7.164-2.852
		l0.082-0.934C68.828,134.94,71.371,130.397,72.715,125.262L72.715,125.262z M78.675,126.93l1.649,0.734l-1.871,0.93L78.675,126.93z
		 M62.789,127.379c0.316,0.144,0.797,0.461,1.461,0.949c1.402,1.026,2.218,1.733,2.246,2.355c0.011,0.309-0.215,0.707-0.567,0.895
		c-0.847,0.449-1.656,0.082-3.488-1.793c-0.59-0.605-0.988-0.927-1.168-1.195c-0.207-0.317-0.055-0.61,0.293-0.485
		C63.054,128.776,61.765,126.914,62.789,127.379L62.789,127.379z M113.285,127.766c0.305,0,0.547,0.007,0.695,0.035
		c0.398,0.082,0.512,0.304,0.27,0.527c-0.383,0.34-0.273,0.684,0.109,0.862c0.266,0.13,0.156,0.396-0.16,0.575
		c-0.188,0.109-0.473,0.223-0.859,0.343c-2.25,0.703-3.91,0.496-4.344-0.554c-0.496-1.203,0.457-1.789,3.207-1.785
		C112.609,127.77,112.98,127.762,113.285,127.766L113.285,127.766z M80.527,128.479l-0.02,1.614l-2.335,1.121l0.253-1.637
		L80.527,128.479z M60.679,128.983c0.207,0.013,0.543,0.328,1.032,0.927c2.25,2.758,2.554,3.289,1.816,4.023
		c-0.871,0.867-2.098,0.027-3.418-2.391c-0.18-0.324-0.394-0.742-0.527-0.896c-0.485-0.565-0.27-0.741,0.343-0.694
		c0.336,0.023,0.497-0.095,0.504-0.441C60.441,129.147,60.523,128.977,60.679,128.983L60.679,128.983z M114.648,130.379
		c0.41,0,0.379,0.141,0.195,0.617c-0.141,0.422-0.371,0.559,0.227,0.824c0.098,0.047,0.316,0.32,0.117,0.438
		c-0.469,0.316-2.566,1.273-3.328,1.523c-1.477,0.491-2.383-0.711-1.52-1.906c0.363-0.5,2.859-1.406,4.105-1.488
		C114.523,130.383,114.589,130.379,114.648,130.379L114.648,130.379z M59.504,131.979c1.496,2.231,1.683,3.274,0.695,3.927
		c-0.625,0.473-1.953-0.211-2.258-1.652c-0.23-1.102-0.34-2.258,0.02-3.172C58.507,129.695,59.347,131.746,59.504,131.979
		L59.504,131.979z M80.515,131.055l0.012,1.746l-2.84,1.426l0.262-1.926L80.515,131.055z M86.3,131.125l2.672,1.727l0.153,1.488
		l-2.758-1.516L86.3,131.125z M116.085,132.84c0.07,0.004,0.109,0.035,0.109,0.117c-0.004,0.207-0.055,0.938,0.344,1.004
		c0.785,0.129,0.609,0.375-0.078,0.965c-0.746,0.66-1.426,1.441-2.324,1.922c-2.316,0.855-3.043-1.59-0.852-2.864
		c0.758-0.437,1.441-0.741,1.953-0.882C115.621,132.992,115.929,132.84,116.085,132.84L116.085,132.84z M86.375,133.738l3.093,1.823
		l0.105,1.833l-3.074-1.563L86.375,133.738z M80.406,133.91l0.012,1.594l-3.02,1.729l0.25-1.784L80.406,133.91z M92.91,135.211
		c0.855,0.397,11.832,3.449,15.465,2.406c0,0,3.113,4.487,5.414,6.094c-3.563,5.226-15.629,10.354-15.629,10.354L92.91,135.211z
		 M117.617,135.324c0.203-0.009,0.25,0.191,0.25,0.566c-0.051,1.082-1.832,5.078-3.254,3.031c-0.391-0.762,0.008-1.551,1.254-2.492
		C116.855,135.684,117.363,135.332,117.617,135.324L117.617,135.324z M57.847,135.953c0.27,0.293,0.149,1.203-0.437,1.145
		c-0.168-0.02-0.192-0.941-0.078-1.441C57.5,135.574,57.754,135.854,57.847,135.953L57.847,135.953z M80.445,136.461l-0.02,2.022
		l-3.582,1.95l0.383-2.254L80.445,136.461z M86.371,136.746l3.547,1.891l0.418,2.238l-3.934-2.039L86.371,136.746z M80.437,139.5
		v2.039l-4.027,2.065l0.273-2.015L80.437,139.5z M86.441,139.676l3.965,2.258l0.523,2.125l-4.434-2.286L86.441,139.676z
		 M30.191,139.742c0.652-0.009,0.887,0.684,0.395,1.125c-0.325,0.301-1.246,0.237-1.329,0
		C28.843,140.465,29.414,139.754,30.191,139.742L30.191,139.742z M31.406,141.901c0.094-0.007,0.187,0,0.266,0.021
		c0.468,0.121,0.761,0.797,0.472,1.183c-0.527,0.711-1.926,0.22-1.722-0.683C30.476,142.184,30.988,141.93,31.406,141.901
		L31.406,141.901z M80.367,142.586v1.824l-4.379,2.313l0.277-2.043L80.367,142.586z M86.562,142.84l4.52,2.426l0.348,2.046
		l-4.859-2.526L86.562,142.84z M29.257,142.895c0.219-0.012,0.395,0.046,0.489,0.21c0.082,0.146,0.183,0.521,0.496,0.7
		c0.586,0.34,0.644,0.414-0.465,0.898c-0.469,0.207-1.391,0.832-1.711,1.047c-0.984,0.664-1.387,0.44-1.457-0.34
		C26.519,144.422,28.316,142.945,29.257,142.895L29.257,142.895z M32.648,144.387c0.231-0.012,0.453,0.031,0.609,0.136
		c0.379,0.247,0.399,0.747,0.036,0.997c-0.828,0.531-2.121-0.195-1.434-0.829C32.054,144.516,32.355,144.406,32.648,144.387
		L32.648,144.387z M80.359,145.379l0.023,2.367l-4.882,2.578l0.32-2.402L80.359,145.379z M30.234,145.656
		c0.32-0.02,0.625,0.055,0.895,0.254c0.289,0.367,0.636,0.477,0.839,0.484c0.836,0.031,0.571,0.339-0.308,0.742
		c-1.211,0.55-2.063,1.254-2.938,2.063c-0.906,0.844-0.972,1.023-1.269,0.68C26.343,148.594,28.504,145.754,30.234,145.656
		L30.234,145.656z M86.636,145.684l5.122,2.8l0.438,2.364l-5.559-3.094V145.684z M33.597,147.352
		c0.207-0.004,0.403,0.043,0.555,0.168c0.363,0.296,0.152,0.871-0.352,1.128c-0.425,0.22-1.132,0.125-1.335-0.077
		C31.98,148.086,32.859,147.367,33.597,147.352L33.597,147.352z M31.125,148.543c0.312-0.031,0.593,0.367,0.847,0.797
		c0.086,0.105,0.438,0.058,0.688,0.058c0.961,0.009,1.094,0.414,0.164,0.931c-0.274,0.151-1.164,0.836-1.762,1.34
		c-1.605,1.535-2.476,1.176-2.273-0.396C28.988,149.77,30.293,148.621,31.125,148.543L31.125,148.543z M86.636,148.687l5.649,3.099
		l0.551,2.547l-6.2-3.34V148.687z M80.402,148.733l-0.023,2.345l-5.317,2.813l0.414-2.379L80.402,148.733z M86.722,151.719
		l6.325,3.832l0.23,2.492l-6.555-3.777V151.719z M80.398,152.137l0.012,2.3l-5.879,2.981l0.297-2.172L80.398,152.137z
		 M32.672,153.656c0.152-0.004,0.293,0.02,0.41,0.073c0.687,0.317,0.508,0.864-0.528,1.431c-1.058,0.573-1.418,0.477-1.644-0.168
		C30.718,154.445,31.863,153.676,32.672,153.656L32.672,153.656z M98.726,153.969c11,2.52,21.77,7.961,32.223,17.468l-2.184,1.543
		c0,0-9.164-10.444-29.523-16.573L98.726,153.969z M86.785,155.062l3.055,1.802l0.004,0.457l-3.059-0.25V155.062z M34.804,155.082
		c0.231,0.012,0.434,0.147,1.524,0.668c4.379,3.16,6.133,5.065,7.222,8.531c0.649,2.077,0.637,1.991-1.503,0.863
		c-2.016-1.066-4.778-2.844-6.559-5.137c-0.293,5.398,0.336,12.109,0.336,12.109c2.734,1.352,1.851,4.859,1.844,4.84
		c7.039-1.922,5.496,7.367,0.25,5.363c1.25,6.969-6.731,6.402-5.911,0.43c-6.351-0.246-5.23-7.168,0.043-6.211
		c-0.546-2.137,0.207-3.586,2.153-4.5l-0.297-9.125c0,0-5.176,7.43-6.043,7.313c-0.508-0.066-1.27-0.922,0.016-7.434
		c0.671-3.396,4.269-7.523,6.281-7.656C34.515,155.113,34.664,155.074,34.804,155.082L34.804,155.082z M39.867,155.152l0.926,0.637
		l-0.875,1.559l-0.965-0.7L39.867,155.152z M80.367,155.598l-0.031,1.367l-2.848,0.172L80.367,155.598z M49.109,171.039
		c-0.43,0.012,0.723,0.281,1.449,0.934c6.707,1.039,10.813,9.246,7.707,15.188c-0.375,0.266,0.203,1.559,0.582,1.073
		c3.274-4.636,0.836-16.038-8.711-17.125C49.57,171.062,49.25,171.035,49.109,171.039L49.109,171.039z M51.644,174.156
		c-0.539,1.48-0.683,1.832,0.699,1.23c2.442,0.902,5.079,4.879,4.235,8.871c-0.27,0.465,0.203-0.305,0.523,1.012
		C58.308,182.344,57.105,176.039,51.644,174.156L51.644,174.156z M82.652,181.598c6.867-0.02,13.664,1.48,19.07,4.586
		c-1.836,1.023-7.699,2.449-7.699,2.449c-3.297-3.699-4.976-7.399-10.933-5.508c-6.243,1.613-11.864,7.012-15.024,10.598
		c-3.172-1.891-4.891-2.352-7.699-2.508c-0.164-0.004-0.406,0.711-0.207-0.442c0.805-1.237,1.359-2.644,1.898-4.062
		C67.949,183.363,75.343,181.617,82.652,181.598L82.652,181.598z M104,186.344c-1.367,4.422-3.133,8.781-6.129,12.621l-0.371-1.918
		c2.816-4.328,4.152-8.262,4.754-9.985L104,186.344z M101.343,187.492c0.176,0.28-2.734,7.207-4.168,8.465l-0.563-1.785
		c1.172-1.77,2.902-6.027,2.852-6.07L101.343,187.492z M83.613,187.5c-0.09,0.008-0.125,0.086-0.125,0.262
		c0,0.633,0.66,1.136,1.871,1.41c1.629,0.367,3.918-0.195,3.922-0.969c0-0.445-0.32-0.477-1.254-0.047
		c-1.172,0.543-2.207,0.438-3.738-0.371C83.941,187.598,83.73,187.488,83.613,187.5L83.613,187.5z M98.148,188.604
		c-0.453,1.677-1.129,2.915-1.988,4.196l-0.277-0.883c0.594-0.961,0.988-2.063,1.492-3.129L98.148,188.604z M96.441,189.147
		c-0.219,0.582-0.465,1.259-0.969,1.778l-0.652-1.387L96.441,189.147z M86.109,190.434c-1.105,0.02-2.199,0.375-2.297,0.964
		c-0.043,0.282,0.379,0.173,2.438-0.077c1.086-0.134,1.601,0.512,2.597,0.441c0.508-0.059,0.032-0.528-0.125-0.66
		C88.172,190.629,87.086,190.414,86.109,190.434L86.109,190.434z M81.39,191.715c-0.113,0.019,0.012,0.305,0.426,1.023
		c0.227,0.391,0.281,1.184,0.324,1.676c-0.054,1.223-0.05,1.188,0.555,0.477c0.379-0.375,1.121-0.293,2.293,0.023
		c0.754,0.203,0.937,0.276,1.461-0.051c0.609-0.38,0.75-0.188,1.273-0.082c0.504,0.102,0.965-0.102,1.52-0.254
		c0.676-0.188,0.805-0.145,1.395,0c0.898,0.426,0.766,0.387,0.844-1.137c0.074-1.504-0.008-1.609-0.875-1.102
		c-0.844,0.488-1.422,0.711-2.715,0.262c-1.406-0.492-1.605-0.367-2.601-0.067c-1.207,0.364-1.758,0.489-2.719-0.101
		C81.941,191.996,81.515,191.687,81.39,191.715L81.39,191.715z M61.73,193.979l0.539,0.875c4.863,1.743,8.16,5.72,6.215,12.418
		l0.461,0.739C71.379,201.262,68.601,195.68,61.73,193.979L61.73,193.979z M63.234,196.836l0.664,1.359
		c3.66,1.77,3.442,6.641,3.234,6.445l0.575,1.27C68.625,202.758,66.957,198.104,63.234,196.836L63.234,196.836z M78.523,204.098
		c-0.144,0.004-0.238,0.05-0.277,0.152c-0.094,0.242,0.187,0.387,1.859,1.543c1.438,0.996,2.547,1.729,2.461,1.875
		c-0.055,0.094-0.949-0.125-1.586-0.313c-1.672-0.496-4.133,0.103-5.515,1.075c-0.352,0.234-0.934-0.023-1.442-0.153
		c-0.203-0.058-0.652-0.112-0.871-0.054c-1.043,0.273-0.035,1.27,2.523,2.566c3.137,1.586,4.836,1.73,6.743,0.77
		c1.265-0.657,1.718-0.168,0.336,0.578c-2.418,1.304-4.735,0.898-8.555-1.727c-1.77-1.22-2.477-1.016-0.953,0.145
		c2.668,2.09,7.804,4.632,10.961,1.523c0.121-0.043,0.406-0.023,0.547-0.023c0.656,0.004,0.683-0.203,0-1.285
		c-0.414-0.652-1.247-1.34-0.235-2.141c0.77-0.606,0.715-0.891-0.215-1.172c-0.246-0.066-0.218,0.094-0.589-0.203
		C81.484,205.453,79.3,204.094,78.523,204.098L78.523,204.098z M79.488,207.656c0.937,0.023,1.883,0.746,2.18,2.043
		c0.023,0.116,0.047,0.234,0.062,0.359l-0.797,0.031c-0.66-2.645-2.656-1.77-2.855-0.219l-0.719-0.099
		C77.625,208.301,78.55,207.629,79.488,207.656L79.488,207.656z M96.027,209.914l-0.531,0.078c-0.348-0.977-1.922-2.285-2.672,0.09
		l-0.672-0.027C92.621,206.84,95.539,207.34,96.027,209.914L96.027,209.914z M91.953,208.578c0.219,0.309-0.164,0.828-0.387,1.066
		c-0.211,0.227-0.684,0.035-0.879-0.191c-0.176-0.22-0.047-0.66,0.242-0.809C91.226,208.492,91.734,208.354,91.953,208.578
		L91.953,208.578z M82.605,208.672c0.223,0.5-0.398,0.871-0.476,0.703c-0.137-0.047-0.301-0.871-0.223-0.926
		C82.109,208.445,82.523,208.512,82.605,208.672L82.605,208.672z M96.656,208.59c0.336,0.027,0.703,0.188,0.77,0.566
		c0.004,0.254-0.285,0.527-0.617,0.539c-0.148,0.008-0.707-0.402-0.602-0.992C96.324,208.496,96.46,208.574,96.656,208.59
		L96.656,208.59z M77.125,208.75c0.117,0.18-0.106,0.719-0.157,0.793c-0.023,0.039-0.742,0.008-0.726-0.047
		c0.015-0.051-0.067-0.457,0.109-0.754C76.55,208.613,76.98,208.547,77.125,208.75L77.125,208.75z M90.152,210.492
		c0.094,0,0.211,0.039,0.352,0.125c2.008,1.309,4.586,1.891,6.445,0.957c0.414-0.211,0.688-0.199,0.688,0.004
		c-0.004,0.219-0.461,0.672-1.32,0.926c-1.914,0.578-5.074-0.184-6.168-1.356C89.828,210.805,89.875,210.483,90.152,210.492
		L90.152,210.492z M72.558,211.858c-0.191-0.007-0.254,0.106-0.215,0.341c0.125,0.777,5.493,3.855,7.735,4.27
		c1.844,0.343,3.273,0.191,4.402-0.465c2.735-1.59,2.031-3.738-0.644-2.117c-1.801,1.086-6.36,0.586-9.071-0.98
		C73.562,212.211,72.879,211.867,72.558,211.858L72.558,211.858z M96.734,212.983c0.676-0.284,0.969-0.382,1.117-0.257
		c0.691,0.574-0.441,1.477-2.5,1.828c-1.648,0.27-2.641,0.32-4.523-1.071c-1.457-1.077-0.77-1.597,0.066-1.108
		C93.121,213.676,94.773,213.715,96.734,212.983L96.734,212.983z M73.035,216.352c4.75,1.699,10.148,5.8,12.547,10.777l-1.465-0.012
		c-1.629-2.841-4.856-6.453-10.172-8.992C73.476,217.738,73.23,217.047,73.035,216.352L73.035,216.352z M97.968,218.68v1.559
		c-2.934,1.477-5.395,3.754-7.25,6.891l-1.66-0.024C90.96,223.738,93.812,220.586,97.968,218.68L97.968,218.68z M97.968,221.055
		v1.91c-1.855,1.09-3.406,2.523-4.488,4.164h-1.965C93.089,224.469,95.25,222.348,97.968,221.055L97.968,221.055z M76.234,222.522
		c1.414,0.813,3.754,2.978,4.606,4.646l-0.758,0.035c-0.77-0.98-2-2.105-3-2.992C76.441,223.457,76.234,222.522,76.234,222.522
		L76.234,222.522z M97.968,223.746c0.023,0,0.023,0.016,0,0.047v1.519c0,0.04-1.41,0.961-2.008,1.817h-1.598
		C95.46,225.147,97.738,223.742,97.968,223.746L97.968,223.746z M97.972,226.27l-0.004,0.859l-1.004,0.004
		C97.031,227.035,97.589,226.426,97.972,226.27L97.972,226.27z M78.422,226.488c0.3,0.156,0.531,0.719,0.531,0.719l-0.27,0.031
		L78.422,226.488z M78.422,226.488"/>
	<path fill="#E2CF00" d="M37.843,192.871c3.301,0.09,10.27-1.145,10.157-1.02c0,0,21.617,35.918,20.738,35.563
		c-0.281,0.444-27.691,0.43-27.691,0.43C40.453,227.848,46.863,214.535,37.843,192.871L37.843,192.871z M47.648,167.565
		c10.531-8.726,21.567-8.793,33.414-9.991l0.274-29.664l4.285,2.566l0.094,27.18c15.636,1.172,29.132,6.898,40.722,16.926
		c0.148,0.215-16.77,9.262-24.18,11.656c-5.75-4.223-20.925-6.884-30.993-3.641c-2.761,0.895-6.156,2.32-9.457,3.375
		c2.391-14.32-8.793-16.434-12.722-17.094C48.59,168.797,48.004,167.733,47.648,167.565L47.648,167.565z M34.125,172.195
		c0.183-3.051-0.016-6.105-0.243-9.223c-0.058-0.715-6.16,9.281-6.5,6.855c-0.855-6.066,2.161-13.781,6.895-14.73
		c0.473-0.637,9.852,5.168,9.422,10.184c-0.141,1.633-8.367-5.52-8.402-5.095c-0.192,0.84,0.246,12.032,0.5,12.013
		c2.367,1.332,1.851,3.043,2.109,4.461c1.617-0.434,4.285,0.109,4.621,2.073c-0.121,4.056-4.609,3.813-4.609,3.813
		c0.609,1.973-0.211,5.055-3.078,4.851c-1.993,0.099-3.575-2.944-2.758-4.722c-0.262,0.438-5.16-0.664-4.418-3.567
		c0.39-1.511,1.133-3.187,4.343-2.468C31.777,174.805,32.23,172.895,34.125,172.195L34.125,172.195z M43.05,136.902
		c-0.445-0.18-16.597-1.005-16.597-1.005l0.844-39.324c8.246-18.929,39.277-10.078,34.339-6.051
		C46.808,100.234,44.55,117.949,43.05,136.902L43.05,136.902z M72.84,120.746l-0.493-4.367c-1.269-2.711,33.02,13.121,33.407,13.457
		l0.996,4.66C106.949,136.543,84.941,126.203,72.84,120.746L72.84,120.746z M135.207,113.035
		c-0.504,17.645-3.227,29.598-13.48,44.016c-0.285,0.472-3.184,1.676-3.406,2.082c1.465,2.316,9.832,5.715,13.695,7.543
		l20.102-11.969c0.234,0.016-0.688-41.937-0.688-41.937L135.207,113.035z M142.816,93.871c-2.699-0.41-8.984-6.926-7.684-8.898
		c0.039-1.477,7.82,4.183,8.629,5.707c-0.398-0.453-0.453-13.828-0.582-13.293c-0.293,0.156-2.375-1.332-1.832-4.121
		c-3.621,0.504-4.676-1.774-4.566-2.868c0.227-2.269,2.613-2.937,4.141-3.246c-0.504-3.121,1.527-4.14,2.379-4.277
		c1.422-0.227,3.863,0.531,3.27,4.539c1.707-0.266,4.816-0.273,4.992,2.813c0.152,2.726-1.738,3.472-4.465,2.753
		c0.473,3.137-0.82,4.004-2.633,4.633c0.117,1.313,0.609,10.082,0.609,10.082s5.449-8.343,5.84-7.625
		C152.003,82.602,150.019,95.988,142.816,93.871L142.816,93.871z M117.566,63.09c-2.668,7.719,4.742,19.902,10.641,18.125
		c1.281-0.203,3.734,0.488,2.887,1.176c-10.039,8.132-33.469,9.82-33.477,9.468c0.246,9.981-0.215,19.965-0.453,29.946l-4.273-2.575
		c-0.137-9.105-0.371-18.328-0.578-27.429C77.3,89.844,63.804,85,53.144,74.703c7.078-5.242,15.539-8.519,23.66-11.832
		C87.035,68.184,101.277,71.254,117.566,63.09L117.566,63.09z M110.156,22.836c-0.469-0.207,1.621-1.758,1.621-1.758
		s17.441,0.231,26.094,0.113c-3.152,12.934-0.922,24.524,3.148,35.653c0,0-9.641,0.883-9.871,1.113
		C130.867,58.238,110.378,23.152,110.156,22.836L110.156,22.836z M110.156,22.836"/>
	<path fill="#D40000" d="M160.828,237.324c-0.281-0.793-0.285-0.891-0.348-8.138c-0.063-7.323-0.031-8.128,0.363-9.647
		c0.758-1.895-1.457-1.902-2.859-2.129v-2.996c1.645-0.228,3.629,0.25,4.355,1.215c1.711-1.184,2.816-1.383,4-1.336
		c3.977,0.016,5.723,2.473,5.617,7.211c-0.02,0.773,0.121,1.762,0.121,1.762h2.137v3.031h-2.25c0,0,0.367,7.515-0.141,10.172
		C170.277,242.383,162.933,242.77,160.828,237.324L160.828,237.324z M168.925,236.258c0.383-0.903,0.324-0.524,0.34-7.422
		l-0.012-3.149c-3.148-0.729-5.938-4.507-5.918-4.507c0,0-0.039-0.359-0.066,6.793c-0.031,8.113,0.254,8.582,1.973,9.895
		C166.91,238.809,168.281,237.738,168.925,236.258L168.925,236.258z M164.523,218.02c0.961,1.348,2.152,2.727,3.57,3.839
		c0.527,0.414,1.273,0.582,1.273,0.582s-0.039-0.913-0.043-1.379C169.304,218.229,167.265,216.004,164.523,218.02L164.523,218.02z
		 M68.476,227.344l-20.539-35.614l3.445-1.339l22.094,36.863L68.476,227.344z M124.406,222.426
		c-7.918-1.246-10.145-11.199-4.328-20.563c2.754-4.539,14.281-21.438,13.605-20.875c-0.363-0.316,8.859,13.082,13.465,19.952
		c4.363,7.246,6.688,19.087-4.039,21.263c-4.105,0.832-8.375-1.642-8.566-6.434c-0.023-0.676-0.301-1.223-0.695-1.223
		c-0.328,0-0.559,0.469-0.559,0.933C133.175,220.062,129.066,223.187,124.406,222.426L124.406,222.426z M161.527,210.715
		c-3.523-1.176-4.156-5.403-1.527-10.238c2.152-3.84,3.277-4.829,5.262-8.645c0.813-1.574,0.902-1.609,1.516-0.531
		c1.473,2.438,3.086,5.09,4.406,7.152c3.453,5.383,4.059,9.137,1.844,11.401c-2.012,2.056-6.266,0.86-6.289-1.765
		c0-0.125-0.063-0.336-0.133-0.473c-0.164-0.306-0.484-0.102-0.488,0.309C166.101,209.836,163.546,211.387,161.527,210.715
		L161.527,210.715z M31.683,179.621l3.297-3.06l2.953,3.418l-3.093,2.668L31.683,179.621z M99.441,159.809l-0.426-2.547
		c12.148,2.977,22.094,9.218,29.246,16.02l-1.703,1.245C127.089,174.383,109.296,161.043,99.441,159.809L99.441,159.809z
		 M64.152,157.301l3.852-0.559l-0.11,2.141l-3.66,0.832L64.152,157.301z M135.273,155.82l-2.098-1.902l1.352-1.789l2.25,1.43
		L135.273,155.82z M63.91,138.363c5.219-2.469,9.289-12.43,8.777-13.094l2.844,0.676l-6.566,27.284l-4.946,0.892
		C64,148.902,63.91,143.578,63.91,138.363L63.91,138.363z M98.238,153.801c-1.77-5.746-5.25-18.739-5.25-18.739
		c0.125,0.427,11.313,3.606,15.301,2.446c1.707,2.332,3.578,4.383,5.555,6.262C109.703,147.82,104.558,151.203,98.238,153.801
		L98.238,153.801z M145.125,132.891l-1.844-1.637l1.395-2.516l2.605,2.034L145.125,132.891z M119.382,131.75
		c-1.605-2.887-1.719-6.146,1.262-9.363L119.382,131.75z M58.172,126.16c-0.129-0.297,0.675-7.133,0.863-7.438
		c0.332-0.532,0.98,1.386,1.289,2.851C60.707,123.41,58.636,127.25,58.172,126.16L58.172,126.16z M103.187,124.035
		c0,0,4.332-20.07,6.211-27.933l5.285-1.332l-0.715,16.476c-4.344,3.883-7.957,13.137-7.957,13.137L103.187,124.035z
		 M32.949,120.539c-0.742-0.605-2.207-1.715-1.563-2.254c0.352-0.293,1.7-1.453,2.071-1.316c0.707,0.258,2.09,1.183,1.543,1.871
		C34.574,119.375,33.39,120.902,32.949,120.539L32.949,120.539z M71.035,112.875l-5.75-6.723c3.562-4.949,9.469-7.812,15.73-10.062
		l4.239,18.859C80.465,113.504,75.297,111.941,71.035,112.875L71.035,112.875z M41.781,96.43c-0.762-0.567,0.422-1.563,1.113-2.231
		c0.805-0.781,2.656,1.004,2.133,1.969c-0.324,0.598-1.086,1.961-1.574,1.922C43.168,98.066,42.078,96.648,41.781,96.43
		L41.781,96.43z M110.839,90.398l3.699-0.527l-0.277,2.539l-3.914,0.621L110.839,90.398z M50.617,76.141l2.273-1.414
		c7.992,7.171,16.821,12.121,26.446,14.933l0.648,3.098C69.129,89.414,58.875,84.344,50.617,76.141L50.617,76.141z M144,73.277
		l-2.961-2.918l2.668-2.961l3.164,2.735C145.824,71.707,144,73.277,144,73.277L144,73.277z M44.664,67.883
		c-3.668-5.664-7.895-11.68-11.219-16.633c-5.512-8.246-7-13.832-5.266-18.891c2.844-8.285,14.985-7.847,15.868,0.571
		c0.179,1.718,0.996,1.574,1.214-0.2c1.176-9.363,15.414-8.14,16.27,1.836c0.898,8.473-4.957,15.047-8.191,19.532
		C50.468,58.668,47.129,63.02,44.664,67.883L44.664,67.883z M9.578,54.461c-2.403-4.016-8.969-13.09-2.672-15.883
		c2.234-0.992,5.09,0.777,5.086,2.668c-0.004,0.856,0.469,0.902,0.578,0.016c0.461-3.711,5.668-3.977,7.332-0.387
		c1.422,4.27-1.148,8.164-4.75,13.648c-0.824,1.262-2.734,4.688-2.734,4.688L9.578,54.461z M127.21,59.328l-22.223-37.941h4.172
		l21.57,36.453L127.21,59.328z M6.672,26.09H4.41v-3.035h2.262c0,0,0.019-1.629,0.082-4.512c0.14-6.145,0.3-7.098,2.105-8.789
		c3.578-3.34,9.57-0.617,9.496,4.406c-0.101,7.09-0.027,13.852-0.238,14.809c-0.371,1.687-0.41,1.781-0.258,2.09
		c0.313,0.621,3.02,0.886,3.02,0.711v2.988c-2.067,0.16-2.926-0.031-4.579-1.192c-1.035,0.981-4.175,1.957-6.675,0.805
		C7.726,33.492,6.281,31.223,6.672,26.09L6.672,26.09z M14.328,31.383c-1.121-1.598-3.008-3.77-4.793-4.539
		c-0.106,1.828,0.051,3.367,0.707,4.191C11.289,32.352,12.972,32.652,14.328,31.383L14.328,31.383z M15.261,13.867
		c-0.832-2.32-2.972-3.101-4.539-1.656c-0.976,0.906-1.132,1.851-1.152,7.008c-0.016,3.183-0.016,4.519-0.016,4.519
		c3.047,0.969,5.891,4.453,5.864,4.407l0.078-9.618C15.55,16.969,15.476,15.406,15.261,13.867L15.261,13.867z M15.261,13.867"/>
	<path fill="#0E0C07" d="M105.246,20.652l-5.297,0.02l30.047,60.426c0,0-0.813,0.136-2.406-0.282
		c-7.219-1.894-11.664-9.515-10.031-16.992c0.164-0.582,0.207-1.082,0.207-1.082c-18.602,8.422-30.121,5.32-40.859-0.039
		l-4.582,1.754c0.305-2.766,3.726-13.152,8.844-18.043l-0.008-5.242l-0.121-2.473l-0.407-4.488
		c-7.613,7.172-16.5,18.457-17.613,34.484c0,0-6.933,3.563-12.851,7.5c0.328-0.043,9.218,10.875,30.578,17.004l-0.942-3.484
		c3.176,0.89,7.692,1.597,12.184,2.168l0.602,27.355l5.102,3.02l0.172-30.289c0.156,0.125,8.137-0.282,12.434-1.305l-0.605,2.918
		l4.246-0.836v2.133l-4.656,1.098l-6.625,28.312l3.859,0.858c1.129-5.703,3.984-10.315,8.117-13.144l-0.043-1.086
		c2.652-1.902,8.164-3.414,8.199-3.379c1.879-9.184,6.254-15.547,10.906-21.598l-2.215-3.011l8.496-3.114l-11.793-20.062
		c4.535-3.129,13.535-1.965,13.535-1.965c-3.859-10.41-7.246-21.148-3.438-36.902l-32.801,0.027L105.246,20.652z M116.003,21.309
		c-0.008,2.628-3.445,2.359-3.863-0.016L116.003,21.309z M137.078,21.223c-2.086,12.066-1.395,23.82,3.445,34.988
		c0,0-0.707,0.039-0.793,0.023c-0.066-0.015,0.082-0.605,0.043-0.761c-0.094-0.418-0.789-0.223-1.375,0.172
		c-0.254,0.167-0.547,0.363-0.73,0.457c-0.598,0.3-3.641,0.277-3.641,0.277c0.992-0.672,2.387-2.563,1.578-3.664
		c-0.184-0.235-0.293-0.133-0.473,0.183c-0.863,1.536-1.293,1.778-2.445,1.762c-1.813-0.023-3.105-1.145-2.961-2.836
		c0.145-1.64,2.563-2.512,2.203-0.914c-0.098,1.418,1.313,1.695,1.574,0.281c0.098-0.531,0.02-0.285,0.133-0.906
		c2.82-1.496,1.266-4.539-1.367-3.902c-0.617,0.164-0.695,0.219-1.133-0.004c-0.809-0.418-1.484-0.289-1.789,0.301
		c-0.27,0.515,0.141,0.929,0.742,0.929c0.625,0.004,0.746,0.305,0.742,0.68c-0.004,0.871-1.508,1.289-2.504,0.781
		c-2.629-1.34-1.656-4.832,1.398-4.82c0.93,0.004,1.316,0.062,1.355-0.137c0.113-0.562-1.305-1.539-2.105-1.394
		c-0.68,0.133-1.09,0.308-0.73-0.594c0.219-0.93,0.211-1.355,0.027-2.055c-0.492-1-0.477-0.488-0.781,0.325
		c-1.004,1.667-2.523,2.039-3.828,1.125c-1.211-0.848-1.176-2.458-0.023-3.602c0.801-0.797,1.66-0.254,1.18,0.637
		c-0.199,0.367-0.043,0.824,0.316,0.914c0.723,0.187,1.172-0.239,1.176-1.117c-0.016-0.481-0.152-0.59,0.719-1.086
		c2.25-1.286,0.566-4.797-1.973-3.668c-0.559,0.25-0.688,0.492-0.941,0.375c-1.059-1.004-2.582,0.265-1.684,0.938
		c0.391,0.188,0.867,0.262,0.992,0.274c0.219,0.125,0.145,0.437-0.176,0.828c-1.051,1.238-3.438,0.625-4-1.121
		c-0.652-2.028,1.418-4.157,3.004-2.977c0.469,0.352,0.875,0.387,0.879-0.129c0-0.805-1.012-1.73-2.305-1.637
		c-1.313,0.09-1.168,0.262-0.453-0.925c0.527-1.059,0.453-2.086-0.004-2.707c-0.355-0.48-0.719-0.582-0.684-0.075
		c0.289,1.571-1.547,3.063-3.055,2.403c-1.449-0.649-2.168-2.27-1.457-3.68c0.656-1.297,2.25-1.434,1.984-0.043
		c-0.125,0.883,0.547,1.348,1.199,0.828c0.234-0.191,0.293-0.359,0.309-0.929c0.016-0.637-0.242-0.825,0.168-1.196
		c1.074-0.14,1.141-2.426,0.98-2.519L137.078,21.223z M117.835,21.301c0.68,0,1.246,0.23,1.246,0.914c0,0.68-0.551,1.23-1.23,1.23
		c-0.684,0-1.238-0.55-1.238-1.23C116.613,21.531,117.152,21.301,117.835,21.301L117.835,21.301z M105.738,21.391h2.742
		l21.672,36.117l-2.566,1.246L105.738,21.391z M110.242,22.652c1.316,0.75,2.527,1.368,4.176,1.528
		c-0.484,0.98-0.922,2.047-1.004,3.875L110.242,22.652z M114.656,29.926c1.34,0.48,2.5,1.203,4.703,0.472
		c-1.176,1.039-1.84,2.282-2.34,3.59L114.656,29.926z M125.933,34.289c0.633,0,1.145,0.512,1.145,1.145
		c0,0.628-0.512,1.14-1.145,1.14s-1.145-0.512-1.145-1.14C124.789,34.801,125.3,34.289,125.933,34.289L125.933,34.289z
		 M118.914,37.141c0.965,0.355,1.977,0.589,3.102,0.539c-0.555,0.765-0.746,1.929-0.781,3.257L118.914,37.141z M122.23,42.832
		c0.895,0.438,1.953,1.074,3.832,0.867c-1.246,2.113-0.977,2.696-1.105,3.617L122.23,42.832z M133.089,47.023
		c0.664,0,1.199,0.539,1.199,1.2c0,0.664-0.535,1.199-1.199,1.199c-0.66,0-1.195-0.535-1.195-1.199
		C131.894,47.562,132.429,47.023,133.089,47.023L133.089,47.023z M126.359,49.715c0.82,0.465,2.438,0.726,2.453,0.601
		c-0.102-0.078-0.465,1.563-0.527,2.59L126.359,49.715z M130.132,55.867c1.164,0.688,2.453,0.621,3.207,0.703
		c-0.809,0.16-1.57,0.364-2.441,0.707L130.132,55.867z M143.863,62.621c-2.805,0.184-3.453,2.332-3.121,4.512
		c-2.141-0.34-4.535,1.687-3.863,4.164c0.633,2.351,2.82,2.433,4.328,2.277c-0.117,0.574-0.434,2.492,1.887,4.117l0.309,12.207
		c0,0-1.02-0.937-1.688-1.605c-2.918-2.902-7.305-5.008-7.027-3.371c0.039,0.242,0.133,0.851,0.203,1.355
		c0.465,2.766,4.176,5.754,6.707,7.258c0.902,0.504,1.465,1.043,1.465,1.043c-4.734,5.063-7.281,10.461-7.914,15.82
		c-0.59,4.981-1.066,9.469-1.535,14.039c-1.93,22.942-11.773,28.71-12.242,29.833l-0.184,3.059l-2.746-0.203l-3.168,2.738
		c10.371,5.359,16.422,11.827,16.34,11.952c8.281-5.425,15.43-11.448,22.18-17.683l-0.133-51.074c0,0-0.559,0.203-0.703,0.203
		c-0.516-0.004-0.578,0.226-0.758,1.207c-0.094,0.523-0.406,1.004-0.648,1.347c-0.465,0.653-0.301,0.321,0.285,0.559
		c1.328,0.535-0.398,2.973-2.285,3.27c-1.359,0.214-2.121,0.464-2.352,0.777c-2.863,2.504-5.715,2.902-7.871,1.98
		c-1.063-0.453-2.215-1.113-2.605-2.218c-0.883-2.508,0.961-6.118,2.043-8.204c1.984-3.828,5.281-6.703,5.281-6.703l-0.539-0.586
		c0,0,0.648,0.012,0.77-0.031c2.848-1.035,3.023-1.051,3.547-1.805c0.523-0.753,1.844-2.906,2.113-3.613
		c1.465-3.805,1.66-4.051,1.656-6.547c0-2.019-0.137-3.371-0.527-3.476c-2.242,1.718-4.504,5.73-5.828,8.097
		c-0.457-3.504-0.594-9.625-0.594-9.625c0.477-0.523,3.168-0.23,2.57-4.617c2.371,1.067,4.867-0.566,4.762-2.851
		c-0.164-3.551-2.898-3.446-5.129-2.996C147.91,65.078,145.89,62.492,143.863,62.621L143.863,62.621z M143.82,62.922
		c2.93,0.09,3.508,3.324,1.715,5.156c0,0-1.16-0.894-1.777-1.402c-0.586,0.457-0.758,0.855-1.398,1.332
		c-0.766-0.567-1.223-1.563-1.23-2.524C141.164,63.984,142.675,62.887,143.82,62.922L143.82,62.922z M76.933,63.02
		c11.848,6.621,26.704,7.097,40.301,0.347l-0.168,1.121l-1.488,0.84l0.844,1.547l0.465-0.227l0.012,1.024
		c-11.211,6.055-29.988,7.308-44.687-2.746l1.281-0.594c0,0,0.289,0.199,0.566,0.371c0.535,0.332,1.418,0.867,2.004,1.125
		l0.887-1.281c0,0-1.356-0.828-1.223-0.883L76.933,63.02z M77.976,65.051l-0.679,1.543l1.699,0.902l0.648-1.551L77.976,65.051z
		 M71.531,65.227c18.242,11.449,35.227,8.043,45.426,3.359l0.129,1.219c-13.16,5.601-30.473,7.105-46.946-3.973L71.531,65.227z
		 M114.476,65.961l-1.625,0.648l0.645,1.485l1.668-0.711L114.476,65.961z M69.351,66.238c14.824,9.559,30.727,11.43,47.863,4.426
		l0.656,1.832c-16.691,6.699-34.305,5.93-50.399-5.465L69.351,66.238z M80.742,66.293l-0.664,1.602l1.84,0.699l0.535-1.574
		L80.742,66.293z M111.921,66.953l-1.605,0.524l0.5,1.531l1.664-0.567L111.921,66.953z M83.55,67.395l-0.398,1.609l1.879,0.527
		l0.328-1.617L83.55,67.395z M151.449,70.043c0.254,2.742-3.809,4.062-5.328,1.508l1.34-1.629l-1.199-1.117
		C147.89,66.234,151.21,67.473,151.449,70.043L151.449,70.043z M67.066,67.48l4.422,3.043l-3.215,4.993l-4.762-3.2L67.066,67.48z
		 M143.718,67.621l2.809,2.434l-2.574,3.019l-2.637-2.66L143.718,67.621z M141.972,68.445l-1.578,1.836l1.711,1.821
		c-2.027,2.152-5.051,0.824-5.023-1.813C137.105,68.273,140.187,66.316,141.972,68.445L141.972,68.445z M109.23,67.742l-1.688,0.504
		l0.387,1.481l1.746-0.457L109.23,67.742z M86.472,68.207l-0.312,1.59l1.937,0.418l0.328-1.586L86.472,68.207z M106.445,68.477
		l-1.793,0.39l0.309,1.582l1.797-0.379L106.445,68.477z M143.91,68.852l-1.48,1.449l1.48,1.535l1.488-1.535L143.91,68.852z
		 M89.578,68.895L89.351,70.5l2.031,0.273l0.156-1.621L89.578,68.895z M103.253,69.117l-1.828,0.207l0.188,1.571l1.895-0.239
		L103.253,69.117z M92.472,69.301l-0.023,1.644l1.781,0.145l0.004-1.633L92.472,69.301z M100.324,69.453l-1.785,0.067l0.008,1.593
		l1.828-0.117L100.324,69.453z M67.707,69.469c-1.051,0-1.903,0.851-1.903,1.906c0,1.051,0.852,1.902,1.903,1.902
		c1.054,0,1.906-0.851,1.906-1.902C69.613,70.32,68.761,69.469,67.707,69.469L67.707,69.469z M97.328,69.523l-1.758,0.016
		l0.008,1.609l1.813,0.008L97.328,69.523z M143.91,69.531l0.77,0.77l-0.77,0.761l-0.789-0.761L143.91,69.531z M67.703,70.141
		c0.691,0,1.25,0.558,1.25,1.25c0,0.688-0.559,1.25-1.25,1.25c-0.688,0-1.25-0.563-1.25-1.25
		C66.453,70.699,67.015,70.141,67.703,70.141L67.703,70.141z M60.937,70.234l2.531,2.059c-0.808,1.543-3.355,4.797-3.355,4.797
		l-4.68-3.746l2.446-1.383c-0.133,0.254-0.207,0.543-0.207,0.851c0,1.036,0.839,1.872,1.875,1.872c1.031,0,1.871-0.836,1.871-1.872
		c0-0.988-0.774-1.796-1.75-1.863L60.937,70.234z M59.523,71.559c0.692,0,1.254,0.562,1.254,1.253c0,0.696-0.562,1.254-1.254,1.254
		c-0.695,0-1.258-0.558-1.258-1.254C58.265,72.121,58.828,71.559,59.523,71.559L59.523,71.559z M145.55,72.152
		c0,0,0.691,0.262,0.859,0.52c1.355,2.082-0.059,4.562-2.332,4.512c-2.66-0.055-3.359-3.387-1.531-4.747l1.488,1.403L145.55,72.152z
		 M76.445,73l5.242,2.012l-1.988,5.691l-5.731-2.348L76.445,73z M54.91,73.594c21.375,19.258,51.742,20.644,73.816,7.859
		l1.344-0.027l0.715,0.73c-25.148,14.871-56.406,11.637-77.508-7.504L54.91,73.594z M113.769,74.742l1.688,5.629l-5.793,1.524
		l-1.297-5.704L113.769,74.742z M52.718,74.945c6.489,6.25,15.661,11.731,26.434,14.836l0.266,2.309
		c-11.438-3.434-20.075-8.02-28.489-15.981L52.718,74.945z M77.832,75.035c-1.032,0-1.871,0.836-1.871,1.871
		c0,1.031,0.839,1.867,1.871,1.867c1.035,0,1.875-0.836,1.875-1.867C79.707,75.871,78.867,75.035,77.832,75.035L77.832,75.035z
		 M68.515,75.453l5.403,2.859l-2.692,5.391l-5.742-3.078L68.515,75.453z M77.808,75.648c0.696,0,1.258,0.563,1.258,1.258
		c0,0.692-0.562,1.25-1.258,1.25c-0.691,0-1.254-0.558-1.254-1.25C76.554,76.211,77.117,75.648,77.808,75.648L77.808,75.648z
		 M86.761,76.418l5.192,0.754l-0.238,5.754l-6.063-0.727C85.886,80.172,86.761,76.418,86.761,76.418L86.761,76.418z M111.843,76.559
		c-1.031,0-1.871,0.839-1.871,1.871c0,1.035,0.84,1.871,1.871,1.871c1.035,0,1.871-0.836,1.871-1.871
		C113.714,77.398,112.878,76.559,111.843,76.559L111.843,76.559z M111.82,77.176c0.695,0,1.258,0.562,1.258,1.254
		c0,0.695-0.563,1.254-1.258,1.254c-0.691,0-1.254-0.559-1.254-1.254C110.566,77.738,111.128,77.176,111.82,77.176L111.82,77.176z
		 M69.597,77.258c-1.035,0-1.875,0.836-1.875,1.871s0.84,1.867,1.875,1.867c1.032,0,1.871-0.832,1.871-1.867
		S70.629,77.258,69.597,77.258L69.597,77.258z M102.796,77.266l0.746,5.781l-5.672,0.281l-0.336-5.766L102.796,77.266z
		 M143.441,77.781h0.809c0.074,4.977,0.465,10.739,1.043,14.996c0.086,0.637,0.125,0.825,0.063,0.938
		c-0.559,0.984-1.207-0.254-1.457-3.086c-0.07-0.781-0.16-1.914-0.254-2.664C143.351,85.711,143.441,77.781,143.441,77.781
		L143.441,77.781z M47.593,77.867c-8.527,5.32-22.711,18.028-22.625,18.324l0.059,48.829l1.109,0.055l0.914-1.797
		c-1.418-0.355-1.019-3.02,1.696-3.555c0.465-0.09,1.883-0.566,2.226-0.832c2.063-1.575,5.414-2.5,7.766-1.879
		c3.426,0.875,4.129,3.395,2.48,7.777c-1.3,3.453-3.875,7.871-6.296,9.129c-0.196,0.104-0.622,0.312-0.622,0.312
		s0.559,0.513,0.766,0.646c6.664-3.853,10.027-17.664,9.848-26.254c0.265-8.805,1.785-17.637,5.34-24.062
		c5.871-10.618,13.636-14.883,13.597-14.922C63.851,89.637,53.382,83.277,47.593,77.867L47.593,77.867z M69.574,77.871
		c0.691,0,1.254,0.566,1.254,1.258c0,0.691-0.563,1.254-1.254,1.254c-0.695,0-1.258-0.563-1.258-1.254
		C68.316,78.437,68.879,77.871,69.574,77.871L69.574,77.871z M121.371,78.074l2.023,5.375l-5.621,2.297l-2.027-5.644L121.371,78.074
		z M89.039,78.102c-1.032,0-1.871,0.835-1.871,1.871c0,1.035,0.839,1.867,1.871,1.867c1.035,0,1.875-0.832,1.875-1.867
		C90.914,78.937,90.074,78.102,89.039,78.102L89.039,78.102z M100.468,78.566c-1.035,0-1.875,0.84-1.875,1.871
		c0,1.036,0.84,1.872,1.875,1.872c1.031,0,1.871-0.836,1.871-1.872C102.339,79.406,101.5,78.566,100.468,78.566L100.468,78.566z
		 M89.015,78.715c0.696,0,1.258,0.566,1.258,1.258c0,0.691-0.563,1.254-1.258,1.254c-0.691,0-1.254-0.563-1.254-1.254
		C87.761,79.281,88.324,78.715,89.015,78.715L89.015,78.715z M100.445,79.184c0.691,0,1.254,0.562,1.254,1.253
		c0,0.696-0.563,1.254-1.254,1.254c-0.695,0-1.258-0.558-1.258-1.254C99.187,79.746,99.75,79.184,100.445,79.184L100.445,79.184z
		 M119.562,79.824c-1.035,0-1.875,0.836-1.875,1.871c0,1.032,0.84,1.867,1.875,1.867c1.031,0,1.871-0.835,1.871-1.867
		C121.433,80.66,120.593,79.824,119.562,79.824L119.562,79.824z M119.539,80.437c0.691,0,1.254,0.563,1.254,1.258
		c0,0.692-0.563,1.25-1.254,1.25c-0.695,0-1.258-0.558-1.258-1.25C118.281,81,118.843,80.437,119.539,80.437L119.539,80.437z
		 M79.836,80.535l5.617,1.438l-1.305,5.89l-6.34-1.683L79.836,80.535z M150.894,80.383c0.918,2.879-0.766,6.57-0.852,6.808
		c-1.02,2.895-2.25,5.262-2.695,5.399c-0.383,0.144-0.551,0.051-0.551-0.305c0.004-0.547,1.258-4.254,2.242-6.637
		c0.242-0.586,0.801-2.351,0.805-2.648c0-0.445-0.434,0.281-0.898,1.395c-0.906,2.226-2.223,4.609-2.508,6.769
		c-0.207,1.766-0.543,1.516-0.785-0.586c-0.344-2.914,0.297-4.414,3.574-8.476C150.011,81.133,150.816,80.133,150.894,80.383
		L150.894,80.383z M109.628,81.879l1.625,5.769l-6.629,1.133l-1.035-5.851L109.628,81.879z M81.867,82.461
		c-1.035,0-1.871,0.84-1.871,1.871c0,1.035,0.836,1.871,1.871,1.871c1.031,0,1.871-0.836,1.871-1.871
		C83.738,83.301,82.898,82.461,81.867,82.461L81.867,82.461z M91.781,82.836l6.004,0.344l0.055,5.992l-6.52-0.281L91.781,82.836z
		 M81.843,83.078c0.692,0,1.258,0.563,1.258,1.254c0,0.695-0.566,1.254-1.258,1.254c-0.691,0-1.257-0.559-1.253-1.254
		C80.59,83.641,81.152,83.078,81.843,83.078L81.843,83.078z M107.05,83.609c-1.031,0-1.871,0.84-1.871,1.871
		c0,1.036,0.84,1.872,1.871,1.872c1.035,0,1.871-0.836,1.871-1.872C108.921,84.449,108.085,83.609,107.05,83.609L107.05,83.609z
		 M94.601,84.09c-1.035,0-1.875,0.84-1.875,1.875c0,1.031,0.84,1.867,1.875,1.867c1.031,0,1.871-0.836,1.871-1.867
		C96.472,84.93,95.632,84.09,94.601,84.09L94.601,84.09z M107.027,84.227c0.695,0,1.258,0.562,1.258,1.253
		c0,0.696-0.563,1.254-1.258,1.254c-0.691,0-1.254-0.558-1.254-1.254C105.773,84.789,106.335,84.227,107.027,84.227L107.027,84.227z
		 M94.578,84.707c0.691,0,1.254,0.563,1.254,1.258c0,0.691-0.563,1.25-1.254,1.25c-0.695,0-1.258-0.559-1.258-1.25
		C93.32,85.27,93.882,84.707,94.578,84.707L94.578,84.707z M135.535,85.066c0.098-0.004,0.227,0.016,0.313,0.016
		c1.344-0.016,5.867,3.234,7.023,5.199c0.965,1.739,0.465,2.426-0.641,0.875c-1.527-1.699-4.348-4.222-4.707-4.226
		c-0.387,0,0.145,0.55,1.941,2.3c1.781,1.739,3.66,4,3.66,4.403c0,0.265-0.355,0.234-0.863-0.078
		c-1.113-0.688-2.078-1.379-2.57-1.844c-0.297-0.281-0.867-0.793-1.27-1.149c-1.66-1.457-3.555-4.812-3.02-5.457
		C135.425,85.074,135.472,85.066,135.535,85.066L135.535,85.066z M51.73,85.543c1.16-0.035,2.465,0.703,2.516,2.051
		c0.039,0.949,0.105,1.023,0.965,1.039c0.82,0.015,3.195,0.297,3.195,0.297l0.016,2.668c0,0-1.149-0.008-2.469-0.071
		c-2.246-0.105-2.238-0.109-2.524,0.879c-0.113,0.399-0.273,0.594-0.722,0.887c-2.02,1.328-3.965-1.078-2.711-3.352
		c0.429-0.777,0.453-1.043,0.156-1.511C49.547,87.074,50.351,85.609,51.73,85.543L51.73,85.543z M52.226,86.906
		c-0.25,0-0.523,0.11-0.773,0.356c-0.332,0.328-0.336,1.269-0.004,1.816c0.316,0.527,0.308,0.668-0.059,1.012
		c-0.652,0.609-0.672,1.812-0.035,2.265c0.578,0.415,1.195-0.132,1.195-0.968c0.004-0.914,0.649-0.899,0.649-0.899l4.223,0.074
		l0.011-0.687l-3.062-0.156c-0.426,0-0.871-0.043-1.203-0.266c-0.348-0.238-0.746-0.656-0.364-1.168
		C53.336,87.574,52.859,86.902,52.226,86.906L52.226,86.906z M43.07,88.484l2.004,3.403l2.336,0.086l0.203,2.074l2.84,1.828
		l-2.91,1.699l-0.141,2.086l-2.203,0.277l-2.047,2.563l-1.961-2.559l-2.16,0.012L39,97.812l-2.977-1.914l3.258-1.828l-0.035-2.445
		l2.308-0.152L43.07,88.484z M113.835,90.031l0.098,2.059l-3.281,0.582l0.43-2.098L113.835,90.031z M92.824,92.105l4.418,0.133
		l-0.254,28.875c0,0-0.871-0.004-1.035-0.008l-0.02-1.125l-1.414,0.047l-1.438-0.871L92.824,92.105z M43.07,92.836l-2.59,3.281
		l3.137,2.746l2.765-3.211L43.07,92.836z M94.148,93.277v1.328h1.855v-1.328H94.148z M43.129,94.41l1.828,1.34l-1.395,1.836
		l-1.758-1.524L43.129,94.41z M113.929,95.168l-0.059,15.801c-6.074,4.765-7.965,13.156-7.965,13.156l-2.469-0.148l6.277-27.84
		L113.929,95.168z M81.015,95.52c-5.465,2.597-10.968,4.566-16.39,10.765c2.101,1.891,4.316,3.813,6.289,7.031
		c4.511-0.671,9.531,0.137,15.004,2.289L81.015,95.52z M94.148,95.871v1.375h1.855v-1.375H94.148z M32.734,97.855
		c0.137,0.422,0.176,0.872,0.176,0.872c4.008-0.336,2.988,4.312,0.433,4.472c-0.3,0.039,0.247,0.824,0.844,1.074
		c1.516,0.641,2.606,0.231,3.602-1.097c0.761-1.016,0.808-1.164,0.808-1.164l2.473,1.312c0,0,0.074-0.035-0.363,1.098
		c-0.797,2.062,0.363,4.594,1.258,2.75c0.476-0.985,1.878-1.543,2.851-1.137c1.137,0.477,1.527,2.504,0.731,3.781
		c-0.239,0.383-0.247,0.465-0.098,0.825c0.223,0.535,0.359,1.921,0.125,2.367c-0.301,0.582-0.649,0.711-1.332,0.238
		c-0.934-0.644-1.453-0.914-3.078-1.367c-2.852-0.535-3.41-1.539-4.543-3.883c-3.375,1.012-8.426-1.105-7.754-6.117
		c0.305-1.106,0.39-3.231-0.172-3.664c-1.105-0.852,0.105-2.078,1.766-2.278C31.828,95.801,32.484,97.094,32.734,97.855
		L32.734,97.855z M80.5,96.402l4.39,18.395c-4.82-1.766-9.55-3.145-13.738-2.121c-1.918-3.059-3.551-4.563-5.68-6.551
		C69.617,101.129,74.886,98.332,80.5,96.402L80.5,96.402z M30.808,97.305c-0.285-0.004-0.605,0.121-0.941,0.418
		c0,0,0.297,0.246,0.461,0.586c0.258,0.539,0.262,0.539-0.031,1.73c-1.34,4.793,1.835,7.961,6.355,6.578
		c1.109-0.344,1.066-0.305,1.387,0.996c0.527,2.149,2.043,3.254,5.058,3.66c0.188,0.028,0.496,0.086,0.743,0.239
		c1.324,0.843,0.781-0.282,0.417-0.719c-0.257-0.34-0.73-0.68-0.73-0.68s0.402-0.265,0.594-0.363
		c0.847-0.453,1.168-2.219,0.465-2.598c-0.641-0.343-1.731,0.176-1.735,0.832c-0.004,1.2-1.515,1.325-2.84,0.328
		c-1.699-1.277-0.195-4.5-0.183-4.496l-0.957-0.418c0.125,0.114-2.02,3.157-4.656,2.094c-1.84-0.742-3.141-2.875-2.286-3.484
		c0.621-0.164,1.368,0.176,1.84-0.188c0.946-0.738,0.184-2.035-1.16-1.988c-0.285,0.012-0.926,0.137-0.926,0.137
		c0.071-0.606,0.227-1.032,0.149-1.614C31.754,97.773,31.351,97.312,30.808,97.305L30.808,97.305z M94.167,98.703v1.133l1.836,0.012
		v-1.133L94.167,98.703z M94.148,101.039v1.168h1.855v-1.168H94.148z M94.148,103.555v1.195h1.855v-1.195H94.148z M94.148,105.902
		v1.262h1.855v-1.262H94.148z M94.148,108.254v1.18h1.855v-1.18H94.148z M94.148,110.656v1.188h1.855v-1.188H94.148z
		 M33.902,111.816l1.559,2.637l1.855,0.082l0.074,1.809l3.149,2.41l-2.754,1.969l-0.199,1.953l-2.184,0.066l-1.77,2.985
		l-2.175-2.618l-1.75-0.281l-0.2-2.379l-2.695-2.015l2.531-2.024l0.204-2.113l2.062,0.18L33.902,111.816z M136.445,113.078
		c0.172,0.004,0.355,0.051,0.551,0.149c0.656,0.332,0.863,0.371,2.563,0.457c1.973,0.097,2.672,0.273,3.648,0.925
		c0.59,0.395,0.625,0.395,1.258-0.023c2.77-1.836,5.934-0.168,6.164,3.25c0.059,0.898,0.148,1.262,0.504,2.016
		c0.242,0.523,0.492,0.933,0.348,1.265c-0.445,1.02-2.578,1.086-3.742-0.426c-0.207-0.23-0.418-0.328-0.707-0.328
		c-0.578,0.215-2.055-0.949-2.039-0.996c-0.137,0.809-0.207,1.449-0.352,2.625l-2.586-0.039c0,0-0.055-0.473-0.176-2.125
		c-0.137-1.902-0.609-2.457-1.219-1.43c-1.043,1.766-3.82,0.993-3.98-1.113c-0.055-0.715-0.098-0.805-0.488-1.105
		C134.882,115.172,135.265,113.055,136.445,113.078L136.445,113.078z M94.148,113.184v1.054h1.855v-1.054H94.148z M136.742,114.312
		c-0.512,0.036-0.219,0.946,0.629,1.426c0.48,0.274,0.484,0.274,0.422,1.11c-0.117,1.519,1.348,2.265,1.996,1.019
		c0.113-0.215,0.164-0.492,0.117-0.676c-0.273-1.101,2.113-0.8,2.688,0.34c0.133,0.262,0.281,0.961,0.352,1.664
		c0.07,0.668,0.086,1.442,0.086,1.442h0.762c0,0-0.008-0.461,0.035-0.903c0.188-1.886,1.023-3.078,2.148-3.074
		c0.48,0.004,0.5,0.09,0.164,0.711c-0.57,1.051-0.023,1.813,1.305,1.82c0.844,0.008,0.84,0.008,1.152,0.606
		c0.344,0.656,0.605,0.863,0.926,0.742c0.227-0.086,0.23,0.043-0.066-2.199c-0.441-3.34-2.383-4.238-5.066-2.344
		c-0.758,0.535-0.926,0.52-1.598-0.133c-1.012-0.972-1.648-1.199-3.621-1.269c-0.941-0.035-1.867-0.129-2.059-0.207
		C136.96,114.328,136.839,114.305,136.742,114.312L136.742,114.312z M73.078,115.266c-0.438,0.007-0.946,0.101-1.387,0.136
		c0.488,2.582,0.719,5.16,0.941,7.743c2.258-0.391,5.184-0.028,9.047,1.773c2.368,1.102,5.262,2.988,8.293,5.117
		c3.281,2.309,7.133,3.668,10.41,4.379c3.988,0.867,7.195,0.793,7.109,0.605c-0.18,0.027-1.441-6.333-1.273-7.691
		c-5.523-0.508-10.852-2.552-14.93-5.32C85.894,118.344,79.66,115.152,73.078,115.266L73.078,115.266z M94.148,115.48v1.075h1.855
		v-1.075H94.148z M33.34,115.695l-2.934,3.055l3.191,3.02l2.707-3.079L33.34,115.695z M33.257,117.082l1.661,1.59l-1.34,1.699
		l-1.867-1.609L33.257,117.082z M74.597,117.332c0.391,0.004,0.774,0.277,2.067,1c1.082,0.75,1.945,1.215,1.633,0.043
		c0.246-0.336,1.445,0.762,2.859,1.453c1.707,1.367,1.715,1.035,1.937,0.359c0.227-0.496,0.543-0.16,1.907,1.102
		c1.789,1.656,1.629,1.66,1.988,1.246c0.406-0.773,0.543-0.765,2.004,0.91c1.516,1.692,1.836,2.055,2.16,1.328
		c0.5-0.375,0.758-0.011,2.816,1.923c1.012,1.012,1.25,0.855,1.441,0.176c0.195-0.699,0.25-0.543,1.961,0.813
		c1.977,1.586,2.176,1.699,2.258,1.152c0.129-0.871,0.742-0.563,2.781,0.902c1.234,0.879,1.699,1.125,1.965,0.906
		c0.27-0.473-0.672-1.387,1.32-0.527l0.547,2.891l-0.688-0.196c-0.426-0.121-1.352-0.437-1.004,0.465
		c0.203,0.521-0.301,0.457-1.844-0.461c-2.215-1.319-2.625-1.625-2.789-1.354c-0.293,0.988-0.258,1.055-1.75-0.117
		c-1.738-1.321-2.09-1.684-2.332-1.235c-0.031,0.996-0.516,0.794-2.137-0.604c-1.371-1.195-1.664-1.824-2.277-0.906
		c-0.168,0.32-0.336,0.238-0.566,0.074c-0.797-0.59-2.398-2.281-2.851-2.77c-0.356-0.387-0.559-0.262-0.852,0.059
		c-0.273,0.301-0.293,0.207-1.18-0.606c-2.113-1.937-2.504-2.42-2.8-2.156c-0.239,0.453-0.008,1.071-1.633-0.207
		c-2.035-1.469-2.918-2.117-2.782-1.156c-0.347,0.43-0.105,0.512-2.14-0.613c-1.938-1.071-2.184-1.395-2.465-1.024
		c-0.187,0.582-0.84,0.371-0.84,0.336l-0.39-2.937l0.695,0.007C73.617,117.605,74.289,117.332,74.597,117.332L74.597,117.332z
		 M59.058,117.578c-0.152,0.453-1.222,3.074-1.234,9.75c0.125,0.155,2.644-2.41,2.769-4.805
		C60.711,120.258,59.066,117.57,59.058,117.578L59.058,117.578z M94.144,117.762v1.218H96v-1.218H94.144z M59.191,118.727
		c2.356,3.734-0.238,7.256-0.887,7.502C58.304,123.426,58.718,120.785,59.191,118.727L59.191,118.727z M121.007,121.863
		c-3.871,2.442-3.242,9.043-1.344,10.739C119.804,132.602,121.023,125.469,121.007,121.863L121.007,121.863z M120.48,122.676
		l-1.043,8.5C118.082,129.676,117.843,125.207,120.48,122.676L120.48,122.676z M144.898,124.113l2.047,2.571l1.816,0.137
		l0.406,1.855l2.656,2.164l-2.66,1.801l-0.234,2.059l-1.977,0.198l-1.957,3.079l-1.914-3.016l-1.836-0.195l-0.059-1.98l-2.879-2.129
		l2.75-1.652l0.055-2.238l2.152,0.007L144.898,124.113z M72.453,124.918c-1.301,6.18-4.406,10.41-8.785,13.25l0.023,0.625
		l-7.379,2.961c-1.617,7.539-4.523,14.894-10.613,21.793L47.398,167l-8.242,2.832l11.797,20.227c0.812,0-5.715,3.089-13.594,2.285
		c4.984,12.211,6.016,24.852,3.254,35.922l38.613-0.161l-29.508-57.909l-0.484-0.941c-0.41-0.758,15.688,2.262,12.273,17.191
		c-0.05,0.348,0.071,0.391,0.266,0.245c3.129-2.687,23.91-10.14,40.508-0.296l4.934-2.043c-2.348,8.214-5.016,13.867-9.516,18.82
		l0.766,11.691c7.957-6.516,16.594-18.48,17.75-34.38c3.586-1.745,6.703-3.729,10.043-5.597l0.441,0.141l2.16-1.298
		c-6.93-7.585-21.082-14.832-30.152-16.737l0.535,2.569c-5.004-1.343-8.746-1.636-12.641-2.05l-0.597-27.207l-5.039-2.973
		l-0.157,30.012c-3.769,0.047-12.433,1.535-12.433,1.535l0.39-2.567l-3.968,0.817l-0.071-2.5l4.485-1.289l6.504-27.567
		L72.453,124.918z M72.996,125.531l2.07,0.418l-6.437,27.03c0,0-3.61,0.997-3.832,0.86c-0.29-5.07-0.399-15.399-0.399-15.399
		C70.754,133.145,71.746,129.395,72.996,125.531L72.996,125.531z M28.808,127.512c0.969-0.012,2.016,0.695,2.082,1.332
		c0.164,0.39,0.305,0.559,0.567,0.597c1.621,0.224,1.675,0.653,1.722,1.591c-0.23,1.797,0.973,0.289,1.313-1.496
		c0.035-0.184,0.015-1.547,0.015-1.547l1.989-0.02c0,0,0.066,1.422,0.094,1.648c0.175,1.379,0.765,2.496,1.171,1.766
		c1.399-2.512,4.602-1.23,4.098,1.188c-0.125,0.574-0.117,0.609,0.273,1.047c0.637,0.707,0.872,1.461,0.661,2.112
		c-0.203,0.642-0.653,0.739-1.614,0.353c-0.453-0.181-1-0.246-2.464-0.289c-2.075-0.063-2.204-0.103-3.008-0.883l-0.512-0.492
		l-0.879,0.516c-1.461,0.859-2.789,0.891-4.336,0.102c-1.008-0.516-1.594-1.754-1.75-3.681c-0.027-1.022-0.316-1.765-0.949-2.011
		c-0.344-0.324,0.039-0.965,0.621-1.551C28.172,127.602,28.484,127.52,28.808,127.512L28.808,127.512z M144.73,127.805l-2.73,3.406
		l3.246,2.906l3.023-3.556L144.73,127.805z M81.457,128.297l3.785,2.164l0.484,26.82l-4.277-0.117L81.457,128.297z M28.914,128.668
		c-0.289,0.031-0.11,0.492,0.101,1.195c0.192,0.629,0.239,1.023,0.18,1.461c-0.402,2.938,2.969,4.434,5.398,2.395
		c0.649-0.739,0.754-0.691,1.297,0.102c0.668,0.836,1.637,1.109,3.676,0.984c0.93-0.055,1.547,0.441,1.949,0.113
		c0.289-0.211,0.008-0.771-0.554-1.098c-0.348-0.199-0.36-0.23-0.289-0.923c0.171-1.737-1.262-2.198-2.282-0.729
		c-0.84,1.211-2.109,0.41-2.519-1.59c-0.242-1.543-0.438-1.52-0.621-0.176c-0.2,1.633-2.348,3.406-3.207,2.602
		c-0.239-0.238-0.235-0.18,0.007-1c0.309-1.051,0.059-1.442-1.089-1.715c-0.188-0.047-0.403-0.203-0.477-0.349
		C29.875,129,29.902,128.668,28.914,128.668L28.914,128.668z M145.003,129.293l1.734,1.496l-1.512,1.781l-1.844-1.414
		L145.003,129.293z M82.644,130.25v1.266h1.617v-1.266H82.644z M82.644,132.805v1.332h1.617v-1.332H82.644z M92.39,134.336
		c1.816,6.734,3.645,13.465,5.465,20.195c1.727-0.688,11.691-5.109,16.391-10.77c-0.18,0.011-4.273-3.989-5.707-6.586
		C103.839,137.949,98.441,136.965,92.39,134.336L92.39,134.336z M82.644,135.137v1.246h1.617v-1.246H82.644z M93.414,135.477
		c4.281,1.277,9.77,3.039,14.82,2.141c1.305,2.344,3.188,4.27,5.316,6.047c-3.824,4.16-9.352,7.332-15.07,9.772L93.414,135.477z
		 M134.066,135.961c0.215,0.004,0.434,0.086,0.645,0.269c0.676,0.606,1.199,0.813,2.582,1.04c2.23,0.363,3.934,1.753,4.418,3.613
		c0.203,0.781,0.313,0.82,1.426,0.543c4.207-1.059,7.453,2.429,6.453,7.09c-0.352,1.625-0.461,1.82,0.027,2.464
		c1.07,1.153,1.305,1.168,0.133,2.185c-1.066,0.957-3.184,0.496-3.633-1.06c-0.43-0.851-0.422-0.918-1.129-1.03
		c-2.746-0.438-2.633-4.234-0.047-4.677c0.215-0.034,0.375,0.009,0.484-0.043c0.734-0.332-0.801-2.065-2.066-1.8
		c-1.559,0.324-2.332,1.324-2.945,2.886l-2.449-1.397c0.613-1.271,1.066-2.906,0.531-3.922c-0.43-0.852-0.977-0.888-1.145-0.066
		c-0.391,1.922-2.785,2.496-4.352,0.929c-0.879-0.875-0.98-1.812-0.336-3.081c0.418-0.82,0.426-0.88,0.25-1.223
		C132.296,137.473,133.132,135.957,134.066,135.961L134.066,135.961z M82.644,137.527v1.297l1.621-0.009l-0.004-1.288H82.644z
		 M134.367,137.633c-0.5,0.004-0.496,0.492-0.035,1.082c0.41,0.414,0.488,0.605-0.078,0.961c-0.707,0.656-0.863,1.648-0.371,2.402
		c0.734,1.129,2.43,0.5,2.238-0.832c-0.137-0.938,0.598-1.355,1.766-1.004c1.699,0.512,2.512,2.414,1.844,4.328
		c-0.129,0.359-0.379,1.202-0.379,1.202l0.504,0.302c0,0,0.594-0.949,0.828-1.238c1.93-2.375,6.496-1.172,5.988,1.797
		c-0.078,0.933-0.074,1.058-1.09,0.77c-0.676-0.348-1.328,0.37-1.309,1.273c0.035,0.813,0.738,1.465,1.715,1.332
		c0.777-0.145,0.969-0.117,0.914,0.926c0.078,0.727,0.352,1.207,0.824,1.453c1.152,0.477,1.746-0.18,0.824-1.145
		c-0.559-0.586-0.523-1.488-0.172-2.336c0.418-1.012,0.199-3.238-0.445-4.496c-0.926-1.809-3.52-2.566-5.691-1.664
		c-0.996,0.531-1.102,0.651-1.199-0.277c-0.543-2.309-2.281-4.051-4.445-4.207C135.765,138.203,134.898,137.75,134.367,137.633
		L134.367,137.633z M82.644,139.992v1.198h1.621v-1.198H82.644z M82.644,142.336v1.32h1.617v-1.32H82.644z M82.644,144.91v1.323
		c0,0,0.887-0.026,1.617,0v-1.323H82.644z M135.488,147.031l1.77,2.621l1.961,0.129l0.234,2.116l2.973,1.853l-2.578,1.613
		l-0.02,2.047l-2.457,0.207l-2.172,2.883l-1.852-2.543l-1.848,0.008l-0.434-2.27l-3.277-1.66l3.359-1.914l-0.09-2.388l2.281-0.015
		L135.488,147.031z M82.644,147.344v1.355h1.617v-1.355H82.644z M82.644,149.828v1.34h1.617v-1.34H82.644z M134.492,150.824
		l-2.539,3.379l3.422,2.828l2.719-3.418L134.492,150.824z M82.644,152.18v1.465h1.617v-1.465H82.644z M134.753,152.354l1.766,1.364
		l-1.258,1.597l-1.754-1.336L134.753,152.354z M82.644,154.891v1.227h1.617v-1.227H82.644z M34.488,155.047
		c-3.121,0.015-6.07,5.066-6.777,7.461c-0.836,3.063-0.961,8.609-0.164,8.762c2.793-2.012,4.121-5.418,6.218-7.973
		c0.328,2.953,0.278,8.644,0.278,8.644s-1.246,0.657-1.914,1.688c-0.485,0.859-0.637,1.887-0.227,2.844
		c-1.555-0.504-4.371,0.066-4.531,2.934c0.101,4.043,4.515,3.473,4.531,3.418c-0.094-0.023-0.867,4.301,3.047,4.758
		c1.406,0.164,3.879-0.859,3.144-4.793c2.473,0.41,4.606-0.953,4.629-3.332c0.035-1.629-1.203-3.031-3.34-3.039
		c-0.441,0-1.382,0.199-1.382,0.199c0.031-0.234,0.855-2.763-2.012-4.598l-0.453-11.699c0,0,0.992,1.077,1.433,1.484
		c1.907,1.757,3.153,2.641,5.352,3.8c2.141,1.129,1.875,0.849,1.508-1.296c-1.012-3.219-3.129-5.656-7.602-8.7
		C35.648,155.219,35.066,155.047,34.488,155.047L34.488,155.047z M34.797,155.297l0.628,16.551l-0.929-0.004l-0.797-16.532
		L34.797,155.297z M126.593,155.844c0.086,0,0.168,0,0.258,0.008c2.016,0.171,2.535,2.43,1.629,3.43
		c-0.359,0.398-0.484,0.484-0.297,0.727c0.867,1.097,0.383,2.828-0.473,3.097c-2.727,0.845-3.137-0.644-3.129-2.397l-4.207-0.156
		l0.027-2.453l4.637,0.093C124.691,157.078,125.359,155.895,126.593,155.844L126.593,155.844z M32.847,155.871
		c0.016,0,0.035,0,0.051,0c0.434,0.039-0.016,1.203-1.23,2.98c-0.825,1.199-1.965,3.316-2.309,4.171
		c-0.75,1.872-1.254,5.224-0.75,4.606c0.453-1.399,0.496-1.984,0.887-2.992c0.511-1.313,2.902-5.633,3.379-6.059
		c0.402-0.363,0.507-0.142,0.5,1.074c-0.024,2.738-1.321,5.617-4.41,8.988c-0.516,0.563-1.204,1.175-1.254,1.175
		c-0.297-0.004-0.289-0.62-0.286-1.921c0.02-5.172,1.942-9.79,4.895-11.777C32.55,155.965,32.722,155.883,32.847,155.871
		L32.847,155.871z M35.98,156.113c1.356,0.395,3.793,2.573,4.793,3.691c1.164,1.257,2.723,4.73,2.449,5.266
		c-0.093,0.234-0.289,0.195-0.968-0.188c-4.317-2.43-7.411-5.426-6.598-6.395c0.226-0.27,1.152,0.288,2.394,1.441
		c0.844,0.75,1.711,1.507,2.481,2.27c1.215,1.195,1.488,1.371,0.758,0.043c-0.66-1.195-2.52-3.195-4.77-4.895
		C35.601,156.656,35.394,156.102,35.98,156.113L35.98,156.113z M126.863,156.809c-0.059,0-0.113,0.012-0.152,0.027
		c-0.848,0.359-0.504,1.457-0.586,2.305l-4.668-0.164l-0.027,0.648l4.379,0.238c0.078,0.659-0.266,2.086,0.297,2.327
		c1.227,0.509,1.895-1.069,0.855-2.019c-0.371-0.328-0.77-0.477,0.258-0.942c0.68-0.577,0.785-1.71,0.207-2.214
		C127.261,156.879,127.035,156.805,126.863,156.809L126.863,156.809z M67.785,157l-0.235,1.729l-2.707,0.685l-0.07-1.853L67.785,157
		z M99.726,157.613c10,2.695,21.113,8.809,28.332,15.715l-1.445,0.949c-7.5-6.93-17.391-12.188-26.48-14.798L99.726,157.613z
		 M82.5,157.879c16.464-0.043,31.472,6.354,43.585,16.695l-1.98,1.246c-11.047-9.134-23.289-15.223-39.758-15.949
		c-10.765-0.474-23.047,2.285-35.156,8.944l-0.898-1.636C60.05,160.77,71.593,157.91,82.5,157.879L82.5,157.879z M81.203,160.358
		l6.476,0.192l-0.398,6.011l-5.887-0.19L81.203,160.358z M74.238,160.789l0.914,5.801l-5.637,1.051l-1.597-5.816L74.238,160.789z
		 M94.738,161.555l6.434,1.715l-2.121,5.914l-5.648-1.609L94.738,161.555z M84.433,161.641c-1.023,0-1.851,0.828-1.851,1.848
		c0,1.023,0.828,1.852,1.851,1.852c1.02,0,1.848-0.828,1.848-1.852C86.281,162.469,85.453,161.641,84.433,161.641L84.433,161.641z
		 M84.433,162.281c0.68,0,1.231,0.539,1.231,1.207c0,0.672-0.551,1.215-1.231,1.215c-0.683,0-1.234-0.543-1.234-1.215
		C83.199,162.82,83.75,162.281,84.433,162.281L84.433,162.281z M71.656,162.293c-1.02,0-1.848,0.824-1.848,1.848
		c0,1.02,0.828,1.848,1.848,1.848c1.023,0,1.851-0.828,1.851-1.848C73.507,163.117,72.679,162.293,71.656,162.293L71.656,162.293z
		 M71.656,162.93c0.684,0,1.234,0.543,1.234,1.211s-0.55,1.214-1.234,1.214c-0.68,0-1.231-0.546-1.231-1.214
		S70.976,162.93,71.656,162.93L71.656,162.93z M97.128,163.676c-1.023,0-1.852,0.828-1.852,1.847c0,1.021,0.828,1.849,1.852,1.849
		c1.02,0,1.848-0.828,1.848-1.849C98.976,164.504,98.148,163.676,97.128,163.676L97.128,163.676z M61.273,163.891l1.91,5.66
		l-5.461,2.211l-2.047-5.59L61.273,163.891z M97.128,164.312c0.68,0,1.23,0.543,1.23,1.211s-0.551,1.216-1.23,1.216
		c-0.684,0-1.234-0.548-1.234-1.216S96.445,164.312,97.128,164.312L97.128,164.312z M107.82,165.668l5.793,3.062l-2.996,5.407
		l-5.395-2.813L107.82,165.668z M59.34,166.16c-1.02,0-1.848,0.828-1.848,1.848c0,1.023,0.828,1.851,1.848,1.851
		c1.023,0,1.851-0.827,1.851-1.851C61.191,166.988,60.363,166.16,59.34,166.16L59.34,166.16z M81.215,166.336l0.269,5.715
		l-5.125,0.359l-0.934-5.677L81.215,166.336z M87.367,166.637l5.844,0.809l-1.375,5.504l-5.289-0.852L87.367,166.637z
		 M59.34,166.797c0.683,0,1.234,0.543,1.234,1.211c0,0.672-0.551,1.215-1.234,1.215c-0.68,0-1.231-0.543-1.231-1.215
		C58.109,167.34,58.66,166.797,59.34,166.797L59.34,166.797z M78.488,167.539c-1.02,0-1.848,0.828-1.848,1.848
		c0,1.023,0.828,1.852,1.848,1.852c1.019,0,1.848-0.828,1.848-1.852C80.336,168.367,79.507,167.539,78.488,167.539L78.488,167.539z
		 M69.148,167.77l1.516,5.559l-5.637,1.612l-1.73-5.347L69.148,167.77z M89.609,167.858c-1.019,0-1.848,0.828-1.848,1.849
		c0,1.022,0.829,1.848,1.848,1.848c1.023,0,1.852-0.825,1.852-1.848C91.46,168.687,90.632,167.858,89.609,167.858L89.609,167.858z
		 M78.488,168.18c0.68,0,1.234,0.539,1.234,1.207c0,0.672-0.554,1.215-1.234,1.215c-0.68,0-1.234-0.543-1.234-1.215
		C77.254,168.719,77.808,168.18,78.488,168.18L78.488,168.18z M89.609,168.496c0.684,0,1.234,0.543,1.234,1.211
		s-0.551,1.215-1.234,1.215c-0.68,0-1.23-0.547-1.23-1.215S88.929,168.496,89.609,168.496L89.609,168.496z M109.39,168.508
		c-1.023,0-1.852,0.828-1.852,1.851c0,1.021,0.828,1.849,1.852,1.849c1.02,0,1.848-0.828,1.848-1.849
		C111.238,169.336,110.41,168.508,109.39,168.508L109.39,168.508z M99.382,169.047l5.648,1.933l-2.254,5.278l-5.402-2.059
		L99.382,169.047z M109.39,169.147c0.68,0,1.23,0.539,1.23,1.211c0,0.669-0.551,1.212-1.23,1.212c-0.684,0-1.234-0.543-1.234-1.212
		C108.156,169.687,108.707,169.147,109.39,169.147L109.39,169.147z M66.902,169.344c-1.02,0-1.848,0.828-1.848,1.852
		c0,1.02,0.828,1.848,1.848,1.848c1.023,0,1.852-0.828,1.852-1.848C68.754,170.172,67.925,169.344,66.902,169.344L66.902,169.344z
		 M66.902,169.983c0.684,0,1.234,0.539,1.234,1.212c0,0.668-0.55,1.211-1.234,1.211c-0.68,0-1.23-0.543-1.23-1.211
		C65.672,170.522,66.222,169.983,66.902,169.983L66.902,169.983z M101.121,171.062c-1.02,0-1.848,0.829-1.848,1.853
		c0,1.02,0.828,1.848,1.848,1.848c1.023,0,1.852-0.828,1.852-1.848C102.972,171.891,102.144,171.062,101.121,171.062
		L101.121,171.062z M101.121,171.703c0.684,0,1.234,0.539,1.234,1.211c0,0.668-0.551,1.211-1.234,1.211
		c-0.68,0-1.23-0.543-1.23-1.211C99.89,172.242,100.441,171.703,101.121,171.703L101.121,171.703z M34.965,172.348
		c1.476,0.063,2.585,1.386,2.656,2.77c0.051,1.051-1.289,2.426-1.289,2.426l-1.559-1.445l-1.496,1.379
		c-0.254,0.085-1.418-1.891-1.062-2.915C32.679,173.229,33.629,172.289,34.965,172.348L34.965,172.348z M118.937,172.348l4.473,3.66
		c0,0-1.965,1.191-2.328,1.406c0.047-0.16,0.066-0.328,0.066-0.504c0-1.02-0.828-1.849-1.852-1.849c-1.02,0-1.848,0.829-1.848,1.849
		c0,0.879,0.613,1.612,1.43,1.805c-0.461,0.265-1.07,0.605-1.07,0.605l-2.363-1.98L118.937,172.348z M111.855,182.129l-1.98,0.812
		c-12.18-8-28.84-12.379-47.887-4.323l-0.656-1.578C75.472,171.151,93.312,169.315,111.855,182.129L111.855,182.129z
		 M110.773,174.133l4.793,2.941l-3.043,4.672l-4.684-2.992L110.773,174.133z M109.324,183.195l-2.012,0.754
		c-14.867-9.552-30.711-9.043-44.871-3.316l-0.219-1.34C78.894,172.074,95.628,174.371,109.324,183.195L109.324,183.195z
		 M119.296,175.703c0.684,0,1.234,0.539,1.234,1.207c0,0.672-0.551,1.215-1.234,1.215c-0.68,0-1.23-0.543-1.23-1.215
		C118.066,176.242,118.617,175.703,119.296,175.703L119.296,175.703z M32.797,177.895l-1.657,1.667l1.512,1.696
		c0,0-0.48,0.402-0.828,0.594c-1.977,1.074-4.141-0.625-4.039-2.461C27.937,176.715,31.16,175.437,32.797,177.895L32.797,177.895z
		 M111.46,176.613c-1.02,0-1.848,0.827-1.848,1.852c0,1.019,0.828,1.847,1.848,1.847c1.023,0,1.852-0.828,1.852-1.847
		C113.312,177.44,112.484,176.613,111.46,176.613L111.46,176.613z M39.488,176.69c1.469,0.013,2.613,1.142,2.754,2.438
		c0.113,1.039-0.426,2.035-1.586,2.738c-1.578,0.957-3.41-0.595-3.379-0.688l1.332-1.313l-1.602-1.638
		C36.965,178.199,38.062,176.68,39.488,176.69L39.488,176.69z M34.882,177.008l2.727,2.715l-2.883,2.688l-2.668-2.684
		L34.882,177.008z M106.714,184.233l-1.527,0.703l-2.086-1.257l-0.617,1.184l1.16,0.734l-1.203,0.453
		c-13.891-7.805-29.586-5.543-40.019-0.364c0,0,0.089-0.804,0.093-0.804l1.137-0.578l-0.426-1.438l-0.605,0.18l-0.047-1.594
		C77.468,174.746,94.375,176.281,106.714,184.233L106.714,184.233z M111.46,177.254c0.684,0,1.234,0.539,1.234,1.211
		c0,0.668-0.551,1.215-1.234,1.215c-0.68-0.004-1.23-0.547-1.23-1.215C110.23,177.793,110.781,177.254,111.46,177.254
		L111.46,177.254z M34.828,178.227l-1.453,1.445l1.445,1.539l1.41-1.492L34.828,178.227z M80.297,178.547l-1.907,0.082l0.102,1.555
		l1.855-0.047L80.297,178.547z M81.593,178.555l0.036,1.55l1.726-0.007l-0.008-1.532L81.593,178.555z M84.656,178.578l-0.086,1.547
		l1.715,0.078l0.125-1.539L84.656,178.578z M77.257,178.777l-1.949,0.211l0.219,1.559l1.844-0.215L77.257,178.777z M87.851,178.801
		l-0.14,1.594l1.761,0.199l0.238-1.523L87.851,178.801z M34.836,178.809l0.847,0.898l-0.843,0.84l-0.899-0.875L34.836,178.809z
		 M73.972,179.281l-1.879,0.297l0.2,1.605l1.836-0.363L73.972,179.281z M91.027,179.281l-0.313,1.488l1.75,0.417l0.285-1.515
		L91.027,179.281z M70.89,179.934l-1.578,0.418l0.34,1.566l1.672-0.41L70.89,179.934z M94.031,179.992l-0.332,1.512l1.781,0.484
		l0.359-1.449L94.031,179.992z M68.281,180.746l-1.652,0.586l0.429,1.444l1.68-0.565L68.281,180.746z M97.101,180.91l-0.551,1.453
		l1.543,0.62l0.684-1.319L97.101,180.91z M65.554,181.762l-1.566,0.645l0.644,1.438l1.489-0.68L65.554,181.762z M33.234,181.809
		l1.59,1.582l1.883-1.7c1.648,1.454,1.621,4.856-1.293,5.427C32.871,187.613,30.543,183.805,33.234,181.809L33.234,181.809z
		 M99.933,182.113l-0.605,1.332l1.707,0.75l0.59-1.281L99.933,182.113z M51.25,190.664l21.535,36.605l-3.406-0.066l-20.84-35.371
		L51.25,190.664z M47.715,192.059l1.191,1.852c-2.332-1.855-5.762-0.297-5.617,2.043c0.117,1.047,1,1.684,1.004,0.676
		c-0.106-1.051,1.382-1.969,2.464-1.918c1.997,0.027,3.215,2.59,1.84,3.867c-0.906,0.836-2.132,0.797-1.718-0.349
		c0.062-0.394,0.031-0.539-0.157-0.707c-0.57-0.522-1.629,0.157-1.371,0.907c0.168,0.488,0.219,0.609-0.371,1.016
		c-2.281,1.605-0.691,4.766,2.074,3.324c0.567-0.204,0.797-0.234,1.051-0.133c1.152,0.441,1.938-0.559,0.844-1.075
		c-0.633-0.304-0.649-0.819-0.039-1.226c1.308-0.871,3.34,0.492,3.336,2.234c-0.008,1.234-1.637,2.145-3.196,1.788
		c-0.929-0.214-1.039,0.414-0.187,1.067c1.644,1.261,4.113,0.215,4.848-2.059c0.234-0.716,0.199-0.863,0.199-0.863l2.199,3.629
		c0,0-0.684-0.324-1.094-0.449c-2.07-0.633-4.39,0.711-4.398,2.543c-0.004,0.863,0.508,1.195,0.797,0.52
		c0.664-1.578,2.113-2.191,3.601-1.527c1.375,0.617,2.004,2.011,1.465,3.254c-0.562,1.3-2.449,1.684-2.238,0.453
		c0.105-0.586-0.254-0.946-0.883-0.887c-0.238,0.022-0.547,0.715-0.465,1.051c0.078,0.308,0.024,0.387-0.785,1.015
		c-1.918,1.497-0.441,3.942,1.953,3.231c0.403-0.117,0.555-0.106,0.914,0.065c0.867,0.419,1.778,0.157,1.778-0.507
		c0.003-0.458-0.204-0.633-0.747-0.637c-0.82-0.004-0.644-0.93,0.266-1.387c2.281-1.138,4.609,1.737,3.223,3.98
		c-0.598,0.964-0.977,1.063-3.106,0.828c-0.343-0.039-0.5,0.199-0.297,0.477c0.633,0.895,2.508,1.18,3.602,0.684
		c1.18-0.535,1.898-1.883,1.98-3.32l2.411,4.207c-1.875-1.957-5.11-1.207-5.629,1.598c0,0.711,0.648,1.082,0.871,0.496
		c0.976-2.531,4.679-1.755,4.672,0.98c-0.004,0.438-0.09,0.688-0.371,1.074c-0.68,1.312-2.418,1.637-2.106,0.457
		c0.141-0.363-0.137-0.758-0.613-0.875c-0.473-0.109-0.774,0.281-0.762,1c0.012,0.535,0.016,0.699,0.016,0.699
		c-0.867,0.366-1.422,1.082-1.614,2.141l-16.871,0.039c2.008-11.695,1.536-22.25-2.3-32.234c-0.329-0.868-0.805-2.125-0.805-2.125
		l2.976,0.078c0.719,0.621,3.434,0.379,4.493-0.582L47.715,192.059z M50.578,196.651l1.742,3.13
		c-0.719-0.414-1.453-0.688-2.578-0.781C50.328,198.129,50.375,197.352,50.578,196.651L50.578,196.651z M46,199.977
		c0.632,0,1.148,0.516,1.148,1.148c0,0.637-0.516,1.147-1.148,1.147c-0.637,0-1.153-0.511-1.153-1.147
		C44.847,200.492,45.363,199.977,46,199.977L46,199.977z M58.011,209.328l1.68,2.983c-0.816-0.347-1.508-0.687-2.785-0.718
		C57.371,211.051,57.773,210.141,58.011,209.328L58.011,209.328z M53.172,212.522c0.601,0,1.089,0.489,1.089,1.095
		c0,0.602-0.488,1.086-1.089,1.086c-0.602,0-1.086-0.484-1.086-1.086C52.086,213.012,52.57,212.522,53.172,212.522L53.172,212.522z
		 M65.332,221.836l2.476,4.391c-0.976-0.555-2.023-1.262-3.34-1.129C65.093,223.762,65.437,223.031,65.332,221.836L65.332,221.836z
		 M62.035,227.315l-2.656,0.009C59.91,225.004,62.054,225.604,62.035,227.315L62.035,227.315z M64.55,226.195
		c0.903,0.047,1.68,0.355,2.168,1.145l-3.343,0.008C63.375,227.348,63.398,226.19,64.55,226.195L64.55,226.195z M64.55,226.195"/>
</g>
</svg>
