<?xml version="1.0" encoding="utf-8"?>
<!-- Generator: Adobe Illustrator 15.0.0, SVG Export Plug-In . SVG Version: 6.00 Build 0)  -->
<!DOCTYPE svg PUBLIC "-//W3C//DTD SVG 1.1//EN" "http://www.w3.org/Graphics/SVG/1.1/DTD/svg11.dtd">
<svg version="1.1" id="Layer_1" xmlns="http://www.w3.org/2000/svg" xmlns:xlink="http://www.w3.org/1999/xlink" x="0px" y="0px"
	 width="178.582px" height="249.449px" viewBox="0 0 178.582 249.449" enable-background="new 0 0 178.582 249.449"
	 xml:space="preserve">
<g>
	<path fill="#FFFFFF" d="M8.504,0"/>
	<path fill="#D40000" d="M7.461,49.587C6.196,46.81,6.055,42.064,9.84,41.42c2.848-0.368,4.008,0.96,4.239,2.996
		c0.113,0.593,0.449,0.629,0.554-0.047c0.164-2.09,2.231-3.309,3.848-3c4.422,0.754,4.164,5.621,2.719,8.922
		c-2.184,4.386-4.481,7.152-6.598,11.562C12.172,57.259,9.399,53.529,7.461,49.587L7.461,49.587z"/>
	<path fill="#D40000" d="M157.143,199.803c-1.268,2.775-1.406,7.525,2.379,8.168c2.849,0.367,4.008-0.961,4.237-2.992
		c0.112-0.598,0.448-0.633,0.556,0.043c0.164,2.09,2.229,3.311,3.849,3c4.418-0.754,4.16-5.621,2.719-8.922
		c-2.188-4.383-4.479-7.15-6.598-11.563C161.854,192.131,159.075,195.861,157.143,199.803L157.143,199.803z"/>
	<path fill="#D40000" d="M6.939,37.312l0.129-1.617c0.41-4.992,1.5-6.675,7.699-11.883c3.008-2.527,3.996-3.773,4.133-5.222
		c0.394-3.406-2.68-4.473-4.684-4.488c-2.594-0.028-5.527,1.527-4.129,5.128l-2.906,0.856c-0.59-3.359,0.012-6.516,2.738-7.914
		c3.637-1.824,8.305-1.11,10.66,1.765c1.582,1.93,1.942,4.598,1.094,6.684c-2.48,5.336-10.898,7.684-11.594,13.856h9.305v-3.438
		h2.742v6.328L6.939,37.312z"/>
	<path fill="#D40000" d="M171.824,212.141l-0.133,1.617c-0.406,4.988-1.5,6.676-7.695,11.883c-3.008,2.527-3.996,3.773-4.137,5.219
		c-0.394,3.41,2.684,4.476,4.684,4.492c2.594,0.023,5.531-1.524,4.129-5.129l2.91-0.854c0.59,3.357-0.012,6.512-2.738,7.914
		c-3.637,1.822-8.305,1.107-10.66-1.768c-1.582-1.931-1.938-4.599-1.094-6.685c2.48-5.34,10.898-7.688,11.594-13.854h-9.305v3.436
		h-2.742v-6.324L171.824,212.141z"/>
	<path fill="#D40000" d="M79.621,22.375c5.715-0.379,8.695,4.5,9.277,8.348c0.348,0.613,0.535,0.441,0.668-0.032
		c0.282-4.941,4.704-8.976,8.797-8.425c6.66,0.086,10.711,7.5,9.57,13.773c-1.394,7.668-5.521,12.281-8.646,17.035
		c-3.539,4.922-8.297,12.031-9.832,15.453c0,0-4.84-7.363-11.133-16.023c-4.211-5.789-7.578-12.067-7.895-17.469
		C70.074,28.863,72.605,23.332,79.621,22.375L79.621,22.375z"/>
	<path fill="#D40000" d="M79.621,227.414c5.715,0.379,8.695-4.5,9.277-8.35c0.348-0.611,0.535-0.438,0.668,0.037
		c0.282,4.938,4.704,8.973,8.797,8.42c6.66-0.086,10.711-7.5,9.57-13.771c-1.394-7.668-5.521-12.281-8.646-17.035
		c-3.539-4.922-8.297-12.031-9.832-15.453c0,0-4.84,7.363-11.133,16.023c-4.211,5.789-7.578,12.066-7.895,17.469
		C70.074,220.926,72.605,226.457,79.621,227.414L79.621,227.414z"/>
</g>
</svg>
