<?xml version="1.0" encoding="utf-8"?>
<!-- Generator: Adobe Illustrator 15.0.0, SVG Export Plug-In . SVG Version: 6.00 Build 0)  -->
<!DOCTYPE svg PUBLIC "-//W3C//DTD SVG 1.1//EN" "http://www.w3.org/Graphics/SVG/1.1/DTD/svg11.dtd">
<svg version="1.1" id="Layer_1" xmlns="http://www.w3.org/2000/svg" xmlns:xlink="http://www.w3.org/1999/xlink" x="0px" y="0px"
	 width="178.582px" height="249.449px" viewBox="0 0 178.582 249.449" enable-background="new 0 0 178.582 249.449"
	 xml:space="preserve">
<g>
	<path fill="#FFFFFF" d="M8.504,0"/>
	<path fill="#D40000" d="M12.265,33.102v-2.25h2.071v-3.711H3.996v-2.618L15.183,7.645l1.828,0.007v16.871h3.164v2.618h-3.164
		l-0.062,3.711h1.734v2.25H12.265z M14.336,13.824L7.23,24.523h7.106V13.824z"/>
	<path fill="#D40000" d="M166.313,217.352v2.25h-2.065v3.711h10.34v2.613l-11.188,16.879l-1.828-0.004v-16.875h-3.163v-2.613h3.163
		l0.06-3.711h-1.733v-2.25H166.313z M164.246,236.629l7.102-10.703h-7.102V236.629z"/>
	<path fill="#D40000" d="M5.004,45.797c-1.266-2.777-1.407-7.524,2.375-8.164c2.851-0.367,4.011,0.957,4.242,2.992
		c0.113,0.594,0.449,0.629,0.554-0.047c0.165-2.086,2.231-3.305,3.844-3c4.422,0.758,4.164,5.621,2.719,8.926
		c-2.184,4.383-4.481,7.148-6.594,11.558C9.715,53.473,6.937,49.738,5.004,45.797L5.004,45.797z"/>
	<path fill="#D40000" d="M35.795,21.852c5.715-0.379,8.695,4.503,9.277,8.351c0.348,0.609,0.535,0.438,0.668-0.035
		c0.281-4.938,4.699-8.977,8.797-8.422c6.66,0.086,10.711,7.5,9.57,13.774c-1.39,7.664-5.519,12.281-8.644,17.035
		c-3.539,4.922-8.301,12.031-9.832,15.453c0,0-4.84-7.363-11.133-16.024c-4.211-5.793-7.582-12.066-7.895-17.468
		C26.244,28.344,28.779,22.809,35.795,21.852L35.795,21.852z"/>
	<path fill="#D40000" d="M123.421,21.852c5.72-0.379,8.695,4.503,9.277,8.351c0.348,0.609,0.534,0.438,0.672-0.035
		c0.276-4.938,4.698-8.977,8.793-8.422c6.66,0.086,10.711,7.5,9.573,13.774c-1.396,7.664-5.522,12.281-8.647,17.035
		c-3.534,4.922-8.297,12.031-9.832,15.453c0,0-4.84-7.363-11.133-16.024c-4.211-5.793-7.578-12.066-7.896-17.468
		C113.874,28.344,116.404,22.809,123.421,21.852L123.421,21.852z"/>
	<path fill="#D40000" d="M35.795,226.926c5.715,0.379,8.695-4.504,9.277-8.348c0.348-0.613,0.535-0.441,0.668,0.029
		c0.281,4.941,4.699,8.979,8.797,8.428c6.66-0.086,10.711-7.5,9.57-13.777c-1.39-7.664-5.519-12.281-8.644-17.031
		c-3.539-4.922-8.301-12.035-9.832-15.457c0,0-4.84,7.367-11.133,16.027c-4.211,5.789-7.582,12.063-7.895,17.465
		C26.244,220.438,28.779,225.969,35.795,226.926L35.795,226.926z"/>
	<path fill="#D40000" d="M123.421,226.926c5.72,0.379,8.695-4.504,9.277-8.348c0.348-0.613,0.534-0.441,0.672,0.029
		c0.276,4.941,4.698,8.979,8.793,8.428c6.66-0.086,10.711-7.5,9.573-13.777c-1.396-7.664-5.522-12.281-8.647-17.031
		c-3.534-4.922-8.297-12.035-9.832-15.457c0,0-4.84,7.367-11.133,16.027c-4.211,5.789-7.578,12.063-7.896,17.465
		C113.874,220.438,116.404,225.969,123.421,226.926L123.421,226.926z"/>
	<path fill="#D40000" d="M159.777,204.887c-1.268,2.777-1.402,7.523,2.379,8.168c2.848,0.367,4.008-0.961,4.238-2.996
		c0.111-0.594,0.447-0.629,0.555,0.047c0.164,2.09,2.23,3.311,3.848,3c4.422-0.754,4.164-5.621,2.719-8.922
		c-2.184-4.383-4.479-7.15-6.598-11.563C164.488,197.215,161.714,200.945,159.777,204.887L159.777,204.887z"/>
</g>
</svg>
