<?xml version="1.0" encoding="utf-8"?>
<!-- Generator: Adobe Illustrator 15.0.0, SVG Export Plug-In . SVG Version: 6.00 Build 0)  -->
<!DOCTYPE svg PUBLIC "-//W3C//DTD SVG 1.1//EN" "http://www.w3.org/Graphics/SVG/1.1/DTD/svg11.dtd">
<svg version="1.1" id="Layer_1" xmlns="http://www.w3.org/2000/svg" xmlns:xlink="http://www.w3.org/1999/xlink" x="0px" y="0px"
	 width="178.582px" height="249.449px" viewBox="0 0 178.582 249.449" enable-background="new 0 0 178.582 249.449"
	 xml:space="preserve">
<g>
	<path fill="#FFFFFF" d="M8.504,0"/>
	<path fill="#D40000" d="M5.785,36.855v-2.191h2.129l4.531-23.418h2.582l4.992,23.418h1.719v2.191h-5.856v-2.191h1.583l-0.629-3.59
		h-5.911l-0.457,3.59h1.582v2.191H5.785z M16.328,28.523l-2.567-12.539l-2.406,12.539H16.328z M16.328,28.523"/>
	<path fill="#D40000" d="M172.792,212.598v2.191h-2.129l-4.531,23.414h-2.578l-4.996-23.414h-1.715v-2.191h5.852v2.191h-1.582
		l0.633,3.586h5.906l0.457-3.586h-1.582v-2.191H172.792z M162.25,220.93l2.566,12.539l2.406-12.539H162.25z M162.25,220.93"/>
	<path fill="#D40000" d="M6.625,48.605C5.355,45.828,5.218,41.082,9,40.437c2.851-0.367,4.011,0.961,4.242,2.997
		c0.113,0.593,0.449,0.628,0.555-0.047c0.164-2.09,2.23-3.309,3.843-3c4.422,0.754,4.164,5.621,2.719,8.922
		c-2.184,4.386-4.48,7.152-6.594,11.562C11.332,56.277,8.558,52.547,6.625,48.605L6.625,48.605z M6.625,48.605"/>
	<path fill="#D40000" d="M79.648,101.73c5.719-0.382,8.695,4.5,9.277,8.348c0.348,0.609,0.54,0.438,0.672-0.035
		c0.277-4.938,4.699-8.977,8.793-8.422c6.66,0.086,10.711,7.5,9.574,13.774c-1.391,7.664-5.52,12.281-8.648,17.035
		c-3.535,4.922-8.297,12.031-9.832,15.453c0,0-4.84-7.363-11.133-16.024c-4.211-5.788-7.578-12.065-7.89-17.467
		C70.101,108.219,72.632,102.687,79.648,101.73L79.648,101.73z M79.648,101.73"/>
	<path fill="#D40000" d="M157.328,201.156c-1.266,2.777-1.406,7.523,2.375,8.164c2.852,0.366,4.012-0.957,4.242-2.992
		c0.113-0.595,0.449-0.633,0.555,0.047c0.164,2.086,2.23,3.305,3.844,3c4.422-0.758,4.164-5.625,2.719-8.926
		c-2.184-4.384-4.48-7.148-6.594-11.563C162.039,193.479,159.261,197.211,157.328,201.156L157.328,201.156z M157.328,201.156"/>
</g>
</svg>
