<?xml version="1.0" encoding="utf-8"?>
<!-- Generator: Adobe Illustrator 15.0.0, SVG Export Plug-In . SVG Version: 6.00 Build 0)  -->
<!DOCTYPE svg PUBLIC "-//W3C//DTD SVG 1.1//EN" "http://www.w3.org/Graphics/SVG/1.1/DTD/svg11.dtd">
<svg version="1.1" id="Layer_1" xmlns="http://www.w3.org/2000/svg" xmlns:xlink="http://www.w3.org/1999/xlink" x="0px" y="0px"
	 width="178.582px" height="249.449px" viewBox="0 0 178.582 249.449" enable-background="new 0 0 178.582 249.449"
	 xml:space="preserve">
<g>
	<path fill="#FFFFFF" d="M8.504,0"/>
	<path fill="#E2CF00" d="M153.667,28.98l-9.223,5.965l-0.129,7.012c-5.465-2.625-7.844-6.922-8.703-11.957
		c-1.547,1.953-1.188,11.121-1.188,11.121l-2.871,3.219c0.883,1.453,2.133,2.773,3.379,4.094c0,0.003-1.137,9.906,0.328,11.039
		c-0.711-3.164,8.906-14.024,8.906-12.77c0,0,0.09,16.352-0.301,32.145c-2.582-1.778-8.047-4.973-11.578-8.243
		c4.543-6.109-0.02-13.515-6.918-8.484c-4.43-2.398-5.109-13.715-6.203-19.644c-0.211-1.192-1.332-4.633-1.332-4.633
		s-14.5-4.078-20.766-3.75c2.973,8.226,4.961,18.886-1.984,25.531c-5.52,7.199-17.368,8.676-17.059,8.02
		C66.871,72.746,53.98,78.434,41.453,89.059c-2.309,15.82-10.469,23.609-16.231,27.918c0.039,6.41-0.043,12.756,0.219,19.226
		c-0.004,0.039,5.262-3.453,6.086-2.813c4.402,28.593,20.512,34.262,18.898,35.055c-0.257,0.129-5.277,5.288-5.277,5.288
		l-19.664-12.952c-0.672,19.77-0.281,39.93,0,59.73c3.473-1.961,9.856-6.657,9.856-6.657l0.093-6.722
		c-0.027-0.641,8.942,5.601,8.965,13.039c0.699,0.473,2.231-10.703,0.836-11.91l3.676-3.797l-3.961-3.813
		c0,0,1.008-6.327-1.047-9.972c-1.328,8.343-8.258,10.945-8.258,10.945s-0.133-30.504-0.312-30.531l12.355,7.824
		c-0.918,0.19-3.273,4.565-0.816,8.109c1.496,2.156,6.871,2.016,7.285-0.469c7.598,7.082,4.672,15.546,7.996,25.598l21.57,3.952
		c-8.89-16.487,0.754-35.276,18.211-33.937c3.27-1.36,6.23-3.328,6.23-3.328s-2.172-3.547-4.914-6.836l-37.355-0.617l17.414-32.652
		l-11.453-0.367c0,0,9.309-19.742,7.297-21.332c-0.707-0.559-0.414-6.926-0.414-6.926l10.234,0.383
		c0.403-4.559-4.949-21.922-12.5-33.277l41.989,0.379l-23.637,32.964l12.695,0.368l-7.578,15.563l1.215,12.137l-11.266,0.363
		c1.945,16.828,14.445,34.555,18.84,40.03c7.262-1.722,20.824-12.101,29.242-18.554c1.09-11.293,4.98-20.907,15.145-28.074
		l0.137-18.825c0,0-5.906,3.981-5.906,3.719c0.023-4.023-2.176-12.344-5.941-19.863c-4.082-8.149-10.441-15.403-12.5-15.578
		c3.605-5.453,5.109-6.086,5.055-6.172l19.637,12.59L153.667,28.98z M54.703,68.574c0,0-3.821,1.453-7.137,1.406
		c-3.859-0.027-10.43,0.778-12.894,5.665c-0.493,1.484,0.582,2.031,1.371,2.421c0.464,0.227,1.203-2.273,6.523-2.484
		c2.844,0.777,8.492-0.855,9.895-2.207C54.906,71.02,54.703,68.574,54.703,68.574L54.703,68.574z M28.304,94.113
		c0,0.785,0.879,2.071,1.321,0.739c0.382-0.954,0.461-2.497,0.031-3.446C28.461,90.734,28.32,93.344,28.304,94.113L28.304,94.113z
		 M92.699,121.043l-5.805,0.023l-0.035,6.817l5.914,0.281L92.699,121.043z M149.742,154.969c-0.129,0.679-0.754,3.722,0.664,3.195
		C152.078,156.875,150.652,150.957,149.742,154.969L149.742,154.969z M144.273,172.078c-0.684-0.996-2.809,1.457-4.547,1.578
		c-7.773,0.559-13.445-0.586-14.398,7.473c4.461-2.848,10.711-1.547,14.738-2.469C142.976,177.69,146.316,175.059,144.273,172.078
		L144.273,172.078z M144.273,172.078"/>
	<path fill="#131F67" d="M24.453,229.77c-0.867-70.961-0.449-141.008-0.207-211.176l130.973,0.734
		c-0.469,70.031-0.559,140.273,0.371,211L24.453,229.77z M30.054,93.25c0.114-2.031-0.722-2.871-1.445-1.477
		c-0.172,0.332-0.734,3.86,0.602,3.977C30.086,95.828,30.007,94.121,30.054,93.25L30.054,93.25z M27.933,95.629
		c-0.008-0.477-0.301-0.688,0.352-4.859c-1.246-0.481-2.328-2.504-1.418-3.786c0.351-0.5,0.25-0.609,0.105-1.027
		c-0.359-1.039-0.168-1.883,0.793-2.543c0.617-0.426,0.641-0.535,0.446-1.094c-0.508-1.433-0.032-2.832,1.339-3.308
		c0.95-0.328,0.766-0.375,0.868-0.977c0.222-1.348,0.964-2.164,2.32-2.027c1.254,0.125,1.34,0.125,1.445-0.488
		c0.301-1.7,2.36-3.555,5.051-4.817c1.336-0.625,3.551-1.07,7.793-1.058c2.43-0.043,5.457-0.368,7.16-1.86
		c0.278-0.262,0.668-0.949,0.805-0.855c0.316,0.215,0.238,1.91-0.383,3.453c-1.809,4.496-4.258,5.734-11.176,5.691
		c-2.066-0.097-5.105,0.184-6.394,1.496c-0.383,0.407-0.641,0.789-0.496,0.996c2.867,0.411,5.812,1.704,7.527,7.36
		c5.199-3.684,13.484-9.332,23.766-14.434c-1.235-6.762,4.629-7.805,7.914-6.461c0,0,0.086-0.441-0.043-0.953
		c-0.125-0.496-0.305-1.148-0.91-1.988c-0.157-0.305-1.079-0.887-0.895-1.348c0.297-0.75,0.164-0.957-0.465-1.652
		c-0.41-0.449-0.137-1.414-0.039-1.801c0.129-0.723,0.606-1.758,0.184-2.148c-0.649-0.602-2.867-1.621-4.012-2.434
		c-1.262-0.918-1.285-1.742,0.566-4.766c0.84-1.754,1.637-3.64,2.309-4.902c1.02-1.906,1.121-3.164,0.508-4.258
		c-0.805-1.429-0.672-3.125-0.653-3.082c0,0-7.597-10.804-10.726-15.054l-35.535-0.118l-0.348,81.246l6.332-5.843l-1.66-1.965
		c-0.234,1.14-0.023,2.258-1.43,2.324C28.453,96.305,28.011,96.102,27.933,95.629L27.933,95.629z M49.05,203.957
		c0.204-3.215-1.335-8.474-3.648-12.117c0.098,2.765,0.297,6.152-0.258,8.855L49.05,203.957z M105.128,212.34
		c-0.281-0.09-2.613-0.235-4.078-0.313c-4.859-0.257-8.012-2.586-10.117-5.808c-0.516-0.793-0.301-0.758,0.844,0.14
		c3.227,2.521,6.246,4.028,8.895,3.649c3.758-0.535,5.785,0.84,5.262,2.445C105.843,212.733,105.812,212.559,105.128,212.34
		L105.128,212.34z M92.406,205.172c-0.754-0.652-0.809-0.945,0.082-0.352c2.727,1.816,6.02,4.777,10.09,3.043
		c0.844-0.539,0.066-0.469-1.348-0.32c-2.156,0.229-4.789-0.867-8.023-3.098c-1.582-1.094-0.883-2.012,0.895-1.16
		c0.551,0.266,1.105,0.461,1.461,0.48c1.75-1.161,5.434-1.148,5.348-1.141c0.418-0.359-0.957-0.935-3.004-1.707
		c-1.328-0.504-1.648-0.707-0.66-0.746c0.863-0.035,2.223,0.394,3.203,1.031c1.641,1.051,2.465,1.637,2.953,1.703
		c0.801,0.063,1.621,0.18,0.242,0.816c-0.625,0.293-0.57,0.367-0.5,1.07c0.113,1.098,0.18,1.086,0.688,1.707
		c0.855,0.94,1.227,2.695,0.008,1.598c-0.266-0.121-0.289,0.113-1.008,0.402C98.613,209.69,95.472,207.832,92.406,205.172
		L92.406,205.172z M100.187,205.483c0.234-0.308,0.59-1.097,0.637-1.319c-0.082-0.513-0.535-0.353-0.766-0.063
		c-0.395,0.484-0.945,1.191-0.492,1.434C99.781,205.651,99.988,205.746,100.187,205.483L100.187,205.483z M98.746,205.151
		l0.938-1.668c-0.23-0.108-3.406,0.548-2.906,1C97.218,204.891,98.746,205.151,98.746,205.151L98.746,205.151z M102.32,199.547
		c-1.445-0.774-1.867-2.442-0.785-3.547c0.906-0.93,2.449-0.853,4.289,0.281c0.648,0.402,1.047,0.602,1.492,0.441
		c0.742-0.273,1.023,0.141,0.965,0.723c-0.137,1.281-2.133,1.598-3.391,0.133c-1.664-1.934-3.477-0.582-2.945,0.816
		c0.273,0.71,0.797,0.82,1.398,1.089C103.343,199.621,102.742,199.772,102.32,199.547L102.32,199.547z M95.73,190.934
		c2.395-0.648,5.957,1.887,7.887,1.543c0.84-0.18,0.723,1.027-0.148,1.46c-1.016,0.513-2.461,0.168-5.523-1.429
		c-2.527-1.363-4.566,0.898-2.883,2.582c0.363,0.344,0.891,0.547,1.539,0.515c0.852-0.039,1.102,0.196,0.004,0.478
		c-0.633,0.164-1.809-0.094-2.379-0.668C92.867,194.039,93.203,191.391,95.73,190.934L95.73,190.934z M45.031,183.531
		c-0.07-2.848,1.449-4.43,1.488-4.441l-10.765-7.305l0.16,29.176c5.332-3.387,7.086-7.656,7.39-13.164
		c10.532,11.797,7.246,26.156,0.668,34.336c-0.273-5.008-1.765-10.922-7.847-13.953l-0.012,5.972l-10.09,7.157l0.059,6.594
		l23.746,0.074l11.484-16.766c-2.078-7.606-1.765-13.935-3.172-17.414c-1.054-2.86-3.058-6.555-4.351-5.985
		C49.414,191.277,45.117,187.233,45.031,183.531L45.031,183.531z M54.09,186.897c3.73,2.688,4.726,7.075,5.492,10.978
		c0.023,0.031,1.957,13.223,2.019,13.397c0.25,0.724,0.164,1.446-0.472,1.997c-3.446,4.723-10.18,14.855-10.18,14.855l65.992,0.387
		c-3.52-5.121-6.27-10.184-9.617-14.395c0.141-0.227-0.258-3.102-0.816-4.031c-0.574-0.957-0.707-1.461-0.316-2.336
		c0.965-2.16,1.953-4.5,2.848-6.48c1.707-3.793,1.902-3.824-0.43-5.055c-2.766-1.61-3.258-2.133-2.676-3.973
		c0.211-0.668,0.238-0.934-0.621-1.109c-0.395-0.078-1.359-0.309-2.004-0.488c-1.867-0.59-1.328-0.223-2.008,0.258
		c-0.52,0.258-0.969-0.727-1.578-1.891c-0.699-1.34-0.875-1.371,0.281-0.684c2.148,1.276,5.957,0.78,4.613-0.695
		c-0.656-0.719-1.262-1.09-1.191-2.723c0.066-1.617,0.094-2.09-1.008-2.316c-2.199-0.449-4.586-0.262-6.637,0.25
		c-6.227,1.554-11.223,6.957-13.117,10.972c-0.43,0.7,0.551,0.664,0.972,0.664c2.043-0.179,3.493,3.071,2.157,4.532
		c-0.618,0.648-1.235,0.25-0.575-0.594c0.75-1.398-0.371-3.25-2.011-2.777c-2.071,0.589-2.129,3.266-2.387,5.129
		c-0.703,5.371,2.023,12.546,2.691,14.012c0,0,0.145,0.219,0.098,0.219c-0.051,0-0.379,0.301-0.519,0.145
		c-0.477-0.543-1.688-4.938-2.344-8.074c-1.27-8.68,0.976-16.66,8.199-21.191c6.395-4.617,9.617-3.621,13.25-3.836
		c1.238-0.445,2.961-1.121,4.262-1.762c6.398-3.492,11.582-6.473,17.016-9.434c5.277-2.871,8.813-6.973,13.637-9.536
		c0.219-0.116,0.445-0.386,0.672-0.496c6-5.214,11.93-10.332,15.508-13.897c0.434-0.438,0.793-1.027,0.793-1.027l-0.609-30.082
		c0,0-0.602-0.5-0.598-0.981c0.004-1.043-0.383-0.844-2.527,0.668c-2.699,1.895-2.883,1.801-2.883,1.801
		c-1.426-13.801-8.891-27.371-17.938-35.309l0.375-0.508c0,0,3.023,2,4.535,2.95v-1.926l-3.645-2.281c0,0-0.324-0.262,0.031-0.743
		c0.195-0.265,0.695-0.07,0.695-0.07l2.918,2.152v-1.757l-2.359-1.504l0.754-0.953l1.266,0.82c-0.535-1.391,0.223-1.34,1-0.418
		c0.324,0.422,0.742,0.961,0.918,1.477c0.066,0.195,0.27,0.671,0.27,0.671l2.07,1.539c0,0-0.082-0.75-0.008-0.976
		c0.352-1.094,2.848,2.43,2.535,2.512L143,84.5c0.504-0.766,2.391,0.758,2.469,1.508c0.168,0.328,7.305,4.922,7.305,4.922
		l0.078-2.539l0.77-1l0.348-58.594l-9.48,6.058l-0.102,7.094c-4.477-1.449-8.355-7.933-8.922-11.98
		c-0.293-0.157-1.59,7.98-0.902,11.543c-1.184,0.879-3.18,2.941-3.164,2.949l3.59,3.93c0,0-0.715,6.015-0.547,9.004
		c0.145,1.417,0.172,1.562,0.598,1.566c0.344,0,0.652-0.371,0.652-0.695c0.844-3.579,3.617-9.161,8.41-11.063
		c0.316-0.012-0.027,31.922-0.027,31.922l-11.895-8.117c-0.594-0.508,0.777-0.477,1.613-3.18c2.145-6.938-5.379-9.246-8.211-5.394
		c-0.473-0.004-2.461-2.457-2.758-3.481c-2.199-4.433-2.621-9.457-3.047-13.484c-0.258-1.836-0.93-4.84-1.488-6.649
		c-0.297-0.965-0.328-1.66,0.316-2.562c2.945-3.977,5.797-8.16,8.281-12.238c2.266-2.977,1.82-3.125,1.82-3.125L62.543,20.68
		l10.578,13.933l1.07,0.418c-1.828,0.235-1.207,1.836-0.496,3.555c0.871,2.117,0.777,2.551-1.441,6.91
		c-3.247,6.387-3.422,5.828-0.18,7.805c2,1.281,2.363,1.562,2.07,3.301c-0.293,1.742-0.375,1.203,1.278,1.343
		c0.882,0.078,1.585,0.239,1.984,0.418c0.453,0.203,0.789,0.489,1.371,0.297c0.977-0.32,1-0.082,1.039,0.633
		c0.02,0.309,0.481,0.937,0.625,1.172c0.375,0.617,0.199,0.722-0.492,0.285c-2.125-1.34-5.684-0.766-4.375,0.691
		c0.539,0.598,1.082,2.594,1.129,3.586c0.082,1.778,1.234,2.407,3.656,2.039c4.648-0.347,15.133-6.117,17.574-12.601
		c-5.371,1.832-4.266-4.758-2.352-4.551c0,0-0.516,1.168-0.531,1.836c-0.059,2.355,1.914,2.539,3.273,0.867
		c0.594-0.875,1.313-4.133,0.957-7.808c-0.426-4.454-2.23-9.434-2.559-10.672c7.68,18.332,0.629,26.39-10.164,31.652
		c-4.133,1.727-4.699,1.715-7.133,1.828c-1.668,0.133-3.171,0.961-4.769,1.488c-9.234,4.407-20.578,9.903-30.731,18.098
		c-7.281,5.399-13.066,10.246-18.816,16.477l-0.023,32.343c0,0,0,0.513,0.656,0.114c1.656-0.594,3.398-2.105,4.973-2.7
		c0.488,0.004,0.578-0.366,0.746,0.954c0.535,2.516,0.82,5.16,1.593,7.605c3.071,9.762,7.75,16.578,14.551,23.676
		c0.766,0.793,1.902,2.23,1.902,2.23c-0.003-0.005-0.058,0.086-0.066,0.081c-1.465-0.972-2.93-1.94-4.348-2.687l-0.074,1.539
		l3.461,2.383c0.094,0.371-0.594,0.886-0.594,0.886l-2.859-1.976l-0.02,1.57l2.211,1.409c0.598,0.599-0.722,0.911-0.722,0.911
		l-1.313-0.949c0,0,0.094,0.762,0.055,0.895c-0.34,1.156-2.234-1.399-2.578-2.672l-1.863-1.106c0.265,0.759-0.403,0.86-0.93,0.672
		c-1.399-0.711-1.32-1.901-1.613-2.608l-2.477-1.57c-0.426,2.359-2.945-0.965-2.547-1.762l-3.18-2.164
		c0.176,0.066-1.214,0.354-1.683,0.047c-0.539-0.352-0.731-1.793-0.731-1.793l-1.906-1.18v2.066l19.606,13.684l-0.286,0.535
		l-20.445-13.992l0.828,60.719l9.969-6.895c-0.191-2.273,0.227-4.301,0.039-6.891c5.125,3.188,6.848,5.355,9.106,12.05
		c1.46-3.812,1.207-7.468,0.55-10.851c1.309-1.07,2.582-2.113,3.243-3.728c-1.235-1.698-2.438-2.172-3.735-3.745
		c-0.101-1.918,1.02-7.634-0.488-9.516c0,0-2.754,8.296-8.684,10.793c-0.183-8.762,0.024-30.793,0.024-30.793
		s6.097,4.207,9.207,5.918c1.461,0.781,2.476,1.27,2.496,1.824c0.012,0.281-0.574,0.645-0.832,1.039
		c-0.16,0.246-0.836,2.617-0.574,4.473c0.121,1.367,0.761,2.23,1.378,2.883C49.09,189.479,52.672,188.5,54.09,186.897L54.09,186.897
		z M65.894,171.391l23.5-32.68c2.793,12.074,7.449,23.004,13.594,33.022L65.894,171.391z M77.488,136.91
		c0,0,1.637-3.246,2.387-4.965h-2.871l1.718-1.93H83l-2.289,4.875h1.816l2.508-4.875h6.664l-2.328,4.875h1.535l2.492-4.875h6.195
		l-2.18,4.875h1.453l1.273-2.457l0.309,4.477h-6.156l2.434-4.965h-1.984l-2.746,4.965H86.23l2.5-4.965h-2.191l-2.746,4.965H77.488z
		 M96.48,119.441l2.484-5.254H97l-2.75,5.141h-6.148l2.422-5.082l-1.531,0.004c-1.039,1.605-2.695,4.859-2.695,4.859h-6.52
		c0,0,1.844-3.453,2.57-5.14h-1.605l-1.309,2.086c-0.461-0.778-0.16-2.848-0.234-3.727h6.141l-2.469,5.039h1.961l2.691-5.039h6.488
		l-2.645,5.039h1.539l2.617-4.762h6.602l-2.313,4.762h2.035l-0.898,2.074H96.48z M90.406,110.285l-1.242,0.235
		c-1.594-13.61-9.125-27.489-12.313-33.219l37.48,0.527L90.406,110.285z M134.414,31.695c0,0-3.574,4.598-3.813,12.305l3.406-2.719
		C133.789,33.461,134.414,31.695,134.414,31.695L134.414,31.695z M130.64,44.582c-0.059,5.734,1.445,9.395,3.348,12.258
		c0.035-3.695,0.406-7.438,0.625-8.418L130.64,44.582z M37.851,154.348L25.73,146v1.828l14.406,9.785L37.851,154.348z
		 M35.668,149.867c-3.246-1.634-9.938-6.677-9.938-6.677v1.668l10.649,7.481c0.211,0.207,0.492,0.156,0.589-0.074
		C36.55,151.559,36.047,150.594,35.668,149.867L35.668,149.867z M32.691,142.617l-6.961-4.855v1.511
		c1.785,1.599,7.66,5.403,7.66,5.403L32.691,142.617z M25.73,136.656l6.551,4.234l-0.406-1.875l-4.653-3.161L25.73,136.656z
		 M143.429,77.973l0.352-30.168c-6.824,3.226-8.18,12.64-7.953,12.929c-6.793-7-9.352-22.093,0.176-32.246
		c0.719,3.258,0.957,7.981,7.699,12.297l0.172-6.39l9.441-6.032l-0.078-7.261l-22.648-0.176c-3.516,4.449-7.027,9.515-10.504,14.238
		c-1.305,1.773-1.629,2.606-1.379,3.531c2.285,8.211,1.828,18.325,6.625,23.106c6.434-6.051,12.461,3.058,7.461,8.676
		L143.429,77.973z M45.558,208.418c0.871,2.746,0.274,8.289,0.215,8.289c1.039-0.566,3.867-8.59,3.16-11.605 M81.715,57.777
		c-1.602-0.457-2.809-1.144-4.5-0.98c-1.333,0.137-1.786-0.305-0.973-1.031c1.062-0.899,2.094-1.27,4.062-0.239
		c5.922,3.098,6.106-1.425,3.438-1.746c-0.758-0.094-0.723-0.574,0.031-0.453C87.914,53.492,86.652,58.977,81.715,57.777
		L81.715,57.777z M74.793,53.258c-0.786-0.285-1.731-0.762-2.078-0.668c-0.879,0.234-0.911-0.25-0.805-0.82
		c0.25-1.383,1.664-1.133,3.531,0.058c2.676,1.699,3.699-0.746,1.266-2.07c-0.817-0.442-0.567-0.567-0.086-0.586
		c1.265-0.051,2.461,1.676,2.125,3.086C77.894,54.523,75.824,53.637,74.793,53.258L74.793,53.258z M82.629,49.078
		c-1.731-0.301-4.239-2.629-5.403-2.789c-0.652-0.074-1.422,0.008-1.629-0.258c-0.64-0.801,1.172-0.801,1.293-1.094
		c0.004-0.679,0.047-1.101,0.02-1.335c-0.32-0.43-1.578-2.165-1.535-3c0.031-0.055,0.66,0.46,0.984,0.464
		c3.094-1.629,5.203-0.906,7.813,0.243c1.078,0.476,3.859,2.632,3.894,2.976c0.059,0.578-1.18-0.508-2.148-1.156
		c-2.383-1.66-4.532-2.836-7.528-1.856c-0.465,0.161-0.383,0.247,1.149,0.153c1.5-0.09,2.73,0.371,4.645,1.621
		c0.477,0.308,1.051,0.84,1.395,1c2.406,1.148,2.933,2.277,1.398,1.973c-0.328-0.067-0.965-0.407-1.59-0.629
		c-1.101-0.387-0.711-0.27-1.769,0.222c-0.371,0.172-1.27,0.539-2.004,0.625c-0.563,0.094-2.391,0.078-1.582,0.852
		c0.855,0.859,2.281,1.492,3.258,1.883C83.992,49.289,83.453,49.219,82.629,49.078L82.629,49.078z M82.836,45.336
		c1.129-0.418,0.246-1.363-1.192-1.574c-0.332-0.047-1.035,1.508-1.051,1.836C80.582,45.84,82.218,45.566,82.836,45.336
		L82.836,45.336z M79.722,45.504c0.258-0.164,1.125-1.418,1.125-1.617c0.004-0.805-1.023-0.578-1.261,0.258
		C79.297,45.164,79.269,45.789,79.722,45.504L79.722,45.504z M76.117,39.023c-0.93-0.41-2.188-2.207-0.746-1.902
		c0.308,0.07,1.929,0.156,2.972,0.16c3.559,0.016,7.102,1.625,9.356,3.969c1.254,1.305,1.336,2.27,0.062,1.371
		C83.254,38.574,80.484,39.328,76.117,39.023L76.117,39.023z M111.242,178.555l-1.258,0.672c0.004,0.695,0.254,0.585,0.813,1.082
		c0,0-0.773,0.125-1.34,0.086c-0.918-0.059-1.129-0.043-0.723,0.602c0.188,0.301,0.445,0.742,0.445,0.742s-0.5,0.109-1.25-0.098
		c-1.137-0.313-1.719-0.157-1.289,0.477c0.117,0.176,0.348,0.504,0.348,0.504c-0.832-0.191-2.355-0.931-2.355-0.931l-1.074,0.325
		C105.703,186.207,113.332,183.562,111.242,178.555L111.242,178.555z M148.457,172.578c1.18-0.992,0.605-2.203-1.117-3.095
		c-0.715-0.37-0.645-0.375-1.809,0.31c-1.434,0.84-1.535,0.883-0.512,1.965C146.25,173.065,147.589,173.305,148.457,172.578
		L148.457,172.578z M144.078,169.777c1.086-0.48,0.684-0.398,0.609-1.531c-0.316-1.31,0.422-1.398,0.789-2.617
		c0.152-0.668-0.414-0.422-1.508,0.598c-0.906,0.762-1.172,0.945-1.172,0.574c0.102-0.305-0.621-1.098-1.266-1.207
		c-0.551-0.09-0.496-0.215,0.039-0.907c0.926-1.203,1.309-2.718,0.688-4.054c-0.789-1.684-1.047-1.934-2.789-0.461
		c-0.891,0.82-2.148,1.453-2.758,2.465c-0.438,0.746-0.184,1.468,0.504,2.938C138.933,169.238,141.589,170.883,144.078,169.777
		L144.078,169.777z M150.175,169.812c1.91-0.75,1.141-2.815-1.848-4.894c-1.805-1.258-2.313-1.242-0.785,0.117
		c0.98,0.866,1.133,1.176,0.715,1.801c-0.352,0.522-0.719,1.137-0.371,1.613C148.433,169.199,149.367,170.125,150.175,169.812
		L150.175,169.812z M42.496,166.379l-2.086-1.317v1.802l2.086,1.241V166.379z M146.679,168.004c0.414-0.289,0.77-1.106,0.773-1.469
		c0.094-0.836-1.27-0.638-1.922,0.289C144.796,167.867,145.664,168.719,146.679,168.004L146.679,168.004z M151.347,165.172
		c0.949-0.996,0.488-2.059-1.461-3.32c-0.754-0.493-1.137-0.816-1.047,0.164c0.031,0.296-0.297,0.691-0.508,0.925
		c-0.676,0.759-0.375,0.896,1.551,2.114C150.863,165.68,150.812,165.729,151.347,165.172L151.347,165.172z M42.496,163.258
		l-2.086-1.262v1.637l2.086,1.406V163.258z M37.937,164.887l0.028-1.637l-2.704-1.797l-0.035,1.828L37.937,164.887z
		 M144.148,164.227c-0.348,0.938,1.051,0.512,1.133,0.414c0.242-0.473,0.027-0.516-0.09-0.566
		C144.945,163.969,143.992,164.133,144.148,164.227L144.148,164.227z M144.757,163.039c0.48-0.152,0.539-0.094,0.473-0.957
		c-0.102-1.31,0.094-1.41,0.961-1.988c0.695-0.457,0.699-0.387,0.688-1.191c-0.012-0.966,0.055-1.383,1.324-1.578
		c0.523-0.082,0.82-0.207,0.863-0.621c0.074-0.688-1.039-1.855-2.418-2.527c-0.203,0-3.289,2.683-4.148,3.609l-0.527,0.566
		l0.629,1.18c0.98,1.84,0.82,2.516,0.242,4.957c-0.117,0.652,0.387,0.559,0.52-0.23
		C143.535,163.527,143.636,163.258,144.757,163.039L144.757,163.039z M149.46,156.535c-0.238,1.48,0.531,2.391,1.254,1.655
		c0.395-0.401,0.727-3.671,0.453-4.19C149.679,152.406,149.519,156.176,149.46,156.535L149.46,156.535z M125.492,181.065
		c5.531-3.237,12.641-0.589,16.648-3.25c1.867-2.058,3.645-3.718,2.586-5.14c-0.824-1.105-1.098-1.25-1.887-0.551
		c-1.434,1.276-2.797,1.602-6.637,1.656C129.539,173.535,125.632,175.77,125.492,181.065L125.492,181.065z M134.945,173.352
		c3.523,0.125,6.387-0.488,7.699-1.508c0.813-0.637,0.934-0.746-0.34-0.852c-2.738-0.22-5.508-3.391-6.375-6.47
		c-0.176-0.632-0.387-1.319-0.387-1.319c-7.289,5.816-23.336,14.983-23.336,14.983c1.063,4.954-2.523,7.907-7.383,6.149
		c-0.848-0.078-0.738,1.012-0.578,1.457c0.266,0.733,0.852,1.348,0.969,1.445c0.723,0.62,0.855,1.031,0.75,1.625
		c-0.109,0.586-0.098,0.566,0.313,0.784c0.73,0.392,0.691,0.95,0.293,2.099c-0.43,1.617-0.457,2.023,0.703,2.793
		c1.496,0.961,4.43,2.012,4,3.457c-0.984,3.273-2.598,6.094-4.016,9.155c-0.523,0.853-0.414,2.25,0.004,2.907
		c0.512,1,0.453,2.199,1.121,3.117c3.684,5.472,6.859,10.285,10.215,15.226l35.129,0.332l-0.875-81.015c0,0-5.414,5.332-5.398,5.707
		c0.02,0.449,1.273,1.152,1.809,1.242c0.023-0.242,0-1.203,0.066-1.539c0.051-0.488,1.613-0.363,2.133,0.062
		c0.359,0.298,0.25,2.235-0.117,3.813c-0.301,1.293-0.258,1.308,0.297,2.055c0.672,0.91,0.906,1.68,0.82,2.707
		c-0.051,0.566-0.047,1.007,0.113,1.382c0.375,0.875,0.266,2.11-0.148,2.685c-0.598,0.832-0.609,0.957-0.477,1.401
		c0.488,1.544,0.305,2.856-1.414,3.524c-0.219,0.086-0.461,0.465-0.602,0.793c-0.75,2.469-2.156,2.465-4.078,1.754
		c-1.363,5.313-6.902,6.645-10.895,6.488c-4.156-0.164-8.387,0.147-10.266,2.867C125.132,176.219,128.015,173.113,134.945,173.352
		L134.945,173.352z M147.492,162.656c0.707-0.262,0.793-1,0.199-1.473c-0.91-0.727-1.957,0.012-1.527,1.063
		C146.402,162.836,146.804,162.914,147.492,162.656L147.492,162.656z M38.054,160.32l-2.769-1.919l0.015,1.716l2.758,1.773
		L38.054,160.32z M43.277,161.729l-1.961-2.351c-5.773-3.531-10.781-7.481-15.586-10.664l-0.035,2.18l1.375,0.691
		c0,0,0.113-0.478,0.207-0.754c0.18-0.521,1.766,0.94,2.273,2.108c0.125,0.293,0.399,0.946,0.399,0.946l1.851,1.02
		c0,0,0.028-0.523,0.028-0.668c0.008-1.117,1.988,0.418,2.89,2.238c0.219,0.441,0.504,0.91,0.504,0.91l1.743,1.059
		c0.687-0.938,2.437,0.348,2.886,1.488c0.567,1.445,1.571,1.57,1.61,1.574L43.277,161.729z M32.851,161.414l0.004-1.668
		l-2.887-1.898l-0.039,1.691L32.851,161.414z M151.695,161.551c0.074-0.438-0.359-2.145-1.008-2.239
		c-0.402-0.058-1.039,0.556-1.039,0.985C149.644,160.852,151.613,162.022,151.695,161.551L151.695,161.551z M149.343,159.526
		c0.633-0.69-0.164-1.586-1.129-1.276c-1.145,0.371-0.746,1.41,0.535,1.43C149.035,159.684,149.207,159.676,149.343,159.526
		L149.343,159.526z M32.703,158.297l0.008-1.59l-2.664-1.762l-0.055,1.555L32.703,158.297z M27.457,157.738l0.027-1.531
		l-1.754-1.224v1.832L27.457,157.738z M27.519,153.147l-1.789-1.168v1.661l1.871,1.07L27.519,153.147z M34.789,148.102
		c-0.184-0.493-0.942-2.043-0.942-2.043l-8.117-5.668v1.746l9.082,6.105L34.789,148.102z M30.992,134.637l-0.098-0.707l-0.722,0.382
		L30.992,134.637z M29.269,134.815l-1.133,0.614l3.43,2.23l-0.277-1.586L29.269,134.815z M148.347,116.023l0.883-0.64l-1.563-1.055
		l-0.113,1.07L148.347,116.023z M149.929,115.008l1.16-0.961l-3.883-2.738l0.273,1.703L149.929,115.008z M152.683,113.574v-1.172
		l-6.301-4.254l0.434,2.137c1.113,0.641,2.469,1.582,3.891,2.578C151.605,113.496,151.609,113.742,152.683,113.574L152.683,113.574z
		 M152.683,111.406v-1.859l-7.289-4.84l0.59,2.18L152.683,111.406z M152.683,108.617l0.004-1.949l-8.824-5.828l0.965,2.574
		L152.683,108.617z M152.683,103.727l-11.125-7.446l1.426,2.852l9.699,6.484V103.727z M152.683,100.883l-13.961-9.289l1.566,2.601
		l12.395,8.379V100.883z M152.683,97.863l-0.523-0.004c-0.039,1.332-1.48,0.368-2.023-1.097c-0.41-0.981-0.5-1.227-0.5-1.227
		l-2.813-1.902c0.059,0.387,0.219,1.492,0.219,1.492l-1.891-1.156c0,0-0.547-1.832-0.566-1.844l-3.234-2.199
		c0.066,0.375,0.121,0.992-0.09,1.035c0,0-0.984-0.422-1.434-1.074c-0.469-0.684-0.539-1.367-0.539-1.367l-2.641-1.708l-0.656,0.071
		c0,0-0.355-0.242-0.691-0.512c-0.625-1.121-1.359-1.289-2.234-1.746c0,0,1.859,2.168,2.852,3.449
		c0.91,1.184,2.016,2.028,2.016,2.028l14.75,9.843V97.863z M152.683,94.828l-1.141-0.687l0.086,1.796l1.055,0.719V94.828z
		 M37.699,90.871c0.07-0.113-0.223-0.242-0.543-0.945c-0.793-1.746-0.871-2.356-0.445-4.188c0.203-0.875-0.594-1.25-0.957-0.316
		c-0.286,0.723-0.727,1.133-1.149,1.078c-0.398-0.047-0.484,0.121-0.312,0.672c0.211,0.762-0.246,1.754-0.887,2.023
		c-0.645,0.168-0.762,0.575-0.582,1.168c0.301,0.985-0.762,1.817-1.594,1.77c-1.289-0.074-0.785,1.097,0.77,2.215
		c0.574,0.414,0.832,0.636,1.285,0.429C34.461,93.668,36.644,92.078,37.699,90.871L37.699,90.871z M149.519,94.473l-0.063-1.711
		l-3.242-2.192l0.398,2.293L149.519,94.473z M152.683,93.754v-1.727l-1.332-0.855l0.066,1.832L152.683,93.754z M30.672,91.082
		c0.312,0.313,0.621,0.344,1.113,0.047c0.57-0.297,0.351-0.746-0.242-1.039C30.984,89.797,30.207,90.687,30.672,91.082
		L30.672,91.082z M29.707,90.324c-0.047-0.359,0.394-0.847,0.699-0.863c0.664-0.043,0.547-0.399-0.215-0.859
		c-0.355-0.215-0.988-0.719-1.219-0.887c-1.14-0.828-2.242,0.449-1.394,1.527C28.285,90.145,29.332,90.68,29.707,90.324
		L29.707,90.324z M149.199,91.395l-0.25-1.907l-2.93-1.945l0.23,2.098L149.199,91.395z M42.773,86.75
		c0.16-0.266,0.211-0.52,0.195-0.84c-0.062-1.199-0.679-2.609-1.546-3.785c-0.645-0.879-1.43-1.629-2.223-2.07
		c-2.238-1.153-5.227-0.657-4.793,0.828c0.312,1,0.238,1.84-0.621,2.344c-0.586,0.343-0.66,0.804-0.039,0.804
		c0.445,0,1.636-0.41,2.136-1.191c0.7-1.102,1.098-1.742,0.942,0.055c-0.067,0.753,0.027,0.695,1.195,0.636
		c1.582-0.082,1.289,0.215,0.363,0.93c-1.343,1.035-1.613,2.793-0.933,4.285c0.422,0.926,0.711,1.418,1.262,1.293
		C39.894,89.262,41.828,87.695,42.773,86.75L42.773,86.75z M144.027,88.973l-2.879-1.899l0.113,2.031l3.109,1.836L144.027,88.973z
		 M33.441,87.117c-1.055-1.332-2.297,0.367-1.492,1.113C32.527,88.742,33.996,88.219,33.441,87.117L33.441,87.117z M30.945,87.301
		c-0.133-0.414,0.633-1.082,0.75-1.348c0.352-0.769-2.777-2.918-3.75-1.644c-0.668,0.875-0.203,1.753,1.602,2.953
		C30.64,87.988,31.16,87.988,30.945,87.301L30.945,87.301z M143.75,86.016l-2.664-1.661l0.047,1.754l2.828,1.707L143.75,86.016z
		 M139.054,87.582v-1.789l-2.684-1.871l-0.047,1.855L139.054,87.582z M34.73,85.469c0.488-0.481,0.324-0.637-0.617-0.59
		c-0.594,0.031-0.777-0.067-0.816,0.203C33.207,85.687,34.23,85.965,34.73,85.469L34.73,85.469z M32.5,84.793
		c0.047-0.125-0.289-0.371-0.84-0.832c-1.047-0.879-1.164-1.426-0.156-2.109c1.437-0.977-0.071-2.368-1.739-1.801
		c-1.347,0.457-1.351,1.812-0.55,2.687C30.312,83.469,32.3,85.578,32.5,84.793L32.5,84.793z M139.054,83.004l-2.641-1.809v1.762
		l2.641,1.539V83.004z M32.996,83.117c1.176-0.597,1.238-2.101,0.063-1.551c-0.488,0.227-1.121,0.844-1.125,1.121
		C31.929,83.23,32.394,83.426,32.996,83.117L32.996,83.117z M33.859,79.668c1.523-0.816,1.289-1.578-0.227-2.527
		c-1.855-1.063-3.152,0.972-1.625,2.359C32.804,80.227,32.992,80.137,33.859,79.668L33.859,79.668z M35.898,78.145
		c1.402-2.262,4.805-2.344,6.57-2.422c7.793-0.348,9.051-0.981,11.082-4.477c0.836-1.984,0.758-2.555-0.449-1.961
		c-1.867,0.762-2.867,0.906-6.492,0.949c-2.746,0.032-3.477,0.063-4.293,0.254c-4.187,0.992-7.051,2.895-7.723,5.254
		c-0.41,1.442-0.406,1.293,0.372,2.028C35.621,78.387,35.894,78.516,35.898,78.145L35.898,78.145z M69.648,69.129
		c2.172,0.019,2.074,0.086,1.18-1.699c2.117,0.289,2.969,1.3,2.273-0.805c1.121,0.402,1.793,0.711,2.953,1.09l0.735-0.426
		c-4.477-4.355-9.442-0.664-8.133,3.731l1.664-0.797L69.648,69.129z M69.648,69.129"/>
	<path fill="#D40000" d="M157.871,242.039v-2.871h2.586c0,0-0.023,1.004,0-9.316c0.02-8.997,0.09-9.066,0.348-9.938
		c1.805-6.023,12.52-6.02,13.207,0.668c0.035,3.254,0.051,3.938,0.074,3.94h-2.867c0,0-0.004-0.815,0-1.284
		c0.016-3.352-1.023-4.832-3.676-4.855c-2.016-0.016-3.141,0.711-3.777,2.363c-0.355,0.801-0.391,1.551-0.391,2.285
		c0.004,3.711,0.004,16.141,0,16.137h2.883l0.039,2.852L157.871,242.039z M80.57,228.371l1.043-5.043l9.289,0.449
		c0,0,1.07,3.168,1.508,4.594H80.57z M59.117,228.246l4.93-8.142l7,1.903l-1.614,6.363L59.117,228.246z M72.73,228.371l2.121-8.691
		c-4.004-0.883-7.781-1.461-12.199-2.652l-7.18,11.344l-4.312-0.125c3.719-4.953,10.512-14.961,10.512-14.961
		c15.578,5.359,31.285,6.266,47.097,3.434c0,0,5.824,7.688,7.914,11.852l-4.109-0.199l-5.105-8.551
		c-3.555,0.387-7.051,0.859-10.758,1.016l2.539,7.535h-4.074l-2.32-7.517c-4.449-0.171-8.187,0.177-13.519-0.655l-1.879,8.168
		L72.73,228.371z M102.132,228.371l-1.406-5.34l5.016-0.586c0,0,2.324,4.074,3.598,5.926H102.132z M116.82,212.358
		c0.242-3.722,0.984-6.64,4.441-11.573c4.414-6.309,12.441-18.599,12.641-19.177c0,0,8.23,12.353,11.914,17.931
		c3.141,4.781,5.055,10.112,5.16,13.313c0.199,6.141-3.668,9.98-8.859,10.617c-3.559,0.438-7.258-2.789-7.535-6.582
		c-0.117-1.555-0.965-2.028-1.191-0.664c-0.297,4.734-4.043,7.535-8.34,7.117C118.667,222.715,116.55,216.434,116.82,212.358
		L116.82,212.358z M161.523,211.797c-1.637-0.521-2.813-2.199-3.02-4.313c-0.234-2.413,0.637-4.882,3.586-9.397
		c1.398-2.195,2.867-4.508,4.02-6.84c1.734,2.547,2.637,4.504,4.387,7.137c4.016,6.438,4.785,9.906,2.738,12.371
		c-1.445,1.742-4.488,1.789-5.742,0.09c-0.379-0.512-0.469-0.746-0.734-1.871c-0.121-0.5-0.48-0.566-0.582-0.105
		C165.652,211.242,163.679,212.483,161.523,211.797L161.523,211.797z M57.136,178.723c6.235-9.48,28.258-40.039,28.258-40.039
		l3.207,0.305c0,0-19.535,27.254-29.035,41.094L57.136,178.723z M25.57,167.176c-0.344-0.348-0.344-2.446,0.266-2.442
		c0.757,0.005,8.117,4.5,7.074,5.328c-0.211,0.168,0.461,42.396,0.461,42.396l-8.16,5.848
		C25.211,218.305,25.64,167.246,25.57,167.176L25.57,167.176z M57.215,93.539l4.648,9.098c-19.75,18.715-15.875,40.675-5.293,56.34
		c0,0-1.344,3.43-4.324,7.148c-14.266-9.57-18.59-34.164-18.59-34.164C49.433,117.887,51.562,113.406,57.215,93.539L57.215,93.539z
		 M138.109,160.434c0.902-13.309,7.43-21.914,15.414-29.305l0.188,15.129C148.738,151.027,143.66,155.776,138.109,160.434
		L138.109,160.434z M117.308,146.652c6.531-5.055,13.059-18.16,13.871-26.8c0.629-11.532-1.766-20.141-8.586-29.137l5.156-7.203
		c7.313,7.824,14.48,16.023,17.531,35.078c0,0-0.387,0.226-1.258,0.91c-19.012,16.733-21.953,36.395-21.953,36.395L117.308,146.652z
		 M93.546,127.906l-0.109-6.652l6.469-0.031l-0.184,6.589L93.546,127.906z M79.793,127.805l-0.348-6.883l6.852,0.402l-0.301,6.617
		L79.793,127.805z M90.878,110.133c0,0,21.434-29.957,29.848-40.789l1.789,1.312L94,110.355L90.878,110.133z M40.785,89.199
		c-0.02,11.844-7.61,21.227-15.363,27.348l0.105-13.481L40.785,89.199z M45.304,67.652c0,0-15.433-20.648-17.082-29.632
		c-0.55-5.465,2.555-11.204,7.922-11.938c4.168-0.508,8.192,2.484,8.696,6.746c0.093,0.836,0.285,1.063,0.722,0.867
		c0.32-0.144,0.371-0.312,0.512-1.761c0.398-4.118,4.242-6.398,8.23-6.051c7.145,0.918,9.641,9.844,7.645,14.351
		C57.73,49.746,44.433,68,45.304,67.652L45.304,67.652z M4.433,43.809c-0.597-2.418,0.317-5.536,2.051-6.321
		c2.578-1.164,5.055,0.305,5.469,2.598c0.156,0.859,0.519,0.805,0.664-0.09c0.351-2.203,2.906-3.445,5.129-2.301
		c2.75,1.414,3.297,5.078,1.246,9.157c-2.297,3.878-6.973,11.308-6.973,11.308C11.875,57.734,5.468,48.09,4.433,43.809L4.433,43.809
		z M153.441,32.059l0.043,52.558l-7.246-4.363l0.617-44.074L153.441,32.059z M118.902,35.172
		c-16.355-4.254-31.258-5.527-46.926-2.168c-2.039-2.438-8.902-12.578-8.902-12.578l3.976,0.101l5.59,8.93l10.676-1.398L80.57,20.77
		l4.402,0.015l2.192,7.152c-0.024-0.054,8.687,0.086,13.527,0.661c0.77-2.657,2.203-7.938,2.203-7.938l4.848-0.004
		c-0.621,2.539-2.297,8.574-2.297,8.574c3.973,0.555,11.34,2.426,11.406,2.508c2.586-3.652,4.988-7.308,7.324-10.961l4.727-0.023
		C127.511,23.113,119.164,35.289,118.902,35.172L118.902,35.172z M4.554,25.012h2.942c-0.098,2.144-0.067,4.695,1.91,5.613
		c3.512,1.199,5.84-0.93,6.074-4.012c0.16-3.531,0.07-16.308,0.07-16.308h-2.793V7.414h8.579v2.891h-2.817
		c0,0,0.199,10.945-0.015,16.402c-0.137,5.387-4.25,7.207-7.649,7.012C3.812,33.457,4.402,28.422,4.554,25.012L4.554,25.012z
		 M115.886,28.871l-7.227-1.684l1.887-6.371l10.102-0.004L115.886,28.871z M74.386,26.566l-3.359-5.91h6.465l2.14,5.207
		L74.386,26.566z M89.066,25.363l-0.98-4.707h11.738l-1.199,5.016L89.066,25.363z M89.066,25.363"/>
	<path d="M62.218,20.262l10.442,15.07c0.051-0.051,5.851-1.156,11.558-1.437c5.668-0.278,12.43,0.078,12.489,0.25
		c0,0,1.785,5.386,2.391,8.031c0.797,3.535,0.715,7.605-0.129,10.304c-1.234,3.954-1.887,5.141-4.648,7.86
		c-2.043,1.984-4.938,4.14-7.918,5.293c-4.133,1.726-4.555,1.719-6.992,1.832c-1.61,0.074-1.774,0.137-2.653,0.594
		c-0.273,0.093-0.449,0.378-0.691,0.461c-0.203,0.066-0.59-0.012-0.59-0.012c-13.433,5.887-23.945,12.453-31.89,18.312
		c-0.09,0.071-0.153,0.375-0.239,0.446c-0.652,0.531-1.25,0.938-1.882,1.421c-0.09,0.067-0.286-0.054-0.372,0.016
		c-9.343,7.199-14.636,13.035-16.586,14.719l0.192,33.523c0,0,4.258-2.188,6.437-3.52c1.532,12.98,8.008,25.59,18.227,34.344
		l-4.434,6.113l-20.433-14.067l0.285,61.849l10.863-7.543v-6.523c3.238,2.179,6.399,3.027,8.696,12.957
		c1.839-3.489,1.679-8.68,0.855-12.152c0.012,0,2.758-2.266,3.598-4.008l-4.036-3.579c0,0,1.043-8.671-0.859-10.418
		c-1.504,3.935-2.707,8.106-8.336,11.146l-0.07-30.129c2.805,1.776,5.461,3.776,8.234,5.602l0.379-0.079l2.871,1.966
		c0,0-0.304,0.617-0.582,1.038c-3.488,5.286,2.321,11.771,7.047,7.868c1.852-1.527,5.324,4.824,5.977,10.938
		c0.668,3.944,1.027,8.848,2.097,12.276c0.332,1,0.203,1.56-0.504,2.168c-3.621,5.095-10.898,15.36-10.898,15.36h5.246l0.391-0.602
		h-3.879c3.328-4.43,6.508-9.595,9.961-13.918c12.871,4.844,33.953,5.965,46.687,3.027c2.629,3.688,5.188,7.55,7.715,11.309h-3.66
		l0.504,0.789h4.953l-10.434-15.359c-7.195,2.137-24.727,1.305-24.41,1.129c0,0-0.047-0.121-0.652-1.864
		c-3.012-9.718-3.289-18.343,4.262-25.315c4.011-3.566,8.492-5.918,13.496-5.474c2.234-0.043,2.277-0.164,3.211-0.586
		c0.512-0.229,1.578-0.472,1.578-0.472l5.07-2.809l0.668-0.134l1.457-0.769l0.301-0.359l2.355-1.195l0.266,0.023l3.184-1.832
		l0.043-0.262l1.254-0.771l0.297,0.313c0.348,0.031,12.484-7.934,17.547-12.371l0.313,0.113c5.91-4.781,13.949-12.32,16.332-15.185
		l-0.129-14.351l-0.203-0.172l-0.082-15.891h-0.461l-0.02-1.957c-2.613,0.965-5.488,3.395-5.68,3.293
		c-1.664-13.453-7.859-25.843-17.98-34.941l4.309-5.949l20.012,13.461l0.055-3.934h0.25c0.242-15.082,0.379-54.176,0.379-54.176
		l-0.199-0.019l-0.004-3.121l-10.227,6.531l-0.145,6.598c-4.535-1.481-7.406-6.93-8.359-11.786
		c-1.32,0.532-1.934,5.645-1.445,12.118c-1.402,0.836-2.301,1.753-3.16,2.859c1.113,1.398,2.344,2.547,3.703,3.719
		c-0.285,0.609-0.883,9.25-0.289,10.324c0.273,0.789,1.219,0.676,1.223-0.152c1.379-6.743,7.77-11.164,8.129-10.754l-0.156,31.07
		l-11.355-7.961c2.387-2.691,2.887-7.23-0.117-9.453c-3.012-2.227-5.957-0.34-6.656,1.078c-3.688-2.402-4.926-11.305-5.465-14.789
		c-0.133-1.695-0.57-4-1.07-6.074c-0.313-1.305-0.688-2.547-0.738-3.715c-0.02-0.547,0.047-0.785,0.543-1.473l11.039-15.664
		l-5.633-0.019l-0.055,0.097l4.434,0.012l-9.957,14.137c-14.98-4.703-30.512-5.844-47.129-2.856L63.32,20.523l3.734-0.015
		l-0.148-0.246H62.218z M70.882,20.395l0.157,0.281l6.453-0.02l-0.098-0.238C77.394,20.418,70.894,20.395,70.882,20.395
		L70.882,20.395z M80.445,20.43l0.125,0.34l4.398,0.015l-0.128-0.332L80.445,20.43z M102.921,20.547l-0.039,0.156l4.844,0.008
		l0.043-0.156L102.921,20.547z M88.058,20.551l0.047,0.199h11.699l0.043-0.188L88.058,20.551z M110.589,20.656l-0.047,0.164
		l10.102-0.008l0.086-0.156H110.589z M153.207,29.273l0.031,2.125l-6.781,4.313c-0.172,9.094-0.434,44.07-0.434,44.07l-1.625-1.066
		l0.32-43.797C144.718,34.918,150.718,31.059,153.207,29.273L153.207,29.273z M135.406,30.984h0.227l0.07,0.493h-0.395
		L135.406,30.984z M135.886,32.266l0.176,0.668l-0.992-0.004l0.168-0.645L135.886,32.266z M153.011,32.613V34l-5.855,3.66v-1.379
		L153.011,32.613z M134.941,33.77l1.535,0.019l0.254,0.766h-1.926L134.941,33.77z M97.347,34.18l1.023,0.152
		c2.348,5.598,2.953,10.406,3.359,15.406c0.938,6.492,2.824,12.996,4.137,15.762l-1.504-0.016c-0.172-0.019-3.34-9.418-4-14.968
		c-0.18-1.098-0.109-2.118-0.164-3.137C99.863,43.09,99.277,39.863,97.347,34.18L97.347,34.18z M99.273,34.406l1.305,0.133
		c0.914,3.973,2.246,7.727,2.785,11.719c0.867,6.387,1.328,12.91,4.406,19.207l-1.223-0.012c-1.867-4.258-3.023-8.695-3.77-13.496
		c-0.582-2.754-0.586-4.82-0.895-7.309C101.507,41.66,100.355,37.863,99.273,34.406L99.273,34.406z M101.257,34.59l1.309,0.195
		c0.859,3.945,2.336,8.289,2.727,11.856c0.793,7.265,1.934,14.039,4.227,18.843l-0.914-0.027c-3.543-6.859-3.598-12.969-4.59-19.398
		C103.429,42.277,102.191,38.488,101.257,34.59L101.257,34.59z M103.339,34.898l1.156,0.176c0.805,3.926,2.246,8.371,2.578,12.356
		c0.594,7.05,1.848,12.386,4.469,18.078l-1.082,0.019c-3.168-5.543-3.594-12.347-4.578-19.238
		C105.335,42.484,104.109,38.652,103.339,34.898L103.339,34.898z M153.011,34.906v1.715l-5.855,3.762v-1.696L153.011,34.906z
		 M105.23,35.238l1.207,0.188c0.777,3.785,2.223,7.828,2.563,11.515c0.582,6.301,1.742,12.664,4.34,18.532l-1.113,0.066
		c-2.746-5.918-3.945-11.309-4.465-18.113C107.472,43.609,106.003,38.957,105.23,35.238L105.23,35.238z M137.109,35.258l0.422,1.019
		l-2.805,0.137l0.035-1.144L137.109,35.258z M107.214,35.613l1.438,0.282c1.52,6.039,1.918,11.761,2.953,17.503
		c1.293,7.133,2.656,10.719,3.773,12.051l-1.188,0.035c-2.898-6.175-3.926-12.316-4.598-18.679
		C109.195,43.051,107.964,39.352,107.214,35.613L107.214,35.613z M109.402,36.023l1.094,0.219c1.305,4.938,1.895,9.555,2.469,14.024
		c1.043,8.488,3.871,14.945,4.473,15.242l-1.207-0.051c-2.617-3.617-3.586-9.773-4.871-18.461
		C110.792,43.176,110.23,39.582,109.402,36.023L109.402,36.023z M111.164,36.375l1.227,0.301c0,0,1.105,4.344,1.938,10.109
		c0.695,4.805,1.063,14.258,6.285,19.695c2.609,2.711,7.199,5.071,10.336,2.508c1.336-1.14,2.199-2.968,1.395-4.926
		c-1.352-3.273-5.934-2.714-4.41,0.723c0.172,0.824-0.906,0.86-1.656,0.055c-0.789-0.86-0.594-1.84-0.031-2.742
		c1.176-1.899,4.332-2.094,6.184-0.399c2.957,2.899,1.68,7.871-2.066,9.446c-4.316,1.835-9.879-1.95-12.082-5.563
		c-3.641-6.289-4.207-12.262-5.063-18.613C112.785,43.539,111.949,39.937,111.164,36.375L111.164,36.375z M113.011,36.883
		l1.246,0.301c0.004,0.019,1.363,6.125,1.813,9.742c0.559,4.469,1.176,9.738,3.09,13.804c1.188,2.532,2.922,4.657,4.672,5.895
		c1.508,1.066,2.859,1.742,4.863,1.305c2.313-0.504,2.41-4.082,0.203-4.094c-1.125-0.004-0.391-1.09,0.543-1.121
		c3.328-0.11,3.422,5.137,0.293,6.305c-3.586,1.339-7.465-1.184-9.867-4.356c-4.199-6.523-4.031-12.473-4.957-17.734
		C114.664,44.16,113.105,37.012,113.011,36.883L113.011,36.883z M138.183,37.066l0.758,1.016l-4.223-0.02l0.02-0.964L138.183,37.066
		z M114.863,37.402l1.191,0.414c0.035,0,1.195,4.743,1.918,10.344c0.855,5.399,1.137,9.895,3.934,13.797
		c1.164,1.621,3.359,3.789,4.742,4.047c0.859,0.183,1.746-0.004,1.965-0.656c0.355-1.067,1.27-0.578,1.289,0.39
		c-0.004,0.68-0.5,1.383-1.34,1.625c-4.113,0.711-7.875-4.449-9.016-7.066c-1.547-3.809-2.207-8.063-2.879-13.36
		C116.386,44.695,115.027,37.547,114.863,37.402L114.863,37.402z M153.011,37.594l-0.02,1.711l-5.836,3.675v-1.664L153.011,37.594z
		 M116.656,37.926l1.336,0.363c0,0,1.113,4.172,1.777,9.32c0.672,5.219,2.117,11.286,4.82,14.426
		c0.246,0.301,0.414,0.512,0.52,0.688c0.195,0.429-0.035,1.148-0.238,1.148c-4.813-2.504-5.949-12.57-6.363-15.973
		C117.898,42.637,116.656,37.926,116.656,37.926L116.656,37.926z M135.378,38.734l4.246,0.118l1.012,1l-5.625-0.051
		C134.417,39.187,134.789,39.258,135.378,38.734L135.378,38.734z M153.011,40.121v1.422l-5.855,3.707v-1.449L153.011,40.121z
		 M135.523,40.57l6.215,0.11l2.18,1.297l-9.496-0.079L135.523,40.57z M153.011,42.371v1.703l-5.855,3.668v-1.597L153.011,42.371z
		 M133.222,42.695l10.559,0.11l0.027,1.144l-11.449-0.293L133.222,42.695z M131.847,44.652l11.941,0.032l0.031,1.265l-10.859-0.105
		L131.847,44.652z M153.011,44.848v1.773l-5.855,3.629v-1.684L153.011,44.848z M134.093,46.707l9.152,0.043l-0.992,1.059
		l-6.902-0.071L134.093,46.707z M153.011,47.332v1.676l-5.855,3.683v-1.652L153.011,47.332z M140.98,48.613l-1.109,1.078
		l-4.742-0.066l0.164-0.98L140.98,48.613z M153.011,49.789v1.797l-5.855,3.574v-1.555L153.011,49.789z M135.062,50.445l3.914,0.082
		l-0.598,0.825l-3.426,0.015L135.062,50.445z M99.863,51.875c0.594,4.52,3.871,13.625,3.871,13.621l-1.293,0.012
		c0.063,0.09-2.344-5.735-3.211-11.223C99.125,53.762,99.48,51.996,99.863,51.875L99.863,51.875z M134.808,52.137l3.012,0.05
		l-0.656,1.165l-2.453-0.004L134.808,52.137z M153.011,52.41v1.57l-5.855,3.602v-1.434L153.011,52.41z M134.71,54l1.996,0.062
		l-0.473,1.079l-1.547-0.047L134.71,54z M153.011,54.848v1.675l-5.855,3.629v-1.617L153.011,54.848z M98.632,55.203
		c0.586,3.289,3.082,9.899,3.273,10.332l-1.105,0.016c-0.051,0.152-2.598-5.926-2.867-8.524C97.8,56.48,98.089,55.406,98.632,55.203
		L98.632,55.203z M134.691,55.902l1.184,0.055l-0.203,0.617l-0.957,0.024L134.691,55.902z M134.796,57.383l0.613,0.015l-0.145,0.586
		h-0.387L134.796,57.383z M153.011,57.414v1.356l-5.855,3.703v-1.286L153.011,57.414z M97.164,57.562
		c0.891,2.637,1.777,5.325,2.828,7.899l-1.309-0.031c-0.871-1.856-1.48-3.942-2.16-5.989C96.339,58.59,96.738,57.859,97.164,57.562
		L97.164,57.562z M95.859,59.324l2.18,6.09H96.8c-0.508-1.227-1.082-2.598-1.484-3.855C94.906,60.25,94.945,60.207,95.859,59.324
		L95.859,59.324z M153.011,59.703v1.606l-5.855,3.621v-1.383L153.011,59.703z M94.945,62.059l1.195,3.375l-1.527-0.039
		c-0.449-1.063-0.723-1.993-0.836-3.024c-0.039-0.5-0.133-1,0.219-1.211C94.687,60.77,94.609,61.09,94.945,62.059L94.945,62.059z
		 M93.324,63.441l0.633,1.977l-1.426-0.035c-0.422-0.938-0.582-1.61-0.457-2.586C92.933,61.805,93,62.324,93.324,63.441
		L93.324,63.441z M153.011,62.277v1.68l-5.855,3.52v-1.559L153.011,62.277z M91.296,63.484l0.598,1.95l-1.289-0.032
		c-0.215-0.457-0.078-1.015-0.086-1.531L91.296,63.484z M89.609,64.48c0.02,0.004,0.035,0.008,0.043,0.016
		c0.184,0.863,0.004,0.918,0.016,0.91l-1.801-0.011C87.867,65.395,89.328,64.469,89.609,64.48L89.609,64.48z M153.011,64.984v1.344
		l-5.855,3.649v-1.36L153.011,64.984z M83.41,67.113l35.176,0.098l1.172,1.656c0,0-3.422,0.094-14.633,0.024
		c-9.438,0.125-28.398-0.2-28.398-0.2l1.848-0.871C81.129,67.762,83.445,67.098,83.41,67.113L83.41,67.113z M153.011,67.309v1.48
		l-5.855,3.543v-1.43L153.011,67.309z M54.031,68.727c-2.828,1.253-5.469,1.562-7.441,1.402c-4.247-0.344-10.743,1.433-12.051,5.512
		c-0.41,1.441-0.414,1.48,0.363,2.214c0.387,0.364,0.766,0.641,0.836,0.614c0.684-0.606,1.59-1.731,2.559-2.059
		c1.277-0.387,1.968-0.438,4.062-0.531c4.508-0.199,5.527-0.391,6.648-0.688c2.469-0.652,4.958-3.082,5.106-5.785
		C54.132,69.094,54.031,68.727,54.031,68.727L54.031,68.727z M53.91,69.098c-0.477,5.644-6.59,6.379-9.274,6.218
		c-5.445-0.328-7.589,1.301-8.453,2.309c-0.281,0.27-0.449,0.207-0.402-0.039c0.633-3.125,5.68-3.242,8.223-3.211
		c6.23,0.285,7.808-2.719,7.632-2.746c-0.472,0.211-0.824,0.398-1.304,0.625c-0.207,0.086-0.16-0.039-0.7-0.352
		c-0.007,0.039-0.625,1.438-1.421,0.114c0.023,0.066-0.567,1.175-1.653,0.136c0.008,0.114-0.656,1.067-1.715,0.09
		c-1,0.856-1.476,0.387-1.906-0.215c-0.312,0.188-1.238,1.438-2.012,0.094c-0.82,0.524-1.164,1.09-1.871,0.746
		c-1.652,0.297-3.078,1.992-3.66,3.543c-0.183,0.531-0.551,0.617-0.594,0.031c-0.195-1.621,2.469-4.425,5.141-5.199
		c2.082-0.601,3.5-1.035,8.07-0.863C50.609,70.48,53.91,69.098,53.91,69.098L53.91,69.098z M120.64,69.523l1.648,1.118
		l-28.691,39.563l-2.535-0.066L120.64,69.523z M74.613,69.551h3.262v5.39h-2.813l-1.004-1.492c0.258,0.153,0.563,0.246,0.883,0.246
		c0.965,0,1.75-0.785,1.75-1.75s-0.785-1.746-1.75-1.746s-1.75,0.781-1.75,1.746c0,0.086,0.008,0.168,0.02,0.25l-1.051-1.558
		c0,0,0.449-0.266,1.515-0.739C73.949,69.773,74.613,69.551,74.613,69.551L74.613,69.551z M84.668,69.551h5.527v5.39h-5.527V69.551z
		 M96.777,69.551h5.723v5.426l-5.723-0.036V69.551z M109.132,69.551h5.715v5.39h-5.715V69.551z M152.925,69.68l0.086,1.683
		l-5.855,3.559v-1.664L152.925,69.68z M111.781,70.238c-1.02,0-1.855,0.824-1.855,1.848c0,1.019,0.836,1.848,1.855,1.848
		c1.023,0,1.852-0.829,1.852-1.848C113.632,71.062,112.804,70.238,111.781,70.238L111.781,70.238z M87.445,70.336
		c-1.023,0-1.852,0.824-1.852,1.844c0,1.023,0.829,1.851,1.852,1.851c1.02,0,1.848-0.828,1.848-1.851
		C89.292,71.16,88.465,70.336,87.445,70.336L87.445,70.336z M99.5,70.371c-1.02,0-1.852,0.824-1.852,1.844
		c0,1.023,0.832,1.851,1.852,1.851c1.023,0,1.852-0.828,1.852-1.851C101.351,71.195,100.523,70.371,99.5,70.371L99.5,70.371z
		 M105.73,70.59c0.855,0,1.551,0.695,1.551,1.555c0,0.855-0.695,1.55-1.551,1.55s-1.551-0.695-1.551-1.55
		C104.179,71.285,104.875,70.59,105.73,70.59L105.73,70.59z M81.203,70.613c0.859,0,1.551,0.696,1.551,1.551
		c0,0.859-0.692,1.555-1.551,1.555c-0.856,0-1.551-0.696-1.551-1.555C79.652,71.309,80.347,70.613,81.203,70.613L81.203,70.613z
		 M117.968,70.668c0.367,0,0.703,0.141,0.957,0.371l-1.691,2.293c-0.418-0.25-0.699-0.703-0.699-1.227
		C116.535,71.312,117.175,70.668,117.968,70.668L117.968,70.668z M93.679,70.676c0.855,0,1.551,0.695,1.551,1.551
		c0,0.859-0.695,1.554-1.551,1.554c-0.859,0-1.555-0.695-1.555-1.554C92.125,71.371,92.82,70.676,93.679,70.676L93.679,70.676z
		 M74.941,70.789c0.641,0,1.156,0.516,1.156,1.156c0,0.637-0.515,1.16-1.156,1.16c-0.637,0-1.16-0.523-1.16-1.16
		C73.781,71.305,74.304,70.789,74.941,70.789L74.941,70.789z M71.394,70.852C81.25,83.406,86.488,96.133,88.793,110l-1.653-0.074
		c-2.738-15.086-8.906-28.024-17.269-38.465L71.394,70.852z M111.781,70.863c0.676,0,1.227,0.547,1.227,1.223
		c0,0.676-0.551,1.223-1.227,1.223s-1.227-0.547-1.227-1.223C110.554,71.41,111.105,70.863,111.781,70.863L111.781,70.863z
		 M87.445,70.961c0.676,0,1.227,0.543,1.227,1.219c0,0.679-0.551,1.226-1.227,1.226s-1.227-0.547-1.227-1.226
		C86.218,71.504,86.769,70.961,87.445,70.961L87.445,70.961z M99.5,70.996c0.676,0,1.227,0.543,1.227,1.219
		s-0.551,1.226-1.227,1.226s-1.227-0.55-1.227-1.226S98.824,70.996,99.5,70.996L99.5,70.996z M130.175,71.871
		c0.648,4.969-0.633,8.176-4.422,8.695c-4.832,0.664-5.457,1.028-5.484,5.602c-0.031,5.422-0.836,6.988-4.676,7.418
		c-4.32,0.48-5.324,0.992-4.938,6.363c0.281,3.922-1.262,5.59-4.59,6.317c-2.602,0.57-4.852,1.441-5.816,4.063l-2.379,0.031
		c0.617-4.129,4.77-6.101,7.43-6.238c2.867-0.68,3.465-1.641,3-6.668c-0.348-3.785,1.039-4.933,5.484-5.801
		c3.555-0.699,4.426-1.718,4.234-4.625c-0.414-6.234-0.004-7.172,3.535-7.929c1.805-0.426,4.746-0.618,5.867-1.996
		c1.273-1.571,0.949-2.907,0.832-4.832L130.175,71.871z M153.011,72.039v1.629l-5.855,3.609v-1.586L153.011,72.039z M66.98,73.004
		c-1.254,5.402,3.051,6.578,5.668,7.488c3.047,1.063,3.789,2.602,3.442,7.969c-0.262,4.062,0.187,4.961,2.816,6.355
		c4.023,2.075,5.105,5.024,3.316,9.344c-1.101,2.66-0.523,3.41,0.176,5.735l-1.953-0.02c-0.141,0.043-1.789-2.898-0.383-6.066
		c1.668-3.754,1.617-5.641-2.094-7.329c-2.875-1.308-3.753-2.539-3.933-5.23c-0.074-1.133-0.067-1.695,0.199-4.156
		c0.332-3.106-0.773-4.442-5.363-6.145c-2.043-0.762-3.434-2.531-3.852-5.336c-0.117-0.785-0.012-1.691-0.012-1.691L66.98,73.004z
		 M135.605,73.59l17.453,11.609l-0.121,2.582l-18.516-12.367L135.605,73.59z M124.359,73.844c0.844,0,1.531,0.687,1.531,1.531
		c0,0.844-0.688,1.527-1.531,1.527s-1.527-0.683-1.527-1.527C122.832,74.531,123.515,73.844,124.359,73.844L124.359,73.844z
		 M69.457,74.512c0.765,0,1.386,0.621,1.386,1.386c0,0.766-0.621,1.387-1.386,1.387c-0.766,0-1.387-0.621-1.387-1.387
		C68.07,75.133,68.691,74.512,69.457,74.512L69.457,74.512z M152.96,74.676l-0.059,1.554l-5.746,3.555V78.23L152.96,74.676z
		 M61.89,75.762c5.278,6.879,10.465,13.965,14.465,27.32l-1.707,0.656c-3.305-10.75-8.383-19.679-14.371-27.066L61.89,75.762z
		 M75.672,75.695h39.757l-1.02,1.375l-37.981-0.39L75.672,75.695z M153.011,76.988v1.703l-4.402,2.68l-1.297-0.848L153.011,76.988z
		 M59.554,77.168l0.782,1.027c0,0-0.848,0.66-1.801,1.344c-2.606,1.863-2.942,2.074-3.117,3.285
		c-0.411,2.879,2.55,4.301,5.523,2.637c1.063-0.488,3.399-1.969,3.399-1.969l0.671,0.988c0,0-3.347,2.508-5.312,3.079
		c-4.313,1.25-7.531-4.211-4.344-7.457c0.485-0.497,1.516-1.161,2.332-1.692C58.527,77.867,59.554,77.168,59.554,77.168
		L59.554,77.168z M77.3,77.848l36.633,0.218l-23.395,31.973L89.5,109.98C87.687,98.023,83.187,87.574,77.3,77.848L77.3,77.848z
		 M61.328,79.203l2.14,2.988c0,0-1.394,1.336-3.699,2.598c-1.847,1.008-3.847-0.828-2.687-2.484
		C58.277,80.66,61.328,79.203,61.328,79.203L61.328,79.203z M153.011,79.508v1.558l-2.539,1.559l-1.16-0.742L153.011,79.508z
		 M61.058,80.707c-1.015,0.055-2.699,1.207-3.273,2.199c-0.246,0.43-0.156,0.785,0.07,1.078c0.348,0.446,0.758,0.422,1.977-0.226
		c2.484-1.328,2.953-2.113,1.855-2.891c-0.152-0.109-0.332-0.156-0.535-0.16C61.121,80.707,61.093,80.707,61.058,80.707
		L61.058,80.707z M60.976,81.348c0.164-0.016,0.348,0.031,0.504,0.019c0.43,0.176,0.297,0.711-0.152,0.836
		c-0.098-0.156-0.848-0.176-0.797,0.582c-0.18,0.43-0.172,0.399-0.719,0.461c-0.363-0.09-0.605,0.16-0.676,0.32
		c-0.379,0.204-0.839,0.137-0.929-0.089c-0.082-0.219,0.226-0.86,0.492-0.856c0.125,0.008,0.348-0.18,0.582-0.336
		c-0.012-0.414,0.476-0.473,0.617-0.473c0.141,0.032,0.606,0.036,0.832-0.343C60.793,81.387,60.882,81.355,60.976,81.348
		L60.976,81.348z M153.011,81.719v2.406l-1.84-1.176L153.011,81.719z M51.367,82.023c6.672,7.875,11.476,16.262,14.535,27.868
		l-1.34,0.921c-2.019-8.136-5.133-16.734-14.34-27.91L51.367,82.023z M129.421,82.156c3.02,2.563,15.398,14.215,17.758,34.895
		l-1.656,1.015c-1.328-10.914-5.621-23.429-17.172-34.519L129.421,82.156z M123.453,82.871c0.844,0,1.527,0.684,1.527,1.527
		c0,0.848-0.684,1.532-1.527,1.532s-1.527-0.684-1.527-1.532C121.925,83.555,122.609,82.871,123.453,82.871L123.453,82.871z
		 M49.507,83.469c0,0,1.403,1.441,1.403,1.785c-0.008,0.68-0.547,1.062-3.77,2.238c-0.543,0.199-2.922,0.746-2.922,0.746
		l-0.086-1.156c1.211-0.437,4.473-1.219,4.711-1.91c0.118-0.274-0.464-0.961-0.339-0.961L49.507,83.469z M71.734,83.762
		c0.77,0,1.387,0.625,1.387,1.39c0,0.766-0.617,1.387-1.387,1.387c-0.766,0-1.387-0.621-1.387-1.387
		C70.347,84.387,70.968,83.762,71.734,83.762L71.734,83.762z M127.89,84.16c10.086,9.852,15.637,22.024,16.934,34.594
		c-11.746,9.551-19.727,21.558-22.895,36.582c-1.566-2.613-2.898-5.613-4.348-8.551c15.668-13.77,18.969-38.574,5.414-55.957
		L127.89,84.16z M66.215,86.039l0.707,1.094c0,0-0.149,0.133-2.344,1.496c-3.211,1.992-3.742,3.293-2.668,5.332
		c1.094,2.086,2.316,2.199,5.765,0.527c1.219-0.59,2.254-1.211,2.254-1.211l0.551,1.145c0,0-1.543,1.258-4.519,2.348
		c-2.797,1.027-5.442-0.723-5.938-3.954c-0.359-2.347,0.664-3.605,4.746-5.921C65.226,86.652,66.215,86.039,66.215,86.039
		L66.215,86.039z M114.269,86.559c0.844,0,1.527,0.683,1.527,1.527c0,0.844-0.684,1.527-1.527,1.527
		c-0.848,0-1.531-0.683-1.531-1.527C112.738,87.242,113.421,86.559,114.269,86.559L114.269,86.559z M51.949,86.613l0.922,0.871
		c0,0-0.399,0.586-2.672,1.953c-2.043,1.231-2.254,1.032-1.238,1.891c1.898,1.606,4.531,5.156,4.515,6.07
		c-0.011,0.887-0.804,1.7-2.32,2.383c-0.832,0.375-4.121,1.547-4.602,1.629c-0.961,0.106-1.23,0.492-0.269,1.363
		c1.629,1.872,3.023,5.875,2.461,7.098c-0.629,1.375-1.387,1.606-7.426,1.883c-0.688,0.031-1.016-0.164-0.645,0.719
		c0.27,0.64,0.555,1.519,1.094,4.234c0.481,2.422,0.399,3.512-0.543,4.012c-0.539,0.289-4.742,0.187-6.476-0.157
		c-1.989-0.39-2.203-0.414-1.883,0.879c0.418,1.786,0.676,6.575-0.676,7.496c-0.562,0.368-1.168,0.278-3.633-0.554
		c-1.574-0.528-2.938-1.137-2.938-1.137l0.027-1.484c1.281,0.527,4.801,2.047,5.801,1.566c1.183-1.699-0.461-7.656-1.09-8.933
		c-0.762-1.524,0.031-1.856,1.781-0.911c0.918,0.649,8.832,3.766,8.383,0.977c-0.484-2.649-1.344-5.664-3.012-7.555
		c-1.543-1.75-0.777-2.469,0.942-1.699c3.039,1.355,9.32,1.023,9.008-0.383c-0.414-2.289-2.493-5.394-5.34-7.801
		c-0.793-0.668-0.821-0.953,0.113-1.121c2.656-0.211,10.266-0.992,9.203-2.777c-0.914-1.461-2.133-3.078-3.172-3.949
		c-1.703-1.43-3.422-2.051-4.183-2.348l0.047-1.094C47.593,89.445,49.394,88.402,51.949,86.613L51.949,86.613z M43.558,87.695
		c-1.242,13.024-6.691,23.758-17.941,31.242l-0.063-1.457c9.891-7.429,14.637-17.984,15.926-28.199L43.558,87.695z M67.523,88.512
		c0.004,0,0.004,0.004,0.008,0.004c0,0,1.809,3.254,1.805,3.55c-1.075,0.993-3.891,2.45-5.047,2.11
		c-1.778-0.567-2.055-2.465-0.348-3.586c1.477-1.074,3.313-2.008,3.563-2.074C67.511,88.512,67.519,88.512,67.523,88.512
		L67.523,88.512z M53.109,88.309l0.922,0.828c0,0-0.234,0.363-1.566,1.425c-1.036,0.797-0.676,0.485,0.031,1.434
		c0.625,0.75,1.746,2.266,1.746,2.266l-0.336,2.011c-1.168-1.668-2.141-2.878-3.879-4.664c-0.883-0.906-0.832-0.933,0.426-1.589
		C51.398,89.5,52.168,88.863,53.109,88.309L53.109,88.309z M78.359,89.605c0.766,0,1.387,0.622,1.387,1.387
		c0,0.766-0.621,1.387-1.387,1.387s-1.387-0.621-1.387-1.387C76.972,90.227,77.593,89.605,78.359,89.605L78.359,89.605z
		 M67.14,89.723c-1.32,0.347-2.613,1.527-3.343,2.047c-0.262,0.191-0.055,1.14,0.199,1.468c0.328,0.418,0.929,0.348,1.648-0.051
		c0.301-0.167,0.848-0.441,1.211-0.609c1.016-0.469,1.442-0.82,1.402-1.211C68.097,90.84,67.679,89.684,67.14,89.723L67.14,89.723z
		 M67.215,90.324c0.371,0.016,0.64,0.492,0.519,0.774c-0.637,0.347-0.988,0.054-0.906,0.535c0,0,0.062,0.754-0.871,0.769
		c-0.227-0.097-0.621-0.082-0.813,0.114c-0.652,0.269-1.219-0.301-0.512-0.625c0.192-0.086,0.665-0.235,0.793-0.528
		c0.071-0.363,0.368-0.652,0.696-0.449c0.176,0.012,0.566,0.039,0.691-0.238c-0.047-0.309,0.172-0.336,0.328-0.348
		C67.168,90.324,67.191,90.324,67.215,90.324L67.215,90.324z M40.554,90.227c0.286,1.46-0.597,4.031-1.097,5.476
		c-2.957,3.871-7.246,5.848-11.325,7.199c-0.906,0.301-2.125,0.149-2.125,0.149C31.652,97.246,36.492,92.988,40.554,90.227
		L40.554,90.227z M30.246,91.543c0.039-0.328-1.449-0.723-1.59-0.516c-0.277,0.254-0.715,4.289-0.43,4.578
		c0.399,0.407,1.492,0.516,1.598,0.036C30.164,94.059,30.082,92.875,30.246,91.543L30.246,91.543z M55.539,91.422l0.968,1.199
		c-2.046,19.434-15.929,36.25-30.753,42.914l-0.043-1.285C42.668,125.344,52.871,110.516,55.539,91.422L55.539,91.422z
		 M122.628,91.504l1.836,2.527l-2.633,0.082L122.628,91.504z M29.754,91.973c-0.016,0.664-0.09,2.043-0.348,2.816
		c-0.16,0.598-0.621,0.461-0.797-0.09c-0.184-0.574-0.031-2.207,0.313-2.875C29.289,91.195,29.578,91.301,29.754,91.973
		L29.754,91.973z M43.785,92.324c0.91,0,5.738,2.973,5.094,4.453c-0.516,1.18-4.559,1.274-6.411,1.11l0.282-1.137
		c0,0,0.562,0.199,2.715-0.031c2.261-0.149,2.097-0.926-0.497-2.567c-1.113-0.699-1.371-0.871-1.371-0.871L43.785,92.324z
		 M57.168,93.918c1.496,2.523,2.914,5.367,4.246,8.551c-18.262,17.23-16.844,40.695-5.332,56.097l-4.961,6.696
		c-9.918-9.465-15.321-21.11-17.145-33.477C48.457,121.367,55.261,105.824,57.168,93.918L57.168,93.918z M124.976,94.684l1.09,2.082
		l-2.617-0.043L124.976,94.684z M113.671,95.727c0.844,0,1.527,0.683,1.527,1.527s-0.684,1.527-1.527,1.527
		c-0.848,0-1.531-0.683-1.531-1.527S112.824,95.727,113.671,95.727L113.671,95.727z M71.183,96.137l0.52,1.183
		c0.023,0.149-3.696,1.325-4.891,2.832c-1.105,1.395-1.004,2.848-0.379,3.852c1.059,1.43,1.809,1.633,3.598,1.082
		c1.457-0.445,2.531-1.051,3.976-1.789l0.231,0.598c0-0.032-2.078,1.222-3.664,2.117c-0.594,0.332-1.309,0.476-1.93,0.461
		c-3.609-0.09-5.519-4.743-2.547-7.493c0.438-0.402,1.91-1.21,3.153-1.847C70.074,96.703,71.183,96.137,71.183,96.137L71.183,96.137
		z M118.937,96.871c11.91,17.18,3.758,36-3.934,42.66l-0.203-2.02c12.945-14.75,8.441-31.973,3.047-39.629L118.937,96.871z
		 M126.601,97.645l0.938,2.121l-2.766-0.293L126.601,97.645z M78.597,98.34c0.766,0,1.391,0.621,1.391,1.387
		c0,0.765-0.625,1.386-1.391,1.386c-0.765,0-1.382-0.621-1.382-1.386C77.215,98.961,77.832,98.34,78.597,98.34L78.597,98.34z
		 M117.519,98.609c10.438,15.164,4.617,39.344-15.297,46.711l-0.102-1.695c20.305-8.488,22.297-31.082,14.141-43.832L117.519,98.609
		z M72.269,98.703l1.321,3.559c-1.661,1.113-2.313,1.3-4.172,1.754c-1.465,0.336-2.606-2.2-1.481-3.168
		C69.222,99.738,70.605,99.262,72.269,98.703L72.269,98.703z M38.414,98.715c0.246-0.012-0.012,0.594-0.645,2.121
		c-1.387,3.359-1.48,3.434-4.976,3.988c-1.821,0.289-3.176,0.36-4.469,0.235c-1.949-0.188-2.785-0.739-1.52-1.004
		c3.664-0.805,7.719-2.703,10.352-4.543C37.843,99.02,38.246,98.723,38.414,98.715L38.414,98.715z M104.761,99.129
		c0.949,0,1.719,0.769,1.719,1.719c0,0.945-0.77,1.711-1.719,1.711c-0.945,0-1.715-0.766-1.715-1.711
		C103.046,99.898,103.816,99.129,104.761,99.129L104.761,99.129z M52.871,99.602l-0.145,1.324c0,0-2.121,1.117-3.121,1.539
		c-0.765,0.312-0.82,0.379-0.574,1.09c0.496,1.418,1.449,3.175,1.449,3.175l-0.883,2.004c-0.539-1.8-1.109-3.707-2.101-5.386
		c-0.942-1.313-1.117-1.477,0.347-1.75C49.734,100.961,51.211,100.5,52.871,99.602L52.871,99.602z M71.781,100.031
		c-1.035,0.047-3.199,0.918-3.414,1.75c-0.121,0.473,0.015,1.129,0.41,1.278c1.078,0.398,3.242-0.489,3.813-1.297
		c0.175-0.25-0.094-0.766-0.286-1.09C72.16,100.426,72.187,100.016,71.781,100.031L71.781,100.031z M71.836,100.742
		c0.019,0,0.035,0,0.054,0c0.176-0.015,0.813,0.793,0.098,0.727c-0.25-0.024-0.473,0.066-0.676,0.277
		c-0.027,0.391-0.582,0.535-0.851,0.406c-0.2-0.101-0.477,0.102-0.508,0.223c-0.403,0.289-0.91,0.277-0.977,0.07
		c-0.136-0.144,0.27-0.738,0.625-0.718c0.074,0.003,0.328-0.165,0.563-0.368c0.113-0.406,0.539-0.336,0.808-0.312
		C71.281,101.168,71.558,100.77,71.836,100.742L71.836,100.742z M127.914,100.805l0.766,2.125l-2.734-0.243L127.914,100.805z
		 M116.16,103.254c-0.566,0.723-1.086,0.73-1.914,0.691c0.676,0.801,0.977,1.907,0.316,2.633c-1,1.02-2.934-0.547-2.789-0.688
		l3.465-4.618C116.156,101.535,116.667,102.395,116.16,103.254L116.16,103.254z M40.914,102.051c0,0,4.215,3.625,4.242,5.254
		c0.012,0.617-0.188,0.82-0.68,0.984c-1.656,0.547-6.261-0.863-6.261-0.863l0.593-1.121c0.723,0.199,4.293,1.121,4.598,0.668
		c0.32-0.473-2.981-3.692-2.988-3.696L40.914,102.051z M61.82,103.566l0.504,1.754l-1.723-0.425L61.82,103.566z M129.078,103.879
		l0.449,2.426l-2.758-0.645L129.078,103.879z M76.504,103.918l0.41,1.426c-18.297,8.48-23.637,27.965-14.098,44.039l-1.078,1.484
		C48.968,130.172,61.902,109.172,76.504,103.918L76.504,103.918z M60.019,105.41l0.25,2.16l-2.125-0.125L60.019,105.41z
		 M34.843,105.352c0.36,0.003,0.43,0.199,0.43,0.414c-0.004,0.293-1.848,2.648-2.445,3.179c-1.301,0.524-6.305-1.566-7.051-3.187
		c-0.148-0.473,0.344-0.266,1.453-0.039C30.039,106.52,32.886,105.422,34.843,105.352L34.843,105.352z M83.582,105.379
		c0.765,0,1.39,0.621,1.39,1.387c0,0.765-0.625,1.386-1.39,1.386c-0.766,0-1.383-0.621-1.383-1.386
		C82.199,106,82.816,105.379,83.582,105.379L83.582,105.379z M25.957,107.086c1.39,1.254,3.437,2.289,5.25,2.648
		c1.133,0.25,0.804,0.368-0.242,1.446c-0.981,1.027-0.903,1.156-1.899,0.648c-1.664-0.844-3.476-2.762-3.402-3.805
		C25.695,107.59,25.769,107.086,25.957,107.086L25.957,107.086z M129.867,107.32l0.348,2.305l-2.605-0.902L129.867,107.32z
		 M57.429,108.152l0.848,2.063l-2.312-0.067L57.429,108.152z M116.179,110.121c0,0.289-0.07,0.777-0.07,0.777
		c1.359-0.867,3.164-0.156,3.113,1.243c-0.078,1.972-1.039,1.988-2.617,1.726c0.863,1.43-0.16,2.809-1.781,2.281
		c-1.477-0.48-1.191-2.039-0.504-2.961c-3.484,0.567-4.418,5.528-0.391,7c-0.809-1.253-1.012-2.75,0.746-3
		c1.633-0.234,2.32,1.004,1.617,2.493c1.531-0.535,2.977,0.343,2.516,1.836c-0.559,1.804-2.16,1.679-3.105,0.582
		c0.68,1.632-0.891,2.808-2.078,2.175c-1.867-0.996-0.945-2.777,0.309-3.25c-4.813-0.496-5.926,6.157-2.383,7.106
		c-0.91-0.57-1.012-3.192,1.066-2.832c2.043,0.41,1.555,2.305,0.246,3.168c1.582-0.336,3.063,1.043,2.098,2.441
		c-1.133,1.645-2.695,0.473-3.277-0.648c0.184,1.5-0.773,2.457-2.004,1.894c-2.109-0.968-0.551-3.386,1.102-3.233
		c-3.348-1.978-7.898,2.172-5.219,5.604c-0.102-1.558,0.672-2.839,1.746-2.664c0.941,0.106,1.77,1.185,1.504,2.028
		c-0.246,0.722-1.07,1.273-1.93,1.449c2.559,0.281,2.777,2.094,1.715,2.984c-1.801,1.516-2.637-0.234-3.055-1.255
		c-0.363,2.539-3.363,1.677-3.469-0.159c-0.102-2.012,2.223-1.973,2.652-1.859c0.055-0.07-1.797-1.902-3.773-2.16l0.012-1.168
		c7.789-4.887,10.469-13.414,7.996-21.5l0.469-0.539c1.27,0.968,2.547,3.05,4.895,2.289c0,0-0.547-0.387-0.816-0.653
		c-1.211-1.191-0.531-2.593,1.152-2.671C115.75,108.594,116.171,109.434,116.179,110.121L116.179,110.121z M63.336,110.117
		l0.808,1.184c-11.812,13.836-9.66,29.672-2.867,40.152l-0.988,1.194C54.277,144.94,49.367,126.254,63.336,110.117L63.336,110.117z
		 M73.402,112.031c-0.016,0.309,0.008,0.555,0.008,0.555s0.254-0.316,0.457-0.695c1.012-1.684,3.18-0.715,2.824,1.222
		c-0.168,0.907-1.695,1.262-2.113,1.004c0.394,1.082,1.469,1.336,2.777,1.805c0.457,0.086,1.242,0.308,1.242,0.308l0.032,0.735
		c-7.086,4.461-11.098,12.031-8.5,22.383l-0.786,1.059c-1.429-3.438-2.73-3.363-5.082-3.5c0,0,0.586,0.414,0.922,0.809
		c0.711,0.844,0.395,2.312-0.59,2.465c-2.285,0.355-2.308-1.266-2.003-2.364c0,0-0.411,0.345-0.61,0.474
		c-0.906,0.59-2.035-0.02-2.14-1.188c-0.102-1.102,0.273-1.813,1.406-1.95c0.379-0.047,0.965,0.052,0.965,0.052
		s-0.223-0.434-0.348-0.676c-0.543-1.063,0.644-1.973,1.738-1.742c1.723,0.414,1.586,1.901,0.59,3.069
		c2.668,0.2,4.07-1.546,3.871-3.28c-0.238-2.113-1.211-3.259-3.312-3.625c0,0,0.34,0.53,0.484,0.789
		c0.535,0.952-0.234,2.125-1.367,2.116c-1.156-0.007-1.899-1.069-1.453-2.116c0.109-0.259,0.543-0.578,0.476-0.605
		c-0.047-0.02-0.64,0.164-0.808,0.191c-1.391,0.215-2.285-1.009-1.7-2.23c0.411-0.867,1.657-1.102,2.559-0.676
		c0.145,0.051,0.316,0.254,0.344,0.207c0.027-0.043-0.09-0.324-0.125-0.527c-0.289-1.118,0.25-1.719,1.465-1.641
		c1.699,0.109,2.332,1.496,1.191,2.742c-0.297,0.323-0.75,0.801-0.75,0.801c0.059,0.246,2.426,0.426,3.637-0.84
		c1.398-1.47,1.617-4.523,0.211-5.523c-0.231-0.164-0.699-0.492-0.699-0.492c0.671,1.343-0.563,2.89-1.649,2.601
		c-2.176-0.523-1.988-2.305-0.559-2.867c0,0-1.449-0.543-1.867-1.125c-0.593-0.828-0.394-1.586,0.317-2.168
		c0.89-0.719,2.16-0.246,2.773,0.641c0.371-1.129,0.891-1.891,2.434-1.278c1.078,0.516,1.066,1.953-0.117,2.738
		c-0.383,0.25-1.059,0.485-1.059,0.485s1.019,0.578,2.262,0.594c2.394,0.027,4.289-2.797,3.324-4.954
		c-0.195-0.437-0.688-1.003-0.688-1.003s-0.05,0.753-0.199,1.043c-0.555,1.078-1.828,1.097-2.578,0.418
		c-0.684-0.618-0.484-1.442,0.047-2.004c0.402-0.426,0.766-0.512,1.324-0.774c-0.637-0.215-1.348-0.371-1.656-1.027
		c-0.289-0.633-0.086-1.406,0.68-1.883C72.382,109.859,73.465,111.082,73.402,112.031L73.402,112.031z M25.902,110.289
		c0.973,0.563,1.625,1.414,2.535,2.156c0.703,0.571,0.695,0.672,0.113,1.215c-1.308,1.262-2.043-0.566-2.464-1.313
		C25.566,111.348,25.515,110.328,25.902,110.289L25.902,110.289z M130.48,110.637l0.164,2.441l-2.719-1.043L130.48,110.637z
		 M55.547,110.781L56.523,113L54,112.988L55.547,110.781z M108.312,110.785c2.375,8.77-0.965,15.067-7.297,20l-0.699-0.918
		c4.949-4.207,8.652-9.164,7.016-17.992L108.312,110.785z M79.222,110.824l27.84,0.512l-0.836,1.465l-2.168,0.011l-4.301,7.606
		l-20.007-0.004L79.222,110.824z M38.488,117.168c-0.973,1.535-6.754-1.766-6.68-1.941l0.727-0.696
		c0.918,0.371,3.777,1.949,4.41,1.699c0.219-1.433-1.465-3.293-2.102-4.527l0.707-0.891
		C35.55,110.812,39.218,115.562,38.488,117.168L38.488,117.168z M47.976,111.59l-0.965,1.738c-0.898,0.277-3.617,0.324-3.836,0.504
		c0.329,0.895,0.688,3.516,0.688,3.516l-1.07,1.371c-0.289-1.688-0.766-3.821-1.188-5.383c-0.359-1.324-0.258-1.031,2.567-1.25
		C45.437,112.012,46.742,111.852,47.976,111.59L47.976,111.59z M53.687,113.687l1.145,2.032l-2.321,0.023L53.687,113.687z
		 M25.808,113.824c0.125-0.054,0.844,0.75,0.969,0.985c-0.055,0.527-0.875,0.816-1,0.628c-0.051-0.078-0.066-1.261,0.016-1.593
		C25.797,113.832,25.8,113.824,25.808,113.824L25.808,113.824z M130.824,113.848l-0.023,2.547l-2.758-1.223L130.824,113.848z
		 M152.718,114.422l-0.039,1.648c-10,4.887-24.918,18-29.172,41.524l-0.875-0.965C126.886,134.172,141.566,120.895,152.718,114.422
		L152.718,114.422z M52.117,116.691l1.246,1.875l-2.246,0.246L52.117,116.691z M130.878,117.41l-0.223,2.254l-2.715-1.504
		L130.878,117.41z M78.632,117.879c0.008,0.535,0.055,0.922,0.09,1.457c-6.164,3.988-8.246,10.266-7.218,18.168l-0.856,1.262
		C68.644,131.602,70.668,122.773,78.632,117.879L78.632,117.879z M150.082,118.344c0.629,0.371,2.664,0.968,2.664,0.968l-0.023,1.5
		l-4.191-1.503L150.082,118.344z M29.605,124.719c-0.902,0.738-2.984-0.489-3.93-0.985l-0.027-1.265c0,0,0.723,0.371,1.445,0.66
		c1.493,0.66,1.497-0.129,0.68-2.336c-0.285-0.777-0.57-1.676-0.57-1.676l0.98-0.93C28.183,118.187,30.531,123.477,29.605,124.719
		L29.605,124.719z M50.656,119.977l1.605,1.679l-2.238,0.512L50.656,119.977z M148.542,120.18c1.422,0.004,4.16,1.156,4.16,1.156
		l-0.016,1.66c-1.395-0.402-3.008-1.176-4.48-1.391c-1.16-0.16-1.094,0.489-1.102,2.133c-0.008,2.223,0.551,4.235,1.617,6.458
		c0.879,1.844,0.422,2.336-1.02,1.512c-2.586-1.777-8.105-3.117-8.953-2.082c-0.875,1.062,0.844,6.358,2.832,8.883
		c0.809,1.027,0.859,1.191,0.484,1.59c-0.309,0.324-0.801,0.343-1.672,0.066c-2.871-0.914-7.023-1.117-8.219-0.344
		c-1.188,0.766,1.902,6.07,4.496,7.781c1.684,1.199,1.359,1.796-1.359,1.855c-4.441,0.022-7.855,1.012-7.668,2.223
		c0.324,2.063,3.199,4.886,6.5,6.386c2.02,0.825,1.176,1.153-0.168,1.63c-2.246,0.758-4.402,1.973-6.516,3.105l-1.016-1.297
		c0,0,2.125-1.352,4.438-2.652c0.539-0.301,0.512-0.415-0.246-1.051c-2.461-2.063-4.27-4.367-4.648-5.918
		c-0.367-1.508,0.387-2.457,2.625-3.309c1.383-0.527,1.891-0.68,3.109-0.953c1.758-0.395,1.789-0.449,1.035-1.801
		c-0.336-0.605-0.887-1.605-1.227-2.223c-2.617-4.48-1.234-6.094,4.844-6.188c1.492-0.078,1.777-0.082,1.695-0.599
		c-0.324-2.108-1.258-4.53-1.125-6.319c0.277-2.695,3.051-3.348,7.922-2.134c1.129,0.282,1.207,0.228,1.012-0.683
		C144.933,123.57,145.917,119.867,148.542,120.18L148.542,120.18z M130.66,120.469l-0.426,2.613l-2.598-1.727L130.66,120.469z
		 M33.613,121.082l7.156,0.473l-1.137,1.332l-4.324-0.082l-0.164,3.695l-1.387,1.187L33.613,121.082z M79.996,121.367h5.894
		l-0.047,6.231h-5.875L79.996,121.367z M87.019,121.367h5.484v6.231l-5.438,0.059L87.019,121.367z M93.585,121.367h5.879
		l-0.055,6.231h-5.82L93.585,121.367z M144.941,121.863c-0.137,1.602,0.199,4.5,0.332,5.742c-0.094,0.372-0.352,0.317-1.891-0.03
		c-1.066-0.359-4.027-0.466-4.027-0.466l1.242-1.312c1.012,0.121,1.813,0.109,2.863,0.242c-0.016-1.048,0.027-3.051,0.027-3.051
		L144.941,121.863z M49.722,123.098l1.645,1.656l-2.106,0.539L49.722,123.098z M130.089,123.637l-0.656,2.664l-2.379-2.141
		L130.089,123.637z M152.648,125.051l0.008,1.359l-2.34-1.052c-0.027,1.552,1.344,4.353,1.344,4.353l-1.113,0.522
		c-0.965-1.573-1.633-2.991-1.688-4.765c0.012-0.641-0.078-1.731,0.5-1.758C150.55,123.684,151.546,124.086,152.648,125.051
		L152.648,125.051z M48.918,126.397l1.957,1.164l-2.168,0.875L48.918,126.397z M129.339,126.996l-0.957,2.742l-2.09-2.375
		L129.339,126.996z M25.664,127.867l5.277,1.789L30,130.651l-4.383-1.382L25.664,127.867z M99.679,128.594l0.434,9.715
		l-27.875-0.227l0.969-1.375l1.812-0.017l4.774-8.043L99.679,128.594z M48.547,129.352l2.07,1.46l-2.152,0.95L48.547,129.352z
		 M152.773,130.207l0.004,1.59c-6.73,4.973-14.004,13.543-15.242,28.695l-1.816,1.551
		C136.605,147.246,142.765,137.047,152.773,130.207L152.773,130.207z M128.218,130.266l-0.977,2.464l-1.934-2.293L128.218,130.266z
		 M147.183,133.621l-0.648,0.727c-0.18,0.059-2.746-1.316-4.766-1.637c0.66,1.305,0.973,2.281,2.438,4.351l-0.945,0.931
		c-0.281-0.063-3.941-5.466-2.973-6.684C141.859,130.25,145.667,132.469,147.183,133.621L147.183,133.621z M136.238,130.719
		c-0.039,1.468,1.148,6.02,1.148,6.02c-1.836,0.09-3.613-0.121-5.594,0.438l0.93-1.664c0,0,0.863-0.09,1.617-0.242
		c1.563-0.309,1.398-0.122,1.039-1.477c-0.344-1.277-0.363-1.543-0.363-1.543S136.128,130.711,136.238,130.719L136.238,130.719z
		 M33.367,132.293c2.41,14.59,8.164,24.604,17.242,33.621l-0.922,1.207c-10.672-9.77-16.5-22.199-18.023-33.888L33.367,132.293z
		 M48.386,132.906l1.965,1.07l-2.019,1.175L48.386,132.906z M152.746,132.949l-0.012,2.141l-1.227-1.242
		C151.835,133.551,152.242,133.25,152.746,132.949L152.746,132.949z M126.875,133.387l-1.34,2.457l-1.746-2.328L126.875,133.387z
		 M152.605,138.94c-0.277-0.429-2.727-1.957-3.84-2.593c-0.07-0.188,1.723-1.789,2.078-1.902
		C152.625,134.695,153.195,138.25,152.605,138.94L152.605,138.94z M48.414,136.272l2.218,1.082l-2.011,1.423L48.414,136.272z
		 M122.23,136.272l2.848,0.271l-1.512,2.348L122.23,136.272z M148.589,137.315c0.367,0.005,0.785,0.157,1.301,0.446
		c2.008,1.117,3.063,2.343,2.949,3.429c-0.051,0.5-0.332,0.603-0.656,0.239c-0.582-0.657-2.559-1.508-4.258-1.84
		c-1.289-0.25-1.406-0.363-1.02-0.957C147.492,137.727,147.972,137.312,148.589,137.315L148.589,137.315z M114.281,138.348
		c3.082,11.68,8.504,20.668,15.313,28.066l-1.41,1.203c-5.172-5.931-10.855-12.871-15.5-27.875L114.281,138.348z M120.437,138.973
		l2.848,0.43l-1.668,2.129L120.437,138.973z M80.25,139.098c0.328,0.011-0.981,4.984-5.508,5.324
		c-2.867,0.476-3.188,0.961-3.231,5.422c-0.062,6.047-1.035,7.461-5.98,7.836c-3.274,0.246-3.703,0.91-3.149,5.609
		c0.528,4.477-1.164,6.754-5.332,6.75c-3.613,0.301-5.105,1.983-5.101,5.332c0,1.355,0.023,1.684,0.023,1.684l-2.336,0.179
		c0,0,0.004-2.202,0.184-3.272c0.711-4.328,2.566-6.063,6.473-6.043c3.019-0.231,3.492-0.719,3.386-5.297
		c-0.117-4.66-0.179-4.629,1.036-5.849c0.781-0.784,1.675-1.136,3.261-1.284c4.942-0.469,5.332-0.798,5.317-5.863
		c-0.457-4.207,0.707-6.785,3.379-6.996c5.41-0.43,5.281-3.367,5.043-3.488l2.519-0.039
		C80.238,139.098,80.242,139.098,80.25,139.098L80.25,139.098z M91.312,139.098c3.172,17.109,13.211,33.136,18.719,39.05
		l-1.074,0.571c-8.031-9.973-15.328-21.426-18.938-39.594L91.312,139.098z M85.582,139.104l2.511,0.028l-28.91,40.688l-1.527-1.148
		L85.582,139.104z M89.09,139.133c2.714,9.863,4.851,19.508,13.394,32.41l-36.23-0.238L89.09,139.133z M99.093,139.172
		c0.211-0.098,1.063,4.988-0.207,7.34c-1.141,3.179-0.582,4.968,1.898,6.129c4.258,1.988,5.336,3.973,4.793,8.859
		c-0.379,3.418,0.656,5.07,3.867,6.172c3.832,1.308,5.508,3.367,5.484,6.742c0,0.52-0.195,1.108-0.195,1.108l-2.137,1.259
		c0,0,0.023-0.457,0.105-1.009c0.559-3.741-0.152-4.757-4.566-6.519c-4.172-1.668-5.207-3.594-4.496-8.399
		c0.23-1.565-0.09-3.151-0.738-4.343c-1.094-1.946-3.504-1.926-5.242-3.703c-1.434-1.52-1.59-3.645-0.371-7.277
		c0.758-2.254,0.871-3.109,0.285-4.988c-0.391-1.234-0.539-1.344-0.539-1.344L99.093,139.172z M48.773,139.715l2.461,0.68
		l-1.852,1.917L48.773,139.715z M146.382,140.223c0.844-0.023,2.477,0.273,3.813,0.938c3.063,1.526,3.621,2.776,0.934,2.105
		c-1.512-0.383-3.691-0.297-5.789,0.223c-2.223,0.551-2.176,0.573-1.41-0.77C144.898,141.022,145.152,140.258,146.382,140.223
		L146.382,140.223z M140.82,142.027l-0.555,0.956c-1.219-0.202-2.5-0.8-4.355-0.651c0.762,1.457,1.664,2.207,2.871,3.492
		l-0.449,0.961c-0.109,0.129-3.531-2.727-4.219-4.645c-0.313-0.868-0.031-1.246,1.219-1.277
		C137.187,140.836,139.062,141.367,140.82,142.027L140.82,142.027z M95.058,141.086c0.918,0,1.66,0.742,1.66,1.66
		s-0.742,1.664-1.66,1.664s-1.66-0.746-1.66-1.664S94.14,141.086,95.058,141.086L95.058,141.086z M118.457,141.535l2.805,0.504
		l-1.871,2.094L118.457,141.535z M66.004,141.555c0.66-0.051,1.687,1.234,1.683,1.234l-3.398,4.699
		c-1.617-0.328-1.274-2.777,0.207-2.852c0.344,0,0.969,0.059,0.969,0.059s-0.458-0.246-0.719-0.598
		C63.754,142.897,64.691,141.66,66.004,141.555L66.004,141.555z M129.453,141.137c0,0,2.707,5.352,2.535,5.554
		c-1.68,0.743-3.512,1.121-5.355,1.793l0.355-1.554c0,0,0.613-0.043,2.676-0.828c0.984-0.375-1.078-3.122-1.078-3.122
		L129.453,141.137z M110.73,142.715c3.949,0.035,4,4.883,3.242,6.484c-0.551,1.098-1.387,1.707-3.914,2.852
		c-2.191,0.988-2.434,0.922-2.434,0.922l-0.527-1.168c0,0,1.277-0.563,2.652-1.118c2.84-1.144,3.531-2.022,3.219-4.078
		c-0.441-2.905-2.688-3.358-7.031-1.409c-0.508,0.227-1.141,0.452-1.141,0.452l-0.301-0.586c0.07-0.058,3.48-1.843,5.391-2.288
		C110.187,142.733,110.468,142.715,110.73,142.715L110.73,142.715z M49.652,143.246l2.234,0.733l-1.629,1.603L49.652,143.246z
		 M149.183,143.867c1.973-0.004,3.598,0.328,3.594,1.034c0,0.332-0.078,0.364-1.852,0.606c-2.695,0.375-7.195,2.676-9.73,4.808
		c-1.5,1.267-1.113,0.974-0.48-0.862c0.629-1.82,1.566-3.996,2.074-4.328C144.058,144.293,146.945,143.875,149.183,143.867
		L149.183,143.867z M116.898,144.121l1.898,0.414l-1.234,1.198L116.898,144.121z M110.527,145.152
		c0.684-0.008,1.016,0.313,1.285,0.961c0.578,1.409,0.008,2.234-2.195,3.18c-1,0.445-1.891,1.074-2.984,1.272l-1.383-3.714
		c0,0,0.438-0.161,1.875-0.758C108.769,145.418,109.847,145.164,110.527,145.152L110.527,145.152z M104.105,145.602
		c4.395,12.438,9.777,20.516,15.469,27.207l-1.379,0.863c-6.043-7.152-11.609-15.535-15.617-27.875L104.105,145.602z
		 M110.203,146.047c-0.531,0.012-1.332,0.336-2.398,0.746c-1.551,0.598-1.684,1.32-0.988,2.215c0.305,0.39,0.617,0.304,2.105-0.285
		c1.523-0.605,2.18-0.871,2.27-1.414C111.324,146.52,110.886,146.026,110.203,146.047L110.203,146.047z M152.941,146.215
		c-0.004,0.519-7.91,8.015-12.43,11.832c-2.059,1.738-1.988,1.723-2.164,1.508c-0.113-1.289,0.762-5.902,1.297-6.707
		c3.02-3.195,7.676-5.797,12.211-6.777C152.566,145.93,153.007,145.945,152.941,146.215L152.941,146.215z M110.343,146.465
		c0.281,0.008,0.527,0.254,0.527,0.57c-0.004,0.242-0.352,0.473-0.715,0.473c-0.129,0-0.441,0.07-0.641,0.273
		c-0.195,0.284-0.32,0.559-0.676,0.488c-0.203-0.036-0.582-0.051-0.73,0.078c-0.695,0.605-1.387,0.105-1.063-0.504
		c0.078-0.153,0.359-0.23,0.586-0.227c0.199,0,0.648-0.047,0.715-0.289c0.078-0.289,0.523-0.371,0.832-0.359
		c0.336,0.043,0.605-0.125,0.691-0.266c0.125-0.109,0.273-0.224,0.414-0.234C110.304,146.465,110.324,146.465,110.343,146.465
		L110.343,146.465z M50.554,146.598l2.52,0.339l-1.586,2.032L50.554,146.598z M74.586,146.562c0.918,0,1.664,0.743,1.664,1.661
		s-0.746,1.664-1.664,1.664s-1.661-0.746-1.661-1.664S73.668,146.562,74.586,146.562L74.586,146.562z M100.808,147.879
		c0.914,0,1.66,0.742,1.66,1.66c0,0.914-0.746,1.66-1.66,1.66c-0.918,0-1.66-0.746-1.66-1.66
		C99.148,148.621,99.89,147.879,100.808,147.879L100.808,147.879z M51.679,149.754l2.731,0.176l-1.563,2.09L51.679,149.754z
		 M66.097,150.151c0.918,0,1.66,0.743,1.66,1.66c0,0.918-0.742,1.661-1.66,1.661s-1.66-0.743-1.66-1.661
		C64.437,150.895,65.179,150.151,66.097,150.151L66.097,150.151z M134.32,151.187c1.141-0.015,2.461,0.099,2.461,0.099l-0.32,1.276
		c-1.387,0.134-3.172-0.253-4.66,0.372c0.555,0.902,3.797,2.184,4.152,2.503c0.035,0.134-0.266,1.353-0.266,1.353
		c0.086,0.313-5.488-2.262-5.672-4.435C130.019,151.621,132.425,151.219,134.32,151.187L134.32,151.187z M115.156,152.516
		c3.168,0.027,4.73,4.449,3.5,6.406c-0.488,0.887-1.59,1.937-3.039,2.859c-0.695,0.445-2.543,1.352-2.543,1.352l-0.832-1.285
		c0,0,0.738-0.297,1.434-0.676c1.742-0.985,5.281-3.082,3.57-5.942c-0.961-1.546-2.398-1.847-5.383-0.332
		c-2.23,1.13-2.734,1.235-2.734,1.235l-0.566-1.024C108.71,155.195,113.011,152.604,115.156,152.516L115.156,152.516z
		 M53.332,152.977l2.488,0.003l-1.063,2.243L53.332,152.977z M125.359,152.684c1.512,2.921,4.098,5.132,4.805,5.664
		c0,0-2.578,1.656-4.117,2.707l-0.902-1.063l2.211-1.895l-2.492-3.473L125.359,152.684z M149.617,153.387
		c-0.277,1.445-0.324,2.98-0.441,4.668c0.543,0.496,1.035,0.746,1.465,0.715c0.48-1.516,0.824-3.238,0.598-5.016
		C150.781,153.397,150.183,153.437,149.617,153.387L149.617,153.387z M150.867,154.483c-0.012,0.953,0.121,2.146-0.285,3.063
		c-0.234,0.523-0.762,0.328-0.781-0.383c-0.023-0.965,0.172-1.77,0.227-2.645c0.031-0.5,0.25-0.801,0.547-0.684
		C150.882,153.983,150.859,154.207,150.867,154.483L150.867,154.483z M114.964,155.141c1.633,0.121,2.262,1.488,1.66,2.468
		c-1.473,1.884-2.984,2.228-4.918,3.317l-1.93-3.614C109.777,157.312,113.535,155.19,114.964,155.141L114.964,155.141z
		 M114.921,155.949c-1.078,0.125-1.762,0.652-2.668,1.098c-1.113,0.543-1.477,1.383-0.723,2.148
		c0.832,0.926,3.734-1.281,4.215-1.816c0.297-0.457,0.246-0.875-0.168-1.207C115.398,156.031,115.175,155.949,114.921,155.949
		L114.921,155.949z M55.375,156.098l2.429,0.027l-1.312,1.858L55.375,156.098z M115.144,156.479c0.414,0.293,0.379,0.821-0.207,0.97
		c-0.293,0.073-0.805,0.078-0.816,0.473c-0.008,0.293-0.453,0.402-0.711,0.359c-0.262-0.043-0.703-0.063-0.789,0.262
		c-0.223,0.449-0.391,0.453-0.703,0.144c-0.336-0.339-0.18-0.769,0.477-0.843c0.281-0.032,0.523-0.235,0.625-0.449
		c-0.016-0.277,0.18-0.441,0.488-0.375c0.438-0.004,0.723-0.168,1.031-0.574C114.757,156.344,114.996,156.375,115.144,156.479
		L115.144,156.479z M100.914,156.526c0.918,0,1.66,0.743,1.66,1.66c0,0.918-0.742,1.665-1.66,1.665s-1.66-0.747-1.66-1.665
		C99.253,157.27,99.996,156.526,100.914,156.526L100.914,156.526z M65.453,159.582c0.918,0,1.664,0.746,1.664,1.664
		s-0.746,1.66-1.664,1.66s-1.66-0.742-1.66-1.66S64.535,159.582,65.453,159.582L65.453,159.582z M25.722,161.055l19.02,13.007
		l-1.301,1.899l-17.664-12.016L25.722,161.055z M121.21,161.479c1.238,0,2.191,0.711,3.113,2.149
		c1.836,2.851,0.914,5.098-2.879,7.398c-1.766,1.066-1.777,1.077-1.777,1.077L118.769,171c0,0,1.285-0.758,1.816-1.09
		c3.121-1.974,4-3.72,2.625-5.681c-1.32-1.894-2.707-1.741-6.563,0.707c-0.777,0.497-1.711,0.888-1.711,0.888l-0.844-1.148
		c0,0,2.18-1.121,2.926-1.594C118.726,161.992,120.117,161.479,121.21,161.479L121.21,161.479z M135.386,160.988l0.016,1.25
		c0.039,0.059-2.586,1.215-4.125,1.914c-0.5,0.27-0.305,0.801-0.273,1.348l-0.742,0.5c0,0-1.023-0.746-1.16-1.228
		C128.726,163.258,133.546,161.445,135.386,160.988L135.386,160.988z M107.929,162.332c0.918,0,1.664,0.742,1.664,1.66
		s-0.746,1.664-1.664,1.664s-1.66-0.746-1.66-1.664S107.011,162.332,107.929,162.332L107.929,162.332z M56.406,162.801
		c0.918,0,1.66,0.742,1.66,1.66c0,0.914-0.742,1.66-1.66,1.66s-1.66-0.746-1.66-1.66C54.746,163.543,55.488,162.801,56.406,162.801
		L56.406,162.801z M121.14,164.125c0.633-0.023,1.105,0.387,1.363,1.016c0.66,1.605-0.238,2.796-3.488,4.617
		c-0.273,0.152-0.848,0.465-0.848,0.465l-2.395-3.305c0,0,0.84-0.578,1.637-1.055C119.191,164.699,120.332,164.152,121.14,164.125
		L121.14,164.125z M120.824,164.918c-0.152,0.004-0.332,0.062-0.535,0.18c-0.836,0.48-2.23,1.004-2.887,1.875
		c-0.387,0.531-0.211,1.063,0.52,1.746c0.617,0.406,3.809-1.941,3.887-2.625C121.539,165.375,121.281,164.902,120.824,164.918
		L120.824,164.918z M25.859,165.094l0.531,0.359l-0.531,0.418V165.094z M121.328,165.672c0.238,0.289,0.098,0.777-0.402,0.863
		c-0.254,0.043-0.625,0.109-0.746,0.484c-0.102,0.246-0.445,0.453-0.785,0.445c-0.391-0.09-0.598,0.144-0.617,0.32
		c-0.191,0.328-0.668,0.379-0.961,0.069c-0.227-0.237,0.18-0.933,0.445-0.921c0.051,0.02,0.344,0.086,0.699-0.387
		c0.07-0.348,0.473-0.559,0.766-0.547c0.297,0.102,0.469-0.228,0.59-0.406C120.585,165.449,121.14,165.449,121.328,165.672
		L121.328,165.672z M27.121,165.926l0.765,0.515l-2.027,1.438v-1.16L27.121,165.926z M28.605,166.895l1.039,0.695l-3.785,2.711
		v-1.473L28.605,166.895z M30.543,168.133l1.097,0.722l-5.781,3.907v-1.504L30.543,168.133z M32.625,169.187v1.259l-6.766,4.723
		v-1.273L32.625,169.187z M33.39,170.09l1.457,0.996l0.368,42.594l-9.122,6.266l0.008-1.863l7.656-5.535L33.39,170.09z
		 M143.402,171.242c-2.043,2.336-4.789,2.491-7.18,2.43c-6.445,0.09-10.449,0.433-11.277,8.121c2.625-1.965,5.41-2.219,8.637-2.125
		c4.082-0.004,5.918-0.273,7.578-1.103c2.668-1.332,4.352-3.714,4.031-5.382C144.875,172.82,144.046,171.332,143.402,171.242
		L143.402,171.242z M32.625,171.613v1.477l-6.766,4.535v-1.5L32.625,171.613z M109.917,171.75c0.918,0,1.664,0.746,1.664,1.66
		c0,0.918-0.746,1.66-1.664,1.66s-1.66-0.742-1.66-1.66C108.257,172.496,109,171.75,109.917,171.75L109.917,171.75z M65.73,171.922
		c11.961,0.371,37.359,0.23,37.359,0.23l1.352,1.949l-39.934-0.418L65.73,171.922z M143.335,173.203
		c-1.43,1.401-2.914,2.09-7.617,2.004c-4.969-0.09-6.906,0.695-8.191,2.91c-0.375,0.641-0.367,0.895,0.172,0.405
		c0.457-0.539,1.488-1.577,1.914-0.593c0.844-0.555,1.574-1.395,2.016-0.332c0.246-0.055,1.68-1.489,2.016-0.219
		c0.688-0.766,1.273-1.004,1.594,0.082c0.973-0.461,1.488-1.336,2.043-0.129c0.781-0.56,1.379-1.262,1.836-0.191
		c0.668-0.2,1.348-1.426,1.734-0.445c0.07,0.023,2.488-1.43,3.172-2.867c0.563-1.27,1.074-0.431,0.438,0.867
		c-1.637,3.172-4.438,4.331-10.867,4.34c-3.902,0.004-5.52,0.387-6.742,1.102c-1.969,1.148-0.91-1.742,0.469-3.496
		c1.738-2.207,3.723-2.859,9.152-2.664c2.965,0.02,4.863-0.391,5.664-1.04c0.684-0.546,1.176-0.921,1.539-0.944
		C144.042,171.969,144.093,172.461,143.335,173.203L143.335,173.203z M55.465,172.664c0.917,0,1.664,0.746,1.664,1.664
		s-0.747,1.66-1.664,1.66c-0.918,0-1.661-0.742-1.661-1.66S54.547,172.664,55.465,172.664L55.465,172.664z M32.625,173.895v1.5
		l-6.766,4.617v-1.532L32.625,173.895z M65.355,174.613h5.25v5.543h-5.25V174.613z M77.121,174.613h5.652v5.543h-5.652V174.613z
		 M89.703,174.793h5.453v5.363h-5.453V174.793z M101.515,174.901l3.633,0.121c0,0,2.016,2.567,2.867,3.75l-2.684,1.375l-3.816,0.009
		V174.901z M67.879,175.276c-1.02,0-1.852,0.825-1.852,1.849c0,1.02,0.832,1.848,1.852,1.848c1.023,0,1.851-0.828,1.851-1.848
		C69.73,176.102,68.902,175.276,67.879,175.276L67.879,175.276z M79.957,175.461c-1.024,0-1.852,0.824-1.852,1.844
		c0,1.023,0.828,1.852,1.852,1.852c1.019,0,1.847-0.828,1.847-1.852C81.804,176.285,80.976,175.461,79.957,175.461L79.957,175.461z
		 M92.304,175.508c-1.02,0-1.848,0.824-1.848,1.847c0,1.021,0.828,1.849,1.848,1.849c1.023,0,1.852-0.828,1.852-1.849
		C94.156,176.332,93.328,175.508,92.304,175.508L92.304,175.508z M62.828,175.883c0.363,0.258,0.605,0.679,0.605,1.164
		c0,0.789-0.644,1.433-1.433,1.433c-0.282,0-0.543-0.077-0.762-0.214L62.828,175.883z M67.879,175.902
		c0.675,0,1.226,0.547,1.226,1.223s-0.551,1.223-1.226,1.223c-0.676,0-1.227-0.547-1.227-1.223S67.203,175.902,67.879,175.902
		L67.879,175.902z M104.601,175.953c-1.023,0-1.852,0.823-1.852,1.844c0,1.023,0.828,1.851,1.852,1.851s1.852-0.827,1.852-1.851
		C106.453,176.776,105.625,175.953,104.601,175.953L104.601,175.953z M73.871,176.008c0.82,0,1.488,0.664,1.488,1.484
		c0,0.819-0.668,1.484-1.488,1.484c-0.821,0-1.481-0.665-1.481-1.484C72.39,176.672,73.05,176.008,73.871,176.008L73.871,176.008z
		 M98.343,175.949c0.82,0,1.488,0.664,1.488,1.484s-0.668,1.484-1.488,1.484s-1.48-0.664-1.48-1.484S97.523,175.949,98.343,175.949
		L98.343,175.949z M32.625,176.104v1.493l-6.766,4.727v-1.466L32.625,176.104z M79.957,176.082c0.675,0,1.222,0.547,1.222,1.223
		c0,0.675-0.547,1.227-1.222,1.227c-0.676,0-1.227-0.552-1.227-1.227C78.73,176.629,79.281,176.082,79.957,176.082L79.957,176.082z
		 M92.304,176.133c0.68,0,1.227,0.543,1.227,1.222c0,0.677-0.547,1.224-1.227,1.224c-0.676,0-1.223-0.547-1.223-1.224
		C91.082,176.676,91.628,176.133,92.304,176.133L92.304,176.133z M86.113,176.285c0.82,0,1.488,0.664,1.488,1.484
		s-0.668,1.488-1.488,1.488c-0.82,0-1.484-0.668-1.484-1.488S85.293,176.285,86.113,176.285L86.113,176.285z M104.601,176.578
		c0.676,0,1.227,0.543,1.227,1.219s-0.551,1.226-1.227,1.226s-1.227-0.55-1.227-1.226S103.925,176.578,104.601,176.578
		L104.601,176.578z M51.957,177.858c3.152-0.034,6.562,1.567,8.484,4.224c2.914,3.891,4.859,8.854,5.742,15.371
		c0.438,3.227,1.942,12.918,2.797,15.207l-1.176-0.227c-0.156,0.074-1.668-6.094-2.617-14.243
		c-0.351-3.019-0.996-6.913-2.746-10.472c-2-4.059-5.398-8.36-9.93-8.703c-2.644-0.2-5.125,1.457-5.394,3.789
		c-0.379,1.843,0.703,3.563,2.121,4.136c1.391,0.563,3.055,0.146,3.242-1.754c0.031-0.312,0-0.625-0.117-0.914
		c0.644-0.104,1.133,0.185,1.394,0.728c0.137,0.02,0.008,2.754-2.144,3.289c-2.594,0.852-5.59-1.719-5.82-4.336
		c-0.18-2.203,1.5-4.931,3.613-5.668C50.211,178.008,51.074,177.871,51.957,177.858L51.957,177.858z M32.625,178.711v1.519
		l-6.766,4.673v-1.535L32.625,178.711z M52.101,179.676c3.789-0.11,7.477,4.113,9.035,6.895c1.629,2.898,2.918,7.508,3.364,11.844
		c0.757,7.375,2.168,13.406,2.468,13.684l-1.031-0.227c-0.219,0.145-1.64-6.513-2.508-13.926c-0.484-4.156-2.027-8.277-3.863-11.453
		c-1.695-2.934-3.976-5.121-6.68-5.441c-1.695-0.168-3.437,0.32-3.777,2.105c-0.184,1.047,0.367,2.073,1.609,2.164
		c0.293,0.02,0.575,0.043,0.625,0.055c0.657,0.117-0.375,1.184-1.054,1.09c-2.43-0.34-3.547-3.582-1.633-5.309
		C49.773,180.147,50.945,179.707,52.101,179.676L52.101,179.676z M60.211,180.758l42.515,0.429c0,0,0.035,0.763-2.609,0.638
		c-2.25-0.105-3.703,0.207-5.195,0.688l-33.407-0.075L60.211,180.758z M32.625,181.25v1.414l-6.766,4.733v-1.558L32.625,181.25z
		 M52.386,181.848c0.817-0.012,1.649,0.199,2.278,0.563c5.265,3.051,7.277,10.621,7.968,15.387c0.95,7.058,2.04,13.617,2.344,13.781
		l-1.148-0.263c-0.153,0.005-1.406-6.112-2.192-12.972c-0.632-5.543-2.527-11.11-6.285-13.449c-2.414-1.645-2.886-1.809-4.004-0.852
		c-0.965,0.828-1.945-0.418-1.136-1.43C50.765,182.09,51.57,181.858,52.386,181.848L52.386,181.848z M32.625,183.762v1.16
		l-6.766,4.711v-1.371L32.625,183.762z M63.574,183.793c0.086-0.082,3.656,5.979,4.785,15.539c0.594,5.031,2.297,13.608,2.57,13.68
		l-1.238-0.133c-1.266-5.059-1.965-9.848-2.641-14.164c-0.765-4.883-1.382-9.223-4.425-14.887l0.945-0.027
		C63.57,183.793,63.57,183.793,63.574,183.793L63.574,183.793z M64.382,183.84l1.106,0.015c1.891,3.603,3.902,9.196,4.598,14.802
		c0.601,4.84,1.207,9.766,2.941,14.895l-1.187-0.324c-1.489-4.165-2.016-9.195-2.817-14.406
		C68.136,193.055,66.75,188.039,64.382,183.84L64.382,183.84z M71.207,183.848c1.933,5.011,3.191,7.402,4.078,13.566
		c0.683,4.785,1.652,10.77,3.859,17.108l-1.121-0.046c-1.633-4.375-2.883-10.238-3.457-15.868
		c-0.777-7.647-4.211-14.784-4.242-14.741L71.207,183.848z M69.3,183.867c0.106-0.152,3.692,7.016,4.52,14.898
		c0.555,5.242,1.781,10.43,3.465,15.441l-1.145-0.027c-1.32-1.528-2.312-8.77-3.402-15.527c-1.113-6.898-2.68-11.145-4.422-14.773
		h0.981C69.297,183.875,69.3,183.871,69.3,183.867L69.3,183.867z M66.414,183.875l1.015,0.004c2.657,5.812,3.762,9.269,4.582,14.887
		c1.036,7.102,2.028,13.511,3.129,15.18l-1.242-0.082c-1.711-5.117-2.484-10.234-3.09-15.355
		C70.148,192.965,68.554,188.215,66.414,183.875L66.414,183.875z M72.023,183.922l1.203,0.019c2.082,4.216,3.813,9.336,4.418,15.196
		c0.336,3.175,0.922,8.05,3.309,15.574l-0.969-0.063c-1.953-5.043-3.129-10.979-3.828-16.159
		C75.449,193.266,74.203,188.957,72.023,183.922L72.023,183.922z M79.453,183.957c1.14,2.922,2.082,5.824,2.695,8.809l-0.68,1.332
		c-1.07-3.941-2.277-7.012-3.472-10.121L79.453,183.957z M73.949,183.961l1.469,0.035c2.527,5.862,3.824,12.059,4.179,14.141
		c0,0,0.348,1.84,0.371,2.441c-0.082,5.125,0.801,8.776,2.707,14.285l-0.871-0.063c-2.214-6.403-2.808-10.949-3.375-15.293
		C77.961,194.047,76.183,188.422,73.949,183.961L73.949,183.961z M77.343,184.008c1.504,3.758,2.653,7.379,3.696,11.004
		c-0.047,0.824-0.125,1.727-0.66,2.39c-1.231-4.433-2.266-9.043-4.161-13.386L77.343,184.008z M80.121,184.039l1.164,0.02
		l2.32,6.645l-0.91,1.004C82.015,189.508,81.316,187.09,80.121,184.039L80.121,184.039z M86.914,184.086l0.847,1.996l-0.914,0.776
		c0,0-0.933-1.87-1.179-2.75L86.914,184.086z M88.64,184.086l0.426,1.152l-0.769,0.586l-0.598-1.716L88.64,184.086z M81.976,184.108
		l1.199,0.009c0.481,1.395,1.77,4.813,1.77,4.813l-0.859,0.906C84.086,189.836,82.461,185.516,81.976,184.108L81.976,184.108z
		 M83.832,184.108l1.062,0.013c0.321,0.905,1.317,3.418,1.317,3.418l-0.735,0.699L83.832,184.108z M89.39,184.156l1.051,0.051
		l-0.121,0.258l-0.656,0.328L89.39,184.156z M54.914,185.633c4.406,2.32,5.617,9.273,6.093,13.097
		c0.836,6.668,1.77,12.095,1.969,12.243L62,210.815c0,0-0.723-3.425-1.223-6.687c-0.418-2.711-0.738-4.984-0.852-6.024
		c-0.07-0.647-0.179-1.405-0.238-1.679c-0.617-2.742-0.812-3.367-1.605-5.035c-0.762-1.602-1.032-2.004-2.297-3.43
		c-0.488-0.547-0.961-0.949-1.125-1.301C54.422,186.16,54.914,185.633,54.914,185.633L54.914,185.633z M32.625,185.992v1.309
		l-6.766,4.781v-1.5L32.625,185.992z M32.625,188.289v1.512l-6.766,4.465v-1.34L32.625,188.289z M32.625,190.863v1.398l-6.766,4.718
		v-1.448L32.625,190.863z M43.929,192.277h0.598l0.043,0.984l-0.922-0.059L43.929,192.277z M32.625,193.488v1.495l-6.766,4.47
		v-1.395L32.625,193.488z M43.23,194.059l1.434,0.016l-0.016,1.027l-1.84-0.063L43.23,194.059z M42.402,195.707l2.352,0.043v0.977
		l-2.914-0.047L42.402,195.707z M32.625,195.922v1.57l-6.766,4.5v-1.578L32.625,195.922z M41.203,197.555l3.441,0.039l-0.019,0.816
		l-4.11-0.027L41.203,197.555z M32.625,198.465V200l-6.766,4.336v-1.383L32.625,198.465z M39.769,199.195l4.723,0.066l-0.117,0.789
		l-5.387-0.024L39.769,199.195z M32.625,200.867v1.477l-6.766,4.406v-1.418L32.625,200.867z M37.996,200.867l6.219,0.145
		l1.308,1.188l-9.676,0.059L37.996,200.867z M36.113,203.047l10.691,0.133l0.746,0.688l-11.472,0.043L36.113,203.047z
		 M32.625,203.383v1.566l-6.766,4.438v-1.434L32.625,203.383z M36.125,204.762l11.847,0.054l-0.859,0.95l-11.004,0.031
		L36.125,204.762z M32.625,205.949v1.434l-6.766,4.594v-1.648L32.625,205.949z M35.832,206.695l10.238,0.034l-1.203,0.946
		l-7.074,0.16L35.832,206.695z M32.625,208.469v1.371l-6.766,4.847v-1.535L32.625,208.469z M38.824,208.645l6.016,0.027l0.109,0.805
		l-5.168-0.012L38.824,208.645z M40.488,210.309l4.617,0.046l0.219,1.043l-4.109-0.054L40.488,210.309z M32.625,211.039v1.27
		l-6.766,4.727v-1.41L32.625,211.039z M45.422,212.082l0.054,0.992l-2.754,0.105l-0.773-1.039L45.422,212.082z M45.398,213.84
		l-0.019,1.047l-1.922,0.031l-0.43-1.008L45.398,213.84z M43.695,215.699l1.512,0.012l-0.129,0.805l-1.172,0.016L43.695,215.699z
		 M44.148,217.629h0.734l-0.121,0.629h-0.379L44.148,217.629z M59.121,228.25l-0.356,0.453h10.582l0.118-0.453H59.121z
		 M72.761,228.25l-0.183,0.608h4.773l0.133-0.608H72.761z M80.562,228.367l-0.148,0.578h12.21l-0.203-0.578H80.562z M95.167,228.367
		l0.246,0.703h4.109l-0.27-0.703H95.167z M109.343,228.367l-7.215,0.004l0.262,0.785h7.457L109.343,228.367z M109.343,228.367"/>
</g>
</svg>
