<?xml version="1.0" encoding="utf-8"?>
<!-- Generator: Adobe Illustrator 15.0.0, SVG Export Plug-In . SVG Version: 6.00 Build 0)  -->
<!DOCTYPE svg PUBLIC "-//W3C//DTD SVG 1.1//EN" "http://www.w3.org/Graphics/SVG/1.1/DTD/svg11.dtd">
<svg version="1.1" id="Layer_1" xmlns="http://www.w3.org/2000/svg" xmlns:xlink="http://www.w3.org/1999/xlink" x="0px" y="0px"
	 width="178.582px" height="249.449px" viewBox="0 0 178.582 249.449" enable-background="new 0 0 178.582 249.449"
	 xml:space="preserve">
<g>
	<path fill="#FFFFFF" d="M8.504,0"/>
	<path fill="#D40000" d="M7.261,48.187C5.996,45.41,5.855,40.664,9.64,40.02c2.848-0.368,4.008,0.96,4.239,2.996
		c0.113,0.593,0.449,0.629,0.554-0.047c0.164-2.09,2.231-3.309,3.848-3c4.422,0.754,4.164,5.621,2.719,8.922
		c-2.184,4.386-4.481,7.152-6.598,11.562C11.972,55.859,9.199,52.129,7.261,48.187L7.261,48.187z M7.261,48.187"/>
	<path fill="#D40000" d="M157.441,201.203c-1.266,2.776-1.406,7.526,2.379,8.168c2.848,0.367,4.008-0.961,4.238-2.992
		c0.113-0.598,0.449-0.633,0.555,0.043c0.164,2.09,2.23,3.308,3.848,3c4.418-0.754,4.16-5.621,2.719-8.922
		c-2.188-4.383-4.48-7.152-6.598-11.563C162.152,193.531,159.375,197.262,157.441,201.203L157.441,201.203z M157.441,201.203"/>
	<path fill="#D40000" d="M6.539,37.312l0.129-1.617c0.41-4.992,1.5-6.675,7.699-11.883c3.008-2.527,3.996-3.773,4.133-5.222
		c0.394-3.406-2.68-4.473-4.684-4.488c-2.594-0.028-5.527,1.527-4.129,5.128l-2.906,0.856c-0.59-3.359,0.012-6.516,2.738-7.914
		c3.637-1.824,8.305-1.11,10.66,1.765c1.582,1.93,1.942,4.598,1.094,6.684c-2.48,5.336-10.898,7.684-11.594,13.856h9.305v-3.438
		h2.742v6.328L6.539,37.312z M6.539,37.312"/>
	<path fill="#D40000" d="M171.824,212.141l-0.133,1.617c-0.406,4.988-1.5,6.676-7.695,11.883c-3.008,2.527-3.996,3.773-4.137,5.218
		c-0.391,3.411,2.684,4.474,4.684,4.493c2.594,0.023,5.531-1.527,4.129-5.129l2.91-0.855c0.59,3.359-0.012,6.512-2.738,7.914
		c-3.637,1.823-8.305,1.109-10.66-1.766c-1.582-1.93-1.941-4.598-1.094-6.684c2.48-5.34,10.898-7.688,11.594-13.855h-9.305v3.434
		h-2.742v-6.324L171.824,212.141z M171.824,212.141"/>
	<path fill="#D40000" d="M79.621,22.375c5.715-0.379,8.695,4.5,9.277,8.348c0.348,0.613,0.535,0.441,0.668-0.032
		c0.281-4.941,4.703-8.976,8.797-8.425c6.66,0.086,10.711,7.5,9.57,13.773c-1.391,7.668-5.52,12.281-8.645,17.035
		c-3.539,4.922-8.297,12.031-9.832,15.453c0,0-4.84-7.363-11.133-16.023c-4.211-5.789-7.578-12.067-7.895-17.469
		C70.074,28.863,72.605,23.332,79.621,22.375L79.621,22.375z M79.621,22.375"/>
	<path fill="#D40000" d="M79.621,227.414c5.715,0.379,8.695-4.5,9.277-8.349c0.348-0.612,0.535-0.437,0.668,0.036
		c0.281,4.938,4.703,8.973,8.797,8.421c6.66-0.086,10.711-7.5,9.57-13.772c-1.391-7.668-5.52-12.281-8.645-17.035
		c-3.539-4.922-8.297-12.031-9.832-15.453c0,0-4.84,7.363-11.133,16.023c-4.211,5.789-7.578,12.066-7.895,17.469
		C70.074,220.926,72.605,226.457,79.621,227.414L79.621,227.414z M79.621,227.414"/>
</g>
</svg>
