<?xml version="1.0" encoding="utf-8"?>
<!-- Generator: Adobe Illustrator 15.0.0, SVG Export Plug-In . SVG Version: 6.00 Build 0)  -->
<!DOCTYPE svg PUBLIC "-//W3C//DTD SVG 1.1//EN" "http://www.w3.org/Graphics/SVG/1.1/DTD/svg11.dtd">
<svg version="1.1" id="Layer_1" xmlns="http://www.w3.org/2000/svg" xmlns:xlink="http://www.w3.org/1999/xlink" x="0px" y="0px"
	 width="178.582px" height="249.449px" viewBox="0 0 178.582 249.449" enable-background="new 0 0 178.582 249.449"
	 xml:space="preserve">
<g>
	<path fill="#FFFFFF" d="M8.504,0"/>
	<path fill="#D40000" d="M6.59,28.801c-0.325-2.196-0.321-7.875-0.051-9.551c0.82-5.145,2.824-7.496,6.176-8.27
		c3.257-0.746,7.832,0.086,8.835,4.387l-2.726,0.051c-1.469-2.906-5.195-2.129-7.289-0.867c-1.676,1.011-2.434,5.219-2.11,5.476
		c-0.003,0,3.168-2.3,5.661-2.132c5.336,0.546,7.535,5.085,7.347,9.375c-0.168,5.16-1.836,9.281-7.488,9.558
		C9.57,36.625,7.105,33.746,6.59,28.801L6.59,28.801z M19.847,27.437c0.028-3.578-1.629-6.257-4.761-6.554
		c-3.133-0.293-6.289,2.707-6.071,6.355c0.219,3.66,1.664,6.746,5.461,6.727C18.562,33.949,19.824,29.984,19.847,27.437
		L19.847,27.437z M19.847,27.437"/>
	<path fill="#D40000" d="M171.988,220.647c0.328,2.2,0.324,7.879,0.055,9.556c-0.824,5.145-2.828,7.496-6.18,8.266
		c-3.254,0.75-7.832-0.082-8.836-4.383l2.727-0.051c1.473,2.905,5.195,2.129,7.293,0.862c1.676-1.007,2.43-5.214,2.105-5.472
		c0.004,0-3.164,2.301-5.66,2.133c-5.332-0.547-7.531-5.086-7.348-9.375c0.168-5.161,1.836-9.286,7.488-9.559
		C169.007,212.828,171.472,215.707,171.988,220.647L171.988,220.647z M158.734,222.016c-0.031,3.578,1.625,6.257,4.758,6.55
		c3.133,0.298,6.293-2.702,6.074-6.351c-0.223-3.66-1.664-6.746-5.461-6.731C160.019,215.504,158.753,219.469,158.734,222.016
		L158.734,222.016z M158.734,222.016"/>
	<path fill="#D40000" d="M6.918,47.5c-1.266-2.777-1.403-7.523,2.379-8.164c2.847-0.367,4.007,0.957,4.238,2.992
		c0.113,0.594,0.449,0.629,0.555-0.047c0.164-2.086,2.23-3.304,3.847-3c4.422,0.758,4.164,5.621,2.719,8.926
		c-2.184,4.383-4.481,7.148-6.598,11.559C11.629,55.176,8.855,51.441,6.918,47.5L6.918,47.5z M6.918,47.5"/>
	<path fill="#D40000" d="M35.148,22.691c5.715-0.379,8.695,4.504,9.277,8.352c0.348,0.609,0.536,0.437,0.668-0.035
		c0.282-4.942,4.704-8.977,8.797-8.426c6.66,0.086,10.711,7.5,9.571,13.777c-1.391,7.664-5.52,12.282-8.645,17.036
		c-3.539,4.921-8.297,12.031-9.832,15.453c0,0-4.84-7.364-11.133-16.024c-4.211-5.793-7.578-12.066-7.894-17.469
		C25.601,29.184,28.132,23.648,35.148,22.691L35.148,22.691z M35.148,22.691"/>
	<path fill="#D40000" d="M124.375,22.691c5.715-0.379,8.695,4.504,9.277,8.352c0.348,0.609,0.535,0.437,0.668-0.035
		c0.281-4.942,4.699-8.977,8.797-8.426c6.66,0.086,10.711,7.5,9.57,13.777c-1.391,7.664-5.52,12.282-8.645,17.036
		c-3.539,4.921-8.297,12.031-9.832,15.453c0,0-4.84-7.364-11.133-16.024c-4.211-5.793-7.582-12.066-7.895-17.469
		C114.824,29.184,117.359,23.648,124.375,22.691L124.375,22.691z M124.375,22.691"/>
	<path fill="#D40000" d="M124.375,101.809c5.715-0.383,8.695,4.5,9.277,8.347c0.348,0.61,0.535,0.438,0.668-0.035
		c0.281-4.937,4.699-8.976,8.797-8.422c6.66,0.086,10.711,7.5,9.57,13.774c-1.391,7.664-5.52,12.281-8.645,17.035
		c-3.539,4.922-8.297,12.031-9.832,15.453c0,0-4.84-7.363-11.133-16.024c-4.211-5.789-7.582-12.065-7.895-17.468
		C114.824,108.297,117.359,102.766,124.375,101.809L124.375,101.809z M124.375,101.809"/>
	<path fill="#D40000" d="M35.148,101.809c5.715-0.383,8.695,4.5,9.277,8.347c0.348,0.61,0.536,0.438,0.668-0.035
		c0.282-4.937,4.704-8.976,8.797-8.422c6.66,0.086,10.711,7.5,9.571,13.774c-1.391,7.664-5.52,12.281-8.645,17.035
		c-3.539,4.922-8.297,12.031-9.832,15.453c0,0-4.84-7.363-11.133-16.024c-4.211-5.789-7.578-12.065-7.894-17.468
		C25.601,108.297,28.132,102.766,35.148,101.809L35.148,101.809z M35.148,101.809"/>
	<path fill="#D40000" d="M35.148,226.68c5.715,0.379,8.695-4.5,9.277-8.348c0.348-0.613,0.536-0.441,0.668,0.031
		c0.282,4.941,4.704,8.977,8.797,8.426c6.66-0.086,10.711-7.5,9.571-13.773c-1.391-7.668-5.52-12.282-8.645-17.036
		c-3.539-4.921-8.297-12.03-9.832-15.453c0,0-4.84,7.364-11.133,16.024c-4.211,5.789-7.578,12.066-7.894,17.469
		C25.601,220.19,28.132,225.723,35.148,226.68L35.148,226.68z M35.148,226.68"/>
	<path fill="#D40000" d="M124.375,226.68c5.715,0.379,8.695-4.5,9.277-8.348c0.348-0.613,0.535-0.441,0.668,0.031
		c0.281,4.941,4.699,8.977,8.797,8.426c6.66-0.086,10.711-7.5,9.57-13.773c-1.391-7.668-5.52-12.282-8.645-17.036
		c-3.539-4.921-8.297-12.03-9.832-15.453c0,0-4.84,7.364-11.133,16.024c-4.211,5.789-7.582,12.066-7.895,17.469
		C114.824,220.19,117.359,225.723,124.375,226.68L124.375,226.68z M124.375,226.68"/>
	<path fill="#D40000" d="M157.972,200.187c-1.27,2.778-1.406,7.524,2.375,8.165c2.852,0.367,4.012-0.957,4.242-2.993
		c0.113-0.593,0.449-0.629,0.555,0.048c0.164,2.086,2.23,3.305,3.844,3c4.422-0.759,4.164-5.621,2.719-8.927
		c-2.184-4.382-4.48-7.147-6.594-11.558C162.679,192.512,159.906,196.246,157.972,200.187L157.972,200.187z M157.972,200.187"/>
</g>
</svg>
