<?xml version="1.0" encoding="utf-8"?>
<!-- Generator: Adobe Illustrator 15.0.0, SVG Export Plug-In . SVG Version: 6.00 Build 0)  -->
<!DOCTYPE svg PUBLIC "-//W3C//DTD SVG 1.1//EN" "http://www.w3.org/Graphics/SVG/1.1/DTD/svg11.dtd">
<svg version="1.1" id="Layer_1" xmlns="http://www.w3.org/2000/svg" xmlns:xlink="http://www.w3.org/1999/xlink" x="0px" y="0px"
	 width="179.049px" height="249.449px" viewBox="0 0 179.049 249.449" enable-background="new 0 0 179.049 249.449"
	 xml:space="preserve">
<g>
	<path fill="#FFFFFF" d="M8.971,0"/>
	<path fill="#D40000" d="M10.338,37.211c1.707-8.871,3.527-15.527,8.304-22.758H8.935v3.109H6.353v-5.863H20.56l1.75,2.754
		c-5.074,5.438-9.718,23.012-8.898,22.758H10.338z"/>
	<path fill="#D40000" d="M169.174,212.242c-1.707,8.871-3.526,15.527-8.305,22.758h9.707v-3.113h2.582v5.867h-14.203l-1.75-2.754
		c5.073-5.438,9.719-23.018,8.896-22.758H169.174z"/>
	<path fill="#D40000" d="M7.529,49.57c-1.269-2.777-1.406-7.523,2.375-8.168c2.852-0.367,4.012,0.961,4.242,2.996
		c0.114,0.594,0.45,0.629,0.555-0.046c0.164-2.09,2.231-3.309,3.844-3c4.422,0.753,4.164,5.621,2.719,8.921
		c-2.184,4.387-4.481,7.153-6.594,11.563C12.236,57.242,9.463,53.512,7.529,49.57L7.529,49.57z"/>
	<path fill="#D40000" d="M35.014,23.848c5.714-0.379,8.695,4.5,9.277,8.347c0.348,0.614,0.535,0.442,0.668-0.031
		c0.281-4.941,4.703-8.977,8.797-8.426c6.66,0.086,10.711,7.5,9.57,13.778c-1.391,7.664-5.519,12.277-8.644,17.031
		C51.146,59.469,46.385,66.578,44.849,70c0,0-4.839-7.363-11.132-16.023c-4.211-5.79-7.578-12.063-7.895-17.469
		C25.467,30.336,27.998,24.805,35.014,23.848L35.014,23.848z"/>
	<path fill="#D40000" d="M124.24,23.848c5.715-0.379,8.694,4.5,9.276,8.347c0.349,0.614,0.535,0.442,0.668-0.031
		c0.281-4.941,4.703-8.977,8.797-8.426c6.66,0.086,10.711,7.5,9.57,13.778c-1.391,7.664-5.52,12.277-8.645,17.031
		c-3.539,4.922-8.297,12.031-9.832,15.453c0,0-4.84-7.363-11.133-16.023c-4.211-5.79-7.578-12.063-7.896-17.469
		C114.692,30.336,117.226,24.805,124.24,23.848L124.24,23.848z"/>
	<path fill="#D40000" d="M80.162,63.945c5.715-0.379,8.695,4.504,9.277,8.352c0.348,0.609,0.536,0.437,0.667-0.035
		c0.281-4.938,4.699-8.977,8.793-8.422c6.664,0.086,10.716,7.5,9.574,13.773c-1.391,7.664-5.52,12.282-8.645,17.035
		c-3.539,4.922-8.301,12.032-9.832,15.454c0,0-4.84-7.364-11.137-16.024c-4.207-5.793-7.578-12.066-7.89-17.469
		C70.611,70.437,73.146,64.902,80.162,63.945L80.162,63.945z"/>
	<path fill="#D40000" d="M35.014,104.047c5.714-0.379,8.695,4.5,9.277,8.348c0.348,0.613,0.535,0.441,0.668-0.032
		c0.281-4.941,4.703-8.976,8.797-8.426c6.66,0.086,10.711,7.5,9.57,13.774c-1.391,7.668-5.519,12.281-8.644,17.035
		c-3.536,4.922-8.297,12.029-9.833,15.453c0,0-4.839-7.363-11.132-16.023c-4.211-5.789-7.578-12.067-7.895-17.469
		C25.467,110.535,27.998,105.004,35.014,104.047L35.014,104.047z"/>
	<path fill="#D40000" d="M124.24,104.047c5.715-0.379,8.694,4.5,9.276,8.348c0.349,0.613,0.535,0.441,0.668-0.032
		c0.281-4.941,4.703-8.976,8.797-8.426c6.66,0.086,10.711,7.5,9.57,13.774c-1.391,7.668-5.52,12.281-8.645,17.035
		c-3.539,4.922-8.297,12.029-9.832,15.453c0,0-4.84-7.363-11.133-16.023c-4.211-5.789-7.578-12.067-7.896-17.469
		C114.692,110.535,117.226,105.004,124.24,104.047L124.24,104.047z"/>
	<path fill="#D40000" d="M158.58,199.258c-1.267,2.777-1.406,7.523,2.375,8.164c2.853,0.367,4.012-0.957,4.241-2.992
		c0.113-0.594,0.449-0.633,0.556,0.047c0.164,2.086,2.229,3.306,3.849,3c4.418-0.758,4.159-5.625,2.719-8.926
		c-2.188-4.383-4.48-7.148-6.598-11.563C163.291,191.582,160.515,195.313,158.58,199.258L158.58,199.258z"/>
	<path fill="#D40000" d="M124.24,228.918c5.715,0.383,8.694-4.5,9.276-8.348c0.349-0.609,0.535-0.438,0.668,0.033
		c0.281,4.938,4.703,8.979,8.797,8.424c6.66-0.088,10.711-7.5,9.57-13.773c-1.391-7.664-5.52-12.281-8.645-17.035
		c-3.539-4.922-8.297-12.031-9.832-15.453c0,0-4.84,7.363-11.133,16.023c-4.211,5.793-7.578,12.064-7.896,17.469
		C114.692,222.43,117.226,227.965,124.24,228.918L124.24,228.918z"/>
	<path fill="#D40000" d="M35.014,228.918c5.714,0.383,8.695-4.5,9.277-8.348c0.348-0.609,0.535-0.438,0.668,0.033
		c0.281,4.938,4.703,8.979,8.797,8.424c6.66-0.088,10.711-7.5,9.57-13.773c-1.391-7.664-5.519-12.281-8.644-17.035
		c-3.536-4.922-8.297-12.031-9.833-15.453c0,0-4.839,7.363-11.132,16.023c-4.211,5.793-7.578,12.064-7.895,17.469
		C25.467,222.43,27.998,227.965,35.014,228.918L35.014,228.918z"/>
</g>
</svg>
