<?xml version="1.0" encoding="utf-8"?>
<!-- Generator: Adobe Illustrator 15.0.0, SVG Export Plug-In . SVG Version: 6.00 Build 0)  -->
<!DOCTYPE svg PUBLIC "-//W3C//DTD SVG 1.1//EN" "http://www.w3.org/Graphics/SVG/1.1/DTD/svg11.dtd">
<svg version="1.1" id="Layer_1" xmlns="http://www.w3.org/2000/svg" xmlns:xlink="http://www.w3.org/1999/xlink" x="0px" y="0px"
	 width="178.582px" height="249.449px" viewBox="0 0 178.582 249.449" enable-background="new 0 0 178.582 249.449"
	 xml:space="preserve">
<g>
	<path fill="#FFFFFF" d="M8.504,0"/>
	<path fill="none" stroke="#000000" stroke-width="0.7974" d="M8.504,0"/>
	<path fill="#D40000" d="M4.109,27.784l2.418-0.75c0.914,2.395,2.761,3.102,4.715,2.95c3.503-0.274,4.668-4.118,4.933-7.52
		c-1.367,1.418-3.422,2.141-5.168,2.07c-5.586-0.296-7.015-4.683-7.07-9.281c-0.152-3.875,1.48-6.683,4.281-7.969
		c1.481-0.656,4.875-0.656,6.367,0.118c3.426,1.773,4.692,4.839,4.461,12.152c0.004,6.02-1.297,13.031-7.867,13.18
		C7.378,33.249,4.495,30.351,4.109,27.784L4.109,27.784z M13.617,21.191c1.14-0.707,1.785-1.371,2.293-2.367
		c0.421-0.821,0.562-1.247,0.441-2.938c-0.305-4.363-2.637-6.84-6.02-6.348c-1.882,0.274-2.914,1.313-3.503,3.239
		c-1.094,3.558,0.292,7.726,2.886,8.688C10.882,21.894,12.687,21.769,13.617,21.191L13.617,21.191z"/>
	<path fill="#D40000" d="M174.449,221.969l-2.422,0.754c-0.914-2.395-2.762-3.102-4.715-2.949c-3.504,0.273-4.668,4.117-4.932,7.521
		c1.363-1.422,3.418-2.143,5.168-2.068c5.588,0.293,7.018,4.684,7.066,9.279c0.154,3.875-1.479,6.684-4.277,7.971
		c-1.482,0.65-4.879,0.65-6.371-0.119c-3.426-1.771-4.689-4.838-4.461-12.15c-0.004-6.02,1.299-13.031,7.867-13.182
		C171.175,216.508,174.059,219.406,174.449,221.969L174.449,221.969z M164.938,228.564c-1.142,0.707-1.78,1.371-2.293,2.369
		c-0.418,0.818-0.563,1.24-0.44,2.938c0.31,4.361,2.642,6.84,6.021,6.348c1.883-0.271,2.914-1.313,3.504-3.238
		c1.094-3.559-0.289-7.727-2.888-8.688C167.671,227.857,165.871,227.982,164.938,228.564L164.938,228.564z"/>
	<path fill="#D40000" d="M4.867,44.66c-1.27-2.777-1.406-7.523,2.375-8.164c2.851-0.367,4.008,0.957,4.238,2.992
		c0.117,0.594,0.453,0.633,0.559-0.047c0.164-2.086,2.23-3.304,3.843-3c4.422,0.758,4.165,5.625,2.719,8.926
		c-2.183,4.383-4.48,7.149-6.594,11.563C9.574,52.336,6.8,48.605,4.867,44.66L4.867,44.66z"/>
	<path fill="#D40000" d="M35.879,22.941c5.714-0.379,8.695,4.504,9.277,8.352c0.348,0.609,0.535,0.437,0.668-0.035
		c0.281-4.942,4.703-8.977,8.797-8.426c6.66,0.086,10.711,7.5,9.57,13.777c-1.391,7.664-5.519,12.282-8.644,17.036
		c-3.536,4.921-8.297,12.031-9.832,15.453c0,0-4.84-7.364-11.133-16.024c-4.211-5.793-7.578-12.066-7.895-17.469
		C26.332,29.434,28.863,23.898,35.879,22.941L35.879,22.941z"/>
	<path fill="#D40000" d="M123.507,22.941c5.716-0.379,8.691,4.504,9.272,8.352c0.349,0.609,0.539,0.437,0.673-0.035
		c0.276-4.942,4.698-8.977,8.793-8.426c6.664,0.086,10.711,7.5,9.573,13.777c-1.392,7.664-5.521,12.282-8.647,17.036
		c-3.534,4.921-8.297,12.031-9.832,15.453c0,0-4.836-7.364-11.133-16.024c-4.211-5.793-7.578-12.066-7.892-17.469
		C113.957,29.434,116.492,23.898,123.507,22.941L123.507,22.941z"/>
	<path fill="#D40000" d="M123.507,75.207c5.716-0.379,8.691,4.5,9.272,8.348c0.349,0.613,0.539,0.441,0.673-0.032
		c0.276-4.941,4.698-8.976,8.793-8.425c6.664,0.086,10.711,7.5,9.573,13.773c-1.392,7.668-5.521,12.281-8.647,17.035
		c-3.534,4.922-8.297,12.031-9.832,15.453c0,0-4.836-7.363-11.133-16.023c-4.211-5.789-7.578-12.066-7.892-17.469
		C113.957,81.695,116.492,76.164,123.507,75.207L123.507,75.207z"/>
	<path fill="#D40000" d="M79.652,101.73c5.715-0.382,8.691,4.5,9.273,8.348c0.348,0.609,0.54,0.438,0.672-0.035
		c0.277-4.938,4.699-8.977,8.793-8.422c6.658,0.086,10.711,7.5,9.572,13.774c-1.391,7.664-5.521,12.281-8.646,17.035
		c-3.535,4.922-8.297,12.031-9.833,15.453c0,0-4.84-7.363-11.133-16.023c-4.211-5.788-7.578-12.064-7.89-17.466
		C70.101,108.219,72.632,102.684,79.652,101.73L79.652,101.73z"/>
	<path fill="#D40000" d="M35.879,75.207c5.714-0.379,8.695,4.5,9.277,8.348c0.348,0.613,0.535,0.441,0.668-0.032
		c0.281-4.941,4.703-8.976,8.797-8.425c6.66,0.086,10.711,7.5,9.57,13.773c-1.391,7.668-5.519,12.281-8.644,17.035
		c-3.536,4.922-8.297,12.031-9.832,15.453c0,0-4.84-7.363-11.133-16.023c-4.211-5.789-7.578-12.066-7.895-17.469
		C26.332,81.695,28.863,76.164,35.879,75.207L35.879,75.207z"/>
	<path fill="#D40000" d="M123.507,174.719c5.716,0.379,8.691-4.5,9.272-8.348c0.349-0.613,0.539-0.441,0.673,0.031
		c0.276,4.939,4.698,8.977,8.793,8.426c6.664-0.086,10.711-7.5,9.573-13.777c-1.392-7.664-5.521-12.277-8.647-17.031
		c-3.534-4.922-8.297-12.029-9.832-15.453c0,0-4.836,7.363-11.133,16.023c-4.211,5.789-7.578,12.063-7.892,17.465
		C113.957,168.229,116.492,173.762,123.507,174.719L123.507,174.719z"/>
	<path fill="#D40000" d="M123.507,226.805c5.716,0.379,8.691-4.504,9.272-8.352c0.349-0.609,0.539-0.438,0.673,0.035
		c0.276,4.938,4.698,8.977,8.793,8.422c6.664-0.086,10.711-7.5,9.573-13.773c-1.392-7.664-5.521-12.281-8.647-17.035
		c-3.534-4.922-8.297-12.031-9.832-15.453c0,0-4.836,7.363-11.133,16.023c-4.211,5.793-7.578,12.066-7.892,17.469
		C113.957,220.313,116.492,225.848,123.507,226.805L123.507,226.805z"/>
	<path fill="#D40000" d="M35.879,226.805c5.714,0.379,8.695-4.504,9.277-8.352c0.348-0.609,0.535-0.438,0.668,0.035
		c0.281,4.938,4.703,8.977,8.797,8.422c6.66-0.086,10.711-7.5,9.57-13.773c-1.391-7.664-5.519-12.281-8.644-17.035
		c-3.536-4.922-8.297-12.031-9.832-15.453c0,0-4.84,7.363-11.133,16.023c-4.211,5.793-7.578,12.066-7.895,17.469
		C26.332,220.313,28.863,225.848,35.879,226.805L35.879,226.805z"/>
	<path fill="#D40000" d="M35.879,174.719c5.714,0.379,8.695-4.5,9.277-8.348c0.348-0.613,0.535-0.441,0.668,0.031
		c0.281,4.939,4.703,8.977,8.797,8.426c6.66-0.086,10.711-7.5,9.57-13.777c-1.391-7.664-5.519-12.277-8.644-17.031
		c-3.536-4.922-8.297-12.029-9.832-15.453c0,0-4.84,7.363-11.133,16.023c-4.211,5.789-7.578,12.063-7.895,17.465
		C26.332,168.229,28.863,173.762,35.879,174.719L35.879,174.719z"/>
	<path fill="#D40000" d="M159.917,205.348c-1.267,2.777-1.405,7.523,2.375,8.168c2.853,0.367,4.013-0.961,4.242-2.996
		c0.112-0.594,0.448-0.629,0.555,0.047c0.164,2.092,2.229,3.311,3.845,3c4.422-0.754,4.164-5.619,2.719-8.922
		c-2.185-4.387-4.479-7.15-6.594-11.563C164.628,197.676,161.852,201.406,159.917,205.348L159.917,205.348z"/>
</g>
</svg>
