<?xml version="1.0" encoding="utf-8"?>
<!-- Generator: Adobe Illustrator 15.0.0, SVG Export Plug-In . SVG Version: 6.00 Build 0)  -->
<!DOCTYPE svg PUBLIC "-//W3C//DTD SVG 1.1//EN" "http://www.w3.org/Graphics/SVG/1.1/DTD/svg11.dtd">
<svg version="1.1" id="Layer_1" xmlns="http://www.w3.org/2000/svg" xmlns:xlink="http://www.w3.org/1999/xlink" x="0px" y="0px"
	 width="178.582px" height="249.449px" viewBox="0 0 178.582 249.449" enable-background="new 0 0 178.582 249.449"
	 xml:space="preserve">
<g>
	<path fill="#FFFFFF" d="M7.904,0.2"/>
	<path fill="#D40000" d="M6.501,36.077V10.87H8.99v25.207H6.501z"/>
	<path fill="#D40000" d="M16.365,10.87c-2.395,0-4.321,2.153-4.321,4.821v15.57c0,2.668,1.926,4.816,4.321,4.816h1.394
		c2.398,0,4.328-2.148,4.328-4.816v-15.57c0-2.668-1.93-4.821-4.328-4.821H16.365z M17.087,13.253c1.414,0,2.551,1.07,2.551,2.402
		v15.778c0,1.332-1.137,2.406-2.551,2.406c-1.418,0-2.555-1.074-2.555-2.406V15.655C14.532,14.323,15.669,13.253,17.087,13.253
		L17.087,13.253z"/>
	<path fill="#D40000" d="M172.48,215.176v25.203h-2.492v-25.203H172.48z"/>
	<path fill="#D40000" d="M162.613,240.379c2.398,0,4.324-2.148,4.324-4.816v-15.567c0-2.668-1.926-4.815-4.324-4.815h-1.396
		c-2.395,0-4.322,2.147-4.322,4.815v15.567c0,2.668,1.931,4.816,4.322,4.816H162.613z M161.895,237.996
		c-1.414,0-2.556-1.066-2.556-2.398V219.82c0-1.332,1.142-2.406,2.556-2.406s2.557,1.074,2.557,2.406v15.777
		C164.449,236.93,163.309,237.996,161.895,237.996L161.895,237.996z"/>
	<path fill="#D40000" d="M6.816,49c-1.266-2.777-1.402-7.523,2.379-8.168c2.848-0.363,4.008,0.961,4.238,2.996
		c0.114,0.594,0.449,0.629,0.559-0.046c0.16-2.09,2.226-3.309,3.844-3c4.421,0.753,4.164,5.621,2.718,8.921
		c-2.183,4.387-4.48,7.153-6.597,11.563C11.527,56.672,8.754,52.942,6.816,49L6.816,49z"/>
	<path fill="#D40000" d="M35.022,22.46c5.714-0.379,8.691,4.504,9.273,8.348c0.348,0.613,0.539,0.441,0.672-0.031
		c0.277-4.942,4.699-8.977,8.793-8.426c6.66,0.086,10.711,7.5,9.574,13.777c-1.391,7.664-5.519,12.277-8.648,17.031
		c-3.536,4.922-8.297,12.032-9.832,15.453c0,0-4.836-7.363-11.133-16.023C29.51,46.8,26.143,40.527,25.83,35.124
		C25.471,28.948,28.002,23.417,35.022,22.46L35.022,22.46z"/>
	<path fill="#D40000" d="M79.967,48.593c5.715-0.379,8.695,4.5,9.277,8.348c0.344,0.613,0.536,0.441,0.669-0.032
		c0.276-4.941,4.698-8.976,8.793-8.425c6.664,0.086,10.711,7.5,9.573,13.773c-1.391,7.668-5.521,12.281-8.646,17.035
		c-3.537,4.922-8.302,12.031-9.832,15.453c0,0-4.841-7.363-11.138-16.023c-4.207-5.789-7.578-12.067-7.891-17.469
		C70.416,55.081,72.951,49.55,79.967,48.593L79.967,48.593z"/>
	<path fill="#D40000" d="M124.245,22.46c5.719-0.379,8.694,4.504,9.276,8.348c0.349,0.613,0.539,0.441,0.672-0.031
		c0.277-4.942,4.699-8.977,8.793-8.426c6.66,0.086,10.712,7.5,9.574,13.777c-1.394,7.664-5.521,12.277-8.647,17.031
		c-3.535,4.922-8.297,12.032-9.832,15.453c0,0-4.84-7.363-11.134-16.023c-4.211-5.789-7.577-12.062-7.896-17.465
		C114.698,28.948,117.229,23.417,124.245,22.46L124.245,22.46z"/>
	<path fill="#D40000" d="M124.245,74.726c5.719-0.379,8.694,4.5,9.276,8.347c0.349,0.614,0.539,0.438,0.672-0.035
		c0.277-4.937,4.699-8.972,8.793-8.422c6.66,0.086,10.712,7.5,9.574,13.774c-1.394,7.668-5.521,12.281-8.647,17.035
		c-3.535,4.922-8.297,12.031-9.832,15.453c0,0-4.84-7.363-11.134-16.023c-4.211-5.789-7.577-12.067-7.896-17.469
		C114.698,81.214,117.229,75.683,124.245,74.726L124.245,74.726z"/>
	<path fill="#D40000" d="M35.022,74.726c5.714-0.379,8.691,4.5,9.273,8.347c0.348,0.614,0.539,0.438,0.672-0.035
		c0.277-4.937,4.699-8.972,8.793-8.422c6.66,0.086,10.711,7.5,9.574,13.774c-1.391,7.668-5.519,12.281-8.648,17.035
		c-3.536,4.922-8.297,12.031-9.832,15.453c0,0-4.836-7.363-11.133-16.023c-4.211-5.789-7.578-12.067-7.891-17.469
		C25.471,81.214,28.002,75.683,35.022,74.726L35.022,74.726z"/>
	<path fill="#D40000" d="M124.245,174.236c5.719,0.38,8.694-4.504,9.276-8.353c0.349-0.608,0.539-0.438,0.672,0.035
		c0.277,4.938,4.699,8.978,8.793,8.426c6.66-0.086,10.712-7.5,9.574-13.776c-1.394-7.663-5.521-12.279-8.647-17.034
		c-3.535-4.923-8.297-12.03-9.832-15.452c0,0-4.84,7.361-11.134,16.021c-4.211,5.793-7.577,12.065-7.896,17.47
		C114.698,167.745,117.229,173.277,124.245,174.236L124.245,174.236z"/>
	<path fill="#D40000" d="M124.245,226.318c5.719,0.384,8.694-4.5,9.276-8.349c0.349-0.608,0.539-0.438,0.672,0.035
		c0.277,4.938,4.699,8.978,8.793,8.422c6.66-0.086,10.712-7.5,9.574-13.771c-1.394-7.664-5.521-12.28-8.647-17.035
		c-3.535-4.922-8.297-12.03-9.832-15.452c0,0-4.84,7.362-11.134,16.021c-4.211,5.789-7.577,12.065-7.896,17.47
		C114.698,219.831,117.229,225.364,124.245,226.318L124.245,226.318z"/>
	<path fill="#D40000" d="M79.592,200.277c5.715,0.38,8.695-4.502,9.277-8.352c0.348-0.607,0.536-0.438,0.668,0.035
		c0.281,4.938,4.699,8.979,8.793,8.428c6.664-0.092,10.715-7.506,9.574-13.779c-1.393-7.664-5.521-12.278-8.646-17.032
		c-3.539-4.925-8.302-12.031-9.833-15.453c0,0-4.84,7.36-11.133,16.022c-4.211,5.793-7.582,12.064-7.895,17.468
		C70.041,193.788,72.576,199.32,79.592,200.277L79.592,200.277z"/>
	<path fill="#D40000" d="M35.022,174.236c5.714,0.38,8.691-4.504,9.273-8.353c0.348-0.608,0.539-0.438,0.672,0.035
		c0.277,4.938,4.699,8.978,8.793,8.426c6.66-0.086,10.711-7.5,9.574-13.776c-1.391-7.663-5.519-12.279-8.648-17.034
		c-3.536-4.923-8.297-12.03-9.832-15.452c0,0-4.836,7.361-11.133,16.021c-4.211,5.793-7.578,12.065-7.891,17.47
		C25.471,167.745,28.002,173.277,35.022,174.236L35.022,174.236z"/>
	<path fill="#D40000" d="M35.022,226.318c5.714,0.384,8.691-4.5,9.273-8.349c0.348-0.608,0.539-0.438,0.672,0.035
		c0.277,4.938,4.699,8.978,8.793,8.422c6.66-0.086,10.711-7.5,9.574-13.771c-1.391-7.664-5.519-12.28-8.648-17.035
		c-3.536-4.922-8.297-12.03-9.832-15.452c0,0-4.836,7.362-11.133,16.021c-4.211,5.789-7.578,12.065-7.891,17.47
		C25.471,219.831,28.002,225.364,35.022,226.318L35.022,226.318z"/>
	<path fill="#D40000" d="M157.871,202.801c-1.266,2.777-1.406,7.523,2.375,8.164c2.852,0.367,4.012-0.957,4.242-2.992
		c0.113-0.594,0.449-0.633,0.555,0.047c0.164,2.086,2.23,3.308,3.844,3c4.422-0.758,4.164-5.625,2.719-8.926
		c-2.184-4.383-4.479-7.148-6.594-11.563C162.582,195.125,159.805,198.854,157.871,202.801L157.871,202.801z"/>
</g>
</svg>
