<?xml version="1.0" encoding="utf-8"?>
<!-- Generator: Adobe Illustrator 15.0.0, SVG Export Plug-In . SVG Version: 6.00 Build 0)  -->
<!DOCTYPE svg PUBLIC "-//W3C//DTD SVG 1.1//EN" "http://www.w3.org/Graphics/SVG/1.1/DTD/svg11.dtd">
<svg version="1.1" id="Layer_1" xmlns="http://www.w3.org/2000/svg" xmlns:xlink="http://www.w3.org/1999/xlink" x="0px" y="0px"
	 width="178.582px" height="249.449px" viewBox="0 0 178.582 249.449" enable-background="new 0 0 178.582 249.449"
	 xml:space="preserve">
<g>
	<path fill="#FFFFFF" d="M8.504,0"/>
	<path fill="#D40000" d="M6.101,36.277V11.07H8.59v25.207H6.101z M6.101,36.277"/>
	<path fill="#D40000" d="M15.965,11.07c-2.395,0-4.321,2.153-4.321,4.821v15.57c0,2.668,1.926,4.816,4.321,4.816h1.394
		c2.398,0,4.328-2.148,4.328-4.816v-15.57c0-2.668-1.93-4.821-4.328-4.821H15.965z M16.687,13.453c1.414,0,2.551,1.07,2.551,2.402
		v15.778c0,1.332-1.137,2.406-2.551,2.406c-1.418,0-2.555-1.074-2.555-2.406V15.855C14.132,14.523,15.269,13.453,16.687,13.453
		L16.687,13.453z M16.687,13.453"/>
	<path fill="#D40000" d="M172.48,213.176v25.203h-2.492v-25.203H172.48z M172.48,213.176"/>
	<path fill="#D40000" d="M162.613,238.379c2.398,0,4.324-2.149,4.324-4.817v-15.569c0-2.668-1.926-4.816-4.324-4.816h-1.395
		c-2.395,0-4.324,2.148-4.324,4.816v15.569c0,2.668,1.93,4.817,4.324,4.817H162.613z M161.894,235.996
		c-1.414,0-2.555-1.066-2.555-2.398V217.82c0-1.332,1.141-2.406,2.555-2.406s2.555,1.074,2.555,2.406v15.777
		C164.449,234.93,163.308,235.996,161.894,235.996L161.894,235.996z M161.894,235.996"/>
	<path fill="#D40000" d="M6.816,48.113c-1.266-2.777-1.402-7.523,2.379-8.168c2.848-0.363,4.008,0.961,4.238,2.996
		c0.114,0.594,0.449,0.629,0.559-0.046c0.16-2.09,2.226-3.309,3.844-3c4.421,0.753,4.164,5.621,2.718,8.921
		c-2.183,4.387-4.48,7.153-6.597,11.563C11.527,55.785,8.754,52.055,6.816,48.113L6.816,48.113z M6.816,48.113"/>
	<path fill="#D40000" d="M34.422,22.66c5.714-0.379,8.691,4.504,9.273,8.348c0.348,0.613,0.539,0.441,0.672-0.031
		c0.277-4.942,4.699-8.977,8.793-8.426c6.66,0.086,10.711,7.5,9.574,13.777c-1.391,7.664-5.519,12.277-8.648,17.031
		c-3.536,4.922-8.297,12.032-9.832,15.453c0,0-4.836-7.363-11.133-16.023C28.91,47,25.543,40.727,25.23,35.324
		C24.871,29.148,27.402,23.617,34.422,22.66L34.422,22.66z M34.422,22.66"/>
	<path fill="#D40000" d="M79.367,48.793c5.715-0.379,8.695,4.5,9.277,8.348c0.344,0.613,0.535,0.441,0.668-0.032
		c0.277-4.941,4.699-8.976,8.793-8.425c6.664,0.086,10.711,7.5,9.574,13.773c-1.391,7.668-5.52,12.281-8.645,17.035
		c-3.539,4.922-8.301,12.031-9.832,15.453c0,0-4.84-7.363-11.137-16.023c-4.207-5.789-7.578-12.067-7.891-17.469
		C69.816,55.281,72.351,49.75,79.367,48.793L79.367,48.793z M79.367,48.793"/>
	<path fill="#D40000" d="M123.644,22.66c5.719-0.379,8.695,4.504,9.277,8.348c0.348,0.613,0.539,0.441,0.672-0.031
		c0.277-4.942,4.699-8.977,8.793-8.426c6.66,0.086,10.711,7.5,9.574,13.777c-1.391,7.664-5.52,12.277-8.648,17.031
		c-3.535,4.922-8.297,12.032-9.832,15.453c0,0-4.84-7.363-11.133-16.023c-4.211-5.789-7.578-12.062-7.895-17.465
		C114.097,29.148,116.628,23.617,123.644,22.66L123.644,22.66z M123.644,22.66"/>
	<path fill="#D40000" d="M123.644,74.926c5.719-0.379,8.695,4.5,9.277,8.347c0.348,0.614,0.539,0.438,0.672-0.035
		c0.277-4.937,4.699-8.972,8.793-8.422c6.66,0.086,10.711,7.5,9.574,13.774c-1.391,7.668-5.52,12.281-8.648,17.035
		c-3.535,4.922-8.297,12.031-9.832,15.453c0,0-4.84-7.363-11.133-16.023c-4.211-5.789-7.578-12.067-7.895-17.469
		C114.097,81.414,116.628,75.883,123.644,74.926L123.644,74.926z M123.644,74.926"/>
	<path fill="#D40000" d="M34.422,74.926c5.714-0.379,8.691,4.5,9.273,8.347c0.348,0.614,0.539,0.438,0.672-0.035
		c0.277-4.937,4.699-8.972,8.793-8.422c6.66,0.086,10.711,7.5,9.574,13.774c-1.391,7.668-5.519,12.281-8.648,17.035
		c-3.536,4.922-8.297,12.031-9.832,15.453c0,0-4.836-7.363-11.133-16.023c-4.211-5.789-7.578-12.067-7.891-17.469
		C24.871,81.414,27.402,75.883,34.422,74.926L34.422,74.926z M34.422,74.926"/>
	<path fill="#D40000" d="M123.644,174.437c5.719,0.379,8.695-4.503,9.277-8.351c0.348-0.609,0.539-0.438,0.672,0.035
		c0.277,4.94,4.699,8.977,8.793,8.426c6.66-0.086,10.711-7.5,9.574-13.777c-1.391-7.665-5.52-12.281-8.648-17.036
		c-3.535-4.922-8.297-12.03-9.832-15.452c0,0-4.84,7.363-11.133,16.023c-4.211,5.793-7.578,12.066-7.895,17.468
		C114.097,167.945,116.628,173.479,123.644,174.437L123.644,174.437z M123.644,174.437"/>
	<path fill="#D40000" d="M123.644,226.52c5.719,0.382,8.695-4.5,9.277-8.348c0.348-0.61,0.539-0.438,0.672,0.035
		c0.277,4.938,4.699,8.977,8.793,8.422c6.66-0.086,10.711-7.5,9.574-13.774c-1.391-7.664-5.52-12.28-8.648-17.034
		c-3.535-4.923-8.297-12.031-9.832-15.453c0,0-4.84,7.362-11.133,16.023c-4.211,5.789-7.578,12.066-7.895,17.468
		C114.097,220.031,116.628,225.565,123.644,226.52L123.644,226.52z M123.644,226.52"/>
	<path fill="#D40000" d="M78.992,200.479c5.715,0.379,8.695-4.503,9.277-8.351c0.348-0.609,0.535-0.438,0.668,0.035
		c0.281,4.938,4.699,8.977,8.793,8.426c6.664-0.09,10.715-7.504,9.574-13.778c-1.391-7.664-5.52-12.28-8.645-17.034
		c-3.539-4.923-8.301-12.031-9.832-15.453c0,0-4.84,7.362-11.133,16.023c-4.211,5.793-7.582,12.066-7.895,17.468
		C69.441,193.988,71.976,199.522,78.992,200.479L78.992,200.479z M78.992,200.479"/>
	<path fill="#D40000" d="M34.422,174.437c5.714,0.379,8.691-4.503,9.273-8.351c0.348-0.609,0.539-0.438,0.672,0.035
		c0.277,4.94,4.699,8.977,8.793,8.426c6.66-0.086,10.711-7.5,9.574-13.777c-1.391-7.665-5.519-12.281-8.648-17.036
		c-3.536-4.922-8.297-12.03-9.832-15.452c0,0-4.836,7.363-11.133,16.023c-4.211,5.793-7.578,12.066-7.891,17.468
		C24.871,167.945,27.402,173.479,34.422,174.437L34.422,174.437z M34.422,174.437"/>
	<path fill="#D40000" d="M34.422,226.52c5.714,0.382,8.691-4.5,9.273-8.348c0.348-0.61,0.539-0.438,0.672,0.035
		c0.277,4.938,4.699,8.977,8.793,8.422c6.66-0.086,10.711-7.5,9.574-13.774c-1.391-7.664-5.519-12.28-8.648-17.034
		c-3.536-4.923-8.297-12.031-9.832-15.453c0,0-4.836,7.362-11.133,16.023c-4.211,5.789-7.578,12.066-7.891,17.468
		C24.871,220.031,27.402,225.565,34.422,226.52L34.422,226.52z M34.422,226.52"/>
	<path fill="#D40000" d="M157.871,200.801c-1.266,2.777-1.406,7.523,2.375,8.164c2.852,0.367,4.012-0.957,4.242-2.992
		c0.113-0.594,0.449-0.633,0.555,0.047c0.164,2.085,2.23,3.305,3.844,3c4.422-0.758,4.164-5.625,2.719-8.926
		c-2.184-4.383-4.48-7.148-6.594-11.563C162.582,193.125,159.804,196.854,157.871,200.801L157.871,200.801z M157.871,200.801"/>
</g>
</svg>
