<?xml version="1.0" encoding="utf-8"?>
<!-- Generator: Adobe Illustrator 15.0.0, SVG Export Plug-In . SVG Version: 6.00 Build 0)  -->
<!DOCTYPE svg PUBLIC "-//W3C//DTD SVG 1.1//EN" "http://www.w3.org/Graphics/SVG/1.1/DTD/svg11.dtd">
<svg version="1.1" id="Layer_1" xmlns="http://www.w3.org/2000/svg" xmlns:xlink="http://www.w3.org/1999/xlink" x="0px" y="0px"
	 width="178.582px" height="249.449px" viewBox="0 0 178.582 249.449" enable-background="new 0 0 178.582 249.449"
	 xml:space="preserve">
<g>
	<path fill="#FFFFFF" d="M8.504,0"/>
	<path fill="#E2CF00" d="M64.984,208.854l42.73,0.915c3.785,5.195,11.387,15.789,11.387,15.789l-69.039,0.906L64.984,208.854z
		 M47.101,212.473c1.848-3.7,2.203-7.27,1.852-12.411c-0.278-3.944,2.207-7.019,4.769-5.839c1.981,0.91,1.067,4.645-0.984,3.852
		c-0.781-0.302-1.469-0.027-1.367,1.746c0.183,4.37,1.355,9.293,0.347,13.48C51.019,217.371,45.386,215.496,47.101,212.473
		L47.101,212.473z M29.8,206.766c-2.175-3.243,1.723-6.286,4.165-4.786c1.156,0.536,0.992,1.707-0.465,1.082
		c-2.035-0.871-4.227,2.215-2.457,3.454c0.816,0.57,1.129,0.492,0.507-0.223c-1.652-1.906,2.571-2.75,2.45-1.492
		c-0.289,1.531-0.325,2.176-0.465,2.477C32.675,208.613,31.019,207.93,29.8,206.766L29.8,206.766z M35.867,193.125
		c-0.266-0.781-0.914-1.728-0.988-2.781c0.691-1.926,1.636-2.461,0.488-4.668c-1.34-4.895-4.836-9.813-3.957-9.98
		c7.953-0.841,15.953-0.391,23.918-0.145c0,0-4.758,7.465-5.942,11.351c-0.48,1.591,0.914,3.298,0.254,4.423
		c-1.047,1.78-1.769,2.461-1.488,2.801c0.59,0.715-0.492,2.062-0.566,2.008c-3.586-0.461-7.133-1.051-11.114-0.258
		C36.179,195.875,36.148,194.211,35.867,193.125L35.867,193.125z M70.289,112.051c3.918,21.047-1.934,42.097-15.5,56.156
		c-1.918-1.832-3.387-5.31-5.301-7.574c-5.309-1.586-9.133,0.277-12.856,2.105c-3.308-1.895-7.035-3.012-10.667-2.961l-0.118-3.148
		c3.676-0.078,7.559,0.262,10.832,2.273l5.121-2.066l-15.968-16.469l0.215-2.813l14.226,14.684
		c6.899-14.207,5.969-30.395,29.477-40.398C69.75,111.84,70.136,111.953,70.289,112.051L70.289,112.051z M97.304,137.594
		l2.801,13.285c0,0-14.808,15.854-23.965,23.387l-6.902-0.625c0,0,9.426-16.664,7.699-15.391L97.304,137.594z M152.984,155.812
		c-6.578,7.321-14.438,11.978-23.164,17.106c-3.492-3.875-7.727-8.137-10.172-11.957c-0.121-0.199,5.543-2.703,11.168-6.188
		c5.75-3.562,11.367-8.136,11.16-8.069c-0.406,0.457-9.512,3.526-9.48,3.176l-0.594,2.566l-1.02,0.273
		c-1.754-2.434-3.449-4.41-6.211-5.5c-1.16,0.105-2.703-0.657-2.699-0.657c0.773-0.16,0.43-9.5,0-9.608c0,0,0.227-0.277,2.254-0.234
		c3.617-0.25,5.953-4.598,8.195-6.086c7.016-0.574,13.227,0.113,20.133-0.074C152.503,138.875,152.984,147.496,152.984,155.812
		L152.984,155.812z M108.453,134.75c-0.176-0.353-1.945-14.129-0.266-22.77c0.309-2.027,3.523-2.714,4.137-4.222
		c1.023-3.285-0.512-7.336,0.297-11.016c0.824-3.742,2.605-5.847,4.16-8.633c1.688-3.011,4.102-6.773,6.777-9.023
		c0.785-0.762,3.527,1.699,5.578,5.957c0.727,1.035,5.246,1.746,8.211,1.336c4.16-0.781,5.277-3.77,7.637-0.969
		c2.813,1.781,7.406,2.27,7.406,2.27l-0.215,2.886c0,0-9.43-1.703-9.5-2.402c0,0-5.148,1.664-5.148,2.004
		c0,1.449,14.777,15.07,14.777,15.07l0.086,3.36c-2.215-3.067-19.551-17.817-19.551-17.817
		C136.683,113.219,127.503,127.195,108.453,134.75L108.453,134.75z M83.656,130.358l-0.332-13.213l12.629,0.148l0.52,13.354
		L83.656,130.358z M25.863,116.074c0.34-0.469-0.488-24.629-0.438-24.629c8.04-7.953,15.899-12.402,23.782-17.238
		c3.562,3.512,6.531,6.395,9.156,10.648l-10.715,6.836c-0.676,1.082,3.516,7,6.274,7.704c0.293,0.074,1.367-0.356,1.871-0.34
		c0.679,0.023,0.988,0.832,0.941,1.285c-0.949,4.066,0.422,7.519,0.602,9.703c0.031,0.402-0.715,0.297-0.883,0.641
		c-0.262,0.527-1.496-0.5-2.43-0.696c-1.512-0.32-3.109,1.192-3.797,1.821c-1.832,1.664-0.66,4.726-4.347,4.589
		C39.117,116.148,25.484,116.602,25.863,116.074L25.863,116.074z M101.949,72.992c0.086-0.086,6.871,0.055,6.781,0.297
		c-1.234,3.297-4.305,9.152-7.113,15.906c-3.234,5.758-7.727,9.153-11.559,12.926c-3.063,3.016-5.793,7.77-7.886,6.535
		c-1.278-4.086-1.575-7.711-2.985-12.238C78.543,93.734,82.461,91.988,101.949,72.992L101.949,72.992z M131.64,50.34
		c2.488,1.055,9.469,0.504,10.578,0.027c1.422,0.961,0.535,2.238,0.355,2.949c1.457,1.836,2.254,2.489,0.602,5.45
		c-0.121,0.015,4.262,10.39,4.262,10.39c-0.418,0.235-1.012,0.481-1.738,0.723c-1.047,0.351-4.605-2.996-4.605-2.996
		c-0.199-0.934-4.484,4.851-4.484,4.851l-4.633-5.957c-0.016,0.535-8.922,6.418-9.031,6.133c-0.277-0.277,8.133-9.293,6.465-14.586
		c-0.402-1.277,0.52-2.574,1.148-3.695C130.988,52.855,130.41,51.367,131.64,50.34L131.64,50.34z M125.976,52.883
		c-1.727-0.863-1.809-3.516,0.438-3.387c0.836,0.047,0.836-0.312,0.406-4.547c-0.598-5.84-0.234-10.265,0.789-11.691
		c1.164-1.629,3.273-1.711,4.152-0.379c0.672,1.851-1.332,4.43-1.734,5.687c-1.305,3.508,0.555,8.137-0.391,11.45
		C128.921,52.27,127.332,53.559,125.976,52.883L125.976,52.883z M145.863,44.32c-1.531-0.195-0.48-4.578-0.207-5.644
		c-0.004-0.254,2.73-0.887,3.719,0.859C150.968,42.141,149.054,45.434,145.863,44.32L145.863,44.32z M128.07,21.941l-14.055,17.02
		c-14.211-1.629-28.472-2.664-43.004-0.449L59.328,22.281L128.07,21.941z M128.07,21.941"/>
	<path fill="#131F67" d="M153.574,20.695L23.547,21.098l1.425,206.41l129.731-0.766L153.574,20.695z M123.656,21.961
		c1.426,0,2.852,0.004,4.277,0.008l-15.566,19.066l-0.383,0.125c1.039,3.027,2.52,6.801,3.934,9.664
		c2.25,4.629,7.91,13.137,4.379,19.946c-0.344,0.582-0.668,0.867-1.102,0.863c-0.598-0.004-0.586-0.352-0.23-1.035
		c0.789-1.504,1.32-5.071,1.008-6.953c-0.203-1.208-0.875-3.063-2.148-5.868c-5.918-10.875-7.766-16.675-7.43-16.675
		c-0.078-0.047-0.211-0.114-0.426-0.165l-0.582-0.195c2.051,6.879,5.383,12.66,8.02,18.012c2.16,4.976,2.395,6.906,1.262,10.527
		c-0.438,1.403-1.227,2.301-2.008,2.297c-0.582-0.004-0.547-0.121-0.152-0.832c2.074-3.707,1.594-7.75-0.98-12.453
		c-3.742-7.766-5.988-12.68-7.32-17.664c-0.031-0.004-0.684-0.219-0.914-0.274c1.109,5.184,4.207,11.168,7.094,17.29
		c2.387,4.714,3.074,8.152,2.215,10.863c-0.281,1.179-1.184,2.929-2.32,2.98c-0.445,0-0.516-0.23-0.094-0.836
		c1.766-3.019,2.082-5.804-1.082-12.144c-2.91-5.828-5.828-12.352-6.824-18.051c-0.066-0.469-1.328-1.02-1.059-0.246
		c1.563,6.73,4.672,13.621,7.977,20.344c1.859,4.168,2.051,6.84,0.656,9.172c-0.781,1.304-0.977,1.601-1.563,1.617
		c-0.691,0.011-0.68,0.039-0.297-0.754c1.688-3.508,1.41-6.598-0.848-11.668c-3.09-6.953-5.695-12.707-6.809-18.824
		c-0.199-0.059-1.246-0.461-1.098-0.157c1.547,5.829,3.527,11.239,6.078,16.711c0.887,1.899,2.328,5.59,2.793,7.438
		c0.883,3.523-1.105,8.359-3.707,8.601c-0.973,0.094-0.852-0.39,0.23-1.39c1.859-1.727,2.223-4.481,1.59-7.672
		c-0.473-2.461-1.289-5.098-2.414-7.777c-2.27-5.422-4.742-11.098-5.523-16.102c0.027-0.445-1.016-0.449-0.719,0.02
		c0.559,3.519,1.902,7.527,3.367,11.25c1.609,4.07,4,8.632,4.781,13.628c0.641,4.09-1.918,7.95-5.023,8.18
		c-3.742,0.277-4.477-3.414-3.578-5.141c1.469-2.585,5.73-1.109,4.465,1.532c-0.73,1.519-2.957,1.121-2.863-0.547
		c-0.027-0.152,0.215-0.61,0.172-0.633c-0.078-0.047-0.406,0.254-0.508,0.441c-0.758,1.348,1.516,3.161,3.094,2.075
		c5.297-2.86,1.723-11.582-0.586-16.91c-2.234-4.965-3.875-9.45-4.586-14.047c-0.195-0.133-1.066-0.352-0.945-0.196
		c0.641,2.453,0.938,4.52,1.574,6.582c1,3.231,2.797,6.848,4.262,10.473c1.328,3.566,2.664,6.598,2.055,10.313
		c-0.055,0.343-0.195,0.757-0.43,1.007c-0.238,0.25-0.438,0.211-0.508-0.738c-0.023-0.129-0.191-0.297-0.215-0.461
		c0.129-1.398,0.035-2.781-0.328-4.098c-0.309-1.097-0.898-2.222-2.145-4.359c-0.488-0.797-1.773-3.23-1.324-1.551
		c0.258,0.953,1.141,3.067,2.059,4.598c0.57,0.949,1.168,3.547,0.988,4.047c-0.184,0.488-0.621,0.519-0.82,0.347
		c-0.184-0.152-0.184-0.843-0.23-1.273c-0.191-1.762-2-4.84-3.258-6.047c-0.898-1.004,2.125,4.266,2.348,5.672
		c0.094,0.594,0.281,1.078,0.074,1.367c-0.133,0.196-0.402,0.196-0.672,0.129c-0.254-0.066-0.242-0.242-0.516-1.148
		c-0.465-1.547-1.035-2.328-2.227-3.723c-0.41-0.48-0.68,0.117-0.031,0.895c0.898,1.414,1.574,2.32,1.805,4.14
		c-0.582,0.824-0.871,0.664-2.09-1.422c-0.805-1.379-1.289-1.734-1.5-1.722c-0.531,0.023-0.027,0.683,1.469,3.039
		c0.777,1.258,0.797,2.039-0.086,2.035c-0.297,0-1.977-1.84-2.395-2.637c-0.348-0.664-0.781-1.172-0.781-0.363
		c0,0.32,1.035,2.016,1.75,2.836c1.121,1.297,1.441,1.555,1.586,2.129c0.066,0.273,0.203,0.754,0.301,1.062
		c0.285,0.934,0.141,1.199-0.441,0.707c-0.262-0.691-0.477-0.761-1.199-1.293c-0.609-0.449-1.453-1.609-2.008-2.429
		c-0.211-0.309-0.391-0.704-0.602-1.02c-0.547-1.012-1.27-1.098-0.746-0.078c0.25,0.477,0.648,1.254,1.07,1.828
		c0.703,1.004,0.559,1.524-0.277,1.52c-0.359,0-1.359-1.309-1.984-2.336c-0.41-0.664-1.047-1.137-0.969-0.477
		c0.02,0.164,0.512,1.336,1.254,2.254c0.801,0.996,0.906,1.527,0.129,1.523c-0.535-0.003-0.992-0.507-1.672-1.543
		c-0.645-0.98-1.047-1.324-1.23-1.214c-0.23,0.144,0.926,2.086,1.875,3.148c0.898,1.004,0.242,1.574-0.793,0.684
		c-0.559-0.485-1.68-1.93-1.996-2.618c-0.563-1.226-0.926-0.89-0.563,0.083c0.402,1.07,1.027,2.242,1.781,3.003
		c0.395,0.403,1.211,0.715,1.609,1.059c1.129,0.973,1.844,1.867,1.75,2.027c-3.215,0.184-5.855-3.238-6.578-5.308
		c-0.512-1.364-1.098-1.563-0.543,0.359c1.566,4.777,6.457,7.258,9.836,5.117c2.039-1.293,0.238-4.656-1.434-3.57
		c-0.453,0.293-0.473,1.129,0.105,0.684c1.082-0.84,2.172,1.23,0.988,1.843c-1.66,0.864-3.508-0.824-2.375-2.871
		c1.117-2.097,5.598-0.894,4.723,2.496c-0.531,1.524-2.859,3.422-4.852,3.461c-3.707,0.071-6.265-2.761-7.691-5.558
		c-0.34-0.668-1.184-2.547-1.227-2.539c0.414,3.394,3.672,7.625,6.586,8.316c4.844,1.137,6.168-1.742,9.336-4.715
		c0,0,2.313,0.301,2.395,0.254c0.215-0.133,4.504-0.324,4.633-0.203c-17.332,31.32-16.016,68.504-1.109,96.727
		c0.984,2.063,1.156,1.671-0.477,1.25c-1.684-0.438-3.215,0.238-4.586-0.079c-2.832-0.577-3.434,1.353-5.613,2.379
		c-2.715,1.024-2.102,2.907-2.746,4.724c-0.207,0.281-0.359,0.496-0.25,0.461c0.18-0.063,0.766-0.578,0.809-1.051
		c0.113-1.203,0.543-2.152,1.035-2.634c0.465-0.456,0.793-0.687,0.906-0.487c0.09,0.151,0.023,0.69-0.207,1.125
		c-0.66,1.242,0.215,5.391,0.27,2.438c0.043-2.344,1.465-4.957,3.461-6.023c1.594-0.781,2.09-0.699,0.793,0.496
		c-1.477,1.57-2.48,3.398-2.543,5.672c-0.023,0.94,0.352,1.73,0.488,0.883c-0.059-4.328,4.285-9.152,8.941-6.754
		c0.23,0.164,0.426,0.479,0.359,0.656c-4.512-0.754-8.434,1.698-7.855,7.516c0,0,0.406-1.141,0.633-2.277
		c0.711-3.559,4.75-5.118,7.582-4.141c0.535,0.223,0.953,0.973,0.879,1.074c-3.465-1.086-7.27,2.18-7.488,5.715
		c-0.074,1.152-0.047,2.137,0.543,0.062c2.238-7.858,9.145-4.296,8.293-3.651c-5.34-0.638-7.273,2.948-7.152,7.09
		c0.078,0.379,0.273,0.508,0.434,0.859c0.711,1.559,1.035,2.898,1.094,5.73c-0.055,0.73,0.551,5.375-0.063,5.179
		c-1.938-0.714-3.414-1.558-6.777-0.05c-0.301,0.016-0.402-0.153-0.297-0.414c0.141-0.352,0.664-1.047,1.582-2.075
		c2.066-2.19,0.879-1.604-0.82-0.082c-1.098,0.981-0.859,0.31,0.176-3.046c0.418-1.359,0.156-1.523-1.645-2.438
		c-1.855-0.938-3.137-1.082-1.563-0.099c0.617,0.375,1.273,0.771,1.977,1.048c0.82,0.448,0.727,0.637,0.121,2.598
		c-1.18,3.808-1.586,5.203-1.527,7.766c0.152,6.23,6.113,5.613,9.504,4.21l0.141,4.106l12.781,17.937c0,0-44.671-0.046-68.566,0.345
		c1.363-3.266,15.809-17.098,16.672-19.57c0.082,0.012-1.602-5.059-2.488-7.262c-4.18-10.414-9.672-14.789-6.489-21.633
		c0.684-1.355,0.801-1.813,1.321-1.809c0.707,0.004,0.933,0.468,0.14,1.797c-3.414,5.707,3.871,15.555,6.332,21.832
		c0.395,1.007,2.043,5.718,2.332,7.309c0.028,0.484,1.184,0.648,0.864,0.082c-0.91-3.207-2.047-6.716-2.578-7.977
		c-1.946-4.637-3.993-7.801-5.887-12.332c-1.063-2.864-1.625-6.172,0.019-9.141c0.598-1.082,0.77-1.681,1.164-1.738
		c0.34,0.004,0.54,0.117,0.563,0.395c0.023,0.305-0.164,0.801-0.613,1.563c-2.871,4.867,2.23,12.738,4.761,18.347
		c1.649,3.661,3.114,7.504,3.633,10.978c0.008,0.238,0.324,0.871,0.957,0.44c-1.093-6.483-4.308-12.765-7.125-18.819
		c-2.406-4.73-3.308-8.855-0.093-12.75c0.281-0.27,0.878-0.224,0.921,0.176c0.024,0.269-0.183,0.781-0.683,1.82
		c-2.832,5.902,1.551,10.695,3.609,16.323c2.004,4.704,3.871,8.657,4.621,13.668c0.571,0.216,0.852,0.485,0.91-0.226
		c-1.468-7.082-4.632-13.449-7.378-19.586c-1.266-2.664-1.715-3.942-1.801-5.728c-0.117-2.452,1.121-5.558,2.23-6.379
		c0.289-0.214,0.469-0.25,0.735-0.108c0.359,0.194,0.289,0.328-0.426,1.672c-1.363,2.57-1.481,5.453-0.215,8.508
		c2.18,4.688,4.019,8.531,5.32,11.98c1.426,3.77,2.227,7.039,2.551,9.996c0,0,0.973,0.43,0.828-0.216
		c-0.605-4.132-1.976-8.421-3.457-12.05c-1.394-3.426-3.144-6.723-4.562-10.118c-1.719-4.073-0.293-8.526,3.23-10.75l1.625,0.036
		c-0.098-0.043-3.699,1.382-3.891,6.52c-0.179,4.891,2.145,7.898,3.829,12.043c2.05,5,3.882,9.383,4.32,14.727
		c0.16,0.184,1.047,0.227,1.031,0.145c-0.433-3.595-1.488-7.009-2.992-11.207c-1.598-4.461-3.188-6.441-4.668-11.125
		c-1.004-3.172-0.867-7.466,1.367-9.427c3.344-3.366,8.008-0.968,6.84,2.884c-0.902,2.715-4.629,2.176-4.609-0.367
		c-0.004-1.642,2.023-2.086,2.691-0.849c0.156,0.243,0.262,1.298,0.332,1.341c0.07,0.039,0.277-0.832,0.281-1.027
		c0.004-1.348-1.832-2.484-3.199-1.797c-1.871,0.934-3.086,3.09-2.965,5.977c0.133,3.07,0.692,5.055,3.211,9.867
		c2.934,5.609,3.91,11.679,4.535,15.773c0.27-0.113,0.598,0.03,0.704,0c-0.43-5.578-2.27-11.309-4.563-16.07
		c-2.777-5.771-3.555-9.301-2.629-11.887c0.137-0.379,0.266-0.664,0.434-0.691c0.308-0.043,0.406,0.449,0.695,1.484
		c0.086,0.319-0.023,0.819-0.09,1.203c-0.242,2.366,1.422,7.289,2.969,9.477c0.453,0.625,1.031,0.601,0.531-0.504
		c-1.594-2.859-2.562-5.453-2.691-8.93c-0.035-1.02,1.156-0.563,1.183-0.052c0.086,1.661,0.254,3.618,1.051,5.009
		c1.613,2.754,2.516,2.875,0.86-0.199c-0.368-0.715-1.418-3.73-0.993-4.77c0.235-0.211,0.524-0.25,0.664-0.036
		c0.469,1.703,1.114,3.392,2.258,4.707c0.602,0.685,0.699,0.371,0.383-0.479c-0.527-0.988-2.176-4.289-1.414-5.031
		c0.242-0.203,0.102-0.094,0.766,0.988c0.925,1.508,1.433,2.098,1.882,2.539c0.598,0.586,0.746,0.19,0.125-0.84
		c-1.238-2.056-1.941-3.766-1.504-4.199c0.426-0.422,0.532-0.228,1.508,1.43c0.434,0.738,1.063,1.824,1.282,2.082
		c0.21,0.254,0.406,0.32,0.41,0.109c-0.227-2-1.95-4.281-2.645-4.676c-0.097-0.188-0.062-1.766-0.062-1.766
		c2.59,1.328,2.695,2.828,4.41,5.136c0.176,0.169,0.426-0.038,0.351-0.358c-0.058-0.435-1.074-2.353-1.711-3.195
		c-0.5-0.664-0.523-1.043-0.097-1.234c0.683-0.309,1.644,0.707,2.664,2.52c0.473,0.844,1.105,1.332,1.109,0.89
		c0-0.241-0.883-2.414-1.488-3.043c-1.016-1.042-0.512-1.772,0.66-0.808c0.531,0.441,1.254,0.769,1.996,2.367
		c0.434,0.93,0.805,1.051,0.809,0.309c0-0.836-1.41-2.879-2.36-3.446c-0.734-0.437-1.148-0.925-0.945-1.254
		c0.645-0.94,3.25,1.466,4.141,3.7c0.261,0.66,0.722,0.996,0.832,0.707c0.203-0.148-0.324-1.762-0.867-2.508
		c-0.895-1.703-3.008-3.353-4.258-3.152c-0.242,0.039-0.91-1.359-0.91-1.359c3.195-0.516,6.296,3.293,6.847,4.719
		c1.051,2.703,1.582,2.387,0.664,0.016c-1.789-4.637-7.347-7.23-10.434-4.988c-1.758,1.277-0.707,4.327,1.101,3.813
		c0.719-0.27,1.414-1,0.153-0.758c-1.407,0.141-1.856-1.992-0.422-2.418c2.304-0.688,2.832,2.969,0.972,3.785
		c-1.933,0.823-3.855-0.406-3.675-2.516c0.343-3.992,5.269-5.148,10.132-1.918c1.368,0.906,3.051,3.867,3.629,5.742
		c0.191,0.621,0.832,0.836,0.914,0.758c0.184-0.184-1.352-3.477-1.855-4.313c-2.117-4.828-9.773-5.066-9.773-4.816
		c0,0-3,1.879-5.665,4.973l-6.843-0.625c17.433-27.867,18.804-68.84,0.922-97.843c0.23,0.148,3.437,0.972,4.546,0.105
		c0.817-0.391,1.051-0.523,1.95-0.199c1.015,0.363,2.086,0.039,3.187-0.965c0.836-0.758,0.852-0.992,1.387-0.922
		c1.59,0.203,2.641-0.723,2.969-3c0.129-0.894,0.218-1.824,0.086-1.691c-0.075,0.082-0.258,0.855-0.375,1.343
		c-0.321,1.336-0.618,1.829-1.141,2.266C82,73.508,81.5,73.105,81.859,72.012c0.34-0.703,0.625-2.516,0.156-3.34
		c-0.082-0.149-0.101,0.414-0.218,0.863c-0.946,3.57-1.93,5.383-3.641,5.801c-0.801,0.195-1.172,0.074-0.91-0.383
		c3.011-3.195,2.808-6.738,2.582-6.438c-0.641,2.05-1.828,5.105-3.785,6.359c-1.688,1.086-4.157,1.187-5.532,0.277
		c-0.781-0.515,0.399-0.668,2.164-0.691c2.977-0.043,5.758-3.996,5.297-7.332c-0.109-0.617-0.277,0.043-0.519,1.058
		c-1.098,3.61-2.981,6.145-7.285,5.391c-0.336-0.058-0.559-0.281-0.743-0.406c-0.703-0.485-0.445-0.817,0.95-0.633
		c3.109,0.402,5.82-2.5,5.8-6.012c-0.007-1.683-0.25-1.664-0.519-0.41c-0.379,1.77-1.762,7.192-6.793,5.422
		c-0.906-0.488-1.402-1.117-1.078-1.207c2.933,0.59,5.625-0.055,6.672-3.891c0.449-1.656,0.343-3.277-0.117-4.632
		c-0.145-0.918-0.458-1.622-0.563-2.559c-0.281-2.504-0.68-5.273-0.562-8.016c0.242-0.238,0.285-0.187,1.128,0.371
		c1.661,1.098,2.914,0.844,4.602,0.196c2.168-0.781,1.973-0.641-0.297,1.914c-0.473,0.531-0.953,1.18-1.004,1.281
		c-0.578,1.078,0.504,0.285,1.317-0.73c1.125-1.411,1.363-1.735,1.586-1.735c0.074,1.528-0.477,3.379-0.762,4.629
		c-0.375,1.387-0.371,1.707,0.515,2.063c0.383,0.152,1.125,0.457,1.536,0.652c1.859,0.883,1.687,0.164,0.207-0.668
		c-2-1.125-2.016-1.07-1.442-2.937c0.668-2.188,0.996-4.083,1.36-6.25c0.898-5.36-3.161-8.305-8.555-6.434
		c-0.309,0.152-0.664-2.816-0.613-3.602c0.047-0.285-0.817-0.222-1.524-1.086c0.215-0.191-7.953-10.378-11.758-16.558
		C80.84,22.312,102.265,21.953,123.656,21.961L123.656,21.961z M110.394,41.102c0.051,0.035,0.082,0.062,0.082,0.062
		C110.441,41.121,110.414,41.102,110.394,41.102L110.394,41.102z M128.878,22.445h22.875l0.332,49.274l-2.027,0.047
		c0,0-3.82-6.539-4.824-9.629c-0.254-0.774-0.691-1.836-0.863-2.25c-0.387-0.946-0.66-1.063-0.145-1.641
		c1.035-1.156,0.832-3.496-0.172-4.625c-0.313-0.367-0.473-0.242-0.457-1.129c0.012-0.765,0.086-1.254-0.117-1.648
		c-0.34-0.66-0.57-0.707-0.086-1.434c0.512-0.758,1.188-1.992,1.473-2.957c0.457-1.566,0.133-1.859,1.16-1.488
		c2.574,0.812,4.73-1.016,4.66-3.598c-0.055-2.176-2.098-4.117-4.477-3.519c-0.547,0.136-0.652,0.089-1.496-0.438
		c-0.242-0.152-0.613-0.473-0.922-0.59c-0.395-0.148-0.715-0.136-0.879-0.414c-0.32-0.547-1.313-1.414-2.523-1.359
		c-0.742,0.035-1.699-0.231-1.957-0.363c-0.422-0.219-1.605-0.039-3.113-0.266c-0.668-0.102-1.207,0.16-1.531,0.164
		c-0.926,0.012-0.551-0.105-0.727-0.805c-1.16-3.66-4.555-3.222-6.109-0.472c-0.57,1.082-0.984,2.683-1.199,4.336l-9.141-0.137
		L128.878,22.445z M58.14,22.551c3.414,4.328,6.68,9.176,10.121,13.59c4.239,5.347,4.375,5.964,3.239,11.347
		c-0.637,3.043-0.907,3.746-2.196,3.516c-1.211-0.219-2.234,0.73-2.402,1.93c-0.309,2.253,1.871,3.64,4.063,2.515
		c1.156-0.597,1.195-0.66,0.808,1.305c-0.551,2.812-1.656,5.238-2.367,5.16c-1.836-3.883-6.305-1.121-4.82,2.914
		c-0.465,0.703,0.144,1.598,0.379,2.336c0,0,0.007,0.086-2.543,0.93C49.89,71.785,34.367,81.43,25.89,90.484l-0.574-67.746
		L58.14,22.551z M130.05,31.797c0.523-0.016,1.031,0.152,1.449,0.527c1.094,0.977,0.836,2.344-0.676,4.914
		c-1.586,3.582-1.152,6.407-0.789,10.168c-0.012,2.188-0.754,4.262-1.934,5.16c-1.914,1.454-4.273-0.492-3.277-2.468
		c0.508-0.981,1.586-0.407,1.84-1.336c0.09-0.555,0.082-1.426,0.141-1.84c-0.227-1.649-0.699-6.68-0.703-8.426
		c0.02-1.504,0.516-3.394,1.199-4.812C127.968,32.504,129.046,31.82,130.05,31.797L130.05,31.797z M133.062,37.641
		c-0.434,0.359-1.156,0.367-1.242-0.082c0.004-0.469,0.371-1.973,0.629-2.137C134.015,35.055,133.515,37.254,133.062,37.641
		L133.062,37.641z M135.406,35.297c1.293-0.047,2.148,3.254,1.023,5.183c-0.211,0.04-1.781,0.032-1.789,0.059
		c-0.027-0.344,0.074-1.031,0.191-1.691c0.102-0.563,0.16-0.993-0.012-1.598C134.394,35.738,134.121,35.453,135.406,35.297
		L135.406,35.297z M137.875,35.344c0.047,0,0.098,0,0.148,0c1.316,0.008,2.066,2.539,1.652,5.304
		c-0.059,0.395-0.094,0.813-0.238,0.907c-0.551-0.149-2.074,0.394-2.102,0.39c-0.145-0.148-0.086-0.933,0.109-1.644
		c0.359-1.313,0.461-2.184,0.035-3.539C137.179,35.586,137.167,35.363,137.875,35.344L137.875,35.344z M141.148,36.074
		c1.445,0.242,1.539,4.231,0.945,5.528c-0.141,0.191-0.688,0.144-0.879,0.214c-1.23,0.352-0.957,0.536-0.813-1.414
		c0.098-1.34,0.121-2.379-0.082-3.484c-0.098-0.484-0.137-0.82,0.219-0.852C140.742,36.023,140.96,36.031,141.148,36.074
		L141.148,36.074z M133.941,37.633c0.574,0.785,0.113,2.605-0.328,3.281c-0.5,0.746-0.703,0.809-0.43,1.133
		c0.117,0.14,0.359,0.844,0.211,1.14c-0.277,0.547,0.43,0.645,1.074,0.981c1.043,0.543,1.547,1.543,2.324,3.367
		c0.273,0.637,0.828,0.438,0.559-0.246c-0.23-0.586-0.32-1.449-0.48-2.027c-0.168-0.59,0.016-0.887,0.699-0.711
		c1.031,0.258,0.887,0.015,1.262-0.121c0.828-0.457,1.379,0.187,0.883,0.543c-0.285,0.207-0.898,0.332-1.574,0.515
		c-0.57,0.16-0.438,0.711,0.137,0.707c0.535-0.004,2.063-0.429,3.059-0.73c2.855-0.863,2.949-1.32,2.684,0.301
		c-0.352,2.144-1.523,3.75-3.461,4.296c-1.688,0.473-5.582,0.383-7.316-0.171c-1.648-0.746-1.758-1.266-2.254-2.715
		c-0.684-1.981-1.086-5.336-0.301-7.289c0.691-1.645,0.621-1.473,1.281-1.391c0.59,0.207,1.383-0.023,1.559-0.383
		C133.617,37.941,133.839,37.629,133.941,37.633L133.941,37.633z M144.875,38.82c0.164,0.883,0.18,1.789-0.129,2.473
		c-0.176,0.32-1.176,0.301-1.563,0.309c-0.23,0.05-0.211-2.981,0.035-3.313C143.8,37.418,144.55,38.117,144.875,38.82L144.875,38.82
		z M115.902,38.297l2.828,0.035v0.688l-3.336-0.024L115.902,38.297z M125.796,38.414l0.004,0.895l-4.258,0.007v5.586l4.766,0.016
		l0.023,1.16l-6.375-0.023l0.02-7.637L125.796,38.414z M147.445,38.238c4.367,0.957,2.418,5.782,0.781,6.071
		c-2.039,0.367-3.766,0.136-3.203-1.657c0.57-1.215,0.176-2.73,0.336-3.836C145.753,38.453,146.781,38.09,147.445,38.238
		L147.445,38.238z M114.527,39.93l4.203,0.043v0.922l-4.801-0.012L114.527,39.93z M123.863,40.781c0.668,0,1.215,0.543,1.215,1.215
		c0,0.668-0.547,1.215-1.215,1.215c-0.672,0-1.215-0.547-1.215-1.215C122.648,41.324,123.191,40.781,123.863,40.781L123.863,40.781z
		 M135.718,41.262c0.781,0.086,0.848,1.281,0.527,1.629c-0.406,0.406-1.172,0.234-1.406-0.387
		C134.628,41.941,135.101,41.238,135.718,41.262L135.718,41.262z M113.355,41.781l5.375,0.016v0.75l-5.43,0.043l-0.145-0.481
		L113.355,41.781z M143.613,42.105c0.746-0.019,1.203,0.61,0.734,1.141C143.648,44.027,142.214,42.836,143.613,42.105
		L143.613,42.105z M86.336,43.738c-1.204,1.016-0.239,2.012,1.359,1.051c3.438-2.066,8.508-0.43,11.813,1.293
		c0.648,0.332,0.734-0.441,0.098-0.973C96.554,42.422,90.046,40.879,86.336,43.738L86.336,43.738z M138.421,42.324
		c0.84,0.004,0.828,1.051,0.289,1.426c-0.539,0.234-0.633,0.168-0.992,0.027C137.226,43.586,137.593,42.328,138.421,42.324
		L138.421,42.324z M141.394,42.34c0.996,0.051,0.883,2.051-0.617,1.332C140.23,43.086,140.585,42.336,141.394,42.34L141.394,42.34z
		 M113.613,43.371l5.223,0.047v0.852l-4.887-0.051L113.613,43.371z M79.855,45.375c1.426,1.129,0.985,1.199-1.383,0.367
		c-1.547-0.344-3.086-0.125-4.054,0.258c-1.145,0.453-1.411,0.32-0.914-0.445C74.836,44.062,78.507,44.363,79.855,45.375
		L79.855,45.375z M86.718,47.25c-0.144,0.352-0.632-0.285-1.293-0.16c-0.945,0.176-0.671,0.219,0.325,1.355
		c1,1.133,1.324,1.403,1.265,1.84c-0.09,0.645,0.09,0.996,0.731,0.926c0.308-0.035,0.676,0.324,1.148,0.754
		c1.633,1.484,2.461,2.222,2.992,2.449c2.164,0.934,1.188-0.117-0.195-1.074c-2.305-1.59-3.105-2.653-1.469-2.082
		c1.742,0.601,4.508,0.262,5.871-0.563c0.672-0.402,1.098-1.023,2.043-0.722c1.328,0.425,1.84-0.356,1.469-0.797
		c-0.602-0.387-1.98-0.848-3.285-1.727c-2.801-1.418-5.742-1.375-7.699-0.234c-1.156,0.672-1.559,0.199-0.426-0.469
		c4.543-2.445,8.137-0.101,11.043,1.656c0.504,0.305,0.855,0.282,0.859,0.067c-0.078-0.711-1.371-1.149-1.895-1.469
		C94.152,44.535,89.894,43.75,86.718,47.25L86.718,47.25z M114.296,45.082l4.539,0.004v0.894l-4.207-0.019L114.296,45.082z
		 M77.359,46.223c1.258-0.004,3.992,1.125,3.945,2.058c-0.05,0.356-0.738,0.035-1.332-0.328c-1.148-0.699-2.914-0.891-4.578-0.578
		c-1.273,0.238-1.679,0.445-1.863,0.293C73.09,46.68,76.191,46.23,77.359,46.223L77.359,46.223z M126.449,46.891l0.004,1.605
		c-2.461,0.18-2.969,2.918-1.391,4.445c1.297,1.25,3.441,0.754,4.516-1.015c0.188-0.317,0.211-0.508,0.328-0.352
		c0.07,0.098,0.133,0.399,0.191,0.688c0.172,0.843-0.07,1.058-0.629,1.781c-0.902,1.168-1.023,2.637-0.461,3.73
		c0.156,0.301,0.484,0.735,0.426,0.93c0.316-0.008-2.797,8.707-7.348,13.098c-0.758,0.504-1.313-0.09-0.918-0.906
		c3.703-8.469-3.383-16.333-6.137-23.903l11.414-0.101H126.449z M93.507,48.352l0.652,0.058c-0.523,3.902-4.309,3.274-4.457,0.094
		l0.547-0.02C90.988,51.441,93.519,50.23,93.507,48.352L93.507,48.352z M72.129,48.434c0,0,0.269,0.433,0.273,0.679
		c0,0.907-0.016,2.219-0.039,2.617c-0.219,3.754-4.984,4.45-4.621,1.239c0.285-1.364,2.008-1.516,2.43-0.282
		c0.617,1.551,0.73-0.375,0.738-0.976C71.414,50.766,71.781,49.617,72.129,48.434L72.129,48.434z M95.078,48.699
		c0.195,0.004,0.543,0.176,0.82,0.469c0.313,0.336,0.195,0.504-0.535,0.883c-0.793,0.406-1.152,0.371-0.867-0.453
		C94.671,49.086,94.828,48.691,95.078,48.699L95.078,48.699z M130.707,48.895c0.105,0.007,0.383,0.148,0.316,0.554
		c-0.105,0.684-0.695,1.071-0.848,0.906C130.273,50,130.39,49.039,130.707,48.895L130.707,48.895z M89.39,50.215
		c-0.094,0.273-0.254,0.152-0.672-0.199c-0.457-0.391-0.433-0.637,0.039-0.918C89.437,48.687,89.476,49.961,89.39,50.215
		L89.39,50.215z M74.968,49.195c0.797,2.512,2.418,2.192,3.141,0.121l0.695-0.011c-0.152,3.234-4.246,3.175-4.281,0.05
		L74.968,49.195z M73.535,49.508c0.242-0.039,0.07,0.801,0.07,0.801s-0.676-0.348-0.277-0.715
		C73.375,49.547,73.5,49.512,73.535,49.508L73.535,49.508z M79.547,49.719c0.085-0.004,0.242,0.058,0.41,0.172
		c0.398,0.261,0.332,0.418-0.125,0.796c-0.7,0.583-1.016,0.258-0.637-0.523C79.336,49.871,79.441,49.727,79.547,49.719
		L79.547,49.719z M131.828,50.266c0.297-0.02,0.711,0.117,1.594,0.351c2.422,0.641,5.664,0.617,8.422-0.14
		c0.871-0.243,1.52,1.285,1.047,2.398c-0.207,0.488-0.172,0.551,0.465,1.211c0.898,0.934,1.043,2.441,0.359,3.812
		c-0.496,1-0.465,0.911,0.125,2.618c0.27,0.781,0.617,1.578,0.68,1.793c0.746,2.511,2.582,5.48,3.707,7.964
		c1.117,1.747-2.012,0.02-2.012,0.02s0.844,1.129,1.961,1.973c1.082,0.82,3.215,0.265,4.191,1.265
		c0.227,0.317-0.223,6.981-0.453,7.168c-9.629-0.449-25.695-0.097-25.695-0.097l3.012,4.695c4.734,1.89,9.262,1.418,13.594-1.309
		c-0.109,0.395,5.27,3.024,9.684,3.309l0.023,3.156c-3.273-0.367-6.594-0.441-9.637-2.355c0,0-2.797,1.168-5.598,2.047l15.691,16.23
		l0.008,2.715c0,0-6.699-6.254-13.594-13.301l0.148,34.66l13.578,0.266c-0.426,9.019-0.254,14.754-0.164,25.086
		c-6.414,6.582-15.242,13.168-23.402,17.125c-3.848-3.711-7.027-7.735-9.813-12.035c-0.059-0.09,0.281-0.262,0.223-0.355
		c-0.086-0.133-0.566-0.181-0.652-0.313c-1.699-2.523-5.641-9.532-5.016-9.696c1.207,0.087,6.797-0.604,7.91-3.956
		c0.008-0.216-0.121-0.813,0.031-1.512c0.391-1.816,0.594-4.575-0.074-6.329c-1.199-3.159,2.414-2.147,2.535-1.933l-0.004-11.942
		c-4.703,3.774-9.449,7.485-15.734,9.036c-3.914-19.715,2.289-44.235,19.973-60.86l-0.969-0.082
		c-18.168,18.797-22.934,39.469-19.832,61.238c0,0,0.113,0.681,0.133,0.911c0.043,0.543-0.09,0.75-0.57,1.141
		c-0.461,0.301-0.875,0.625-0.836,0.995c0.078,0.7-0.594,0.724-1.473,0.72c-0.406-0.355-0.949,0.094-1.273,0.254
		c-0.457,0.065-0.684-1.793-1.266-0.431c-0.223,0.864-0.641,0.927-1.613,0.501c-0.609-0.18-0.625,0.12-0.039,0.827
		c0.813,0.872,1.496,2.177,1.363,2.567c-0.297,0.879-0.168,1.762,1.07,2.262c-0.07,0.007-0.746,2.675,1.172,2.598
		c0.613,0.008,2.16,0.32,2.16,0.32c0.102,0.507-0.063,0.796-0.301,1.023l-1.336-0.668l-0.352,1.59l-1.781-0.125l4.332,5.348
		l0.504-4.172l5.066,0.645c0.813,2.109,5.93,13.84,15.707,22.569c0,0-5.344,2.325-6.844,3.056l-0.93-3.324l-0.84,1.207l-1.496-0.383
		l-0.176,1.362l-1.332,0.431l2.324,1.754l-5.973,1.815c-17.055-27.511-24.773-65.729-3.531-106.144l5.367,0.07l-1.047,1.789
		l1.523-0.242l0.434,1.305l1.117-0.528l1.129,1.415l1.281-3.774c0,0,3.805,0.086,4.277,0.039c0.371-0.043,8.039-6.473,7.871-6.719
		c-0.117-0.179-8.348,5.836-8.621,5.606c0,0-0.828,0.195-0.184-0.574c1.156-1.383,1.969-2.434,3.145-4.418
		c1.938-2.637,2.805-5.852,3.262-8.032c0.008-0.152,0.051-0.503-0.078-0.757c-0.738-1.469-0.578-2.426,0.75-4.157
		c0.465-0.605,0.496-0.754,0.363-1.125c-0.301-0.839-0.012-1.558,0.598-2.121C131.441,50.387,131.601,50.281,131.828,50.266
		L131.828,50.266z M86.601,56.121c3.371,1.383,0.664,4.445-1.836,1.774c-1.312-1.399-2.347-1.309-3.062-0.286
		c-0.321,0.461,0.148,1.27,0.562,1.012c0.387-0.238,0.782-0.519,1.344-0.004c4.262,3.922,7.32-1.57,3.648-2.933
		C86.804,55.473,86.156,55.937,86.601,56.121L86.601,56.121z M72.726,55.988c0.031-0.004,0.071,0.012,0.117,0.043
		c0.161,0.102,0.172,1.489,0.012,2.071c-0.531,2.953-2.637,9.816-6.957,6.457c-1.715-1.336-0.156-4.684,1.899-3.547
		c1.601,0.89,0.519,3.011-1.215,1.793c-0.844-0.59-0.575,0.629,0.136,0.976c1.207,0.629,3.391-0.453,4.414-2.379
		c0.411-0.765,0.793-2.125,1.223-4.078C72.57,56.34,72.59,55.992,72.726,55.988L72.726,55.988z M73.09,61.102
		c0.355,2.132-1.27,5.871-3.583,6.425c-1.769,0.422-3.96-0.73-3.804-1.8c0.047-0.309,0.172,0.101,1.777,0.363
		c2.242,0.371,3.668-0.836,4.957-3.625C72.847,61.586,73.019,61.121,73.09,61.102L73.09,61.102z M78.668,62.121
		c0,0.242-0.118,0.875-0.215,1.297c-0.242,1.004-0.391,1.383,0.703,0.887c0.723-0.336,1.781-0.664,2.879-0.059
		c1.207,0.672,2.359,0.547,3.785-0.055c1.234-0.414,1.836-0.418,2.527-0.019c1.258,0.723,0.829,0.262,0.664-1.567
		c-0.113-1.285-0.464-1.113-0.914-0.628c-0.297,0.32-0.898,0.39-1.566,0.031c-0.793-0.43-1.902-0.227-2.277,0.078
		c-0.372,0.305-0.911,0.348-1.641-0.149c-0.484-0.324-0.754-0.156-1.348,0.11c-0.98,0.441-1.355,0.203-1.883-0.207
		C78.898,61.488,78.672,61.598,78.668,62.121L78.668,62.121z M73.816,63.656c0.129-0.004,0.141,0.489,0.055,1.485
		c-0.41,3.66-3.278,5.699-6.653,3.925c-1.476-0.843-1.277-1.437,0.18-0.91c2.32,0.84,4.664-0.336,5.809-3.344
		C73.504,64.039,73.703,63.656,73.816,63.656L73.816,63.656z M82.054,66.266c1.668,0.691,3.52,0.472,3.989-0.141
		c0.531-0.688-0.282-0.574-0.707-0.469c-1.461,0.348-2.465,0.223-3.055-0.043C80.55,64.945,80.66,65.668,82.054,66.266
		L82.054,66.266z M64.64,68.32c2.164,2.649,2.45,3.164,4.313,6.176c13.625,23.125,17.988,52.355,9.031,78.891
		c-2.457,7.324-5.926,14.785-9.812,20.781l-4.665,0.047l1.602-1.824l-2.172,0.16l-0.133-1.207l-1.648,0.531l-0.793-1.824
		l-1.492,4.172l-8.649,0.023c20.254-19.681,24.243-43.531,20.465-62.68c0,0,1.695-1.058,1.93-1.675
		c0.058-0.153,0.183-0.789,0.301-0.887c0.75-0.492,1.25-0.969,1.625-0.875c0.211,0.055,0.32,0.152,0.476,0.379
		c0.715,1.047,0.867,1.207,1.258,0.156c0.277-0.758,0.16-1.031,1.078-0.887c0.535,0.285,1.25,0.278,1.188,0.172
		c-0.051-0.078-0.813-0.976-1.172-1.484c-0.856-1.203-1.102-1.418-1.024-1.945c0.121-0.805-0.519-1.672-0.918-1.887
		c0.114-2.164-0.714-2.379-3.066-2.863c-0.012-0.375,0.051-0.676,0.215-1.012l1.383,1.101l0.5-2.043l1.875,0.106l-5.434-5.262
		c0.027,1.485,0.098,2.985-0.039,4.414c-2.547-0.14-5.063-0.961-5.102-0.804C62.019,87.461,56.32,80.008,50.3,74.195l6.012-2.886
		l1.703,3.246l0.418-1.84l1.492,0.262l0.25-1.18l1.649-0.231l-1.817-1.726L64.64,68.32z M100.449,72.121
		c0.23,0.289,0.414,0.309,0.723,0.57l-0.617,0.438C100.585,72.715,100.546,72.504,100.449,72.121L100.449,72.121z M60.441,73.207
		c-0.508,0-0.926,0.414-0.926,0.926c0,0.508,0.418,0.922,0.926,0.922c0.512,0,0.926-0.414,0.926-0.922
		C61.367,73.621,60.953,73.207,60.441,73.207L60.441,73.207z M65.461,73.352c-0.512,0-0.926,0.414-0.926,0.925
		c0,0.512,0.414,0.926,0.926,0.926c0.511,0,0.925-0.414,0.925-0.926C66.386,73.766,65.972,73.352,65.461,73.352L65.461,73.352z
		 M49.297,74.027c2.98,2.477,5.714,5.7,9.035,10.743l-0.067,0.679l1.012,0.379c0,0,5.523,7.27,5.23,10.5
		c-1.894,0.395-3.363-0.305-6.753,2.863l-2.176-0.472l-2.293,0.558c0,0,0.027,0.719,0.597,0.957c0.25,0.106,0.661-0.898,0.926-0.867
		c1.117,0.129,2.239,0.145,2.032,0.496c-0.235,0.102-0.833,7.324,0.332,8.86c0.648,1.566,0.183,1.554-0.399,1.843
		c-0.633,0.414-2.625-0.461-2.625-0.461l0.461,11.469c5.254-5.992,16.348-9.988,15.559-9.554c5.57,29.41-7.668,49.031-21.528,63.414
		l7.262,0.043c0,0-6.262,10.043-6.727,12.816c0.356,0.926,1.34,2.836-0.32,4.176c-0.562,0.617-0.625,3.418-0.625,3.418
		c-3.816,0.133-7.129-1.196-11.531,0.347c-0.457,0.157-0.555-2.394-0.578-2.854c-1.352-1.266-1.567-3.844-0.399-5.18
		c0.434-0.492,0.25-0.23-0.113-1.898c-0.578-2.66-2.512-6.305-3.98-8.645c-0.485-0.77-0.965-1.664-1.082-1.941
		c-1.051-1.246-3.813-0.672-4.149-1c-0.308-0.254-0.504-7.055-0.195-7.219c10.883,0.862,27.914-0.125,27.914-0.125l-4.57-6.383
		c-5.629-2.195-13.364,1.551-12.993,1.75c0.02,0.02-6.179-3.384-10.484-2.898l0.145-3.336c3.82-0.016,7.343,0.695,10.421,2.512
		l5.231-1.945L25.84,140.258l0.183-2.774c0,0,4.094,4.384,8.547,9.067c3.816,4.015,5.246,4.691,5.246,4.691l0.012-34.871
		l-13.781-0.031l-0.368-7.125l-0.355-0.625l-0.164-5.113l0.383-0.52l-0.133-2.187l-0.129-0.309l-0.176-5.223l0.297-0.441
		l0.047-3.289C32.105,84.992,49.297,74.027,49.297,74.027L49.297,74.027z M61.07,75.02l1.605,7.039l1.079-1.336l1.656,0.519
		l0.113-1.621l1.504-0.523L61.07,75.02z M115.828,76.191c-0.512,0-0.926,0.414-0.926,0.926c0,0.512,0.414,0.926,0.926,0.926
		s0.926-0.414,0.926-0.926C116.753,76.605,116.339,76.191,115.828,76.191L115.828,76.191z M111.492,76.77
		c-0.512,0-0.926,0.414-0.926,0.925c0,0.512,0.414,0.926,0.926,0.926s0.926-0.414,0.926-0.926
		C112.417,77.184,112.003,76.77,111.492,76.77L111.492,76.77z M58.398,77.59c-0.512,0-0.926,0.414-0.926,0.926
		c0,0.511,0.414,0.925,0.926,0.925c0.512,0,0.926-0.414,0.926-0.925C59.324,78.004,58.91,77.59,58.398,77.59L58.398,77.59z
		 M114.816,78.148l-6.445,6.063l1.809-0.078l0.32,1.769l1.617-0.738l1.309,1.207L114.816,78.148z M117.558,80.184
		c-0.512,0-0.926,0.414-0.926,0.925c0,0.512,0.414,0.926,0.926,0.926s0.926-0.414,0.926-0.926
		C118.484,80.598,118.07,80.184,117.558,80.184L117.558,80.184z M66.3,81.379c-0.511,0-0.925,0.414-0.925,0.926
		c0,0.511,0.414,0.925,0.925,0.925c0.512,0,0.926-0.414,0.926-0.925C67.226,81.793,66.812,81.379,66.3,81.379L66.3,81.379z
		 M70.308,82.152c-0.511,0-0.926,0.414-0.926,0.926c0,0.512,0.415,0.926,0.926,0.926c0.512,0,0.926-0.414,0.926-0.926
		C71.234,82.566,70.82,82.152,70.308,82.152L70.308,82.152z M66.672,83.531c0.175,2.477,0.468,5.414,0.531,7.895l1.222-1.203
		l1.415,0.574l0.5-1.524l1.535-0.074L66.672,83.531z M106.359,85.598c-0.512,0-0.926,0.414-0.926,0.925
		c0,0.512,0.414,0.926,0.926,0.926s0.926-0.414,0.926-0.926C107.285,86.012,106.871,85.598,106.359,85.598L106.359,85.598z
		 M64.015,85.758c-0.511,0-0.925,0.414-0.925,0.926c0,0.511,0.414,0.925,0.925,0.925c0.512,0,0.926-0.414,0.926-0.925
		C64.941,86.172,64.527,85.758,64.015,85.758L64.015,85.758z M110.031,85.984c-0.512,0-0.926,0.414-0.926,0.926
		c0,0.512,0.488,0.926,0.926,0.926s0.926-0.414,0.926-0.926C110.957,86.398,110.542,85.984,110.031,85.984L110.031,85.984z
		 M109.48,87.984l-5.344,5.496l1.75,0.161l0.551,1.563l1.121-0.949l1.359,0.996L109.48,87.984z M112.414,89.16
		c-0.508,0-0.926,0.418-0.926,0.93c0,0.512,0.418,0.926,0.926,0.926c0.512,0,0.93-0.414,0.93-0.926
		C113.343,89.578,112.925,89.16,112.414,89.16L112.414,89.16z M70.285,90.875c-0.512,0-0.926,0.414-0.926,0.926
		c0,0.511,0.414,0.926,0.926,0.926c0.512,0,0.926-0.489,0.926-0.926C71.211,91.363,70.797,90.875,70.285,90.875L70.285,90.875z
		 M47.59,91.441l-1.739,1.332l0.43-0.066c0,0,1.051,1.227,1.051,1.313c0,0.085,0.644-0.024,0.644-0.024L47.59,91.441z M74.668,92.25
		c-0.512,0-0.926,0.414-0.926,0.926c0,0.511,0.414,0.926,0.926,0.926c0.511,0,0.925-0.415,0.925-0.926
		C75.593,92.664,75.179,92.25,74.668,92.25L74.668,92.25z M68.031,93.57c-0.512,0-0.926,0.414-0.926,0.926
		c0,0.512,0.414,0.926,0.926,0.926c0.512,0,0.926-0.414,0.926-0.926C68.957,93.984,68.543,93.57,68.031,93.57L68.031,93.57z
		 M106.292,95.437c-0.512,0-0.926,0.415-0.926,0.926c0,0.512,0.414,0.926,0.926,0.926s0.926-0.414,0.926-0.926
		C107.218,95.852,106.804,95.437,106.292,95.437L106.292,95.437z M102.64,96.797c-0.512,0-0.93,0.414-0.93,0.926
		c0,0.511,0.418,0.925,0.93,0.925s0.926-0.414,0.926-0.925C103.566,97.211,103.152,96.797,102.64,96.797L102.64,96.797z
		 M139.953,97.023l1.926,2.094v30.602L140,129.758L139.953,97.023z M65.031,97.242c1.57,0,3.316,0.227,3.875,1.18
		c0.863,1.07-0.977,0.656-2.527,0.887c-1.43,0.175-0.602,0.468,1.421,0.586c2.786,0.164,3.879,0.238,4.293,0.878
		c0.235,0.598,0.063,1,0.114,1.645l-3.164-0.148c-1.637,0.003-2.602-0.028-3.09,0.097c-0.387,0.098-0.274,0.406-0.141,0.543
		c0.067,0.067,1.324,0.086,2.797,0.125c3.957,0.102,4.832,0.235,5.113,1.508c0.211,1.168-0.742,0.992-4.808,0.547
		c-1.809-0.145-2.782,0.277-3.043,0.406c-0.446,0.219,1.293,0.434,1.859,0.344c0.356-0.059,2.965,0.226,3.926,0.406
		c0.809,0.121,0.098,0.098-0.313,0.59c-0.269,0.41-0.183,0.875-0.605,1.105c-0.52,0.274-1.547,0.27-3.391,0.27
		c-2.109,0-3.09,0.512-0.195,0.637c1.867,0.082,1.973,0.05,2.133,0.589c0.422,1.333-0.481,1.567-2.387,1.868
		c-0.91,0.156-2.262,0.07-3.281-0.004c-4.031-0.285-5.43-1.246-5.977-3.024c-2.031-6.632,0.477-10.679,6.352-11.004
		C64.32,97.254,64.672,97.242,65.031,97.242L65.031,97.242z M105.789,97.535l-4.551,6.625l1.754-0.683l0.836,1.796l1.402-1.003
		l1.402,0.867L105.789,97.535z M71.722,98.344c0.235,0.285,0.129,0.504-0.261,0.715c-0.329,0.179-0.891,0.046-1.262-0.114
		c-0.488-0.211-0.539-1.086-0.137-1.179C70.64,97.648,71.359,97.918,71.722,98.344L71.722,98.344z M38.738,98.004l-2.492,2.383
		l0.078,0.093l3.277-1.293L38.738,98.004z M108.628,99.02c-0.512,0-0.926,0.417-0.926,0.929c0,0.512,0.414,0.926,0.926,0.926
		s0.926-0.414,0.926-0.926C109.554,99.437,109.14,99.02,108.628,99.02L108.628,99.02z M142.535,99.824c0,0,2.32,2.289,3.273,3.25
		l-0.863-0.004l0.023,1.809l2.742,0.031l1.508,1.477l-4.191-0.02v1.844l5.191,0.004l-0.027-0.789l2.051,1.855l0.242,20.524
		l-9.891-0.032C142.558,119.668,142.585,109.926,142.535,99.824L142.535,99.824z M74.695,102.047c-0.141,0.445-0.457,0.445-1,0.223
		c-0.805-0.325-0.688-1.211-0.082-1.305C74.761,100.836,74.976,101.363,74.695,102.047L74.695,102.047z M77.808,102.434
		c-0.511,0-0.926,0.414-0.926,0.925c0,0.512,0.415,0.926,0.926,0.926c0.512,0,0.926-0.414,0.926-0.926
		C78.734,102.848,78.32,102.434,77.808,102.434L77.808,102.434z M74.55,103.145c0.36,0.023,0.719,0.207,0.926,0.41
		c0.504,0.511,0.324,0.988-0.242,1.281c-0.633,0.332-1.082-0.117-1.266-0.871C73.843,103.457,74.14,103.16,74.55,103.145
		L74.55,103.145z M103.625,105.574c-0.516,0-0.93,0.414-0.93,0.93c0,0.512,0.414,0.93,0.93,0.93c0.512,0,0.93-0.418,0.93-0.93
		C104.554,105.988,104.136,105.574,103.625,105.574L103.625,105.574z M73.015,106.699c0.797,0.028,1.039,0.844,0.621,1.281
		c-0.597,0.59-1.527,0.34-1.656-0.226C71.937,107.113,72.457,106.699,73.015,106.699L73.015,106.699z M100.304,107.078
		c-0.512,0-0.926,0.414-0.926,0.926c0,0.512,0.414,0.926,0.926,0.926s0.926-0.414,0.926-0.926
		C101.23,107.492,100.816,107.078,100.304,107.078L100.304,107.078z M103.593,107.691l-4.145,6.954l1.68-0.665l1.016,1.34
		l1.047-0.914l1.586,0.774L103.593,107.691z M71.066,108.852c0.742,0.003,0.949,0.585,0.41,1.121
		c-0.363,0.363-0.777,0.375-1.203,0.039C69.632,109.5,70.125,108.848,71.066,108.852L71.066,108.852z M106.5,108.937
		c-0.512,0-0.926,0.418-0.926,0.926c0,0.512,0.414,0.93,0.926,0.93s0.926-0.418,0.926-0.93
		C107.425,109.355,107.011,108.937,106.5,108.937L106.5,108.937z M76.32,109.668c-0.512,0-0.887,0.414-0.887,0.926
		c0,0.511,0.414,0.929,0.926,0.929c0.512,0,0.926-0.418,0.926-0.929C77.285,110.082,76.832,109.668,76.32,109.668L76.32,109.668z
		 M144.996,109.875v1.965l5.223,0.004v-1.965L144.996,109.875z M76.39,111.621l-2,7.305l1.672-0.949l1.043,1.066l0.973-1.199
		l1.746,0.457L76.39,111.621z M79.945,112.414c-0.512,0-0.926,0.414-0.926,0.926c0,0.512,0.414,0.926,0.926,0.926
		c0.512,0,0.926-0.414,0.926-0.926C80.871,112.828,80.457,112.414,79.945,112.414L79.945,112.414z M73.425,112.785
		c-0.511,0-0.925,0.414-0.925,0.926c0,0.512,0.414,0.926,0.925,0.926c0.512,0,0.926-0.414,0.926-0.926
		C74.351,113.199,73.937,112.785,73.425,112.785L73.425,112.785z M144.992,113.363l0.004,1.766h5.223l-0.004-1.754L144.992,113.363z
		 M102.007,115.672c-0.512,0-0.926,0.414-0.926,0.926c0,0.511,0.414,0.925,0.926,0.925s0.926-0.414,0.926-0.925
		C102.933,116.086,102.519,115.672,102.007,115.672L102.007,115.672z M144.996,116.656v1.903h5.223v-1.903H144.996z M37.297,116.891
		l1.835,0.031l0.032,33.152l-1.793-1.895L37.297,116.891z M36.527,116.953l-0.09,30.301l-3.48-3.66l0.925-0.012v-2.066l-3.015-0.02
		l-1.285-1.254l4.297,0.004v-2.027l-5.098-0.02v1.227l-2.504-2.672l0.039-19.785L36.527,116.953z M102.144,117.879l-2.789,7.211
		l1.754-1l0.906,0.89l0.938-0.843l1.594,0.777L102.144,117.879z M28.793,118.227l-0.028,1.937h5.149v-1.937H28.793z M105.3,118.617
		c-0.512,0-0.926,0.414-0.926,0.926c0,0.512,0.414,0.926,0.926,0.926s0.93-0.414,0.93-0.926
		C106.23,119.031,105.812,118.617,105.3,118.617L105.3,118.617z M99,118.719c-0.512,0-0.926,0.414-0.926,0.926
		c0,0.511,0.414,0.925,0.926,0.925s0.926-0.414,0.926-0.925C99.925,119.133,99.511,118.719,99,118.719L99,118.719z M77.203,119.062
		c-0.512,0-0.926,0.418-0.926,0.93c0,0.508,0.414,0.926,0.926,0.926c0.512,0,0.926-0.418,0.926-0.926
		C78.129,119.48,77.715,119.062,77.203,119.062L77.203,119.062z M144.996,119.812v2.04h5.223v-2.04H144.996z M77.09,120.961
		l-0.778,1.195l-1.769-0.601l2.418,7.313l3.031-7.629l-1.742,0.996L77.09,120.961z M28.793,121.492v1.938h5.121v-1.938H28.793z
		 M144.996,123.227v2.019h5.219l0.004-2.019H144.996z M28.793,124.918v1.937h5.121v-1.937H28.793z M102.078,125.281
		c-0.516,0-0.93,0.418-0.93,0.93c0,0.516,0.414,0.93,0.93,0.93c0.512,0,0.93-0.414,0.93-0.93
		C103.007,125.699,102.589,125.281,102.078,125.281L102.078,125.281z M74.191,126.25c-0.512,0-0.93,0.418-0.93,0.93
		c0,0.516,0.418,0.929,0.93,0.929c0.516,0,0.93-0.413,0.93-0.929C75.121,126.668,74.707,126.25,74.191,126.25L74.191,126.25z
		 M80.136,126.426c-0.515,0-0.929,0.414-0.929,0.929c0,0.513,0.414,0.931,0.929,0.931c0.512,0,0.93-0.418,0.93-0.931
		C81.066,126.84,80.648,126.426,80.136,126.426L80.136,126.426z M144.996,126.555v1.82h5.219l0.004-1.82H144.996z M102.07,127.402
		l-1.109,1.168l-1.59-0.453l3.605,6.727l1.824-7.235l-1.594,1.013L102.07,127.402z M28.793,128.086v2.203h5.121v-2.203H28.793z
		 M77.121,129.086c-0.512,0-0.93,0.414-0.93,0.93c0,0.512,0.418,0.93,0.93,0.93c0.515,0,0.929-0.418,0.929-0.93
		C78.05,129.5,77.636,129.086,77.121,129.086L77.121,129.086z M77.062,131.004c-0.398,0.281-0.57,0.772-0.984,1.027l-1.692-0.723
		l1.016,9.16l4.699-8.653l-2.148,0.36L77.062,131.004z M28.793,131.301v2.289h5.121v-2.289H28.793z M105.703,132.363
		c-0.512,0-0.93,0.418-0.93,0.93c0,0.516,0.418,0.93,0.93,0.93c0.516,0,0.93-0.414,0.93-0.93
		C106.632,132.781,106.218,132.363,105.703,132.363L105.703,132.363z M99.691,132.469c-0.516,0-0.93,0.418-0.93,0.929
		c0,0.517,0.414,0.935,0.93,0.935c0.512,0,0.93-0.418,0.93-0.935C100.621,132.887,100.203,132.469,99.691,132.469L99.691,132.469z
		 M28.793,134.625v2.293h5.121v-2.293H28.793z M103.046,135.137c-0.516,0-0.934,0.414-0.934,0.929c0,0.513,0.418,0.931,0.934,0.931
		c0.512,0,0.93-0.418,0.93-0.931C103.976,135.551,103.558,135.137,103.046,135.137L103.046,135.137z M116.171,135.207
		c4.98,0.16,5.711,1.762,5.742,7.293c0.023,4.414-1.293,6.141-4.508,6.992c-1.172,0.309-5.551,0.023-6.789-0.375
		c-0.02-0.379-0.641-1.259-0.781-1.931c0.316-0.089,1.316,0.047,3.211,0.231c1.535,0.144,1.934-0.103,1.445-0.402
		c-2.887-0.684-4.855-0.5-7.633-1.032c-0.039-0.827-0.711-1.797-0.711-1.797c0.152-0.058,4.281,0.388,6.461,0.317
		c0.957-0.039,0.379-0.492-0.008-0.574c-2.539-0.364-4.191-0.305-6.875-0.645c0.07-0.688-0.277-1.313-0.711-1.836
		c0,0,1.359-0.013,4.16,0.03c1.473,0.021,2.758,0.082,3.402,0.063c1.082-0.004,0.984-0.508,0.047-0.578
		c-1.145-0.125-5.652-0.153-5.652-0.153c0.336-0.155,0.773-2.171,0.602-2.194c0,0,1.168,0.023,1.91-0.004
		c3.609-0.137,4.23-0.078,4.301-0.211c0.473-0.434-0.809-0.605-2.141-0.602c-0.578,0-1.414,0.129-1.41-0.188
		c0.008-0.285-0.008-0.875-0.301-1.484C112.148,135.277,114.183,135.145,116.171,135.207L116.171,135.207z M73.234,136.344
		c-0.512,0-0.93,0.414-0.93,0.929c0,0.513,0.418,0.931,0.93,0.931c0.516,0,0.93-0.418,0.93-0.931
		C74.164,136.758,73.75,136.344,73.234,136.344L73.234,136.344z M108.761,136.535c0.613,0.004,0.809,1.109,0.23,1.28
		c-0.883,0.267-1.367,0.056-1.336-0.468C107.675,137.055,108.363,136.535,108.761,136.535L108.761,136.535z M79.308,137.496
		c-0.511,0-0.929,0.418-0.929,0.93c0,0.515,0.418,0.929,0.929,0.929c0.516,0,0.93-0.414,0.93-0.929
		C80.238,137.914,79.824,137.496,79.308,137.496L79.308,137.496z M105.792,138.543c2.105-0.021,1.016,2.84-0.602,1.809
		C104.386,139.84,104.953,138.547,105.792,138.543L105.792,138.543z M72.511,140.832c-0.043-0.008-0.066,0.039-0.062,0.141
		l0.488,8.703L78,141.547l-2.012,0.75l-0.867-1.317l-1.086,0.856C73.59,142.187,72.742,140.852,72.511,140.832L72.511,140.832z
		 M103.843,141.723c0.941,0.129,1.574,1.074,0.918,1.527C103.285,143.897,102.496,141.785,103.843,141.723L103.843,141.723z
		 M101.574,143.629c-0.512,0-0.93,0.418-0.93,0.93c0,0.516,0.418,0.934,0.93,0.934c0.516,0,0.93-0.418,0.93-0.934
		C102.503,144.047,102.089,143.629,101.574,143.629L101.574,143.629z M105.152,144.418c0.805-0.012,1.184,1.156,0.387,1.522
		c-0.168,0.079-0.672,0.134-0.895-0.03C103.703,145.215,104.191,144.492,105.152,144.418L105.152,144.418z M70.332,145.852
		c-0.516,0-0.934,0.418-0.934,0.93c0,0.516,0.418,0.93,0.934,0.93c0.511,0,0.929-0.414,0.929-0.93
		C71.261,146.27,70.843,145.852,70.332,145.852L70.332,145.852z M141.371,147.016l-3.449,1.16v1.629
		C139.425,149.328,140.285,148.104,141.371,147.016L141.371,147.016z M109.07,147.805c0.598,0.25,0.758,1.059,0.246,1.332
		c-0.406,0.215-1.504,0.179-1.773-0.172C106.847,147.848,108.343,147.531,109.07,147.805L109.07,147.805z M76.574,148.125
		c-0.512,0-0.93,0.418-0.93,0.93c0,0.516,0.418,0.929,0.93,0.929c0.516,0,0.933-0.413,0.933-0.929
		C77.507,148.543,77.09,148.125,76.574,148.125L76.574,148.125z M72.765,149.733c-0.453,0-0.82,0.368-0.82,0.821
		c0,0.449,0.367,0.816,0.82,0.816c0.453,0,0.821-0.367,0.821-0.816C73.586,150.102,73.218,149.733,72.765,149.733L72.765,149.733z
		 M111.425,151.117c-0.516,0-0.93,0.414-0.93,0.93c0,0.512,0.414,0.93,0.93,0.93c0.512,0,0.93-0.418,0.93-0.93
		C112.355,151.531,111.937,151.117,111.425,151.117L111.425,151.117z M69.769,151.168l-0.047,8.219l5.485-6.727l-1.903,0.41
		l-0.812-1.664l-1.172,0.762L69.769,151.168z M104.562,153.059c-0.516,0-0.93,0.418-0.93,0.93c0,0.516,0.414,0.93,0.93,0.93
		c0.512,0,0.93-0.414,0.93-0.93C105.492,153.477,105.074,153.059,104.562,153.059L104.562,153.059z M131.992,153.09l-0.898,1.535
		l2.551-1.418L131.992,153.09z M108.273,154.184c-0.512,0-0.93,0.414-0.93,0.93c0,0.512,0.418,0.93,0.93,0.93
		c0.516,0,0.93-0.418,0.93-0.93C109.203,154.598,108.789,154.184,108.273,154.184L108.273,154.184z M111.406,155.187l-1.109,1.586
		l-1.465-0.472l-0.434,1.511l-1.758-0.062l5.711,4.973L111.406,155.187z M66.879,155.82c-0.512,0-0.93,0.418-0.93,0.93
		c0,0.516,0.418,0.93,0.93,0.93c0.515,0,0.929-0.414,0.929-0.93C67.808,156.238,67.394,155.82,66.879,155.82L66.879,155.82z
		 M152.542,157.156l0.465,68.145l-32.48,0.07l-13.375-18.263c-0.277-2.976-0.117-6.026,1.137-10.019
		c1.309,0.902,4.172,0.41,4.074-3.102c-0.063-2.302-3.605-3.477-5.371-1.746c0.09-2.223,0.992-5.563,2.293-6.547
		c0.891,0.813,1.09,2.012,3.105,1.676c1.434-0.238,2.57-1.84,1.949-3.707c-0.16-0.474-0.246-1.051-0.246-1.435
		c0.004-0.386,0.039-1.069-0.035-1.457c-0.102-0.503-0.137-1.054-0.137-1.054C131.226,174.289,143.597,165.598,152.542,157.156
		L152.542,157.156z M73.39,158.328c-0.511,0-0.929,0.414-0.929,0.93c0,0.512,0.418,0.929,0.929,0.929c0.516,0,0.93-0.417,0.93-0.929
		C74.32,158.742,73.906,158.328,73.39,158.328L73.39,158.328z M69.004,159.233c-0.512,0-0.93,0.419-0.93,0.931
		c0,0.516,0.418,0.93,0.93,0.93c0.515,0,0.929-0.414,0.929-0.93C69.933,159.652,69.519,159.233,69.004,159.233L69.004,159.233z
		 M115.023,159.684c-0.512,0-0.93,0.418-0.93,0.93s0.418,0.93,0.93,0.93c0.516,0,0.934-0.418,0.934-0.93
		S115.539,159.684,115.023,159.684L115.023,159.684z M65.672,160.676l-1.454,8.66l6.332-6.473l-1.718-0.039l-0.34-1.477l-1.61,0.52
		L65.672,160.676z M108.718,162.522c-0.512,0-0.93,0.414-0.93,0.931c0,0.512,0.418,0.93,0.93,0.93c0.516,0,0.93-0.418,0.93-0.93
		C109.648,162.937,109.234,162.522,108.718,162.522L108.718,162.522z M112.824,163.531c-0.516,0-0.93,0.418-0.93,0.93
		c0,0.516,0.414,0.93,0.93,0.93c0.512,0,0.93-0.414,0.93-0.93C113.753,163.949,113.335,163.531,112.824,163.531L112.824,163.531z
		 M61.726,164.66c-0.515,0-0.929,0.418-0.929,0.93c0,0.515,0.414,0.93,0.929,0.93c0.512,0,0.93-0.415,0.93-0.93
		C62.656,165.078,62.238,164.66,61.726,164.66L61.726,164.66z M116.523,165.363l-1.512,1.148l-1.395-0.852l-0.328,1.84l-1.188,0.625
		l4.984,3.492L116.523,165.363z M120.207,167.84c-0.512,0-0.93,0.418-0.93,0.93c0,0.516,0.418,0.93,0.93,0.93
		c0.516,0,0.93-0.418,0.93-0.93S120.722,167.84,120.207,167.84L120.207,167.84z M67.617,168.151c-0.512,0-0.93,0.419-0.93,0.931
		c0,0.516,0.418,0.93,0.93,0.93c0.515,0,0.93-0.414,0.93-0.93C68.547,168.57,68.132,168.151,67.617,168.151L67.617,168.151z
		 M63.488,169.367c-0.516,0-0.93,0.418-0.93,0.93c0,0.515,0.414,0.93,0.93,0.93c0.512,0,0.93-0.415,0.93-0.93
		C64.418,169.785,64,169.367,63.488,169.367L63.488,169.367z M117.824,171.828c-0.512,0-0.93,0.414-0.93,0.93
		c0,0.512,0.418,0.929,0.93,0.929c0.516,0,0.93-0.417,0.93-0.929C118.753,172.242,118.339,171.828,117.824,171.828L117.824,171.828z
		 M113.925,172.66c-0.512,0-0.93,0.414-0.93,0.93c0,0.512,0.418,0.93,0.93,0.93c0.516,0,0.93-0.418,0.93-0.93
		C114.855,173.074,114.441,172.66,113.925,172.66L113.925,172.66z M77.922,173.983c0.007,0,0.011,0.005,0.015,0.009
		c0.106,0.109,0.426,0.957,0.141,1.387c-0.149-0.07-0.817-0.692-0.645-0.902C77.511,174.379,77.836,173.979,77.922,173.983
		L77.922,173.983z M56.816,175.44c0,0,0.902,0.048,1.098,0.134c0,0.23-0.215,0.73-0.457,1.293c-1.215,2.813-1.403,5.961-0.168,9
		c1.933,4.121,7.398,13.866,6.992,14.762l-12.07,0.047l0.05-1.836c3.391-0.133,3.926-2.207,3.079-3.922
		c-0.586-1.188-2.227-1.863-3.731-1.242c-2.168,0.902-2.305,1.972-3.078,3.633l-0.344-0.438c0.653-0.867,0.867-1.695,0.817-2.645
		c-0.055-0.934-0.082-0.676,0.242-1.184c1.89-2.031,0.652-4.672,0.652-4.672C49.672,186.746,55.55,176.391,56.816,175.44
		L56.816,175.44z M29.215,175.707c3.433,2.729,6.402,11.934,6.222,12.074c-0.156-0.13-2.765,2.957,0.043,5.832
		c0,0-0.172,1.727,0.367,2.613c-1.238,2.574-1.457,2.77-1.562,4.882c-0.024-0.007-0.215-0.022-1.367-0.03
		c-5.688-0.027-5.953,7.207-0.27,7.605c0.777,0.055,1.047-0.122,1.516,0.339c0.476,0.591,0.902,1.185,1.715,0.88
		c0.195,0,0.507,0.18,0.832,0.484c0.546,0.738,1.339,1.265,2.472,1.063c0.399,0.039,0.809,0.155,1.242,0.313
		c0.5,0.391,1.364,0.691,2.04,0.395c0.203-0.086,0.589-0.117,0.902,0.027c0.824,0.375,1.66,0.141,1.969-0.098
		c0.761-0.396,0.929,0.242,0.894,0.824c-0.387,1.34,0.465,2.594,1.762,3.086c2.73,0.844,4.109-0.836,4.695-4.168
		c0.145-0.73,0.274-1.599,0.274-1.599l9.144,0.243l-13.129,15.214l-22.351,0.274l-0.118-50.277
		C27.488,175.625,28.23,175.707,29.215,175.707L29.215,175.707z M111.437,178.422c1.668,0.64,1.801,1.82,0.141,1.308
		c-2.699-0.827-5.602,0.821-6.207,3.177c-0.109,0.434-0.23,0.762-0.301,0.844c-0.375,0.457-0.355,0.043-0.246-1.267
		c0.219-2.538,2.016-4.379,4.355-4.452C109.945,178.031,110.773,178.19,111.437,178.422L111.437,178.422z M110.609,180.219
		c0.699,0,1.438,0.203,1.988,0.683c0.625,0.685,0.441,1.142-0.039,1.118c-2.262-0.945-5.133,0.199-6.258,3.051
		c-0.691,1.75-0.816,0.813-0.512-0.543C106.355,182.074,108.222,180.262,110.609,180.219L110.609,180.219z M94.894,180.895
		c-0.984,0.003-1.922,0.195-2.398,0.648c-0.906,0.854-0.152,0.867,1.488,0.297c0.797-0.274,2.332-0.149,3.313,0.191
		c0.824,0.284,1.113,0.405,1.066,0.148C98.32,181.41,96.539,180.887,94.894,180.895L94.894,180.895z M113.316,183.758
		c0.418,0.949,0.148,2.625-1.305,2.797c-1.715,0.199-2.598-2.672,0.531-2.168c-0.406-1.148-1.809-0.832-2.5-0.539
		c-1.414,0.613-2.375,2-3.238,4.55c-0.258,0.754-0.445,1.149-0.543,1.075c-0.164-0.129-0.242-1.301,0.137-2.715
		c0.68-2.551,2.336-4.09,4.094-4.137C111.632,182.445,112.957,182.934,113.316,183.758L113.316,183.758z M88.816,182.647
		c-0.152,0.036,0.113,0.571,0.531,1.403c0.23,0.461,0.387,1.054,0.387,1.172c-0.004,0.453,0.344,0.563,0.855,0.273
		c0.586-0.332,0.68-0.586,1.512-0.215c0.785,0.409,1.559,0.672,2.273,0.254c0.391-0.227,0.648-0.22,1.398-0.02
		c0.898,0.238,1.016,0.273,1.684-0.008c0.855-0.355,1.875-0.113,2.09,0.129c0.207,0.23,0.086-0.09,0.551-1.168
		c0.215-0.496,0.523-1.105,0.441-1.278c-0.117-0.229-0.895,0.028-1.746,0.25c-0.457,0.118-0.895,0.082-1.773-0.163
		c-1.855-0.523-3.027-0.375-4.188,0.176c-0.648,0.309-2.277-0.117-3.922-0.785C88.871,182.652,88.836,182.645,88.816,182.647
		L88.816,182.647z M92.464,187.617c-0.836-0.013-1.594,0.516-1.941,1.237c-0.406,1.004,0.281,2.817,1.328,2.974
		c0.93,0.141,0.895-0.431,0.426-0.582c-0.707-0.234-1.543-1.25-1.004-2.129c0.371-0.609,1.492-0.605,2.27,0.145
		c1.57,1.504,3.371,1.605,3.711,0.297c0.102-0.523-0.293-1.219-0.91-1.027c-0.473,0.145-1.57,0.191-2.488-0.434
		C93.378,187.772,92.906,187.625,92.464,187.617L92.464,187.617z M109.042,192.402c4.008-0.242,2.285,5.234-0.031,3.827
		c-0.824-0.503-0.457-2.347,1.738-2.312c-2.152-1.676-3.621,0.367-3.094,2.656c-0.484,0.75-0.621,2.176-0.938,2.98
		c-0.484,0.922-0.867-1.493-0.375-3.821C106.816,193.477,107.625,192.488,109.042,192.402L109.042,192.402z M86.379,192.594
		c-0.829,0.008,0.023,0.898,0.148,1.004c2.496,1.957,3.719,3.168,1.711,2.523c-3.262-0.773-4.102,0.148-6.586,1.242
		c-0.457,0.219-0.586,0.082-1.137-0.078c-2.183-0.648-2.023,0.723,0.258,1.957c3.445,1.862,6.289,2.284,8.965,0.887
		c1.719-0.899,1.805-0.309,0.207,0.683c-2.738,1.599-5.621,1.356-10.043-1.397c-1.43-0.892-1.629-0.297-0.168,0.641
		c3.34,2.02,7.84,3.848,11.512,0.871c0.723-0.645,0.867-0.977,1.426-0.699c1.469,0.73,0.984-0.543-0.016-1.747
		c-0.355-0.425-0.617-0.769-0.594-1.058c0.082-1.047-0.492-1.039-1.02-1.016c-0.629,0.03-0.563-0.18-1.332-1.027
		C88.582,194.141,87.207,192.812,86.379,192.594L86.379,192.594z M53.031,198.141c-1.387,0.109-1.707,0.171-1.367,3.016
		c0.062,0.534,0.301,2.133,0.367,2.734c0.824,7.445,0.156,10.738-1.918,11.648c-0.746,0.328-1.481,0.207-2.027-0.012
		c-1.313-0.523-1.852-2.117-0.899-4.016c0.258-0.512,0.567-1.301,0.692-1.758s0.402-1.457,0.617-2.228
		c0.523-1.862,0.804-4.702,0.5-7.413c-0.211-1.844-0.164-1.996,0.293-3.238c1.008-1.836,1.66-2.777,3.781-2.801
		C55.441,194.324,56.105,197.914,53.031,198.141L53.031,198.141z M104.019,197.977l-0.648,0.031
		c-0.781-2.602-2.414-1.758-2.684,0.066l-0.551-0.004C100.23,194.598,104.574,195.539,104.019,197.977L104.019,197.977z
		 M43.07,196.035c4.43,0.438,5.234,1.539,5.586,6.891c0.031,2.586-0.141,4.152-0.539,4.738c-0.664,0.319-1.297-0.277-2.242,0.324
		c-0.52,0.316-0.422,0.352-0.645,0.004c-0.211-0.324,0.035-1.688,0.375-2.781c0.324-1.039-0.23-1.646-1.699-2.978
		c-0.395-0.362-0.742-0.862-1.098-1.577c-0.765-2.052-1.152-1.148-0.515,0.616c0.312,0.763,0.386,1.138-0.567,0.81
		c-0.562-0.195-1.054,0.035-1.488,0.266c-1.215,0.309-2.262-0.355-1.207-0.754c0.641-0.242,1.793-0.598,2.148-0.594
		c0.258,0,0.383-0.06,0.383-0.18c0.004-0.512-2.344-0.457-4.129,0.159c-2.199,1.013-2.324,0.832-2.121-0.741
		C35.828,196.25,39.539,195.766,43.07,196.035L43.07,196.035z M86.386,196.383c1.133-0.051,2.176,1.25,1.969,2.351l-0.539-0.034
		c-0.254-2.074-2.215-2.164-2.738,0.159l-0.778,0.021C84.797,197.086,85.613,196.418,86.386,196.383L86.386,196.383z
		 M99.558,196.426c0.445,0.265,0.137,0.984-0.34,1.129c-0.18,0.043-0.75-0.355-0.613-0.598
		C98.863,196.668,99.25,196.516,99.558,196.426L99.558,196.426z M104.632,196.777c0.313,0,0.719,0.159,0.773,0.577
		c0.016,0.614-0.449,0.489-0.605,0.435C104.492,197.5,104.375,196.801,104.632,196.777L104.632,196.777z M89.105,197.27
		c0.832,0.098,1.133,1.141,0.191,1.207C88.875,198.562,88.855,197.52,89.105,197.27L89.105,197.27z M84.054,197.383
		c0.098,0-0.054,0.855-0.261,0.984c-0.411,0.246-0.934-0.023-0.914-0.281C82.922,197.469,83.672,197.379,84.054,197.383
		L84.054,197.383z M98.542,199.461c1.582,0.601,3.637,1.184,5.574,0.508c0.703-0.27,1.27-0.586,1.266-0.285
		c0,0.313-0.559,0.789-1.57,1.074c-2.082,0.582-3.59,0.355-5.023-0.719C98.386,199.738,98.246,199.457,98.542,199.461
		L98.542,199.461z M97.89,200.354c2.566,1.497,4.883,1.646,6.965,0.556c0.844-0.293,0.871-0.023,0.871,0.516
		C101.968,204.727,97.273,201.301,97.89,200.354L97.89,200.354z M34.914,202.637c-0.637,1.281-0.977,4.441-2.016,5.379
		C25.808,207.608,30.371,198.258,34.914,202.637L34.914,202.637z M78.843,201.59c-0.402,0.207-0.046,1.215,0.582,1.488
		c5.422,2.332,8.204,2.608,11.286,1.535c1.277-0.445,1.977-1.488,2.039-1.996c0.074-0.605-0.75-0.664-2.195-0.023
		c-4.395,1.722-7.152,0.379-10.703-0.957C79.523,201.516,79.187,201.473,78.843,201.59L78.843,201.59z M58.082,201.66l-0.02,7.901
		l-5.16-0.089l0.059-1.168l3.863,0.113l-0.059-5.646l-4.484-0.043l-0.008-1.046L58.082,201.66z M59.281,201.68l5.152,0.007
		l0.258,0.806h-5.41V201.68z M38.5,204.187c-0.34,0.306-0.93,0.372-1.176,0.125c-0.543-0.546,0.008-1.562,0.879-1.554
		C39.074,202.766,39.148,203.604,38.5,204.187L38.5,204.187z M40.871,202.901c0.781,0.005,1.039,0.731,0.445,1.321
		c-0.402,0.363-0.605,0.386-0.969,0.121C39.894,203.94,40.129,202.93,40.871,202.901L40.871,202.901z M35.789,203.098
		c0.203-0.004,0.383,0.016,0.515,0.218c0.473,0.97-1.082,1.642-1.406,0.918C34.66,203.647,35.265,203.117,35.789,203.098
		L35.789,203.098z M64.918,203.207l0.3,1.016l-5.937,0.027v-1.021L64.918,203.207z M43.668,203.496c0.882,0.108,0.75,1,0.336,1.395
		c-0.704,0.652-1.391,0.441-1.211-0.438C42.906,203.906,43.261,203.508,43.668,203.496L43.668,203.496z M38.894,206.414
		c-0.312,1.112,0.352,3.362,0.153,3.598c-0.43,0.515-1.129,0.25-1.438,0.074c-1.07-0.688-1.141-4.728-0.102-4.969
		c0.668,0.336,1.114-0.263,1.422-0.352C39.234,204.68,39.027,205.229,38.894,206.414L38.894,206.414z M54.586,204.754
		c0.586,0,1.058,0.473,1.058,1.058c0,0.586-0.472,1.06-1.058,1.06s-1.059-0.474-1.059-1.06
		C53.527,205.227,54,204.754,54.586,204.754L54.586,204.754z M59.281,204.891h6.074c0.363,0.507,0.324,0.848,0.223,1.199
		l-6.297,0.008V204.891z M41.445,205.027c0.277-0.005,0.418,0.59,0.23,1.27c-0.335,1.223-0.316,2.89-0.085,3.613
		c0.152,0.496,0.304,0.84,0.214,0.98c-0.312,0.496-1.277,0.16-1.683-0.496c-1-1.848-0.84-5.301,0.351-5.031
		C40.922,205.586,41.175,205.233,41.445,205.027L41.445,205.027z M36.093,205.496c-0.296,0.465-0.086,3.094-0.117,3.313
		c-0.035,0.273-0.785,0.132-1.207-0.059c-1.031-0.48-0.75-1.711-0.551-2.703c0.227-0.777,0.723-0.836,1.336-0.906
		C35.89,205.102,36.336,205.133,36.093,205.496L36.093,205.496z M44.351,205.641c0.328-0.012,0.375,0.227,0.301,1.203
		c-0.059,0.761-0.086,1.41,0.035,2.129c0.266,1.527,0.297,1.941-0.086,2.238c-0.453,0.354-1.07,0.246-1.543-0.172
		c-0.976-0.77-1.039-4.56-0.273-4.887C43.496,206.328,43.945,205.766,44.351,205.641L44.351,205.641z M65.328,206.785l-0.871,1.198
		h-5.18l0.004-1.194L65.328,206.785z M46.867,208.391c0.805,0.007,0.672,1.438,0.238,2.332c-0.367,0.543-0.64,0.598-1.191,0.089
		C45.285,210.233,46.031,208.387,46.867,208.391L46.867,208.391z M63.816,208.789l-0.726,0.668l-3.797,0.004v-0.664L63.816,208.789z
		 M63.816,208.789"/>
	<path fill="#D40000" d="M157.445,238.437v-2.366h2.422l5.121-7.859l-5.52-12.215h-2.023v-2.582h7.805v2.582h-2.512l3.859,9.539
		l2.809-3.699v-5.84h-2.063v-2.582h6.984v2.582h-2.43v20.074h2.43v2.366h-6.984v-2.366h1.977v-9.285l-6.535,9.285h2.465v2.366
		H157.445z M123.32,220.035c-5.738-2.07-8.078-9.224-4.824-16.285c4.359-9.465,10.867-15.539,15.199-24.469
		c-0.051,0,8.504,12.566,11.918,17.227c7.328,10.578,6.961,19.281-0.137,22.715c-5.098,2.468-10.324-0.368-10.926-5.7
		c-0.094-0.832-0.148-0.94-0.535-0.944c-0.43,0-0.508,0.297-0.613,1.526C132.992,218.852,127.847,221.668,123.32,220.035
		L123.32,220.035z M158.617,201.613c2.223-5.23,4.809-8.031,7.523-13.578c2.188,4.289,6.234,8.922,7.594,13.258
		c1.02,3.348,0.227,6.074-1.961,6.887c-2.543,0.945-4.445-0.121-4.953-2.504c-0.203-0.957-0.684-0.864-0.711-0.141
		c-0.086,2.336-2.777,3.359-4.934,2.737C159.937,207.922,157.718,205.395,158.617,201.613L158.617,201.613z M38.402,180.272
		l-6.293-4.937c7.484-0.16,14.969,0.012,22.453,0.141l-7.476,5.324c-1.528-1.672-2.434-3.918-4.606-5.004
		C40.863,176.465,39.757,178.77,38.402,180.272L38.402,180.272z M93.609,178.555c-0.129-0.02-0.23-0.032-0.309-0.078
		c-0.172-0.109-0.281-0.348-0.41-1.141c-1.867-8.715-11.05-8.098-10.988-7.844c-0.07-0.34,11.414-10.707,18.164-18.845
		c2.039,6.216,8.223,20.418,7.965,20.368c0,0-1.684-0.02-6.324-0.137c-4.219,1.906-7.262,3.797-7.125,6.484
		c-0.023,0.948-0.254,1.344-0.566,1.262C93.968,178.613,93.785,178.582,93.609,178.555L93.609,178.555z M114.226,150.508
		c5.973-0.09,7.102-3.008,7.781-3.36c0.746,0.204,1.48,0.207,2.07-0.003c1.215-0.43,4.398,2.102,5.996,4.645
		c0.066,0.105,1.777,0.75,1.777,0.75l0.598-2.711l5.469-1.602l-0.008,1.742c-1.688,0.91-4.191,3.238-4.191,3.238l-1.664-0.099
		l-0.953,1.271c-3.797,2.055-7.523,4.504-11.527,6.09C119.574,160.469,114.777,154.266,114.226,150.508L114.226,150.508z
		 M39.906,151.233l-0.043-34.66c2.473-0.176,6.426,0.606,7.496-1.16c1.785-2.906,6.57-5.844,6.57-5.844
		c0.375,4.246,0.516,8.305,0.434,12.551c-7.082,8.641-11.012,19.276-6.648,35.168L45.097,157L39.906,151.233z M78.918,152.988
		c2.015-7.188,3.582-14.477,4.23-22.005l13.477-0.198l0.27,4.612L78.918,152.988z M124.808,137.301l-0.25-12.887
		c9.832-11.75,10.414-22,6.77-34.953c3.246,0.746,4.918,3.281,8.016,6.769v33.61c-2.148,0.32-7.484,0.633-7.484,0.633
		C131.699,132.047,127.191,135.812,124.808,137.301L124.808,137.301z M83.16,116.988l-0.598-5.683l17.324-16.524
		c-1.445,7.246-3.207,14.739-3.719,22.453L83.16,116.988z M56.257,98.965c-0.707-0.379-1.582-0.074-2.152,0.273
		c-1.25,0.821-5.855-3.968-6.609-7.187c1.156-1.563,11.293-6.528,11.293-6.528s5.926,7.606,5.683,10.778
		C61.843,97,59.75,96.945,57.75,99.094C57.465,99.41,56.941,99.332,56.257,98.965L56.257,98.965z M46.109,92.805l0.699,0.515
		l-0.41,3.008l-7.469,2.215C41.492,96.359,43.324,94.492,46.109,92.805L46.109,92.805z M70.371,75.992
		c1.535-0.047,3.129,0.582,4.312,0.11c0.442-0.172,1.324-0.442,2.289-0.258c2.227,0.691,3.008-1.766,4.43-1.774
		c1.836,0.004,2.855-1.281,2.867-3.855c0.008-1.113,0.102-1.238,0.309-1.352c0.625-0.328,1.297,0.137,1.379,0.746
		c1.32,4.743,4.644,9.004,9.894,8.664c-4.18,4.258-16.89,17.352-16.89,17.352C76.672,88.648,73.632,82.156,70.371,75.992
		L70.371,75.992z M124.441,71.906l7.656-5.558l4.582,5.578l3.961-5.309c2.328,1.668,7.625,5.387,7.625,5.387
		S132.386,72.238,124.441,71.906L124.441,71.906z M44.617,69.07c1.609,1.137-15.34-19.433-17.297-26.707
		c-1.465-4.285-0.363-9.523,2.828-11.769c5.406-3.801,11.75-2.282,12.953,4.121c0.34,1.812,0.906,1.597,1.106,0.004
		c0.722-8.153,10.734-8.75,14.59-3.063c2.636,3.895,2.656,10.082-1.165,16.281C56.711,49.906,44.535,68.504,44.617,69.07
		L44.617,69.07z M12.25,61.23c-2.27-4.433-5.645-8.898-7.43-13.031c-1.34-3.383-0.207-6.883,2.293-7.531
		c2.465-0.641,4.254,0.375,4.719,2.68c0.16,0.781,0.468,0.839,0.625,0.117c0.925-4.356,7.07-3.414,7.492,1.148
		c0.269,2.907-0.488,4.828-4.074,10.332C15.007,56.73,12.664,59.312,12.25,61.23L12.25,61.23z M13.449,33.25h2.558l-3.761-9.223
		l-2.875,3.895L9.39,33.25h2.02V36H4.3v-2.75h2.34V13.41L4.3,13.414v-2.398h7.215v2.48H9.523L9.48,23.168l6.297-9.754h-2.223v-2.398
		h7.676v2.398h-2.023l-5.188,7.973l5.074,11.863h2.258L21.359,36h-7.891L13.449,33.25z M13.449,33.25"/>
	<path d="M128.785,21.539L58.41,21.988l13.676,18.27c14.527-2.961,27.175-1.039,40.304,1.254L128.785,21.539z M126.984,22.465
		l-4.684,5.82c-1.293-1.172-4.188-0.75-3.777,1.813c-3.59-1.864-4.352,3.257-1.305,3.047c-0.383,1.007-3.457,1.273-4.328-0.551
		c-3.16,1.769-4.125,0.051-4.961-1.063c4.016,2.723,5.969-2.879,1.551-3.195c1.734-3.512-4.457-5.106-4.094-0.535
		c-4.086-0.926-3.148,4.824-0.148,3.644c-1.949,2.93-5.145,0.961-5.793,0.391c-1.641,1.234-4.75,1.273-5.621-0.699
		c4.547,0.914,4.051-5.071,0.012-3.692c2.152-4.597-5.008-3.98-3.27-0.215c-4.07-0.152-3.168,4.868,0.406,4.016
		c-3.175,2.992-5.558,0.203-6.063,0.145c-1.879,2.074-5.184,0.938-5.641-0.289c3.242,1.281,4.309-4.168,0.219-3.84
		c1.047-3.508-4.832-3.934-3.535,0.05c-3.242-0.734-3.418,4.458,0.215,3.649c0.222,1.422-2.633,2.781-4.391,1.406
		c-1.289,0.707-2.699,1.805-4.375,0.18c2.555-0.41,2.973-4.731-1.152-3.797c0.199-2.648-1.325-2.793-3.203-2.121l-3.012-4.082
		L126.984,22.465z M78.437,28.977c-0.226,0.492-0.601,0.828-0.515,1.203c0.074,0.308,0.39,0.738,0.832,1.32
		c3.523,4.59,10.66,4.434,12.808-0.297c0.438-0.879,0.348-1.078-0.18-1.824c-0.637-0.906,0.082-1.867,0.863-1.785
		c1.164,0.121,1.363,1.133,0.805,1.855c-1.215,1.531,2.121,4.992,5.453,5.535c4.273,0.696,8.324-2.308,7.758-5
		c-0.031-0.152-0.109-0.297-0.141-0.461c-0.457-2.253,3.117-1.171,1.832,0.262c-0.484,0.52-0.746,0.676-0.68,1.246
		c1.039,4.77,6.84,5.27,9.602,3.801c-3.566,5.813-9.211,1.332-10.203-2.73c-5.008,7.226-11.02,5.722-14.371-0.625
		c0.398,0.394-6.598,11.382-14.54,0.117c-3.363,9.066-9.492,2.937-9.074,2.566c2.817,1.57,7.93,1,8.422-3.848
		c0.07-0.601-0.383-0.636-0.648-1.109C75.129,26.805,79.425,26.789,78.437,28.977L78.437,28.977z M65.203,29.57
		c0.637,0.059,0.742,0.325,0.637,0.973L65.203,29.57z M119.816,31.273l-0.922,1.161C118.671,31.867,118.667,31.348,119.816,31.273
		L119.816,31.273z M129.847,31.66c-2.188,0.09-3.879,3.117-3.77,7.149c0.055,1.957,0.398,6.867,0.531,7.597
		c0.188,1.02-0.016,2.403-0.375,2.551c-0.945,0.383-1.305,0.633-1.559,1.086c-0.668,1.176-0.117,2.5,1.285,3.098
		c1,0.421,2.27-0.164,3.129-1.446c0.477-0.711,0.59-1.027,1.008-2.816c0.195-0.82,0.176-2.188-0.043-3.442
		c-0.504-2.851-0.129-6.398,0.848-8.066c1.758-2.988,1.727-4.945-0.09-5.566C130.484,31.695,130.16,31.645,129.847,31.66
		L129.847,31.66z M129.734,32.113c2.547,0.012,2.48,2.551,1.066,3.332c-0.547,0.246-1.215,0.305-1.887-0.136
		c-0.75-0.434-0.648,0.062,0.129,0.628c0.914,0.665,1.305,0.622,0.813,2.18c-0.457,1.449-0.699,4.582-0.449,6.36
		c0.688,4.871,0.109,7.296-1.941,8.144c-1.012,0.414-1.992-0.187-2.383-0.984c-0.48-1.77,0.504-2.2,2.273-2.055
		c0,0,0.137-0.402-0.367-4.629c-0.695-5.883-0.422-9.984,0.66-11.418C128.222,32.766,128.968,32.109,129.734,32.113L129.734,32.113z
		 M147.019,38.176c-0.598,0.004-1.238,0.168-1.891,0.535c0,0-0.07,2.644-0.148,3.043c-0.434,2.238-0.309,2.504,0.734,2.82
		c2.531,0.774,4.605-0.906,4.516-3.535C150.175,39.559,148.804,38.16,147.019,38.176L147.019,38.176z M147.359,38.527
		c1.383-0.039,2.637,1.575,2.5,3.098c-0.07,1.824-1.813,2.816-3.379,2.5c-0.461-0.07-0.938-0.16-1.086-0.504
		c-0.316-0.484,0.188-0.66,1.238-0.656c1.152,0.008,1.367-0.153,1.746-0.797c0.758-1.277-0.211-2.895-1.445-2.59
		c-0.422,0.102-0.48,0.293,0.012,0.43c1.512,0.683,0.949,1.637,0.426,2.019c-0.625,0.461-1.656-0.168-1.832-0.55l0.105-2.465
		C145.644,39.012,146.144,38.543,147.359,38.527L147.359,38.527z M131.773,49.961c0,0-0.578,0.277-0.855,0.531
		c-0.609,0.567-0.738,1.422-0.438,2.262c0.129,0.371,0.109,0.433-0.355,1.039c-1.324,1.723-1.492,2.586-0.816,4.141
		c0.309,0.707,0.313,0.707,0.02,1.64c-1.246,4.004-3.711,8.543-6.34,11.688c-0.406,0.484-0.57,0.984-0.57,0.984
		s0.617-0.031,0.957-0.203c2.719-1.352,5.586-3.969,8.254-5.688c-4.219,3.422-8.711,6.485-8.711,6.485l5.738,0.308
		c-1.441,1.477-26.609,22.801-19.926,61.051c7.855-1.953,11.512-5.195,15.699-8.945c0.043,3.082,0.109,11.379,0.137,11.379
		c0.078-0.137-3.637-1.403-2.754,1.656c0.527,1.68,0.793,5.926-0.141,8.324c-0.039,0.098,0.402,0.262,0.355,0.355
		c-0.051,0.109-0.594,0.109-0.594,0.109c-1.426,2.66-5.102,3.242-6.91,3.164c-0.672-0.063-0.398,0.852-0.313,1.184
		c0.336,1.367,1.914,4.304,4.863,9.015l0.777,0.103l-0.449,0.414c0.348,0.633,1.277,1.828,1.277,1.828l0.039,0.401
		c0,0,1.621,2.25,2.488,3.31c0.059,0.074,0.195-0.099,0.254-0.027c0.48,0.578,1.059,1.227,1.547,1.804
		c0.039,0.048-0.074,0.211-0.035,0.254c0.922,1.005,2.734,3.035,2.734,3.035l0.359-0.085l1.426,1.605
		c11.824-5.379,24.18-17.273,24.051-17.246l0.102-25.598l-14-0.043l-0.059-33.91l13.984,13.824l-0.094-3.964
		c-3.172-3.02-15.918-15.879-15.918-15.879c1.855-0.262,3.652-0.864,5.395-1.809c3.039,1.672,6.293,2.68,10.016,2.184l-0.016-3.762
		c-4.227-0.008-6.852-1.41-8.75-3.102l-2.609-0.086c-4.824,3.668-8.234,1.965-11.906,1.243l-2.535-3.653l25.977-0.133l-0.188-8.863
		L149,72.375l-2.563-1.895l2.973,1.254c0,0-0.047-0.488-0.645-1.414c-1.598-2.617-3.633-6.465-4.848-9.824
		c-0.59-1.707-0.59-1.637-0.094-2.633c0.684-1.375,0.535-3.035-0.363-3.972c-0.633-0.661-0.613-0.801-0.406-1.289
		c0.844-1.946-1.191-2.661-1.199-2.536C137.503,51.742,131.667,50.016,131.773,49.961L131.773,49.961z M141.894,50.668
		c0.867-0.008,0.961,0.375,0.957,1.023c-0.07,1.184-1.617,1.614-2.313,1.778c-3.34,0.765-9.156,0.312-9.535-1.242
		c-0.281-1.145,0.434-1.782,2.805-1.211C137.617,51.832,139.972,50.953,141.894,50.668L141.894,50.668z M131.121,53.973
		c0.344-0.004,0.762,0.347,0.879,0.925c0.102,0.493-0.41,1.938-0.84,2.274c-1.059,0.824-2.016-0.461-1.309-1.856
		C130.261,54.508,130.675,53.973,131.121,53.973L131.121,53.973z M142.507,54.133c0.16,0.004,0.441,0.039,0.625,0.168
		c0.844,0.594,0.922,2.652,0.133,2.949c-0.801,0.305-1.543-0.531-1.535-1.84C141.734,54.609,142.031,54.121,142.507,54.133
		L142.507,54.133z M139.839,54.559c0.172-0.008,0.352,0.027,0.539,0.113c0.699,0.324,1.039,2.48,0.344,3.172
		c-0.539,0.531-1.695,0.504-2.035-0.606C138.285,55.914,138.914,54.605,139.839,54.559L139.839,54.559z M133.921,54.621
		c1.023,0.008,1.258,2.285,0.254,3.227c-0.84,0.785-2.121,0.011-1.719-1.547C132.656,55.523,133.117,54.676,133.921,54.621
		L133.921,54.621z M136.835,54.984c1.5,0.258,1.375,3.93-0.59,3.567C135.125,57.77,135.156,55.039,136.835,54.984L136.835,54.984z
		 M130.273,58.922l2.121,0.195c0,0-2.746,5.945-5.258,8.215c-0.938,0.953-1.48,0.992-0.766-0.023
		C127.945,65.363,130.273,58.922,130.273,58.922L130.273,58.922z M142.992,58.957c1.242,3.305,2.512,6.66,4.203,10.039
		c-2.57-2.476-4.848-6.289-6.945-9.863L142.992,58.957z M133.019,59.277l1.402,0.016c0.469,2.141,1.277,3.504,2.23,4.676
		c0.82-1.391,1.34-2.918,1.848-4.547l1.117-0.016c0.426,0.254-1.316,6.707-3.02,7.489C134.792,65.43,133.269,61.469,133.019,59.277
		L133.019,59.277z M132.425,60.805c-0.117,0.152,2.18,5.679,4.125,7.449c1.836-1.777,3.004-4.121,3.789-6.914l6.031,8.465
		l-5.879-4.024c-1.176,1.949-2.422,3.809-3.918,5.36c-1.613-1.746-3.012-3.817-4.477-5.786c-2.266,1.68-3.859,3.477-6.805,5.043
		C125.304,70.465,131.066,64.187,132.425,60.805L132.425,60.805z M131.859,66.82l4.105,5.016l-10.926-0.156L131.859,66.82z
		 M140.746,66.898l6.895,4.747l-10.273,0.105L140.746,66.898z M85.824,69.234c0,0,0.055,0.301,0.125,0.481
		c1.223,4.992,4.598,9.14,9.676,8.648L78.933,95.047c0,0-2.758-9.352-8.34-18.938c0,0,1.02,0.211,1.813,0.364
		c0.746,0.113,1.312,0.078,1.875-0.067c0.426-0.062,0.75-0.344,1.133-0.426c0.645-0.136,1.453,0.098,1.879,0.247
		c1.148,0.218,1.929-0.426,3.363-1.692c0.383-0.34,0.527-0.258,1.012-0.254c1.797,0.004,2.945-1.539,2.742-3.933l-0.09-1.063
		l-0.227,1.195c-0.429,2.254-0.73,3.227-2.961,3.321c-0.542,0.023-0.746,0.386-1.601,1.121c-1.195,1.027-2.039,1.113-2.887,0.711
		c-0.863-0.406-0.945-0.168-1.762,0.222c-0.933,0.446-2.296,0.391-3.523,0.04c-1.711-0.489-1.504-0.325-1.504-0.325
		c9.922,17.653,13.406,34.586,13.184,49.625c-0.313,21.43-7.809,38.727-14.387,49.152c0,0,1.129-0.114,2.137-0.262
		c0.484-0.133,0.855-0.004,1.336,0.164c0.445,0.156,0.781,0.147,1.218,0.098c0.344-0.039,1.18,0.007,1.719,0.086
		c1.219,0.171,1.301,0.012,2.629-1.277c3.774-3.664,3.527-3.527,6.262-3.438c4.097,0.133,7.379,2.836,8.746,7.222
		c0.172,0.556,0.398,1.332,0.43,1.332l-0.27-1.159c-1.199-5.884-6.227-8.031-10.426-7.953l17.719-17.766
		c-0.09,0.016,4.105,13.516,7.762,19.535c0.008,0.039-1.109-0.48-3.145-0.219c-1.109,0.144-2.352,0-3.047-0.121
		c-0.895-0.02-1.441,0.242-2.559,1.164c-0.461,0.394-0.879,0.828-1.785,1.211c-2.156,0.91-3.016,1.851-3.027,4.215
		c0,0.429-0.066,0.98-0.059,1.191c0,0.059-0.004,0.133,0.012,0.133c0.035,0,0.086-0.063,0.129-0.125
		c0.105-0.156,0.324-0.586,0.492-1.574c0.297-1.766,0.668-2.383,2.344-3.168c0.5-0.235,1.559-0.875,2.027-1.25
		c1.543-1.23,2.055-1.512,3.309-1.219c0.711,0.168,1.316,0.25,2.273,0.137c1.137-0.137,1.203-0.196,2.418,0.117
		c0.824,0.211,1.848,0.418,1.848,0.418c-17.176-34.485-16.609-66.457,0.344-98.895c0,0-5.02,0.063-5.23,0.192
		c-0.082,0.05-0.691-0.004-1.355-0.125c-1.367-0.246-1.066-0.082-4.289,3.156c-3.984,4.008-10.359,0.812-12.277-5.91
		c-0.102-0.352-0.188-0.563-0.34-0.813C85.949,69.367,85.824,69.234,85.824,69.234L85.824,69.234z M102.058,73.18
		c0.738,0.078,1.289,0.273,1.195,0.961l-23.652,23.16l-0.367-1.492L102.058,73.18z M107.046,73.32
		c-0.293,0.575-1.082,1.293-1.43,1.836l1.289,1.602l-0.715,1.289l-1.977-1.66l-3.766,3.715l3.141,3.523l-2.973,3l-0.992-1.121
		l1.57-1.645l-2.441-2.285l-4.301,4.18l3.504,3.562l-2.566,2.461l-1.027-0.968l1.348-1.489l-2.285-2.363l-4.004,4.086l3.168,3.527
		L90.144,97l-1.086-1.102l1.176-1.226l-2.266-2.375l-4.082,4.027l3.309,3.59l-2.43,2.176l-0.859-0.91l1.176-1.262l-2.223-2.379
		l-2.531,2.293l-0.422-1.574l25.043-24.879L107.046,73.32z M108.488,73.687l-1.055,2.118l-0.816-0.895l1.063-1.094L108.488,73.687z
		 M49.414,73.824c-0.649,0.156-15.559,8.465-24.051,17.582l-0.023,3.399l-0.317,0.406l0.152,5.258l0.211,0.281l0.075,2.145
		l-0.34,0.562l-0.004,5.891l0.453,0.074l0.07,7.207l13.95,0.035l-0.016,34.422c0,0-8.192-9-14.09-14.313l0.023,4.024l15.602,16.117
		c-1.07,0.147-2.469,0.41-4.574,1.569c-5.063-3.159-10.914-2.19-10.914-2.19l0.023,4.098c3.723-0.359,7.078,0.148,10.992,2.781
		c3.219-2.18,7.098-3.508,12.883-1.774c1.274,2.017,2.543,4.095,3.817,5.446l-27.621,0.203l0.035,8.305c1.222,0.023,4.289,0,4.289,0
		c1.551,3.043,4.605,7.199,5.875,12.426c-1.742,2.09-1.602,3.773,0.09,5.879c-0.016,0.948-0.301,2,0.765,3.055
		c3.516-1.715,7.485-0.953,10.438-0.078c1,0.297,1.379-0.84,1.343-2.278c-0.089-0.819-0.085-1.171,0.547-1.718
		c1.504-1.301,0.5-4.278,0.332-4.039c-0.086-2.348,7.438-14.102,7.442-13.887l-1.5,0.543l-6.43,0.027
		c16.914-16.305,23.984-34.91,22.504-55.915c-0.332-5.293-1.156-7.715-1.156-7.715c-5.957,2.645-10.852,4.571-15.61,9.664
		l-0.312-10.949c0.262,0.52,2.027,0.996,2.82,0.336c0.539-0.355,0.594-0.734,0.094-2.063c-0.727-1.93-0.899-6.067-0.356-7.469
		c0.063-0.168,0.118-0.602,0.161-1.031c0.062-0.575-0.063-0.61-0.118-0.598c0.141-0.035,0.723,0.082,0.789,0.019
		c2.036-1.785,4.215-2.902,6.887-3.019l0.071-1.305c-1.985-5.008-3.665-6.972-5.461-9.773c0,0-0.508-0.168-0.832-0.102l0.414-0.437
		c-2.52-3.996-6.106-7.637-9.403-11.09C49.445,73.824,49.437,73.82,49.414,73.824L49.414,73.824z M49.304,74.504l1.789,1.652
		c-8.531,4.098-16.949,10.11-25.238,18.258l0.113-2.996C35.336,82.605,42.406,78.375,49.304,74.504L49.304,74.504z M104.101,77.5
		l1.074,1.07l-1.488,1.727l0.969,0.984l-0.539,1.321l-2.477-2.571L104.101,77.5z M50.836,77.637c0.562,0,1.015,0.453,1.015,1.015
		c0,0.563-0.453,1.016-1.015,1.016c-0.563,0-1.02-0.453-1.02-1.016C49.816,78.09,50.273,77.637,50.836,77.637L50.836,77.637z
		 M123.847,79.039c17.391,19.359,8.461,47.492-14.754,54.25l-0.258-1.594c23.422-7.886,28.914-34.281,13.715-50.875L123.847,79.039z
		 M53.847,79.168l1.11,1.285c-9.914,4.731-19.586,11.828-28.938,22.063l-0.09-2.582C34.711,90.703,44.097,84.027,53.847,79.168
		L53.847,79.168z M47.453,79.562c0.562,0,1.019,0.458,1.019,1.02c0,0.559-0.457,1.016-1.019,1.016c-0.563,0-1.016-0.457-1.016-1.016
		C46.437,80.02,46.89,79.562,47.453,79.562L47.453,79.562z M44.355,81.477c0.563,0,1.02,0.457,1.02,1.015
		c0,0.563-0.457,1.02-1.02,1.02c-0.562,0-1.015-0.457-1.015-1.02C43.34,81.934,43.793,81.477,44.355,81.477L44.355,81.477z
		 M54.668,82.145c0.562,0,1.019,0.457,1.019,1.015c0,0.563-0.457,1.02-1.019,1.02c-0.559,0-1.016-0.457-1.016-1.02
		C53.652,82.602,54.109,82.145,54.668,82.145L54.668,82.145z M98.851,82.848l1.016,1.074l-1.613,1.617l2.297,2.398l2.211-2.125
		l-1.109,3.165l-19.477,19.464l-0.406-2.039l1.531-1.543l-2.347-2.343l-0.414-1.567l2.312-2.164l0.969,0.996l-1.352,1.559
		l2.172,2.14l3.953-3.636l-3.261-3.578l2.691-2.605l0.93,0.91l-1.285,1.325l2.265,2.453l4.055-3.883l-3.328-3.516l2.676-2.64
		l1.012,0.968L93,90.895l2.305,2.226l3.973-3.918l-3.266-3.433L98.851,82.848z M41.32,83.531c0.562,0,1.016,0.453,1.016,1.016
		c0,0.562-0.454,1.019-1.016,1.019c-0.563,0-1.02-0.457-1.02-1.019C40.3,83.984,40.757,83.531,41.32,83.531L41.32,83.531z
		 M57.359,83.727l0.777,1.289c-11.804,5.961-19.968,11.933-32.05,25.66v-1.727C35.414,97.496,45.109,90.113,57.359,83.727
		L57.359,83.727z M51.429,83.879c0.563,0,1.02,0.457,1.02,1.019c0,0.559-0.457,1.016-1.02,1.016c-0.558,0-1.015-0.457-1.015-1.016
		C50.414,84.336,50.871,83.879,51.429,83.879L51.429,83.879z M142.765,84.27c2.082,1.855,6.457,3.699,9.273,3.503l0.078,2.231
		c-4.918,0.465-9.211-2.68-9.211-2.68c-3.785,2.305-7.641,2.598-11.656,1.598l-1.547-3.313
		C135.664,88.371,141.25,85.738,142.765,84.27L142.765,84.27z M119.242,84.875c0.219,0.402,0.953,0.867,0.953,0.867
		c4.586-1.191,6.016,3.535,3.875,6.235l0.613,1.98c0.816,0.148,1.535,0.438,2.117,0.84c1.117,0.773,1.73,2.113,1.59,3.519
		c0.156,1.524-2.125,2.942-2.246,2.836l-0.031,2.176c0.641,0.535,1.414,1.055,1.906,1.809c1.094,1.84,0.66,3.691-1.031,4.859
		c-1.004,0.68-2.094,0.77-2.141,0.699l-1.059,2.473c0.934,0.527,1.195,1.422,1.34,2.062c0.316,1.387-0.656,3.192-1.879,3.86
		c-1.543,0.844-3.645,0.094-3.645,0.097l-1.5,1.5c0.387,1.305,0.492,2.083,0.285,2.844c-0.504,1.891-2.488,2.633-4.078,2.492
		c-1.25-0.112-2.191-1.026-2.191-1.026l-1.668,0.641c0.047,0,0.027,2.109-0.813,2.754c-0.266,0.273-1.207,0.879-1.207,0.879
		l-0.219-1.454c0.66-0.472,1.07-1.625,0.938-2.468l3.598-1.762c0,0.129,0.988,1.086,1.66,1.224c1.383,0.28,2.824-0.798,2.828-2.068
		c0-0.738-0.426-1.242-0.547-1.84l3.055-3.164c1.266,0.438,2.152,0.508,2.719,0.184c1.07-0.617,1.355-1.887,1.152-2.652
		c-0.246-0.907-1.051-1.493-1.105-1.579l1.703-4.308c0.793-0.004,1.285-0.129,1.906-0.531c1.262-0.829,1.102-2.442,0.563-3.207
		c-0.656-0.93-1.609-1.102-1.684-1.083l0.125-4.472c0,0.035,1.727-0.828,1.91-1.828c0.273-1.469-0.348-2.403-2.152-2.821
		c-1-0.23-0.949-0.039-0.949-0.039l-1.426-4.047c2.262-1.382,1.543-3.574,0.398-4.308c-1.211-0.777-2.914-0.059-2.914-0.059
		s-0.777-0.773-1.367-1.394L119.242,84.875z M58.711,85.695c1.488,1.996,4.004,6,5.41,9.582c0.062,0.157,0.031,0.95,0.031,0.95
		c-4.012,0.351-5.391,1.921-6.816,3.031c-1.11-0.571-1.575-1.235-3.575,0.019c-0.007,0.059-5.097-3.082-6.074-7.343
		C51.328,89.691,54.797,87.555,58.711,85.695L58.711,85.695z M38.34,85.719c0.562,0,1.015,0.457,1.015,1.019
		c0,0.563-0.453,1.016-1.015,1.016c-0.563,0-1.02-0.453-1.02-1.016C37.32,86.176,37.777,85.719,38.34,85.719L38.34,85.719z
		 M47.984,85.922c0.563,0,1.02,0.457,1.02,1.015c0,0.563-0.457,1.02-1.02,1.02c-0.562,0-1.016-0.457-1.016-1.02
		C46.968,86.379,47.422,85.922,47.984,85.922L47.984,85.922z M117.601,87.172c1.754,2.305,4.398,6.672,5.027,10.535
		c0.883,5.438,0.297,11.141-2.199,15.129c-4.523,8.516-12.363,10.332-12.371,10.629l-0.078-1.746
		c0.074,0.39,5.992-2.102,10.023-7.735c2.488-3.816,3.902-9.269,3.422-13.523c-0.301-6.133-4.652-11.789-4.688-11.809
		L117.601,87.172z M35.164,88c0.562,0,1.019,0.457,1.019,1.02c0,0.562-0.457,1.015-1.019,1.015c-0.559,0-1.016-0.453-1.016-1.015
		C34.148,88.457,34.605,88,35.164,88L35.164,88z M44.8,88.016c0.563,0,1.016,0.457,1.016,1.019c0,0.563-0.453,1.016-1.016,1.016
		c-0.562,0-1.019-0.453-1.019-1.016C43.781,88.473,44.238,88.016,44.8,88.016L44.8,88.016z M131.66,89.734
		c2.258,0.243,5.016,4.336,7.531,6.672l0.027,33.367l-7.508,0.153c-0.977,2.347-3.242,4.668-6.855,6.957l-0.004-12.504
		C137.167,111.187,133.816,96.746,131.66,89.734L131.66,89.734z M32.402,90.113c0.563,0,1.016,0.453,1.016,1.016
		c0,0.562-0.453,1.019-1.016,1.019c-0.562,0-1.016-0.457-1.016-1.019C31.386,90.566,31.84,90.113,32.402,90.113L32.402,90.113z
		 M41.675,90.293c0.563,0,1.016,0.457,1.016,1.019c0,0.563-0.453,1.016-1.016,1.016c-0.562,0-1.015-0.453-1.015-1.016
		C40.66,90.75,41.113,90.293,41.675,90.293L41.675,90.293z M136.949,90.375l15.344,15.469l-0.051,2.269l-17.293-17.566
		L136.949,90.375z M47.3,91.828l0.407,1.945c-0.496-0.781-0.516-1.07-1.375-1.207L47.3,91.828z M38.996,92.395
		c0.563,0,1.015,0.453,1.015,1.015s-0.453,1.02-1.015,1.02c-0.563,0-1.016-0.457-1.016-1.02S38.433,92.395,38.996,92.395
		L38.996,92.395z M29.804,92.68c0.563,0,1.02,0.453,1.02,1.015c0,0.563-0.457,1.02-1.02,1.02c-0.562,0-1.015-0.457-1.015-1.02
		C28.789,93.133,29.242,92.68,29.804,92.68L29.804,92.68z M116.128,92.68l3.031,2.144l-0.988,3.867l-3.102-2.785L116.128,92.68z
		 M46.129,92.992l0.539,0.32l-0.625,2.645l-6.977,2.52C41.308,96.562,43.613,94.473,46.129,92.992L46.129,92.992z M47.269,94.223
		c0.496,1.961,1.574,4.863,2.891,7.316c-0.895,0.465-4.113,2.285-4.106,3.129c0.457,1.535,3.856,2.945,3.856,2.945
		c-1.289,2.086-2.512,4.547-3.516,7.383c-0.582-0.988-0.648-4.891,0.602-6.512c-1.235-0.484-2.922-1.597-4.203-2.746
		c0.828-2.929,4.355-4.679,4.507-4.703C47.238,101.184,46.261,94.918,47.269,94.223L47.269,94.223z M35.953,94.719
		c0.558,0,1.015,0.453,1.015,1.015c0,0.563-0.457,1.016-1.015,1.016c-0.563,0-1.02-0.453-1.02-1.016
		C34.933,95.172,35.39,94.719,35.953,94.719L35.953,94.719z M113.617,94.801c4.527,8.433,1.836,15.758-5.387,21.008l0.168-1.993
		c4.98-3.613,8.207-10.726,4.57-17.511L113.617,94.801z M27.359,95.043c0.559,0,1.016,0.457,1.016,1.019
		c0,0.559-0.457,1.016-1.016,1.016c-0.562,0-1.019-0.457-1.019-1.016C26.34,95.5,26.797,95.043,27.359,95.043L27.359,95.043z
		 M99.765,95.098c-3.32,12.379-3.238,18.054-3.625,21.41l-12.895,0.113l-0.5-4.465L99.765,95.098z M48.25,95.437
		c0,0,2.797,2.598,5.308,4.864l-0.301,0.594l-2.441,0.324C48.949,97.543,48.25,95.437,48.25,95.437L48.25,95.437z M45.933,96.797
		l0.02,0.004l0.156,1.844c-0.836-0.032-9.906,3.757-16.871,9.804c1.035-1.828,2.789-3.582,4.48-5.078
		C37.32,99.836,45.933,96.797,45.933,96.797L45.933,96.797z M33.043,97.219c0.562,0,1.019,0.457,1.019,1.015
		c0,0.563-0.457,1.02-1.019,1.02c-0.563,0-1.016-0.457-1.016-1.02C32.027,97.676,32.48,97.219,33.043,97.219L33.043,97.219z
		 M38.754,98.375l0.515,0.531l-2.406,1.246L38.754,98.375z M55.531,98.918c0.031,0,0.066,0,0.101,0.004
		c0.375,0.047,0.528,0.223,0.743,0.402c-0.473-0.097-0.934-0.152-1.375-0.129C55.109,99.062,55.3,98.93,55.531,98.918L55.531,98.918
		z M46.32,99.301l0.223,1.379c-5.219,2.968-11.426,5.769-20.457,14.308v-2.84C31.754,106.898,38.363,102.492,46.32,99.301
		L46.32,99.301z M53.34,99.43c0.328,0.082,0.617,0.086,0.914,0.011c0,0-0.192,0.375-0.414,0.387
		C53.601,99.836,53.34,99.43,53.34,99.43L53.34,99.43z M55.554,99.512c0.657-0.043,1.102,0.558,0.973,1.332
		c-0.504,2.617-0.484,5.269,0.055,7.125c0.422,1.445,0.527,1.953,0.179,2.195c-3.078,2.121-4.761-7.441-2.195-10.156
		C54.914,99.68,55.257,99.531,55.554,99.512L55.554,99.512z M30.437,99.844c0.559,0,1.016,0.457,1.016,1.019
		c0,0.563-0.457,1.016-1.016,1.016c-0.562,0-1.019-0.453-1.019-1.016C29.418,100.301,29.875,99.844,30.437,99.844L30.437,99.844z
		 M118.832,100.082l1.914,3.207l-2.664,2.984l-1.621-3.468L118.832,100.082z M52.996,101.824l-0.102,1.106
		c-1.371,0.418-2.57,1.007-3.601,1.882c-0.2,0.172,3.183,1.7,3.539,1.344l-0.008,1.184c-0.047,0.387-5.59-1.375-5.965-2.688
		C47.484,103.777,50.996,101.742,52.996,101.824L52.996,101.824z M27.761,102.41c0.559,0,1.016,0.457,1.016,1.02
		c0,0.562-0.457,1.015-1.016,1.015c-0.562,0-1.019-0.453-1.019-1.015C26.742,102.867,27.199,102.41,27.761,102.41L27.761,102.41z
		 M42.882,103.578c-0.39,0.75-0.976,1.742-1.085,2.828c-3.805,2.305-7.707,4.461-12.454,9.754l-2.558-0.015l-0.059-0.672
		C31.914,110.527,37.535,106.262,42.882,103.578L42.882,103.578z M52.683,103.898l0.028,1.395c-0.883,0.012-1.368-0.277-2.028-0.613
		C51.238,104.332,51.668,103.98,52.683,103.898L52.683,103.898z M81.308,104.047l0.715,0.75l-0.445,0.414L81.308,104.047z
		 M42.765,106.945l1.407,0.875c-3.625,1.891-7.442,4.688-10.747,8.34h-2.789C34.16,112.34,37.957,108.914,42.765,106.945
		L42.765,106.945z M117.894,107.949l0.281,3.789l-3.539,1.938l0.07-3.996L117.894,107.949z M50.617,107.965l2.43,0.265l0.253,1.028
		c-2.043,1.301-3.816,2.824-5.515,4.406C48.433,111.629,49.453,109.613,50.617,107.965L50.617,107.965z M44.781,108.371l1.043,0.481
		l-0.414,1.781c-2.981,1.324-5.356,3.113-7.899,5.527h-2.863C37.156,113.473,41.324,110.094,44.781,108.371L44.781,108.371z
		 M53.836,110.043c0.007,0,0.011,0,0.011,0.004l0.379,11.68c-10.511,12.299-9.941,24.199-6.875,34.988l-2.004-0.09
		c-2.332-2.896-5.429-5.844-5.429-5.844l-0.008-33.965l7.246,0.028C48.867,112.891,53.566,110.078,53.836,110.043L53.836,110.043z
		 M45.277,111.684l0.09,1.558c-1.5,0.887-2.774,1.867-3.867,2.918h-2.719C40.66,114.41,42.527,112.648,45.277,111.684
		L45.277,111.684z M69.984,112.449l0.402,1.836c-24.394,8.824-28.804,34.477-14.406,52.086l-0.98,1.09
		C38.468,149.711,45.722,120.711,69.984,112.449L69.984,112.449z M45.472,114.285c0,0,0.133,1.406,0.176,1.875h-2.734
		C43.527,115.441,44.074,114.691,45.472,114.285L45.472,114.285z M114.117,114.875l-1.57,3.66l-4.195,0.067l1.906-3.665
		L114.117,114.875z M87.566,117.383h3.82v3.652h-3.82V117.383z M71.023,117.742l0.063,1.606c-1.696,0.867-1.27,2.238-1.696,2.218
		c-1.043,0.262-3.797,1.723-3.797,1.723c-0.976-0.887-2.293-0.66-2.902-0.23c-0.848,0.554-1.035,1.846-0.793,2.941l-2.922,3.41
		c-1.41-0.602-2.785-0.563-3.469,0.379c-0.773,1.059-0.48,2.375,0.797,3.852l-1.589,4.082c-0.184-0.246-2.844,0.535-2.883,2.117
		c-0.035,1.672,2.203,2.765,2.199,2.89l-0.106,4.504c-0.101-0.218-2.285,0.677-1.988,2.832c0.27,1.985,2.977,1.743,3.031,1.911
		l1.469,4.309c-0.097-0.134-1.988,1.719-0.832,3.473c0.969,1.461,3.777,0.515,3.754,0.422l0.777,1.093l-0.863,0.935
		c0,0-0.371-0.445-0.582-0.402c-1.633,0.309-3.457-0.063-4.332-1.368c-1.191-1.839,0.137-4.718,0.563-4.69l-1.012-2.484
		c-1.84-0.035-3.399-1.68-3.481-3.055c-0.175-2.883,2.192-4.09,2.2-4.07l0.066-2.688c-0.145,0.159-2.336-1.395-2.285-3.18
		c0.039-1.305,1.137-2.84,2.492-3.461c0.391-0.184,1-0.473,1-0.473l0.914-2.203c0,0-1.293-1.871-0.961-3.758
		c0.625-2.855,4.348-2.66,4.938-2.383l1.726-2.164c-0.851-1.973,0.617-4.266,2.539-4.637c0.856-0.136,3.246,0.426,3.246,0.426
		l2.211-1.14C68.48,119.266,69.8,118.48,71.023,117.742L71.023,117.742z M83.605,121.742h3.277v3.649h-3.277V121.742z
		 M92.332,121.742h3.695v3.649h-3.695V121.742z M71.289,122.656l-0.043,1.395c-21.149,10.254-12.5,31.484-9.481,33.957l-0.679,1.5
		C57.375,157.25,47.804,132.75,71.289,122.656L71.289,122.656z M87.566,126.352h3.973l0.035,3.753h-3.977L87.566,126.352z
		 M70.371,128.18l-1.262,3.418l-3.883,0.328l1.434-3.414L70.371,128.18z M149.718,130.68l2.66,0.016
		c-4.969,5.809-10.332,9.77-15.621,11.938c0,0-0.02-0.516,0.145-0.926c0.129-0.324-0.082-1.146-0.082-1.146
		C142.703,137.668,146.742,134.305,149.718,130.68L149.718,130.68z M136.105,130.729c-0.684,0.821-1.465,1.543-2.434,2.082
		l-0.383-2.116C134.101,130.684,136.105,130.729,136.105,130.729L136.105,130.729z M140.781,130.684c0.27,0.675-6.973,4.586-7,4.253
		l0.02-1.3l3.906-2.898L140.781,130.684z M142.343,130.684h0.016l2.039,0.012c-1.84,2.902-11.578,8.176-11.176,7.434l0.395-2.125
		C136.753,134.625,139.605,132.746,142.343,130.684L142.343,130.684z M145.781,130.684l2.68,0.012
		c-4.035,5.125-8.129,6.995-12.055,9.199c-0.234-0.036-0.129-0.122-0.863-0.102l-1.344-1.047
		C134.449,138.977,143.222,133.832,145.781,130.684L145.781,130.684z M70.73,130.867l-0.09,1.547
		c-5.648,4.855-7.91,11.059-4.972,18.258l-0.7,1.539C61.808,144.526,62.742,137.062,70.73,130.867L70.73,130.867z M96.437,131.108
		l0.297,4.181l-17.523,17.059c2.668-9.532,3.406-15.286,4.121-21.215L96.437,131.108z M152.558,132.094l0.008,2.316
		c-6.91,7.612-13.871,11.023-19.891,12.401l-0.137-0.89l2.785-1.719C144.304,140.293,148.234,136.354,152.558,132.094
		L152.558,132.094z M131.589,132.151c0.121,1.681-1.371,4.845-3.078,6.63l-2.922-0.009l-0.324-1.269
		C127.691,136.199,129.933,134.43,131.589,132.151L131.589,132.151z M132.472,132.652c1.074,1.73-0.539,6.199-0.605,6.023
		c-0.129,0.304,9.184,2.273-0.383,6.879c0.207,1.355,1.105,4.242,0.414,6.031c-0.215-0.688-1.879-5.32-3.164-6.508
		c2.984-0.852,5.137-2.681,4.902-3.281c-0.484-0.856-1.824-1.906-4.074-2.68C131.48,136.461,132.046,134.465,132.472,132.652
		L132.472,132.652z M64.086,133.5l0.3,3.522l-3.402,2.048l-0.262-3.871L64.086,133.5z M123.257,136.772
		c0.266,0.005,0.516,0.071,0.637,0.204c1.684,0.68,1.805,8.875,0.277,9.71c-1.105,0.696-1.887-0.421-1.848-0.621
		c0.734-3.772,0.277-6.104-0.031-8.737C122.328,136.94,122.816,136.766,123.257,136.772L123.257,136.772z M152.558,136.895v2.914
		c-9.875,10.238-20.52,18.309-31.383,22.839l-0.992-1.679C133.378,154.867,144.414,146.16,152.558,136.895L152.558,136.895z
		 M150.824,137.16c-4.574,6.367-10.148,10.523-17.785,12.41l-0.141-1.805C142.406,145.604,151.07,137.16,150.824,137.16
		L150.824,137.16z M26.316,138.19c5.961,6.091,12.066,12.13,18.129,18.38l-2.41,0.125l-15.789-16.384L26.316,138.19z M97.25,138.496
		L97.46,140l-1.734,1.901l2.742,2.946l0.141,0.691L96.253,148l-1.063-1.051l1.301-1.461l-2.207-2.324l-4.098,3.94l3.375,3.665
		l-2.547,2.421l-1-1.038l1.301-1.505l-2.262-2.386l-4.175,4.152l3.156,3.488l-2.106,2.331l-1-1.05l1.082-1.243l-2.289-2.354
		l-4.011,3.863l3.304,3.652l-2.683,2.671l-1.043-1.011l1.508-1.637l-2.477-2.359l-1.984,1.875c0,0,0.75-1.859,0.859-2.176
		c0.16-0.461,0.816-0.828,4.992-4.945C87.168,148.562,92.277,143.914,97.25,138.496L97.25,138.496z M125.824,139.496
		c1.457,0.026,3.934,0.379,5.137,1.012c2.23,1.176,1.531,2.101,0.078,2.793c-1.73,0.828-3.152,1.23-5.113,1.289l0.059-0.961
		c1.137-0.277,2.316-0.555,3.32-1.109c0.691-0.383,0.871-0.691,0.871-0.691s-0.676-0.684-1.746-1.074
		c-0.785-0.285-1.906-0.281-2.52-0.383L125.824,139.496z M60.656,140.766l1.832,2.75l-2.172,3.636l-2.082-3.136L60.656,140.766z
		 M97.64,141.062c0.063,0.517,0.719,2.532,0.375,2.142l-1.219-1.371L97.64,141.062z M125.937,141.332
		c1.016,0.086,2.082,0.113,2.82,0.473c-0.855,0.668-1.832,0.816-2.801,0.98L125.937,141.332z M151.375,142.707
		c0.613,0,1.109,0.496,1.109,1.104c0,0.614-0.496,1.11-1.109,1.11s-1.109-0.496-1.109-1.11
		C150.265,143.203,150.761,142.707,151.375,142.707L151.375,142.707z M94.171,144.625l0.945,0.914l-1.223,1.426l2.215,2.336
		l2.746-2.571l0.363,1.629L73.504,173.66l-1.426-0.102l1.637-1.934l-1.86-1.898l0.762-1.368l2.195,1.95l4.02-3.844l-3.258-3.43
		l2.785-2.855l1.051,0.906l-1.598,1.729l2.328,2.375l4.207-4.136l-3.293-3.578l2.629-2.508l0.961,0.918l-1.219,1.293l2.399,2.496
		l3.543-3.688l-3.227-3.555l2.867-2.789l0.879,0.878l-1.32,1.474l2.41,2.496l3.871-3.977l-3.188-3.454L94.171,144.625z
		 M148.8,145.285c0.613,0,1.109,0.496,1.109,1.109s-0.496,1.109-1.109,1.109c-0.609,0-1.109-0.496-1.109-1.109
		S148.191,145.285,148.8,145.285L148.8,145.285z M127.902,145.336c1.746,2.051,2.797,4.332,3.004,6.789
		c-1.395-2.117-3.168-3.996-5.496-5.629l0.398-1.027L127.902,145.336z M152.558,145.504v2.473
		c-7.789,8.828-17.246,15.48-26.953,20.109l-1.652-2.008C135.437,160.949,143.746,154.586,152.558,145.504L152.558,145.504z
		 M141.101,147.229l-3.16,2.454l-0.004-1.063L141.101,147.229z M124.824,147.414c2.688,1.313,4.941,3.526,6.285,6.815
		c-3.672,2.306-7.699,4.168-11.539,6.028c-1.844-2.969-3.699-5.75-5.156-9.571c5.922-0.046,7.547-3.28,7.59-3.304
		C123.429,147.922,123.726,147.983,124.824,147.414L124.824,147.414z M146.097,147.895c0.555,0.012,1.105,0.434,1.125,1.066
		c0,0.613-0.496,1.109-1.109,1.109c-0.609,0-1.109-0.496-1.109-1.109C145.125,148.195,145.613,147.887,146.097,147.895
		L146.097,147.895z M137.902,148.625l0.008,1.07c-1.512,1.324-4.449,3.469-4.449,3.469l-1.215-0.066l0.395-3.036
		C134.48,149.69,136.265,149.152,137.902,148.625L137.902,148.625z M60.554,148.75l2.899,2.383l-0.887,3.695l-2.855-2.164
		L60.554,148.75z M99.5,149.445l0.27,1.07L75.941,174.07l-1.355-0.219L99.5,149.445z M143.457,150.358
		c0.613,0,1.109,0.496,1.109,1.106c0,0.613-0.496,1.109-1.109,1.109s-1.109-0.496-1.109-1.109
		C142.347,150.854,142.843,150.358,143.457,150.358L143.457,150.358z M152.257,150.352c0.129,0,0.281-0.012,0.281,0.113v2.039
		c-0.113,0.039-0.238,0.062-0.371,0.062c-0.613,0-1.02-0.495-1.02-1.108C151.148,150.848,151.644,150.352,152.257,150.352
		L152.257,150.352z M149.566,152.82c0.613,0,1.109,0.495,1.109,1.109c0,0.613-0.496,1.109-1.109,1.109s-1.109-0.496-1.109-1.109
		C148.457,153.315,148.953,152.82,149.566,152.82L149.566,152.82z M140.253,152.832c0.613,0,1.109,0.496,1.109,1.108
		c0,0.614-0.496,1.11-1.109,1.11s-1.109-0.496-1.109-1.11C139.144,153.328,139.64,152.832,140.253,152.832L140.253,152.832z
		 M132.238,153.176l1.141,0.035l-2.117,1.262C131.648,153.983,132.011,153.613,132.238,153.176L132.238,153.176z M152.554,153.69
		l0.016,2.282c-5.449,5.445-12.332,11.098-22.855,16.547l-1.34-1.359C136.953,167.07,145.007,161.336,152.554,153.69L152.554,153.69
		z M137.078,154.937c0.613,0,1.109,0.497,1.109,1.106c0,0.613-0.496,1.109-1.109,1.109c-0.609,0-1.105-0.496-1.105-1.109
		C135.972,155.434,136.468,154.937,137.078,154.937L137.078,154.937z M146.933,155.02c0.613,0,1.109,0.496,1.109,1.109
		c0,0.609-0.496,1.104-1.109,1.104s-1.109-0.495-1.109-1.104C145.824,155.516,146.32,155.02,146.933,155.02L146.933,155.02z
		 M36.547,159.469c3.761-2.184,6.785-2.438,11.093-1.782l1.285,2.54c-4.195-0.743-8.613-0.676-12.394,2.242
		c-3.914-2.477-6.891-3.191-10.106-2.789l-0.058-2.676C30.558,156.418,34.32,157.854,36.547,159.469L36.547,159.469z
		 M134.023,157.055c0.613,0,1.109,0.496,1.109,1.109c0,0.608-0.496,1.105-1.109,1.105s-1.109-0.497-1.109-1.105
		C132.914,157.551,133.41,157.055,134.023,157.055L134.023,157.055z M144.16,157.508c0.609,0,1.105,0.496,1.105,1.109
		c0,0.612-0.496,1.109-1.105,1.109c-0.613,0-1.109-0.497-1.109-1.109C143.05,158.004,143.546,157.508,144.16,157.508L144.16,157.508
		z M130.691,159.164c0.613,0,1.109,0.496,1.109,1.108c0,0.614-0.496,1.11-1.109,1.11s-1.109-0.496-1.109-1.11
		C129.582,159.66,130.078,159.164,130.691,159.164L130.691,159.164z M141.023,159.809c0.613,0,1.109,0.496,1.109,1.105
		c0,0.613-0.496,1.108-1.109,1.108c-0.609,0-1.105-0.495-1.105-1.108C139.917,160.305,140.414,159.809,141.023,159.809
		L141.023,159.809z M127.273,161.125c0.621,0,1.125,0.5,1.125,1.121s-0.504,1.125-1.125,1.125s-1.121-0.504-1.121-1.125
		S126.652,161.125,127.273,161.125L127.273,161.125z M138.062,162.055c0.613,0,1.109,0.496,1.109,1.105
		c0,0.612-0.496,1.109-1.109,1.109s-1.109-0.497-1.109-1.109C136.953,162.551,137.449,162.055,138.062,162.055L138.062,162.055z
		 M123.992,162.82c0.609,0,1.109,0.495,1.109,1.109c0,0.609-0.5,1.105-1.109,1.105c-0.613,0-1.109-0.496-1.109-1.105
		C122.882,163.315,123.378,162.82,123.992,162.82L123.992,162.82z M74.988,163.82l2.758,2.527l-2.852,2.859l-1.043-1l1.586-1.66
		l-1.074-1.445L74.988,163.82z M135.003,164.065c0.613,0,1.109,0.496,1.109,1.11c0,0.613-0.496,1.109-1.109,1.109
		s-1.109-0.496-1.109-1.109C133.894,164.562,134.39,164.065,135.003,164.065L135.003,164.065z M131.812,165.945
		c0.613,0,1.109,0.495,1.109,1.105c0,0.613-0.496,1.109-1.109,1.109c-0.609,0-1.109-0.496-1.109-1.109
		C130.703,166.44,131.203,165.945,131.812,165.945L131.812,165.945z M128.343,167.828c0.613,0,1.109,0.496,1.109,1.105
		c0,0.613-0.496,1.109-1.109,1.109c-0.609,0-1.105-0.496-1.105-1.109C127.238,168.324,127.734,167.828,128.343,167.828
		L128.343,167.828z M71.34,170.961l0.902,0.734l-1.414,1.699l-1.078-0.016L71.34,170.961z M53.929,175.547
		c-3.14,1.555-4.632,2.539-6.824,4.445l-3.14-4.352L53.929,175.547z M32.554,175.578l8.368,0.117l-2.786,3.938
		C36.304,177.699,34.441,176.387,32.554,175.578L32.554,175.578z M42.519,176.008c0.906,0.289,3.278,3.668,4.395,5.515
		c2.379-1.894,4.711-4.007,7.25-5.144c-3.02,3.191-5.672,6.492-7.563,9.683c-0.535-1.437-2.023-5.558-3.91-7.347
		c-2.973,2.773-4.148,6.125-4.148,6.125c-1.598-2.723-3.524-5.457-5.754-8.008c-0.367-0.5,2.711,1.414,5.761,4.383
		C39.41,179.051,41.711,176.094,42.519,176.008L42.519,176.008z M32.472,178.133c1.434,1.14,5.34,6.152,5.789,9.168l-1.871,0.117
		C35.398,184.324,33.726,181.229,32.472,178.133L32.472,178.133z M53.277,178.645c-1.414,2.902-3.172,5.867-4.43,9.078l-1.851-0.082
		C49.023,183.215,49.761,182.406,53.277,178.645L53.277,178.645z M42.675,179.937c0.016-0.003,0.032,0,0.043,0.013
		c1.758,2.395,2.586,4.727,3.11,7.563l-1.36-0.051c0,0-0.945-2.848-1.597-3.856c-0.422-0.612-0.758-0.534-1.055-0.022
		c-0.672,1.203-0.922,2.406-1.297,3.719l-1.566-0.114C38.664,185.035,42.125,179.992,42.675,179.937L42.675,179.937z
		 M42.425,188.199c0.637,0.008,1.301,0.698,1.297,1.905c0.047,0.567-0.39,1.825-0.871,1.892c-0.886,0.469-1.933-0.992-1.668-2.211
		C41.406,188.746,41.867,188.19,42.425,188.199L42.425,188.199z M39.351,188.43c1.254,0.109,1.524,2.925,1.016,3.504
		c-0.586,0.578-2.129,0.168-2.277-0.836C37.586,189.82,38.507,188.44,39.351,188.43L39.351,188.43z M45.539,188.414
		c1.367,0.19,1.023,3.281,0.316,3.733c-1.098,0.582-1.937-0.39-1.566-1.843C44.59,189.137,45.035,188.44,45.539,188.414
		L45.539,188.414z M48.703,188.926c1.566,0.176,0.66,2.895-0.024,3.449c-0.992,0.777-1.953-0.383-1.476-1.767
		C47.574,189.539,48.187,188.918,48.703,188.926L48.703,188.926z M36.058,189.008c1.141,0.183,1.801,2.762,1.121,3.496
		c-0.351,0.426-1.382-0.192-1.855-0.899C34.761,190.758,35.289,189.004,36.058,189.008L36.058,189.008z M48.187,194.625
		c0.137,1.352-0.887,1.352-3.828,0.69c-1.484-0.332-4.121-0.12-5.465,0.121c-2.265,0.415-2.586,0.254-2.582-0.667
		c0.004-1.07,1.274-1.676,4.215-1.766C42.629,192.937,47.863,192.918,48.187,194.625L48.187,194.625z M52.765,193.828
		c-3.508,0.332-4.437,4.723-4.05,6.344c0.304,2.711,0.175,5.551-0.348,7.418c-0.375,1.34-0.707,2.765-1.309,3.98
		c-0.922,1.836-0.683,3.199,0.684,3.93c1.121,0.602,2.504,0.395,3.371-0.535c1.566-1.684,1.75-5.254,0.793-13.356
		c-0.34-2.854-0.156-3.425,1.23-3.265C56.047,198.32,55.929,193.832,52.765,193.828L52.765,193.828z M52.343,197.52
		c-0.785-0.305-1.316,0.41-1.211,2.184c0.028,0.785,0.165,1.672,0.266,2.375c1.133,7.773,0.707,12.98-1.68,13.233
		c-2.078,0.336-3.484-1.194-2.468-2.776c0.574-0.895,1.066-1.016,2.183-0.547c1.539,0.952,1.153-0.434-0.23-1.457
		c-0.887-0.629-0.953-0.629-0.477-2.591c0.641-2.644,0.856-4.53,0.621-7.879c-0.332-2.366,0.461-5.507,3.473-5.69
		C55.867,194.276,54.949,198.604,52.343,197.52L52.343,197.52z M30.832,207.758c0.992,0.476,1.957,0.394,2.898,0.008
		c0.367-1.652,0.391-3.027,1.504-5.277c-1.852-1.852-4.973-1.125-5.848,0.82C28.507,205.25,29.324,207.031,30.832,207.758
		L30.832,207.758z M33.804,202.02c1.121,0.238,0.953,1.417-0.105,1.035c-2.52-1.188-4.57,2.382-2.539,3.727
		c1.039,0.582,1.496,0.245,0.469-0.552c-0.422-0.483-0.317-0.683-0.063-1.168c0.527-0.979,2.449-0.823,2.313-0.108
		c-0.438,2.258-0.727,2.91-1.407,2.918C28.562,208.07,27.824,200.75,33.804,202.02L33.804,202.02z M67.035,206.086
		c0,0-11.653,13.176-17.266,19.926l70.359-0.328l-13.391-18.469C95.253,209.863,81.757,209.098,67.035,206.086L67.035,206.086z
		 M66.687,210.297c1.758,0.019,3.758,1.297,5.485,5.551c0.093,0.039,7.738-11.609,14.355,0.449c1.082-2.707,7.316-9.77,14.52-0.707
		c2.563-6.063,8.465-4.012,9.016-1.895c-0.121-0.457-5.621-1.762-8.004,2.258c-0.441,0.852-0.465,1.655,0.043,2.137
		c1.188,1.129-0.105,2.746-1.461,1.824c-0.531-0.359-0.598-1.109-0.191-1.652c1.195-0.891-1.254-3.664-3.27-4.664
		c-2.766-1.368-6.621-0.766-8.472,1.199c-1,1.058-1.61,2.008-1.754,2.765c-0.078,0.353-0.031,0.54,0.179,0.774
		c0.805,0.969,0.274,2.297-0.816,2.137c-1.426-0.211-1.234-1.543-0.281-2.273c0.293-0.145,0.183-0.316,0.094-0.563
		c-2.602-7.328-12.301-5.934-13.352-0.86c-0.035,0.185-0.121,0.38-0.078,0.567c0.109,0.488,0.391,0.895,0.285,1.277
		c-0.445,1.559-2.398,1.112-2.484-0.181c-0.039-0.586,0.593-0.761,0.902-1.3c0.188-0.336,0.273-0.746,0.094-1.118
		c-2.629-5.507-7.141-4.354-9.379-3.112C62.07,212.937,64.117,210.27,66.687,210.297L66.687,210.297z M63.773,213.488
		c0.961-0.035,1.836,0.438,2.652,1.387c2.754-1.457,4.715,1.065,4.387,1.309c-3.898-2.531-5.168,3.367-1.324,3.145
		c-1.688,3.492,4.344,4.992,3.668,0.523c3.723,1.301,4.336-3.813,0.566-3.734c1.219-2.109,4.383-1.527,5.719-0.207
		c1.574-1.922,5.438-0.09,5.82,1.555c-4.332-2.223-4.769,4.562-0.574,3.117c-1.242,4.315,5.43,3.703,3.582-0.021
		c4.156,1.368,3.59-4.839-0.492-3.582c-0.246-0.319,3.227-3.909,5.754-0.539c0.344-0.593,4.289-2.539,6.445,0.517
		c-4.676-1.582-3.789,4.715-0.438,3.465c-0.898,4.168,5.148,3.492,3.605-0.063c4.684,1.185,2.609-5.952-0.684-3.315
		c0.539-2.871,4.477-1.68,4.434-1.238c0-0.004,2.09-2.262,4.434-0.609c-3.66,0.309-2.414,5.245,1.043,3.84
		c-0.035,1.676,1.355,2.785,3.238,2.215l2.957,4.137l-67.445,0.422l5.386-6.422c1.801,1.492,3.672,0.785,3.903-1.551
		c3.922,2.406,4.941-3.31,1.258-3.555C62.418,213.772,63.113,213.512,63.773,213.488L63.773,213.488z M60.004,215.344
		c0.23,0.164-0.086,0.961-0.602,0.73L60.004,215.344z M112.593,217.004c0.199,0.285,0.34,0.473,0.543,0.758
		C113.23,218.02,112.082,217.625,112.593,217.004L112.593,217.004z M112.593,217.004"/>
</g>
</svg>
