<?xml version="1.0" encoding="utf-8"?>
<!-- Generator: Adobe Illustrator 15.0.0, SVG Export Plug-In . SVG Version: 6.00 Build 0)  -->
<!DOCTYPE svg PUBLIC "-//W3C//DTD SVG 1.1//EN" "http://www.w3.org/Graphics/SVG/1.1/DTD/svg11.dtd">
<svg version="1.1" id="Layer_1" xmlns="http://www.w3.org/2000/svg" xmlns:xlink="http://www.w3.org/1999/xlink" x="0px" y="0px"
	 width="178.582px" height="249.449px" viewBox="0 0 178.582 249.449" enable-background="new 0 0 178.582 249.449"
	 xml:space="preserve">
<g>
	<path fill="#FFFFFF" d="M8.504,0"/>
	<path fill="#D40000" d="M6.757,31.371l2.04-1.469c1.769,2.825,3.746,4.688,6.769,4.368c4.539-0.305,6.422-4.977,5.469-8.497
		c-0.918-3.156-4.676-4.695-7.66-3.011c-0.707,0.398-1.52,0.886-1.52,0.886l-1.062-1.73l7.011-8.156h-7.609v3.375H7.273v-6.051
		h14.875v2.055c0,0-3.984,4.054-5.305,6.277c3.247,0.117,5.86,2.133,6.793,5.324c0.551,1.68,0.305,5.524-0.41,7.176
		c-1.195,2.762-4.469,5-7.457,5.129C10.75,37.379,8.086,33.926,6.757,31.371L6.757,31.371z M6.757,31.371"/>
	<path fill="#D40000" d="M171.824,218.078l-2.039,1.473c-1.773-2.824-3.75-4.692-6.773-4.367c-4.539,0.305-6.418,4.973-5.469,8.496
		c0.918,3.156,4.676,4.695,7.664,3.011c0.703-0.397,1.52-0.812,1.52-0.812l1.258,1.625l-7.207,8.187h7.609v-3.375h2.918v6.052
		h-14.871v-2.056c0,0,3.984-4.054,5.301-6.276c-3.242-0.117-5.855-2.138-6.793-5.328c-0.547-1.676-0.301-5.521,0.414-7.172
		c1.195-2.763,4.469-5,7.457-5.129C167.828,212.074,170.492,215.527,171.824,218.078L171.824,218.078z M171.824,218.078"/>
	<path fill="#D40000" d="M7.793,48.535c-1.266-2.781-1.407-7.527,2.379-8.168c2.847-0.367,4.007,0.957,4.238,2.992
		c0.113,0.594,0.449,0.633,0.555-0.047c0.164-2.085,2.23-3.304,3.847-3c4.418,0.758,4.16,5.625,2.719,8.926
		c-2.188,4.383-4.481,7.149-6.598,11.563C12.504,56.207,9.726,52.477,7.793,48.535L7.793,48.535z M7.793,48.535"/>
	<path fill="#D40000" d="M79.601,22.992c5.715-0.379,8.692,4.5,9.274,8.348c0.347,0.613,0.539,0.441,0.671-0.035
		c0.277-4.938,4.699-8.973,8.793-8.422c6.66,0.086,10.711,7.5,9.574,13.773c-1.391,7.668-5.52,12.281-8.648,17.035
		c-3.535,4.922-8.297,12.032-9.832,15.454c0,0-4.84-7.364-11.133-16.024c-4.21-5.789-7.578-12.066-7.89-17.469
		C70.05,29.48,72.582,23.949,79.601,22.992L79.601,22.992z M79.601,22.992"/>
	<path fill="#D40000" d="M79.648,101.73c5.719-0.382,8.695,4.5,9.277,8.348c0.348,0.609,0.54,0.438,0.672-0.035
		c0.277-4.938,4.699-8.977,8.793-8.422c6.66,0.086,10.711,7.5,9.574,13.774c-1.391,7.664-5.52,12.281-8.648,17.035
		c-3.535,4.922-8.297,12.031-9.832,15.453c0,0-4.84-7.363-11.133-16.024c-4.211-5.788-7.578-12.065-7.89-17.467
		C70.101,108.219,72.632,102.687,79.648,101.73L79.648,101.73z M79.648,101.73"/>
	<path fill="#D40000" d="M157.382,201.504c-1.266,2.777-1.406,7.522,2.375,8.164c2.852,0.367,4.012-0.957,4.242-2.992
		c0.113-0.594,0.449-0.629,0.555,0.047c0.164,2.086,2.23,3.304,3.844,3c4.422-0.758,4.164-5.621,2.719-8.926
		c-2.184-4.383-4.48-7.149-6.594-11.559C162.093,193.828,159.316,197.559,157.382,201.504L157.382,201.504z M157.382,201.504"/>
	<path fill="#D40000" d="M79.601,226.668c5.715,0.379,8.692-4.5,9.274-8.348c0.347-0.613,0.539-0.441,0.671,0.031
		c0.277,4.941,4.699,8.977,8.793,8.426c6.66-0.087,10.711-7.5,9.574-13.773c-1.391-7.668-5.52-12.281-8.648-17.035
		c-3.535-4.922-8.297-12.032-9.832-15.453c0,0-4.84,7.363-11.133,16.023c-4.21,5.789-7.578,12.065-7.89,17.469
		C70.05,220.18,72.582,225.711,79.601,226.668L79.601,226.668z M79.601,226.668"/>
</g>
</svg>
