<?xml version="1.0" encoding="utf-8"?>
<!-- Generator: Adobe Illustrator 15.0.0, SVG Export Plug-In . SVG Version: 6.00 Build 0)  -->
<!DOCTYPE svg PUBLIC "-//W3C//DTD SVG 1.1//EN" "http://www.w3.org/Graphics/SVG/1.1/DTD/svg11.dtd">
<svg version="1.1" id="Layer_1" xmlns="http://www.w3.org/2000/svg" xmlns:xlink="http://www.w3.org/1999/xlink" x="0px" y="0px"
	 width="178.582px" height="249.449px" viewBox="0 0 178.582 249.449" enable-background="new 0 0 178.582 249.449"
	 xml:space="preserve">
<g>
	<path fill="#FFFFFF" d="M8.504,0"/>
	<path fill="#D40000" d="M3.757,27.371l2.04-1.469c1.769,2.825,3.746,4.688,6.769,4.368c4.539-0.305,6.422-4.977,5.469-8.497
		c-0.918-3.156-4.676-4.695-7.66-3.011c-0.707,0.398-1.52,0.886-1.52,0.886l-1.062-1.73l7.011-8.156H7.195v3.375H4.273V7.086h14.875
		v2.055c0,0-3.984,4.054-5.305,6.277c3.247,0.117,5.86,2.133,6.793,5.324c0.551,1.68,0.305,5.524-0.41,7.176
		c-1.195,2.762-4.469,5-7.457,5.129C7.75,33.379,5.086,29.926,3.757,27.371L3.757,27.371z"/>
	<path fill="#D40000" d="M174.824,223.078l-2.039,1.473c-1.773-2.824-3.75-4.691-6.773-4.367c-4.539,0.307-6.418,4.975-5.469,8.496
		c0.918,3.156,4.676,4.695,7.664,3.012c0.703-0.396,1.52-0.813,1.52-0.813l1.258,1.625l-7.207,8.188h7.609v-3.375h2.918v6.053
		h-14.871v-2.057c0,0,3.984-4.055,5.301-6.275c-3.24-0.117-5.854-2.139-6.793-5.328c-0.547-1.676-0.301-5.521,0.414-7.172
		c1.195-2.764,4.471-5,7.457-5.129C170.828,217.074,173.492,220.527,174.824,223.078L174.824,223.078z"/>
	<path fill="#D40000" d="M4.793,45.535c-1.266-2.781-1.407-7.527,2.379-8.168c2.847-0.367,4.007,0.957,4.238,2.992
		c0.113,0.594,0.449,0.633,0.555-0.047c0.164-2.085,2.23-3.304,3.847-3c4.418,0.758,4.16,5.625,2.719,8.926
		c-2.188,4.383-4.481,7.149-6.598,11.563C9.504,53.207,6.726,49.477,4.793,45.535L4.793,45.535z"/>
	<path fill="#D40000" d="M79.601,22.992c5.715-0.379,8.692,4.5,9.274,8.348c0.347,0.613,0.539,0.441,0.671-0.035
		c0.277-4.938,4.699-8.973,8.793-8.422c6.66,0.086,10.711,7.5,9.574,13.773c-1.392,7.668-5.521,12.281-8.647,17.035
		c-3.535,4.922-8.298,12.032-9.833,15.454c0,0-4.84-7.364-11.133-16.024c-4.21-5.789-7.578-12.066-7.89-17.469
		C70.05,29.48,72.582,23.949,79.601,22.992L79.601,22.992z"/>
	<path fill="#D40000" d="M79.648,101.73c5.719-0.382,8.695,4.5,9.277,8.348c0.348,0.609,0.54,0.438,0.672-0.035
		c0.277-4.938,4.699-8.977,8.793-8.422c6.658,0.086,10.711,7.5,9.572,13.774c-1.391,7.664-5.521,12.281-8.646,17.035
		c-3.535,4.922-8.297,12.031-9.833,15.453c0,0-4.84-7.363-11.133-16.023c-4.211-5.788-7.578-12.064-7.89-17.466
		C70.101,108.219,72.632,102.687,79.648,101.73L79.648,101.73z"/>
	<path fill="#D40000" d="M159.684,204.641c-1.267,2.777-1.406,7.521,2.375,8.164c2.853,0.367,4.012-0.957,4.241-2.992
		c0.112-0.594,0.449-0.629,0.556,0.047c0.164,2.086,2.229,3.306,3.845,3c4.422-0.758,4.163-5.62,2.719-8.926
		c-2.185-4.383-4.479-7.147-6.594-11.559C164.395,196.965,161.617,200.695,159.684,204.641L159.684,204.641z"/>
	<path fill="#D40000" d="M79.601,226.668c5.715,0.379,8.692-4.5,9.274-8.348c0.347-0.613,0.539-0.441,0.671,0.031
		c0.277,4.939,4.699,8.977,8.793,8.426c6.66-0.088,10.711-7.5,9.574-13.773c-1.392-7.668-5.521-12.281-8.647-17.035
		c-3.535-4.922-8.298-12.031-9.833-15.453c0,0-4.84,7.363-11.133,16.023c-4.21,5.789-7.578,12.064-7.89,17.469
		C70.05,220.18,72.582,225.711,79.601,226.668L79.601,226.668z"/>
</g>
</svg>
