<?xml version="1.0" encoding="utf-8"?>
<!-- Generator: Adobe Illustrator 15.0.0, SVG Export Plug-In . SVG Version: 6.00 Build 0)  -->
<!DOCTYPE svg PUBLIC "-//W3C//DTD SVG 1.1//EN" "http://www.w3.org/Graphics/SVG/1.1/DTD/svg11.dtd">
<svg version="1.1" id="Layer_1" xmlns="http://www.w3.org/2000/svg" xmlns:xlink="http://www.w3.org/1999/xlink" x="0px" y="0px"
	 width="178.582px" height="249.449px" viewBox="0 0 178.582 249.449" enable-background="new 0 0 178.582 249.449"
	 xml:space="preserve">
<g>
	<path fill="#FFFFFF" d="M8.504,0"/>
	<path fill="#D40000" d="M3.718,26.031l2.574-0.023c0.492,1.558,1.578,3.14,3.055,3.582c4.168,0.976,6.855-1.352,7.738-4.039
		c1.07-3.258-0.024-7.836-2.895-9.461c-2.379-1.352-5.914-0.211-7.539,2.668l-1.804-1.102L5.815,6.918H17.6v2.539H8.05L7.901,13.93
		c2.051-1.442,5.215-1.43,7.27-0.418c3.89,1.855,5.699,6.074,4.941,11.05c-1.051,4.946-3.359,7.747-8.574,8.153
		C5.741,32.762,3.694,28.777,3.718,26.031L3.718,26.031z"/>
	<path fill="#D40000" d="M174.039,223.922l-2.578,0.02c-0.488-1.555-1.578-3.141-3.051-3.577c-4.172-0.978-6.855,1.352-7.738,4.038
		c-1.074,3.259,0.023,7.837,2.895,9.462c2.379,1.348,5.914,0.211,7.535-2.673l1.806,1.105l-0.97,10.738h-11.78v-2.539h9.547
		l0.151-4.475c-2.055,1.442-5.215,1.432-7.27,0.418c-3.891-1.854-5.699-6.072-4.941-11.049c1.047-4.945,3.359-7.75,8.574-8.152
		C172.016,217.188,174.063,221.172,174.039,223.922L174.039,223.922z"/>
	<path fill="#D40000" d="M4.609,44.48c-1.269-2.777-1.406-7.523,2.375-8.168c2.852-0.367,4.012,0.961,4.242,2.993
		c0.114,0.597,0.449,0.632,0.555-0.043c0.164-2.09,2.23-3.309,3.844-3c4.422,0.754,4.164,5.621,2.718,8.922
		c-2.183,4.382-4.48,7.152-6.593,11.562C9.316,52.152,6.543,48.422,4.609,44.48L4.609,44.48z"/>
	<path fill="#D40000" d="M35.242,22.94c5.715-0.379,8.695,4.5,9.277,8.347c0.348,0.614,0.535,0.442,0.668-0.031
		c0.281-4.941,4.699-8.976,8.797-8.426c6.66,0.086,10.711,7.5,9.57,13.774c-1.39,7.668-5.519,12.281-8.644,17.035
		c-3.539,4.922-8.297,12.031-9.832,15.453c0,0-4.84-7.363-11.133-16.023c-4.211-5.789-7.578-12.067-7.895-17.469
		C25.695,29.429,28.226,23.897,35.242,22.94L35.242,22.94z"/>
	<path fill="#D40000" d="M123.789,22.94c5.715-0.379,8.695,4.5,9.273,8.347c0.348,0.614,0.539,0.442,0.672-0.031
		c0.276-4.941,4.699-8.976,8.793-8.426c6.664,0.086,10.711,7.5,9.574,13.774c-1.392,7.668-5.521,12.281-8.648,17.035
		c-3.535,4.922-8.297,12.031-9.832,15.453c0,0-4.836-7.363-11.133-16.023c-4.207-5.789-7.578-12.067-7.891-17.469
		C114.238,29.429,116.773,23.897,123.789,22.94L123.789,22.94z"/>
	<path fill="#D40000" d="M79.648,102.331c5.719-0.382,8.695,4.5,9.277,8.348c0.348,0.609,0.54,0.438,0.672-0.035
		c0.277-4.938,4.699-8.977,8.793-8.422c6.659,0.086,10.711,7.5,9.573,13.774c-1.391,7.664-5.521,12.28-8.647,17.034
		c-3.535,4.922-8.297,12.031-9.833,15.453c0,0-4.84-7.363-11.133-16.023c-4.211-5.789-7.578-12.064-7.89-17.466
		C70.101,108.819,72.632,103.288,79.648,102.331L79.648,102.331z"/>
	<path fill="#D40000" d="M35.242,226.256c5.715,0.379,8.695-4.504,9.277-8.352c0.348-0.609,0.535-0.438,0.668,0.034
		c0.281,4.938,4.699,8.976,8.797,8.427c6.66-0.091,10.711-7.5,9.57-13.777c-1.39-7.664-5.519-12.281-8.644-17.035
		c-3.539-4.922-8.297-12.031-9.832-15.453c0,0-4.84,7.363-11.133,16.021c-4.211,5.793-7.578,12.067-7.895,17.471
		C25.695,219.764,28.226,225.299,35.242,226.256L35.242,226.256z"/>
	<path fill="#D40000" d="M123.789,226.256c5.715,0.379,8.695-4.504,9.273-8.352c0.348-0.609,0.539-0.438,0.672,0.034
		c0.276,4.938,4.699,8.976,8.793,8.427c6.664-0.091,10.711-7.5,9.574-13.777c-1.392-7.664-5.521-12.281-8.648-17.035
		c-3.535-4.922-8.297-12.031-9.832-15.453c0,0-4.836,7.363-11.133,16.021c-4.207,5.793-7.578,12.067-7.891,17.471
		C114.238,219.764,116.773,225.299,123.789,226.256L123.789,226.256z"/>
	<path fill="#D40000" d="M159.872,205.564c-1.267,2.781-1.402,7.525,2.379,8.168c2.848,0.367,4.008-0.957,4.237-2.992
		c0.113-0.598,0.449-0.633,0.56,0.047c0.16,2.086,2.227,3.305,3.844,3c4.422-0.758,4.164-5.625,2.719-8.926
		c-2.184-4.383-4.48-7.148-6.598-11.563C164.583,197.893,161.81,201.623,159.872,205.564L159.872,205.564z"/>
</g>
</svg>
