<?xml version="1.0" encoding="utf-8"?>
<!-- Generator: Adobe Illustrator 15.0.0, SVG Export Plug-In . SVG Version: 6.00 Build 0)  -->
<!DOCTYPE svg PUBLIC "-//W3C//DTD SVG 1.1//EN" "http://www.w3.org/Graphics/SVG/1.1/DTD/svg11.dtd">
<svg version="1.1" id="Layer_1" xmlns="http://www.w3.org/2000/svg" xmlns:xlink="http://www.w3.org/1999/xlink" x="0px" y="0px"
	 width="178.582px" height="249.449px" viewBox="0 0 178.582 249.449" enable-background="new 0 0 178.582 249.449"
	 xml:space="preserve">
<g>
	<path fill="#FFFFFF" d="M8.504,0"/>
	<path fill="#D40000" d="M4.59,24.801c-0.325-2.196-0.321-7.875-0.051-9.551c0.82-5.145,2.824-7.496,6.176-8.27
		c3.257-0.746,7.832,0.086,8.835,4.387l-2.726,0.051c-1.469-2.906-5.195-2.129-7.289-0.867c-1.676,1.011-2.434,5.219-2.11,5.476
		c-0.003,0,3.168-2.3,5.661-2.132c5.336,0.546,7.535,5.085,7.347,9.375c-0.168,5.16-1.836,9.281-7.488,9.558
		C7.57,32.625,5.105,29.746,4.59,24.801L4.59,24.801z M17.847,23.437c0.028-3.578-1.629-6.257-4.761-6.554
		c-3.133-0.293-6.289,2.707-6.071,6.355c0.219,3.66,1.664,6.746,5.461,6.727C16.562,29.949,17.824,25.984,17.847,23.437
		L17.847,23.437z"/>
	<path fill="#D40000" d="M173.988,224.646c0.328,2.201,0.324,7.879,0.055,9.557c-0.824,5.145-2.828,7.496-6.18,8.266
		c-3.254,0.75-7.832-0.082-8.836-4.383l2.727-0.051c1.473,2.904,5.195,2.129,7.293,0.861c1.676-1.006,2.43-5.213,2.105-5.474
		c0.004,0-3.164,2.304-5.66,2.136c-5.332-0.55-7.531-5.086-7.348-9.375c0.168-5.162,1.836-9.287,7.485-9.562
		C171.007,216.828,173.473,219.707,173.988,224.646L173.988,224.646z M160.734,226.016c-0.031,3.578,1.625,6.258,4.758,6.551
		c3.133,0.3,6.293-2.7,6.074-6.352c-0.226-3.66-1.664-6.746-5.461-6.73C162.02,219.504,160.753,223.469,160.734,226.016
		L160.734,226.016z"/>
	<path fill="#D40000" d="M4.918,44.5c-1.266-2.777-1.403-7.523,2.379-8.164c2.847-0.367,4.007,0.957,4.238,2.992
		c0.113,0.594,0.449,0.629,0.555-0.047c0.164-2.086,2.23-3.304,3.847-3c4.422,0.758,4.164,5.621,2.719,8.926
		c-2.184,4.383-4.481,7.148-6.598,11.559C9.629,52.176,6.855,48.441,4.918,44.5L4.918,44.5z"/>
	<path fill="#D40000" d="M35.148,22.691c5.715-0.379,8.695,4.504,9.277,8.352c0.348,0.609,0.536,0.437,0.668-0.035
		c0.282-4.942,4.704-8.977,8.797-8.426c6.66,0.086,10.711,7.5,9.571,13.777c-1.391,7.664-5.52,12.282-8.645,17.036
		c-3.539,4.921-8.297,12.031-9.832,15.453c0,0-4.84-7.364-11.133-16.024c-4.211-5.793-7.578-12.066-7.894-17.469
		C25.601,29.184,28.132,23.648,35.148,22.691L35.148,22.691z"/>
	<path fill="#D40000" d="M124.375,22.691c5.715-0.379,8.695,4.504,9.277,8.352c0.348,0.609,0.535,0.437,0.668-0.035
		c0.281-4.942,4.699-8.977,8.797-8.426c6.66,0.086,10.711,7.5,9.57,13.777c-1.394,7.664-5.521,12.282-8.646,17.036
		c-3.539,4.921-8.297,12.031-9.832,15.453c0,0-4.84-7.364-11.133-16.024c-4.211-5.793-7.582-12.066-7.896-17.469
		C114.824,29.184,117.359,23.648,124.375,22.691L124.375,22.691z"/>
	<path fill="#D40000" d="M124.375,101.809c5.715-0.383,8.695,4.5,9.277,8.347c0.348,0.61,0.535,0.438,0.668-0.035
		c0.281-4.937,4.699-8.976,8.797-8.422c6.66,0.086,10.711,7.5,9.57,13.774c-1.394,7.664-5.521,12.281-8.646,17.035
		c-3.539,4.922-8.297,12.031-9.832,15.453c0,0-4.84-7.363-11.133-16.023c-4.211-5.789-7.582-12.063-7.896-17.469
		C114.824,108.297,117.359,102.766,124.375,101.809L124.375,101.809z"/>
	<path fill="#D40000" d="M35.148,101.809c5.715-0.383,8.695,4.5,9.277,8.347c0.348,0.61,0.536,0.438,0.668-0.035
		c0.282-4.937,4.704-8.976,8.797-8.422c6.66,0.086,10.711,7.5,9.571,13.774c-1.391,7.664-5.52,12.281-8.645,17.035
		c-3.539,4.922-8.297,12.031-9.832,15.453c0,0-4.84-7.363-11.133-16.023c-4.211-5.789-7.578-12.063-7.894-17.469
		C25.601,108.297,28.132,102.766,35.148,101.809L35.148,101.809z"/>
	<path fill="#D40000" d="M35.148,226.68c5.715,0.379,8.695-4.5,9.277-8.348c0.348-0.613,0.536-0.441,0.668,0.031
		c0.282,4.941,4.704,8.977,8.797,8.426c6.66-0.086,10.711-7.5,9.571-13.773c-1.391-7.668-5.52-12.281-8.645-17.035
		c-3.539-4.922-8.297-12.028-9.832-15.453c0,0-4.84,7.363-11.133,16.023c-4.211,5.789-7.578,12.066-7.894,17.469
		C25.601,220.189,28.132,225.723,35.148,226.68L35.148,226.68z"/>
	<path fill="#D40000" d="M124.375,226.68c5.715,0.379,8.695-4.5,9.277-8.348c0.348-0.613,0.535-0.441,0.668,0.031
		c0.281,4.941,4.699,8.977,8.797,8.426c6.66-0.086,10.711-7.5,9.57-13.773c-1.394-7.668-5.521-12.281-8.646-17.035
		c-3.539-4.922-8.297-12.028-9.832-15.453c0,0-4.84,7.363-11.133,16.023c-4.211,5.789-7.582,12.066-7.896,17.469
		C114.824,220.189,117.359,225.723,124.375,226.68L124.375,226.68z"/>
	<path fill="#D40000" d="M159.973,206.188c-1.271,2.777-1.406,7.523,2.375,8.164c2.854,0.367,4.012-0.957,4.241-2.992
		c0.113-0.594,0.449-0.629,0.556,0.05c0.164,2.086,2.229,3.305,3.844,3c4.424-0.761,4.164-5.621,2.721-8.929
		c-2.186-4.383-4.479-7.146-6.596-11.559C164.68,198.512,161.906,202.246,159.973,206.188L159.973,206.188z"/>
</g>
</svg>
