<?xml version="1.0" encoding="utf-8"?>
<!-- Generator: Adobe Illustrator 15.0.0, SVG Export Plug-In . SVG Version: 6.00 Build 0)  -->
<!DOCTYPE svg PUBLIC "-//W3C//DTD SVG 1.1//EN" "http://www.w3.org/Graphics/SVG/1.1/DTD/svg11.dtd">
<svg version="1.1" id="Layer_1" xmlns="http://www.w3.org/2000/svg" xmlns:xlink="http://www.w3.org/1999/xlink" x="0px" y="0px"
	 width="178.582px" height="249.449px" viewBox="0 0 178.582 249.449" enable-background="new 0 0 178.582 249.449"
	 xml:space="preserve">
<g>
	<path fill="#FFFFFF" d="M8.504,0"/>
	<path fill="#D40000" d="M3.87,25.304c0.129-3.5,1.418-4.816,3.957-6.648c-2.027-1.438-2.879-3.551-2.707-5.352
		c0.418-4.356,3.848-6.535,7.59-6.441c3.738,0.093,6.961,3.011,7.215,6.18c0.219,2.754-0.617,4.081-2.605,5.53
		c2.359,1.954,3.871,3.239,3.812,6.688c-0.055,3.449-3.043,7.551-8.25,7.676C7.674,33.066,3.745,28.804,3.87,25.304L3.87,25.304z
		 M18.409,25.316c0.223-3.172-2.629-5.309-5.851-5.344c-3.137-0.031-5.945,2.598-5.945,5.445c0,3.055,3.652,4.715,6.007,4.727
		C15.487,30.152,18.217,28.046,18.409,25.316L18.409,25.316z M17.377,13.976c0.063-2.672-2.445-4.582-5.031-4.508
		c-2.301,0.069-4.734,1.793-4.738,4.026c0,2.789,2.769,4.185,5.136,4.239C14.89,17.781,17.331,15.991,17.377,13.976L17.377,13.976z"
		/>
	<path fill="#D40000" d="M174.631,224.599c-0.129,3.5-1.414,4.816-3.953,6.648c2.021,1.434,2.879,3.545,2.703,5.348
		c-0.414,4.359-3.85,6.539-7.586,6.445c-3.742-0.1-6.965-3.014-7.215-6.182c-0.221-2.754,0.615-4.082,2.604-5.529
		c-2.363-1.955-3.871-3.24-3.816-6.688c0.061-3.449,3.049-7.552,8.256-7.681C170.83,216.835,174.76,221.099,174.631,224.599
		L174.631,224.599z M160.096,224.585c-0.229,3.174,2.629,5.311,5.848,5.342c3.141,0.033,5.945-2.594,5.945-5.441
		c0-3.055-3.648-4.719-6.008-4.727C163.014,219.747,160.287,221.856,160.096,224.585L160.096,224.585z M161.123,235.927
		c-0.063,2.668,2.444,4.582,5.03,4.504c2.302-0.066,4.738-1.789,4.738-4.023c0.004-2.793-2.771-4.184-5.134-4.238
		C163.614,232.122,161.17,233.907,161.123,235.927L161.123,235.927z"/>
	<path fill="#D40000" d="M4.664,44.498c-1.266-2.777-1.407-7.523,2.379-8.164c2.847-0.367,4.007,0.957,4.238,2.992
		c0.113,0.594,0.449,0.633,0.555-0.047c0.164-2.086,2.23-3.304,3.847-3c4.418,0.758,4.16,5.625,2.719,8.926
		c-2.187,4.383-4.48,7.149-6.598,11.563C9.375,52.173,6.597,48.442,4.664,44.498L4.664,44.498z"/>
	<path fill="#D40000" d="M35.648,22.109c5.715-0.379,8.692,4.504,9.274,8.352c0.347,0.609,0.539,0.437,0.671-0.035
		c0.278-4.938,4.7-8.977,8.793-8.422c6.664,0.086,10.711,7.5,9.575,13.773c-1.391,7.664-5.52,12.282-8.649,17.035
		c-3.535,4.922-8.297,12.032-9.832,15.454c0,0-4.836-7.364-11.133-16.024c-4.211-5.793-7.578-12.066-7.89-17.469
		c-0.36-6.171,2.175-11.707,9.191-12.66V22.109z"/>
	<path fill="#D40000" d="M123.273,22.109c5.715-0.379,8.693,4.504,9.275,8.352c0.346,0.609,0.535,0.437,0.668-0.035
		c0.281-4.938,4.699-8.977,8.795-8.422c6.662,0.086,10.715,7.5,9.572,13.773c-1.393,7.664-5.521,12.282-8.646,17.035
		c-3.539,4.922-8.301,12.032-9.832,15.454c0,0-4.84-7.364-11.137-16.024c-4.207-5.793-7.578-12.066-7.891-17.469
		c-0.359-6.171,2.176-11.707,9.191-12.66v-0.004H123.273z"/>
	<path fill="#D40000" d="M78.992,62.211c5.715-0.379,8.695,4.5,9.277,8.348c0.348,0.613,0.535,0.441,0.668-0.032
		c0.281-4.941,4.704-8.976,8.797-8.425c6.66,0.085,10.711,7.5,9.57,13.773c-1.393,7.668-5.521,12.281-8.646,17.035
		c-3.535,4.922-8.299,12.031-9.832,15.453c0,0-4.84-7.363-11.133-16.023c-4.211-5.789-7.578-12.067-7.895-17.469
		C69.445,68.699,71.976,63.168,78.992,62.211L78.992,62.211z"/>
	<path fill="#D40000" d="M35.648,102.309c5.715-0.379,8.692,4.503,9.274,8.351c0.347,0.61,0.539,0.438,0.671-0.035
		c0.278-4.938,4.7-8.977,8.793-8.422c6.664,0.086,10.711,7.5,9.575,13.774c-1.391,7.664-5.52,12.281-8.649,17.035
		c-3.535,4.922-8.297,12.031-9.832,15.453c0,0-4.836-7.363-11.133-16.023c-4.211-5.793-7.578-12.064-7.89-17.467
		C26.097,108.801,28.632,103.266,35.648,102.309L35.648,102.309z"/>
	<path fill="#D40000" d="M123.273,102.309c5.715-0.379,8.693,4.503,9.275,8.351c0.346,0.61,0.535,0.438,0.668-0.035
		c0.281-4.938,4.699-8.977,8.795-8.422c6.662,0.086,10.715,7.5,9.572,13.774c-1.393,7.664-5.521,12.281-8.646,17.035
		c-3.539,4.922-8.301,12.031-9.832,15.453c0,0-4.84-7.363-11.137-16.023c-4.207-5.793-7.578-12.064-7.891-17.467
		C113.723,108.801,116.257,103.266,123.273,102.309L123.273,102.309z"/>
	<path fill="#D40000" d="M123.273,227.184c5.715,0.379,8.693-4.5,9.275-8.348c0.346-0.613,0.535-0.441,0.668,0.031
		c0.281,4.941,4.699,8.977,8.795,8.426c6.662-0.086,10.715-7.5,9.572-13.777c-1.393-7.664-5.521-12.275-8.646-17.031
		c-3.539-4.922-8.301-12.029-9.832-15.451c0,0-4.84,7.361-11.137,16.021c-4.207,5.789-7.578,12.063-7.891,17.465
		C113.723,220.695,116.257,226.227,123.273,227.184L123.273,227.184z"/>
	<path fill="#D40000" d="M78.992,187.746c5.715,0.379,8.695-4.504,9.277-8.352c0.348-0.609,0.535-0.438,0.668,0.035
		c0.281,4.938,4.704,8.977,8.797,8.422c6.66-0.086,10.711-7.5,9.57-13.773c-1.393-7.664-5.521-12.281-8.646-17.035
		c-3.535-4.922-8.299-12.031-9.832-15.453c0,0-4.84,7.363-11.133,16.023c-4.211,5.793-7.578,12.064-7.895,17.469
		c-0.355,6.172,2.176,11.707,9.192,12.66L78.992,187.746L78.992,187.746z"/>
	<path fill="#D40000" d="M35.648,227.184c5.715,0.379,8.692-4.5,9.274-8.348c0.347-0.613,0.539-0.441,0.671,0.031
		c0.278,4.941,4.7,8.977,8.793,8.426c6.664-0.086,10.711-7.5,9.575-13.777c-1.391-7.664-5.52-12.275-8.649-17.031
		c-3.535-4.922-8.297-12.029-9.832-15.451c0,0-4.836,7.361-11.133,16.021c-4.211,5.789-7.578,12.063-7.89,17.465
		C26.097,220.695,28.632,226.227,35.648,227.184L35.648,227.184z"/>
	<path fill="#D40000" d="M159.714,206.016c-1.266,2.777-1.401,7.523,2.379,8.168c2.849,0.367,4.009-0.961,4.238-2.996
		c0.112-0.594,0.448-0.629,0.56,0.047c0.159,2.092,2.228,3.311,3.844,3c4.423-0.754,4.164-5.619,2.72-8.922
		c-2.185-4.387-4.479-7.15-6.599-11.563C164.425,198.344,161.652,202.074,159.714,206.016L159.714,206.016z"/>
</g>
</svg>
