<?xml version="1.0" encoding="utf-8"?>
<!-- Generator: Adobe Illustrator 15.0.0, SVG Export Plug-In . SVG Version: 6.00 Build 0)  -->
<!DOCTYPE svg PUBLIC "-//W3C//DTD SVG 1.1//EN" "http://www.w3.org/Graphics/SVG/1.1/DTD/svg11.dtd">
<svg version="1.1" id="Layer_1" xmlns="http://www.w3.org/2000/svg" xmlns:xlink="http://www.w3.org/1999/xlink" x="0px" y="0px"
	 width="178.582px" height="249.449px" viewBox="0 0 178.582 249.449" enable-background="new 0 0 178.582 249.449"
	 xml:space="preserve">
<g>
	<path fill="#FFFFFF" d="M8.504,0"/>
	<path fill="#D40000" d="M5.472,30.043c0.129-3.5,1.418-4.816,3.957-6.648c-2.027-1.438-2.879-3.551-2.707-5.352
		c0.418-4.356,3.848-6.535,7.59-6.441c3.738,0.093,6.961,3.011,7.215,6.179c0.219,2.754-0.617,4.082-2.605,5.531
		c2.359,1.954,3.871,3.239,3.812,6.688c-0.055,3.449-3.043,7.551-8.25,7.676C9.277,37.805,5.347,33.543,5.472,30.043L5.472,30.043z
		 M20.011,30.055c0.223-3.172-2.629-5.309-5.851-5.344c-3.137-0.031-5.945,2.598-5.945,5.445c0,3.055,3.652,4.715,6.007,4.727
		C17.09,34.891,19.82,32.785,20.011,30.055L20.011,30.055z M18.98,18.715c0.063-2.672-2.445-4.582-5.031-4.508
		c-2.301,0.07-4.734,1.793-4.738,4.027c0,2.789,2.769,4.184,5.136,4.239C16.492,22.52,18.933,20.73,18.98,18.715L18.98,18.715z
		 M18.98,18.715"/>
	<path fill="#D40000" d="M173.105,219.41c-0.129,3.5-1.414,4.816-3.953,6.648c2.023,1.434,2.879,3.546,2.703,5.348
		c-0.414,4.359-3.848,6.539-7.586,6.445c-3.742-0.098-6.965-3.012-7.215-6.18c-0.219-2.754,0.617-4.082,2.605-5.531
		c-2.363-1.954-3.871-3.239-3.816-6.688c0.059-3.449,3.047-7.552,8.254-7.681C169.304,211.647,173.234,215.91,173.105,219.41
		L173.105,219.41z M158.57,219.397c-0.227,3.173,2.629,5.31,5.848,5.341c3.141,0.034,5.945-2.594,5.945-5.441
		c0-3.055-3.648-4.719-6.008-4.727C161.488,214.559,158.761,216.668,158.57,219.397L158.57,219.397z M159.597,230.738
		c-0.063,2.668,2.445,4.582,5.031,4.504c2.301-0.066,4.738-1.789,4.738-4.023c0.004-2.793-2.77-4.184-5.133-4.239
		C162.089,226.934,159.644,228.719,159.597,230.738L159.597,230.738z M159.597,230.738"/>
	<path fill="#D40000" d="M7.664,50.328c-1.266-2.777-1.407-7.523,2.379-8.164c2.847-0.367,4.007,0.957,4.238,2.992
		c0.113,0.594,0.449,0.633,0.555-0.047c0.164-2.086,2.23-3.304,3.847-3c4.418,0.758,4.16,5.625,2.719,8.926
		c-2.187,4.383-4.48,7.149-6.598,11.563C12.375,58.004,9.597,54.273,7.664,50.328L7.664,50.328z M7.664,50.328"/>
	<path fill="#D40000" d="M35.648,22.109c5.715-0.379,8.692,4.504,9.274,8.352c0.347,0.609,0.539,0.437,0.671-0.035
		c0.278-4.938,4.7-8.977,8.793-8.422c6.664,0.086,10.711,7.5,9.575,13.773c-1.391,7.664-5.52,12.282-8.649,17.035
		c-3.535,4.922-8.297,12.032-9.832,15.454c0,0-4.836-7.364-11.133-16.024c-4.211-5.793-7.578-12.066-7.89-17.469
		c-0.36-6.171,2.175-11.707,9.191-12.66V22.109z M35.648,22.109"/>
	<path fill="#D40000" d="M123.273,22.109c5.715-0.379,8.695,4.504,9.277,8.352c0.344,0.609,0.535,0.437,0.668-0.035
		c0.281-4.938,4.699-8.977,8.793-8.422c6.664,0.086,10.715,7.5,9.574,13.773c-1.391,7.664-5.52,12.282-8.645,17.035
		c-3.539,4.922-8.301,12.032-9.832,15.454c0,0-4.84-7.364-11.137-16.024c-4.207-5.793-7.578-12.066-7.891-17.469
		c-0.359-6.171,2.176-11.707,9.191-12.66V22.109z M123.273,22.109"/>
	<path fill="#D40000" d="M78.992,62.211c5.715-0.379,8.695,4.5,9.277,8.348c0.348,0.613,0.535,0.441,0.668-0.032
		c0.281-4.941,4.703-8.976,8.797-8.425c6.66,0.085,10.711,7.5,9.57,13.773c-1.391,7.668-5.52,12.281-8.645,17.035
		c-3.535,4.922-8.297,12.031-9.832,15.453c0,0-4.84-7.363-11.133-16.023c-4.211-5.789-7.578-12.067-7.895-17.469
		C69.445,68.699,71.976,63.168,78.992,62.211L78.992,62.211z M78.992,62.211"/>
	<path fill="#D40000" d="M35.648,102.309c5.715-0.379,8.692,4.503,9.274,8.351c0.347,0.61,0.539,0.438,0.671-0.035
		c0.278-4.938,4.7-8.977,8.793-8.422c6.664,0.086,10.711,7.5,9.575,13.774c-1.391,7.664-5.52,12.281-8.649,17.035
		c-3.535,4.922-8.297,12.031-9.832,15.453c0,0-4.836-7.363-11.133-16.024c-4.211-5.793-7.578-12.065-7.89-17.468
		C26.097,108.801,28.632,103.266,35.648,102.309L35.648,102.309z M35.648,102.309"/>
	<path fill="#D40000" d="M123.273,102.309c5.715-0.379,8.695,4.503,9.277,8.351c0.344,0.61,0.535,0.438,0.668-0.035
		c0.281-4.938,4.699-8.977,8.793-8.422c6.664,0.086,10.715,7.5,9.574,13.774c-1.391,7.664-5.52,12.281-8.645,17.035
		c-3.539,4.922-8.301,12.031-9.832,15.453c0,0-4.84-7.363-11.137-16.024c-4.207-5.793-7.578-12.065-7.891-17.468
		C113.722,108.801,116.257,103.266,123.273,102.309L123.273,102.309z M123.273,102.309"/>
	<path fill="#D40000" d="M123.273,227.184c5.715,0.378,8.695-4.5,9.277-8.348c0.344-0.613,0.535-0.441,0.668,0.031
		c0.281,4.941,4.699,8.977,8.793,8.426c6.664-0.086,10.715-7.5,9.574-13.777c-1.391-7.664-5.52-12.277-8.645-17.032
		c-3.539-4.922-8.301-12.03-9.832-15.452c0,0-4.84,7.363-11.137,16.023c-4.207,5.789-7.578,12.063-7.891,17.465
		C113.722,220.695,116.257,226.227,123.273,227.184L123.273,227.184z M123.273,227.184"/>
	<path fill="#D40000" d="M78.992,187.746c5.715,0.379,8.695-4.504,9.277-8.352c0.348-0.609,0.535-0.438,0.668,0.035
		c0.281,4.938,4.703,8.977,8.797,8.422c6.66-0.086,10.711-7.5,9.57-13.773c-1.391-7.664-5.52-12.281-8.645-17.035
		c-3.535-4.922-8.297-12.031-9.832-15.453c0,0-4.84,7.363-11.133,16.023c-4.211,5.793-7.578,12.066-7.895,17.469
		c-0.355,6.172,2.176,11.707,9.192,12.66V187.746z M78.992,187.746"/>
	<path fill="#D40000" d="M35.648,227.184c5.715,0.378,8.692-4.5,9.274-8.348c0.347-0.613,0.539-0.441,0.671,0.031
		c0.278,4.941,4.7,8.977,8.793,8.426c6.664-0.086,10.711-7.5,9.575-13.777c-1.391-7.664-5.52-12.277-8.649-17.032
		c-3.535-4.922-8.297-12.03-9.832-15.452c0,0-4.836,7.363-11.133,16.023c-4.211,5.789-7.578,12.063-7.89,17.465
		C26.097,220.695,28.632,226.227,35.648,227.184L35.648,227.184z M35.648,227.184"/>
	<path fill="#D40000" d="M158.714,203.016c-1.266,2.777-1.402,7.523,2.379,8.168c2.848,0.367,4.008-0.961,4.238-2.997
		c0.113-0.593,0.449-0.628,0.559,0.047c0.16,2.091,2.227,3.31,3.844,3c4.422-0.754,4.164-5.62,2.719-8.922
		c-2.184-4.386-4.48-7.151-6.598-11.562C163.425,195.344,160.652,199.074,158.714,203.016L158.714,203.016z M158.714,203.016"/>
</g>
</svg>
