<?xml version="1.0" encoding="utf-8"?>
<!-- Generator: Adobe Illustrator 15.0.0, SVG Export Plug-In . SVG Version: 6.00 Build 0)  -->
<!DOCTYPE svg PUBLIC "-//W3C//DTD SVG 1.1//EN" "http://www.w3.org/Graphics/SVG/1.1/DTD/svg11.dtd">
<svg version="1.1" id="Layer_1" xmlns="http://www.w3.org/2000/svg" xmlns:xlink="http://www.w3.org/1999/xlink" x="0px" y="0px"
	 width="178.582px" height="249.449px" viewBox="0 0 178.582 249.449" enable-background="new 0 0 178.582 249.449"
	 xml:space="preserve">
<g>
	<path fill="#FFFFFF" d="M8.504,0"/>
	<path fill="#D40000" d="M26.277,45.848c7.938-7.746,13.148-16.192,18.137-24.313c4.371,8.938,10.645,16.754,17.426,24.313
		c-7.258,7.492-12.883,15.507-17.407,23.933C39.418,61.145,34.14,53.324,26.277,45.848L26.277,45.848z M26.277,45.848"/>
	<path fill="#D40000" d="M26.277,98.109c7.938-7.742,13.148-16.187,18.137-24.308c4.371,8.933,10.645,16.754,17.426,24.308
		c-7.258,7.496-12.883,15.512-17.407,23.934C39.418,113.41,34.14,105.586,26.277,98.109L26.277,98.109z M26.277,98.109"/>
	<path fill="#D40000" d="M26.277,151.629c7.938-7.746,13.148-16.192,18.137-24.313c4.371,8.938,10.645,16.755,17.426,24.313
		c-7.258,7.492-12.883,15.508-17.407,23.933C39.418,166.926,34.14,159.104,26.277,151.629L26.277,151.629z M26.277,151.629"/>
	<path fill="#D40000" d="M26.277,203.711c7.938-7.742,13.148-16.188,18.137-24.31c4.371,8.935,10.645,16.755,17.426,24.31
		c-7.258,7.496-12.883,15.512-17.407,23.937C39.418,219.012,34.14,211.187,26.277,203.711L26.277,203.711z M26.277,203.711"/>
	<path fill="#D40000" d="M71.226,73.336c7.934-7.742,13.149-16.188,18.133-24.309c4.371,8.934,10.645,16.754,17.43,24.309
		c-7.262,7.496-12.887,15.512-17.41,23.934C84.367,88.633,79.086,80.812,71.226,73.336L71.226,73.336z M71.226,73.336"/>
	<path fill="#D40000" d="M70.851,176.012c7.938-7.746,13.149-16.191,18.133-24.313c4.371,8.938,10.645,16.754,17.43,24.313
		c-7.258,7.492-12.883,15.508-17.407,23.934C83.992,191.309,78.715,183.488,70.851,176.012L70.851,176.012z M70.851,176.012"/>
	<path fill="#D40000" d="M115.503,45.848c7.938-7.746,13.148-16.192,18.133-24.313c4.375,8.938,10.645,16.754,17.43,24.313
		c-7.258,7.492-12.883,15.507-17.406,23.933C128.644,61.145,123.367,53.324,115.503,45.848L115.503,45.848z M115.503,45.848"/>
	<path fill="#D40000" d="M115.503,98.109c7.938-7.742,13.148-16.187,18.133-24.308c4.375,8.933,10.645,16.754,17.43,24.308
		c-7.258,7.496-12.883,15.512-17.406,23.934C128.644,113.41,123.367,105.586,115.503,98.109L115.503,98.109z M115.503,98.109"/>
	<path fill="#D40000" d="M115.503,151.629c7.938-7.746,13.148-16.192,18.133-24.313c4.375,8.938,10.645,16.755,17.43,24.313
		c-7.258,7.492-12.883,15.508-17.406,23.933C128.644,166.926,123.367,159.104,115.503,151.629L115.503,151.629z M115.503,151.629"/>
	<path fill="#D40000" d="M115.503,203.711c7.938-7.742,13.148-16.188,18.133-24.31c4.375,8.935,10.645,16.755,17.43,24.31
		c-7.258,7.496-12.883,15.512-17.406,23.937C128.644,219.012,123.367,211.187,115.503,203.711L115.503,203.711z M115.503,203.711"/>
	<path fill="#D40000" d="M157.523,198.875c3.254-3.172,5.387-6.629,7.43-9.957c1.789,3.66,4.359,6.863,7.141,9.957
		c-2.977,3.07-5.281,6.354-7.133,9.805C162.906,205.145,160.746,201.94,157.523,198.875L157.523,198.875z M157.523,198.875"/>
	<path fill="#D40000" d="M6.472,50.191c3.25-3.171,5.387-6.632,7.43-9.961c1.789,3.661,4.359,6.864,7.137,9.961
		c-2.973,3.071-5.278,6.352-7.129,9.805C11.855,56.457,9.691,53.254,6.472,50.191L6.472,50.191z M6.472,50.191"/>
	<path fill="#D40000" d="M6.101,36.277V11.07H8.59v25.207H6.101z M6.101,36.277"/>
	<path fill="#D40000" d="M15.965,11.07c-2.395,0-4.321,2.153-4.321,4.821v15.57c0,2.668,1.926,4.816,4.321,4.816h1.394
		c2.398,0,4.328-2.148,4.328-4.816v-15.57c0-2.668-1.93-4.821-4.328-4.821H15.965z M16.687,13.453c1.414,0,2.551,1.07,2.551,2.402
		v15.778c0,1.332-1.137,2.406-2.551,2.406c-1.418,0-2.555-1.074-2.555-2.406V15.855C14.132,14.523,15.269,13.453,16.687,13.453
		L16.687,13.453z M16.687,13.453"/>
	<path fill="#D40000" d="M172.48,213.176v25.203h-2.492v-25.203H172.48z M172.48,213.176"/>
	<path fill="#D40000" d="M162.613,238.379c2.398,0,4.324-2.149,4.324-4.817v-15.569c0-2.668-1.926-4.816-4.324-4.816h-1.395
		c-2.395,0-4.324,2.148-4.324,4.816v15.569c0,2.668,1.93,4.817,4.324,4.817H162.613z M161.894,235.996
		c-1.414,0-2.555-1.066-2.555-2.398V217.82c0-1.332,1.141-2.406,2.555-2.406s2.555,1.074,2.555,2.406v15.777
		C164.449,234.93,163.308,235.996,161.894,235.996L161.894,235.996z M161.894,235.996"/>
</g>
</svg>
