<?xml version="1.0" encoding="utf-8"?>
<!-- Generator: Adobe Illustrator 15.0.0, SVG Export Plug-In . SVG Version: 6.00 Build 0)  -->
<!DOCTYPE svg PUBLIC "-//W3C//DTD SVG 1.1//EN" "http://www.w3.org/Graphics/SVG/1.1/DTD/svg11.dtd">
<svg version="1.1" id="Layer_1" xmlns="http://www.w3.org/2000/svg" xmlns:xlink="http://www.w3.org/1999/xlink" x="0px" y="0px"
	 width="178.582px" height="249.449px" viewBox="0 0 178.582 249.449" enable-background="new 0 0 178.582 249.449"
	 xml:space="preserve">
<g>
	<path fill="#FFFFFF" d="M8.504,0"/>
	<path fill="#E2CF00" d="M112.207,21.137c0,0,20.234,29.25,27.098,34.441c0.504,0.238,8.965-1.379,8.965-1.379
		c-4.336-10.383-7.125-21.125-4.313-33.164L112.207,21.137z M123.449,67.395c-13.949,3.937-27.871,7.64-42.996,1.222L63.937,84.574
		c-0.137,0.41,21.403,9.688,21.742,8.672l-5.3,16.926l12.222,2.691l5.609-18.004c0,0,16.875-1.617,24.707-4.304
		c5.953-2.043,12.113-3.528,17.43-7.965C129.363,75.988,123.437,67.316,123.449,67.395L123.449,67.395z M39.547,72.113
		c-5.29-3.242-9.422,3.434-5.551,6.77c-0.453,1.945-0.61,4.844,1.277,6.117c1.731,1.098,4.961-0.039,5.426-0.027
		c0.035,0,0.086,3.507-0.184,3.496c-0.5-0.016-2.39-1.625-3.558-1.977c-3.942-1.18-9.485-1.762-9.387-1.558
		c0.164,0.339-0.98,1.148,3.418,3.91c1.633,1.023,6.793-0.133,10.902,1.164c2.504,0.793,4.965,2.105,6.325,1.449
		c1.718-0.719,3.726-2.984,4.371-4.832c0.183-2.02-10.313,2.348-9.672,2.418l-0.035-4.066c4.23,0.464,8.046-2.598,3.89-7.856
		C49.863,74.047,45.535,66.715,39.547,72.113L39.547,72.113z M57.164,90.715c-10.403,10.484-31.66,30.16-31.66,30.16l0.226,14.684
		l20.77,18.582c1.644-19.727,12.855-38.141,23.531-47.352C71.011,103.988,59.425,91.695,57.164,90.715L57.164,90.715z
		 M131.261,94.34c-1.566,12.133-2.988,28.676-23.57,47.063c3.566,6.074,8.105,12.254,14.641,15.206
		c0.461,1.043,18.879-19.058,30.211-28.562l-0.063-12.875L131.261,94.34z M38.511,96.945c-0.043,0.266-0.804,3.45-1,3.367
		c0.016,0.172,2.106-0.777,2.344-1.652c0.207-0.765,0.688-1.805,0.719-1.949C40.101,93.43,39.211,95.758,38.511,96.945
		L38.511,96.945z M30.929,105.449c-0.07,0.004-0.269,0.184-0.3,0.203c-0.411,0.266-1.149,4.414-0.891,4.836
		c0.125,0.203-0.414,1.684-0.035,2.219c0.371,0.52,2.562,0.273,2.887-0.602c0.402-1.085,1.773-5.515,0.722-5.96
		C32.718,105.895,31.437,105.434,30.929,105.449L30.929,105.449z M144.593,140.602c-0.34,1.527-0.27,1.984,0.414,2.281
		c1.191,0.523,1.727-0.11,2.684-2.602c0.57-1.48,1.078-3.716,0.621-4.602C146.05,134.104,144.855,139.445,144.593,140.602
		L144.593,140.602z M88.871,137.008c-0.723,0.004-1.418,0.063-2.063,0.211c-6.082,1.39-5.621,12.02-6.652,16.254
		c-19.106,2.727-24.16,4.027-29.395,6.175c-8.136,3.345-10.714,5.384-12.871,7.067c1.356-0.156,15.961,13.461,16.711,15.383
		c-0.926-2.637,28.258-9.051,43.801-2.609c1.906,0.684,16.426-14.091,15.969-15.738c1.883-3.301-18.305-7.008-20.852-9.07
		c-2.086-11.243,14.105-17.402,2.891-17.075C94.371,137.664,91.453,136.983,88.871,137.008L88.871,137.008z M139.683,149.637
		c-0.359,0.425-0.773,0.73-1.191,1.148l-1.066,1.405l0.777,1.255l1.988-2.191L139.683,149.637z M125.437,163.777
		c2.098-0.945,9.535-4.555,9.855-3.719l-0.156,3.609c-1.141-0.371-8.484,0.844-4.238,8.426c-2.676,6.023,3.289,9.133,7.465,5.148
		c8.754,3.004,7.582-5.759,5.777-7.172c1.422-2.212-0.367-6.918-1.258-6.934c0,0,7.641,1.718,6.895,0.359
		c-0.344-0.621-0.77-1.691-2.469-2.824c-1.953-1.305-5.391-0.832-8.176-1.414c-2.973-0.621-4.887-1.684-7.387-1.836
		C127.972,157.766,124.453,161.078,125.437,163.777L125.437,163.777z M40.308,192.207l-10.527,2.813c0,0,3.406,7.898,4.582,14.945
		c1.441,8.617,0.289,17.984,0.289,17.984l30.551,0.155L40.308,192.207z M40.308,192.207"/>
	<path fill="#D40000" d="M164.57,240.977c-4.023-1.398-4.105-3.93-4.242-7.156c-0.238-4.891-0.195-10.039,0.508-14.023
		c0.266-1.215,0.41-1.832-0.797-2.262c-0.668-0.23-1.336-0.138-2.004-0.238v-3.016c1.27-0.07,2.445-0.066,3.516,0.566
		c0.48,0.293,1.02,0.617,1.02,0.617c1.574-1.488,5.715-1.711,7.68,0.129c1.305,1.316,1.727,2.414,1.809,5.375
		c0.063,2.188,0,2.336,0,2.336l2.27-0.016v2.938h-2.27c0,0,0.051,1.457,0,4.617c-0.039,2.461-0.086,4.07-0.258,5.242
		C171.027,240.168,167.39,241.895,164.57,240.977L164.57,240.977z M168.921,235.922c0.789-2.106,0.461-10.246,0.461-10.246
		c-3.387-1.301-4.824-3.344-6.203-4.793c0,0-0.574,9.039,0.109,13.902C163.914,238.824,167.558,239.426,168.921,235.922
		L168.921,235.922z M168.941,222.229c0.184,0.028,0.395,0.04,0.422-0.039c0.262-0.729-0.191-3.789-0.957-4.405
		c-2.059-1.652-3.941,0-3.883,0.078c0.973,1.32,2.113,2.77,3.586,3.913C168.39,222.012,168.625,222.184,168.941,222.229
		L168.941,222.229z M67.738,228c-13.406-19.133-25.824-37.328-42.313-57.387c0,0,0.012-7.75,0.071-15.441l50.656,72.637L67.738,228z
		 M114.66,203.004c6.641-7.207,11.672-14.887,16.137-22.734c5.09,9.035,10.977,16.398,17.48,22.477
		c-6.375,6.449-12.16,13.824-16.738,23.094C127.816,218.754,122.988,211.363,114.66,203.004L114.66,203.004z M158.734,200.687
		c2.836-2.968,5.273-6.292,7.563-9.804c2.547,3.613,4.082,6.313,7.504,10.121c-2.938,3.109-5.41,6.238-7.422,9.637
		C163.957,206.781,161.429,203.19,158.734,200.687L158.734,200.687z M94.871,197.108c-0.43-3.632-1.172-7.979-2.234-11.722
		l9.25-8.723C100.886,184.457,99.355,190.437,94.871,197.108L94.871,197.108z M139.074,169.625c2.07,2.75-1.422,4.272-2.742,3.051
		C133.66,170.195,137.578,167.633,139.074,169.625L139.074,169.625z M47.367,152.309c-1.535,0.984,2.758-23.973,14.543-36.872
		C69.078,135.969,56.429,147.477,47.367,152.309L47.367,152.309z M105.5,152.219l-7.824-2.114l3.895-10.944
		c0,0,7.348,1.723,6.723,3.996C106.253,150.555,105.5,152.219,105.5,152.219L105.5,152.219z M69.273,148.012
		c2.117-3.485,3.727-7.325,5.207-11.258l11.129-1.539l-6.449,12.508L69.273,148.012z M116.437,132.652
		c-6.055-12.059,1.082-31.148,14.258-36.402C130.222,108.48,126.425,120.867,116.437,132.652L116.437,132.652z M75.73,129.227
		c0.266-4.286-0.223-8.773-0.816-12.75l27.546,3.671l0.961,11.542L75.73,129.227z M95.89,110.883
		c0.93-3.672,1.762-6.731,3.563-9.707c2.008,0.062,10.141-1.274,9.105,0.308c-2.211,2.828-3.27,7.418-4.719,10.309
		C102.32,111.633,95.433,112.816,95.89,110.883L95.89,110.883z M77.64,108.777c-2.785-0.98-6.593-1.257-8.074-3.41l2.899-9.183
		l8.582,2.632L77.64,108.777z M101.726,21.16l6.727-0.063c0,0,32.32,41.351,44.434,57.441c-0.402,1.641,0.137,15.52,0.137,15.52
		C135.863,69.914,101.726,21.16,101.726,21.16L101.726,21.16z M39.754,78.859c-1.809-1.941,1.066-3.66,2.261-1.925
		C43.066,78.461,40.707,79.883,39.754,78.859L39.754,78.859z M76.015,72.078c0.106-9.582,6.899-20.957,6.828-20.664
		c-0.078-0.019,0.969,9.367,2.278,12.32C84.765,64.254,76.336,72.68,76.015,72.078L76.015,72.078z M47.07,68.898
		c-5.27-10.07-11.602-17.703-17.113-23.05c6.867-6.496,12.015-14.52,17.297-22.422c4.363,8.289,10.031,15.867,16.39,23.07
		C57.265,52.758,51.238,61.633,47.07,68.898L47.07,68.898z M4.687,48.453c3.086-3.078,7.649-10.082,7.602-10.09
		c2.172,3.543,4.457,7.211,7.609,10.141c-0.035-0.031-4.883,5.18-7.387,10.078C10.277,54.5,7.332,50.945,4.687,48.453L4.687,48.453z
		 M4.25,26.176v-2.969h2.218c0,0-0.023,0.242-0.007-3.805c0.027-5.66,0.308-7.398,1.441-8.843c3.047-3.895,8.641-2.7,10.109,2.156
		c0.11,0.371,0.364,1.305,0.387,2.547c0.067,3.218,0.074,8.562-0.031,11.902c0.051,1.309-0.414,3.016-0.75,3.305
		c0.16,1.191,2.031,1.429,3.203,1.336v3.105c0.008-0.015-1.188,0.113-2.598,0c-0.593-0.047-1.965-1.176-1.965-1.176
		s-2.167,1.489-4.117,1.45c-6.371-0.133-5.664-8.09-5.644-8.997L4.25,26.176z M9.355,26.957c0,0,0.008,1.117,0.074,1.863
		c0.227,2.469,1.836,3.746,3.438,3.309c0.801-0.25,1.269-0.734,1.269-0.734C12.773,29.371,11.152,27.668,9.355,26.957L9.355,26.957z
		 M15.281,14.613c-0.684-3.722-4.188-4.293-5.508-1.144C9.535,14.035,9.34,18.52,9.34,18.52l0.027,5.296
		c2.84,0.625,4.41,2.45,6.183,4.52C15.55,28.336,15.906,18.816,15.281,14.613L15.281,14.613z M15.281,14.613"/>
	<path fill="#131F67" d="M24.168,19.406L23.914,229.07l130.453,0.023l-0.043-209.348L24.168,19.406z M143.386,21.047
		c-1.063,11.601-1.246,20.691,4.773,32.723c-1.09,1.14-9.281,1.464-11.859,2.812c-0.047,0.324,0.66,0.887,0.66,0.887
		c2.703-1.254,13.23-2.399,13.23-2.399c-4.41-7.683-8.035-22.468-5.305-33.808l7.598,0.023l-0.047,55.863
		c0,0,0.598,10.786,0.824,16.86c-4.047-5.231-9.414-12.531-12.918-17.957c-4.25-5.981-8.984-12.996-13.844-19.578
		c-1.434-2.071-3.477-4.762-5.145-7.184c-2.617-3.742-4.781-6.644-7.496-10.676c-2.898-4.168-5.676-7.953-9.121-12.797
		c-2.922-4.121-3.059-4.609-3.059-4.609L143.386,21.047z M93.468,21.262c4.93,8.562,13.746,11.461,15.965,12.039l1.293,1.886
		c-10.398-2.039-15.969-8.714-18.582-12.839c-0.203-0.325-0.18-1.063-0.18-1.063L93.468,21.262z M88.593,21.262
		c-1.363,3.234-3.269,5.09-5.078,7.05l0.063-2.082c0.058,0.133,2.707-2.808,3.621-4.968H88.593z M90.98,21.262
		c0,0,0.039,0.554-0.125,1.008c-1.047,3.371-7.527,9.769-7.34,8.808l-0.066-1.648c-0.027,0.07,4.871-4.664,6.152-8.168H90.98z
		 M86.265,21.262c-0.504,0.941-2.39,3.785-2.558,2.996l0.164-2.996H86.265z M101.074,21.262c0.816,1.183,1.559,2.047,2.418,3.258
		c0.16,0.23,0.258,0.503,0.219,0.605c-0.133,0.336-0.52,0.086-1.594-0.863c-1.758-1.563-2.957-3-2.957-3H101.074z M94.519,21.262
		l1.594,0.004c3.297,5.476,9.211,8.39,11.258,9.027c0.547,0.602,1.137,1.703,1.367,1.949
		C103.214,30.746,97.027,26.078,94.519,21.262L94.519,21.262z M98.39,21.238c1.758,2.535,4.508,4.313,6.059,5.524
		c0.832,0.652,1.934,1.988,1.832,2.254c-3.453-1.09-7.488-4.918-9.344-7.754L98.39,21.238z M91.625,22.809l0.957,1.527
		c-2.324,3.832-5.239,7.285-9.125,10.008l-0.024-2.004C87.847,29.164,89.753,25.969,91.625,22.809L91.625,22.809z M93.179,25.02
		c2.773,3.734,8.746,9.511,18.324,11.238c0,0,0.543,0.492,1.336,1.574c1.008,1.371,1.023,1.422,1.156,3.668
		c0.09,4.113,1.426,9.691,2.75,13.199c-0.164,0.875-0.316,1.321-1.961,3.539c-6.855,9.262-21.465,18.02-28.66,6.067
		c-2.399-3.828-2.633-11.172-2.785-15.75c0,0,0.042-0.325,0.062-0.41c0.172-0.833,0.41-0.7,1.711-0.344
		c1.316,0.562,2.687,0.109,4.082-0.274c1.586-0.64,1.719-0.144,0.188,1.285c-0.527,0.493-1.175,1.247-1.109,1.211
		c0.07-0.035,0.961-0.398,1.352-0.699c1.223-0.929,1.512-0.574,1.059,0.449c-1.922,4.348-2.261,4.52,0.441,5.727
		c0.563,0.254,0.949,0.531,1.266,0.809c1.848,1.742,1.184,0.804,0.668,0.003c-0.797-1.25-0.078-1.91,1.266-1.136
		c0.898,0.515,2.078,0.933,2.719,0.738c1.242-0.406,1.621-1.769,1.254-3.269C98,51.816,96.3,50.352,96.691,51.883
		c1.023-0.047,1.906,1.402,1.02,2.387c-0.672,0.902-1.867,0.414-3.699-0.797c-1.012-0.762-2.242-0.371-2.195,0.563
		c0.031,0.629-0.859,0.485-1.438-0.316c-0.32-0.446-0.102-1.727,0.5-2.938c3.801-7.64,0.598-15.047-5.98-12.957
		c-0.726,0.227-1.379,0.414-1.379,0.414l-0.035-2.922C87.261,32.684,91.269,28.484,93.179,25.02L93.179,25.02z M97.023,38.734
		c-0.992,1.2-0.641,2.266,1.535,1.192c1.773-0.875,2.02-0.977,3.953-1.047c2.746-0.102,5.207,0.773,8.254,2.641
		c2.02,1.238,2.313,1.332,1.766,0.558C110.898,38.957,101.257,34.215,97.023,38.734L97.023,38.734z M87.703,39.094
		c1.906,0.476,3.734,1.734,3.414,2.258c-0.113,0.187-0.227,0.222-0.469,0.097c-1.391-0.691-3.613-1.816-6.82-0.441
		c-0.356,0.152-0.551-0.086-0.551-0.512c0.004-0.828,1.398-1.488,2.871-1.543C86.672,38.953,87.242,38.98,87.703,39.094
		L87.703,39.094z M98.765,41.516c-1.137,0.589-1.523,0.902-2.008,0.64c-1.152-0.633-0.906-0.136-0.191,1.129
		c0.504,0.895,0.5,1.078,0.426,1.629c-0.082,0.594-0.07,0.617,0.508,1.254c1.086,1.426,2.16,2.797,3.785,3.879
		c0.504,0.336,1.18,0.719,1.23,0.719c0.16,0.007,0.102-0.121-0.188-0.403c-2.078-2-3.715-3.789-1.602-3.031
		c2.461,0.805,4.805-0.195,6.727-0.848c0.781-0.242,1.605-0.445,1.809-0.445c1.773,0,2.195-0.738,1.059-1.863
		C106.484,39.871,103.3,38.859,98.765,41.516L98.765,41.516z M107.871,42.32c0.793,0.735,1.211,1.133,1.133,1.321
		c-0.086,0.207-0.695-0.141-1.719-0.688c-2.059-1.098-4.395-1.355-7.313-0.512c-2.262,0.653-1.594-0.386,0.93-1.359
		C102.921,40.148,105.707,40.426,107.871,42.32L107.871,42.32z M86.726,40.84c1.727-0.028,3.531,0.539,4.734,1.578
		c0.84,0.723,0.227,0.891-1.141,0.328c-2.066-0.855-3.805-0.992-5.5-0.199c-0.531,0.25-1.148,0.547-1.316,0.531
		c-0.282-0.191-0.403-0.75-0.157-1.144C84.027,41.266,85.379,40.859,86.726,40.84L86.726,40.84z M115.234,41.434
		c0.129,0.003,0.32,0.207,0.605,0.605c0.516,0.727,0.535,1.086,0.105,2.356c-0.523,1.554-0.73,1.3-0.863-0.864
		C114.996,42.125,114.992,41.422,115.234,41.434L115.234,41.434z M116.953,43.773c0.195-0.027,0.426,0.321,0.793,1.039
		c0.258,0.504,0.199,0.653-0.605,3.004c-0.336,0.981-0.652,1.766-0.66,1.774c-0.246,0.195-0.215,0.176-0.32,0.043
		c-0.574-0.735-0.531-2.16-0.039-3.871C116.496,44.469,116.699,43.809,116.953,43.773L116.953,43.773z M101.363,43.953
		c0.063-0.008,0.449,0.078,0.449,0.078c-0.043,3.481,2.648,2.778,3.008,0.305c0,0,0.664-0.066,0.766,0.098
		c0.316,0.519-0.422,2.007-1.531,2.496c-0.809,0.359-1.906,0.269-2.563-0.332c-0.184-0.34-0.742-1.637-0.637-2.172
		C100.984,44.113,101.175,43.969,101.363,43.953L101.363,43.953z M99.761,44.359c0.027-0.004,0.051-0.004,0.082,0
		c0.262,0.012,0.453,0.082,0.559,0.403l0.578,1.769c-0.426,0.508-2.039-0.519-2.035-1.293
		C98.949,44.707,99.347,44.379,99.761,44.359L99.761,44.359z M88.816,44.355c0.406-0.039,0.551,0.004,0.598,0.383
		c0.137,1.153-1.012,2.399-2.504,2.469c-1.442,0.16-2.219-0.961-2.176-2.051c0.004-0.828,0.719-0.933,0.797-0.277
		c0.226,1.894,1.844,2.004,2.586,0.957C88.394,45.426,88.332,44.418,88.816,44.355L88.816,44.355z M106.527,44.738
		c0.113-0.004,0.27,0.039,0.492,0.117c1.488,0.477,1.531,0.704,0.258,1.165c-1.52,0.546-1.617,0.617-1.262-0.442
		C106.214,44.988,106.273,44.75,106.527,44.738L106.527,44.738z M90.757,44.906c1.102,0.067,1.195,1,0.223,1.313
		c-1.441,0.636-1.93,0.597-1.371-0.344C89.914,45.207,90.187,44.918,90.757,44.906L90.757,44.906z M83.855,45.242
		c0.133,0,0.285,0.051,0.445,0.168c0.168,0.5,0.45,0.887,0.668,1.402c-0.226,0.227-0.765,0.223-1.109-0.05
		C83.168,46.215,83.285,45.246,83.855,45.242L83.855,45.242z M118.531,46.32c0.43,0.004,0.863,0.68,1.008,1.188
		c-1.496,1.922-1.262,5.512-1.609,6.594c-0.301,0.882-0.398,0.121-1.23-2.165c-0.336-0.921,1.355-5.503,1.746-5.605
		C118.476,46.324,118.503,46.32,118.531,46.32L118.531,46.32z M120.062,48.289c0.332,0.191,0.785,0.629,0.863,1.316
		c0.047,0.399-0.148,0.926-0.277,1.454c-0.301,1.246-0.711,3.597-0.855,5.773c-0.063,0.926-0.063,1.762-0.102,1.84
		c-0.449,0.883-1.398-1.492-1.32-3.379C118.667,53.781,118.832,48.496,120.062,48.289L120.062,48.289z M122.175,51.004
		c0.211,0.293,0.344,0.519,0.41,0.769c0.113,0.442,0.02,0.969-0.238,2.09c-0.688,2.969-0.59,6.172-0.141,9.461
		c0.094,0.692-0.387,0.348-1.113-0.844c-0.402-0.664-0.66-1.566-0.785-2.636c-0.254-2.336,0.234-5.508,0.652-8.004
		C121.144,50.73,121.269,49.758,122.175,51.004L122.175,51.004z M123.316,52.812l1.199,1.45c0,0-0.512,3.328-0.508,5.105
		c-0.086,0.668,0.598,7.906,0.82,8.488c-0.738-0.824-1.086-1.312-1.895-2.351c-0.094,0.016-0.793-7.133-0.309-9.863
		C122.917,53.984,123.316,52.812,123.316,52.812L123.316,52.812z M125.199,55.691c0.203-0.007,0.461,0.219,0.781,0.672
		c0.293,0.407,0.434,0.742,0.449,1.25c0.012,0.371-0.172,0.657-0.176,1.317c-0.035,3.937,0.496,7.656,1.168,11.238
		c0.234,1.281-0.227,0.758-0.984-0.055c-0.699-0.742-0.711-1.023-1.082-2.078c-0.074-0.211-0.816-7.473-0.809-8.019
		c0.023-2.258,0.09-3.516,0.348-4.055C124.98,55.785,125.082,55.695,125.199,55.691L125.199,55.691z M120.832,63.602
		c0,0-1.398,0.718-1.762,0.468c-0.594-1.613-2.723-5.925-2.762-6.691c0.039-0.25,0.875-1.383,0.875-1.383
		C118.359,58.551,119.421,61.164,120.832,63.602L120.832,63.602z M94.503,58.422c-0.422,0.496-0.922,0.289-1.941-0.16
		c-0.52-0.16-0.441,0.054-1.301,0.504c-0.668,0.347-0.902,0.355-1.348,0.351c-0.582-0.004-0.793-0.207-0.797,0.203
		c0,0.227-0.035,1.254-0.172,1.782c-0.188,0.722-0.352,1.043-0.246,1.168c0.297,0.273,0.543,0.105,1.172-0.5
		c1.039-1.004,1.738-0.715,2.895-0.34c1.316,0.422,1.59,0.578,2.793,0.16c1.703-0.598,2.73-0.598,3.41-0.164
		c1.172,0.742,1.523,0.699,1.043-1.34c-0.156-0.656-0.168-1.672-0.262-1.852c-0.109-0.199-0.406,0.371-0.719,0.582
		c-0.594,0.399-0.902,0.391-2.246-0.046C95.992,58.508,95.101,57.656,94.503,58.422L94.503,58.422z M116.085,58.687
		c0.52,1.223,2.586,5.313,2.523,5.77c-0.402,0.359-0.941,0.625-1.258,0.301c-1.035-1.887-1.344-2.903-2.184-5.02
		C114.917,59.234,115.664,57.945,116.085,58.687L116.085,58.687z M127.187,58.535c0.148-0.019,0.453,0.285,0.68,0.59
		c0.707,0.945,0.75,1.062,0.773,2.078c0.082,3.68,0.543,8.008,1.578,11.348c0.207,0.66,0.594,1.457,0.551,1.566
		c-0.348,0.508-1.961-0.851-2.445-2.914c-0.672-2.621-1.066-5.355-1.277-7.133C126.777,60.941,126.777,58.699,127.187,58.535
		L127.187,58.535z M114.789,60.566c0.594,1.149,1.344,3.129,1.848,4.317c0.23,0.515-0.945,0.926-1.215,0.75
		c-0.473-0.352-0.695-1.34-1.004-1.934c-0.98-2.148-1.16-2.191-0.613-2.863C114.14,60.371,114.539,59.801,114.789,60.566
		L114.789,60.566z M129.519,61.883c0.09,0,0.199,0.086,0.34,0.265c0.621,0.735,1.043,1.297,1.207,1.84
		c0.117,0.395,0.023,0.692,0.066,1.407c0.109,1.875,0.602,4.433,1.996,9.667c0.137,0.512,0.32,1.118,0.297,1.282
		c-0.133,0.961-1.543-0.598-1.953-2.207c-0.477-1.828-1.344-4.16-1.602-6.317C129.347,64.395,129.054,61.883,129.519,61.883
		L129.519,61.883z M113.546,63.27c1.172,2.734,1.266,2.73,0.527,2.945c-0.781,0.23-0.828,0.152-1.746-1.707
		c-0.668-1.36-0.801-1.531-0.238-2.02C112.949,61.477,113.175,62.441,113.546,63.27L113.546,63.27z M97.218,62.617
		c-0.133,0-0.527,0.297-0.922,0.453c-0.969,0.387-2.688,0.41-3.734,0.094c-1.859-0.742-1.336,0.223,0.309,0.813
		c1.273,0.429,3.801,0.097,4.191-0.696C97.304,63.023,97.39,62.613,97.218,62.617L97.218,62.617z M111.343,64.055
		c1.047,1.617,1.359,2.261,1.184,2.386c-0.168,0.168-0.996,0.481-1.336,0.317c-0.43-0.211-0.801-1.211-0.988-1.992
		C110.332,64.383,111.019,63.695,111.343,64.055L111.343,64.055z M85.129,64.734c0.468,0.004,1.683,1.637,1.437,1.934
		c-0.07,0.152-0.523,0.008-1.59-0.289c-0.355-0.129-1.16-0.234-0.906-0.75C84.195,65.395,84.941,64.734,85.129,64.734L85.129,64.734
		z M110.222,66.977c-0.105,0.277-0.895,0.343-1.23,0.324c-0.289-0.598-0.363-0.887-0.445-1.281c0.109-0.239,0.648-0.856,0.918-0.735
		C109.625,65.426,110.14,66.68,110.222,66.977L110.222,66.977z M131.992,65.398c0.168,0.008,0.457,0.301,0.887,0.914
		c0.813,1.161,0.699,1.075,1.281,3.844c0.66,3.141,1.453,5.379,2.25,8.586c0.012,0.531-0.203,0.391-0.797,0.031
		c-0.965-0.589-1.281-1.242-1.586-2.945c-0.52-2.813-1.617-5.414-2.039-8.734C131.769,65.992,131.75,65.391,131.992,65.398
		L131.992,65.398z M107.656,66.523c0.57-0.019,0.492,0.86,0.328,1c-0.418,0.364-1.566,0.254-1.762,0.274
		C105.781,67.105,107.281,66.547,107.656,66.523L107.656,66.523z M134.89,69.512c0.168,0.023,0.621,0.66,1.461,1.843
		c0.809,1.137,0.633,0.95,1.117,2.825c0.688,2.586,1.82,4.453,2.484,6.836c0,0.269-0.328,0.234-0.645,0.105
		c-0.613-0.258-1.16-0.691-1.68-1.117c-0.355-0.383-0.355-0.871-1.402-4.481c-0.379-1.304-0.48-1.64-0.953-3.621
		C134.878,70.246,134.703,69.484,134.89,69.512L134.89,69.512z M47.117,77.242c2.754,5.067,1.734,7.313-4.188,8.012
		c-0.425-0.059-0.023,2.598-0.035,3.781c2.969-1.695,6.555-2.094,9.86-3.156c-0.899,2.883-2.481,6.148-7.266,5.644
		c-5.004-3.863-10.891-1.543-14.883-3.113c-2.176-0.808-3.004-3.223-3.031-3.637c2.605,0.262,5.547,0.821,8.074,0.637
		c-2.758-2.125-1.953-5.063-1.562-6.406c-3.227-4.07-0.536-8.649,4.152-7.586C38.722,71.531,39.679,72,39.679,72
		C44.203,67.953,49.445,71.754,47.117,77.242L47.117,77.242z M138.605,74.777c0.188-0.019,0.602,0.473,1.43,1.629
		c2.457,3.442,4.586,6.641,4.555,6.821c-0.105,0.593-2.668-0.446-3.316-1.293c-0.734-0.965-2.809-5.946-2.805-6.735
		C138.472,74.934,138.507,74.785,138.605,74.777L138.605,74.777z M38.468,89.512c1.278,0.187,1.637,0.297,1.622,0.797
		c0.109,0.421-3.102,0.48-3.54,0.164c-0.347-0.25,0.102-0.801,0.446-0.934C37.492,89.387,37.988,89.441,38.468,89.512L38.468,89.512
		z M127.042,89.965c-17.949,8.48-25.293,31.031-16.234,48.313l-1.246,0.902c-8.883-18.274-2.277-37.852,12.16-47.739
		c0.582-0.418,1.875-0.738,2.477-1.136c0,0-5.887,1.343-7.883,2.125c-0.402-0.016-1.59,0.402-2.867,1.785
		c-1.113,1.035-4.602,5.844-4.492,6.012l-9.266,0.371l0.008,0.343l9.094-0.211c-9.367,15.426-7.066,30.098-1.281,40.368l0.145,0.098
		c0.336,0.227,1.219-0.423,3.055-2.16c0.758-0.715,1.707-1.605,2.117-1.98c1.137-1.039,2.75-2.832,3.859-4.125
		c-6.297-12.836-0.086-29.688,14.652-37.309c0.023-0.406-0.156-1.699-0.156-1.699s-0.555-0.5-0.883-0.449
		c-16.422,7.23-23,25.195-16.324,41.527l-1.102,1.199c-8.387-16.914,0.617-38.059,16.316-44.047
		c-0.008-0.382-0.348-0.871-0.77-0.574c-16.949,7.867-24.336,27.965-16.035,45.094l-1.043,0.926
		c-9.449-18.758,0.504-39.774,16.109-46.953C127.914,90.535,127.042,89.965,127.042,89.965L127.042,89.965z M35.675,90.141
		c0,0-0.117,1,0.235,1.339c0.16,0.715-0.098,0.637-0.703,0.493c-1.492-0.356-0.328,0.492,0.89,1.179
		c1.203,0.672,1.043,0.653-0.007,1.317c-0.704,0.445-0.629,0.613-0.536,0.953c0.141,0.504,0.239,0.168,0.528-0.102
		c0.617-0.562,1.105-0.703,1.652-0.703c0.82,0.004,0.902,0.66,0.758,1.172c-0.328,1.074-1.434,1.016-2.34,0.75
		c-1.48-0.437-3.902-3.008-3.867-4.523C32.183,90.66,34.039,90.078,35.675,90.141L35.675,90.141z M42.343,90.473
		c0.575,0.211,1.297,0.492,2.094,0.828c1.098,0.347,2.215,0.918,2.93,1.394c2.187,1.457,2.055,4.375,1.898,4.664l-11.3,10.711
		c0,0-0.641-0.312-1.239-0.621c-1.902-0.969-2.359-1.476-1.304-2.015c0.511-0.262,0.675-0.821,0.75-1.368
		c0.097-0.734,0.058-0.609,0.5-0.941c0.761-0.582,0.8-0.824,0.804-1.789c0-0.641,0.067-0.938,0.301-1.34
		c0.184-0.316,0.379-0.984,0.508-1.75c0.023-0.125,0.027-0.437,0.055-0.551c0.132-0.597,0.32-0.773,0.449-0.91
		c0.125-0.133,0.328-0.594,0.472-0.996c0.313-0.891,0.254-0.758,0.762-0.66c0.742,0.144,0.637,0.574,0.555,1.258
		c-0.039,0.336-0.262,0.566-0.188,0.492c0.102-0.102,0.555-0.317,0.653-0.336c0.234-0.055,0.468,0.027,0.531,0.398
		c0.035,0.207-0.055,0.586-0.051,0.879c0.016,0.766,0.047,1.676,0.223,2.278c0.836,2.894,0.672,2.496,0.383,0.086
		c-0.067-0.579-0.149-1.426-0.063-2.129c0.059-0.496,0.199-1.114,0.395-1.45c0.496-0.863,0.519-1.035-0.555-1.46
		c-0.399-0.161-1.078-0.434-1.219-0.711c-0.176-0.34-0.687-0.797-1.355-0.954c-1.621-0.382-2.567-1.953-2.332-2.183
		c0.152-0.152,0.808,0.047,1.218,0.062c1.485,0.051,1.797-0.023,2.457-0.589c0.348-0.301,0.504-0.567,0.782-0.586
		C41.754,90.18,42.125,90.395,42.343,90.473L42.343,90.473z M119.261,92.207c-15.184,12.281-17.844,32.148-10.27,47.479
		l-1.313,1.032c-9.516-17.985-3.125-37.383,8.57-47.992L119.261,92.207z M31.617,93.672c0.269-0.024,0.562,0.367,1.625,1.508
		c0.719,0.765,1.469,1.433,1.859,1.656c0.891,0.426,0.699,0.25-0.047,0.957c-0.757,0.871-0.339,1.586-1.246,1.148
		c-2.363-1.109-4.019-4.375-2.484-5.16C31.437,93.723,31.527,93.68,31.617,93.672L31.617,93.672z M30.441,97.105
		c0.059-0.003,0.121,0.008,0.184,0.02c0.289,0.074,0.644,0.621,1.023,1.004c1.051,1.055,1.535,1.523,2.375,1.894
		c0.824,0.368,0.848,0.454,0.266,1.098c-0.211,0.234-0.336,0.516-0.383,0.672c-0.051,0.156-0.063,0.355-0.242,0.391
		c-0.918,0.175-3.977-1.676-4.094-2.957C29.668,98.031,29.968,97.145,30.441,97.105L30.441,97.105z M36.918,97.461
		c0.531-0.012,0.839,0.461,0.839,1.226c-0.003,0.532-0.3,0.747-0.91,0.973c-1.297,0.488-2.097-0.441-1.187-1.469
		C36.039,97.762,36.554,97.473,36.918,97.461L36.918,97.461z M36.125,100.582c0.98,0.004,1.265,0.828,0.547,1.539
		c-0.676,0.672-2.036,0.672-2.036-0.059C34.64,101.484,35.504,100.578,36.125,100.582L36.125,100.582z M30.054,101.57
		c0.664,0.196,2.278,1.356,2.985,1.492c0.039,0.391-0.434,0.5,0.234,1.235c0.305,0.336,0.332,0.562,0.067,0.703
		c-0.809,0.434-3.61-0.93-3.797-2.332C29.449,101.984,29.679,101.594,30.054,101.57L30.054,101.57z M33.711,103.246
		c0.964,0.043,2.054,0.07,1.941,0.531c-0.086,0.332-0.43,1.215-0.871,1.051c-0.215-0.082-0.422-0.293-0.57-0.438
		C33.695,103.898,33.558,103.242,33.711,103.246L33.711,103.246z M70.164,107.238c2.808,2.543,13.011,29.098-8.25,48.446
		l-4.512,1.352c20.414-16.027,17.02-38.781,11.512-48.594c0-0.289-0.082-0.257-0.59,0.204c-0.445,0.402-0.492,0.488-0.313,0.562
		c6.223,9.582,8.551,36.633-15.972,49.688c-0.414,0.43,0.422,0.363,0.422,0.363c0.043-0.352,11.043-3.024,10.265-3.094
		c10.25-9.06,19.176-30.672,8.067-49.508C70.523,106.48,70.164,107.238,70.164,107.238L70.164,107.238z M66.625,110.246
		l-0.145,0.598c8.899,17.468,0.406,38.871-16.137,46.793c0.274,0.199,0.575,0.336,0.879,0.48
		c18.766-10.105,24.176-31.488,15.989-48.051L66.625,110.246z M65.136,111.484l-0.105,0.633c7.367,14.867,1.519,35.5-16.063,43.867
		c-0.164,0.903,0.004,0.638,0.829,0.595c20.339-10.906,22.253-31.652,15.886-45.125L65.136,111.484z M63.871,113.266
		c-0.574,0.761-1.625,1.152-1.973,2.129c5.098,16.023-2.004,30.792-14.66,36.992c-0.008,0.785-0.574,2.73,0.797,2.422
		c15.972-7.238,22.922-26.473,15.937-41.614C63.972,113.195,63.882,113.262,63.871,113.266L63.871,113.266z M144.113,143.465
		c0.586,0.039,1.113,0.219,1.66,0.289c1.984,0.258,3.27,1.707,2.383,2.586c-0.289,0.289-0.695,0.121-1.984-0.508
		c-0.594-0.289-0.688-0.563-0.813-1.215c-0.145-0.785-0.301-0.863-0.5-0.254c-0.203,0.613-0.418,0.991-1.098,0.84
		C141.859,144.758,142.578,143.449,144.113,143.465L144.113,143.465z M122.886,156.762c-4.766-2.703-10.648-7.578-14.012-13.117
		c-1.672,3.137-3.637,8.848-3.637,8.848l-7.488-2.035l-0.078,0.102l7.391,2.128l-0.723,2.466c-0.074,0.27-1.219,3.074-1.219,3.074
		l11.543,5.391c-0.715,1.116-1.496,1.84-2.488,2.887c-0.559,0.586-0.574,1.351-0.574,1.351l16.008-15.269
		c0,0,2.063,3.062,2.832,3.758c0.719,0.648,0.945,0.809,0.105,1.004c-3.762,0.55-6.684,3.398-5.664,7.218
		c0.164,0.423,0.496,0.267,1.211-0.179c2.496-2.262,8.598-4.355,8.809-3.825l0.023,2.431c-6.57,0.098-5.898,4.926-5.418,7.52
		c0,0.054-1.898,1.715-1.898,1.715c0.672,0.355,1.328,0.719,1.949,1.152c-0.578,3.223,2.168,7.894,7.563,5.504
		c0.465,0.476,0.906,0.957,1.422,1.558c0.551-0.64,1.188-2.144,1.188-2.144c2.68,1.211,8.238-1.5,5.395-7.719l1.566-1.492
		l-1.504-0.949c-0.039-1.582-0.285-2.992-1.227-4.371c0,0,2.527,0.645,4.398,0.754c1.156,0.105,2.133,0.133,2.035-0.566
		c-0.027-0.203-0.203-1.211-0.316-1.539c-0.555-1.629-3.453-2.824-6.266-2.98c-0.457-0.027-0.953-0.012-1.051-0.133
		c-0.184-0.223,0.148-0.539,0.449-0.489c1.539,0.271,3.02-0.866,3.289-2.315c0.051-0.254,0.367-0.72,0.82-1.215
		c0.801-0.875,0.863-0.852,0.848-2.121c-0.012-0.879,0.145-1.074,0.551-1.664c0.523-0.84,0.766-1.938,0.504-3.074
		c-0.086-0.36-0.426-0.867-0.137-1.766c0.473-1.457-0.563-2.789-1.926-3.552c-0.109-0.03-0.074,0.079-0.164,0.185
		c-1.234,0.387-2.738-0.5-2.738-0.5c-0.309-0.152,1.051-8.063,3.871-7.355c0.148,0.082,0.66,1.441,0.66,1.441
		c0.266-0.008,0.164-2.355-1.48-2.047c-0.652,0.125-1.406,0.987-1.746,1.422c-1.316,1.68-1.332,2.754-1.773,4.539
		c-0.211,0.844-0.234,0.797-1.402-0.117c-0.84-0.656-1.246-0.867-0.953-1.25c0.129-0.172,0.676-0.719,0.676-0.719l10.207-9.824
		v98.379H94.582l0.406-12.641c1.082-8.891-0.824-27.559-2.266-29.313c1.113-1.25,4.563-4.262,4.371-4.398l-0.457-0.273l-1.824,1.679
		l-4.504-1.362c-1.926-1.328-3.886-2.555-5.922-3.078c-3.32-0.852-9.722,1.862-9.726,1.895c-10.227,0.754-18.414,4.906-18.297,4.875
		c-0.445-0.411-1.035-1.715-1.051-1.707c-5.269-7.332-10.453-11.441-17.531-16.454l8.969-4.952l-21.246-22.199l-0.188-18.023
		l30.777-29.426c0.18-0.508,9.817,6.808,13.407,12.762c0.687-2.911,1.968-5.555,3.039-8.411c0.109-0.261,6.121,2.223,7.906,2.329
		c0.266,0.015,0.48-0.266,0.48-0.266l-7.933-2.582l1.621-4.645c0,0,0.566-1.265-0.07-1.472c-3.618-1.172-7.012-3.235-10.473-4.989
		c0,0,1.617-1.796,1.641-1.875c0.023-0.078,0.679-1.039,0.523-1.371c-1.762,1.707-16.121,15.024-16.121,15.024
		c-0.406-2.285-1.051-3.086-2.445-4.496c0.761-0.035,1.953-0.789,2.64-1.289c2.102-1.536,3.25-4.27,2.973-5.868
		c-2.02,0.641-3.844,1.395-6.375,1.856c-1.422,0.258-2.77,0.898-3.586,1.59l-0.129-2.551c0.008,0.027,3.406,0.598,4.981-1.684
		c1.355-1.968,0.8-4.218,0.488-5.367c0.035-0.254-0.039-0.222,0.547-0.762c0.429-0.398,1.105-0.914,1.105-0.914
		c0.028-0.144-1.758-0.804-2.058-1.41c0.476-4.726-3.301-6.551-6.497-5.711c-0.597,0.18-0.882,0.293-1.593-0.5
		c-0.105-0.117-0.961-1.015-0.961-1.015s-0.375,0.867-0.567,1.246c-0.629,1.238-0.8,0.863-2.152,0.929
		c-3.422,0.168-4.949,2.934-4.164,6.325c0.184,0.797,0.102,0.675-0.422,1.683c-0.266,0.512-0.703,1.168-0.703,1.168
		s0.629,0.352,1.051,0.539c0.629,0.282,0.66,0.61,0.656,1.235c0.09,1.375,0.391,2.297,1.184,3.48
		c-2.684,0.063-4.739-0.187-7.168-0.996c0.371,3.734,3.125,5.125,6.496,5.672c0,0-0.356,0.332-0.727,0.477
		c-0.789,0.23-1.281,0.921-1.273,1.542c-0.117,0.594-0.5,1.188-0.852,1.504c-0.523,0.454-0.957,1.094-0.75,2.332
		c-0.055,0.899-0.269,1.157-0.535,1.5c-0.527,0.688-0.707,1.372-0.574,2.278c0.062,0.418,0.191,1.32,0.105,2.25
		c-0.144,1.554,0.41,2.136,1.117,3.226c0.457,0.707,0.36,0.727,0.254,1.243c-0.254,1.23-0.519,1.867-0.793,2.804
		c-0.613,2.098-0.636,3.692-0.132,4.098c0.753,0.617,1.609,0.433,2.007,0.308c2.985-0.918,2.465-3.847,2.625-5.812
		c0.082-0.508,0.258-0.75,0.422-0.727c0.844,0.989,1.739,1.559,2.887,2.18c-3.973,4.043-6.563,6.512-11.582,10.922l0.137-98.406
		h57.246c0,0,0.058,0.73-0.078,4.289c-0.246,7.238-0.551,14.816-0.078,22.195c0.082,2.551,0.027,5.074,0.394,7.602
		c0.359,2.461,0.516,5.113,1.668,7.406c0.461,1.242,0.477,1.144-1.285,2.773c-0.863,0.797-1.598,1.649-1.567,1.797
		c0.012,0.051-0.039,0.238,0.094,0.133c0.09-0.07,0.727-0.703,0.797-0.785c0.477-0.563,1.277,0.16,4,0.926
		c0.535,0.152,1.285,0.652,1.863,1.07c4.071,3.43,9.797,2.363,14.079,0.492c1.215-0.531,1.512-0.586,3.465-0.82
		c7.234-0.856,14.961-4.016,14.945-4.004l0.941,1.543c0,0,0.355-0.063,0.609,0.324c4.16,7.856,17.738,16.832,17.496,16.418
		l-8.875,4.914c6.461,7.985,21.238,21.527,21.238,21.527l-0.34,19.469c-3.965,3.176-7.457,6.813-10.945,10.363
		c-1,0.992-1.711,1.559-1.328,1.578c0.906-0.137,1.688,0.754,2.422,1.375c0.469,0.52,0.355,0.473-0.184,1.184
		c-0.379,0.5-0.516,0.645-0.516,1.004c0.012,0.698,0.008,1.168-0.613,1.691c-0.387,0.484-0.609,0.796-0.68,1.371
		c-0.07,0.57-0.063,0.941-0.457,1.449c-0.668,0.14-0.734,1.113-0.613,1.551c0.699,0.691,0.379,1.445,0.445,1.285
		c-1.34,1.453-2.742,2.711-1.848,0.679c0.406-0.753,0.543-1.378,0.543-1.378s-0.641,0.664-0.977,0.98
		c-0.516,0.477-0.703,0.194-0.719-1.285c-0.066-1.121-0.539-2.684-0.727-2.984c-0.105-0.168-0.125,0.121-0.074,1.203
		c0.066,1.418,0.234,1.832-0.266,3.25c-0.676,1.914-1.156,2.184-0.059,2.117c1.039-0.063,1.918-0.07,2.371,0.547
		c0.152,0.211,0.352,0.566,0.77,0.781c0.855,0.465,1.535,0.984,2.012,1.5c1.535,1.672,1.094,3.164-1.875,2.152
		c-1.566-0.535-0.543-1.203,1.141-1.051c1.031,0.098,1.207-0.286,0.313-0.559c-1.664-0.305-1.93-0.492-3.027,0.809
		c-4.605-0.454-7.191-3.027-8.434-5.125c-0.52-0.879-0.68-1.047-0.316-1.543c0.141-0.195,0.055-0.137-0.191,0.137
		c-0.246,0.27-0.914,0.495-1.137,0.691C125.847,153.848,124.281,155.508,122.886,156.762L122.886,156.762z M142.933,145.949
		c0.781,0.098,0.766,0.754,0.066,1.387c-0.656,0.496-1.105,0.59-1.473,0.219C140.878,146.902,141.714,145.945,142.933,145.949
		L142.933,145.949z M145.21,146.406c0.629-0.005,1.434,0.284,2.387,1.082c1.141,0.945,1.398,3.238,0.355,3.637
		c-0.441,0.164-0.508,0.004-1.441-0.887c-0.633-0.598-1.313-1.141-1.988-1.457c-1.371-0.656-1.547-0.902-0.621-1.348
		c0.195-0.102,0.449-0.336,0.566-0.523C144.707,146.531,144.777,146.406,145.21,146.406L145.21,146.406z M143.726,149.461
		c0.18,0.004,0.426,0.113,0.805,0.32c2.316,1.262,3.449,3.246,2.664,4.363c-0.512,0.734-1.348,0.457-1.988-0.586
		c-0.359-0.586-1.313-1.336-2.395-1.887c-1.238-0.625-1.266-0.719-0.371-1.146c0.367-0.175,0.645-0.425,0.824-0.741
		C143.472,149.418,143.492,149.453,143.726,149.461L143.726,149.461z M144.468,154.184c1.746,1.742,1.547,2.688,0.41,3.398
		c-0.773,0.483-2.02,0.604-2.426,0.203c-0.66-0.574-0.645-1.234,0.086-1.449c0.68-0.146,0.426-0.418-0.211-0.578
		c-2.27-0.645-3.664-1.848-1.195-1.586c0.707,0.074,1.391-0.477,1.762-0.914C143.429,152.608,144.152,153.871,144.468,154.184
		L144.468,154.184z M25.172,154.854l51.054,73.091l-41.273-0.082c0,0-0.156-0.535,0.179-4.914
		c0.497-5.945-0.265-11.102-1.671-16.902c0.175-0.021-1.977-7.043-3.653-10.477c-0.304-0.719-0.254-0.789,0.735-0.914
		c2.922-0.47,6.07-1.177,8.988-2.41c1.355-0.121,3.348,0.406,3.242,0.242c-0.051-0.078-1.766-1.652-1.766-1.652
		c-4.765,1.902-9.164,2.601-13.304,3.074c5.496,9.352,7.457,22.082,5.808,33.52l-7.91-0.023l-0.023-56.285L25.172,154.854z
		 M34.297,165.68c0.722-0.027,2.519,1.242,2.738,2.195c0.043,0.195,0.512,1.367,1.035,2.457c0.012,0.203,1.781,3.397,1.004,3.117
		c-1.551-2.102-4.313-5.68-5.008-7.427C34.066,165.793,34.093,165.687,34.297,165.68L34.297,165.68z M39.812,168.879
		c0.098,0.527,0.633,1.906,1.055,2.816c1.101,2.37,2.808,6.09,2.461,7.148c-0.235,0.715,0.008,0.676-0.617-0.203
		c-0.305-0.434-1.258-1.762-1.489-2.066c-0.558-0.75-0.183-0.063-0.5-1.281c-0.761-3.449-1.988-5.262-2.789-7.277
		C37.652,167.07,39.445,168.496,39.812,168.879L39.812,168.879z M40.793,169.402c0.148,0.105,2.172,1.527,2.379,1.73
		c0.714,2.551,3.582,10.722,2.839,12.183c-0.257-0.202-1.351-1.519-1.504-2.198c-0.328-3.906-1.57-6.72-2.898-9.629
		C41.234,170.608,40.941,169.729,40.793,169.402L40.793,169.402z M44.601,172.272c0.641,0.313,1.301,1.028,1.676,1.668
		c0.254,0.435,0.383,0.942,0.617,2.017c0.735,3.336,2.133,6.715,1.504,10.272c-0.394,0.532-1.246-0.675-1.367-1.862
		c-0.406-3.941-0.754-5.828-2.137-10.461C44.625,173.008,44.422,172.305,44.601,172.272L44.601,172.272z M47.847,175.328
		c0.137,0.008,0.418,0.262,0.887,0.698c0.91,0.856,1.039,1.169,1.043,2.587c0.031,2.082,0.723,4.457,0.832,6.559
		c0.063,1.215,0.281,4.351,0.094,4.539c-0.262,0.363-1.438-0.965-1.348-3.004c0.149-2.449,0.027-4.293-1.015-8.531
		c-0.485-1.957-0.727-2.797-0.52-2.844C47.828,175.332,47.84,175.328,47.847,175.328L47.847,175.328z M142.109,162.953
		c3.648,2.344,2.363,6.664,1.582,7.194c5.035,6.368-2.793,9.625-5.277,7.336c-3.68,3.657-9.992,0.595-7.563-5.433
		c0,0-4.617-8.824,4.492-8.235c0,0,0.156-3.562-0.102-3.726c-3.25-0.219-7.672,2.91-8.926,3.777
		c-0.691,0.422-0.844,0.219-0.844,0.219c-0.176-1.848-0.18-2.695,0.574-3.731c1.313-1.8,3.48-2.405,6.332-3.034
		c3.527,1.086,6.883,2.793,10.152,2.527c1.801,0.011,3.641,0.3,5.383,1.238c1.18,0.555,1.789,2.637,1.789,2.637
		C147.859,164.687,142.109,162.953,142.109,162.953L142.109,162.953z M140.375,149.867c0.016-0.629,0.73-1.336,1.43-1.254
		c0.969,0.07,1.094,1.215,0.234,1.637c-0.246,0.199-1.047-0.099-1.094,0.125c0.059,0.391-0.332,0.227-0.406,0.086
		C140.406,150.297,140.375,150.059,140.375,149.867L140.375,149.867z M139.789,152.358c0.355-0.245,0.652-0.269,1.008-0.315
		c0.547-0.066,1.25,0.016,1.402,0.59c0.152,0.566-0.926,0.894-1.801,0.91c-0.445,0.008-0.961,0.094-1.094-0.219
		C139.179,153.031,139.609,152.492,139.789,152.358L139.789,152.358z M29.379,112.113c0.703-2.445,0.265-3.816,1.437-6.828
		l2.856,0.949c0,0,0.121,2.957-0.454,4.606C32.64,112.484,30.746,113.797,29.379,112.113L29.379,112.113z M50.652,178.276
		c0.336,0.039,1.164,1.22,1.535,2.294c0.344,1,0.231,2.27,0.481,3.344c0.558,3.688,0.527,7.379,0.379,8.496
		c-0.075,0.559-0.434,0.328-0.926-0.199c-0.711-0.774-0.614-0.789-0.606-2.93c0.008-1.836-0.398-6.371-0.586-7.293
		c-0.347-1.703-0.492-3.328-0.41-3.605C50.543,178.301,50.59,178.27,50.652,178.276L50.652,178.276z M84.047,178.719
		c3.679,0.586,6.617,3.093,8.304,7.227c1.625,4.202,2.023,9.938,2.277,15.206c-0.016,1.263-0.539,0.946-1.898,0.16
		c-1.488-0.726-1.805-0.515-3.976-0.019c-1.356,0.312-1.235-0.609,0.996-2.142c0.758-0.495,1.641-1.155,1.352-1.254
		c-0.148-0.05-0.824,0.134-1.316,0.528c-2.188,1.77-2.781,2.199-2.153,0.48c0.161-0.434,0.668-1.641,0.879-2.22
		c0.793-2.159-0.121-3.082-2.812-4.448c-0.672-0.344-1.117-0.914-0.442,0.281c0.547,0.977-0.589,1.766-1.996,0.621
		c-0.976-0.793-2.941-0.266-3.578,0.727c-0.613,0.961-0.285,2.754,0.926,3.332c1.066,0.461,1.465,0.129,0.434-0.586
		c-1.328-0.918-1.071-2.473,0.422-2.469c0.367,0.003,1.019,0.414,2.664,1.309c1.175,0.637,2.011,0.367,2.015-0.586
		c0-0.634,0.363-0.582,1.137-0.199c1.043,0.516,0.93,0.979,0.379,2.422c-0.371,1.004-0.559,2.148-0.899,3.199
		c-0.875,3.535-0.992,7.543-0.023,8.793c2.582,3.319,5.324,2.969,7.672,0.772l-0.102,3.638c-2.395,1.922-5.191,3.23-9.508,10.352
		c-1.503-1.891-7.964-9.621-18.324-11.367l-2.332-3.191c0.043-0.195-1.738-11.859-2.906-15.832c0,0,1.281-1.945,2.445-3.379
		C68.336,184.344,76.199,177.785,84.047,178.719L84.047,178.719z M70.539,182.026c-0.399,0.13-0.528-0.668-0.313-0.815
		c0.481-0.043,0.649-0.027,1.129,0.008C71.718,181.242,71.711,181.656,70.539,182.026L70.539,182.026z M53.058,181.434
		c0.516,0.367,1.149,1.359,1.766,2.266c0.34,0.5,0.148,1.327,0.199,2.148c0.078,1.16,0.207,3.074,0.285,4.25
		c0.16,2.293-0.054,4.211-0.386,4.902c-0.344,0.828-1.04,0.254-1.211-0.879c-0.043-0.27,0.183-3.082,0.183-4.629
		C53.894,186.836,53.218,183.559,53.058,181.434L53.058,181.434z M68.738,181.418c0.184-0.012,0.32-0.004,0.441,0.147
		c0.559,0.716,0.786,1.149,0.278,1.539c-0.676,0.563-1.285,0.422-1.66-0.647C67.554,181.699,68.125,181.457,68.738,181.418
		L68.738,181.418z M66.66,182.047c0.601,0.402,1.199,1.465,1.262,2.229c-0.04,0.207-0.223,0.388-0.629,0.716
		c-0.399,0.362-0.524,0.34-0.973-0.363c-0.699-1.094-1.027-1.817-0.891-2.192C65.781,182.074,66.234,181.926,66.66,182.047
		L66.66,182.047z M91.148,182.184c1.004,0.086,1.992,0.546,2.973,0.777l-1.492,1.441C92.187,183.664,91.679,182.922,91.148,182.184
		L91.148,182.184z M64.433,182.937c0.551,0.716,1.512,2.591,1.457,3.286c-0.136,0.238-0.355,0.449-0.586,0.582
		c-0.183,0.05-0.347-0.27-0.968-1.371c-1.082-1.911-1.399-2.445-0.836-2.676C63.793,182.723,64.242,182.738,64.433,182.937
		L64.433,182.937z M62.257,183.379c0.598,0.535,2.04,3.383,2.083,4.183c-0.016,0.228-0.086,0.422-0.219,0.571
		c-0.906,0.976-0.676,0.82-2.024-1.957c-1.14-2.285-1.441-2.508-0.687-2.766C61.578,183.352,61.992,183.277,62.257,183.379
		L62.257,183.379z M60.09,184.125c0.394-0.008,0.507,0.652,1.277,2.16c1.289,2.848,1.773,3.241,1.484,3.547
		c-0.363,0.453-0.57,0.772-0.914,0.223c-0.777-1.266-1.551-2.879-2.273-4.297c-0.582-1.059-0.633-1.188-0.262-1.446
		C59.617,184.164,59.933,184.125,60.09,184.125L60.09,184.125z M83.121,184.934c-0.485,0.137-2.434,0.753-1.239,0.863
		c0.243,0.023,0.852-0.129,1.282-0.16c1.207-0.082,3.718,0.145,3.629-0.086C86.566,184.684,83.781,184.762,83.121,184.934
		L83.121,184.934z M58.402,185.199c0,0.047,0.313,0.602,0.625,1.145c1.832,3.547,2.852,4.836,2.527,5.395
		c-0.269,0.34-0.683,0.766-0.925,0.664c-0.395-0.164-0.922-1.324-2.235-3.949c-1.355-2.711-1.496-2.914-0.801-3.267
		C57.879,185.055,58.226,184.957,58.402,185.199L58.402,185.199z M56.57,186.449c0.844,1.371,0.73,1.191,0.723,5.648
		c-0.008,2.773-0.364,4.547-0.828,5.227c-0.243,0.359-0.672,0.148-0.883-0.552c-0.098-0.319,0.179-0.796,0.23-1.3
		c0.328-3.34,0.098-6.68,0.106-9.84C56.175,185.608,56.433,186.227,56.57,186.449L56.57,186.449z M78.312,187.543
		c0.391,0.559,0.297,1.012,0.293,1.766c-0.004,1.066,0.074,1.145,0.809,0.605c0.652-0.478,0.707-0.508,1.871,0.281
		c0.687,0.469,1.558,0.523,2.125,0.004c0.394-0.363,0.535-0.199,1.066-0.063c0.578,0.324,0.742,0.371,1.985-0.23
		c0.839-0.371,0.875-0.427,1.371-0.16c0.879,0.773,1.008,0.492,0.89-0.52c0-0.352,0.106-1.012,0.207-1.441
		c0.438-1.797-0.269-1.816-1.203-0.672c-0.363,0.445-1.172,0.637-1.933,0.277c-1.094-0.512-2.797-0.305-4.059-0.094
		c-1.492,0.25-2.18-0.16-2.781-0.672c-0.34-0.289-1.113-0.547-1.199-0.324C77.668,186.522,77.843,186.871,78.312,187.543
		L78.312,187.543z M58.312,190.065c0.188-0.043,0.473,0.513,0.895,1.685c0.539,1.512-0.407,6.77-0.977,7.633
		c-0.301,0.449-0.492,0.726-1.113-0.11c-0.246-0.366-0.055-0.483,0.191-1.519c0.371-1.57,0.684-4.117,0.703-5.301
		C58.015,190.918,58.101,190.108,58.312,190.065L58.312,190.065z M60.215,195.164c0.132,0.012,0.289,0.313,0.503,0.914
		c0.305,0.823,0.157,2.41-0.242,3.625c-0.23,0.707-0.453,1.461-0.847,2.094c-0.133,0.354-0.821,0.23-1.012-0.559
		c-0.121-0.496,0.297-1.113,0.496-1.906c0.199-0.797,0.43-1.81,0.543-2.32C59.867,195.77,60.015,195.151,60.215,195.164
		L60.215,195.164z M74.925,197.496c-0.015-0.004-0.031,0-0.039,0.004c0-0.004-0.007,0.008-0.011,0.012
		c-0.032,0.031,1.433,1.629,1.828,2.074c0.203,0.176,1.969,2.32,0.871,1.828c-2.77-1.148-6.012-0.586-8.008,1.34
		c-0.254,0.242-0.457-0.004-1.215-0.063c-1.551-0.112-2.113,0.5-1.172,1.267c0.145,0.117,0.446,0.168,0.582,0.354
		c0.125,0.172,0.09,0.481,0.153,0.567c3,3.984,8.554,4.758,12.039,2.156c0.441-0.328,0.687-0.441,1.094-0.32
		c0.812,0.242,0.882-0.438,0.168-1.387c-0.313-0.414-0.7-0.892-0.473-1.027c0.441-0.383,0.66-1.004-0.11-1.239
		c-0.531-0.16-1.125-0.75-1.425-1.573C78.859,200.522,75.445,197.565,74.925,197.496L74.925,197.496z M61.316,199.238
		c0.649-0.016,0.68,3.836-0.039,5.004c-0.371,0.441-1.219-0.379-1.09-1.227c0.098-0.641,0.789-3.536,0.945-3.684
		C61.199,199.27,61.261,199.238,61.316,199.238L61.316,199.238z M74.601,201.641c0.547-0.004,1.297,0.242,1.895,0.777
		c0.32,0.293,0.883,1.551,0.648,2.043c-0.066,0.254-0.742,0.238-0.801,0.055c-0.371-2.543-2.433-2.911-3.086-0.539
		c0,0-0.425,0.359-0.48-0.332C72.925,202.297,73.558,201.652,74.601,201.641L74.601,201.641z M91.191,201.863
		c0.652-0.012,1.277,0.316,1.598,1.016c0.227,0.488,0.25,0.897,0.16,1.109c-0.066,0.159-0.285,0.094-0.285,0.094
		c-1.047-2.867-2.469-1.543-2.984,0.043c0,0-0.54,0.164-0.605-0.004c-0.067-0.172-0.027-0.496,0.188-0.941
		C89.671,202.328,90.449,201.875,91.191,201.863L91.191,201.863z M77.203,202.039c0.371-0.02,1.004,0.281,1.476,0.758
		c0.485,0.488,0.532,0.777,0.141,1.137c-0.234,0.214-1.063,0.43-1.223,0.055l-0.703-1.637
		C76.828,202.199,77.035,202.051,77.203,202.039L77.203,202.039z M72.164,202.117c0.414,0,0.504,0.094-0.149,1.609
		c-0.136,0.324-1.808-0.145-1.492-0.77C71.004,202.457,71.75,202.117,72.164,202.117L72.164,202.117z M88.89,202.238
		c0.168-0.009,0.305,0.016,0.36,0.09c-0.148,0.055-0.778,1.651-0.778,1.651c-0.597-0.073-1.308,0.013-1.437-0.476
		c-0.125-0.461,0.117-0.742,0.957-1.063C88.246,202.348,88.613,202.25,88.89,202.238L88.89,202.238z M93.777,202.645
		c0.633,0.234,0.781,0.77,0.699,1.046c-0.059,0.207-0.359,0.212-0.57,0.048c-0.199-0.23-0.496-0.63-0.477-0.898
		C93.496,202.574,93.578,202.57,93.777,202.645L93.777,202.645z M62.277,204.121c0.195,0.367,0.547,2.438,0.137,2.387
		c-0.399-0.106-0.586-0.73-0.657-1.293C61.746,205.102,62.097,204.133,62.277,204.121L62.277,204.121z M69.234,205.227
		c0.188-0.023,0.648,0.137,1.34,0.527c2.266,1.094,4.59,1.25,7.058,0.699c1.426-0.371,1.79-0.586,1.989-0.345
		c0.344,0.419-0.196,0.832-2.207,1.509c-2.207,0.741-4.492,0.616-7.5-1.509C69.105,205.539,69,205.262,69.234,205.227
		L69.234,205.227z M94.398,205.801c0.371,0.695-0.898,1.355-1.543,1.543c-1.367,0.395-3.441,0.211-4.609-0.492
		c-0.098-0.063-0.192-0.125-0.281-0.191c-0.954-0.707-0.559-1.215,0.5-0.668c1.14,0.59,3.46,0.694,4.691,0.102
		C93.773,205.797,94.195,205.426,94.398,205.801L94.398,205.801z M66.242,207.098c-0.129,0.027,0.086,0.348,0.527,0.828
		c3.102,3.48,10.504,5.367,14.664,1.781c1.301-1.224,1.102-1.773-0.953-0.797c-2.269,0.746-5.5,0.848-8.293,0.434
		c-1.371-0.188-3.609-0.715-4.746-1.543C66.726,207.277,66.351,207.074,66.242,207.098L66.242,207.098z M87.629,207.203
		c0.187,0.016,0.519,0.086,1.242,0.457c1.051,0.547,3.438,0.359,4.219,0.073c1.645-0.608,1.984,0.164,0.422,1.024
		c-1.738,1.054-4.137,0.64-5.535-0.715c-0.433-0.387-0.668-0.871-0.476-0.91C87.515,207.129,87.601,207.199,87.629,207.203
		L87.629,207.203z M67.066,213.358c6.106,0.56,15.324,6.621,18.918,13.899h-2.066c-3.614-5.727-9.168-10.34-15.762-12.059
		C67.894,214.996,66.925,213.613,67.066,213.358L67.066,213.358z M94.175,214.69l-0.281,2.017c-1.023,0.84-4.773,3.944-7.558,8.813
		c-0.579-0.027-0.86-0.723-0.762-1.199C87.8,219.926,90.464,217.5,94.175,214.69L94.175,214.69z M69.492,216.27
		c1.402-0.098,10.519,4.801,13.59,10.988h-1.684c-3.453-4.496-7.289-7.43-10.699-8.606C69.871,217.777,68.965,216.309,69.492,216.27
		L69.492,216.27z M93.894,217.668l-0.016,2.723c-2.18,2.121-3.773,4.257-5.023,6.867h-1.691c0,0-0.379-0.746-0.246-1.211
		C88.843,222.586,90.687,220.062,93.894,217.668L93.894,217.668z M80.047,227.258h-1.641c-1.383-1.953-3.438-3.836-5.324-4.957
		c-0.774-0.957-1.641-2.141-1.293-2.332C71.812,219.262,79.066,224.164,80.047,227.258L80.047,227.258z M93.929,221.727
		l-0.035,1.574c-1.109,1.418-2.039,2.605-2.926,3.957H89.57C90.843,224.512,94.046,220.983,93.929,221.727L93.929,221.727z
		 M75.117,224.772c0.508,0.134,2.355,1.896,2.293,2.485l-0.828-0.024c-0.469-0.586-1.02-1.198-1.348-1.804
		C75.027,225.051,74.894,224.695,75.117,224.772L75.117,224.772z M93.609,225.258c0.008,0,0.008,0,0.012,0s-0.016,2-0.016,2h-1.402
		C92.05,227.229,92.882,225.75,93.609,225.258L93.609,225.258z M93.609,225.258"/>
	<path d="M122.781,20.777c-6.871,0-13.82,0.039-21.551,0.121l52.199,74.063l0.039-16.453l-16.75-21.617
		c3.813-1.176,8.469-1.989,12.133-2.313c-4.707-10.438-7.063-20.238-4.988-33.672C136.449,20.82,129.656,20.781,122.781,20.777
		L122.781,20.777z M142.996,21.25c-0.41,4.742-0.945,10.031-0.086,15.906c-2.719-0.992-3.355,0.699-3.805,0.879
		c-0.512-1.14-2.406-3.109-4.547-0.793c-1.117,1.203-0.574,3.469,2.012,4.492c-2.961,0.227-4.5-2.304-5.02-4.914
		c-1.602-1.027-3.285-2.039-3.445-5.633l0.82,0.137c-0.273,2.508,2.332,3.785,3.855,2.586c0.988-0.754,1.094-1.918,0.703-3.73
		c0.793-0.16,2.648-0.938,2.156-3.321c-0.676-3.289-4.055-2.902-5.598-0.738c-1.285-1.59-3.637-1.883-4.578,0.582
		c-0.527,1.375,0.672,2.914,2.031,3.215c-3.02,0.578-4.543-3.586-4.715-6.406l-1.25-2.223
		C129.699,21.242,133.269,21.25,142.996,21.25L142.996,21.25z M102.078,21.332l6.063,0.004l44.246,57.254l0.094,14.254
		L102.078,21.332z M117.406,21.336l0.969,0.012c0.758,5.039,3.652,8.688,8.609,10.464c0.258,4.118,2.246,9.708,9.777,11.598
		c-0.223,4.649,2.766,9.09,5.961,11.223c0,0-0.863,0.211-1.535,0.277c-4.301-3.41-5.359-8.43-5.785-10.5
		c-0.145-0.297-0.555-0.371-0.883-0.445c-3.676-1.297-6.773-4.32-8.039-8.008l-0.797-3.621c0.004-0.465-0.094-0.246-1.188-0.649
		c-2.836-1.046-5.461-4.113-6.637-7.781C117.242,21.977,117.406,21.336,117.406,21.336L117.406,21.336z M113.507,21.348l3.398,0.004
		c0,0,0.02,0.597,0.07,0.988c0.457,3.609,3.695,8.14,7.004,9.644c0.469,0.211,1.117,0.512,1.27,0.653
		c0.926,5.918,3.609,9.484,9.27,11.925c0.09,0.094,0.348,0.153,0.422,0.27c0.773,3.66,2.461,7.902,5.668,10.234l-1.387,0.145
		L113.507,21.348z M130.101,27.559c0.766,0,1.391,0.625,1.391,1.39c0,0.77-0.625,1.387-1.391,1.387c-0.77,0-1.395-0.617-1.395-1.387
		C128.707,28.184,129.332,27.559,130.101,27.559L130.101,27.559z M83.222,35.148c0.082,0.204-18.996,16.34-17.14,46.7l-0.551,0.617
		l0.148,0.219c-0.629,0.714-1.234,1.289-1.922,1.984c3.958,2.523,10.852,5.273,10.872,5.203l-1.317,3.051l8.242,2.664l-1.105,2.902
		c0,0-5.734-1.902-8.109-2.695c-1.172,2.602-1.883,5.344-2.739,8.051c-0.078,0.215-0.265,0.113-0.558-0.313
		c-4.282-7.301-13.075-12.566-12.778-12.047L25.082,121.07l-0.211,18.285l21.578,22.243c0,0-6.242,3.07-9.199,5.086
		c2.297,1.875,4.898,3.32,7.183,5.094c4.727,3.331,7.914,8.23,10.977,11.551c14.445-7.164,28.992-6.767,41.555-2.418
		c-1.465,1.543-3.098,2.875-4.605,4.547c3.648,9.578,2.48,28.608,2.297,29.125c7.602-7.767,18.914-24.418,17.402-47.867l3.199-3.207
		c-0.059-0.164-8-4.418-11.313-5.344l0.918-2.914l-7.93-2.478l0.883-2.312l7.898,2.285c1.496-3.668,3.082-8.813,3.082-8.813
		c3.152,4.718,6.629,9.012,13.785,13.378l31.004-29.664l-0.203-19.074l-21.105-21.109l8.785-4.578
		c-0.844-0.68-2.066-1.325-2.938-2.008c-0.063-0.051,0.176-0.195,0.113-0.242c-0.223-0.172-0.383-0.309-0.605-0.465
		c-0.051-0.035-0.211,0.191-0.262,0.156c-2.98-2.09-5.961-4.144-8.309-6.648c-0.059-0.063,0.027-0.325-0.031-0.387
		c-1.223-1.301-2.434-2.516-3.676-3.797c-0.574-0.582-1.527-1.961-1.527-1.961l-0.055-0.453l-1.332-1.68
		c-4.293,2.535-22.594,8.887-40.305,1.852l3.368-3.363c-0.899-2.164-1.477-4.575-1.707-6.551
		C82.871,49.418,83.222,35.148,83.222,35.148L83.222,35.148z M139.05,39.637c0.809,0,1.469,0.656,1.469,1.465
		c0,0.812-0.66,1.468-1.469,1.468c-0.813,0-1.465-0.656-1.465-1.468C137.585,40.293,138.238,39.637,139.05,39.637L139.05,39.637z
		 M143.64,41.383c0.75,3.648,2.391,8.945,4.027,12.519l-1.949,0.215c-1.586-1.031-3.266-2.535-3.441-4.672
		c-4.297,0.032-5.551-6.703-3.98-5.894c-0.203,2.301,1.449,3.207,3.07,2.98c1.395-0.191,2.598-2.117,0.938-4.242
		C143.042,42,143.402,41.785,143.64,41.383L143.64,41.383z M82.781,52.172c0.285,4.668,1.203,8.07,2.059,11.598l-8.489,8.003
		C77.015,64.469,79.16,57.937,82.781,52.172L82.781,52.172z M123.476,67.543l1.078,1.547c-12.262,7.199-33.191,7.711-45.941,1.637
		l1.691-1.61C91.519,74.18,109.773,74.555,123.476,67.543L123.476,67.543z M43.84,69.949c-1.239-0.015-2.665,0.453-4.176,1.606
		c-5.625-2.563-9.309,3.429-5.828,7.394c-0.516,2.856-0.907,3.391,1.242,6.281c-2.281,0.29-5.164-0.308-7.613-0.683
		c0.414,4.226,6.468,5.211,8.988,4.746c2.722-0.59,5.293,0.758,5.402,0.789c1.602,0.449,2.594,1.219,4.176,1.59
		c2.601,0.617,6.414-2.434,6.965-5.328c0.051-0.391,0.172-0.742-0.043-0.801c-1.778,0.453-3.735,1.098-5.469,1.477
		c-1.695,0.414-2.977,0.828-4.269,1.839l-0.106-3.496c8.813,0.422,4.977-7.957,4.477-8.316
		C49.222,73.738,47.254,69.988,43.84,69.949L43.84,69.949z M123.937,70.211l1.918,4.609l-5.094,1.727l-1.301-4.512L123.937,70.211z
		 M43.472,70.348c2.996,0.031,5.672,3.183,2.797,6.718c5.574,4.918-1.57,10.188-4.972,6.528c-4.532,4.148-9.344-0.184-6.813-4.699
		c-4.832-4.325,1.125-10.125,5.195-6.391C40.679,70.969,42.109,70.336,43.472,70.348L43.472,70.348z M78.246,72.039
		c0.719,0,1.301,0.582,1.301,1.297c0,0.719-0.582,1.297-1.301,1.297c-0.715,0-1.297-0.578-1.297-1.297
		C76.949,72.621,77.531,72.039,78.246,72.039L78.246,72.039z M45.066,72.133c-0.074,0.004-0.16,0.035-0.258,0.121
		c-0.145,0.016-0.461,0.555-1.254,1.473c-1.375,1.593-1.523,1.609-1.523,1.609c-1.465-0.481-2.445-0.223-3.41,0.391
		c0,0-1.098-0.211-2.617-1.477c-0.696-0.582-1.067-0.707-1.188-0.395c-0.129,0.329,0.188,0.657,1.516,1.559
		c1.84,1.254,1.722,1.156,1.722,1.156c-0.113,1.102,0.067,1.992,0.481,2.825c0,0-0.324,0.781-1.629,2.492
		c-0.367,0.484-0.672,1.008-0.672,1.168c-0.004,0.664,0.578,0.218,1.914-1.469c0.524-0.66,1.238-1.609,1.238-1.609
		c1.571,0.543,2.118,0.214,3.102-0.133c0,0,0.336,0.25,1.191,0.929c1.563,1.247,1.903,1.379,2.094,1.223
		c0.258-0.215,0.227-0.285-0.367-0.711c-1.762-1.277-2.371-2.015-2.371-2.015c0.359-1.399-0.031-2.555-0.418-3.282
		c0,0,0.027-0.179,1.023-1.293c0.731-0.816,1.735-2.105,1.672-2.289C45.328,72.289,45.23,72.133,45.066,72.133L45.066,72.133z
		 M81.175,72.418l4.586,1.426l-1.011,4.765l-4.887-1.574L81.175,72.418z M114.367,73.586l1.277,4.652l-4.77,1.27l-0.781-4.938
		L114.367,73.586z M117.714,73.664c0.719,0,1.301,0.582,1.301,1.301c0,0.715-0.582,1.297-1.301,1.297
		c-0.715,0-1.297-0.582-1.297-1.297C116.417,74.246,117,73.664,117.714,73.664L117.714,73.664z M128.562,73.832l4.012,3.57
		l-4.453,2.246l-2.145-4.652L128.562,73.832z M90.742,74.863l4.66,0.547l-0.188,5.008l-5.348-0.715L90.742,74.863z M74.574,74.918
		l5.187,2.273l-1.871,5.227l-5.308-2.281L74.574,74.918z M87.941,75.324c1.91,0.297,1.398,2.551,0,2.594
		c-0.719,0-1.297-0.582-1.297-1.297C86.644,75.902,87.222,75.324,87.941,75.324L87.941,75.324z M104.707,75.328l0.637,5.008
		l-4.836,0.297l-0.105-5.094L104.707,75.328z M108.035,75.898c0.715,0,1.297,0.582,1.297,1.297c0,0.719-0.582,1.301-1.297,1.301
		c-0.719,0-1.301-0.582-1.301-1.301C106.734,76.48,107.316,75.898,108.035,75.898L108.035,75.898z M40.687,76.367
		c0.738,0,1.34,0.598,1.34,1.34c0,0.738-0.602,1.34-1.34,1.34c-0.742,0-1.34-0.602-1.34-1.34
		C39.347,76.965,39.945,76.367,40.687,76.367L40.687,76.367z M97.972,76.32c0.715,0,1.297,0.582,1.297,1.297
		c0,0.719-0.582,1.297-1.297,1.297c-0.719,0-1.301-0.578-1.301-1.297C96.671,76.902,97.253,76.32,97.972,76.32L97.972,76.32z
		 M120.757,76.641l1.887,5.148l-5.289,1.707l-1.492-5.293L120.757,76.641z M124.468,76.777c0.715,0,1.297,0.582,1.297,1.301
		c0,0.715-0.582,1.297-1.297,1.297c-0.719,0-1.301-0.582-1.301-1.297C123.167,77.359,123.75,76.777,124.468,76.777L124.468,76.777z
		 M133.605,78.238l3.414,2.418l-1.691,0.942C134.886,80.535,134.101,79.277,133.605,78.238L133.605,78.238z M84.781,78.707
		l5.043,1.094l-0.77,5.281l-5.504-1.098L84.781,78.707z M69.785,78.996l2.676,1.262l-1.766,4.398l-4.332-2.304L69.785,78.996z
		 M81.754,79.281c0.718,0,1.3,0.582,1.3,1.301c0,0.715-0.582,1.297-1.3,1.297c-0.715,0-1.297-0.582-1.297-1.297
		C80.457,79.863,81.039,79.281,81.754,79.281L81.754,79.281z M110.878,79.574l0.898,5.281l-5.688,0.801l-0.352-5.386L110.878,79.574
		z M132.171,79.672c0.719,0,1.297,0.582,1.297,1.301c0,0.714-0.578,1.297-1.297,1.297s-1.297-0.583-1.297-1.297
		C130.875,80.254,131.453,79.672,132.171,79.672L132.171,79.672z M128.136,79.711l1.883,4.656l-5.563,2.328l-1.648-4.66
		L128.136,79.711z M113.949,80.047c0.719,0,1.297,0.582,1.297,1.301c0,0.714-0.578,1.297-1.297,1.297s-1.297-0.583-1.297-1.297
		C112.652,80.629,113.23,80.047,113.949,80.047L113.949,80.047z M95.16,80.578l5.324,0.098l-0.063,5.34l-5.832-0.164L95.16,80.578z
		 M137.742,80.949l2.094,1.453c-21.551,13.86-51.829,15.578-75.457,1.934c0,0,0.964-0.961,1.515-1.524
		C87.195,95.559,118.289,93.77,137.742,80.949L137.742,80.949z M92.273,81.551c0.715,0,1.297,0.582,1.297,1.297
		c0,0.718-0.582,1.3-1.297,1.3c-0.719,0-1.301-0.582-1.301-1.3C90.972,82.133,91.554,81.551,92.273,81.551L92.273,81.551z
		 M103.203,81.844c0.719,0,1.301,0.582,1.301,1.301c0,0.714-0.582,1.296-1.301,1.296c-0.715,0-1.297-0.582-1.297-1.296
		C101.906,82.426,102.488,81.844,103.203,81.844L103.203,81.844z M77.843,82.559l5.563,1.609l-0.949,4.387l-6.098-1.754
		L77.843,82.559z M74.168,82.59c0.714,0,1.297,0.582,1.297,1.301c0,0.714-0.583,1.296-1.297,1.296c-0.719,0-1.301-0.582-1.301-1.296
		C72.867,83.172,73.449,82.59,74.168,82.59L74.168,82.59z M117.355,83.527l1.328,4.926l-6.148,1.313l-0.742-4.844L117.355,83.527z
		 M120.886,84.242c0.715,0,1.297,0.578,1.297,1.297c0,0.715-0.582,1.297-1.297,1.297c-0.719,0-1.301-0.582-1.301-1.297
		C119.585,84.82,120.167,84.242,120.886,84.242L120.886,84.242z M40.574,85.004l-0.012,3.457c-1.019-0.84-2.172-1.734-3.351-2.641
		C38.414,85.883,39.531,85.551,40.574,85.004L40.574,85.004z M27.91,85.09c0.281-0.004,0.937,0.226,1.722,0.226
		c2.5-0.011,7.176,0.77,8.559,1.907c0.461,0.379,1.152,0.711,1.527,1.32c0,0.293-0.41,0.301-1.015-0.074
		c-1.16-0.723-3.086-1.364-5.668-1.723c-0.465-0.062-0.524-0.043-0.528,0.176c0,0.269,0.43,0.43,1.79,0.652
		c1.761,0.289,2.136,0.461,2.523,0.571c1.047,0.285,0.379,0.667-0.695,0.769c-4.391,0.41-7.676-1.477-8.336-3.633
		C27.734,85.137,27.785,85.09,27.91,85.09L27.91,85.09z M89.05,85.168l5.52,0.715l-0.25,4.621l-6.043-0.692L89.05,85.168z
		 M42.097,85.57c0.961,0.758,0.301,3.051-0.226,3.727c-0.34,0.379-1.137,0.18-1.133-0.356c0.121-0.476-0.047-2.761,0.055-3.468
		C41.179,85.254,41.746,85.316,42.097,85.57L42.097,85.57z M106.082,85.773l0.285,4.766l-6.023,0.273l0.047-4.679L106.082,85.773z
		 M85.757,86.094c0.719,0,1.297,0.582,1.297,1.301c0,0.714-0.578,1.296-1.297,1.296c-0.714,0-1.296-0.582-1.296-1.296
		C84.461,86.676,85.043,86.094,85.757,86.094L85.757,86.094z M52.191,86.16c0.223,3.496-5.144,5.867-7.156,4.797
		c-0.887-0.477-0.52-0.77,1.246-1.125c2.281-0.605,3.785-1.191,3.785-1.621c0.004-0.262-0.344-0.231-1.273,0.117
		c-1.434,0.481-2.922,0.688-4.289,1.301c-1.024,0.465-1.422,0.629-1.653,0.348c-0.48-0.582,1.793-2.059,4.149-2.454
		C48.765,87.23,50.55,86.289,52.191,86.16L52.191,86.16z M109.406,86.598c0.715,0,1.297,0.582,1.297,1.297
		c0,0.718-0.582,1.3-1.297,1.3c-0.719,0-1.301-0.582-1.301-1.3C108.105,87.18,108.687,86.598,109.406,86.598L109.406,86.598z
		 M97.332,87.547c0.715,0,1.297,0.582,1.297,1.301c0,0.714-0.582,1.297-1.297,1.297c-0.719,0-1.301-0.583-1.301-1.297
		C96.031,88.129,96.613,87.547,97.332,87.547L97.332,87.547z M126.261,89.754c8.688,8.273,18.211,17.797,26.066,25.633
		c-0.008,4.101-0.031,12.3-0.031,12.3l-30,28.513c-5.434-3.316-10.031-7.466-14.266-14.828c0.477-0.41,0.895-0.672,1.258-1.125
		l-1.563,0.938c-5.535-8.852-7.883-26.485,1.516-40.622l-9.496,0.348l1.551-3.234l10.34-0.567l4.18-4.484c0,0,1.324-0.246,2.422-0.5
		c1.09-0.25,3.313-0.887,4.941-1.414S126.199,89.754,126.261,89.754L126.261,89.754z M56.125,92.047c0,0,8.929,4.851,13.886,14.57
		c-16.027,13.785-22.066,29.84-23.429,46.547c-8.723-8.156-13.129-12.672-21.012-20.594l0.285-11.824L56.125,92.047z M89.835,93.586
		c-2.313,4.941-4.301,10.351-6.079,16.148L81.273,109c0,0,1.606-0.672,2.32-1.098l-1.289-2.078l2.446-1.004l-1.446-1.761
		l2.481-1.438l-1.238-1.559l2.269-1.136l-1.41-1.621l2.383-1.328l-1.242-1.555L89.835,93.586z M90.597,93.598
		c0,0,0.316,0.063,0.695,0.136c0.09-0.035-0.449,1.293-0.391,1.34c0.867,0.18,0.918,0.133,1.176,0.211l0.664-1.371l1.082,0.207
		c-2.188,4.941-4.531,10.352-5.875,16.203l-1.277-0.265c0,0,0.371-1.235,0.375-1.399c-0.153-0.031-0.872-0.336-1.094-0.426
		c-0.078,0.196-0.535,1.625-0.535,1.625l-1.012-0.027C86.062,103.437,88.953,96.352,90.597,93.598L90.597,93.598z M94.757,93.789
		l2.27,1.875l-2.574,1.004l1.332,1.773l-2.727,0.985l1.563,1.844l-2.699,0.996l1.609,2.23l-2.809,0.945l1.773,1.961l-2.535,1.184
		l1.52,1.504c0,0-1.582,0.523-1.672,0.543c-0.254,0.066-1.32-0.196-1.32-0.196C90.093,104.734,92.07,98.949,94.757,93.789
		L94.757,93.789z M39.578,94.738c-0.629,0.407-0.27,1.293-1.055,2.047c-0.129,0.137-0.137,0.449-0.187,0.719
		c-0.036,0.207-0.657,2.676-0.657,2.676s0.157-0.188,0.403-0.977c0.215-0.672,0.398-1.945,0.511-2.16
		c0.582-0.176,0.668-2.066,1.254-1.805c0.34,0.149,0.278,0.457,0.086,1.18c-0.418,1.449-0.582,2.059,0.133,1.07
		c1.074-1.289,1.176-2.453-0.031-2.699C39.91,94.766,39.652,94.742,39.578,94.738L39.578,94.738z M55.781,95.277L27.75,121.598
		l-0.086,9.82l9.758,9.887l6.921,6.715c2.516-15.031,8.282-29.372,22.477-41.782C64.644,102.738,60.918,98.332,55.781,95.277
		L55.781,95.277z M131.343,95.547c-16.469,7.742-20.258,23.617-15.156,37.988C124.035,123.441,130.195,113.957,131.343,95.547
		L131.343,95.547z M72.722,96.352l7.481,2.406l-2.817,9.605l-6.738-2.043l-0.687-1.703L72.722,96.352z M130.519,96.602
		c-0.719,12.843-5.563,25.39-13.988,35.234C112.269,121.324,114.832,104.516,130.519,96.602L130.519,96.602z M90.23,96.672
		l-0.473,1.191l1.035,0.293l0.441-1.211L90.23,96.672z M89.191,99.492l-0.422,1.211l1.063,0.359l0.398-1.23L89.191,99.492z
		 M133.32,99.711c-2.309,17.816-11.934,34.031-22.102,42.297c3.238,5.254,7.051,8.637,10.922,11.457l28.648-27.442l-0.113-9.151
		L133.32,99.711z M57.617,104.441c-0.176,0.653-0.238,0.981-0.238,0.981s0.328-0.305,1.199-0.781
		c5.629-2.805,3.812,1.464,1.16,3.043c-0.59,0.316-1.199,0.691-1.199,0.691s0.563,0.125,1.172,0.238
		c3.418,0.711,2.691,2.707-0.871,2.399c-0.528-0.047-1.149-0.145-1.149-0.117c0,0.031,0.215,0.781,0.461,1.402
		c1.199,3.023-1.039,3.258-2.512,1.336c-0.207-0.266-0.672-1.008-0.672-1.008s-0.144,0.559-0.234,1.102
		c-1.273,4.742-4.414,4.621-3.242-0.192c0.148-0.496,0.328-1.387,0.328-1.387s-0.707,0.43-1.477,0.77
		c-4.066,1.816-4.73-0.051-1.035-2.785c1.055-0.778,1.41-1.082,1.41-1.082c-0.656-0.051-1.257-0.153-1.793-0.285
		c-2.945-0.739-3.73-2.5,0.993-2.418c0.695,0.011,1.406,0.058,1.406,0.058s-0.231-1.011-0.477-1.777
		c-1.14-3.531,1.157-3.953,3.094-0.785c0.41,0.672,0.531,0.676,0.531,0.676c-0.062,0.003,0.121-1.208,0.59-2.325
		C57.406,97.852,58.324,101.816,57.617,104.441L57.617,104.441z M108.281,100.926c-1.969,3.476-3.684,6.933-4.5,10.535l-7.656-0.129
		c0.531-3.199,1.883-6.52,3.496-10.035C102.738,101.211,105.546,101.074,108.281,100.926L108.281,100.926z M88.074,102.465
		l-0.442,1.281l1.11,0.34l0.402-1.246L88.074,102.465z M30.832,104.867c-0.821,2.129-1.094,4.504-1.551,6.406
		c-0.191,1.102,0.004,1.563,0.668,1.809c0.937,0.348,2.297-0.129,3.055-1.215c0.429-0.613,0.738-1.879,0.804-4.109l0.074-1.992
		C32.718,105.551,31.922,105.238,30.832,104.867L30.832,104.867z M87.039,105.145l-0.367,1.175l1.07,0.395l0.406-1.184
		L87.039,105.145z M136.609,105.586c1.305,0.031,1.547,0.148,2.727,0.844l2.273,2.343c-0.594,0.571-0.969,1.372-0.969,2.262
		c0,1.735,1.406,3.141,3.137,3.141c0.859,0,2.203-0.906,2.203-0.906l3.609,3.734c-2.598,1.141-5.125-2.359-5.254-2.359
		c0.566-0.594-1.508,7.148-3.465,6.82c-1.77-0.293,0.031-7.313,0.051-7.149c-1.215,1.282-7.133,2.649-6.719,1.215
		c0.824-2.847,5.25-3.945,5.832-4.437C137.679,109.676,134.695,105.75,136.609,105.586L136.609,105.586z M31.117,105.676
		c0.75,0.054,1.265,0.144,1.773,0.355c0.239,0.067,0.25,0.262,0.278,0.449c0.004,0.84,0.214,3.309-0.567,3.336
		c-0.863-0.019-1.679,0.168-2.25,0.602c-0.457,0.352-0.609,0.098-0.484-0.801c0.121-0.867,0.551-2.695,0.738-3.433
		C30.632,105.879,30.875,105.664,31.117,105.676L31.117,105.676z M54.507,105.707c-1.734,0-3.136,1.406-3.136,3.141
		c0,1.73,1.402,3.136,3.136,3.136c1.731,0,3.137-1.406,3.137-3.136C57.644,107.113,56.238,105.707,54.507,105.707L54.507,105.707z
		 M54.507,106.805c1.125,0,2.04,0.914,2.04,2.043c0,1.125-0.915,2.035-2.04,2.035s-2.042-0.91-2.042-2.035
		C52.465,107.719,53.382,106.805,54.507,106.805L54.507,106.805z M70.695,106.844c7.191,12.414,6.359,29.453-2.121,41.847
		l9.117-0.636l-1.199,2.332l-9.719,0.945c-1.484,1.358-2.836,2.914-4.297,4.367l-0.015,0.516c-3.329,0.773-6.664,1.664-10.059,2.887
		c-1.793-1.762-5.164-5.277-5.145-5.368l0.219-1.14c23.11-11.789,16.348-35.438,14.723-37.383
		C64.679,112.234,67.636,109.434,70.695,106.844L70.695,106.844z M134.835,109.102c0.938,0,1.695,0.757,1.695,1.695
		c0,0.937-0.758,1.695-1.695,1.695c-0.934,0-1.695-0.758-1.695-1.695C133.14,109.859,133.902,109.102,134.835,109.102
		L134.835,109.102z M142.371,109.559l2.84,2.921c-0.367,0.364-0.871,0.594-1.434,0.594c-1.125,0-2.039-0.91-2.039-2.039
		C141.738,110.457,141.98,109.93,142.371,109.559L142.371,109.559z M44.828,109.922c0.937,0,1.691,0.754,1.691,1.691
		c0,0.934-0.754,1.696-1.691,1.696c-0.938,0-1.696-0.762-1.696-1.696C43.132,110.676,43.89,109.922,44.828,109.922L44.828,109.922z
		 M32.215,110.633c0.792,0.262,0.609,1.004-0.415,1.656c-0.664,0.422-1.273,0.516-1.855,0.203
		C28.836,111.902,31.132,110.246,32.215,110.633L32.215,110.633z M45.32,114.781l-10.215,9.879c0.645-1.64,0.668-3.277,0.715-4.918
		c3.074,0.317,4.359-1.242,3.91-4.453C41.715,115.41,43.773,115.199,45.32,114.781L45.32,114.781z M61.683,115.91
		c4.735,13.5,0.621,27.789-14.191,36.066C48.105,139.035,53.535,126.668,61.683,115.91L61.683,115.91z M75.172,117.09
		c8.128,2.129,17.378,3.121,26.984,3.129c0.074,3.652,0.25,7.52,0.996,11.25c-8.18-2.141-17.32-3.137-27.305-2.961
		C76.261,124.645,75.597,120.266,75.172,117.09L75.172,117.09z M135.441,119.09l-8.656,10.117l0.363-5.523
		c2.914,0.371,3.953-1.168,3.523-4.204C132.261,119.676,133.851,119.398,135.441,119.09L135.441,119.09z M51.34,119.648
		l-0.684,4.043c-1.731,0.047-3.426,0.661-3.402,4.516l-5.161-0.063L51.34,119.648z M146.593,120.395
		c0.934,0,1.691,0.761,1.691,1.695c0,0.937-0.758,1.699-1.691,1.699c-0.938,0-1.699-0.762-1.699-1.699
		C144.894,121.156,145.656,120.395,146.593,120.395L146.593,120.395z M43.488,120.91c0.934,0,1.695,0.758,1.695,1.695
		c0,0.938-0.761,1.692-1.695,1.692c-0.938,0-1.699-0.754-1.699-1.692C41.789,121.668,42.55,120.91,43.488,120.91L43.488,120.91z
		 M142.808,122.648l-0.902,6.122c-2.359-0.208-4.328,0.156-3.723,4.305c-1.996-0.195-4.766,0.273-6.621,0.434L142.808,122.648z
		 M134.359,123.758c0.934,0,1.695,0.758,1.695,1.695c0,0.938-0.762,1.691-1.695,1.691c-0.938,0-1.695-0.754-1.695-1.691
		C132.664,124.516,133.421,123.758,134.359,123.758L134.359,123.758z M31.062,125.069c0.934,0,1.695,0.763,1.695,1.696
		c0,0.938-0.761,1.695-1.695,1.695c-0.937,0-1.695-0.758-1.695-1.695C29.367,125.832,30.125,125.069,31.062,125.069L31.062,125.069z
		 M36.683,127.074c2.164,0.487,1.164,5.534,0.676,6.905c-0.039,0.04,6.039-3.183,6.402-1.761c0.239,2.852-5.031,4.836-5.031,4.836
		s3.551,3.086,3.652,5.023c0.008,1.254-1.484,1.023-3.425-0.566c-0.828-0.816-1.469-1.426-2.039-1.992
		c0.668-0.574,1.086-1.426,1.086-2.375c0-1.73-1.407-3.137-3.137-3.137c-0.957,0-1.813,0.429-2.387,1.105
		c-0.453-0.434-0.961-0.938-1.644-1.586c-1.121-1.048-1.907-1.88-1.793-2.255c1.476-1.043,4.418,1.755,4.679,2.009
		C33.504,132.733,35.129,127.367,36.683,127.074L36.683,127.074z M33.722,133.281c0.012,0.027,0.028,0.047,0.051,0.047
		C33.773,133.328,33.734,133.293,33.722,133.281L33.722,133.281z M126.015,131.016c1.031-0.012,0.965,2.332,0.602,3.546
		c-0.254,0.931-0.5,1.692-0.5,1.692s0.867-0.68,1.25-0.859c2.805-1.313,3.848,0.176,2.438,1.898
		c-0.68,0.887-1.605,1.082-2.359,1.828c1.07,0.047,2.301,0.285,3.227,0.828c0.719,0.43,1.285,0.953,1.285,1.277
		c-0.004,0.723-1.785,1.113-3.449,0.926c-0.707,0.016-2.039-0.363-2.039-0.363s0.551,0.93,0.754,1.483
		c0.621,1.724,0.402,3.743-0.496,3.739c-1.504-0.398-2.234-2.071-2.824-3.27c-0.48,1.336-0.949,2.77-2.023,3.762
		c-1.066,0.984-1.613,0.168-1.559-1.504c0.023-0.664,0.512-2.646,0.512-2.646c-6.313,2.129-5.844-0.753-0.918-3.276
		c-3.035-1.449-4.879-2.75,0.285-3.047c-0.137-0.121-1.039-2.887-0.074-3.535c0.895-0.602,2.805,1.465,2.898,1.565
		c-0.039-0.203,0.5-1.823,1.41-2.94C125.128,131.336,125.644,131.022,126.015,131.016L126.015,131.016z M120.199,137.031
		c0.004,0.008,0.012,0.008,0.012,0H120.199L120.199,137.031z M147.832,135.207c-1.098,0.102-1.781,1.074-2.293,1.926
		c-0.102,0.172-0.293,0.234-0.363,0.461c-0.453,1.468-0.852,3.227-1.098,5.41c0.699,0.289,2.27,0.769,2.965,0.512
		c0.195-0.082,0.133-0.586,0.199-0.754C149.222,137.776,149.394,135.065,147.832,135.207L147.832,135.207z M34.875,135.082
		c1.125,0,2.039,0.914,2.039,2.039c0,0.648-0.301,1.223-0.774,1.598c-1.312-1.313-1.984-1.996-2.867-2.86
		C33.648,135.387,34.226,135.082,34.875,135.082L34.875,135.082z M148.222,136.055c0.273,0.668-0.613,1.395-1.758,1.391
		c-0.684-0.005-0.902,0.094-0.602-0.5C146.226,136.227,147.695,134.772,148.222,136.055L148.222,136.055z M132.839,135.582
		c0.938,0,1.695,0.758,1.695,1.695c0,0.934-0.758,1.691-1.695,1.691s-1.695-0.758-1.695-1.691
		C131.144,136.34,131.902,135.582,132.839,135.582L132.839,135.582z M43.425,135.699c0.934,0,1.696,0.758,1.696,1.691
		c0,0.938-0.762,1.699-1.696,1.699c-0.937,0-1.691-0.762-1.691-1.699C41.734,136.457,42.488,135.699,43.425,135.699L43.425,135.699z
		 M123.617,136.387c-1.734,0-3.137,1.406-3.137,3.136c0,1.735,1.402,3.142,3.137,3.142c1.73,0,3.137-1.406,3.137-3.142
		C126.753,137.793,125.347,136.387,123.617,136.387L123.617,136.387z M81.687,136.809c-0.828,3.617-2.097,7.07-3.699,10.492
		c-3.023,0.179-6.293,0.32-8.449,0.629c3.59-6.289,3.676-7.77,5.008-11.102L81.687,136.809z M86.882,137.32
		c0.848,0.098,1.782,0.227,2.622,0.391c-1.546,5.434-3.585,11.012-6.223,16.383l-1.594-0.25l-0.758-0.934l2.536-1.013l-1.977-2.019
		l3.273-0.988l-2.011-1.984l3.23-0.809l-1.73-2.102l2.902-1.133l-1.844-2.38l3.094-0.851L86.882,137.32z M123.617,137.483
		c1.125,0,2.039,0.914,2.039,2.039c0,1.13-0.914,2.039-2.039,2.039s-2.039-0.909-2.039-2.039
		C121.578,138.397,122.492,137.483,123.617,137.483L123.617,137.483z M90.082,137.793l1.078,0.176l-0.332,1.156l1.227,0.262
		l0.398-1.25c0,0,0.988,0.093,1.094,0.172c-1.285,5.246-5.835,16.223-5.895,16.168l-1.172-0.176l0.309-1.11l-1.09-0.151v-0.012
		l-0.524,1.202l-1.164-0.093C86.828,147.703,88.746,142.77,90.082,137.793L90.082,137.793z M147.351,138.211
		c0.867-0.004,0.813,0.441,0.188,2.07c-0.59,1.53-0.809,2.145-1.094,2.344c-0.684,0.483-2.148,0.078-2.031-0.625
		c0.387-2.289,0.523-3.267,1.113-3.574C146.144,138.305,146.742,138.215,147.351,138.211L147.351,138.211z M94.417,138.402
		l2.813,0.543l-2.352,1.398l1.492,1.746l-2.891,1.234l1.758,1.816l-2.793,1.141l1.699,1.995L91.25,149.5l1.969,1.707l-3.254,1.026
		l1.234,1.896l-1.227,0.683l-1.507-0.237C90.972,148.727,92.582,143.914,94.417,138.402L94.417,138.402z M101.328,139.801l5.512,1.5
		l1.102,1.965l-2.586,8.73l-7.34-2.156L101.328,139.801z M90.378,140.641l-0.523,1.434l1.211,0.254l0.469-1.477L90.378,140.641z
		 M89.312,143.934l-0.523,1.434l1.136,0.223l0.539-1.445L89.312,143.934z M88.238,146.828l-0.535,1.426l1.109,0.226l0.527-1.429
		L88.238,146.828z M140.007,149.453c0,0-0.648,0.48-0.656,0.68c0.125,0.324,0.422,0.738,0.371,1.066
		c-0.051,0.25-0.328,0.448-0.742,0.891c-1.039,1.207-1.402,1.078-0.801-0.211c0.199-0.406,0.285-0.781,0.285-0.781
		c-0.238,0.336-0.418,0.734-0.582,1.05c-0.344,0.657-0.66,1.282-0.66,1.282c0.66,0.227,1.098,0.718,1.523,1.035
		c0,0,0.219-0.582,0.367-1.141c0.211-0.781,0.625-1.102,1.129-1.367c0.32-0.172,0.625-0.48,0.625-0.48
		C140.308,150.91,140.246,150.098,140.007,149.453L140.007,149.453z M87.09,149.805l-0.567,1.516l1.106,0.273l0.613-1.551
		L87.09,149.805z M24.75,153.621c-0.102,6.047,0.101,10.026-0.11,16.551l16.371,21.215l-2.554,0.859c0,0-0.028,0.293-0.168,0.332
		c-3.496,0.961-9.172,1.918-9.172,1.918c4.219,9.637,6.957,21.688,5.07,33.727l42.371-0.114L24.75,153.621z M114.363,163.867
		l-1.461,1.465c-21.547-11.66-51.227-11.617-72.887,2.504l-1.765-1.293C61.89,151.397,90.968,151.492,114.363,163.867
		L114.363,163.867z M25.543,155.742l49.871,71.641l-5.855,0.086l-43.972-57.523L25.543,155.742z M132.57,157.035
		c0,0-1.441,0.375-2.652,0.762c-3.465,1.109-5.086,3.113-4.766,5.898c0.094,0.82,0.305,0.809,1.719-0.082
		c3.305-2.086,3.512-2.18,7.625-3.387c0.32-0.09,0.781-0.023,0.781-0.023l-0.18,3.25c-6.863-0.023-6.488,5.426-4.516,8.258
		c-0.688,1.312-2.199,5.883,2.777,7.625c2.48,0.492,5.109-1.524,5.031-1.629c4.578,2.168,9.891-1.465,5.746-7.754
		c1.559-2.742,0.461-4.777-1.027-6.531c0,0,0.254,0.023,2.418,0.422c3.289,0.609,4.547,0.5,4.547,0.5
		c0.004-2.961-2.449-4.282-7.559-4.684C138.894,160.172,132.57,157.012,132.57,157.035L132.57,157.035z M77.363,157.379
		c0.246,0,0.492,0,0.738,0.004l-0.242,5.054l-5.566,0.259l-0.364-5.035C73.847,157.527,75.629,157.387,77.363,157.379
		L77.363,157.379z M84.035,157.504l5.973,0.726l-0.902,4.728l-5.504-0.594L84.035,157.504z M132.359,157.559
		c0.617-0.016,0.48,0.625-0.238,0.766c-1.074,0.211-3.828,1.813-3.828,2.23c0,0.266,0.137,0.227,1.145-0.313
		c0.504-0.27,1.555-0.727,2.332-1.023s1.668-0.653,1.98-0.793c0.926-0.414,1.383-0.129,1.051,0.664
		c-0.223,0.519-0.309,0.563-2.457,1.242c-1.941,0.617-2.297,0.776-3.531,1.565c-0.457,0.293-1.273,0.767-1.813,1.043
		c-1.266,0.657-1.523,0.661-1.52-0.226c-0.07-2.617,2.824-4.582,6.75-5.145C132.277,157.562,132.32,157.559,132.359,157.559
		L132.359,157.559z M80.785,158.172c0.746,0,1.351,0.604,1.351,1.351c0,0.75-0.605,1.356-1.351,1.356
		c-0.746,0-1.352-0.606-1.352-1.356C79.433,158.776,80.039,158.172,80.785,158.172L80.785,158.172z M66.007,158.531l0.442,4.586
		l-5.473,1.405l-1.254-4.733C61.816,159.272,63.91,158.914,66.007,158.531L66.007,158.531z M136.539,158.879
		c1.5,0.229,1.379,3.668,0.613,4.262c-1.18,0.852-1.906-0.926-1.379-3.289C135.921,159.145,136.195,158.895,136.539,158.879
		L136.539,158.879z M69.113,159.065c0.746,0,1.352,0.606,1.352,1.353s-0.606,1.352-1.352,1.352s-1.352-0.605-1.352-1.352
		S68.367,159.065,69.113,159.065L69.113,159.065z M95.859,159.461l6.188,1.687l-1.512,4.789l-5.809-1.632L95.859,159.461z
		 M92.488,159.551c0.746,0,1.352,0.605,1.352,1.355c0,0.746-0.605,1.352-1.352,1.352s-1.352-0.605-1.352-1.352
		C91.136,160.156,91.742,159.551,92.488,159.551L92.488,159.551z M143.125,159.953c2.668,0.026,6.184,1.367,6.191,3.43
		c-0.055,0.586-5.586-0.196-8.141-1.223c-0.906-0.363-2.012-1.477-2.012-1.941c0.004-0.273,0.543-0.254,0.762,0.011
		c0.359,0.438,1.633,0.896,4.559,1.634c2.25,0.566,2.473,0.586,2.473,0.245c0.004-0.308-1.324-0.737-2.766-0.976
		c-0.723-0.117-1.398-0.336-2.512-0.434c-0.516,0-0.645-0.328-0.211-0.547C141.937,160.012,142.511,159.949,143.125,159.953
		L143.125,159.953z M138.414,161.02c0.676,0.316,0.918,0.945,1.289,1.277c-0.461,0.219-0.668,0.437-1.414,0.492
		C138.3,162.297,138.167,161.707,138.414,161.02L138.414,161.02z M57.355,161.391c0.746,0,1.352,0.605,1.352,1.352
		c0,0.75-0.606,1.355-1.352,1.355s-1.351-0.605-1.351-1.355C56.004,161.996,56.609,161.391,57.355,161.391L57.355,161.391z
		 M53.715,161.772l1.46,4.685l-5.23,2.276l-1.855-4.64C49.898,163.141,51.875,162.449,53.715,161.772L53.715,161.772z
		 M77.906,162.539c0,0,4.168,0.004,5.605,0.022l-0.336,5.286l-5.199,0.039L77.906,162.539z M72.34,162.828l0.289,5.276l-5.008,0.673
		l-0.989-5.309L72.34,162.828z M104,162.875c0.746,0,1.352,0.604,1.352,1.352c0,0.746-0.605,1.352-1.352,1.352
		s-1.352-0.605-1.352-1.352C102.648,163.479,103.253,162.875,104,162.875L104,162.875z M140.23,163
		c3.051,0.012,5.957,3.52,2.945,7.19c4.941,3.806-0.43,10.196-4.797,6.47c-6.246,6.137-9.738-2.195-7.152-4.402
		c-3.82-6.274,0.871-10.238,5.711-7.469C137.828,163.522,139.039,162.992,140.23,163L140.23,163z M89.191,163.147l5.496,1.224
		l-1.105,5.219l-5.367-1.09L89.191,163.147z M107.375,163.276l5.023,2.496l-3.895,3.747l-2.895-1.441L107.375,163.276z
		 M75.172,163.867c0.746,0,1.351,0.605,1.351,1.352c0,0.75-0.605,1.355-1.351,1.355c-0.747,0-1.352-0.605-1.352-1.355
		C73.82,164.473,74.425,163.867,75.172,163.867L75.172,163.867z M86.023,164.039c0.75,0,1.356,0.605,1.356,1.352
		s-0.606,1.352-1.356,1.352C84.035,166.43,84.57,164.082,86.023,164.039L86.023,164.039z M61.007,164.801l1.223,5.219l-5.09,1.719
		l-1.82-5.087L61.007,164.801z M64.504,165.172c0.746,0,1.351,0.605,1.351,1.351c0,0.747-0.605,1.353-1.351,1.353
		c-0.747,0-1.352-0.605-1.352-1.353C63.152,165.777,63.757,165.172,64.504,165.172L64.504,165.172z M139.828,167.578
		c-0.383,0.477-0.883,1.035-0.883,1.035c-1.266-0.523-2.496-0.313-3.316,0.25c0,0-0.871-0.695-1.668-1.341
		c-1.383-1.116-1.84-1.37-1.844-0.905c0,0.098,0.469,0.573,1.039,1.066c1.559,1.332,1.875,1.813,1.875,1.813
		c-0.371,1.207-0.367,2.156,0.348,3.172c0,0,0.027,0.133-0.52,0.707c-0.992,1.047-2.016,2.664-1.777,2.902
		c0.293,0.293,1.121-0.414,2.16-1.82c0.742-1,0.965-1.023,0.965-1.023c1.266,0.343,1.965,0.652,3.23-0.391
		c0,0,0.477,0.144,1.43,0.93c1.484,1.227,2.016,1.488,2.18,1.074c0.129-0.34-0.066-0.567-1.324-1.524
		c-0.816-0.62-1.727-1.351-1.727-1.351c0.266-0.442,0.457-2-0.461-3.07c0,0,0.039,0.07,1.391-1.684
		c0.902-1.168,1.059-1.313,0.758-1.563C141.285,165.332,139.964,167.41,139.828,167.578L139.828,167.578z M100.585,166.082
		l4.957,2.082l-1.773,5.184l-4.789-1.957L100.585,166.082z M46.039,166.43c0.746,0,1.351,0.605,1.351,1.352
		c0,0.745-0.605,1.352-1.351,1.352c-0.75,0-1.356-0.606-1.356-1.352C44.683,167.035,45.289,166.43,46.039,166.43L46.039,166.43z
		 M96.75,166.57c0.746,0,1.352,0.605,1.352,1.352s-0.605,1.351-1.352,1.351s-1.352-0.604-1.352-1.351S96.003,166.57,96.75,166.57
		L96.75,166.57z M42.574,166.94l1.625,4.017l-3.692-2.75L42.574,166.94z M83.257,167.977l4.938,0.582l-0.781,4.707l-4.258-0.387
		L83.257,167.977z M77.867,167.988l-0.051,4.836l-4.687,0.202l-0.399-4.831L77.867,167.988z M53.734,168.867
		c0.746,0,1.352,0.605,1.352,1.352c0,0.75-0.606,1.355-1.352,1.355s-1.352-0.605-1.352-1.355
		C52.382,169.473,52.988,168.867,53.734,168.867L53.734,168.867z M49.992,168.965l1.91,4.859l-2.961,1.43l-3.969-3.754
		L49.992,168.965z M67.648,169.027l0.766,4.625l-4.895,1.206l-1.183-4.702L67.648,169.027z M137.566,169.074
		c1.063,0,1.926,0.862,1.926,1.926c0,1.065-0.863,1.93-1.926,1.93c-1.066,0-1.93-0.864-1.93-1.93
		C135.636,169.937,136.5,169.074,137.566,169.074L137.566,169.074z M80.328,169.219c0.75,0,1.355,0.605,1.355,1.352
		c0,0.75-0.605,1.355-1.355,1.355c-0.746,0-1.352-0.605-1.352-1.355C78.976,169.824,79.582,169.219,80.328,169.219L80.328,169.219z
		 M93.652,169.719l5.215,1.688l-1.754,4.176l-4.504-1.219L93.652,169.719z M70.535,169.891c0.746,0,1.351,0.605,1.351,1.355
		c0,0.746-0.605,1.352-1.351,1.352s-1.352-0.605-1.352-1.352C69.183,170.496,69.789,169.891,70.535,169.891L70.535,169.891z
		 M90.367,170.391c0.746,0,1.352,0.605,1.352,1.352s-0.605,1.352-1.352,1.352s-1.352-0.605-1.352-1.352
		S89.621,170.391,90.367,170.391L90.367,170.391z M57.246,171.973l1.797,4.136l-4.907,2.121L52,174.016L57.246,171.973z
		 M60.722,172.223c0.746,0,1.356,0.605,1.356,1.352s-0.61,1.352-1.356,1.352c-0.746,0-1.351-0.605-1.351-1.352
		S59.976,172.223,60.722,172.223L60.722,172.223z M78.804,173.469c8.055-0.016,15.329,1.668,21.165,4.086l-1.738,1.629
		c-18.933-6.508-31.316-3.575-44.015,1.996l-1.286-1.586C61.906,175.203,70.746,173.488,78.804,173.469L78.804,173.469z
		 M100.226,173.52c0.746,0,1.352,0.605,1.352,1.352c0,0.75-0.605,1.355-1.352,1.355c-0.75,0-1.355-0.605-1.355-1.355
		C98.871,174.125,99.476,173.52,100.226,173.52L100.226,173.52z M50.879,176.488c1.086,0.063,1.191,2.09,0.683,1.508l-1.211-1.398
		C50.55,176.512,50.722,176.477,50.879,176.488L50.879,176.488z M101.5,177.324c-0.039,1.539-1.496,11.844-6.41,18.926
		c-0.297-3.582-1.164-7.867-2.129-10.728C92.96,185.522,98.25,180.641,101.5,177.324L101.5,177.324z M38.636,192.94l25.575,34.481
		l-2.688-0.021c-0.562-2.53-1.371-5.12-2.969-7.058c-1.293-1.574-2.453-2.758-4.773-3.813c-1.399-0.637-1.578-0.5-1.668-1.574
		c-0.422-6.031-5.305-9.824-9.043-11.267c-0.363-3.647-2.008-7.233-6.133-10.254L38.636,192.94z M36.148,193.766
		c2.336,1.605,4.895,3,6.277,9.328c0.102,1.324,0.184,1.184,1.223,1.574c4.074,1.195,7.621,6.094,7.938,10.375
		c-0.004,1.289,0.418,1.406,2.007,2.074c1.957,0.819,3.985,2.555,5.133,4.266c1.707,2.457,2.313,6.176,2.164,6l-1.406,0.008
		c-1.004-6.309-4.973-8.825-9.172-10.004c0.328-8.903-6.597-11.684-9.015-12.102c0.144-6.414-4.008-9.059-6.684-11.211
		C35.109,193.875,36.148,193.766,36.148,193.766L36.148,193.766z M32.011,194.651c2.09,0.685,3.676,3.599,3.516,4.938
		c2.758,0.347,5.656,3.015,5.02,5.793c-0.204,0.117-0.524,0.14-0.844-0.18c0.738-5.388-7.305-2.72-4.09,1.18l-1.438,0.938
		c-1.156-5.391-2.582-8.449-4.125-12.344C30.613,194.828,32.011,194.651,32.011,194.651L32.011,194.651z M38.672,205.949
		c0.714,0,1.293,0.582,1.293,1.297s-0.579,1.293-1.293,1.293c-0.715,0-1.293-0.578-1.293-1.293S37.957,205.949,38.672,205.949
		L38.672,205.949z M45.578,211.766c3.074,0.871,4.066,3.98,3.965,5.113l-0.672-0.016c-1.078-4.93-6.696-2.246-4.352,1.68
		c-3,1.109-2.762,3.883-1.879,4.977c1.219,1.512,4.328,1.464,5.278-0.863c2.918,3.777,6.945-0.461,3.394-3.977
		c2.91,1.07,3.375,4.968,2.938,6.184c1.351,0.461,2.906,2.605,2.699,2.594l-21.801,0.004c0,0,1.055-8.797-0.066-15.438
		c1.453,0.349,2.425,0.7,4.093-1.257c2.7,2.234,4.641,0.546,4.5-1.383c-0.207-1.352-0.906-2.024-2.062-2.738
		C43.976,206.062,45.765,210.151,45.578,211.766L45.578,211.766z M48.011,217.965c0.735,0,1.332,0.597,1.332,1.332
		c0,0.738-0.597,1.332-1.332,1.332c-0.734,0-1.332-0.594-1.332-1.332C46.679,218.562,47.277,217.965,48.011,217.965L48.011,217.965z
		 M48.011,217.965"/>
</g>
</svg>
