<?xml version="1.0" encoding="utf-8"?>
<!-- Generator: Adobe Illustrator 15.0.0, SVG Export Plug-In . SVG Version: 6.00 Build 0)  -->
<!DOCTYPE svg PUBLIC "-//W3C//DTD SVG 1.1//EN" "http://www.w3.org/Graphics/SVG/1.1/DTD/svg11.dtd">
<svg version="1.1" id="Layer_1" xmlns="http://www.w3.org/2000/svg" xmlns:xlink="http://www.w3.org/1999/xlink" x="0px" y="0px"
	 width="178.582px" height="249.449px" viewBox="0 0 178.582 249.449" enable-background="new 0 0 178.582 249.449"
	 xml:space="preserve">
<g>
	<path fill="#FFFFFF" d="M8.504,0"/>
	<path fill="#D40000" d="M71.59,45.559c7.937-7.743,13.148-16.188,18.132-24.309c4.371,8.934,10.645,16.754,17.43,24.309
		c-7.258,7.496-12.883,15.511-17.406,23.937C84.73,60.859,79.453,53.035,71.59,45.559L71.59,45.559z M71.59,45.559"/>
	<path fill="#D40000" d="M71.59,204.604c7.937-7.746,13.148-16.187,18.132-24.308c4.371,8.933,10.645,16.754,17.43,24.308
		c-7.258,7.497-12.883,15.513-17.406,23.935C84.73,219.901,79.453,212.082,71.59,204.604L71.59,204.604z M71.59,204.604"/>
	<path fill="#D40000" d="M157.203,199.281c3.254-3.173,5.387-6.634,7.43-9.957c1.789,3.659,4.359,6.862,7.141,9.957
		c-2.973,3.07-5.277,6.352-7.133,9.805C162.589,205.547,160.425,202.344,157.203,199.281L157.203,199.281z M157.203,199.281"/>
	<path fill="#D40000" d="M7.027,50.266c3.25-3.176,5.383-6.633,7.426-9.961c1.793,3.66,4.363,6.863,7.14,9.961
		c-2.972,3.07-5.277,6.351-7.132,9.804C12.41,56.531,10.246,53.328,7.027,50.266L7.027,50.266z M7.027,50.266"/>
	<path fill="#D40000" d="M6.648,37.312l0.129-1.617c0.41-4.992,1.5-6.675,7.699-11.883c3.008-2.527,3.996-3.773,4.133-5.222
		c0.395-3.406-2.68-4.473-4.684-4.488c-2.593-0.028-5.527,1.527-4.128,5.128l-2.911,0.856C6.3,16.727,6.902,13.57,9.629,12.172
		c3.636-1.824,8.304-1.11,10.66,1.765c1.582,1.93,1.941,4.598,1.093,6.684c-2.48,5.336-10.898,7.684-11.593,13.856h9.304v-3.438
		h2.743v6.328L6.648,37.312z M6.648,37.312"/>
	<path fill="#D40000" d="M171.933,212.141l-0.133,1.617c-0.406,4.988-1.5,6.676-7.695,11.883c-3.008,2.527-3.996,3.773-4.137,5.218
		c-0.391,3.411,2.684,4.474,4.684,4.493c2.594,0.023,5.527-1.527,4.129-5.129l2.91-0.855c0.59,3.359-0.012,6.512-2.738,7.914
		c-3.637,1.823-8.305,1.109-10.66-1.766c-1.582-1.93-1.941-4.598-1.094-6.684c2.48-5.34,10.895-7.688,11.594-13.855h-9.309v3.434
		h-2.738v-6.324L171.933,212.141z M171.933,212.141"/>
</g>
</svg>
