<?xml version="1.0" encoding="utf-8"?>
<!-- Generator: Adobe Illustrator 15.0.0, SVG Export Plug-In . SVG Version: 6.00 Build 0)  -->
<!DOCTYPE svg PUBLIC "-//W3C//DTD SVG 1.1//EN" "http://www.w3.org/Graphics/SVG/1.1/DTD/svg11.dtd">
<svg version="1.1" id="Layer_1" xmlns="http://www.w3.org/2000/svg" xmlns:xlink="http://www.w3.org/1999/xlink" x="0px" y="0px"
	 width="178.582px" height="249.449px" viewBox="0 0 178.582 249.449" enable-background="new 0 0 178.582 249.449"
	 xml:space="preserve">
<g>
	<path fill="#FFFFFF" d="M8.504,0"/>
	<path fill="#D40000" d="M25.855,44.039c7.938-7.746,13.149-16.191,18.133-24.312c4.371,8.937,10.644,16.753,17.43,24.312
		c-7.258,7.496-12.883,15.508-17.407,23.934C38.996,59.336,33.718,51.516,25.855,44.039L25.855,44.039z"/>
	<path fill="#D40000" d="M25.855,203.117c7.938-7.746,13.149-16.191,18.133-24.313c4.371,8.938,10.644,16.754,17.43,24.313
		c-7.258,7.496-12.883,15.508-17.407,23.934C38.996,218.414,33.718,210.594,25.855,203.117L25.855,203.117z"/>
	<path fill="#D40000" d="M115.082,44.039c7.938-7.746,13.148-16.191,18.133-24.312c4.371,8.937,10.645,16.753,17.43,24.312
		c-7.258,7.496-12.883,15.508-17.406,23.934C128.223,59.336,122.945,51.516,115.082,44.039L115.082,44.039z"/>
	<path fill="#D40000" d="M115.082,203.117c7.938-7.746,13.148-16.191,18.133-24.313c4.371,8.938,10.645,16.754,17.43,24.313
		c-7.258,7.496-12.883,15.508-17.406,23.934C128.223,218.414,122.945,210.594,115.082,203.117L115.082,203.117z"/>
	<path fill="#D40000" d="M156.434,198.965c3.25-3.172,5.387-6.633,7.426-9.957c1.793,3.66,4.363,6.859,7.141,9.957
		c-2.973,3.07-5.277,6.352-7.129,9.805C161.816,205.229,159.652,202.027,156.434,198.965L156.434,198.965z"/>
	<path fill="#D40000" d="M6.656,50.875c3.254-3.172,5.387-6.633,7.43-9.961c1.789,3.664,4.359,6.863,7.14,9.961
		c-2.972,3.07-5.277,6.352-7.133,9.805C12.039,57.141,9.879,53.937,6.656,50.875L6.656,50.875z"/>
	<path fill="#D40000" d="M14.265,37.102v-2.25h2.071v-3.711H5.996v-2.618l11.187-16.878l1.828,0.007v16.871h3.164v2.618h-3.164
		l-0.062,3.711h1.734v2.25H14.265z M16.336,17.824L9.23,28.523h7.106V17.824z"/>
	<path fill="#D40000" d="M164.313,212.352v2.25h-2.066v3.711h10.34v2.613l-11.188,16.879l-1.828-0.004v-16.875h-3.164v-2.613h3.164
		l0.059-3.711h-1.734v-2.25H164.313z M162.246,231.629l7.102-10.703h-7.102V231.629z"/>
</g>
</svg>
