<?xml version="1.0" encoding="utf-8"?>
<!-- Generator: Adobe Illustrator 15.0.0, SVG Export Plug-In . SVG Version: 6.00 Build 0)  -->
<!DOCTYPE svg PUBLIC "-//W3C//DTD SVG 1.1//EN" "http://www.w3.org/Graphics/SVG/1.1/DTD/svg11.dtd">
<svg version="1.1" id="Layer_1" xmlns="http://www.w3.org/2000/svg" xmlns:xlink="http://www.w3.org/1999/xlink" x="0px" y="0px"
	 width="178.582px" height="249.449px" viewBox="0 0 178.582 249.449" enable-background="new 0 0 178.582 249.449"
	 xml:space="preserve">
<g>
	<path fill="#FFFFFF" d="M8.504,0"/>
	<path fill="#D40000" d="M26.855,45.039c7.938-7.746,13.149-16.191,18.133-24.312c4.371,8.937,10.644,16.753,17.43,24.312
		c-7.258,7.496-12.883,15.508-17.407,23.934C39.996,60.336,34.718,52.516,26.855,45.039L26.855,45.039z"/>
	<path fill="#D40000" d="M26.855,204.117c7.938-7.746,13.149-16.191,18.133-24.313c4.371,8.938,10.644,16.754,17.43,24.313
		c-7.258,7.496-12.883,15.508-17.407,23.934C39.996,219.414,34.718,211.594,26.855,204.117L26.855,204.117z"/>
	<path fill="#D40000" d="M116.082,45.039c7.938-7.746,13.148-16.191,18.133-24.312c4.371,8.937,10.645,16.753,17.43,24.312
		c-7.258,7.496-12.883,15.508-17.406,23.934C129.223,60.336,123.945,52.516,116.082,45.039L116.082,45.039z"/>
	<path fill="#D40000" d="M116.082,204.117c7.938-7.746,13.148-16.191,18.133-24.313c4.371,8.938,10.645,16.754,17.43,24.313
		c-7.258,7.496-12.883,15.508-17.406,23.934C129.223,219.414,123.945,211.594,116.082,204.117L116.082,204.117z"/>
	<path fill="#D40000" d="M159.263,204.332c3.25-3.172,5.387-6.633,7.426-9.957c1.793,3.66,4.363,6.859,7.142,9.957
		c-2.974,3.07-5.276,6.352-7.129,9.805C164.646,210.596,162.481,207.395,159.263,204.332L159.263,204.332z"/>
	<path fill="#D40000" d="M4.737,46.449c3.254-3.172,5.387-6.633,7.43-9.961c1.789,3.664,4.359,6.863,7.14,9.961
		c-2.972,3.07-5.277,6.352-7.133,9.805C10.121,52.715,7.96,49.511,4.737,46.449L4.737,46.449z"/>
	<path fill="#D40000" d="M12.202,33.18v-2.25h2.071v-3.711H3.933v-2.618L15.12,7.723l1.828,0.007v16.871h3.164v2.618h-3.164
		l-0.062,3.711h1.734v2.25H12.202z M14.273,13.902L7.167,24.601h7.106V13.902z"/>
	<path fill="#D40000" d="M166.362,217.03v2.25h-2.065v3.711h10.34v2.613l-11.188,16.879l-1.828-0.004v-16.875h-3.163v-2.613h3.163
		l0.06-3.711h-1.733v-2.25H166.362z M164.296,236.308l7.102-10.703h-7.102V236.308z"/>
</g>
</svg>
