<?xml version="1.0" encoding="utf-8"?>
<!-- Generator: Adobe Illustrator 15.0.0, SVG Export Plug-In . SVG Version: 6.00 Build 0)  -->
<!DOCTYPE svg PUBLIC "-//W3C//DTD SVG 1.1//EN" "http://www.w3.org/Graphics/SVG/1.1/DTD/svg11.dtd">
<svg version="1.1" id="Layer_1" xmlns="http://www.w3.org/2000/svg" xmlns:xlink="http://www.w3.org/1999/xlink" x="0px" y="0px"
	 width="178.582px" height="249.449px" viewBox="0 0 178.582 249.449" enable-background="new 0 0 178.582 249.449"
	 xml:space="preserve">
<g>
	<path fill="#FFFFFF" d="M8.504,0"/>
	<path fill="#D40000" d="M27.101,46.625c7.938-7.742,13.149-16.187,18.133-24.308c4.371,8.933,10.645,16.754,17.43,24.308
		c-7.258,7.497-12.883,15.512-17.407,23.938C40.242,61.926,34.965,54.105,27.101,46.625L27.101,46.625z"/>
	<path fill="#D40000" d="M27.101,203.949c7.938-7.746,13.149-16.19,18.133-24.313c4.371,8.938,10.645,16.754,17.43,24.313
		c-7.258,7.492-12.883,15.508-17.407,23.935C40.242,219.246,34.965,211.426,27.101,203.949L27.101,203.949z"/>
	<path fill="#D40000" d="M115.648,46.625c7.934-7.742,13.147-16.187,18.133-24.308c4.371,8.933,10.645,16.754,17.43,24.308
		c-7.262,7.497-12.887,15.512-17.41,23.938C128.789,61.926,123.507,54.105,115.648,46.625L115.648,46.625z"/>
	<path fill="#D40000" d="M71.453,126.037c7.937-7.745,13.148-16.188,18.133-24.311c4.371,8.934,10.645,16.754,17.43,24.311
		c-7.258,7.494-12.887,15.51-17.406,23.937C84.593,141.334,79.316,133.512,71.453,126.037L71.453,126.037z"/>
	<path fill="#D40000" d="M115.648,203.949c7.934-7.746,13.147-16.19,18.133-24.313c4.371,8.938,10.645,16.754,17.43,24.313
		c-7.262,7.492-12.887,15.508-17.41,23.935C128.789,219.246,123.507,211.426,115.648,203.949L115.648,203.949z"/>
	<path fill="#D40000" d="M159.717,204.242c3.25-3.172,5.387-6.635,7.43-9.957c1.789,3.66,4.359,6.861,7.137,9.957
		c-2.973,3.068-5.277,6.355-7.129,9.805C165.1,210.508,162.936,207.305,159.717,204.242L159.717,204.242z"/>
	<path fill="#D40000" d="M4.261,46.559c3.25-3.176,5.387-6.633,7.43-9.961c1.789,3.66,4.359,6.863,7.141,9.961
		c-2.977,3.066-5.282,6.351-7.133,9.8C9.644,52.824,7.484,49.621,4.261,46.559L4.261,46.559z"/>
	<path fill="#D40000" d="M3.918,26.215l2.574-0.023c0.492,1.558,1.578,3.14,3.055,3.582c4.168,0.976,6.855-1.352,7.738-4.039
		c1.07-3.258-0.024-7.836-2.895-9.461c-2.379-1.352-5.914-0.211-7.539,2.668L5.047,17.84L6.016,7.102H17.8v2.539H8.25l-0.149,4.473
		c2.051-1.442,5.215-1.43,7.27-0.418c3.89,1.855,5.699,6.074,4.941,11.05c-1.051,4.946-3.359,7.747-8.574,8.153
		C5.941,32.946,3.895,28.96,3.918,26.215L3.918,26.215z"/>
	<path fill="#D40000" d="M174.481,223.886l-2.578,0.02c-0.488-1.555-1.578-3.141-3.051-3.577c-4.172-0.978-6.855,1.352-7.738,4.038
		c-1.074,3.259,0.023,7.837,2.895,9.462c2.379,1.348,5.914,0.211,7.535-2.673l1.806,1.105l-0.97,10.738H160.6v-2.539h9.547
		l0.151-4.475c-2.055,1.442-5.215,1.432-7.27,0.418c-3.891-1.854-5.699-6.072-4.941-11.049c1.047-4.945,3.359-7.75,8.574-8.152
		C172.458,217.151,174.505,221.136,174.481,223.886L174.481,223.886z"/>
</g>
</svg>
