<?xml version="1.0" encoding="utf-8"?>
<!-- Generator: Adobe Illustrator 15.0.0, SVG Export Plug-In . SVG Version: 6.00 Build 0)  -->
<!DOCTYPE svg PUBLIC "-//W3C//DTD SVG 1.1//EN" "http://www.w3.org/Graphics/SVG/1.1/DTD/svg11.dtd">
<svg version="1.1" id="Layer_1" xmlns="http://www.w3.org/2000/svg" xmlns:xlink="http://www.w3.org/1999/xlink" x="0px" y="0px"
	 width="178.582px" height="249.449px" viewBox="0 0 178.582 249.449" enable-background="new 0 0 178.582 249.449"
	 xml:space="preserve">
<g>
	<path fill="#FFFFFF" d="M8.504,0"/>
	<path fill="#D40000" d="M27.101,45.523c7.938-7.742,13.149-16.187,18.133-24.308c4.371,8.933,10.645,16.754,17.43,24.308
		c-7.258,7.497-12.883,15.512-17.407,23.938C40.242,60.824,34.965,53.004,27.101,45.523L27.101,45.523z M27.101,45.523"/>
	<path fill="#D40000" d="M27.101,202.848c7.938-7.746,13.149-16.191,18.133-24.313c4.371,8.938,10.645,16.754,17.43,24.313
		c-7.258,7.492-12.883,15.507-17.407,23.934C40.242,218.145,34.965,210.324,27.101,202.848L27.101,202.848z M27.101,202.848"/>
	<path fill="#D40000" d="M115.648,45.523c7.934-7.742,13.148-16.187,18.133-24.308c4.371,8.933,10.645,16.754,17.43,24.308
		c-7.262,7.497-12.887,15.512-17.41,23.938C128.789,60.824,123.507,53.004,115.648,45.523L115.648,45.523z M115.648,45.523"/>
	<path fill="#D40000" d="M71.453,124.935c7.937-7.744,13.148-16.188,18.133-24.31c4.371,8.934,10.645,16.754,17.43,24.31
		c-7.258,7.495-12.887,15.511-17.406,23.937C84.593,140.233,79.316,132.41,71.453,124.935L71.453,124.935z M71.453,124.935"/>
	<path fill="#D40000" d="M115.648,202.848c7.934-7.746,13.148-16.191,18.133-24.313c4.371,8.938,10.645,16.754,17.43,24.313
		c-7.262,7.492-12.887,15.507-17.41,23.934C128.789,218.145,123.507,210.324,115.648,202.848L115.648,202.848z M115.648,202.848"/>
	<path fill="#D40000" d="M156.628,199.242c3.25-3.172,5.387-6.634,7.43-9.957c1.789,3.66,4.359,6.862,7.137,9.957
		c-2.973,3.069-5.277,6.355-7.129,9.805C162.011,205.508,159.847,202.305,156.628,199.242L156.628,199.242z M156.628,199.242"/>
	<path fill="#D40000" d="M7.261,50.559c3.25-3.176,5.387-6.633,7.43-9.961c1.789,3.66,4.359,6.863,7.141,9.961
		c-2.977,3.066-5.282,6.351-7.133,9.8C12.644,56.824,10.484,53.621,7.261,50.559L7.261,50.559z M7.261,50.559"/>
	<path fill="#D40000" d="M6.543,30.031l2.574-0.023c0.492,1.558,1.578,3.14,3.055,3.582c4.168,0.976,6.855-1.352,7.738-4.039
		c1.07-3.258-0.024-7.836-2.895-9.461c-2.379-1.352-5.914-0.211-7.539,2.668l-1.804-1.102L8.64,10.918h11.785v2.539h-9.55
		l-0.149,4.473c2.051-1.442,5.215-1.43,7.27-0.418c3.89,1.855,5.699,6.074,4.941,11.05c-1.051,4.946-3.359,7.747-8.574,8.153
		C8.566,36.762,6.519,32.777,6.543,30.031L6.543,30.031z M6.543,30.031"/>
	<path fill="#D40000" d="M172.039,219.422l-2.578,0.019c-0.488-1.554-1.578-3.14-3.051-3.577c-4.172-0.977-6.855,1.352-7.738,4.038
		c-1.074,3.259,0.023,7.837,2.895,9.462c2.379,1.348,5.914,0.211,7.535-2.673l1.805,1.106l-0.969,10.738h-11.781v-2.539h9.547
		l0.152-4.474c-2.055,1.442-5.215,1.431-7.27,0.418c-3.891-1.854-5.699-6.073-4.941-11.05c1.047-4.945,3.359-7.75,8.574-8.152
		C170.015,212.687,172.062,216.672,172.039,219.422L172.039,219.422z M172.039,219.422"/>
</g>
</svg>
