<?xml version="1.0" encoding="utf-8"?>
<!-- Generator: Adobe Illustrator 15.0.0, SVG Export Plug-In . SVG Version: 6.00 Build 0)  -->
<!DOCTYPE svg PUBLIC "-//W3C//DTD SVG 1.1//EN" "http://www.w3.org/Graphics/SVG/1.1/DTD/svg11.dtd">
<svg version="1.1" id="Layer_1" xmlns="http://www.w3.org/2000/svg" xmlns:xlink="http://www.w3.org/1999/xlink" x="0px" y="0px"
	 width="178.582px" height="249.449px" viewBox="0 0 178.582 249.449" enable-background="new 0 0 178.582 249.449"
	 xml:space="preserve">
<g>
	<path fill="#FFFFFF" d="M8.504,0"/>
	<path fill="#D40000" d="M26.406,47.035c7.937-7.746,13.148-16.191,18.133-24.312c4.371,8.938,10.644,16.754,17.429,24.312
		c-7.257,7.492-12.882,15.508-17.406,23.934C39.547,62.332,34.269,54.512,26.406,47.035L26.406,47.035z"/>
	<path fill="#D40000" d="M26.406,127.229c7.937-7.742,13.148-16.187,18.133-24.308c4.371,8.933,10.644,16.754,17.429,24.308
		c-7.257,7.498-12.882,15.514-17.406,23.938C39.547,142.531,34.269,134.711,26.406,127.229L26.406,127.229z"/>
	<path fill="#D40000" d="M26.406,206.107c7.937-7.74,13.148-16.187,18.133-24.308c4.371,8.933,10.644,16.755,17.429,24.308
		c-7.257,7.496-12.882,15.514-17.406,23.938C39.547,221.41,34.269,213.59,26.406,206.107L26.406,206.107z"/>
	<path fill="#D40000" d="M71.554,87.133c7.938-7.746,13.149-16.192,18.133-24.313c4.372,8.938,10.645,16.754,17.43,24.313
		c-7.258,7.496-12.883,15.508-17.406,23.933C84.695,102.43,79.418,94.609,71.554,87.133L71.554,87.133z"/>
	<path fill="#D40000" d="M115.632,47.035c7.938-7.746,13.147-16.191,18.134-24.312c4.371,8.938,10.645,16.754,17.43,24.312
		c-7.258,7.492-12.883,15.508-17.406,23.934C128.773,62.332,123.496,54.512,115.632,47.035L115.632,47.035z"/>
	<path fill="#D40000" d="M115.632,127.229c7.938-7.742,13.147-16.187,18.134-24.308c4.371,8.933,10.645,16.754,17.43,24.308
		c-7.258,7.498-12.883,15.514-17.406,23.938C128.773,142.531,123.496,134.711,115.632,127.229L115.632,127.229z"/>
	<path fill="#D40000" d="M115.632,206.107c7.938-7.74,13.147-16.187,18.134-24.308c4.371,8.933,10.645,16.755,17.43,24.308
		c-7.258,7.496-12.883,15.514-17.406,23.938C128.773,221.41,123.496,213.59,115.632,206.107L115.632,206.107z"/>
	<path fill="#D40000" d="M157.766,197.332c3.254-3.172,5.387-6.633,7.43-9.957c1.793,3.66,4.359,6.863,7.141,9.957
		c-2.973,3.068-5.277,6.354-7.133,9.805C163.152,203.602,160.988,200.395,157.766,197.332L157.766,197.332z"/>
	<path fill="#D40000" d="M6.715,51.648c3.25-3.175,5.386-6.632,7.429-9.961c1.789,3.661,4.36,6.864,7.137,9.961
		c-2.973,3.071-5.277,6.352-7.129,9.805C12.097,57.914,9.937,54.711,6.715,51.648L6.715,51.648z"/>
	<path fill="#D40000" d="M9.871,37.211c1.707-8.871,3.527-15.527,8.304-22.758H8.468v3.109H5.886v-5.863h14.207l1.75,2.754
		c-5.074,5.438-9.718,23.012-8.898,22.758H9.871z"/>
	<path fill="#D40000" d="M168.707,212.242C167,221.113,165.18,227.77,160.402,235h9.707v-3.113h2.582v5.867h-14.203l-1.75-2.754
		c5.074-5.438,9.719-23.018,8.895-22.758H168.707z"/>
</g>
</svg>
