<?xml version="1.0" encoding="utf-8"?>
<!-- Generator: Adobe Illustrator 15.0.0, SVG Export Plug-In . SVG Version: 6.00 Build 0)  -->
<!DOCTYPE svg PUBLIC "-//W3C//DTD SVG 1.1//EN" "http://www.w3.org/Graphics/SVG/1.1/DTD/svg11.dtd">
<svg version="1.1" id="Layer_1" xmlns="http://www.w3.org/2000/svg" xmlns:xlink="http://www.w3.org/1999/xlink" x="0px" y="0px"
	 width="178.582px" height="249.449px" viewBox="0 0 178.582 249.449" enable-background="new 0 0 178.582 249.449"
	 xml:space="preserve">
<g>
	<path fill="#FFFFFF" d="M8.504,0"/>
	<path fill="#D40000" d="M25.906,45.297c7.937-7.746,13.148-16.192,18.133-24.313c4.371,8.938,10.645,16.754,17.429,24.313
		c-7.257,7.496-12.882,15.508-17.406,23.933C39.047,60.594,33.769,52.773,25.906,45.297L25.906,45.297z M25.906,45.297"/>
	<path fill="#D40000" d="M25.906,125.496c7.937-7.746,13.148-16.191,18.133-24.312c4.371,8.937,10.645,16.753,17.429,24.312
		c-7.257,7.496-12.882,15.508-17.406,23.934C39.047,140.793,33.769,132.973,25.906,125.496L25.906,125.496z M25.906,125.496"/>
	<path fill="#D40000" d="M25.906,204.375c7.937-7.746,13.148-16.191,18.133-24.313c4.371,8.938,10.645,16.754,17.429,24.313
		c-7.257,7.496-12.882,15.508-17.406,23.934C39.047,219.672,33.769,211.852,25.906,204.375L25.906,204.375z M25.906,204.375"/>
	<path fill="#D40000" d="M70.851,85.395C78.789,77.652,84,69.207,88.984,61.086c4.371,8.934,10.645,16.754,17.43,24.309
		c-7.258,7.496-12.883,15.511-17.407,23.937C83.992,100.695,78.715,92.875,70.851,85.395L70.851,85.395z M70.851,85.395"/>
	<path fill="#D40000" d="M115.132,45.297c7.934-7.746,13.148-16.192,18.133-24.313c4.371,8.938,10.645,16.754,17.43,24.313
		c-7.258,7.496-12.887,15.508-17.406,23.933C128.273,60.594,122.996,52.773,115.132,45.297L115.132,45.297z M115.132,45.297"/>
	<path fill="#D40000" d="M115.132,125.496c7.934-7.746,13.148-16.191,18.133-24.312c4.371,8.937,10.645,16.753,17.43,24.312
		c-7.258,7.496-12.887,15.508-17.406,23.934C128.273,140.793,122.996,132.973,115.132,125.496L115.132,125.496z M115.132,125.496"/>
	<path fill="#D40000" d="M115.132,204.375c7.934-7.746,13.148-16.191,18.133-24.313c4.371,8.938,10.645,16.754,17.43,24.313
		c-7.258,7.496-12.887,15.508-17.406,23.934C128.273,219.672,122.996,211.852,115.132,204.375L115.132,204.375z M115.132,204.375"/>
	<path fill="#D40000" d="M70.851,164.934c7.938-7.743,13.149-16.188,18.133-24.309c4.371,8.934,10.645,16.754,17.43,24.309
		c-7.258,7.496-12.883,15.512-17.407,23.938C83.992,180.233,78.715,172.414,70.851,164.934L70.851,164.934z M70.851,164.934"/>
	<path fill="#D40000" d="M158.371,201.094c3.25-3.172,5.387-6.633,7.43-9.961c1.789,3.66,4.359,6.863,7.137,9.961
		c-2.973,3.07-5.277,6.352-7.129,9.804C163.753,207.358,161.589,204.156,158.371,201.094L158.371,201.094z M158.371,201.094"/>
	<path fill="#D40000" d="M7.316,52.406c3.254-3.172,5.387-6.633,7.43-9.957c1.793,3.66,4.359,6.863,7.14,9.957
		c-2.972,3.071-5.277,6.356-7.132,9.805C12.703,58.672,10.539,55.469,7.316,52.406L7.316,52.406z M7.316,52.406"/>
	<path fill="#D40000" d="M5.472,30.043c0.129-3.5,1.418-4.816,3.957-6.648c-2.027-1.438-2.879-3.551-2.707-5.352
		c0.418-4.356,3.848-6.535,7.59-6.441c3.738,0.093,6.961,3.011,7.215,6.179c0.219,2.754-0.617,4.082-2.605,5.531
		c2.359,1.954,3.871,3.239,3.812,6.688c-0.055,3.449-3.043,7.551-8.25,7.676C9.277,37.805,5.347,33.543,5.472,30.043L5.472,30.043z
		 M20.011,30.055c0.223-3.172-2.629-5.309-5.851-5.344c-3.137-0.031-5.945,2.598-5.945,5.445c0,3.055,3.652,4.715,6.007,4.727
		C17.09,34.891,19.82,32.785,20.011,30.055L20.011,30.055z M18.98,18.715c0.063-2.672-2.445-4.582-5.031-4.508
		c-2.301,0.07-4.734,1.793-4.738,4.027c0,2.789,2.769,4.184,5.136,4.239C16.492,22.52,18.933,20.73,18.98,18.715L18.98,18.715z
		 M18.98,18.715"/>
	<path fill="#D40000" d="M173.105,219.41c-0.129,3.5-1.414,4.816-3.953,6.648c2.023,1.434,2.879,3.546,2.703,5.348
		c-0.414,4.359-3.848,6.539-7.586,6.445c-3.742-0.098-6.965-3.012-7.215-6.18c-0.219-2.754,0.617-4.082,2.605-5.531
		c-2.363-1.954-3.871-3.239-3.816-6.688c0.059-3.449,3.047-7.552,8.254-7.681C169.304,211.647,173.234,215.91,173.105,219.41
		L173.105,219.41z M158.57,219.397c-0.227,3.173,2.629,5.31,5.848,5.345c3.141,0.03,5.945-2.598,5.945-5.445
		c0-3.055-3.648-4.719-6.008-4.727C161.488,214.559,158.761,216.668,158.57,219.397L158.57,219.397z M159.597,230.738
		c-0.063,2.668,2.445,4.582,5.031,4.504c2.301-0.066,4.738-1.789,4.738-4.023c0.004-2.793-2.77-4.184-5.133-4.239
		C162.089,226.934,159.644,228.719,159.597,230.738L159.597,230.738z M159.597,230.738"/>
</g>
</svg>
