<?xml version="1.0" encoding="utf-8"?>
<!-- Generator: Adobe Illustrator 15.0.0, SVG Export Plug-In . SVG Version: 6.00 Build 0)  -->
<!DOCTYPE svg PUBLIC "-//W3C//DTD SVG 1.1//EN" "http://www.w3.org/Graphics/SVG/1.1/DTD/svg11.dtd">
<svg version="1.1" id="Layer_1" xmlns="http://www.w3.org/2000/svg" xmlns:xlink="http://www.w3.org/1999/xlink" x="0px" y="0px"
	 width="178.582px" height="249.449px" viewBox="0 0 178.582 249.449" enable-background="new 0 0 178.582 249.449"
	 xml:space="preserve">
<g>
	<path fill="#FFFFFF" d="M8.504,0"/>
	<path fill="#D40000" d="M71.394,124.832c7.934-7.746,13.149-16.191,18.133-24.312c4.371,8.937,10.645,16.753,17.43,24.312
		c-7.262,7.492-12.887,15.508-17.41,23.934C84.535,140.129,79.254,132.309,71.394,124.832L71.394,124.832z M71.394,124.832"/>
	<path fill="#D40000" d="M156.98,199.229c3.254-3.171,5.387-6.628,7.43-9.957c1.789,3.661,4.359,6.864,7.141,9.957
		c-2.973,3.071-5.277,6.356-7.133,9.806C162.363,205.5,160.203,202.293,156.98,199.229L156.98,199.229z M156.98,199.229"/>
	<path fill="#D40000" d="M6.277,50.684c3.25-3.176,5.387-6.633,7.43-9.961c1.789,3.66,4.359,6.863,7.14,9.961
		c-2.976,3.07-5.281,6.351-7.132,9.804C11.66,56.949,9.5,53.746,6.277,50.684L6.277,50.684z M6.277,50.684"/>
	<path fill="#D40000" d="M5.785,36.855v-2.191h2.129l4.531-23.418h2.582l4.992,23.418h1.719v2.191h-5.856v-2.191h1.583l-0.629-3.59
		h-5.911l-0.457,3.59h1.582v2.191H5.785z M16.328,28.523l-2.567-12.539l-2.406,12.539H16.328z M16.328,28.523"/>
	<path fill="#D40000" d="M172.792,212.598v2.191h-2.129l-4.531,23.414h-2.578l-4.996-23.414h-1.715v-2.191h5.852v2.191h-1.582
		l0.633,3.586h5.906l0.457-3.586h-1.582v-2.191H172.792z M162.25,220.93l2.566,12.539l2.406-12.539H162.25z M162.25,220.93"/>
</g>
</svg>
