<?xml version="1.0" encoding="utf-8"?>
<!-- Generator: Adobe Illustrator 15.0.0, SVG Export Plug-In . SVG Version: 6.00 Build 0)  -->
<!DOCTYPE svg PUBLIC "-//W3C//DTD SVG 1.1//EN" "http://www.w3.org/Graphics/SVG/1.1/DTD/svg11.dtd">
<svg version="1.1" id="Layer_1" xmlns="http://www.w3.org/2000/svg" xmlns:xlink="http://www.w3.org/1999/xlink" x="0px" y="0px"
	 width="178.582px" height="249.449px" viewBox="0 0 178.582 249.449" enable-background="new 0 0 178.582 249.449"
	 xml:space="preserve">
<g>
	<path fill="#FFFFFF" d="M8.504,0"/>
	<path fill="#D40000" d="M71.394,124.832c7.934-7.746,13.149-16.191,18.133-24.312c4.372,8.937,10.645,16.753,17.43,24.312
		c-7.262,7.492-12.887,15.508-17.41,23.934C84.535,140.129,79.254,132.309,71.394,124.832L71.394,124.832z"/>
	<path fill="#D40000" d="M159.748,204.33c3.254-3.17,5.387-6.627,7.43-9.957c1.789,3.662,4.359,6.864,7.141,9.957
		c-2.973,3.071-5.277,6.356-7.133,9.807C165.131,210.602,162.971,207.395,159.748,204.33L159.748,204.33z"/>
	<path fill="#D40000" d="M4.624,46.449c3.25-3.176,5.387-6.633,7.43-9.961c1.789,3.66,4.359,6.863,7.14,9.961
		c-2.976,3.07-5.281,6.351-7.132,9.804C10.007,52.714,7.847,49.511,4.624,46.449L4.624,46.449z"/>
	<path fill="#D40000" d="M3.933,33.18v-2.191h2.129l4.531-23.418h2.582l4.992,23.418h1.719v2.191H14.03v-2.191h1.583l-0.629-3.59
		H9.073l-0.457,3.59h1.582v2.191H3.933z M14.476,24.848l-2.567-12.539L9.503,24.848H14.476z"/>
	<path fill="#D40000" d="M174.637,217.03v2.191h-2.129l-4.531,23.414h-2.577l-4.996-23.414h-1.716v-2.191h5.853v2.191h-1.582
		l0.633,3.586h5.906l0.457-3.586h-1.582v-2.191H174.637z M164.095,225.362l2.566,12.539l2.406-12.539H164.095z"/>
</g>
</svg>
