<?xml version="1.0" encoding="utf-8"?>
<!-- Generator: Adobe Illustrator 15.0.0, SVG Export Plug-In . SVG Version: 6.00 Build 0)  -->
<!DOCTYPE svg PUBLIC "-//W3C//DTD SVG 1.1//EN" "http://www.w3.org/Graphics/SVG/1.1/DTD/svg11.dtd">
<svg version="1.1" id="Layer_1" xmlns="http://www.w3.org/2000/svg" xmlns:xlink="http://www.w3.org/1999/xlink" x="0px" y="0px"
	 width="178.582px" height="249.449px" viewBox="0 0 178.582 249.449" enable-background="new 0 0 178.582 249.449"
	 xml:space="preserve">
<g>
	<path fill="#FFFFFF" d="M8.504,0"/>
	<path fill="#D40000" d="M71.59,45.559c7.937-7.743,13.148-16.188,18.132-24.309c4.371,8.934,10.645,16.754,17.43,24.309
		C99.895,53.055,94.27,61.07,89.746,69.496C84.73,60.859,79.453,53.035,71.59,45.559L71.59,45.559z"/>
	<path fill="#D40000" d="M71.59,204.604c7.937-7.746,13.148-16.187,18.132-24.308c4.371,8.933,10.645,16.754,17.43,24.308
		c-7.258,7.498-12.883,15.515-17.406,23.937C84.73,219.9,79.453,212.082,71.59,204.604L71.59,204.604z"/>
	<path fill="#D40000" d="M159.758,204.494c3.254-3.174,5.387-6.635,7.43-9.957c1.789,3.658,4.359,6.861,7.141,9.957
		c-2.973,3.07-5.275,6.352-7.133,9.805C165.144,210.76,162.979,207.557,159.758,204.494L159.758,204.494z"/>
	<path fill="#D40000" d="M4.244,46.449c3.25-3.176,5.383-6.633,7.426-9.961c1.793,3.66,4.363,6.863,7.14,9.961
		c-2.972,3.07-5.277,6.351-7.132,9.804C9.627,52.714,7.463,49.511,4.244,46.449L4.244,46.449z"/>
	<path fill="#D40000" d="M3.933,33.125l0.129-1.617c0.41-4.992,1.5-6.675,7.699-11.883c3.008-2.527,3.996-3.773,4.133-5.222
		c0.395-3.406-2.68-4.473-4.684-4.488c-2.593-0.028-5.527,1.527-4.128,5.128l-2.911,0.856C3.585,12.54,4.187,9.383,6.914,7.985
		c3.636-1.824,8.304-1.11,10.66,1.765c1.582,1.93,1.941,4.598,1.093,6.684C16.187,21.77,7.769,24.118,7.074,30.29h9.304v-3.438
		h2.743v6.328L3.933,33.125z"/>
	<path fill="#D40000" d="M174.637,217.083l-0.134,1.617c-0.405,4.988-1.5,6.676-7.694,11.883c-3.008,2.527-3.996,3.773-4.138,5.219
		c-0.391,3.41,2.685,4.475,4.685,4.492c2.595,0.023,5.527-1.525,4.13-5.129l2.909-0.854c0.591,3.357-0.012,6.512-2.737,7.914
		c-3.638,1.822-8.306,1.107-10.66-1.768c-1.582-1.93-1.94-4.598-1.094-6.684c2.479-5.34,10.896-7.688,11.594-13.855h-9.31v3.436
		h-2.737v-6.324L174.637,217.083z"/>
</g>
</svg>
