<?xml version="1.0" encoding="utf-8"?>
<!-- Generator: Adobe Illustrator 15.0.0, SVG Export Plug-In . SVG Version: 6.00 Build 0)  -->
<!DOCTYPE svg PUBLIC "-//W3C//DTD SVG 1.1//EN" "http://www.w3.org/Graphics/SVG/1.1/DTD/svg11.dtd">
<svg version="1.1" id="Layer_1" xmlns="http://www.w3.org/2000/svg" xmlns:xlink="http://www.w3.org/1999/xlink" x="0px" y="0px"
	 width="178.582px" height="249.449px" viewBox="0 0 178.582 249.449" enable-background="new 0 0 178.582 249.449"
	 xml:space="preserve">
<g>
	<path fill="#FFFFFF" d="M8.504,0"/>
	<path fill="#D40000" d="M27.007,45.879c7.938-7.746,13.149-16.192,18.133-24.313c4.371,8.938,10.645,16.754,17.43,24.313
		c-7.258,7.492-12.883,15.508-17.406,23.933C40.148,61.176,34.871,53.355,27.007,45.879L27.007,45.879z M27.007,45.879"/>
	<path fill="#D40000" d="M27.007,124.991c7.938-7.745,13.149-16.187,18.133-24.312c4.371,8.937,10.645,16.754,17.43,24.312
		c-7.258,7.497-12.883,15.509-17.406,23.935C40.148,140.289,34.871,132.469,27.007,124.991L27.007,124.991z M27.007,124.991"/>
	<path fill="#D40000" d="M27.007,203.871c7.938-7.746,13.149-16.188,18.133-24.313c4.371,8.938,10.645,16.753,17.43,24.313
		c-7.258,7.496-12.883,15.508-17.406,23.934C40.148,219.168,34.871,211.348,27.007,203.871L27.007,203.871z M27.007,203.871"/>
	<path fill="#D40000" d="M116.234,45.879c7.938-7.746,13.148-16.192,18.133-24.313c4.371,8.938,10.645,16.754,17.43,24.313
		c-7.258,7.492-12.883,15.508-17.406,23.933C129.375,61.176,124.097,53.355,116.234,45.879L116.234,45.879z M116.234,45.879"/>
	<path fill="#D40000" d="M116.234,124.991c7.938-7.745,13.148-16.187,18.133-24.312c4.371,8.937,10.645,16.754,17.43,24.312
		c-7.258,7.497-12.883,15.509-17.406,23.935C129.375,140.289,124.097,132.469,116.234,124.991L116.234,124.991z M116.234,124.991"/>
	<path fill="#D40000" d="M116.234,203.871c7.938-7.746,13.148-16.188,18.133-24.313c4.371,8.938,10.645,16.753,17.43,24.313
		c-7.258,7.496-12.883,15.508-17.406,23.934C129.375,219.168,124.097,211.348,116.234,203.871L116.234,203.871z M116.234,203.871"/>
	<path fill="#D40000" d="M157.625,198.266c3.25-3.176,5.387-6.633,7.43-9.961c1.789,3.66,4.359,6.863,7.137,9.961
		c-2.973,3.07-5.277,6.352-7.129,9.805C163.007,204.531,160.847,201.328,157.625,198.266L157.625,198.266z M157.625,198.266"/>
	<path fill="#D40000" d="M6.574,49.578c3.25-3.172,5.387-6.633,7.426-9.957c1.793,3.66,4.363,6.859,7.14,9.957
		c-2.972,3.07-5.277,6.352-7.129,9.805C11.957,55.844,9.793,52.641,6.574,49.578L6.574,49.578z M6.574,49.578"/>
	<path fill="#D40000" d="M6.59,28.801c-0.325-2.196-0.321-7.875-0.051-9.551c0.82-5.145,2.824-7.496,6.176-8.27
		c3.257-0.746,7.832,0.086,8.835,4.387l-2.726,0.051c-1.469-2.906-5.195-2.129-7.289-0.867c-1.676,1.011-2.434,5.219-2.11,5.476
		c-0.003,0,3.168-2.3,5.661-2.132c5.336,0.546,7.535,5.085,7.347,9.375c-0.168,5.16-1.836,9.281-7.488,9.558
		C9.57,36.625,7.105,33.746,6.59,28.801L6.59,28.801z M19.847,27.437c0.028-3.578-1.629-6.257-4.761-6.554
		c-3.133-0.293-6.289,2.707-6.071,6.355c0.219,3.66,1.664,6.746,5.461,6.727C18.562,33.949,19.824,29.984,19.847,27.437
		L19.847,27.437z M19.847,27.437"/>
	<path fill="#D40000" d="M171.988,220.647c0.328,2.2,0.324,7.879,0.055,9.556c-0.824,5.145-2.828,7.496-6.18,8.266
		c-3.254,0.75-7.832-0.082-8.836-4.383l2.727-0.051c1.473,2.905,5.195,2.129,7.293,0.862c1.676-1.007,2.43-5.214,2.105-5.472
		c0.004,0-3.164,2.301-5.66,2.133c-5.332-0.547-7.531-5.086-7.348-9.375c0.168-5.161,1.836-9.286,7.488-9.559
		C169.007,212.828,171.472,215.707,171.988,220.647L171.988,220.647z M158.734,222.016c-0.031,3.578,1.625,6.257,4.758,6.55
		c3.133,0.298,6.293-2.702,6.074-6.351c-0.223-3.66-1.664-6.746-5.461-6.731C160.019,215.504,158.753,219.469,158.734,222.016
		L158.734,222.016z M158.734,222.016"/>
</g>
</svg>
