<?xml version="1.0" encoding="utf-8"?>
<!-- Generator: Adobe Illustrator 15.0.0, SVG Export Plug-In . SVG Version: 6.00 Build 0)  -->
<!DOCTYPE svg PUBLIC "-//W3C//DTD SVG 1.1//EN" "http://www.w3.org/Graphics/SVG/1.1/DTD/svg11.dtd">
<svg version="1.1" id="Layer_1" xmlns="http://www.w3.org/2000/svg" xmlns:xlink="http://www.w3.org/1999/xlink" x="0px" y="0px"
	 width="178.582px" height="249.449px" viewBox="0 0 178.582 249.449" enable-background="new 0 0 178.582 249.449"
	 xml:space="preserve">
<g>
	<path fill="#FFFFFF" d="M8.504,0"/>
	<path fill="#D40000" d="M26.14,46.129c7.934-7.746,13.149-16.192,18.133-24.313c4.371,8.938,10.645,16.754,17.43,24.313
		c-7.262,7.492-12.887,15.508-17.41,23.933C39.281,61.426,34,53.605,26.14,46.129L26.14,46.129z M26.14,46.129"/>
	<path fill="#D40000" d="M26.14,98.391c7.934-7.743,13.149-16.188,18.133-24.309c4.371,8.934,10.645,16.754,17.43,24.309
		c-7.262,7.496-12.887,15.511-17.41,23.938C39.281,113.691,34,105.871,26.14,98.391L26.14,98.391z M26.14,98.391"/>
	<path fill="#D40000" d="M26.14,151.91c7.934-7.746,13.149-16.191,18.133-24.313c4.371,8.938,10.645,16.754,17.43,24.313
		c-7.262,7.496-12.887,15.508-17.41,23.934C39.281,167.207,34,159.387,26.14,151.91L26.14,151.91z M26.14,151.91"/>
	<path fill="#D40000" d="M26.14,203.996c7.934-7.746,13.149-16.191,18.133-24.313c4.371,8.934,10.645,16.753,17.43,24.313
		c-7.262,7.492-12.887,15.508-17.41,23.934C39.281,219.293,34,211.473,26.14,203.996L26.14,203.996z M26.14,203.996"/>
	<path fill="#D40000" d="M71.293,124.901c7.937-7.746,13.148-16.19,18.136-24.312c4.371,8.937,10.645,16.754,17.426,24.312
		c-7.258,7.496-12.883,15.509-17.406,23.935C84.433,140.199,79.156,132.379,71.293,124.901L71.293,124.901z M71.293,124.901"/>
	<path fill="#D40000" d="M115.363,46.129c7.938-7.746,13.152-16.192,18.137-24.313c4.371,8.938,10.645,16.754,17.426,24.313
		c-7.258,7.492-12.883,15.508-17.406,23.933C128.507,61.426,123.226,53.605,115.363,46.129L115.363,46.129z M115.363,46.129"/>
	<path fill="#D40000" d="M115.363,98.391c7.938-7.743,13.152-16.188,18.137-24.309c4.371,8.934,10.645,16.754,17.426,24.309
		c-7.258,7.496-12.883,15.511-17.406,23.938C128.507,113.691,123.226,105.871,115.363,98.391L115.363,98.391z M115.363,98.391"/>
	<path fill="#D40000" d="M115.363,151.91c7.938-7.746,13.152-16.191,18.137-24.313c4.371,8.938,10.645,16.754,17.426,24.313
		c-7.258,7.496-12.883,15.508-17.406,23.934C128.507,167.207,123.226,159.387,115.363,151.91L115.363,151.91z M115.363,151.91"/>
	<path fill="#D40000" d="M115.363,203.996c7.938-7.746,13.152-16.191,18.137-24.313c4.371,8.934,10.645,16.753,17.426,24.313
		c-7.258,7.492-12.883,15.508-17.406,23.934C128.507,219.293,123.226,211.473,115.363,203.996L115.363,203.996z M115.363,203.996"/>
	<path fill="#D40000" d="M157.57,197.426c3.254-3.172,5.387-6.633,7.43-9.961c1.789,3.66,4.359,6.863,7.141,9.961
		c-2.973,3.07-5.277,6.351-7.133,9.804C162.953,203.69,160.792,200.488,157.57,197.426L157.57,197.426z M157.57,197.426"/>
	<path fill="#D40000" d="M6.519,48.738c3.25-3.172,5.387-6.633,7.43-9.957c1.789,3.66,4.359,6.864,7.137,9.957
		c-2.973,3.071-5.278,6.356-7.129,9.805C11.902,55.004,9.742,51.801,6.519,48.738L6.519,48.738z M6.519,48.738"/>
	<path fill="#D40000" d="M6.621,31.48l2.418-0.75c0.914,2.395,2.761,3.102,4.715,2.95c3.503-0.274,4.668-4.118,4.933-7.52
		c-1.367,1.418-3.422,2.141-5.168,2.07c-5.586-0.296-7.015-4.683-7.07-9.281c-0.152-3.875,1.48-6.683,4.281-7.969
		c1.481-0.656,4.875-0.656,6.367,0.118c3.426,1.773,4.692,4.839,4.461,12.152c0.004,6.02-1.297,13.031-7.867,13.18
		C9.89,36.945,7.007,34.047,6.621,31.48L6.621,31.48z M16.129,24.887c1.14-0.707,1.785-1.371,2.293-2.367
		c0.421-0.821,0.562-1.247,0.441-2.938c-0.305-4.363-2.637-6.84-6.02-6.348c-1.882,0.274-2.914,1.313-3.503,3.239
		c-1.094,3.558,0.292,7.726,2.886,8.688C13.394,25.59,15.199,25.465,16.129,24.887L16.129,24.887z M16.129,24.887"/>
	<path fill="#D40000" d="M171.449,217.969l-2.422,0.754c-0.914-2.395-2.762-3.102-4.715-2.95c-3.504,0.274-4.668,4.118-4.93,7.521
		c1.363-1.422,3.418-2.141,5.168-2.07c5.586,0.293,7.016,4.684,7.066,9.281c0.156,3.875-1.48,6.683-4.277,7.969
		c-1.484,0.652-4.879,0.652-6.371-0.118c-3.426-1.772-4.691-4.839-4.461-12.151c-0.004-6.02,1.297-13.031,7.867-13.181
		C168.175,212.508,171.058,215.406,171.449,217.969L171.449,217.969z M161.937,224.565c-1.141,0.707-1.781,1.371-2.293,2.368
		c-0.418,0.82-0.563,1.242-0.441,2.938c0.309,4.362,2.641,6.84,6.02,6.348c1.883-0.273,2.914-1.313,3.504-3.239
		c1.094-3.558-0.289-7.726-2.887-8.687C164.671,223.858,162.871,223.983,161.937,224.565L161.937,224.565z M161.937,224.565"/>
</g>
</svg>
