<?xml version="1.0" encoding="utf-8"?>
<!-- Generator: Adobe Illustrator 15.0.0, SVG Export Plug-In . SVG Version: 6.00 Build 0)  -->
<!DOCTYPE svg PUBLIC "-//W3C//DTD SVG 1.1//EN" "http://www.w3.org/Graphics/SVG/1.1/DTD/svg11.dtd">
<svg version="1.1" id="Layer_1" xmlns="http://www.w3.org/2000/svg" xmlns:xlink="http://www.w3.org/1999/xlink" x="0px" y="0px"
	 width="178.582px" height="249.449px" viewBox="0 0 178.582 249.449" enable-background="new 0 0 178.582 249.449"
	 xml:space="preserve">
<g>
	<path fill="#FFFFFF" d="M8.504,0"/>
	<path fill="#D40000" d="M26.877,46.048c7.938-7.746,13.148-16.192,18.137-24.313c4.371,8.938,10.645,16.754,17.426,24.313
		c-7.258,7.492-12.883,15.507-17.407,23.933C40.019,61.345,34.741,53.524,26.877,46.048L26.877,46.048z"/>
	<path fill="#D40000" d="M26.877,98.309c7.938-7.742,13.148-16.187,18.137-24.308c4.371,8.933,10.645,16.754,17.426,24.308
		c-7.258,7.496-12.883,15.512-17.407,23.934C40.019,113.61,34.741,105.786,26.877,98.309L26.877,98.309z"/>
	<path fill="#D40000" d="M26.877,151.829c7.938-7.746,13.148-16.191,18.137-24.313c4.371,8.938,10.645,16.754,17.426,24.313
		c-7.258,7.492-12.883,15.508-17.407,23.934C40.019,167.126,34.741,159.304,26.877,151.829L26.877,151.829z"/>
	<path fill="#D40000" d="M26.877,203.911c7.938-7.742,13.148-16.188,18.137-24.311c4.371,8.936,10.645,16.756,17.426,24.311
		c-7.258,7.496-12.883,15.512-17.407,23.938C40.019,219.212,34.741,211.388,26.877,203.911L26.877,203.911z"/>
	<path fill="#D40000" d="M71.827,73.536c7.934-7.742,13.149-16.188,18.133-24.309c4.371,8.934,10.645,16.754,17.43,24.309
		c-7.262,7.496-12.887,15.512-17.41,23.934C84.968,88.833,79.687,81.012,71.827,73.536L71.827,73.536z"/>
	<path fill="#D40000" d="M71.452,176.212c7.938-7.746,13.149-16.191,18.133-24.313c4.371,8.938,10.645,16.754,17.43,24.313
		c-7.258,7.492-12.883,15.508-17.407,23.934C84.593,191.509,79.315,183.688,71.452,176.212L71.452,176.212z"/>
	<path fill="#D40000" d="M116.104,46.048c7.938-7.746,13.147-16.192,18.134-24.313c4.375,8.938,10.645,16.754,17.43,24.313
		c-7.258,7.492-12.883,15.507-17.406,23.933C129.245,61.345,123.968,53.524,116.104,46.048L116.104,46.048z"/>
	<path fill="#D40000" d="M116.104,98.309c7.938-7.742,13.147-16.187,18.134-24.308c4.375,8.933,10.645,16.754,17.43,24.308
		c-7.258,7.496-12.883,15.512-17.406,23.934C129.245,113.61,123.968,105.786,116.104,98.309L116.104,98.309z"/>
	<path fill="#D40000" d="M116.104,151.829c7.938-7.746,13.147-16.191,18.134-24.313c4.375,8.938,10.645,16.754,17.43,24.313
		c-7.258,7.492-12.883,15.508-17.406,23.934C129.245,167.126,123.968,159.304,116.104,151.829L116.104,151.829z"/>
	<path fill="#D40000" d="M116.104,203.911c7.938-7.742,13.147-16.188,18.134-24.311c4.375,8.936,10.645,16.756,17.43,24.311
		c-7.258,7.496-12.883,15.512-17.406,23.938C129.245,219.212,123.968,211.388,116.104,203.911L116.104,203.911z"/>
	<path fill="#D40000" d="M159.523,203.875c3.254-3.172,5.387-6.629,7.43-9.957c1.789,3.66,4.359,6.863,7.141,9.957
		c-2.977,3.07-5.281,6.354-7.133,9.805C164.906,210.145,162.746,206.939,159.523,203.875L159.523,203.875z"/>
	<path fill="#D40000" d="M4.472,46.191c3.25-3.171,5.387-6.632,7.43-9.961c1.789,3.661,4.359,6.864,7.137,9.961
		c-2.973,3.071-5.278,6.352-7.129,9.805C9.855,52.457,7.691,49.254,4.472,46.191L4.472,46.191z"/>
	<path fill="#D40000" d="M4.101,33.277V8.07H6.59v25.207H4.101z"/>
	<path fill="#D40000" d="M13.965,8.07c-2.395,0-4.321,2.153-4.321,4.821v15.57c0,2.668,1.926,4.816,4.321,4.816h1.394
		c2.398,0,4.328-2.148,4.328-4.816v-15.57c0-2.668-1.93-4.821-4.328-4.821H13.965z M14.687,10.453c1.414,0,2.551,1.07,2.551,2.402
		v15.778c0,1.332-1.137,2.406-2.551,2.406c-1.418,0-2.555-1.074-2.555-2.406V12.855C12.132,11.523,13.269,10.453,14.687,10.453
		L14.687,10.453z"/>
	<path fill="#D40000" d="M174.48,217.176v25.203h-2.492v-25.203H174.48z"/>
	<path fill="#D40000" d="M164.613,242.379c2.398,0,4.324-2.148,4.324-4.816v-15.569c0-2.668-1.926-4.816-4.324-4.816h-1.396
		c-2.395,0-4.323,2.148-4.323,4.816v15.569c0,2.668,1.93,4.816,4.323,4.816H164.613z M163.895,239.996
		c-1.414,0-2.556-1.066-2.556-2.398V221.82c0-1.332,1.142-2.406,2.556-2.406s2.555,1.074,2.555,2.406v15.777
		C166.449,238.93,165.309,239.996,163.895,239.996L163.895,239.996z"/>
</g>
</svg>
