<?xml version="1.0" encoding="utf-8"?>
<!-- Generator: Adobe Illustrator 15.0.0, SVG Export Plug-In . SVG Version: 6.00 Build 0)  -->
<!DOCTYPE svg PUBLIC "-//W3C//DTD SVG 1.1//EN" "http://www.w3.org/Graphics/SVG/1.1/DTD/svg11.dtd">
<svg version="1.1" id="Layer_1" xmlns="http://www.w3.org/2000/svg" xmlns:xlink="http://www.w3.org/1999/xlink" x="0px" y="0px"
	 width="178.582px" height="249.449px" viewBox="0 0 178.582 249.449" enable-background="new 0 0 178.582 249.449"
	 xml:space="preserve">
<g>
	<path fill="#FFFFFF" d="M8.504,0"/>
	<path fill="#131F67" d="M24.769,230.41L24.363,20.008l130.504,0.246l0.164,210.074L24.769,230.41z M71.554,55.09
		c-4.668-1.274-4.554,3.363-1.136,3.535c3.828,0.328,5.468-6.195,3.64-8.77C74.058,49.855,72.468,54.773,71.554,55.09L71.554,55.09z
		 M41.269,81.297l-5.605,2.504l-0.024,4.183C37.98,86.125,39.804,83.855,41.269,81.297L41.269,81.297z M79.527,207.022
		c-1.102-0.554-2.434-1.75-2.227-1.961c0.098-0.104,0.696,0.086,1.239,0.329c4.383,1.848,7.781,1.727,13.003-0.168
		c0.398-0.145,0.988,0.609,0.766,1.023C89.996,209.668,82.511,208.449,79.527,207.022L79.527,207.022z M77.218,201.891
		c-1.007-1.512,0.329-0.364,0.778,0.063c3.238,3.016,7.629,4.035,11.398,1.194c0.176-0.194,0.199-0.375,0.148-0.511
		c-0.105-0.278-0.109,0.02-1.719,0.578c-3.621,1.355-6.668,0.242-9.641-2.031c-1.226-0.945-1.797-1.411-1.797-1.657
		c0-0.226,0.231-0.366,0.641-0.297c0.258,0.043,0.969,0.192,1.488,0.235c0.907,0.074,0.836,0.035,1.766-0.395
		c1.98-0.914,3.809-1.25,5.879-0.88c0.48,0.087,1.082,0.246,1.164,0.22c0.465-0.156-0.219-0.766-1.977-2.156
		c-0.343-0.277-0.773-0.512-0.918-0.746c-0.218-0.371,0.02-0.469,0.274-0.465c0.719,0.008,3.965,2.719,5.074,4.328
		c0.34,0.487,0.574,0.543,0.574,1.051c-0.063,0.527-0.148,1.035,0.422,1.777c0.41,0.53,0.809,1.383,0.813,1.426
		c0.004,0.047-0.082,0.312-0.457,0.065c-0.172-0.034-0.254-0.214-0.57-0.171c-0.27,0.039-0.715,0.253-1.203,0.484
		C84.812,206.926,80.625,205.5,77.218,201.891L77.218,201.891z M87.175,201.687c0.09,0.009-0.316-1.671-0.773-2.167
		c-0.902-0.977-2.277-1.152-3.109-0.152c-0.469,0.563-0.981,2.129-0.981,2.129s0.727,0.215,0.93,0.215
		c0.031-0.353,0.031-1.336,0.754-1.91c0.359-0.281,1.125-0.274,1.422-0.039c0.593,0.293,0.843,1.468,0.851,1.925
		C86.593,201.789,87.343,201.699,87.175,201.687L87.175,201.687z M81.679,199.266c-0.64,0.285-1.472,0.48-1.664,0.906
		c-0.254,0.566,0.637,0.738,1.102,0.93c0.64,0.309,0.652,0.195,0.859-0.297c0.129-0.309,0.301-0.711,0.465-1.082
		C82.918,198.797,82.441,198.926,81.679,199.266L81.679,199.266z M88.613,200.875c0.371-0.371,0.437-0.613,0.109-1.031
		c-0.148-0.192-0.574-0.383-1.035-0.539c-0.594-0.2-0.855-0.441-0.48,0.363l0.531,1.147
		C88.011,201.367,88.254,201.219,88.613,200.875L88.613,200.875z M27.976,161.633c0.227,0,2.461-0.735,3.258-1.09
		c0.789-0.301,0.883-0.293,0.57-0.728c-0.117-0.163-0.214-0.625-0.156-1.132l0.059-0.704c-1.379-0.28-3.438,0.481-4.145,1.446
		C27.058,160.043,27.109,161.414,27.976,161.633L27.976,161.633z M27.695,165.07c0.418,0.422,0.535,0.434,1.793-0.031
		c0.437-0.293,1.359-0.664,2.004-0.703c1.515-0.406,1.515-0.246,1.086-1.215c-0.196-0.445-0.262-0.816-0.199-1.227
		c0.074-0.493,0.132-0.559-0.145-0.645c-0.723-0.228-4.094,1.035-4.695,2.016C27.113,163.953,27.168,164.547,27.695,165.07
		L27.695,165.07z M106.828,194.84c-0.219,0.328-0.602,0.914-0.762,1.305c-0.277,0.684-0.109,0.813,0.004,2.148
		c0.063,0.772,0.078,1.977,0.082,2.625c0.004,1.233-0.016,1.621,0.363,1.69c0.332,0.067,0.488-0.183,0.645-0.832
		c0.082-0.319,0.273-0.655,0.332-0.858c0.238-1.396,0.676-3.719,1.68-4.695c0.141-0.114,0.547-0.188,1.289-0.195
		c0.906-0.012,1.195-0.039,1.477-0.246c1.586-1.391,0.336-3.184-1.078-3.309C109.218,192.328,106.96,194.594,106.828,194.84
		L106.828,194.84z M113.125,194.258c0.102,1.597-1.488,2.683-3.105,2.316c-0.656-0.168-0.855-0.016-1.293,0.918
		c-0.953,2.566-1.332,5.141-1.586,6.828c-0.109,1.516-0.664,5.456-0.262,6.715c4.609,5.698,9.465,11.578,14.777,17.444l31.609,0.043
		l0.191-37.214l-9.18-8.68l0.016-13.766c-9.824,4.629-19.625,9.323-29.434,13.995c2.141,6.856-5.109,8.294-6.699,3.7
		c-1.375,1.257-2.5,8.066-1.996,8.402c0,0,0.184,0.246,0.488-0.297c0.5-0.892,1.156-1.547,1.859-1.98
		C110.554,191.418,112.984,192.043,113.125,194.258L113.125,194.258z M87.968,193.562c-1.55-1.229-0.722-3.112,0.567-3.675
		c0.684-0.301,1.781-0.258,2.988,0.168c1.059,0.484,1.691,0.418,2.777,0.285c0.719-0.082,0.586,1.426-0.168,1.816
		c-0.527,0.273-1.746,0.145-3.223-0.699c-2.555-1.453-3.676,0.434-2.094,2.133C89.691,194.527,88.191,193.777,87.968,193.562
		L87.968,193.562z M35.425,171.022c1.364-0.875,0.797-2.425-0.472-2.683c-1.711,0.035-2.149,2-0.922,2.68
		c0,0.238-0.609,0.042-0.938-0.204c-0.511-0.382-0.046-1.875-0.519-1.933c-0.363,0.004-3.899,1.254-4.277,1.504
		c-1.59,0.902-0.098,2.938,0.824,2.703C31.035,172.604,33.636,172.176,35.425,171.022L35.425,171.022z M27.527,168.117
		c0.031,0.905,0.285,1.309,0.879,1.316c1.246-0.215,2.402-0.809,3.562-1.184c0.907-0.297,1.278-0.629,0.586-1.199
		c-0.211-0.239-0.394-0.582-0.297-1.235c0.239-0.75,0.059-0.784-0.257-0.819c-0.317-0.039-1.039,0.266-2.891,0.977
		c-0.973,0.371-1.16,0.535-1.414,1.07C27.582,167.453,27.511,167.707,27.527,168.117L27.527,168.117z M37.832,179.812
		c0.215-0.253,0.687-1.832,0.687-2.222c-0.094-0.649-0.578-0.797-1.008-0.379c-0.519,0.469-0.379,1.172-0.687,1.711
		c-0.109,0.187-0.223,0.445-0.192,0.551C36.8,180.043,37.5,180.145,37.832,179.812L37.832,179.812z M41.886,171.215
		c15.84-16.871,25.653-40.215,8.485-72.41c-1.922-0.821-2.52,2.308-2.703,2.437l-2.192,1.91
		c11.621,20.039,9.602,43.086-4.605,59.477l0.015,1.043c0.032,2.289,0.692,2.187,1.653,1.117c1.019-1.074,0.34-0.199-0.078,0.242
		c-0.36,0.383-0.93,1.141-1.082,1.336C41.566,167.742,42.429,170.301,41.886,171.215L41.886,171.215z M40.836,166.145
		c-0.282-0.781-0.59-3.29-0.454-3.348c0,0-0.562-3.668-0.996-4.328c-0.359-0.551-1.246-0.957-2.234-1.02
		c-0.844-0.055-0.914-0.039-1.094,0.234c-0.308,0.473-0.097,2.855,0.215,3.73c0.356,1.022,0.149,1.582-0.141,2.598
		c-0.097,0.367-0.136,0.39,0.047,0.418c0.789-0.055,1.051-1.027,1.364-0.739c0.105,0.106-0.168,0.903-0.536,1.707
		c-0.39,0.849-0.507,2.017-0.042,3.454c0.257,0.805,0.148,1.059-0.008,1.543c-0.106,0.324-0.289,1.32-0.293,2.309
		c0.367,1.242,0.183,1.797-0.035,2.207c-0.469,1.051-0.836,2.477-0.582,3.276c0.113,0.353,0.402,0.052,0.617-0.55
		c0.332-1.188,0.718-1.453,1.695-1.453c0.711,0,0.777,0.25,1.012-0.07c0.535-0.719,1.84-3.277,1.863-3.992
		C41.738,170.305,41.761,168.742,40.836,166.145L40.836,166.145z M48.41,178.086c0.43-0.16,1.094-1.074,1.094-1.387
		c0-0.345-2.657-2.93-3.762-3.641c-0.504-0.325-0.742-0.094-1.625,1.098c-0.789,1.059-0.891,1.07-0.746,1.273
		c0.176,0.246,2.883,2.004,3.781,2.504C47.465,178.104,47.992,178.246,48.41,178.086L48.41,178.086z M53.386,173.492
		c-0.394-0.306-3.574-3.828-4.519-4.004c-0.356-0.066-1.508,1.241-1.508,1.539c0,0.202,1.984,2.223,3.391,3.452
		c0.402,0.349,0.847,0.638,0.988,0.638C52.183,174.887,53.332,173.961,53.386,173.492L53.386,173.492z M56.765,170.168
		c0-0.211-0.351-0.641-1.207-1.481c-2.179-2.14-3.394-3.121-3.777-3.116c-0.418,0.137-1.172,1.406-1.219,1.852
		c0.145,0.262,3.789,3.57,4.262,3.89C55.406,171.875,56.683,170.562,56.765,170.168L56.765,170.168z M60.183,166.75
		c0.094-0.313-0.09-0.582-0.551-1.023c-0.328-0.313-1.488-1.454-2.582-2.531c-2.293-2.259-2.3-2.262-3.035-1.203
		c-0.758,1.086-0.754,1.094,1.481,3.273c2.383,2.328,2.941,2.796,3.313,2.796C59.371,167.805,59.988,167.367,60.183,166.75
		L60.183,166.75z M34.625,164.711c-0.399-0.117-0.766-0.047-1.078,0.203c-1.692,1.438,0.707,3.285,1.691,2.133
		C35.894,166.397,35.867,165.008,34.625,164.711L34.625,164.711z M63.695,163.207c0-0.238-0.492-0.777-2.199-2.406
		c-4.215-4.023-4.024-3.871-4.492-3.621c-0.293,0.156-0.86,1.238-0.86,1.641c0,0.301,0.406,0.719,3.531,3.637
		c1.832,1.711,2.375,2.141,2.692,2.141C62.867,164.352,63.672,163.815,63.695,163.207L63.695,163.207z M34.734,163.358
		c0.828-0.358,0.981-1.257,0.512-1.964c-0.899-0.793-2.153-0.137-2.172,0.887C33.23,163.238,34.043,163.645,34.734,163.358
		L34.734,163.358z M67.16,159.828c0-0.48-7.223-7.23-7.735-7.23c-0.347,0-0.597,0.281-0.925,1.047
		c-0.285,0.664-0.258,1.055,0.101,1.398c0.52,0.504,1.914,1.785,3.235,2.983c0.785,0.707,1.683,1.556,2,1.88
		c0.742,0.762,1.562,1.352,1.875,1.352C66.156,160.996,66.777,160.645,67.16,159.828L67.16,159.828z M34.355,158.957
		c0.008-0.271-0.062-0.547-0.258-0.754c-0.492-0.527-1.414-0.25-1.644,0.449C32.242,160.297,34.289,160.367,34.355,158.957
		L34.355,158.957z M39.703,106.414l1.41-4.316l4.316-0.114l0.602-4.289l4.441-0.64l0.071-4.434l4.25-0.582l-0.266-4.746l3.941-0.934
		l-0.195-4.394l3.578-1.098l-0.144-3.828l0.617-0.48l-1.551-1.575l-1.332,0.434l-0.023,3.93L55.843,80.5l0.375,4.352l-3.613,0.824
		l-0.043,4.73l-4.152,0.465l-0.297,4.176l-4.047,0.797l-0.605,4.09l-3.93,0.265l-1.199,3.594l-2.594,0.031v2.406L39.703,106.414z
		 M86.64,183.652c-0.136-0.324,0.219-0.277,0.836,0.113c0.645,0.406,1.586,0.746,2.254,0.746c0.277,0,1.273-0.176,2.211-0.395
		c1.121-0.41,2.113-0.434,3.277-0.184c0.867,0.117,1.738,0.211,1.938,0.211c0.578,0.078,1.559-0.633,1.82-1.083
		c0.715-1.218,0.543,0.993,0.547,1.247c0.012,1.132,0.156,2.434-0.656,1.828c-0.48-0.246-1.32-0.469-1.988-0.02
		c-0.676,0.448-1.23,0.543-2.02,0.069c-0.648-0.253-0.992-0.308-1.477,0.142c-0.539,0.504-1.852,0.324-2.555,0.094
		c-1.203-0.203-1.879-0.375-2.688,0.262c-0.433,0.25-0.543,0.063-0.867-0.891C86.945,184.836,86.691,183.77,86.64,183.652
		L86.64,183.652z M89.71,182.852c-0.074-0.125,0.57-0.758,1.008-0.984c1.285-0.664,3.836-0.634,5.66,0.039
		c0.949,0.352,1.098,0.952,0.172,0.823c-1.926-0.401-4.34-0.733-6.199,0.153C90.207,182.961,89.75,182.91,89.71,182.852
		L89.71,182.852z M91.339,179.844c-1.316-0.489-1.961-1.008-1.961-1.172c0-0.18,0.281-0.145,1.316,0.137
		c1.41,0.523,3.074,0.796,4.465,0.313c1-0.371,1.5-0.605,1.5-0.383c0,0.234-0.414,0.848-1.098,1.198
		C94.191,180.496,92.386,180.229,91.339,179.844L91.339,179.844z M119.906,176.19l0.977-0.136l-0.34-4.075l3.598-1.065l-0.25-4.056
		l3.832-1.319l-0.227-4.563l3.984-0.786l0.52-3.991l3.762-0.266l0.777-4.344l4.039-0.141l0.836-3.609l2.688-0.02l-0.012-2.027
		l-4.188,0.016l-0.887,3.906l-3.953,0.113l-0.84,4.293l-4.145-0.031l-0.531,4.629l-3.895,0.636l0.004,4.985l-3.762,0.972
		l0.293,4.263l-3.758,1.371l0.426,4.063L119.906,176.19z M145.023,80.559c-0.539,0.382-0.742,1.14-0.574,1.757
		c0.527,1.399,2.391,0.961,2.613-0.054c0.109-0.442-0.184-1.106-0.691-1.25c-0.09-0.028-0.406,0.004-0.57-0.168
		c-0.117-0.121,0.621-0.5,1.059-0.36c0.547,0.184,0.992,0.903,0.992,1.528c0,0.242-0.066,0.601,0.02,0.722
		c0.902-0.023,1.934-0.519,2.898-0.785c1.633-0.453,2.223-1.39,1.863-2.488c-0.305-0.914-1.238-1.277-2.469-0.813
		C148.476,79.281,146.5,79.586,145.023,80.559L145.023,80.559z M75.32,180.617c5.527-3.888,8.785-6.105,15.879-6.488
		c-2.531-1.039-2.945-2.41-3.656-3.719c-8.789,0.832-13.457,3.641-17.633,6.258C71.636,177.479,73.437,178.426,75.32,180.617
		L75.32,180.617z M106.136,175.229c-2.68-1.894-5.871-3.043-9.18-3.925l-2.539,2.629C94.273,173.84,101.765,174.008,106.136,175.229
		L106.136,175.229z M131.878,150.297c-17.293-26.57-5.676-49.949,6.348-64.848c0.387-0.488,0.48-0.512,0.391-0.902
		c-0.113-0.512-0.254-3.094-0.168-4.586c-22.223,22.023-22.793,50.719-8.852,73.492
		C130.593,152.562,132.601,151.379,131.878,150.297L131.878,150.297z M134.472,148.022c-2.84-4.726-17.957-30.319,5.133-58.871
		c0,0-0.078-1.457-0.25-2.004c-0.313-0.98-0.793-1.375-0.793-1.375c-9.699,14.559-23.793,32.774-6.188,64.411L134.472,148.022z
		 M121.25,99.855c0.348-0.285,0.848-1.308,0.848-1.73c0-0.375-0.273-0.691-2.875-3.336c-3.473-3.523-4.074-4.062-4.52-4.062
		c-0.418,0-1.516,1.043-1.516,1.441c0,0.187,1.023,1.289,3.434,3.699C121.097,100.332,120.886,100.152,121.25,99.855L121.25,99.855z
		 M124.449,93.363c0-0.211-0.32-0.633-1.082-1.414c-2.008-2.066-4.871-4.687-5.121-4.687c-0.32,0-1.199,0.711-1.43,1.156
		c-0.16,0.312-0.156,0.383,0.031,0.68c0.355,0.554,4.836,4.804,6.109,5.875C123.718,95.676,124.414,93.898,124.449,93.363
		L124.449,93.363z M126.179,90.73c0.355-0.191,1.027-1.449,0.945-1.769c-0.035-0.152-1.172-1.375-2.523-2.719
		c-2.672-2.66-2.828-2.754-3.492-2.16c-0.605,0.539-0.98,1.082-0.906,1.297c0.09,0.266,4.09,4.332,4.906,4.992
		C125.753,90.891,125.832,90.914,126.179,90.73L126.179,90.73z M146.57,90.531c1.254-1.203-0.168-2.527-1.203-1.918
		c-0.438,0.274-0.699,0.867-0.566,1.262C145.023,90.527,145.91,90.883,146.57,90.531L146.57,90.531z M149.054,90.223
		c2.129-0.555,3.145-0.93,3.59-1.59c0.309-0.461,0.344-0.742-0.004-1.492c-0.32-0.688-0.691-0.899-2.023-0.168
		c-0.914,0.5-2.953,0.738-3.664,1.16c-0.285,0.246-0.145,0.242,0.082,0.387c0.516,0.328,0.766,0.546,0.707,0.98
		C147.621,90.437,147.718,90.578,149.054,90.223L149.054,90.223z M146.804,86.891c1.035-0.528,0.824-1.801-0.328-2.305
		c-1.52-0.402-2.5,1.43-1.254,2.32C145.554,87.141,146.402,87.098,146.804,86.891L146.804,86.891z M150.234,86.375
		c1.492-0.512,2.066-0.91,2.5-1.734c0.34-0.657,0.195-0.946,0.148-1.579c-0.066-0.957-0.551-0.847-1.941-0.347
		c-0.68,0.262-3.926,1.176-3.973,1.508c1.57,0.898,1.168,1.371,1.18,2.515C148.23,86.996,148.968,86.812,150.234,86.375
		L150.234,86.375z M129.894,84.852c0-0.434-4.172-4.516-4.613-4.516c-0.688,0-1.676,1.07-1.527,1.656
		c0.066,0.266,3.977,4.203,4.465,4.492C128.902,86.887,129.851,85.504,129.894,84.852L129.894,84.852z M132.289,82.305
		c0.18-0.141,0.5-0.508,0.711-0.813c0.449-0.652,0.414-1.015-0.121-1.363c-0.195-0.125-1.07-0.914-1.941-1.758
		c-0.875-0.84-1.699-1.57-1.836-1.621c-0.719-0.094-2.02,1.059-1.883,1.648c0.074,0.305,3.27,3.454,3.984,3.926
		C131.664,82.625,131.886,82.621,132.289,82.305L132.289,82.305z M137.937,76.223c0-0.118-0.727-0.582-1.887-1.215
		c-3.551-1.93-3.613-1.942-4.723-1.039c-0.383,0.308-0.691,0.664-0.691,0.785c0,0.125,0.77,0.949,1.75,1.879
		c2.035,1.926,2.535,2.34,2.82,2.34C135.792,78.543,137.843,76.758,137.937,76.223L137.937,76.223z M142.906,74.406
		c0.438-0.523,0.93-2.344,0.695-2.707c-0.215-0.219-0.766-0.183-1.031,0.055c-0.273,0.25-0.949,2.535-0.848,2.805
		C141.828,74.836,142.527,74.707,142.906,74.406L142.906,74.406z M104.113,151.848c0.336-0.043,0.996-0.453,1.953-1.277
		c1.023-0.875,4.262-2.832,4.613-3.617c0.16-0.449,0.043-1.09-0.293-1.138c-0.258-0.038-0.313,0.161-2.465,1.711
		c-1.453,1.048-4.008,2.923-4.391,3.317C103.363,151.27,103.738,151.805,104.113,151.848L104.113,151.848z M103.812,164.363
		c2.219-1.539,4.016-3.134,6.906-4.914c0.223-0.293,0.258-0.73,0.121-1.091c-0.168-0.444-0.402-0.269-1.277,0.341
		c-2.129,1.434-4.32,3.125-6.156,4.379c-0.59,0.398-1.086,0.621-0.961,0.844C102.609,164.223,103.519,164.312,103.812,164.363
		L103.812,164.363z M105.968,165.309c1.461-1.191,3.207-2.332,4.762-3.484c0.219-0.22,0.277-0.953,0.051-1.254
		c-0.176-0.238-0.027-0.195-0.461,0.051c-0.629,0.358-4.402,2.93-5.105,3.512c-0.41,0.34-0.75,0.508-0.648,0.625
		C105.039,165.062,105.539,165.25,105.968,165.309L105.968,165.309z M107.804,166.233c0.301-0.202,2.895-1.858,3.102-2.081
		c0.238-0.25,0.168-1.38-0.063-1.469c-0.656,0.523-4.113,2.628-4.121,2.969C107.078,165.969,107.542,166.258,107.804,166.233
		L107.804,166.233z M110.578,166.465c0.395-0.367,0.477-0.426,0.484-0.836c0.016-0.742-0.168-0.711-1.223,0.043
		c-0.738,0.48-1.188,0.812-1.055,1.101C109.308,167.594,110.05,166.945,110.578,166.465L110.578,166.465z M110.863,167.977
		c0.207-0.074,0.207-0.184,0.176-0.441c-0.031-0.289-0.074-0.277-0.387-0.277C109.812,167.289,110.57,168.051,110.863,167.977
		L110.863,167.977z M100.765,163.832c0.383-1.258,0.914-2.254,1.789-3.195c3.488-3.094,2.422-6.898,0.219-9.996
		c2.852-3.988,5.695-8.215,8.145-12.09l-0.008-6.293l0.328,0.031c-0.113,13.742,0.512,36.272,0.512,36.272l2.836,2.161l-0.383,0.188
		C114.667,170.84,105.953,165.383,100.765,163.832L100.765,163.832z M103.328,162.262c2.41-1.821,4.758-3.25,7.152-5.191
		c0.254-0.207,0.402-0.219,0.41-0.695c0.016-0.906-0.168-0.918-1.063-0.277c-0.395,0.285-1.848,1.297-3.223,2.227
		c-1.438,0.973-2.77,1.832-3.035,2.145c-1.348,1.559-1.844,2.293-1.707,2.52C102.007,163.219,102.281,162.969,103.328,162.262
		L103.328,162.262z M105.957,157.852c1.242-0.816,4.207-2.875,4.477-3.129c0.469-0.446,0.551-1.148,0.129-1.23
		c-0.207-0.039-2.504,1.491-4.445,2.965c-0.941,0.715-1.152,0.879-1.152,1.555C104.964,158.422,105.21,158.344,105.957,157.852
		L105.957,157.852z M107.195,154.645c3.801-2.704,3.703-2.477,3.621-3.48c-0.027-0.34-0.105-0.496-0.254-0.523
		c-0.121-0.023-0.793,0.461-1.547,0.992c-0.758,0.531-1.66,1.246-2.113,1.563c-1.32,0.913-1.758,1.159-1.758,1.688
		c0,0.515,0.141,0.844,0.371,0.844C105.601,155.727,106.355,155.238,107.195,154.645L107.195,154.645z M106.648,152.551
		c1.75-1.239,3.68-2.633,3.941-2.965c0.32-0.402,0.266-1.277-0.145-1.277c-1.754,1.175-3.871,2.719-5.355,3.938
		c-0.195,0.168-0.438,0.332-0.516,0.551c-0.016,0.289,0.348,0.664,0.488,0.676C105.351,153.477,105.796,153.151,106.648,152.551
		L106.648,152.551z M105.507,148.367c1.34-0.906,2.555-1.984,3.883-2.898c0.996-0.68,1.277-0.891,1.219-1.75
		c-0.035-0.496-0.469-0.211-2.16,0.914c-1.238,0.824-1.805,1.152-2.246,1.715c-0.309,0.714-1.324,1.382-1.375,2.195
		C104.824,148.848,105.027,148.703,105.507,148.367L105.507,148.367z M109.613,142.922c1.027-0.68,1.125-0.695,1.012-1.598
		c-0.141-1.134-0.254-1.063-1.234,0.434c-0.648,0.984-0.867,1.269-0.77,1.453C108.789,143.522,108.972,143.348,109.613,142.922
		L109.613,142.922z M105.875,134.602c-0.109-0.5-0.266-0.391-0.781,0.063c-0.949,0.832-1.102,1.438-0.508,1.754
		c0.313,0.168,0.559,0.152,0.746-0.262C105.734,135.266,105.847,134.953,105.875,134.602L105.875,134.602z M100.546,142.508
		c-0.121-0.461-0.684-1.086-1.113-1.305c-0.422-0.22-0.68-0.181-1.082,0.336c-0.375,0.473-0.199,0.754,0.359,1.465
		c0.41,0.519,0.578,0.683,0.898,0.683C100.003,143.535,100.628,143.008,100.546,142.508L100.546,142.508z M79.929,162.328
		c-0.273-0.523-0.847-1.078-1.113-0.984c-0.277,0.097-0.551,0.5-0.555,0.75c0.114,0.515,0.551,0.863,0.883,0.875
		C79.777,162.879,80.16,162.77,79.929,162.328L79.929,162.328z M82.445,161.531c-0.543-0.574-1.617-1.836-1.793-1.836
		c-0.277,0-0.93,0.688-0.93,0.969c0,0.336,0.977,1.703,1.301,1.813C81.847,162.397,83.355,162.492,82.445,161.531L82.445,161.531z
		 M85.547,161.69c-0.059-0.276-3.114-3.526-3.34-3.526c-0.289,0-0.867,0.641-0.867,0.934c0,0.238,0.988,1.527,1.898,2.48
		c0.457,0.473,0.496,0.543,1.051,0.453C84.898,161.937,85.687,162.07,85.547,161.69L85.547,161.69z M90.945,160.965
		c0-0.656-0.34-1.016-1.723-2.508c-0.5-0.543-1.343-1.484-1.879-2.094c-1.031-1.177-1.472-1.539-1.882-1.539
		c-0.325,0-0.825,0.527-0.825,0.862c0,0.216,2.539,3.125,4.84,5.599c0.512,0.551,0.742,0.707,1.23,0.448
		C90.988,161.543,90.945,161.215,90.945,160.965L90.945,160.965z M86.968,153.164c-0.515,0.422-0.707,0.598-0.711,0.879
		c-0.003,0.434,4.383,5.25,4.774,5.25c0.23,0,0.195-0.031,0.328-0.551c0.273-1.57-0.156-2.031-1.289-3.07
		C89.308,154.977,87.769,152.586,86.968,153.164L86.968,153.164z M94.703,149.94c-1.227-1.464-1.902-2.136-2.152-2.136
		c-0.168,0-0.422,0.164-0.699,0.468c-0.457,0.431-0.41,0.414-0.121,0.931c0.148,0.27,0.57,0.797,0.934,1.172
		c0.676,0.695,1.02,0.918,1.344,0.582C94.296,150.66,95.007,150.312,94.703,149.94L94.703,149.94z M94.062,146.289
		c-0.297-0.004-0.801,0.535-0.801,0.828c0,0.246,0.996,1.491,1.688,2.109c0.559,0.503,0.824,0.637,1.215,0.309
		c0.289-0.422,0.223-0.813,0.043-1.133C95.71,147.836,94.628,146.312,94.062,146.289L94.062,146.289z M97.503,146.647
		c-0.008-0.425-1.262-2.054-1.656-2.218c-0.332,0-1.031,0.77-1.031,1.121c0,0.191,0.27,0.613,0.723,1.14
		c0.895,1.039,1.125,1.267,1.316,1.106C97.175,147.531,97.511,147.065,97.503,146.647L97.503,146.647z M98.917,144.812
		c0.082-0.354-0.141-0.722-0.641-1.351c-0.625-0.785-0.934-0.84-1.523-0.231c-0.215,0.224-0.316,0.418-0.316,0.528
		c0,0.301,1.313,1.969,1.555,1.969C98.554,145.656,98.726,145.246,98.917,144.812L98.917,144.812z M96.609,148.94
		c-0.117,0.539-0.344,0.892-0.863,1.142c-4.008,2.887-3.875,7.59-4.73,11.93c-6.488-0.063-16.738,2.597-16.675,2.734l34.464-34.77
		c0,0,0.43,0.105,0.168,0.41c-2.789,2.008-2.617,5.906-4.449,7.859C101.457,141.949,98.609,145.164,96.609,148.94L96.609,148.94z
		 M77.902,163.145c0.055-0.395-0.309-0.5-0.621-0.184c-0.313,0.309-0.188,0.551,0.25,0.5
		C77.765,163.434,77.875,163.344,77.902,163.145L77.902,163.145z M88.523,161.684c0.125-0.332-0.176-0.641-2.023-2.691
		c-1.871-2.074-2.293-2.559-2.618-2.559c-0.273,0-0.945,0.68-0.945,0.957c0,0.129,0.297,0.546,0.656,0.934
		c0.36,0.387,1.039,1.145,1.516,1.688c0.816,0.929,1.203,1.379,1.516,1.597c0.304,0.216,0.535,0.203,1.023,0.203
		C88.32,161.812,88.465,161.832,88.523,161.684L88.523,161.684z M91.718,155.16c0.125-0.41,0.309-0.77,0.309-0.922
		c0.004-0.285-2.359-2.691-2.758-2.953c-0.476-0.309-1.375,0.703-1.152,1.289c0.062,0.164,0.765,0.991,1.559,1.836
		c1.016,1.078,1.52,1.586,1.684,1.559C91.531,155.945,91.554,155.69,91.718,155.16L91.718,155.16z M92.707,152.629
		c0.172-0.254,0.313-0.59,0.313-0.742c0-0.18-0.395-0.657-0.961-1.293c-1.051-1.184-1.324-1.321-1.898-0.766
		c-0.574,0.547-0.379,0.801,0.629,1.944C92.054,153.207,92.195,153.379,92.707,152.629L92.707,152.629z M101.73,141.328
		c0.395-0.47,0.402-0.699,0.043-1.125c-0.152-0.184-0.375-0.445-0.492-0.59c-0.324-0.387-0.754-0.324-1.195,0.18
		c-0.211,0.242-0.352,0.484-0.352,0.565c0,0.082,0.227,0.414,0.504,0.739C100.863,141.824,101.246,141.901,101.73,141.328
		L101.73,141.328z M103.113,139.543c0.27-0.406,0.148-0.856-0.352-1.313c-0.473-0.429-0.707-0.448-1.039-0.078
		c-0.445,0.493-0.375,0.657,0.102,1.185C102.367,139.934,102.8,140.022,103.113,139.543L103.113,139.543z M104.222,138.062
		c0.371-0.366,0.363-0.683,0.031-1.104c-0.309-0.396-0.629-0.5-0.957-0.328c-0.566,0.305-0.508,0.828,0.051,1.414
		C103.687,138.402,103.847,138.44,104.222,138.062L104.222,138.062z M77.851,212.229c7.059,0.79,14.641,1.345,28.012-0.733
		l0.066-4.535c-4.172,3.25-9.645,1.022-9.961-2.723c-0.035-3.336,0.855-7.184,1.605-9.927c0.559-2.039,0.719-2.828,0.195-3.222
		c-1.152-0.653-3.199-0.735-3.723-2.09c-0.25-0.715-0.273-1.478,0.094-0.935c0.168,0.25,1.496,0.871,2.539,1.103
		c1.809,0.406,2.102,0.539,2.305,1.281c0.129,0.473-0.168,2.09-0.645,3.555c-0.34,1.047-0.742,2.726-0.742,3.051
		c0,0.355,0.281,0.41,0.59,0.313c0.133-0.043,0.77-0.681,1.172-1.035c1.738-1.551,2.242-1.508,0.758,0.012
		c-0.59,0.605-1.406,1.438-1.406,1.5c0,0.32,0.301,0.285,0.969,0.043c1.031-0.371,3.441-0.325,4.516,0.215
		c1.332,0.668,1.387,0.637,1.359-1.391c-0.242-3.797-0.859-8.289-2.098-11.793c-1.887-5.344-5.801-10.305-11.59-10.082
		c-7.055,0.367-11.313,3.176-16.11,6.543c2.899,6.43-1.289,11.354-2.808,12.004c-0.145,0.063,1.898,6.539,2.773,9.828
		C76.515,206.199,77.851,212.229,77.851,212.229L77.851,212.229z M107.878,57.133c-0.164-0.426-4.086-13.211-5.184-18.559
		c-10.609-0.617-18.453-1.5-27.797,1.153c0,0-0.203,3.601-0.101,3.777c0.093,0.445,0.414,0.433,0.675,0.289
		c4.317-2.371,8.993-1.301,9.317,4.543c0.125,2.234-0.625,3.809-0.762,5.926c-0.121,1.847-1.574,4.312-0.695,5.718
		c0.113,0.172,0.738,0.512,1.586,0.879c1.582,0.676,2.203,1.301,2.32,2.336c0.172,0.715-0.266,1.196-0.395,0.461
		c-0.086-0.469-0.168-0.879-2.121-1.547c-1.906-0.652-2.422-1.41-2.613-1.808c-0.262-0.551-0.211-0.938,0.035-1.813
		c0.52-1.867,1.035-3.765,0.988-4.664c-0.019-0.324-0.375-0.168-0.832,0.223c-0.582,0.496-3.066,2.129-3.136,2.062
		c-0.032-0.035,0.41-0.695,1.105-1.359c0.844-0.805,1.895-1.785,1.895-1.965c0-0.316-0.125-0.094-0.942,0.149
		c-1.425,0.39-3.07,0.336-4.175-0.153c-0.938-0.414-1.594-0.652-1.735-0.426c-0.347,5.696,0.5,11.567,2.887,16.145
		c2.141,4.16,6.59,9.371,13.281,8.203c6.91-1.207,13.637-6.769,13.395-6.773C102.296,64.086,105.234,59.738,107.878,57.133
		L107.878,57.133z M53.086,212.608l-1.496-1.168c0.312,0.048-8.157-5.007-14.594-6.769c-0.426-0.09-0.844-0.293-0.844,0.211
		L36.09,215.41l-9.485,8.887l0.168,4.336l20.117-0.098l13.356-19.578c0,0,0.644-0.117,0.715-0.238
		c-2.45-10.398-6.141-18.699-8.489-22.864c0.039,0.052-3.371,2.759-6.371-0.604c-1.683-1.887-0.648-5.203,0.946-6.414
		c-1.348-0.992-4.137-2.789-5.969-3.309c-0.379-0.094-0.946,0.676-1.133,1.375c-0.336,1.133-0.891,2.145-1.266,3.284
		c-0.41,0.954-0.804,1.099-1.418,0.833c-0.953-0.286-1.207-0.383-1.207-0.383l0.032,12.375
		C43.406,195.551,50.941,202.059,53.086,212.608L53.086,212.608z M83.511,80.355L85.679,78c-3.429-0.422-7.027-1.035-11.238-2.355
		C77.367,77.816,80.425,79.16,83.511,80.355L83.511,80.355z M71.593,73.73c3.825,1.274,8.664,4.247,14.707,3.129
		c-5.511-2.187-9.691-7.293-11.476-17.687c-0.387,2.019-1.195,6.215-2.461,6.668c-1.785-6.899-8.949-2.887-6.074,2.738
		c-7.649,4.945-15.996,7.809-23.918,11.656c0,0-1.192,3.661-7.125,8.672c-1.098-5.867,0.672-14.426-0.481-20.5l-9.3-8.785
		c0.144,1.672,0.078,2.711,0.003,4.672c0.254,0.34,0.61,0.519,0.965,0.73c0.602,33.856-0.207,67.321-0.199,98.067
		c-0.094,18.844,0.406,38.476,0.129,56.269L26.015,220l0.016,4.254l9.496-9.043c0,0-0.441-6.418,0.059-11.32
		c5.992,1.207,11.582,4.023,16.593,7.113c0.633,0.176-2.961-12.348-16.437-17.896c0,0-0.133-3.879-0.133-12.362
		c0-8.185-0.129-9.051-0.309-9.185c-0.546,0.595-7.445,2.918-7.793,2.524c0.184,0.062-1.945-14.484-0.105-16.695L34,157.531
		c1.886,1.523,1.129-0.332,2.226-0.641c0.656-0.176,3.707,1.016,3.707,1.016c12.578-14.848,11.321-39.261,2.297-52.996
		c-2.312,1.875-4.773,4.422-7.09,5.516c-0.027-0.082-0.043-7.574-0.043-7.574c12.016-7.715,25.09-30.055,24.254-30.133
		c0,0,3.723,3.625,5.164,5.672L52.656,95.574c2.715,5.469,5.465,10.43,7.246,15.242c0.242,0.649,0.984,0.633,1.172,1.317
		c0.16,0.586-0.555,1.398-0.453,2.043c2.504,9.574,3.07,19.734,0.601,28.938c-0.523,2.07,0.43,3.75,1.707,5.309
		c0.106,0.137-1.187-1.121-1.304-1.192c-0.446-0.265-1.184,0.668-1.34,1.849c0.101,0.723,0.496,0.852,1.015,1.438
		c0.915,0.761,4.551,4.339,6.153,5.977c1.426,1.453,1.793,1.52,2.75,0.487c0.269-0.253,0.551-0.597,0.812-0.808
		c0.051,0.078,0.407-0.293,0.528-0.41l21.421-20.907c2.488-2.429-21.391,21.938-21.391,21.938s-11.582,11.367-14.422,14.168
		c-2.934,2.894-3.328,3.531-3.445,3.746c-0.211,0.383,0.945,0.371,1.468,0.293c0.043-0.004-0.441,0.113-0.929,0.108
		c-3.016-0.675-4.043,2.661-5.942,3.332c-5.031,3.571-1.648,9.306,3.157,7.411l1.171-0.563c2.911,5.41,7.114,15.266,9.083,23.828
		l-0.793,0.366L48.25,228.492h71.859c-5.16-5.138-9.551-11.445-14.023-16.168c-7.168,2.145-28.835,1.707-28.493,0.773
		c0,0-3.281-13.282-5.136-19.809c5.89-5.043,5.285-13.004-3.266-16.574c6.227-4.918,12.492-6.582,18.602-6.981
		c1.984,5.039,6.644,5.356,8.843,0.743c0.016-0.051,8.266,2.535,11.305,5.335c-4.508-0.468-8.961-1.366-13.473-1.582
		c3.969,1.571,8.012,5.665,9.309,10.349c0.637,1.672,1.605,7.194,1.859,7.215c0,0,1.508-6.379,2.672-6.027
		c2.977,6.211,8.109,1.539,5.949-3.407c7.578-3.616,16.105-7.659,23.078-11.011c2.035-3.07,7.039-8.898,7.367-8.922
		c0,0,9.207-52.727,9.203-70.356c-0.305-21.187,0.426-44.777-0.488-64.597l-0.008-5.696l-19.441,0.008l-13.875,20.406
		c0,0-0.105,0.325-0.102,0.465c1.891,8.235,4.324,15.239,8.137,22.848c5.262-3.977,9.695,2.57,5.75,6.367
		c-0.742,0.715-0.543,0.895,0.195,1.391c0.73,0.492,5.727,3.004,5.957,3.004c0.906-1.344,1.168-3.325,1.773-4.84
		c0.156-0.574,0.59-0.645,1.461-0.543c1.117,0.133,1.113,0.597,1.074-6.52l-0.031-6.113c-6.746-3.105-15.68-11.008-16.094-19.223
		c3.898,2.84,12.863,6.965,15.254,7.332c1.055,0.297,0.891-1.535,0.926-2.273c0.281,0.191,0.387,3.023,0.387,3.023
		c-3.961-1.199-6.035-0.953-15.918-6.679c1.695,8.082,9.789,14.453,15.656,17.359c0,0,0.246,3.84,0.234,8.137
		c-0.039,13.113,0.09,13.691,0.09,13.691c0-0.008,3.23-0.824,4.129-1.269c1.602-1.282,4.164-0.297,4.52,0.644
		c0.523,4.949,0.02,9.539-0.09,14.262c-2.734,0.195-4.23,0.773-5.582,0.828c-0.875-0.117-1.41-0.125-1.859-0.621
		c-1.305-2.824-1.219-1.035-1.379,1.086c-0.121,0.625-3.391-0.465-3.715-0.652c-14.121,16.253-12.918,34.963-3.328,52.295
		c1.586-1.069,4.313-3.108,7.039-4.448c0.066,2.203,0.105,6.741,0.105,6.741c-11.055,8.11-24.293,29.599-23.848,29.657l-4.488-5.359
		c0,0,2.824-4.496,3.82-5.684c0.117-0.137,0.191-1.532,0.191-1.532l6.863-9.921c-3.102-5.497-5.223-10.199-7.43-15.602
		c-0.125-0.453-0.664-2.398-0.547-2.582c-4.578-20.684,0.383-30.973,0.02-31.758c0,0-0.063-0.414-0.16-0.496
		c-0.148-0.121,0.039-0.242,0.207-0.539c0.328-0.57,0.848-1.746,0.672-2.094c-0.133-0.258-3.844-3.972-7.027-7.027
		c-1.676-1.61-1.609-1.793-2.477-0.914c-0.32,0.324-1.109,1.25-1.109,1.25c-11.5,10.64-20.629,20.332-32.168,31.66l-0.555-0.504
		c16.789-16.687,33.734-33.211,50.363-50.062l-2.926,0.05c0.082-0.211,0.203-0.41,0.375-0.465c1.566,0,3.18-0.476,4.344-1.136
		c2.371-1.762,5.777-4.121,6.043-6.446c-0.168-4.472-3.941-5.121-6.664-2.933c-3.789-6.801-6.785-14.985-8.391-22.621
		c-0.074-0.379-0.609-1.031-0.691-1.465c0.813-2.539,13.672-20.059,13.672-20.059H60.562l13.742,16.364
		c0-0.653,19.586-2.965,28.555-0.235l5.465,19.406c-4.965,4.797-6.43,12.688,2.695,16.793c0.18,0.387-0.863,1.02-0.863,1.02
		c0.145-0.238,0.398-0.48,0.297-0.699c-2.461-1.074-5.098-3.797-5.098-3.797c-5.488,4.289-10.621,6.676-15.648,6.887
		c0,0,2.652,1.8,3.168,3.777c0,0-0.246-0.027-0.313-0.109c-0.543-0.664-1.797-2.821-2.852-3.454
		c-1.792-0.429-2.852-0.117-4.262,0.856l-1.914,1.848C79.148,79.223,74.277,77.043,71.593,73.73L71.593,73.73z M70.859,121.223
		l2-1.977c0.231-1.465,0.629-3.328,2.32-5.359c1.875-2.254,3.95-4.371,5.477-6.375c1.836-2.41,2.832-4.59,2.351-5.602
		c2.735-0.492,5.243-2.906,5.325-7.285c0.031-2.301,1.14-5.656,1.226-5.609c0,0,19.086-0.649,32.215-13.168
		c0,0,0.922,0.199,0.703,0.367c-4.973,4.984-10.266,8.656-16.516,10.996l-34.493,34.453L70.859,121.223z M74.675,117.27
		c0.516-0.516,0.633-0.684,0.34-0.926c-0.441-0.371-1.3,0.39-1.3,1.156C73.715,117.988,74.101,117.844,74.675,117.27L74.675,117.27z
		 M76.461,115.516c0.41-0.395,0.398-0.68,0.058-1.02c-0.469-0.465-1.144-0.18-1.371,0.574
		C74.918,115.828,75.82,116.133,76.461,115.516L76.461,115.516z M78.035,113.926c0.211-0.242,0.383-0.489,0.383-0.547
		c0-0.27-0.657-0.871-0.95-0.871c-0.367,0-1.031,0.621-1.031,0.969c0,0.289,0.664,0.886,0.988,0.886
		C77.55,114.363,77.824,114.164,78.035,113.926L78.035,113.926z M79.515,110.965c-0.468-0.395-0.777-0.399-1.164-0.012
		c-0.449,0.449-0.402,0.945,0.133,1.418c0.406,0.426,0.582,0.383,1.133,0.043C80.082,111.941,80.164,111.5,79.515,110.965
		L79.515,110.965z M81.254,110.699c0.507-0.426,0.437-0.777-0.118-1.328c-0.582-0.582-1.031-0.59-1.445,0.027
		c-0.156,0.235-0.184,0.465-0.184,0.532c0,0.226,0.961,1.082,1.211,1.082C80.859,111.012,81.047,110.879,81.254,110.699
		L81.254,110.699z M82.925,109.051c0.434-0.453,0.379-0.774-0.242-1.41c-0.52-0.536-0.883-0.579-1.34-0.153
		c-0.472,0.442-0.375,0.903,0.161,1.438C82.043,109.469,82.445,109.551,82.925,109.051L82.925,109.051z M84.82,107.133
		c0.316-0.336,0.234-0.309,0.008-0.672c-0.348-0.563-1.36-1.492-1.649-1.492c-0.359,0-0.679,0.578-0.675,1.152
		c0.003,0.566,0.281,0.797,1,1.363c0.48,0.375,0.332,0.411,0.699,0.196C84.41,107.559,84.687,107.312,84.82,107.133L84.82,107.133z
		 M86.324,105.758c0.68-0.774,0.551-0.922-1.086-2.649c-0.559-0.582-0.672-0.648-1.07-0.617c-0.375,0.031-0.403,0.125-0.598,0.524
		c-0.355,0.73-0.09,1.105,0.937,2.199C85.57,106.344,85.726,106.441,86.324,105.758L86.324,105.758z M88.004,103.957
		c0.261-0.23,0.437-0.5,0.437-0.668c0-0.305-1.328-1.773-1.801-2.043c-0.336-0.195-0.683-0.086-1.121,0.289
		c-0.262,0.223-0.254,0.277-0.191,0.527c0.101,0.403,1.804,2.2,2.086,2.2C87.531,104.262,87.761,104.168,88.004,103.957
		L88.004,103.957z M89.667,102.34c0.281-0.289,0.504-0.637,0.504-0.785c0-0.325-1.43-1.981-1.872-2.211
		c-0.375-0.199-0.593-0.117-0.964,0.406c-0.426,0.598-0.262,0.875,0.586,1.852c0.804,0.925,1.062,1.207,1.214,1.207
		C89.187,102.809,89.39,102.621,89.667,102.34L89.667,102.34z M91.242,100.648c0.359-0.218,0.832-0.683,0.641-1.058
		c-0.203-0.387-2.707-3.039-2.977-3.184c-0.527-0.281-0.512,0.125-0.512,1.438v0.683l1.152,1.125
		C91.226,101.297,90.851,100.898,91.242,100.648L91.242,100.648z M93.277,98.781c0.199-0.199,0.387-0.535,0.383-0.66
		c-1.039-1.266-4.059-5.266-4.606-5.117c-0.054,0.016-0.078,0.019-0.117,0.133c-0.137,0.402-0.191,1.23-0.097,1.902
		c0.953,0.914,3.203,3.898,3.71,4.086C92.855,99.242,92.988,99.066,93.277,98.781L93.277,98.781z M94.898,97.078
		c0.191-0.183,0.348-0.43,0.348-0.551s-0.336-0.539-0.691-0.961c-0.359-0.421-1.059-1.273-1.555-1.894
		c-2.848-3.551-3.055-3.817-3.488-3.453c-0.285,0.234-0.355,1.07-0.211,1.386c0.246,0.54,3.355,4.286,4.359,5.254
		C94.296,97.473,94.421,97.535,94.898,97.078L94.898,97.078z M96.535,95.508c0.246-0.231,0.445-0.531,0.445-0.676
		c0-0.141-0.461-0.719-0.941-1.285c-0.48-0.563-1.281-1.527-1.777-2.137c-1.277-1.574-1.289-1.629-2.242-1.726
		c-1.445-0.149-1.25,0.168,0.387,2.078c0.395,0.461,1.141,1.375,1.66,2.027c1.215,1.531,1.75,2.094,1.988,2.094
		C96.16,95.883,96.292,95.738,96.535,95.508L96.535,95.508z M98.207,93.871c0.738-0.621,0.594-0.824-1.813-3.312
		c-0.789-0.817-0.848-0.946-1.461-0.946c-0.617,0-0.816,0.129-0.816,0.426c0,0.184,3.137,3.914,3.367,4.004
		C97.792,94.168,97.828,94.191,98.207,93.871L98.207,93.871z M99.96,92.078c0.199-0.215,0.359-0.488,0.359-0.609
		c0-0.27-0.68-1.133-1.32-1.692c-0.297-0.261-0.676-0.535-0.914-0.535c-0.41,0-1.113,0.235-1.234,0.43
		c-0.078,0.125,0.855,1.277,1.77,2.242C99.226,92.551,99.464,92.609,99.96,92.078L99.96,92.078z M101.5,90.547
		c0.387-0.387,0.387-0.742-0.012-1.262c-0.285-0.375-0.375-0.414-0.965-0.414c-1.121,0-1.152,0.289-0.285,1.215
		C100.882,90.773,101.062,90.988,101.5,90.547L101.5,90.547z M103.148,88.926c0.438-0.555,0.063-0.86-0.652-0.531
		c-0.168,0.078-0.258,0.277-0.293,0.371C101.98,89.34,102.73,89.457,103.148,88.926L103.148,88.926z M75.617,93.605
		c-1.594,1.008-4.27,2.915-6.09,4.188c-0.047,0.273-0.082,0.969,0.004,1.512c1.031-0.7,4.344-2.817,5.851-4.012
		C75.457,94.848,75.566,94.059,75.617,93.605L75.617,93.605z M78.535,88.988c-0.051-0.273-0.231-0.101-0.703,0.297
		c-0.617,0.524-5.852,4.402-7.242,5.379c-0.528,0.371-1.028,0.684-1.083,0.813c-0.054,0.125-0.105,1.175,0.094,1.441
		c1.137-0.863,6.52-4.473,6.602-4.598C76.757,91.43,78,89.883,78.535,88.988L78.535,88.988z M77.937,100.68
		c0,0-6.422,7.718-8.488,11.562c0,0-0.012,4.399-0.074,6.934l-0.348,0.097c0,0-0.031-6.789-0.117-14.156
		c-0.219-18.414-0.399-22.887-0.399-22.887l-2.086-1.527L66.34,79.98c0,0,9.253,6.481,13.769,7.512
		C76.808,92.664,73.757,94.656,77.937,100.68L77.937,100.68z M70.316,109.91c0.129-0.308,0.039-0.293-0.226-0.281
		c-0.192,0.008-0.305,0.187-0.313,0.383c-0.012,0.226,0.012,0.277,0.188,0.246C70.09,110.234,70.254,110.059,70.316,109.91
		L70.316,109.91z M71.859,107.621c0.926-1.137,1.688-1.875,1.824-2.711c-0.59,0.098-3.996,2.485-4.051,2.738
		c0.036,1.266-0.253,1.418,0.786,0.86C70.875,108.258,71.242,107.953,71.859,107.621L71.859,107.621z M72.152,104.805
		c0.992-0.828,4.613-2.774,5.027-3.735c0.161-0.441-0.355-0.855-0.433-0.812c0.063,0.054-5.188,3.203-7.102,4.851
		c-0.172,0.215-0.129,0.578-0.015,0.875C69.84,106.539,70.257,106.09,72.152,104.805L72.152,104.805z M70.945,103.285
		c1.082-0.719,3.637-2.484,4.27-2.926c1.082-0.754,1.296-1.004,0.906-1.562c-0.153-0.219-0.367-0.352-0.723-0.195
		c-3.125,2.179-3.398,2.546-5.769,4.074c-0.161,0.426-0.122,1.066,0.125,1.293C69.933,103.98,70.238,103.758,70.945,103.285
		L70.945,103.285z M70.933,100.934c2.852-2.059,4.387-3.102,4.489-3.329c0.113-0.25,0.144-1.23-0.043-1.335
		c-1.059,0.804-3.895,2.539-5.829,4.113c-0.05,0.32-0.109,1.047,0.047,1.203C69.988,101.746,70.105,101.535,70.933,100.934
		L70.933,100.934z M70.593,93.496c2.075-1.539,3.993-2.879,6.149-4.32c1.832-1.215,2.137-1.485,1.433-1.848
		c-0.238-0.125-0.726-0.32-1.039-0.215c-2.429,1.961-5.132,3.84-7.707,5.746c-0.066,0.286,0,0.844-0.015,1.094
		C69.386,94.344,69.902,94.012,70.593,93.496L70.593,93.496z M70.308,91.301c0.172-0.149,1.258-0.867,2.414-1.707
		c3.102-2.246,3.469-2.465,3.469-2.703c0-0.649-0.894-0.789-1.711-0.125c-1.496,1.218-5.066,3.438-5.074,3.754
		c-0.012,0.46-0.09,0.917,0.043,1.121C69.621,91.898,69.875,91.684,70.308,91.301L70.308,91.301z M71.207,88.258
		c3.156-2.199,3.031-2.098,3.031-2.492c0-0.344-0.309-0.192-0.793-0.227c-0.453-0.031-0.461,0.098-1.328,0.75
		c-1.844,1.391-2.516,1.773-2.711,2.184c-0.059,0.129-0.102,0.64,0.012,0.754C69.636,89.445,69.894,89.176,71.207,88.258
		L71.207,88.258z M71.414,86.07c0.617-0.515,1.113-0.89,1.156-1c0.09-0.234-0.379-0.652-0.73-0.652
		c-0.379,0-0.676,0.195-1.622,1.008c-0.832,0.719-1.003,0.566-0.937,0.972c0.039,0.235,0.043,0.754,0.121,0.848
		C69.605,87.488,70.035,87.215,71.414,86.07L71.414,86.07z M70.136,84.648c0.668-0.562,0.809-0.675,0.321-1.164
		c-0.442-0.441-0.953-0.55-1.227-0.281c-0.148,0.199-0.004,1.363-0.019,1.594C69.183,85.168,69.679,85.031,70.136,84.648
		L70.136,84.648z M84.429,72.531c0-0.238,1.164-1.09,2.036-1.281c1.109-0.25,2.503-0.121,3.48,0.367
		c0.84,0.418,1.75,1.43,0.402,0.813c-1.242-0.551-3.902-0.559-4.863-0.114C84.769,72.68,84.429,72.773,84.429,72.531L84.429,72.531z
		 M83.566,68.277c0.09-0.09,1.254,0.211,1.891,0.379c1.715,0.453,3.125,0.188,4.917-0.332c0.422-0.121,0.633,0.168,0.375,0.383
		c-0.914,0.633-2.098,1-3.118,1.094C85.386,70.012,82.968,68.863,83.566,68.277L83.566,68.277z M72.554,64.965
		c0.961-0.469,2.129-7.043,1.754-8.176c-1.176,1.793-2.488,2.598-4.363,2.285c-3.066-0.508-3.18-4.281-0.813-4.664
		c0.95-0.152,2.106,0.473,2.297,0.328c1.012-0.476,1.801-3.867,2.047-4.968c0.184-1.075,0.449-4.059,0.489-5.008
		c0.085-2.024,0.007-5,0.007-5l-14.929-17.86l-32.696-0.14c0,0-0.105,25.015-0.027,37.812l9.258,8.883l0.117,14.363
		c10.344-4.515,20.355-9.258,30.16-14.383c-1.137-1.359-1.105-4.781,0.969-6.078C69.875,60.453,72.41,62.977,72.554,64.965
		L72.554,64.965z M80.75,68.008c0.07-0.809,0.672-1.477,0.715-2.301c0-0.184,0.148-0.395,0.636-0.137
		c0.633,0.336,0.828,0.102,1.547-0.23c1.274-0.586,1.637-0.574,2.617-0.18c0.633,0.34,0.828,0.336,1.422,0.027
		c0.813-0.535,1.68-0.71,2.395-0.46c1.066,0.375,1.438,0.578,2.047,0.285c0.309-0.149,0.691-0.707,0.758-0.664
		c0.438,0.652,0.352,1.675,0.629,2.254c0.496,0.976,0.305,1.675-0.281,1.195c-1.227-1.012-2.184-1.035-3.941-0.598
		c-1.032,0.254-1.551,0.453-2.691,0.317c-3.539-0.418-3.777-0.313-4.496,0.168C81.406,68.148,80.867,68.199,80.75,68.008
		L80.75,68.008z M90.25,61.594c-1.023-0.254-2.191-1.184-3.035-0.934c-1.043,0.07-1.637-1.16-1.102-1.832
		c0.914-0.891,2.336,0.008,2.887,0.426c1.199,0.91,1.371,0.98,1.855,0.98c1.988-0.039,1.609-1.898,0.645-2.574
		c-0.57-0.598-0.625-0.984-0.504-1.133c0.195-0.238,0.766-0.035,1.387,0.618c1.191,1.121,1.219,3.347-0.242,4.023
		C91.414,61.574,90.937,61.766,90.25,61.594L90.25,61.594z M94.402,55.152c-0.926-0.672-2.574-2.175-3.004-2.715
		c-0.73-0.906-1.02-1.484-0.93-2.21c0.07-0.567,0.156-0.907-0.207-1.094c-0.387-0.196-0.758-1.055-0.684-1.504
		c0.023-0.121,0.457-0.047,0.723,0.281c0.332,0.055,0.266-0.144,0.629-0.383c3.781-2.539,6.816-2.05,10.406-0.304
		c1.043,0.5,3.762,2.558,2.305,1.89c-0.086-0.039-1.039-0.453-2.004-0.937c-3.113-1.492-6.582-2.395-9.402-0.477
		c-0.488,0.34-0.781,0.602-0.402,0.602c1.586-0.309,3.156-0.969,4.785-0.867c2.434,0.031,3.902,1.23,5.727,2.058
		c1.977,0.887,2.359,1.188,1.637,1.918c-0.203,0.223-0.363,0.219-1.32,0.145c-1.027-0.078-1.113-0.047-1.691,0.32
		c-1.516,0.973-3.484,1.5-5.23,1.355c-2.059-0.171-2.281-0.339-2.324-0.043c-0.027,0.192,0.418,0.52,1.027,1.079
		c0.461,0.421,1.086,1.046,1.141,1.14C95.75,55.711,94.968,55.562,94.402,55.152L94.402,55.152z M93.824,51.855
		c-0.004-0.242-0.461-1.304-0.73-1.578c-0.258-0.261-0.465-0.16-1.016,0.231c-0.418,0.293-0.461,0.523-0.078,0.863
		C92.812,52.098,93.832,52.277,93.824,51.855L93.824,51.855z M96.925,52.004c0.832-0.406,1.676-1.832,1.293-2.293
		c-0.23-0.277-0.43-0.016-0.863,0.758c-0.211,0.371-0.57,0.84-0.723,0.949c-0.68,0.477-1.574,0.031-1.953-1.02
		c-0.227-0.632-0.469-1.035-0.734-0.796c-0.477,0.437,0.066,2.003,1.016,2.406C95.527,52.25,96.339,52.285,96.925,52.004
		L96.925,52.004z M99.511,51.77c0.84-0.262,1.246-0.641,1.172-1.008c-0.059-0.305-0.664-0.664-1.078-0.664
		c-0.184,0-0.543-0.008-0.676,0.164c-0.285,0.383-0.742,1.539-0.762,1.664C98.265,52.184,98.55,52.062,99.511,51.77L99.511,51.77z
		 M102.421,45.484c-4.203-1.609-7.523-2.254-11.52-0.547c-1.281,0.555-2.012,0.614-2.078,0.161
		c-0.055-0.383,0.867-1.516,1.863-2.039c2.793-1.278,6.145-1.399,8.953-0.051c1.047,0.515,3.992,2.609,3.992,2.801
		C103.632,46.016,103.367,45.855,102.421,45.484L102.421,45.484z M151.632,92.594c1-0.532,1.461-1.567,0.848-2.18
		c-0.18-0.18-0.43-0.18-0.641-0.18c-0.348,0-2.98,0.703-3.488,0.977c-0.332,0.18-0.211,0.492,0.105,0.777
		c0.145,0.133,0.254,0.418,0.277,0.727c0.031,0.402-0.051,0.762,0.215,0.699C149.484,93.293,150.332,93.172,151.632,92.594
		L151.632,92.594z M147.894,93.555c0.285-0.52,0.164-1.231-0.586-1.668c-0.391-0.203-0.699-0.094-1.016,0.355
		C145.55,93.602,147.398,94.184,147.894,93.555L147.894,93.555z M144.14,94.191c0.16-1.734,0.082-6.863,0.082-6.863
		s-0.934,0.789-1.52,0.817c0.215-0.75,0.449-1.024,0.785-1.758c0.191-0.782,0.297-2.157,0.242-2.942
		c-0.059-0.863-0.664-0.886-0.039-2.437c0.32-0.789,0.379-1.625-0.039-2.602c-0.176-0.484-0.234-0.761,0.23-1.375
		c0.434-0.57,0.262-0.855,0.254-2.047c-0.012-1.644,0-1.914-0.5-0.586c-0.742,1.102-1.086,0.891-2.223,0.758
		c-1.094,2.461-2.379,5.039-2.43,7.16c-0.031,1.329-0.051,1.536,0.781,4.329c0.309,1.042,0.414,1.386,0.434,2.644
		c0.016,1.203,0.105,1.625,0.289,2.289C140.812,92.758,142.132,94.707,144.14,94.191L144.14,94.191z M105.968,204.801l0.004-2.473
		c0,0-3.953,1.219-5.961,0.469c-2.066-0.559-2.063-0.66-2.02-0.438c0.07,0.399,1.605,1.212,3.027,1.544
		c0.996,0.234,2.996-0.005,3.977-0.294c0.559-0.163,0.617-0.011,0.395,0.161c-2.426,1.895-5.5,1.023-7.434-0.551
		c-1.031-1.012-1.723-1.016-1.164,0.34C99.445,208.937,106.035,205.766,105.968,204.801L105.968,204.801z M103.3,201.125l0.898,0.02
		c0,0-0.277-1.57-0.742-2.027c-0.953-0.934-2.301-0.793-3.156,0.129c-0.391,0.418-0.691,1.905-0.691,1.905l0.723,0.017
		C100.601,200.473,101.742,197.215,103.3,201.125L103.3,201.125z M99.699,198.754c-0.512-0.137-1.633,0.371-2.18,0.726
		c-0.199,0.224-0.203,0.254,0.039,0.571c0.523,0.691,1.324,1.023,1.383,0.761C99.171,200.449,99.753,198.895,99.699,198.754
		L99.699,198.754z M105.644,200.5c0.117-0.484-0.336-1.31-1.047-1.599c-0.305-0.073-0.609-0.136-0.52,0.203
		c0.102,0.375,0.313,0.997,0.512,1.411c0.141,0.313,0.234,0.468,0.535,0.348C105.363,200.785,105.562,200.711,105.644,200.5
		L105.644,200.5z M144.242,167.719l0.008-4.188c-2.117,2.145-4.879,5.741-5.719,7.086L144.242,167.719z M79.644,52.297
		c0.895-0.383,1.551-1.555,1.324-2.145c-0.14-0.367-0.511-0.074-0.886,0.469c-0.606,0.875-0.762,0.973-1.293,0.973
		c-0.567,0-0.789-0.149-1.18-0.91c-0.266-0.719-0.457-0.832-0.707-0.52c-0.117,0.145-0.105,0.348,0.047,0.871
		C77.347,52.406,78.375,52.84,79.644,52.297L79.644,52.297z M82.086,51.863c0.992-0.34,1.195-0.449,1.148-0.781
		c-0.051-0.348-0.84-0.809-1.289-0.723c-0.324,0.196-1.164,1.524-1.113,1.762C80.945,52.305,81.277,52.141,82.086,51.863
		L82.086,51.863z M76.351,51.285c-0.031-0.305-0.074-0.605-0.16-0.711c-0.32-0.383-0.992-0.113-0.992,0.379
		c0,0.367,0.527,0.789,0.957,0.789C76.457,51.742,76.414,51.816,76.351,51.285L76.351,51.285z M81.968,48.781
		c1.414,0.531,2.133,0.59,1.364-0.133c-1.059-1.171-5.907-2.511-8.504-0.597c-0.188,0.265-0.149,1.277,0.054,1.219
		C77,47.844,79.707,47.922,81.968,48.781L81.968,48.781z M77.129,44.738c-1.188,0.395-2.301,1.016-2.446,1.594
		c-0.23,0.93,0.188,0.941,1.742,0.453c2-0.656,4.239-0.359,5.942,0.625c1.297,0.942,1.68,0.633,1.461-0.16
		C83.105,44.633,79.054,44.16,77.129,44.738L77.129,44.738z M77.129,44.738"/>
	<path fill="#E2CF00" d="M153.382,27.918l-8.738,8.66l0.125,10.242c0.875,1.61-13.484-4.59-15.754-6.465
		c0.266,6.844,9.605,14.641,15.68,17.493l0.164,21.73c0,0,2.445-0.945,3.789-1.414c0.996-0.344,3.277-0.312,4.027-0.672
		C153.867,62.594,154.882,43.215,153.382,27.918L153.382,27.918z M104.789,38.641c-0.852,0.015-1.359,0.246-1.348,0.793
		c-0.258-0.043,3.227,12.793,4.813,18.152c-3.086,3.117-6.309,8.539-1.699,13.551c0.984,1.07,2.789,1.976,4.504,3.008
		c0.762,0.738-9.379,7.277-18.402,7.281c-2.895-6.344-6.938-2.836-9.164-0.625c-1.742-0.153-8.242-4.024-11.567-6.239
		c-0.054-0.039-0.019-0.957-0.011-1.125c0.23,1.516,13.023,4.778,13.601,3.262c-0.367,0-5.738-3.633-7.281-7.215
		c-1.969-4.043-3.543-9.593-3.543-9.593c-0.719,2.05-0.473,4.898-2.445,5.914c-0.59-6.68-10.133-3.274-5.383,3.261
		c-2.668,0.782-4.949,2.164-7.539,3.313c5.418,7.375,12.879,12.277,20.758,15.172c-1.039,2.211-7.176,7.195-2.137,13.066
		c0.227,0.184-4.816,5.684-7.297,9.985c-1.867,3.238-1.305,5.726-1.09,5.804c6.832-7.828,10.672-14.453,10.672-14.453
		c-0.058,0.91,8.11,0.418,7.973-6.938c0.183-1.985,0.539-4.137,1.305-5.977c12.465,0.586,23.18-3.855,32.238-13.18
		c0,0,1.844,0.528,3.008,0.707c0.582,0.094,1.41-0.289,1.547-0.328c0.523-0.027,1.281-0.129,1.988-0.527
		c0.965-0.543,1.941-1.477,2.977-2.313c1.355-1.097,2.707-2.156,3.188-3.289c0.543-1.257,0.121-2.773-0.344-4.113
		c-2.906-3.422-4.836,0.258-6.125-0.223c-4.473-6.078-8.203-23.281-8.813-23.414C116.675,41.855,108.128,38.586,104.789,38.641
		L104.789,38.641z M74.086,50.383c-0.332,0.019-1.532,5.371-2.594,5.328c-4.5-2.899-4.594,3.098-0.727,2.824
		c3.266-0.23,5.094-5.504,3.336-8.148C74.097,50.383,74.093,50.383,74.086,50.383L74.086,50.383z M26.004,60.555
		c0.148,32.515,0.734,65.02,1.496,97.523c2.937-0.724,5.074-1.277,7.957-0.02c0.269-9.238-0.543-32.559-0.348-55.141
		c10.984-8.539,18.699-17.961,24.117-30.273l-16.769,7.851c0,0-5.481,7.856-7.231,8.359c-0.25-1.117-0.531-14.414-0.301-20.117
		L26.004,60.555z M63.265,80.668l-3.293,4.766c0,0,0.078,16.375,0.266,24.265c0.137,1.571,1.566,3.012,0.422,4.418
		c0.699,0,3.742,21.242,0.847,29.856c-0.519,1.543-0.031,2.632,0.778,2.984l6.281,6.375c1.981,0.656,3.91,0.397,5.57,0
		c5.946-5.438,14.387-14.965,14.387-14.965l-22.32-21.102C64.289,112.148,63.265,80.668,63.265,80.668L63.265,80.668z
		 M144.621,148.953c-16.164,12.082-23.109,29.276-23.215,29.16c0.055,0.198-0.082,0.906,0.93,0.348
		c4.184-2.266,14.938-7.149,14.938-7.149c2.555-3.069,4.52-6.03,7.445-8.953c0,0,0.316,13.325,0.059,20.009
		c2.637,1.961,8.898,8.09,8.898,8.09c0-0.004,1.73-94.66-2.004-97.062c-3.621,0.703-5.441,2.027-6.793-2.176
		C143.921,110.492,144.867,129.828,144.621,148.953L144.621,148.953z M109.523,95.68c-3.898,3.187-17.301,16.332-17.273,16.468
		c3.555,5.961,17.594,17.903,24.32,24.579l0.977,34.007c0.988-1.331,1.707-2.582,2.781-3.918c0,0-0.176-17.218-0.59-25.289
		c-0.125-2.39-0.672-4.269-0.5-4.487c-1.895-9.797-2.68-20.621,0.004-31.129C112.882,100.437,110.863,96.797,109.523,95.68
		L109.523,95.68z M110.566,134.522c-0.012,0.005-0.02,0.013-0.031,0.024c-3.289,4.687-9.582,14.859-10.035,14.836
		c-0.133-0.305-6.5-0.02-7.707,3.988c-1.012,2.98-1.086,5.727-1.824,8.805c-12.777-0.418-22.132,3.621-31.984,12.699
		c-2.805,0.113-5.258,0.34-6.98,0.979c-1.446,0.536-2.223,1.497-3.11,2.142c-2.5,1.813-3.176,3.358-3.054,5.254
		c0.222,3.426,6.281,3.914,6.593,1.5c0.305,0,5.93,12.844,6.477,15.031c1.324,3.539,2.746,10.159,2.914,10.172
		c2.266,0.145,14.973,3.707,15.019,2.414c1.2-0.513-4.418-18.895-4.418-18.895c9.817-8.234-1.007-17.036-3.55-16.715
		c5.59-3.98,12.004-6.66,19.078-7.012c1.094,3.93,6.172,5.949,8.727,0.727c0,0,10.996,3.934,10.953,5.238
		c-4.531-0.684-8.25-1.039-12.785-1.473c8.688,4.715,8.953,10.93,10.727,17.113c0.242-1.094,2.531-5.879,2.531-5.879
		c2.949,6.531,8.551,2,6.238-3.277l6.973-3.23c0.801-0.41-10.422-13.035-20.629-14.824c0.512-0.938,0.715-1.825,1.246-2.59
		c2.563-2.512,4.547-6.188,0.633-10.586c2.582-3.61,8.574-12.324,8.191-12.481C110.757,138.483,110.875,134.414,110.566,134.522
		L110.566,134.522z M26.632,174.68c0,0-0.144,30.215-0.07,45.215c-0.25,0.621-0.414,3.938-0.414,3.938l9.297-8.73l0.277-11.286
		c2.43-0.582,17.559,7.099,16.348,7.056c1.152-0.484-6.984-15.852-16.477-17.56c-0.175-8.707-0.265-18.562-0.515-21.21
		C31.781,172.729,26.632,174.699,26.632,174.68L26.632,174.68z M109.164,192.854c-2.605,0.778-3.691,6.25-2.848,8.903
		c0.156,0.492,0.059,0.597,0.473,0.117c1.012-1.488,0.695-4.453,2.484-6.021C114.007,197.281,113.539,191.129,109.164,192.854
		L109.164,192.854z M109.164,192.854"/>
	<path fill="#D40000" d="M158.312,241.535v-2.785h2.508v-15.021c0,0,0.012-3.612,0.176-4.065c1.934-6.586,12.629-6.129,13.164-0.254
		c0.223,1,0.16,4.319,0.16,4.319h-2.828c0,0-0.02-1.058-0.059-1.839c0.367-6.239-7.203-4.941-7.582-0.754
		c-0.156,0.75-0.172,2.593-0.172,2.593v15.021h2.922v2.785H158.312z M48.937,228.492l12.309-18.59
		c14.691,4.909,29.688,4.999,44.848,2.577l13.547,16.013h-5.539l-8.527-12.177c-3.09,0.716-6.301,1.028-9.5,1.466l3.988,10.711
		h-4.344l-3.133-10.595c-7.355,0.286-12.364-0.371-17.469-0.968l-1.84,11.563h-4.418l2.981-11.938
		c-3.473-0.652-6.977-1.211-9.887-2.141l-9.035,14.078H48.937z M63.031,217.555l5.109,1.382l-2.496,9.556H56.3L63.031,217.555z
		 M76.226,228.492l1.442-8.441c3.433,0.676,7.91,0.813,12.628,0.765l2.219,7.677H76.226z M100.406,220.668l4.031-1.07l6.039,8.895
		h-7.34L100.406,220.668z M132.304,227.012c-4.258-8.563-10.074-16.012-16.398-23.102c6.176-6.492,11.379-13.992,16.379-22.523
		c4.961,8.609,10.68,16.586,16.984,22.855C142.335,211.141,137.023,218.647,132.304,227.012L132.304,227.012z M166.628,211.594
		c-2.055-3.352-4.508-6.707-7.523-10.059c2.754-3.099,5.152-6.414,7.313-9.879c2.488,3.82,5.055,7.141,7.695,9.996
		C171.324,204.77,168.984,208.187,166.628,211.594L166.628,211.594z M41.617,166.945c19.656-22.863,17.039-46.863,6.183-66.218
		l2.309-2.375c12.555,20.632,15.231,49.972-7.914,72.709C41.953,169.69,41.617,166.945,41.617,166.945L41.617,166.945z M120,141.305
		c2.824,4.804,4.551,9.672,7.535,14.507l-7.078,9.567L120,141.305z M35.429,156.445c-0.183-15.082,0.047-45.648,0.047-45.648
		l6.633-5.074c7.934,9.632,12.266,35.023-1.984,51.922C39.086,156.891,36.265,157.203,35.429,156.445L35.429,156.445z
		 M129.593,153.402c-18.188-30.68-8.938-53.055,8.594-72.922c0.051,1.532,0.164,3.059,0.305,4.582
		c-15.051,17.235-21.07,42.719-6.313,65.778L129.593,153.402z M96.656,148.945l8.285-11.289c0,0,1.57-4.488,2.891-5.816l1.52-1.344
		c0.508,0.487,1.469,1.105,1.441,1.668c-0.031,0.531-0.813,3.332-0.813,3.332l-9.691,14.168
		C100.289,149.664,97.351,149.147,96.656,148.945L96.656,148.945z M140.718,94.156c0.262-0.297,3.551,1.074,3.551,1.074
		l0.211,46.387l-6.582,4.23C135.988,146.815,121.062,116.375,140.718,94.156L140.718,94.156z M71.367,113.695
		c2.996-4.082,6.152-7.617,9.058-11.367c0.75,0.258,2.723,0.301,2.723,0.301c0.211,0.113-0.664,3.113-2.812,5.18
		c-2.161,2.203-7.305,8.234-7.454,11.273c-0.046,0.938-2.152,2.012-2.152,2.012l-1.496-1.578
		C69.695,117.203,70.41,115.434,71.367,113.695L71.367,113.695z M52.672,95.902l6.593-8.558l0.66,22.738L52.672,95.902z
		 M30.129,45.477c6.277-6.684,11.828-14.356,17.074-22.286c4.785,7.871,10.094,15.922,16.734,22.45
		C57.89,52.27,52.16,60.227,47.16,68.109C42.359,60.434,36.992,52.484,30.129,45.477L30.129,45.477z M5.066,47.48
		c2.988-2.894,5.473-6.097,7.5-9.585c2.32,3.523,4.512,7.152,7.617,10.035c-2.867,3.07-3.785,4.047-7.687,9.777
		C10.289,54.137,8.004,50.613,5.066,47.48L5.066,47.48z M74.261,38.227L61.199,21.902h6.324l7.781,11.551l9.317-1.063L81.34,21.902
		h3.859l2.726,10.321c5.715,0.132,11.301,0.578,16.723,1.121l2.785-11.442h3.934l-3.57,11.973l10.523,2.762l9.371-14.735h4.66
		l-13.285,19.024C101.695,35.711,87.746,36.309,74.261,38.227L74.261,38.227z M4.418,29.887c-0.203-1.446-0.246-2.867,0.015-4.25
		h2.821c0,0-0.02,1.039,0.023,1.922c0,5.589,6.688,4.871,7.676,1.351c0.347-1.246,0.297-3.234,0.297-3.234l0.011-14.871h-2.867
		V7.918h8.488v2.887h-2.648v14.832c0,0-0.019,0.062-0.008,0.32c0.051,0.895,0.082,3.039-0.394,4.047
		C15.152,36.684,5.343,35.168,4.418,29.887L4.418,29.887z M111.917,31.395l2.973-9.504l8.902,0.011l-6.813,10.852L111.917,31.395z
		 M90.375,29.082l-1.883-7.18h15.695l-2.027,8.028C98.015,29.23,94.23,29.094,90.375,29.082L90.375,29.082z M71.562,21.902h6.262
		l2.441,7.43l-3.613,0.41L71.562,21.902z M71.562,21.902"/>
	<path d="M59.152,20.848l15.125,18.097c3.152-1.129,19.035-2.941,28.563-0.765c1.66,6.504,3.418,13.07,5.273,18.992
		c0,0-0.594,0.695-1.023,1.137c-6.086,7.011-1.777,13.785,3.789,15.992c-1.004,2.086-11.672,7.277-18.172,6.66
		c0.012-0.063-1.996-4.766-6.063-3.176c-1.387,0.543-1.961,1.59-3.039,2.61c-3.879-1.168-9.008-3.723-11.672-6.528
		c4.989,2.481,9.899,3.817,14.828,3.16c0,0-0.613-0.507-1.304-0.828c-0.418-0.191-1.422-0.793-2.235-1.34
		c-2.289-1.547-3.812-3.406-5.382-6.589c-1.805-3.227-2.098-6.696-3.09-9.758c-0.524,1.57-0.75,5.711-2.118,6.57
		c-0.355,0.234-0.417,0.164-0.683-0.715c-1.047-3.183-4.867-2.781-6.129-0.515c-0.641,1.953-0.547,2.808,0.262,4.617l-2.321,1.289
		l-0.004,0.383l-1.425,0.679l-0.297-0.199c-6.633,3.203-13.137,6.535-19.903,9.606c0,0-3.593,5.96-6.882,8.335l-0.129-20.25
		l-9.742-8.796l-0.043,4.816c0,0,0.464,0.488,0.699,0.734c0.133,33.899,0.019,67.25,0.043,98.024l0.043,28.332l-0.594,0.035
		l-0.031,3.305l0.672,0.148l-0.094,4.668l-0.348,0.023l-0.051,2.953l0.532,0.082l-0.012,16.675l-0.523,0.681l0.011,4.758
		l10.168-9.664l0.227-10.988c8.023,1.516,16.406,7.277,16.406,7.277c-1.41-9.203-11.168-16.789-16.773-18.305l0.019-21.809
		c0,0-4.164,1.734-6.223,2.004c-1.019,0.145-1.414-0.012-1.898-0.746c-0.355-0.54-0.363-1.027-0.043-2.137
		c0.149-0.52,0.145-0.653-0.043-1.176c-0.262-0.73-0.266-1.063-0.008-2.355c0.27-0.758,0.149-1.165-0.133-1.868
		c-0.3-0.75-0.324-0.89-0.195-1.323c0.34-1.145,0.36-1.328,0.18-1.836c-0.348-1-0.36-1.72-0.039-2.363
		c1.5-2.521,4.863-1.899,6.687-1.81c0.926,1.032,1.477,1.606,1.563,0.114c0.644-1.777,3.156,0.043,4.328,0.8
		c9.98-13.375,14.902-31.476,2.383-54.136l-6.965,5.574l0.019-6.977c9.231-5.933,19.622-19.425,24.122-30.062
		c1.496,1.75,3.214,3.472,4.832,5.242l-1.059,1.77l-0.313-0.176C60.062,85.266,52.281,95.602,52.156,95.5
		c2.879,5.336,5.445,10.723,7.625,16.176l0.57-0.258l0.512,1.644l-1.008,0.301c3.406,11.176,3.52,21.528,0.953,31.071l0.602,2.535
		c0,0,3.605,3.492,4.578,4.52c2.543,2.457,5.371,5.202,5.371,5.202l3.293-3.222l-0.191-0.273l28.843-28.636l1.797,1.718
		C87.437,144.07,56.75,174.789,56.75,174.789l-1.063,0.151c-0.605,0.091-1.5,0.13-2.066,0.091c-0.942-0.066-1.055-0.043-1.809,0.313
		c-0.847,0.402-1.547,1-2.484,2.125c-0.43,0.511-0.723,0.734-1.199,0.902c-6.016,3.586-0.579,10.809,4.539,7.008
		c3.75,7.164,6.922,15.504,8.672,23.758c0,0.059-0.672,0.289-0.672,0.289l-13.481,19.988h5.188l0.539-0.922h-3.883l12.398-17.91
		c15.778,4.297,30.258,4.91,44.954,2.352l12.789,15.559h-5.07l0.723,0.922l6.566,0.105l-15.035-17.742
		c-5.387,1.438-19.586,2.594-28.492,1.086c-1.363-6.617-3.609-13.809-5.27-19.531c8.5-6.652,2.118-15.438-3.128-16.66
		c-0.254-0.481,10.64-7.102,18.398-6.646c2.223,5.337,7.09,4.548,8.836,0.575c3.219,1.184,7.395,2.363,10.707,5
		c-4.418-0.969-9.543-1.5-13.758-1.563c8.02,3.108,10.27,9.66,11.258,15.84c0.172,1.027,0.723,2.348,0.723,2.348
		c0.684-2.23,1.242-4.536,2.586-6.445c0.617,2.184,2.895,3.883,5.188,2.582c1.332-0.966,1.797-2.617,1.375-4.906
		c-0.117-0.637-0.176-0.984-0.176-0.984l1.781-0.965l0.23,0.199c0,0,1.953-0.836,2.922-1.31c0.152-0.069-0.176-0.375-0.176-0.375
		l18.016-8.496c-0.066-0.038,4.543-6.331,7.188-8.761c0.082,7.543,0.063,10.645,0.059,19.598l1.016,0.991
		c0.902,0.884,2.871,2.711,7.305,6.786c1,0.914,1.695,1.367,1.695,1.367L154.5,59.617h-0.148v-2.539l0.207-0.012l0.004-6.597
		l-0.188-0.11v-2.078l0.246-0.179l0.02-17.817l-0.289-0.051l-0.016-4.273l-10.043,10.621l0.074,10.02
		c-4.48-0.582-10.023-3.45-13.84-5.762c-1.234-0.754-1.922-0.953-1.883-0.524c0.535,5.965,9.168,15.082,15.801,17.469l0.012,22.434
		c0,0.015,1.566-0.782,2.523-1.184l0.145,0.399l2.137-0.883l0.176-0.465l1.852-0.234c0.023,0.378,0.086,0.328,0.086,0.328
		c1.652,0.461,2.383,1.59,1.719,2.855c-0.234,0.422-0.277,1.024-0.086,1.184c0.715,1.129,0.902,2.125,0.039,3.191
		c-0.332,0.547-0.332,0.856,0.012,1.434c0.895,1.804,0.387,1.683-0.285,2.758c-0.152,0.812,0.734,1.339,0.441,2.105
		c-0.137,0.504-0.668,1.094-1.027,1.359c-0.422,0.309-0.77-0.261-0.77-0.261s-1.34,0.574-2.301,0.757
		c-0.945,0.305-2.574,0.856-3.141-0.417c-0.32-0.731-0.063-1.399-0.082-2.211l-1.391-0.153l-0.051,3.703
		c-0.793,0.426-3.949-1.187-3.949-1.187c-13.551,17.558-13.172,37.035-3.121,53.351c0.098,0.263,7.078-4.772,7.078-4.772
		s-0.012,4.129,0.047,6.367c-8.875,7.34-17.449,17.219-23.578,29.395l-3.797-4.5c0.652-0.578,0.676-1.492,0.664-2.184l2.758-4.113
		l0.023-1.067l7.168-10.011c0.113,0.597-7.398-13.446-8.398-18.016l0.5-0.138c-3.371-12.746-2.68-21.674-0.246-32.074l-0.695-0.672
		l-9.457-9.445c-0.77,0.711-1.535,1.422-2.297,2.137c-0.117,0.109-0.695,0.047-0.813,0.156c-4.977,4.664-9.762,9.351-14.5,14.219
		c-0.121,0.125,0.086,0.644-0.035,0.769c-4.747,4.887-9.665,9.524-14.464,14.403l-1.754-1.672
		c17-16.996,49.027-48.567,49.027-48.567s0.141-0.25,0.359-0.258c0.891-0.035,1.688-0.234,2.566-0.492
		c1.059-0.242,1.227-0.32,1.672-0.781c0.273-0.277,0.719-0.672,0.992-0.871c0.461-0.34,1.523-1.234,3.18-2.676
		c1.016-0.883,1.641-2.168,1.617-3.316c-0.039-2.039-1.391-3.782-3.133-4.032c-0.723-0.105-2.141,0.274-2.859,0.758
		c-0.551,0.371-0.809,0.539-1.043,0.375c-3.469-7.039-6.848-15.886-8.277-23.187c-0.078-0.461-0.035-0.598,0.34-1.176
		c0.234-0.363,0.742-1.156,1.133-1.77c3.102-4.484,6.699-9.929,10.074-14.847c0.559-0.817,1.648-2.391,1.648-2.391l0.82-1.351
		h-5.348l-0.66,1.054h4.402L119,40.754c-24.141-7.891-43.917-2.891-44.395-2.781L61.558,21.902h5.965L66.8,20.848H59.152z
		 M70.902,20.848l0.664,1.054h6.258l-0.352-1.054H70.902z M81.34,21.902h3.859l-0.219-1.054h-3.961L81.34,21.902z M88.246,20.848
		l0.246,1.054h15.691l0.281-1.054H88.246z M107.433,21.902h3.934l0.293-1.054h-3.953L107.433,21.902z M115.214,20.848l-0.336,1.054
		h8.914l0.668-1.054H115.214z M153.335,28.125l0.141,2.922l-6.426,6.773l0.008,9.457l-1.871-0.433l-0.074-9.774L153.335,28.125z
		 M151.535,34.355c0.055,2.895-0.414,5.672,0.352,8.625c0.375,1.454,1.141,3.157,1.238,4.875l-2.121-0.05
		c-0.27-0.868-0.375-1.825-0.691-2.891c-0.781-2.633-1.418-5.406-0.84-8.199L151.535,34.355z M105.269,39.078
		c0.074,0.145,0.328,1.367,0.563,2.504c1.113,6.23,2.605,10.852,4.125,15.559c1.938,5.929,4.797,13.39,7.582,16.851
		c0.367,0.43,0.551,0.922,0.418,1.137c-0.227,0.363-1.363-0.145-2.125-0.949c-0.313-0.328-0.91-1.25-1.352-2.075
		c-0.973-1.82-2.281-4.468-2.41-4.886c-0.055-0.172-0.566-1.481-1.141-2.91c-1.008-2.5-1.602-4.211-2.445-6.989
		c-0.664-2.207-1.281-4.515-2.023-6.84c-1.219-3.796-1.922-6.82-2.602-10.316c-0.098-0.512-0.27-1.109-0.207-1.234
		C104.039,38.652,105.082,38.766,105.269,39.078L105.269,39.078z M105.949,39.316c-0.121-0.101,1.105-0.121,1.496,0.207
		c0.117,0.118,0.324,0.848,0.504,1.786c1.105,5.734,2.773,11.656,4.711,17.269c1.551,4.484,3.242,8.801,5.348,12.297
		c0.664,1.164,1.559,2.41,2.695,3.754c0.641,0.754,0.691,0.859,0.52,1.07c-0.211,0.254-0.578,0.219-1.293-0.117
		c-0.66-0.316-1.379-1.004-2.055-1.98c-0.23-0.332-0.582-0.836-0.781-1.114c-3.109-5.375-4.996-10.48-6.707-15.664
		c-1.75-5.316-3.328-10.695-4.398-16.89C105.976,39.727,105.96,39.52,105.949,39.316L105.949,39.316z M109.855,40.121
		c0.27,0.277,0.426,0.809,0.664,1.914c1.293,5.317,2.355,10.067,3.883,14.43c0.82,2.347,1.535,4.691,2.418,6.902
		c1.406,3.531,3.133,6.746,5.25,9.426c0.699,0.883,1.965,1.969,3.031,2.602c0.738,0.441,0.848,0.55,0.801,0.804
		c-0.066,0.231-0.785,0.324-1.023,0.305c-1.164-0.195-2.887-1.102-3.379-1.77c-3.563-3.851-6.109-10.152-7.965-15.32
		c-3.191-8.902-5.762-20.019-5.273-19.676C108.23,39.48,109.539,39.777,109.855,40.121L109.855,40.121z M111.386,40.445
		c0.113,0,0.246,0.02,0.391,0.059c0.664,0.183,0.75,0.277,0.91,1.012c1.141,5.082,2.348,9.563,3.695,13.828
		c1.367,4.336,2.777,8.429,4.977,12.718c1.609,3.133,3.648,5.297,5.84,6.395c0.633,0.313,1.191,0.617,1.25,0.672
		s0.043,0.219-0.035,0.363c-0.113,0.219-0.246,0.262-0.785,0.25c-0.992-0.015-1.691-0.324-2.758-1.043
		c-2.801-1.929-5.25-6.304-6.332-8.785c-1.316-3.027-2.531-6.172-3.621-9.602c-1.965-6.152-3.188-10.222-4.082-15.417
		C110.835,40.598,111.039,40.437,111.386,40.445L111.386,40.445z M153.355,48.75l-0.02,1.801
		c-7.051,0.469-14.281-2.512-20.094-5.196c4.379,5.805,9.051,10.961,20.094,12.024l0.02,1.859
		c-14.383-0.203-24.512-14.769-23.98-18.398C135.292,44.66,145.976,49.082,153.355,48.75L153.355,48.75z M113.664,41.121
		c0.344,0.016,0.813,0.16,0.992,0.344c1.176,4.387,2.031,9.258,3.977,14.148c2.387,6.008,3.711,11.309,8.141,16.262
		c1.375,1.414,4.074,1.371,4.074,1.371s-0.34,0.766-0.801,0.895c-0.949,0.14-1.637,0.183-2.328-0.039
		c-2.563-1.082-4.523-3.821-5.535-5.676c-0.949-1.395-3.266-7.125-5.172-12.969c-2.078-6.359-3.789-12.973-3.594-14.305
		C113.492,41.125,113.546,41.117,113.664,41.121L113.664,41.121z M116.035,41.859c0.168,0,0.395,0.063,0.664,0.192
		c0.289,0.14,0.414,0.226,0.563,0.765c0.098,0.356,0.082,0.903,0.258,1.793c1,4.582,2.379,8.301,3.746,11.926
		c1.301,3.442,2.695,6.82,4.414,9.879c0.871,1.539,1.73,2.977,2.273,3.523c1.484,1.481,3.996,1.555,4.738,0.083
		c0.41-0.836,0.328-2.161-0.484-2.844c-0.633-0.602-2.059-0.348-2.098,0.379c0,0.191,0.355,0.105,0.871,0.047
		c1.438-0.168,1.887,2.378,0.035,2.8c-2.34,0.539-3.965-2.625-1.898-4.566c3.504-2.375,6.176,0.871,5.348,3.992
		c-0.797,1.844-2.137,2.785-3.906,2.848c-2.285,0.074-3.23-0.633-5.574-4.035c-2.684-4.309-3.848-8.516-5.742-13.227
		c-1.789-4.457-2.98-9.211-3.543-13.363C115.75,41.926,115.863,41.859,116.035,41.859L116.035,41.859z M118.253,42.594
		c0.207,0.008,0.645,0.117,0.836,0.234c0.113,0.074,0.277,0.231,0.277,0.231c3.148,11.492,5.777,18.375,8.449,23.23
		c0,0-0.043,0.895-0.223,1.148c-0.316,0.458-0.473,0.344-0.887-0.375c-1.684-3.253-3.285-6.851-4.777-10.554
		c-1.754-4.363-3.313-8.875-3.973-13.172C117.988,42.781,117.867,42.629,118.253,42.594L118.253,42.594z M139.496,49.164
		c0.445,0,0.809,0.359,0.809,0.805c0,0.445-0.363,0.808-0.809,0.808s-0.809-0.363-0.809-0.808
		C138.687,49.523,139.05,49.164,139.496,49.164L139.496,49.164z M74.062,49.016c-0.933,1.273-1.699,5.828-2.668,5.882
		c-1.07-0.015-2.371-0.628-3.207,0.336c-1.019,1.176-0.394,2.473,0.86,3.188c0.578,0.285,1.808,0.351,2.554,0.137
		C74.656,57.535,75.816,52.578,74.062,49.016L74.062,49.016z M142.55,50.211c0.645,0,1.164,0.523,1.164,1.168
		c0,0.644-0.52,1.164-1.164,1.164c-0.641,0-1.164-0.52-1.164-1.164C141.386,50.734,141.91,50.211,142.55,50.211L142.55,50.211z
		 M74.117,50.766c1.047,2.625-0.11,5.765-1.383,6.824c-1.172,0.972-3.012,1.097-4.062,0.148c-0.875-0.82-0.485-2.793,1.144-2.648
		c0.551,0.019,1.203,0.519,1.57,1.047C72.449,56.246,73.672,50.859,74.117,50.766L74.117,50.766z M146.613,51.406
		c0.727,0,1.313,0.59,1.313,1.317c0,0.722-0.586,1.313-1.313,1.313s-1.316-0.59-1.316-1.313
		C145.296,51.996,145.886,51.406,146.613,51.406L146.613,51.406z M151.269,52.336c0.738,0,1.34,0.598,1.34,1.34
		c0,0.742-0.602,1.344-1.34,1.344c-0.742,0-1.344-0.602-1.344-1.344C149.925,52.934,150.527,52.336,151.269,52.336L151.269,52.336z
		 M107.941,58.437c0.199-0.003,0.34,0.192,0.473,0.575c0.27,0.8,0.266,0.894-0.16,1.429c-4.129,5.715-0.363,11.555,5.613,12.192
		c0.504,0.035,0.758,0.601,1.027,1.262c-0.039,0.312-0.039,0.312-1.398,0.335c-0.887,0.02-1.598-0.039-2.039-0.156
		c-2.098-0.566-4.664-2.457-5.715-4.211c-1.207-2.023-1.41-4.113-0.664-6.898c0.48-1.789,1.086-2.973,2.027-3.945
		C107.48,58.633,107.738,58.437,107.941,58.437L107.941,58.437z M147.066,59.07l0.066,19.602l-2.086,0.762l0.086-20.848
		L147.066,59.07z M151.015,59.828c2.602,6.457,2.715,12.375,0.367,17.762l-2.371,0.344c3.254-7.59,1.867-13.02,0.031-18.262
		L151.015,59.828z M26.257,60.902l8.446,7.969l0.293,88.785l-1.344-0.473l-0.539-87.329l-6.856-6.289V60.902z M108.73,61.16
		c0.012,0,0.027,0,0.043,0.004c0.223,0.023,0.43,0.309,0.621,0.848c0.223,0.636,0.219,0.656-0.031,1.285
		c-1.16,2.84-0.215,5.543,2.648,6.394c0.68,0.215,0.793,0.329,1.191,1.168c0.258,0.547,0.375,0.746,0.273,0.868
		c-0.148,0.109-0.512,0.16-1.59-0.075c-4.258-1.453-5.801-6.109-3.863-9.804c0.238-0.422,0.461-0.653,0.664-0.684
		C108.703,61.16,108.714,61.156,108.73,61.16L108.73,61.16z M74.824,60.805c0,0,0.891,3.144,0.805,3.855
		c-0.227,1.379-2.184,3.578-3.895,4.383c-1.586,0.609-3.984,0.301-4.988-0.754c-3.645-4.266,3.156-8.547,4.867-4.105
		c1.027,2.91-3.152,3.601-3.34,1.363c0-0.578,0.188-0.758,0.727-1.133c0.476-0.332,0.422-0.629,0.007-0.629
		c-1.574,0.574-1.613,2.027-0.902,2.945c1.422,1.489,3.18,0.622,4.395-0.468C74.132,64.789,74.453,62.68,74.824,60.805
		L74.824,60.805z M110.085,64.047c0.082,0,1.75,3.992,1.973,4.562c-0.055,0.399-0.492,0.371-1.238-0.152
		c-0.754-0.527-0.98-0.898-1.301-2.125C109.421,65.898,109.257,64.312,110.085,64.047L110.085,64.047z M76.183,65.734
		c0.367,0,0.75,1.348,0.574,2.039c-0.3,1.2-3.437,3.223-5.64,3.641c-0.442,0.082-0.914,0.172-1.051,0.195
		c-0.457,0.082-0.988-0.172-1.543-0.738c-0.391-0.398-0.578-0.793-0.484-0.887c0.078-0.078,1.086,0.098,1.945,0.086
		c2.402,0.028,4.254-1.695,5.68-3.75C75.882,65.996,76.113,65.734,76.183,65.734L76.183,65.734z M28.449,66.73
		c0,0,1.625,1.473,2.48,2.317c-0.093,3.914-1.535,8.16-1.535,11.656c0.035,3.047,2.004,5.582,2.203,8.231
		c0.121,1.714-0.382,4.257-1.23,6.187c-0.785,1.793-1.199,3.707-1.195,5.566c0.097,4.325,3.203,9.055,2.113,13.333
		c-1.024,4.019-2.192,6.343-1.883,8.476c0.598,4.121,2.785,7.77,2.203,11.194c-0.543,3.192-1.98,6.375-1.828,9.255
		c0.18,3.32,1.422,6.098,1.77,9.129c0.23,1.973-0.329,5.043-0.329,5.043l-2.277,0.188c1.254-4.664-0.613-8.883-1.328-13.371
		c-0.609-3.816,1.102-6.855,1.609-10.113c0.321-2.023-0.039-3.953-1.043-6.527c-1.98-4.758-1.269-7.859,0.161-12.004
		c1.765-4.414-0.665-7.906-1.27-12.133c-0.313-3.644-0.07-6.219,1.301-9.457c1.019-3.121,1.308-4.929-0.215-7.922
		c-0.961-1.89-1.211-3.007-1.215-5.496C27.441,75.34,28.773,72.57,28.449,66.73L28.449,66.73z M77.269,68.703
		c0.356,0,0.531,0.25,0.531,0.754c0,0.922-1.375,2.09-3.808,3.23c-1.258,0.594-1.992,0.684-2.727,0.336
		c-0.691-0.328-0.656-0.613,0.098-0.832c1.902-0.554,3.25-1.312,4.785-2.691C76.636,69.062,77.14,68.703,77.269,68.703
		L77.269,68.703z M66.273,69.34c6.27,6.711,12.414,10.164,17.117,11.777l-0.742,1.754C76.476,80.48,70.175,77.152,64.836,70
		L66.273,69.34z M78.351,70.434c0.168,0,0.809,0.808,0.809,1.027c0,0.125-0.235,0.531-0.52,0.894
		c-0.414,0.532-0.781,0.805-1.816,1.375c-1.402,0.766-2.254,0.954-2.859,0.633c-0.606-0.32-0.403-0.59,1.109-1.476
		c0.777-0.461,1.82-1.2,2.312-1.645C77.875,70.797,78.308,70.434,78.351,70.434L78.351,70.434z M61.742,71.426
		c5.137,7.027,11.754,11.695,19.527,14.187l-1.222,1.653c-7.102-2.446-14.051-6.875-20.399-14.672L61.742,71.426z M79.683,72.289
		c0.258,0,0.836,0.656,0.836,0.949c0,0.141-0.113,0.399-0.25,0.571c-0.273,0.351-1.707,1.429-2.32,1.746
		c-0.477,0.246-0.836,0.242-1.356-0.016c-0.621-0.309-0.515-0.566,0.493-1.215c0.496-0.316,1.242-0.906,1.66-1.304
		C79.164,72.617,79.586,72.289,79.683,72.289L79.683,72.289z M59.019,72.805c-0.148,0.183-7.562,17.168-23.273,29.211l-0.074-2.821
		c8.703-6.902,15.027-16.351,19.8-24.605L59.019,72.805z M81.175,74.023c0.239-0.007,0.403,0.157,0.571,0.473
		c0.199,0.379-0.016,0.715-0.895,1.379c-0.551,0.414-0.754,0.496-1.207,0.488c-1.172-0.023-1.14-0.304,0.141-1.449
		C80.453,74.316,80.867,74.031,81.175,74.023L81.175,74.023z M111.515,74.863l3.277,0.25c0.883,0.614-12.801,9.571-22.289,8.766
		l0.25-2.145C101.085,81.973,111.746,75.25,111.515,74.863L111.515,74.863z M83.422,75.699c0.753,0.422,1.691,0.922,1.457,1.086
		c-0.348,0.215-2.571,0.074-3.082-0.199c-0.383-0.203-0.36-0.313,0.168-0.902C82.609,74.957,82.722,75.312,83.422,75.699
		L83.422,75.699z M54.226,75.168c-5.191,9.156-11.371,17.512-18.527,22.957l-0.094-4.84c6.809-5.242,11.965-14.82,11.977-14.855
		L54.226,75.168z M119.234,75.75l1.586,0.93c-9.898,9.16-20.586,13.105-30.859,12.117l0.828-1.856
		C107.457,88.258,118.527,75.93,119.234,75.75L119.234,75.75z M121.636,76.074c0,0,0.535-0.066,0.477,0.043
		c-3.285,3.223-7.797,6.66-10.75,8.578c-13.996,14.367-25.973,25.711-38.164,38.512l-1.949-2.039l1.765-1.867
		c0.004-3.688,4.524-7.824,7.2-11.012c1.117-1.258,3.214-4.496,2.976-5.855c-0.078-0.313-0.09-0.43-0.09-0.43
		c4.235-0.848,5.246-4.281,5.34-7.317c0.195-2.031,0.469-3.875,1.152-5.542C108.761,90.684,121.109,76.57,121.636,76.074
		L121.636,76.074z M88.234,78.195c2.176-0.008,3.82,1.715,3.813,4.153c-0.016,1.019-0.375,1.797-1.758,4.492
		c-1.34,2.308-1.516,3.711-2.043,6.375l-1.364-1.223l-2.476,2.235l0.035-3.254c0,0,0.856-1.086,2.238-2.641
		c1.75-1.945,3.336-4.449,3.262-5.855c-0.047-1.407-1.531-2.551-3.051-1.633c-1.32,0.922-1.929,2.593-2.707,7.586
		c-0.14,0.886-0.269,1.925-0.34,2.156c-0.195,0.613-2.105,2.422-2.105,2.422c-0.164,0-0.918-3.668-0.918-3.668l-1.93,0.32
		c2.235-2.43,3.973-5.355,5.098-8.422C85.027,79.348,86.343,78.215,88.234,78.195L88.234,78.195z M46.238,78.973
		c0,0-3.844,7.984-10.59,13.175l-0.043-3.125c3.918-3.043,6.906-8.281,6.902-8.269L46.238,78.973z M138.734,79.176
		c-13.34,13.812-30.75,39.246-9.145,74.977l2.855-3.294c-17.398-32.315-5.07-49.065,6.383-65.871L138.734,79.176z M66.601,80.312
		c3.906,2.778,7.981,5.536,13.254,7.29c-0.281,0.937-7.527,7.035-2.328,12.675c0.219,0.297-0.336,1.012-1.184,2.032
		c-2.484,3.394-4.964,5.812-7.039,9.636l-0.086,7.18l-2.078-1.832L66.601,80.312z M138.222,80.977l0.086,4.093
		c-19.82,24.09-17.586,45.778-6.383,65.758l-2.148,2.176C111.414,121.398,122.871,97.57,138.222,80.977L138.222,80.977z
		 M89.324,83.398c-0.875,2.309-4.699,6.262-4.699,6.262s0.507-3.851,0.824-5.066c0.246-0.926,0.793-2.18,1.336-2.778
		C88.328,80.117,89.867,82.043,89.324,83.398L89.324,83.398z M63.027,81.234l0.371,32.274l-2.789-2.809l-0.41-24.679L63.027,81.234z
		 M59.261,87.547l0.555,21.914c-2.781-6.563-6.691-13.75-6.769-13.68C53.047,95.781,56.246,91.535,59.261,87.547L59.261,87.547z
		 M81.265,94.406c0,0,0.426-0.359,1.094-1.121c1.445-1.461,1.574-1.473,1.441,0.496c-0.05,0.758-0.007,1.731-0.007,1.731
		c0.843-0.492,2.839-2.848,3.402-2.422c0.437,0.41,0.789,1.262,0.797,2.586c-0.051,2.597-1.52,4.976-3.844,5.754
		c-6.422,1.992-10.73-5.418-6.269-10.114c0.441-0.464,1.707-1.332,2.312-1.16C80.941,91.527,80.918,93.051,81.265,94.406
		L81.265,94.406z M144.988,92.078c0.375,1.02,0.852,2.031,2.152,2.488c-0.199,31.379-0.051,86.938-0.051,86.938l6.313,5.922
		l-0.043,2.586l-8.363-7.657C144.996,182.354,144.546,116.84,144.988,92.078L144.988,92.078z M151.257,93.531
		c0.223,3.035-0.289,6.231,0.23,9.352c0.516,2.152,1.293,4.097,1.355,6.219c0.059,1.941-0.066,3.046-0.895,5.753
		c-0.578,1.891-0.637,2.192-0.77,4.086c-0.313,2.629,0.539,5.016,1.191,7.114c0.867,2.781,0.625,6.145-0.762,10.578
		c-0.5,1.597-0.598,2.269-0.523,3.719c0.191,3.035,1.277,5.921,1.828,8.902c0.301,1.711-0.008,3.945-1.059,7.734
		c-0.391,1.409-0.805,3.866-0.805,4.797c0,0.996,0.32,2.871,0.625,3.68c1.461,3.836,1.531,4.523,1.609,6.828
		c0.008,1.729-0.492,3.479-1.105,5.004c-1.023,2.433-0.352,4.933,0,7.668l-2.516-2.149c-0.742-2.343-0.48-4.53,0.207-6.276
		c0.98-2.734,1.223-2.988,1.211-4.56c-0.02-2.085-1.215-4.554-1.707-6.019c-0.879-2.606-0.883-5.16-0.008-7.914
		c0.426-1.352,1.047-4.004,1.184-5.078c0.27-2.071,0.066-3.703-0.973-7.86c-0.508-2.026-0.613-2.808-0.648-4.823
		c-0.035-1.871,0.238-3.813,0.836-6.063c0.867-3.582,0.855-5.73-0.27-9.051c-0.91-2.742-1.164-4.606-0.93-6.789
		c0.133-1.266,0.48-2.457,1.063-3.641c1.078-2.691,1.242-5.265,0.441-7.836c-1.379-5.258-1.355-7.929-1.223-12.676L151.257,93.531z
		 M144.187,95.25c-0.219,21.508,0.004,46.125,0.004,46.125s-6.371,4.461-6.344,4.229c-8.211-13.534-11.34-33.476,3-51.459
		C140.847,94.145,143.156,95.129,144.187,95.25L144.187,95.25z M47.297,100.379c11.621,21.691,13.128,43.604-6.079,66.086
		c0.618,1.988,0.516,3.84,0.211,5.652c3.743-2.914,33.778-32.91,8.485-74.676L47.297,100.379z M106.503,98.613l5.703,0.332
		l0.387,4.91l-1.848,1.829c0,0-0.031-1.016-0.055-1.922c-0.031-1.11-0.188-2.078-0.293-2.043c-0.094,0.031-0.199,1.324-0.281,2.734
		l-0.086,2.109l-0.637,0.637c-0.852,0.852-1.023,0.785-1.055-0.414c-0.074-2.601-0.066-2.781-0.258-2.59
		c-0.105,0.11-0.164,1-0.191,2.344c-0.02,1.066-0.098,2.094-0.168,2.273c-0.145,0.372-1.227,1.344-1.504,1.344
		c-0.262,0-0.25-0.379-0.25-1.996c-0.004-1.367-0.145-2.117-0.363-1.613c-0.051,0.117-0.145,1.476-0.164,2.578
		s-0.09,2.109-0.156,2.234c-0.238,0.446-1.359,1.391-1.555,1.317c-0.285-0.11-0.355-0.918-0.344-2.274
		c0.004-0.664,0.105-1.222-0.148-1.402c-0.254-0.184-0.301,0.586-0.23,2.535l-0.02,2.117l-0.715,0.782
		c-1.137,1.168-1.215,1.113-1.215-0.903c0.051-1.597-0.008-2.297-0.32-2.172c-0.316,0.129-0.191,0.899-0.129,2.473
		c0.055,1.406,0.039,2.109-0.059,2.289c-0.074,0.141-0.445,0.559-0.816,0.922c-0.371,0.359-0.828,0.863-0.883,0.863
		c-0.09-1.691-0.234-5.34-0.234-5.34l-5.949-0.261c0,0,1.219-1.446,1.734-1.727c0.27-0.144,0.691-0.16,2.18-0.094
		c1.02,0.043,2.387-0.043,2.508-0.089c0.445-0.172-0.484-0.325-1.797-0.411c-0.879-0.062-1.105-0.039-2.078-0.183l0.867-0.891
		l0.648-0.648l1.898,0.062c1.148,0.039,2.004,0.031,2.137-0.043c1.121-0.219,0.07-0.476-1.211-0.476
		c-1.25-0.004-1.957-0.004-1.957-0.282c0-0.277,1.398-1.546,1.797-1.628c0.207-0.043,1.223-0.086,2.262-0.094
		c1.785-0.016,2.434-0.039,2.332-0.336s-1.281-0.211-2.07-0.246c-2.184,0-2.285-0.086-0.789-1.391l0.723-0.633l1.367,0.039
		c2.066,0.055,3.066-0.027,3.066-0.222c0-0.176-1.344-0.348-2.484-0.348c-0.684,0-1.238,0.012-1.238,0.012
		c0.508-0.664,1.055-1.203,1.652-1.793l1.848-0.035c1.344,0.019,2.172,0.07,2.195-0.176s-0.484-0.242-1.102-0.246
		c-0.84-0.004-1.832-0.078-1.965-0.211c-0.141-0.141,0.121-0.535,0.707-1.059L106.503,98.613z M50.007,98.676
		c15.961,26.074,10.2,54.25-7.597,71.789l-0.524-3.422c16.805-20.435,19.739-41.531,6.145-66.356L50.007,98.676z M79.695,102.176
		c-2.867,4.312-7.25,8.562-8.902,12.078c-0.34,0.398-0.45,1.289-0.977,1.469c-0.262,0-0.348-0.496-0.281-1.649
		c0.051-0.867,0.129-1.156,0.551-2.004c2.261-4.125,4.882-7.093,7.773-11.015L79.695,102.176z M80.363,102.594l2.652,0.168
		c-0.59,1.875-1.383,3.211-2.32,4.429c-1.203,1.559-2.648,3.129-4.332,5.047c-2.441,2.782-3.664,5.61-3.551,6.852
		c-0.609,0.644-1.031,1.086-1.808,1.746l-1.543-1.422C70.605,113.539,76.152,108.141,80.363,102.594L80.363,102.594z
		 M112.773,104.98l0.859,0.051c2.938,0.172,4.77,0.352,4.875,0.481c0.066,0.078,0.152,0.527,0.195,1
		c0.063,0.715,0,1.191-0.375,2.898c-0.25,1.125-0.527,2.121-0.621,2.215c-0.336,0.344-0.473,0-0.629-1.594
		c-0.094-0.961-0.133-1.664-0.258-1.586c-0.063,0.039-0.195,1.071-0.156,1.84c0.098,2.008,0.086,2.496-0.539,3.102
		c-1.09,1.058-1.148,0.953-1.23-0.93c-0.035-0.777-0.223-1.914-0.277-1.969c-0.234-0.238-0.313,0.844-0.316,2.672v1.949l-0.52,0.563
		c-0.676,0.734-0.895,0.844-1.145,0.598c-0.152-0.157-0.094-0.489-0.094-1.602c0-1.305-0.23-2.059-0.477-1.809
		c-0.047,0.047-0.059,1.313-0.063,2.411c-0.004,1.101-0.016,2.074-0.031,2.16c-0.039,0.265-1.277,1.511-1.5,1.511
		c-0.258,0-0.469-1.437-0.469-2.613c0-0.781-0.164-0.922-0.332-0.488c-0.039,0.105-0.074,1.207-0.074,2.195v1.793l-0.727,0.75
		c-0.973,1.008-1.129,0.949-1.133-0.43c0-1.183-0.082-1.812-0.32-1.812c-0.137,0-0.168,0.562-0.168,1.894
		c0,0.915-0.063,1.821-0.133,2.012c-0.074,0.192-0.391,0.613-0.707,0.934c-0.316,0.324-0.645,0.59-0.723,0.59
		c-0.137,0-0.328-1.125-0.277-1.61c0.012-0.101,0.012-0.808,0-1.574c-0.023-1.82,0.102-1.746-2.809-1.836
		c-3.414-0.105-3.465-0.129-2.438-1.121c0.977-0.945,0.84-0.91,3.102-0.758c1.816,0.121,2.035,0.113,2.219-0.07
		c0.113-0.11,0.176-0.231,0.141-0.266c-0.035-0.035-0.727-0.097-1.539-0.144c-2.25-0.125-2.445-0.285-1.492-1.239l0.535-0.539h2.301
		c1.555,0,2.609-0.07,2.668-0.16c0.148-0.242-0.469-0.304-1.945-0.39c-0.793-0.047-1.539-0.11-1.656-0.145
		c-0.375-0.113-0.238-0.492,0.398-1.082l0.609-0.574h2.031c1.883,0,2.805-0.121,2.805-0.371c0-0.176-0.371-0.246-1.34-0.258
		c-1.367-0.02-2.281-0.152-2.344-0.336c0.336-0.648,0.797-1.008,1.336-1.547l2.063,0.07c2.078,0.075,2.73,0,2.73-0.363
		c0-0.188-0.891-0.324-2.043-0.254c-0.738,0.043-1.637-0.133-1.637-0.394c0-0.114,0.297-0.504,0.664-0.868l0.668-0.656l2.023,0.082
		c1.129,0.043,2.332,0.035,2.422-0.027c0.336-0.231-0.445-0.41-1.715-0.484c-1.957-0.114-2.086-0.266-1.051-1.247L112.773,104.98z
		 M42.257,106.062c10.477,18.761,8.911,36.438-2.25,51.481c-1.281-0.746-2.644-1.152-4.105-1.31l-0.281-45.299L42.257,106.062z
		 M117.195,113.395c0.207-0.032,0.203,0.312,0.145,1.039c-0.047,0.586-0.133,1.199-0.195,1.363
		c-0.121,0.316-0.215,0.328-1.234,0.183c-1.16-0.164-1.141-0.375,0.133-1.625C116.656,113.746,117.007,113.422,117.195,113.395
		L117.195,113.395z M60.945,114.238c0,0,1.379-0.008,2.066,0.016c0,0,0.11,3.512,0.391,5.535l4.492,0.215l-1.746,1.812l-3.402-0.105
		C62.746,121.711,61.711,116.727,60.945,114.238L60.945,114.238z M114.457,116.359c0.633-0.007,2.293,0.274,2.484,0.469
		c0.152,0.152,0.156,0.527,0.023,2.793c-0.047,0.816-0.098,2.57-0.109,3.899c-0.02,2.402-0.02,2.41-0.297,2.449
		c-0.363,0.051-0.406-0.074-0.504-1.657c-0.059-0.894-0.18-1.671-0.285-1.707c-0.117-0.039-0.105,0.747-0.105,2.373v2.097
		c-0.359,0.297-0.691,0.691-1.102,0.898c-0.25,0-0.383-0.395-0.508-1.493c-0.125-1.089-0.246-1.858-0.391-1.617
		c-0.035,0.06-0.02,1.246,0.051,2.22l0.125,1.776l-0.789,0.794c-0.809,0.816-0.91,0.879-1.039,0.672
		c-0.301-0.809,0.125-4.513-0.602-4.98c-0.117-0.063-1.086-0.09-2.211-0.137c-1.895-0.078-2.969-0.109-3.234-0.341
		c-0.16-0.137,0.734-1.175,1.195-1.382c0.332-0.152,0.707-0.16,2.27-0.054c1.809,0.121,2.723,0.105,2.48-0.125
		c-0.063-0.059-0.984-0.196-1.703-0.266c-1.457-0.144-1.969-0.293-1.969-0.562c0.34-0.602,0.754-0.954,1.254-1.469l0.703,0.074
		c0.387,0.039,1.301,0.137,2.035,0.219c0.73,0.086,2.207,0.097,1.609,0.047c0.195-0.192-0.559-0.391-1.605-0.52
		c-1.977-0.246-2.156-0.469-1.16-1.449l0.609-0.598c1.035,0.078,2.086,0.106,3.113,0.262c0.754,0.121,1.16,0.078,1.16-0.176
		c0-0.18-0.375-0.172-1.285-0.351c-0.328-0.067-2.027-0.043-2.055-0.543C113.015,117.418,113.734,116.406,114.457,116.359
		L114.457,116.359z M68.441,120.617c0.301-0.015,0.316,0.719,0.348,2.656c0.035,2.125,0.07,2.493,0.25,2.672
		c0.176,0.176,0.609,0.234,2.476,0.327c2.856,0.146,2.93,0.188,1.922,1.157c-0.699,0.675-0.73,0.59-1.308,0.523
		c-1.508-0.176-3.715-0.138-3.801,0.004c-0.149,0.242,0.012,0.289,1.394,0.395c1.676,0.128,2.137,0.188,2.137,0.473
		c0,0.125-0.285,0.491-0.633,0.82l-0.636,0.589l-1.766-0.069c-1.859-0.074-2.817-0.103-2.817,0.151c0,0.153,1.063,0.321,2.747,0.489
		c0.437,0.043,0.886,0.047,0.91,0.121c0.058,0.183-0.793,1.238-1.317,1.629c-0.425,0.316-0.57,0.141-2.433,0.102
		c-1.907-0.043-2.071,0.03-1.715,0.383c0.086,0.082,0.398,0.094,1.109,0.141c1.164,0.082,1.727,0.257,1.727,0.547
		c0,0.277-1.051,1.363-1.543,1.598c-0.434,0.202-0.621,0.215-1.582,0.082c-0.758-0.109-0.903-0.266-0.883-0.977
		c0.008-0.321,0.066-2.395,0.125-4.614c0.113-4.28,0.148-4.5,0.715-4.418c0.242,0.036,0.297,0.325,0.363,1.778
		c0.07,1.547,0.133,1.852,0.391,1.852c0.094,0,0.109-0.613,0.051-2.102c-0.094-2.313-0.098-2.656,0.605-3.328
		c0.316-0.297,0.563-0.536,0.711-0.321c0.301,0.914,0.215,1.91,0.305,2.825c-0.012,0.921,0.347,1.113,0.429,0.234
		c-0.039-1.392-0.05-2.637-0.058-4.125l0.855-0.852C67.972,120.91,68.261,120.629,68.441,120.617L68.441,120.617z M62.875,122.352
		c0.343-0.059,2.254-0.028,2.531,0.039c-0.481,0.757-1.504,1.746-2.203,2.183C63.027,124.582,62.843,122.73,62.875,122.352
		L62.875,122.352z M117,126.555l0.406,2.855l-3.121-0.211L117,126.555z M74.953,127.016c0.019,0,0.039,0.004,0.054,0.007
		c0.223,0.091,0.29,0.642,0.379,3.293c0.043,1.25,0.129,2.228,0.204,2.321c0.089,0.109,0.48,0.16,1.203,0.16
		c0.586,0,1.695,0.039,2.461,0.082c1.668,0.098,1.711,0.168,0.718,1.147L79.3,134.69l-2.093-0.082c-2.145-0.089-2.5-0.054-2.5,0.243
		c0,0.199,0.363,0.296,1.05,0.277c0.274-0.008,0.954,0.031,1.516,0.082c1.254,0.117,1.277,0.211,0.344,1.219l-0.672,0.723
		l-0.656-0.091c-1.051-0.144-3.809-0.108-3.969,0.052c-0.258,0.258,0.078,0.366,1.332,0.445c1.949,0.117,2.289,0.175,2.289,0.398
		c0,0.104-0.273,0.473-0.609,0.809l-0.606,0.605l-2.476-0.129c-1.735-0.027-2.328,0.004-2.368,0.112
		c-0.066,0.196,0.219,0.259,2.008,0.442c1.719,0.18,1.969,0.355,1.317,1.168c-0.719,0.89-0.989,0.992-2.34,0.863
		c-1.488-0.145-3.012-0.148-3.231-0.008c-0.343,0.215,0.008,0.359,1.067,0.441c1.601,0.117,2.539,0.289,2.539,0.523
		c0,0.266-0.531,0.944-1.047,1.34l-0.422,0.32l-1.828-0.195c-1.82-0.191-2.754-0.099-2.492,0.164
		c0.074,0.074,0.754,0.18,1.504,0.233c1.375,0.103,2.054,0.278,2.054,0.563c0,0.086-0.347,0.5-0.777,0.922
		c-0.43,0.429-0.918,0.715-0.918,0.715l-5.629-0.504c0,0-0.289-1.004,0.278-3.735c0.507-2.461,0.718-3.015,0.96-2.558
		c0.071,0.129,0.133,0.726,0.18,1.133c0.113,0.988,0.356,1.609,0.504,1.609c0.16,0,0.16-0.586-0.051-1.969
		c-0.297-1.923-0.332-2,0.403-2.773c0.625-0.664,0.98-0.821,1.179-0.52c0.055,0.086,0.129,0.957,0.203,1.691
		c0.133,1.285,0.207,1.582,0.375,1.414c0.11-0.109,0.188-0.477,0.071-2.387l-0.153-1.855l0.825-0.84
		c0.754-0.766,0.839-0.821,0.992-0.621c0.101,0.132,0.219,0.934,0.273,1.882c0.082,1.407,0.192,1.868,0.399,1.664
		c0.097-0.097,0.047-3.289-0.055-4.026c-0.066-0.48-0.035-0.556,0.574-1.238c0.727-0.813,1.11-1.153,1.309-1.156
		c0.262-0.004,0.406,0.796,0.406,1.859c0,1.137,0.09,1.586,0.195,1.729c0.274,0.368,0.305-0.918,0.243-2.183l-0.075-2.313l0.75-0.75
		c0.711-0.712,0.766-0.742,0.969-0.544c0.164,0.164,0.152,0.56,0.219,1.728c0.097,1.613,0.414,2.397,0.508,1.277
		c0.047-0.255,0.039-0.746-0.016-1.098c-0.059-0.352-0.102-1.148-0.102-1.766c0.004-0.945,0.047-1.199,0.278-1.57
		C73.664,127.891,74.644,127.047,74.953,127.016L74.953,127.016z M107.476,128.776c0,0,1.258,1.075,1.258,1.38
		c0,0.137-0.5,0.727-1.172,1.391c-1.242,1.219-1.359,1.426-1.504,2.734c-0.055,0.488-0.301,1.137-0.875,2.289
		c-0.441,0.887-1.074,1.918-1.074,1.918c-1.984,2.37-3.855,4.543-7.332,9.547c-0.199,0.457-0.211,0.918-0.414,1.301
		c-0.156,0.285-0.508,0.516-0.66,0.582c-0.23,0.094-0.688,0.379-1.023,0.633c-1.297,0.992-2.133,2.297-2.512,3.922
		c-0.203,0.875-0.324,1.664-0.68,4.371c-0.148,1.113-0.637,3.051-0.637,3.051c-7.469-0.105-14.465,1.188-20.699,4.707
		L107.476,128.776z M117.46,129.926l1.664,7.551l-1.715-0.036l-0.172-5.479l-5.344-0.512l1.91-1.848L117.46,129.926z
		 M109.351,130.617c0.457,0.465,1.027,0.977,1.441,1.484c-1.426,4.777-5.953,10.977-10.445,17.121l-3.297-0.359
		c-0.059-0.134,4.563-6.578,6.777-9.02c0.84-1.02,1.414-1.989,2.164-3.492c0.273-0.543,0.746-1.95,1.113-3.418
		C107.882,131.996,109.355,130.633,109.351,130.617L109.351,130.617z M111.125,132.293l2.492,2.522l0.609,35.755
		c-3.844-3.016-8.367-5.246-13.195-6.945l0.84-1.922l0.93-1c3.285-3.551,2.551-7.375,0.055-10.078
		c3.043-4.438,5.797-7.742,8.117-12.074l-0.031-2.969C110.914,132.844,111.125,132.293,111.125,132.293L111.125,132.293z
		 M81.332,133.785c0.261-0.027,0.293,0.633,0.359,2.508c0.063,1.754,0.137,2.582,0.254,2.766c0.156,0.246,0.305,0.266,2.371,0.328
		c2.184,0.066,2.641,0.129,2.641,0.363c0,0.065-0.282,0.402-0.625,0.746l-0.621,0.625l-1.946-0.031
		c-1.035,0.031-2.261,0.012-2.293,0.043c-0.172,0.156,0.477,0.375,1.422,0.379c0.59,0,1.528,0.105,1.637,0.145
		c0.367,0.141,0.195,0.508-0.606,1.277l-0.8,0.773l-1.77-0.035c-0.969-0.02-2.152,0.012-2.305,0.062
		c-0.535,0.177-0.269,0.325,0.622,0.337c1.484,0.02,2.511,0.145,2.554,0.375c0.02,0.113-0.254,0.523-0.617,0.918l-0.664,0.707
		l-2.598-0.109c-2.457,0.019-2.789,0.199-0.738,0.406c0.781,0.078,2.016,0.27,2.063,0.277c0.043,0.008,0.113,0.102,0.152,0.207
		c0.086,0.223-0.902,1.339-1.43,1.609c-0.273,0.141-0.461,0.152-0.933,0.043c-0.551-0.125-2.934-0.102-3.188,0.051
		c-0.215,0.129,0.25,0.277,0.91,0.289c0.996,0.023,2.184,0.309,2.184,0.547c0,0.195-0.504,0.82-1.043,1.289
		c-0.246,0.215-0.836,0.023-2.481,0.074c-1.125,0.039-1.875,0.144-1.875,0.219c0,0.066,0.559,0.289,1.274,0.339
		c0.711,0.052,1.687,0.22,1.754,0.286c0.168,0.168-1.098,1.66-1.098,1.66l-5.402-0.074l-0.5-5.723l0.461-0.531
		c1.035-1.191,1.258-1.02,1.465,1.121c0.152,1.57,0.265,2.051,0.492,1.824c0.082-0.086,0.047-0.98-0.035-2.297
		c-0.071-1.086-0.129-2.074-0.129-2.199c0-0.297,1.23-1.586,1.468-1.543c0.239,0.047,0.372,0.582,0.497,2.047
		c0.105,1.203,0.16,1.535,0.398,1.297c0.109-0.114,0.125-0.743,0.016-2.266l-0.149-1.992l0.524-0.617
		c1.046-1.243,1.253-1.105,1.378,0.91c0.086,1.359,0.219,2.078,0.469,2.078c0.086,0,0.086-1.021,0.035-2.555l-0.078-2.305
		l0.657-0.664c0.359-0.363,0.726-0.661,0.808-0.661c0.258,0,0.402,0.578,0.563,1.946c0.179,1.531,0.238,1.793,0.386,1.645
		c0.063-0.063,0.051-0.988-0.035-2.18l-0.18-2.281l0.793-0.809c0.442-0.441,0.883-0.789,0.981-0.77
		c0.238,0.047,0.394,0.737,0.414,1.715c0.016,0.91,0.172,1.695,0.375,1.897c0.102,0.099,0.129-0.461,0.105-2.089
		c-0.039-2.504-0.105-2.695,1.024-3.872C81,134,81.195,133.797,81.332,133.785L81.332,133.785z M110.503,134.809l0.023,3.496
		c-1.402,3-4.641,7.395-7.922,12.109l-1.715-0.926C105,144.104,108.433,139.086,110.503,134.809L110.503,134.809z M63.609,135.906
		c0.074,0,0.16,0.004,0.258,0.008c0.887,0.051,0.91,0.358,0.086,1.129c-0.348,0.324-0.738,0.582-0.891,0.582
		c-0.254,0-0.269-0.039-0.187-0.703C62.968,136.102,63.07,135.91,63.609,135.906L63.609,135.906z M117.128,138.43l2.418,2.379
		l0.609,25.609l-2.547,4.152L117.128,138.43z M120.16,141.805c2.184,5.132,4.449,9.949,6.961,13.852l-6.473,9.137L120.16,141.805z
		 M98.39,149.785c2.973-0.043,5.715,2.313,6.059,4.707c0.648,2.746-0.766,5.707-3.086,6.612c-0.813,0.293-1.285,0.313-1.285,0.313
		c-0.281-1.656-0.16-3.254-0.535-4.938c0,0-1.395,1.841-2.176,2.481c-0.406,0.226-0.59,0.285-0.539-0.246
		c0.027-0.93,0.102-2.996,0.102-2.996l-3.438,3.559c0,0-0.281-0.387-0.613-1.273c-1.078-2.891,0.324-5.906,2.535-7.293
		C96.382,150.074,97.398,149.797,98.39,149.785L98.39,149.785z M144.125,149.57l0.066,3.129
		c-5.395,4.184-13.09,12.996-19.684,24.484l-2.906,1.223C126.074,167.715,135.519,156.828,144.125,149.57L144.125,149.57z
		 M144.183,153.684l0.059,4.668c-4.762,4.574-8.898,9.305-12.496,15.387c-2.102,1.012-5.996,2.93-5.996,2.93
		C125.261,176.547,136.355,159.281,144.183,153.684L144.183,153.684z M96.164,157.68c0.215-0.004,0.207,0.418,0.137,1.027
		c-0.152,1.375-0.316,1.875-0.82,2.547c-1.742,2.058-4.512,4.859-4.891,7.461c-0.191,1.394,0.895,2.695,1.961,2.563
		c3.316-0.414,3.672-6.305,3.953-9.212c0.117-0.718,0.168-1.323,0.289-1.55c0.699-0.891,1.449-1.762,2.391-2.465l0.406,4.504
		l1.867-0.625c-5.266,7.156-3.754,7.605-6.531,10.539c-2.582,2.722-7.589-0.379-6.309-4.523c1.117-2.785,2.84-5.582,3.305-8.57
		c0.125-0.887,0.199-1.5,0.199-1.5l1.199,2.496C93.929,159.77,95.707,157.785,96.164,157.68L96.164,157.68z M144.382,159.223
		l-0.012,3.214c-2.457,2.767-4.578,4.892-7.086,8.711l-3.984,1.817C135.902,168.012,140.171,163.375,144.382,159.223
		L144.382,159.223z M95.695,162.059c0,0,0.266,1.5-0.316,4.227c-0.277,1.293-1.52,5.063-3.488,4.176
		c-1.668-1.478,0.367-4.211,1.391-5.504C94.074,164.031,94.933,163.027,95.695,162.059L95.695,162.059z M90.449,162.445
		l-1.086,2.324c-9.762,0.035-19.242,3.527-27.68,10.656l-2.136-0.699C68.488,166.27,79.57,162.16,90.449,162.445L90.449,162.445z
		 M100.714,164.229c11,3.685,16.082,9.06,20.242,14.7l-1.738,0.891c-4.363-5.645-9.746-10.809-19.766-13.793L100.714,164.229z
		 M88.109,167.707l-0.469,1.992c-6.16,0.184-12.664,2.371-18.988,6.762l-2.281-0.363C72.738,171.102,80.007,168.25,88.109,167.707
		L88.109,167.707z M116.265,181.16l-1.953,0.922c-5.832-7.563-11.105-9.719-17.094-11.646l0.645-1.679
		C105.914,170.895,111.82,174.979,116.265,181.16L116.265,181.16z M34.957,172.242l0.168,20.184l-1.403-0.281l-0.203-19.52
		L34.957,172.242z M31.703,173.336c-2.68,10.039-0.602,12.641,0.367,18.5l-2.219-0.356c-2.16-5.933-2.383-11.335-0.562-17.64
		L31.703,173.336z M99.136,174.875c0.168,0.16-0.137,0.656-0.551,0.897c-0.398,0.239-0.313,0.2-0.949-0.03
		c-0.625-0.223-1.418-0.813-1.418-1.035C96.675,174.715,98.738,174.69,99.136,174.875L99.136,174.875z M101.027,175.02
		c0.367,0.042,1.43,0.023,1.496,0.355c0.023,0.199-0.395,0.52-1.246,1.102c-1.293,0.887-1.734,1.059-2.113,0.641
		c-0.359-0.398-0.254-0.813,0.352-1.371C100.105,175.203,100.445,175.016,101.027,175.02L101.027,175.02z M56.832,175.238
		c0.742,0,2.07,0.918,2.871,1.98c0.808,1.27,1.742,2.574,2.496,3.859c1.715,2.922,3.035,5.883,4.141,8.918
		c2.902,7.211,4.601,14.207,6.015,21.155c-0.027,0.587-0.535,0.575-0.953,0.435c-0.215-0.066-0.43-0.211-0.477-0.324
		c-0.597-1.7-0.804-3.441-1.261-5.148c-1.145-4.273-1.555-6.723-3.758-12.746c-1.145-3.125-2.801-7.477-4.609-10.824
		c-1.161-2.141-2.504-4.125-4.243-5.875c-0.461-0.461-1.035-0.879-1.035-0.969C56.019,175.402,56.308,175.238,56.832,175.238
		L56.832,175.238z M103.847,175.473c0.688,0.168,2.348,0.363,1.719,0.91c-2.332,0.898-3.086,1.871-4.324,2.859
		c-0.188,0-0.922-0.914-0.922-1.138C101.32,176.871,102.585,176.348,103.847,175.473L103.847,175.473z M60.203,175.479
		c0.976-0.034,1.929,1.224,2.379,2.021c3,4.41,5.566,10.699,7.675,16.863c2.274,6.637,3.715,13.02,4.344,17.547
		c-0.054,0.141-0.336,0.191-0.66,0.188c-0.613-0.004-0.699-0.145-0.855-0.633c-1.563-7.488-3.664-15.219-6.204-21.781
		c-1.363-3.5-2.914-7.008-5.089-10.536c-1.485-2.175-2.325-3.315-2.262-3.487c0.047-0.113,0.289-0.172,0.578-0.172
		C60.14,175.483,60.172,175.479,60.203,175.479L60.203,175.479z M53.504,175.608c1.316-0.004,3.492,1.56,4.968,3.563
		c3.133,4.293,4.926,9.312,6.785,14.18c2.137,5.578,3.68,11.777,4.598,16.66c0.156,0.699,0.414,1.004-0.246,1.222
		c-1-0.284-0.977-0.257-1.262-1.472c-0.386-1.305-0.507-2.625-0.879-3.953c-2.109-7.602-4.476-16.036-8.406-22.898
		c-4.719-7.556-6.09-5.453-6.851-6.785C52.269,175.824,52.797,175.613,53.504,175.608L53.504,175.608z M64.859,177.457
		c4.059,7.055,5.844,11.391,7.078,15.651c1.871,6.457,4.086,11.618,5.059,19.161c0,0-1.067,0.02-1.492-0.156
		c-0.18-0.177-0.368-0.93-0.477-1.548c-0.977-5.323-2.559-11.625-4.246-16.593c-1.816-5.523-3.981-10.782-7.172-15.859
		c-0.84-1.367-1-1.906-0.484-1.93C64.039,176.246,64.441,176.949,64.859,177.457L64.859,177.457z M107.117,176.703
		c0.188,0,0.262-0.027,0.605,0.09c0.539,0.187,0.711,0.305,0.738,0.516c0.047,0.309-0.285,0.41-1.324,0.652
		c-0.816,0.191-2.41,1.043-3.516,1.961c-0.512,0.43-0.957,0.887-1.078,0.887c-0.254,0-0.863-0.668-0.863-0.95
		C102.527,178.565,105.226,176.789,107.117,176.703L107.117,176.703z M51.23,176.875c3.434,0.104,6.121,4.094,7.527,6.781
		c0.551,1.055,1.262,2.198,1.801,3.402c2.785,6.227,5.149,14.043,6.305,19.035c0.555,2.402,1.199,4.164,0.973,4.633
		c-0.286,0.18-0.883,0.043-1.157-0.191c-0.179-0.148-0.273-0.699-0.586-1.699c-0.8-2.574-2.125-9.926-5.582-17.652
		c-0.078-0.172-1.75-5.063-4.64-9.7c-1.176-1.886-3.082-3.073-4.817-3.461c-0.871-0.14-1.132-0.039-1.078-0.511
		c0.035-0.297,0.129-0.379,0.598-0.528C50.781,176.918,51,176.883,51.23,176.875L51.23,176.875z M72.691,192.812
		c-0.234,0-0.441-0.448-0.601-1.183c-0.075-0.363-0.18-0.621,0.496-1.047c4.261-4.527,0.597-11.181-4.754-11.758
		c-0.5-0.074-1.137-0.078-1.325-0.148c-0.273-0.153-0.769-1.114-0.988-1.5C72.918,175.379,80.769,185.973,72.691,192.812
		L72.691,192.812z M109.546,178.012c0.438,0.113,1.398,1,1.277,1.195c-0.145,0.233-0.973,0.242-2.168,0.453
		c-2.543,0.448-3.637,2.109-4.82,3.34c-0.262,0.082-0.496-0.103-0.73-0.504c-0.172-0.293-0.313-0.648-0.313-0.785
		C104.117,179.785,107.656,177.836,109.546,178.012L109.546,178.012z M49.488,178.582c2.164,0,4.324,1.047,5.543,2.758
		c4.441,6.644,9.43,21.414,10.617,28.703c-0.121,0.234-0.433,0.258-1.051,0.078c-0.343-0.099-0.3-0.207-0.519-0.883
		c-1.395-5.309-2.922-10.466-4.719-15.191c-0.93-2.434-2.019-4.817-3.043-6.957c-0.652-1.352-1.957-3.758-2.453-4.496
		c-1.168-2.191-3.527-2.836-5.012-2.129c-1.539,0.836-1.734,2.82-0.562,3.703c0.972,0.68,2.508,0.57,3.07-0.484
		c0.191-0.372,0.129-0.832,0.008-0.95c-0.121-0.112-0.34-0.081-0.383,0.043c0.078,1.289-1.57,1.376-2.289,0.864
		c-1.148-0.855-0.383-3.575,2.746-2.48c1.211,0.637,1.613,1.836,1.043,3.112c-0.586,1.306-1.496,1.899-2.898,1.892
		c-1.704-0.031-3.633-1.228-3.645-3.371c0.004-1.606,0.746-2.938,2.137-3.828C48.593,178.633,48.797,178.582,49.488,178.582
		L49.488,178.582z M67.808,179.578c5.246,0.242,7.66,6.418,4.899,10.148c-0.703,0.891-1.149,0.727-1.45-0.422
		c-0.148-0.473-0.312-0.543,0.11-0.91c2.461-2.355,0.441-6.934-3.61-7.118c0,0-0.757-1.101-0.832-1.687
		C67.195,179.492,67.558,179.578,67.808,179.578L67.808,179.578z M111.574,180.004c0.398,0.098,1.242,0.906,1.242,1.191
		c0,0.336-0.164,0.273-1.098,0.113c-2.207-0.395-4.418,0.882-6.266,3.668c-0.895,1.671-1.004,1.516-1.477,0.074
		c-0.242-0.742-0.246-0.723,0.691-2.09C106.421,180.715,109.007,179.687,111.574,180.004L111.574,180.004z M113.628,182.84
		c1.848,1.676,0.984,5.371-1.512,5.754c-2.199,0.254-4.156-2.125-2.77-3.746c0.902-0.977,2.027-1.075,2.723-0.234
		c0.719,0.866,0.414,2.051-0.605,2.172c-0.121,0.043-0.219,0.137-0.219,0.207c0,0.215,0.906,0.155,1.215-0.095
		c0.621-0.683,0.633-1.729,0.078-2.479c-0.492-0.66-1.539-1.188-2.379-0.844c-1.48,0.527-2.988,2.534-3.852,5.063
		c-0.242,0.711-0.383,1.379-0.488,1.535c-0.211,0.324-0.195,0.316-0.391,0.191c-0.172-0.109-0.484-1.656-0.484-2.246
		c0-0.449,0.383-1.634,0.895-2.645C107.445,182.492,111.046,180.492,113.628,182.84L113.628,182.84z M68.621,182.09
		c2.148,0.129,3.851,3.172,2.914,5.293c-0.289,0.39-0.703,0.652-0.899,0.41c-0.07-0.09-0.398-1.086-0.859-2.141
		c-0.457-1.055-0.879-2.087-1.008-2.344C68.429,182.578,68.179,182.082,68.621,182.09L68.621,182.09z M54.019,183.854
		c2.449,4.336,4.496,9.31,6.192,14.165c1.324,3.781,2.41,7.492,3.035,10.773c0.058,0.332,0.14,0.504-0.004,0.647
		c-0.242,0.243-1.41-0.354-1.41-0.354c-2.047-7.059-3.703-14.129-8.578-23.113c0,0-0.211-0.359-0.266-0.59
		c-0.066-0.563,0.098-1.278,0.441-1.676C53.566,183.562,53.754,183.551,54.019,183.854L54.019,183.854z M26.543,192.047
		c11.582,0.777,20.539,5.656,25.32,18.543c-1.699-0.957-10.32-7.574-25.188-8.449l-0.023-1.789
		c10.656-0.086,21.051,5.46,20.836,5.378c-3.965-8.171-13.926-11.483-20.977-11.698L26.543,192.047z M106.878,194.651
		c-0.73,1.146-0.699,1.099-1.051,2.082c0.043,0.321,0.102,2.321,0.148,3.485c0.063,1.484,0.102,2.133,0.219,2.273
		c0.199,0.237,0.602,0.277,0.777,0.063c0.07-0.086,0.191-0.407,0.273-0.711c0.953-3.61,1.402-4.961,1.789-5.41
		c0.254-0.329,0.34-0.297,1.387-0.176c2.363,0.207,3.164-2.606,1.621-3.738C109.98,191.371,107.789,193.297,106.878,194.651
		L106.878,194.651z M109.367,195.418c-1.684,1.387-1.734,3.387-2.246,5.227c-0.273,1.238-0.66,1.891-0.816,0.023
		c-0.289-2.59,0.074-4.523,1.199-6.047c0.691-1.117,1.836-1.871,2.859-1.941c2.211-0.157,2.438,1.593,1.82,2.535
		C111.738,195.895,110.5,196.19,109.367,195.418L109.367,195.418z M29.605,196.254c0.836,0,1.508,0.672,1.508,1.508
		c0,0.832-0.672,1.508-1.508,1.508c-0.832,0-1.508-0.676-1.508-1.508C28.097,196.926,28.773,196.254,29.605,196.254L29.605,196.254z
		 M34.414,197.285c0.742,0,1.347,0.602,1.347,1.344c0,0.746-0.605,1.351-1.347,1.351c-0.746,0-1.348-0.604-1.348-1.351
		C33.066,197.887,33.668,197.285,34.414,197.285L34.414,197.285z M38.793,198.762c0.609,0,1.097,0.492,1.097,1.097
		c0,0.606-0.488,1.099-1.097,1.099c-0.606,0-1.098-0.492-1.098-1.099C37.695,199.254,38.187,198.762,38.793,198.762L38.793,198.762z
		 M41.902,200.729c0.469,0,0.848,0.384,0.848,0.853c0,0.465-0.379,0.844-0.848,0.844s-0.848-0.379-0.848-0.844
		C41.054,201.113,41.433,200.729,41.902,200.729L41.902,200.729z M31.011,203.437c-0.324,1.634-0.07,3.317,0.305,4.474
		c0.859,2.496,0.469,6.965,0.469,6.965l-2.516,2.516c0.18-2.344,0.461-4.805,0.332-6.777c-0.09-1.305-0.683-2.527-0.836-3.841
		c-0.14-1.214,0.075-3.644,0.075-3.644L31.011,203.437z M35.082,204.187l0.09,10.661l-8.606,8.336l-0.012-2.2l7.336-7.272
		l-0.152-9.875L35.082,204.187z M56.3,228.492l-0.566,0.922h9.707l0.203-0.922H56.3z M68.863,228.492l-0.231,0.922h4.497
		l0.148-0.922C73.277,228.492,70.914,228.496,68.863,228.492L68.863,228.492z M76.226,228.492l-0.144,0.922h16.679l-0.246-0.922
		H76.226z M95.722,228.492l0.266,0.922h4.441l-0.367-0.922H95.722z M103.148,228.492l0.324,0.922h7.637l-0.633-0.922H103.148z
		 M103.148,228.492"/>
</g>
</svg>
