<?xml version="1.0" encoding="utf-8"?>
<!-- Generator: Adobe Illustrator 15.0.0, SVG Export Plug-In . SVG Version: 6.00 Build 0)  -->
<!DOCTYPE svg PUBLIC "-//W3C//DTD SVG 1.1//EN" "http://www.w3.org/Graphics/SVG/1.1/DTD/svg11.dtd">
<svg version="1.1" id="Layer_1" xmlns="http://www.w3.org/2000/svg" xmlns:xlink="http://www.w3.org/1999/xlink" x="0px" y="0px"
	 width="178.582px" height="249.449px" viewBox="0 0 178.582 249.449" enable-background="new 0 0 178.582 249.449"
	 xml:space="preserve">
<g>
	<path fill="#FFFFFF" d="M8.504,0"/>
	<path fill="#131F67" d="M23.281,19.871c0.066,63.301,0.738,141.094,0.785,210.035l130.973-0.031l-0.871-209.699L23.281,19.871z
		 M61.996,21.215c22.594,0.613,45.332-0.051,68.098,0.129c0,0-8.273,14.406-10.777,18.937c-0.551,1-0.605,1.703-0.313,2.117
		c0.461,0.641,0.422,1.723-0.09,2.348c-0.223,0.27-0.32,0.441-0.336,0.602c-0.02,0.16,0.125,0.336,0.242,0.625
		c0.406,1.382-0.641,2.339-1.734,2.781c-0.734,0.297-2.367,0.496-3.57,0.437c-7.555-0.359-22.371-6.742-28.476-7.242
		c-4.235-1.179-9.707-0.765-14.219-0.512c-0.855,0.051-0.703-1.933-0.703-1.933C69.406,32.945,64.757,27.234,61.996,21.215
		L61.996,21.215z M131.32,21.812l21.352,0.024l0.098,3.449l-8.984,9.211c-0.848,0.859-1.516,1.574-1.516,1.574l-0.051,8.309
		c-6.129-3.289-7.348-7.223-8.465-11.551c-10.242,7.555-10.719,24.086,0.457,32.598c0.094-3.699,2.91-10.961,7.902-11.5l0.07,28.793
		l-6.141-5.996l-13.352,0.175c2.203-3.57,2.254-6.406,0.828-9.753c-2.398-5.469-6.102-17.954-5.82-17.911
		c0,0,0.109-0.269,0.41-0.336c1.105-0.246,1.813-1.316,1.496-2.597c-0.063-0.414-0.059-0.317,0.223-0.856
		c1.086-1.851-0.207-3.863-0.207-3.863L131.32,21.812z M60.496,21.988l8.011,14.485c0,0-0.101,0.664-0.058,1.054
		c0.062,0.559,0.25,1.059,0.57,1.582c0.211,0.344,0.367,0.817,0.418,1.254c0.078,0.719,0.078,0.719,1.129,1.668
		c0.223,0.199,0.266,0.324,0.184,0.531c-0.348,0.879-0.145,2.676,0.543,4.825c0.871,2.715,1.093,2.679-0.524,6.308
		c-0.34,0.758-0.746,1.766-1.187,2.7c-2,4.105-2.309,5.218,1.125,7.41c0.965,0.613,1.25,1.148,1.008,2.375
		c-0.192,0.968-0.231,1.586,0.234,2.129c0.301,0.355,0.574,0.41,0.5,0.683c-0.051,0.188-0.277,0.988-0.203,1.664
		c0.203,1.821-1.899,4.504-3.817,5.442c-0.386,0.273-0.496-0.059-0.711-0.442c-1.988-3.48-6.937-2.07-7.265,2.082
		c-0.086,1.098-0.051,1.574-0.336,1.809c-0.094,0.078-0.387,0.242-0.387,0.242s-7.402,4.816-12.113,7.289
		c-0.305,0.164-0.582,0.43-0.797,0.473c-0.25,0.051-0.438,0.004-0.59-0.153c-1.738-3.304-0.777-7.211-0.629-8.593
		c-0.035-0.493-0.457-0.578-1.086-0.586c-1.07-0.012-2.613,1.074-2.949,2.086c-0.285,0.859-0.465,1.414-0.723,1.41
		c-0.261-0.004-0.386-0.348-1.031-1.59c-1.344-2.582-1.551-2.906-2.805-4.406c-1-1.196-1.855-1.352-2.835-0.461
		c-0.68,0.617-0.657,0.078-1.239-0.235c-1-0.679-2.508-0.07-2.543,0.891c-0.031,0.805-0.039,1.41-0.855,1.461
		c-0.906,0.059-1.301,1.234-1.047,2.906c0.137,0.879,0.16,1.02-0.106,1.344c-0.878,1.051-0.996,1.777-0.511,3.246
		c1.379,4.188,3.371,7.004,5.246,10.813c0,0-4.762,2.703-7.59,4.273l-0.074-77.898L60.496,21.988z M153.074,26.125l0.113,67.668
		L142.96,83.742c0,0-0.199-12.965-0.188-18.265c0.008-5.305,0.086-10.606,0.066-11.59c-0.023-0.985,0.051-5.18,0.082-9.489
		c0.07-9.023-0.758-7.906,0.922-9.636L153.074,26.125z M133.093,34.238l0.563,1.633c-4.285,2.457-9.527,16.137,0.098,26.184
		l-0.195,2.07C123.472,54.973,125.339,41.852,133.093,34.238L133.093,34.238z M133.824,36.172c1.473,3.035,3.145,5.719,5.426,7.367
		c-1.227,2.93-1.754,6.168,0.324,10.527c-1.457,0.805-3.488,2.93-5.586,7.286C126.394,53.68,128.085,42.555,133.824,36.172
		L133.824,36.172z M77.328,41.906c4.211,0.004,8.605,0.692,12.633,1.906c2.539,12.84,7,21.469,6.98,26.497
		c0,0-0.352-0.059-1.102-0.598c-1.832-1.324-4.242-0.586-5.531,1.101c-1.222,1.598,0.008,3.821-0.621,4.754
		c-1.183,1.739-4.238,4.95-4.746,4.844c-0.375-0.078-0.312-0.238,0.996-2.246c1.36-2.09,2.406-3.984,1.957-4.449
		c-0.191-0.195-0.293,0.219-1.308,1.984c-2.387,4.145-4.489,6.711-5.321,6.375c-0.386-0.156-0.187-0.5,1.582-2.832
		c1.996-2.637,2.551-4.289,2.352-5.015c-0.152-0.563-0.461,0.343-1.289,1.964c-0.883,1.715-2.481,3.625-3.77,5.461
		c-0.41,0.664-0.933,1.047-1.605,1.352c-0.5,0.215-1.293,0.566-1.754,0.508c-0.238-0.032-0.074-0.168,0.25-0.489
		c2.547-2.621,4.734-5.543,5.976-8.351c0.192-0.367-0.082-0.891-0.394-0.504c-1.906,3.352-4.559,7.535-7.438,9.379
		c-0.621,0.394-1.55,0.73-2.386,0.66c-1.418-0.039-0.918-0.355,0.375-1.187c2.761-1.774,6.64-6.879,7.265-8.684
		c0.149-0.426-0.015-0.668-0.289-0.641c-2.273,3.637-5.277,7.641-8.769,9.313c-1.883,0.906-4.254,1.082-5.422,0.512
		c-0.856-0.418-0.641-0.563,0.875-0.661c3.652-0.359,7.93-3.789,10.051-7.414c1.238-2.008,0.367-1.547-1.047,0.391
		c-2.418,3.305-7.219,6.473-10.196,6.223c-3.011-0.176-4.742-2.508-4.355-4.508c0.234-1.211,1.094-2.446,2.777-2.797
		c2.883-0.606,4.77,3.961,2.129,4.824c-0.898,0.293-1.238,0.07-0.914-0.289c1.957-0.859,1.086-3.211-0.562-3.449
		c-1.039-0.153-2.246,0.547-2.297,2.156c0.031,1.203,1.019,2.375,3.004,2.402c2.347,0.036,5.953-1.656,8.14-4.773
		c1.555-2.379,0.125-1.574-1.035,0.012c-1.019,1.402-4.32,3.363-4.57,3.293l0.113-1.618c0.051,0.282,5.078-3.164,4.785-5.726
		c-0.191-1.859,0.082-2.426,2.02-2.402c1.445,0.015,3.285,0.523,3.82,1.187c0.551,0.656,1.172,0.863,0.895-0.242
		c-0.442-1.797,0.09-2.094-0.953-1.754c-0.719,0.234-1.356-0.344-2.079-0.855c-0.789-0.563-1.793-0.801-2.992-0.758
		c-0.89,0.031-1.297-0.024-1.152-0.867c0.101-0.594,0.215-1.133,0.043-1.524c-0.281-0.633-1.402-1.289-2.664-2.223
		c-1.496-1.097-1.219-1.164,1.965-8.496c1.336-3.082,1.34-3.711,0.539-5.988c-1.266-3.59-1.465-5.031,0.906-5.531
		C74.539,41.977,75.925,41.902,77.328,41.906L77.328,41.906z M90.8,43.984l1.234,0.352c0.008,0.004,3.844,13.133,6.043,19.543
		c0.668,1.957,1.18,4.601,1.309,7.082c-0.063,3.418-1.984,5.871-4.332,6.141c-1.664,0.191-3.465-0.672-4.293-2.52
		c-0.695-1.762-0.172-3.836,1.836-4.551c3.473-1.238,6.016,3.192,2.609,4.555c-1.762,0.707-3.434-0.563-2.641-2.043
		c0.555-1.039,2.121-0.926,2.492,0.144c0.301,1.141,0.797,0.602,0.586-0.167c-0.645-2.465-3.809-1.883-4.063,0.382
		c0,2.813,3.074,3.473,4.91,1.895c1.422-1.262,1.574-3.539,1.219-5.52c-0.488-4.105-2.816-9.433-4.465-15.515
		C92.421,50.727,91.226,47.109,90.8,43.984L90.8,43.984z M139.816,44.133l2.313,0.914l-0.055,7.625l-1.961,0.676
		C137.546,49.426,139.679,44.137,139.816,44.133L139.816,44.133z M92.933,44.625l1.695,0.656c0.93,5.379,5.305,15.664,6.848,23.34
		c0.434,4.613,0.5,5.969-2.625,8.426v-0.035H97.16c0,0-0.004-0.102,0.734-0.657c4.094-3.058,1.652-9.804,0.105-14.988
		C95.304,53.086,92.898,44.617,92.933,44.625L92.933,44.625z M77.09,45.164c-0.215,0.004-0.434,0.012-0.653,0.023
		c-2.558,0.137-2.976,0.301-2.984,0.856c-0.016,1.047,0.414,1.512,2.789,1.258c2.058-0.223,5.039,0.094,7.094,0.98
		c2.343,1.008,2.902,1.246,3.742,1.68c2.113,1.086,1.746,0.004-0.164-1.254C83.007,46.141,80.312,45.125,77.09,45.164L77.09,45.164z
		 M95.535,45.535l1.59,0.606c0,0,0.422,1.238,0.574,1.949c1.547,6.871,5.758,14.594,6.25,22.629c0.113,2.633-0.34,5.086-2.27,6.273
		h-1.457c1.559-1.547,2.594-1.992,2.16-7.375C101.691,62.707,97.136,54.074,95.535,45.535L95.535,45.535z M98.359,46.648
		l1.465,0.543c1.691,9.274,10.07,23.133,4.734,29.821h-1.332c1.191-1.856,1.68-3.485,1.504-5.989
		C104.21,62.594,99.91,54.414,98.359,46.648L98.359,46.648z M100.816,47.504l1.582,0.48c2.145,9.399,10.383,24.801,4.508,29.059
		l-1.156-0.031C110.175,68.738,103.464,60.18,100.816,47.504L100.816,47.504z M103.57,48.379c0.484,0.269,1.18,0.398,1.707,0.555
		c1.664,7.105,4.699,14.093,6.082,20.711c0.465,3.625-0.328,6.335-2.605,7.367h-0.488c2.043-3.082,1.66-6.973,0.57-11.18
		C107.367,60.18,104.519,53.961,103.57,48.379L103.57,48.379z M78.687,48.504c-0.734-0.008-1.5,0.105-2.312,0.363
		c-0.832,0.313-0.731,0.969,0.043,0.832c0.261-0.043,0.722-0.125,1.031-0.179c1.894-0.333,4.23,0.351,7.058,2.066
		c0.684,0.414,1.426,0.812,1.61,0.949c0.519,0.387,1.074,0.387,0.883-0.109c-0.075-0.196-1.164-1.043-2.129-1.582
		C82.808,49.598,80.89,48.523,78.687,48.504L78.687,48.504z M106.253,49.121l1.594,0.242c2.992,13.754,9.559,22.301,3.941,27.403
		h-1.406c1.539-1.571,2.23-4.028,1.723-6.934c-0.52-2.969-2.055-7.676-3.324-11.816C107.304,53.215,106.121,49.156,106.253,49.121
		L106.253,49.121z M108.539,49.508l1.348,0.25c1.578,5.59,4.258,12.519,5.871,18.293c0.992,3.551,0.594,7.922-1.621,8.726
		l-1.141,0.02c1.883-2.512,2.148-5.129,1.289-8.516C112.523,61.336,109.855,55.273,108.539,49.508L108.539,49.508z M116.855,49.516
		c1.359,5.796,4.629,14.636,5.805,17.688c1.563,3.121,1.094,7.734-1.258,9.563l-1.109,0.023c1.344-1.258,1.805-3.371,1.59-5.566
		c-0.605-6.196-4.992-14.789-6.582-21.391L116.855,49.516z M110.941,49.789l1.391,0.129c1.395,6.062,4.102,11.953,5.859,18.016
		c0.328,1.371,0.613,3.043,0.496,4.273c-0.238,2.578-1.309,4.613-2.246,4.613h-0.957c1.957-2.332,1.859-5.508,1.023-8.925
		C115.125,62.25,111.777,55.445,110.941,49.789L110.941,49.789z M74.75,49.82c-0.578,0.004-0.59,0.535,0.336,1.344
		c0.566,0.496,0.523,0.332,0.488,0.645c-0.137,1.343,0.074,2.57,0.629,1.191c0.144-0.371,0.363-0.785,0.578-0.734
		c0.406,0.125,0.199,0.875,0.398,1.254c0.332,0.667-0.023,0.832-0.832,0.625c-0.582-0.149-0.613,0.167-0.976,0.57
		c-0.633,0.699-0.531,1.121,0.445,0.902c0.16-0.035,0.297,0.008,0.418,0.039c0.305,0.071,0.582,0.262,1.309,0.813
		c0.929,0.711,2.246,1.656,3.097,1.801c1.371,0.23,1.063-0.426-0.054-0.856c-0.961-0.367-2.153-1.387-2.149-1.672
		c0.004-0.215,0.305-0.086,2.035-0.562c0.75-0.207,1.805-0.668,2.25-0.871c0.735-0.34,0.77-0.336,1.918-0.301
		c1.961,0.058,2.258-0.012,0.887-1.028c-2.777-2.058-6.477-3.398-8.441-2.546c-0.594,0.261-0.582,0.101-1.012-0.145
		C75.511,49.965,75.054,49.82,74.75,49.82L74.75,49.82z M114.468,50.004c1.922,7.41,5.645,14.051,6.547,21.078
		c0.207,2.012-0.129,3.973-1.801,5.672l-1.129,0.019c-0.164,0.004,1.574-2.687,1.426-4.988c0.047-1.23-0.09-2.547-0.441-3.848
		c-2.184-6.246-4.336-11.91-6.008-17.867L114.468,50.004z M79.734,52.437c0.012,0,0.02,0,0.031,0
		c0.524,0.083,0.543,0.293,0.391,0.567c-0.227,0.402-0.625,1.18-0.625,1.18s-0.535,0.105-0.641-0.032
		C78.695,53.875,79.398,52.48,79.734,52.437L79.734,52.437z M81.066,52.68c0.059-0.004,0.129,0.027,0.242,0.07
		c0.504,0.199,1.379,0.609,1,0.926c-0.445,0.371-2.179,0.539-2.093,0.383l0.578-1.067C80.914,52.762,80.968,52.68,81.066,52.68
		L81.066,52.68z M75.757,59.152c-0.046,0.004-0.082,0.016-0.113,0.032c-0.101,0.062,0.129,0.464,0.461,0.921
		c1.531,2.067-0.59,2.68-2.094,1.575c-1.425-1.11-3.632-1.008-3.312,0.156c0.113,0.41,0.004,0.613,0.801,0.625
		c0.707,0.008,0.89,0.047,1.527,0.484c2.441,1.668,5.594-0.566,4.055-2.961C76.789,59.531,76.07,59.137,75.757,59.152L75.757,59.152
		z M81.781,62.387c-0.887,0-1.445,0.66-0.336,0.859c3.965,0.711,1.305,4.82-1.492,2.703c-2.52-2.273-5.891-2.258-5.93-0.644
		c-0.008,0.406,0.012,0.422,0.609,0.531c1.407,0.266,3.504,0.906,4.305,1.312c0.473,0.239,0.969,0.457,1.106,0.493
		c1.679,0.609,3.836-0.184,4.261-1.598C84.691,64.75,84.379,62.387,81.781,62.387L81.781,62.387z M32.043,75.613
		c0.531,0.008,1.093,0.473,1.496,1.153c0.933,1.57,2.062,4.211,2.785,5.668c0.183,0.367,0.187,0.695,0.176,0.871
		c0.058,0.851,0.343,1.175,0.851,0.789c0.496-0.375,1.188-1.008,0.379-1.11c-0.816-0.617-1.269-1.519-0.765-2.066
		c0.371-0.406,0.226-0.668-0.075-0.684c-1.14-0.019-2.843-3.418-2.043-4.148c1.086-0.988,2.282,0.234,4.832,5.293
		c1.125,2.234,1.176,4.68,0.211,3.469c-0.324-0.305-0.258-0.149-0.644,0.816c-0.289,0.723-0.524,1.066-1.625,2.121
		c-1.34,1.289-2.153,2.309-2.18,2.531c-0.059,0.426,0.723,0.028,1.293-0.714c1.273-1.243,1.32-1.575,1.309,0.074
		c-0.012,1.488-0.086,1.761,0.179,1.75c0.418-0.016,0.645-1.192,0.84-2.617c0.235-1.282,0.899-1.926,2.008-2.641
		c0.305-0.195,0.309-0.332,0.25-0.895c-0.203-1.812,0.824-5.187,1.293-4.351c0.066,0.187,0.269,0.625,0.379,0.933
		c0.09,0.477,0.387,1.016,0.848,1.051c0.566,0.426,0.566,0.656,0.761,2.215c0.067,0.512,0.293,1.274,0.449,1.68
		c0.293,0.758,0.559,1.199,0.395,1.426c-0.105,0.109-0.324,0.32-0.324,0.32l-9.285,5.504c0,0-0.727,0.402-0.993,0.511
		c-0.734,0.333-1.179,0.086-1.543-0.46c-1.968-2.93-3.316-6.223-4.699-9.258c-0.832-1.801-0.019-2.992,1.055-1.539
		c0.414,0.562,0.203,0.922-0.004,2.015c-0.039,0.196,0.145,0.121,0.488,0.176c0.543-0.059,0.805,0.426,0.785,1.246
		c-0.343,1.18,0.133,0.543,0.356,0.485c0.43,0.007,0.523,0.265,0.766,0.753c0.148,0.688,0.453,0.489,0.894,0.036
		c0.367-0.379,0.367-0.368-0.371-1.25c-1.273-1.379-3.039-4.496-3.5-6.395c-0.125-0.523-0.078-0.941,0.016-1.219
		c0.578-1.297,1.379-1.3,2.254,0.508c0.148,0.309,0.441,0.805,0.648,1.106c0.336,0.488,0.543,0.902,0.531,1.675
		c-0.258,0.649-0.301,0.661-0.078,0.75c0.555,0.219,1.539,1.219,1.586,2.118c0.043,0.91,0.199,1.39,0.914,0.851
		c0.816-0.613,0.469-0.863-0.336-1.652c-0.844-1.004-0.894-1.875-0.394-2.598c0.082-0.242,0.046-0.312-0.262-0.281
		c-0.981,0.094-1.934-1.149-1.25-2.09c0.312-0.555,0.277-0.695-0.168-0.711c-0.231-0.008-0.609,0.035-0.797-0.07
		c-0.293-0.543-0.894-1.301-0.891-1.922C31.129,75.961,31.574,75.609,32.043,75.613L32.043,75.613z M90.222,75.66
		c1.609,0.988,3.203,2.016,5.012,2.485c-4.191,7.546-10.93,11.589-16.57,13.171c0.191,0.965,0.328,1.93,1.261,2.52
		c-0.031-0.145-0.445-1.859-0.351-2.211c7.766-1.984,14.605-9.594,16.355-13.52l34.145-0.371
		c-25.313,24.282-26.32,58.453-5.672,87.098l-2.375,1.383c-15.91-23.836-15.75-46.801-10.977-62.18
		c3.383-10.902,9.457-19.234,14.07-23.996c0,0-18.512-0.254-27.723,0.086c-1.34,2.047-2.586,3.719-4.383,5.652
		c0,0,4.68-4.519,4.559-5.304c8.539-0.004,17.344-0.496,25.871,0.097c-9.977,11.942-14.898,24.27-15.75,35.867
		c-0.031,1.508-0.121,0.668-0.621,1.223l-1.574,2.442l-1.266-2.54c-0.855-0.277-2.547,0.168-3.262-0.089
		c-3.512,15.664,0.035,34.566,4.656,46.902c0,0-1.16,0.647-2.586,0.539c-1.563-0.349-1.945,0.086-3.297,0.358
		c-1.559,0.298-2.102,0.293-2.445,0.688c-0.191,0.219-0.539,0.522-0.93,0.738c-3.793,1.379-8.242,6.543-8.242,6.469l-4.172-1.875
		c3.843-7.551,8.359-10.271,16.292-13.621l-0.738-3.375c-8.449,3.148-13.828,6.918-18.07,14.242
		c-5.148-0.074-25.992-0.224-26.016-0.156c8.504-9.668,15.207-24.254,15.942-35.625c0.18-2.215-0.129-1.153,0.848-1.813l1.542-1.832
		l1.208,1.805c0,0,0.875,1.113,1.429,0.187c1.551-15.858-0.09-33.94-7.73-46.542c1.355-0.089,2.707-0.128,4.004,0.641
		c2.988,6.77,4.75,15.129,5.515,21.395c0.965,7.933,0.828,16.882-0.156,24.48l0.512,0.069c1.488-9.875,0.984-20.377-0.383-29.558
		c-0.703-4.789-2.961-12.278-4.516-15.735c-0.429-0.957-0.761-1.203-0.355-1.343C82.597,83.727,86.879,80.621,90.222,75.66
		L90.222,75.66z M64.406,76.496c0.711,0,1.289,0.578,1.289,1.289c0,0.711-0.578,1.289-1.289,1.289c-0.715,0-1.293-0.578-1.293-1.289
		C63.113,77.074,63.691,76.496,64.406,76.496L64.406,76.496z M134.39,77.152c-2.727,2.469-4.918,5.024-7.219,7.75
		c6.809,9.364,14.379,19.516,20.742,27.625c0,0,2.199-1.304,2.191-1.468c-0.004-0.086-0.176-0.516-0.215-0.422
		c-0.094,0.226-1.785,1.172-1.785,1.172l-20.137-26.43c0,0,1.09-1.305,1.43-1.715c1.563-0.516,5.918-5.91,6.129-5.797
		c3.414,2.613,13.699,13.692,17.664,17.086l0.051,30.75c-0.41,1.23-11.379,5.969-19.125,23.655
		c-3.898,2.185-8.215,3.36-12.227,5.259c0,0,1.02,1.605,1.52,2.047c-0.613-1.324-0.719-1.578,0.668-2.145l28.988-11.816
		l-0.055,2.387l-0.469,4.121c-7.891,4.863-14.547,6.902-25.406,14.242c-0.773,0.18-1.398,0.922-2.215,0.965
		c-27.738-40.848-10.008-71.625,6.16-87.09L134.39,77.152z M44.066,79.242c0.758,0.012,0.566,1.766,0.285,2.375
		c-0.558,0.438-1.117,0.047-1.105-0.773c0.004-0.27-0.047-0.52-0.114-0.563C42.711,80.012,43.414,79.23,44.066,79.242L44.066,79.242
		z M61.007,80.336c0.637,0.484,0.872,1.129,1.106,1.773c-0.859-0.132-3.16-0.793-2.078-1.308L61.007,80.336z M56.816,82.621
		c20.004,30.254,19.109,62.387-3.215,86.742l28.246-0.043c3.594-7.094,9.586-11.418,17.25-14.082l0.668,2.227
		c-8.809,2.828-13.265,7.515-16.813,14.012H49.269c12.942-13.926,18.871-25.691,19.805-41.605
		c0.887-15.152-2.969-28.996-14.68-45.648L56.816,82.621z M62.453,82.969l4.719,2.226l-0.7,4.844l-4.941-2.281L62.453,82.969z
		 M53.949,84.328c25.226,38.164,14.406,65.012-5.734,87.352l-3.711,0.063l-8.653-8.035l0.16,48.828c0,0-8.433,8.262-9.402,9.25
		c-0.957,0.922-1.676-0.492-1.676-0.492l0.024-64.731l0.375-2.534l0.113-13.949l5.375-2.836l20.156,26.422
		c0,0-0.808,1.194-1.183,1.406c-0.246,0.137-0.067,0.375,0.14,0.348c0.563-0.074,2.18-1.879,1.84-2.172
		c-7.312-9.06-20.906-26.793-20.906-26.793l-5.66,2.953c0,0,0.164-11.578,0.062-16.023c0.215-1.051,1.004-0.77,1.531-1.238
		c6.52-4.188,11.114-9.301,13.95-14.262c0.207-0.371,1.461-2.598,1.586-2.801c0.441-0.723,1.539-2.977,2.179-4.414
		c0.356-0.805,0.735-1.777,0.879-1.895c3.922-1.277,8.039-3.089,11.977-4.718l-5.672-8.516L53.949,84.328z M38.488,84.812
		c-0.215-0.003-0.758,0.243-1.488,0.907c-1.352,1.226-3.133,3.242-3.141,3.629c0.363,0.129,0.684-0.078,0.973-0.371
		c1.133-1.672,2.879-2.325,3.906-3.786C38.898,84.922,38.73,84.809,38.488,84.812L38.488,84.812z M51.195,86.586
		c0,0,3.914,5.703,4.914,7.215c-10.312,4.086-21.105,9.48-30.668,12.969v-2.286l1.512-4.105L51.195,86.586z M66.539,90.355
		l3.859,1.993l-1.09,4.351l-3.89-2.179L66.539,90.355z M69.722,97.594l3.168,2.308l-1.445,3.692l-3.195-2.196L69.722,97.594z
		 M43.855,100.301c0,0-0.488,1.711-1.312,3.246c-3.922,6.812-7.762,12.871-15.692,18.133c-0.301-0.27-1.164-1.782-1.164-1.782
		l-0.078-2.019c4.203-3.379,7.832-5.859,13.402-15.77l1.614-0.656L42,102.047l0.929-1.66L43.855,100.301z M60.355,100.316
		c-3.656,7.754-7.254,15.754-13.078,21.793l15.938,22.246C68.461,128.647,66.511,113.93,60.355,100.316L60.355,100.316z
		 M40.3,102.008l-0.765,1.324l1.324,0.766l0.766-1.325L40.3,102.008z M38.14,102.152c-2.89,6.453-7.222,11.422-12.91,14.993
		l-0.219-9.473L38.14,102.152z M39.156,104.078l-0.766,1.324l1.325,0.766l0.765-1.324L39.156,104.078z M71.726,104.355l2.871,2.727
		l-1.707,3.008l-2.945-2.438L71.726,104.355z M115.738,105.695c-0.004,0-0.004,0.004-0.008,0.008
		c-5.047,15.695-3.531,30.684,3.395,43.73c3.398-8.457,6.188-14.118,12.824-23.122C127.863,120.961,116.148,105.527,115.738,105.695
		L115.738,105.695z M38.027,105.945l-0.805,1.305l1.301,0.801l0.805-1.301L38.027,105.945z M60.054,107.777
		c4.555,10.879,4.153,20.692,1.731,29.192l-11.367-14.36C54.582,117.437,57.347,112.543,60.054,107.777L60.054,107.777z
		 M36.851,107.816l-0.859,1.262l1.262,0.867l0.863-1.269L36.851,107.816z M35.582,109.621l-0.942,1.211l1.203,0.941l0.946-1.207
		L35.582,109.621z M73.035,110.91l2.574,2.442l-1.625,3.171l-2.613-2.39L73.035,110.91z M34.097,111.504l-0.988,1.16l1.16,0.988
		l0.988-1.16L34.097,111.504z M117.132,111.848l11.469,14.797c-3.836,4.566-7.023,9.945-9.875,15.742
		C115.531,132.375,114.089,122.539,117.132,111.848L117.132,111.848z M32.484,113.344l-1.059,1.105l1.106,1.059l1.059-1.106
		L32.484,113.344z M59.277,114.824l-5.25,7.586l6.02,7.684C60.691,125.934,60.836,121.109,59.277,114.824L59.277,114.824z
		 M30.773,115.07l-1.125,1.035l1.035,1.129l1.125-1.035L30.773,115.07z M29.117,116.551l-1.188,0.965l0.965,1.188l1.184-0.965
		L29.117,116.551z M73.937,117.336l2.156,2.516l-2.187,2.589l-2.047-2.3L73.937,117.336z M101.332,117.785l1.465,0.055
		c-2.402,23.676,2.316,35.652,6.488,46.07c0,0-0.008,0.418-0.148,0.543c-0.68,0.233-2.055,0.483-3.16-0.484
		C100.363,149.535,99.136,131.758,101.332,117.785L101.332,117.785z M27.191,118.09l-1.238,0.898l0.894,1.239l1.239-0.895
		L27.191,118.09z M118.917,118.934c-0.375,0-0.695,9.738,0.707,14.496l5.277-7.152L118.917,118.934z M105.269,120.539l1.766,2.371
		l-1.871,2.551l-1.918-2.414L105.269,120.539z M25.757,121.184c0.09-0.012,0.235,0.234,0.52,0.429
		c0.262,0.274,0.227,0.254-0.07,0.489c-0.461,0.371-0.598,0.308-0.59-0.266C25.656,121.363,25.691,121.195,25.757,121.184
		L25.757,121.184z M74.043,122.965l1.949,2.793l-2.156,2.773l-1.848-2.923L74.043,122.965z M105.117,126.5l2.055,2.504l-1.766,2.746
		l-2.246-2.621L105.117,126.5z M152.679,127.031l0.184,2.883l-0.711-1.056l-1.305,1l0.91,1.212l1.141-0.891l0.07,1.164
		c-7.238,5.227-10.355,11.234-13.293,15.738l-1.305,0.555l-1.488-0.473l-0.723,1.285l-1.266,0.297
		c-0.039-0.008,2.535-5.52,6.941-11.133C145.757,132.617,152.66,126.983,152.679,127.031L152.679,127.031z M153.519,131.543
		l0.063,10.258l-12.949,5C143.992,141.078,147.957,135.762,153.519,131.543L153.519,131.543z M150.304,130.297l-1.184,0.969
		l1.02,1.171l1.176-0.968L150.304,130.297z M148.484,131.84l-1.141,1.015l1.063,1.134l1.141-1.023L148.484,131.84z M105.246,132.41
		l2.441,2.598l-1.789,3.07l-2.539-2.438L105.246,132.41z M146.644,133.504l-1.066,1.09l1.168,1.125l1.07-1.094L146.644,133.504z
		 M144.96,135.227l-1.027,1.137l1.246,1.077l1.027-1.136L144.96,135.227z M143.269,137.164l-0.953,1.194l1.293,1l0.957-1.198
		L143.269,137.164z M106.085,139l3.051,1.979l-1.492,3.634l-3.047-2.324L106.085,139z M141.796,139.016l-0.898,1.242l1.379,0.945
		l0.91-1.285L141.796,139.016z M140.417,140.977l-0.832,1.289l1.395,0.895l0.828-1.328L140.417,140.977z M139.187,142.922
		l-0.766,1.324l1.441,0.819l0.766-1.339L139.187,142.922z M138.074,144.93l-0.766,1.324l1.598,0.691l0.633-1.266L138.074,144.93z
		 M107.738,145.746l3.125,2.117l-1.383,3.805l-3.297-2.332L107.738,145.746z M153.035,149.488l0.156,78.266l-34.395,0.117
		c0,0-1.609-2.828-4.973-9.367c-1.426-2.766-2.629-3.942-2.754-6.137c0.129-1.285-0.465-2.746-1.52-3.336
		c-0.355-0.195-0.949,0.043-0.75-0.509c0.219-0.604-0.453-1.539-0.633-1.737c-0.211-0.352-0.078-0.438-0.102-1.742
		c-0.023-1.262-0.09-1.789-0.359-2.742c-0.684-2.406-0.836-3.61-0.445-4.855c1.016-3.169,2.074-5.594,3.445-8.548
		c0.797-1.726,0.676-2.401-1.77-3.655c-1.828-0.941-2.07-0.931-1.84-2.302c0.105-0.644,0.207-1.05,0.074-1.358
		c-0.082-0.191-0.387-0.457-0.566-0.605c-0.238-0.207-0.168-0.625,0.078-0.941c0.238-0.306,0.242-0.746,0.004-1.477
		c-0.5-1.543,0.633-3.582,2.77-4.993c0.945-0.625,0.918-0.495,1.902,0.539c2.879,3.024,7.16,1.125,7.168-3.14
		c0.004-1.328-0.449-1.25,0.805-1.875c4.262-2.711,13.008-7.641,12.949-7.508c0.57,1.16,0.758,2.151,1.121,3.401
		c0.309,1.071,0.27,1.153,0.152,3.239c-0.105,1.886-0.16,2.324,0.281,2.445c2.523,0.277,3.102-0.613,3.586-2.242
		c0.207-0.719,0.609-0.574,0.859-0.27c0.961,1.746,2.176,3.563,2.973,4.805c1,1.586,2.68,2.375,3.559,1.629
		c0.184-0.617,0.336-0.637,1.449-0.383c1.352,0.305,2.125-0.449,2.254-1.445c0.051-0.398-0.238-0.379,0.484-0.773
		c1.797-1.328,1.113-3.141,0.844-4.234c0.023,0.058,0.766-0.453,0.785-1.478c0.082-5.308-4.52-12.956-4.414-12.761L153.035,149.488z
		 M109.609,152.547l3.652,1.765l-0.859,4.364l-3.754-1.688L109.609,152.547z M145.156,154.168c2.102,2.44,3.625,6.508,4.41,9.156
		c0.387,1.32,0.434,2.823,0.086,3.034c-0.34,0.207-0.5-0.015-0.434-0.804c0.051-0.657,0.07-1.164-0.211-1.157
		c-0.816,0.211-0.848-1.026-0.762-1.315c0.055-0.195,0.156-0.332,0.199-0.438c0.203-0.48-0.324-0.415-0.867-0.422
		c-0.484,0.011-0.609-0.282-0.586-0.739c-0.012-0.504-0.684-0.405-1.066-0.019c-0.348,0.347-0.273,0.762,0.199,1.051
		c0.68,0.418,1.32,1.438,2.898,4.961c0.918,2.043,0.648,3.492-0.445,3.477c-0.758-0.02-1.645-2.099-2.355-3.629
		c-0.188-0.395,0.277-0.836,0.438-1.052c0.422-0.55,0.355-0.722-0.266-0.733c-0.582-0.008-0.828,0.043-1.18-0.676
		c-0.133-0.27-0.23-0.684-0.184-0.945c0.301-0.793-0.316-0.984-0.914-0.68c-0.754,0.316-0.75,0.988,0.402,2.09
		c0.738,1.215,0.547,1.133-0.156,1.949c-0.145,0.288-0.059,0.469,0.25,0.473c0.891-0.273,1.859,1.332,1.598,1.879
		c-0.273,0.238-1.02,1.094-0.297,0.93c1.465-0.398,2.355,1.746,1.492,2.473c-1.289,0.648-1.594,0.445-3.574-3.516
		c-0.617-1.23-1.359-2.555-1.449-2.688c-0.09-0.138-0.133-0.5-0.129-0.793c0.09-0.72-0.219-0.879-0.84-0.595
		c-0.469,0.11-0.891,0.496-0.297,0.86c0.691,1.195,0.934,1.386,0.555,1.688c-0.863,0.688-0.488,0.659,0.48,0.855
		c0.473,0.14,0.715,0.386,0.844,0.679c0.5,1.122,1.387,2.707,1.477,3.032c0.293,0.824-0.238,1.191-0.961,1.156
		c-0.762,0.019-1.109-0.582-1.477-1.094c-1.379-1.914-2.371-3.813-3.781-5.992l0.191-2.035c0,0,0.367,0.082,0.574-0.02
		c0.406-0.195,0.645-0.828,0.875-1.676c0.371-0.734,2.555-2.406,3.391-3.305c0.156-0.102,0.285-0.27,0.285-0.371
		c-0.004-0.328-0.945-0.11-1.566,0.602c-0.91,0.809-1.301,0.531-1.27-0.5c-0.09-1.277-0.867-0.637-0.906,0.609
		c-0.102,0.984-0.445,1.586-1.133,2.136c-1.301,1.039-1.082,0.778-1.023,2.22c0.105,2.52-0.867,4.59-1.504,3.219
		c-0.223-0.488-0.488-1.043-1.055-1.067c-0.402-0.019-0.602-0.414-0.824-1.386c-0.328-1.578-0.789-2.59-1.207-4.043L145.156,154.168
		z M112.777,159.594l4.207,1.676l-0.785,4.402l-4.172-1.594L112.777,159.594z M144.871,160c-0.031,0-0.063,0.008-0.098,0.022
		c-1.188,0.896-2.281,1.903-3.57,2.673c-0.488,0.284-1.051,1.027-1.055,1.223s0.574,0.187,1.137-0.06
		c0.535-0.229,3.59-3.097,3.594-3.362C145.085,160.266,145.066,159.988,144.871,160L144.871,160z M106.218,165.344
		c0.996-0.004,0.418,0.293-1.754,1.801c-2.121,1.469-5.617,6.121-6.023,7.844c-0.184,0.784,0.316,0.848,0.875-0.23
		c2.574-4.949,7.441-9.469,11.902-9.266c2.184,0.098,3.363,0.688,1.555,0.944c-4.957,0.606-8.66,3.435-11.902,9.067
		c0,0.125,0.297,0.121,0.633-0.098c2.969-3.629,6.313-8.434,12.184-8.043c4.238,0.254,5.441,5.293,1.926,7.012
		c-3.066,1.5-5.895-2.152-3.355-4.316c0.828-0.704,1.344-0.395,0.551,0.324c-1.699,1.543,0.383,4.289,2.457,3.246
		c1.258-0.527,1.77-2.332,0.66-3.695c-2.473-3.031-7.797-0.727-11.508,4.171c-0.391,0.517-0.727,1.634-0.398,1.513
		c0.574-0.234,0.922-0.688,1.262-1.195c1.324-1.836,2.344-2.758,4.137-3.746c1.387-0.762,1.469-0.617,0.953,0.703
		c-0.219,0.558-0.391,0.742-0.93,1.09c-2.262,1.543-3.664,3.609-3.719,4.926c-0.043,0.96,0.664,2.219-0.102,2.477
		c-1.293,0.608-4.824,0.112-5.777-1.105c-0.684-0.875-0.949-0.368-0.434,1.055c0.34,0.941,0.324,1.469,0.836,1.375
		c0.648-0.344,1.094-0.262,2.352,0.426c0.605,0.332,1.684,0.641,2.336,0.789c1.195,0.276,1.445,0.16,1.418,0.676
		c-0.008,0.16,0.047,0.604,0.012,0.887c-0.195,1.555,1.105,2.086,2.875,3.105c1.035,0.598,0.629,1.215-0.57,4.176
		c-0.621,1.34-1.152,3.141-1.922,4.504c-0.719,1.527-0.781,3.199-0.316,5.109c0.859,3.539,1.477,5.336-0.055,5.655
		c-3.941,0.595-12.648,0.571-17.398-1.257c-1.219-9.121-7.66-22.657-6.832-26.157c1.649,2.485,8.563,1.828,6.481-5.12
		c0,0,0.566-0.848,1.691-1.988c2.898-2.941,3.617-3.43,2.238-0.836c-1.059,1.992-2.41,4.594-2.441,5.098
		c-0.023,0.398,0.289,0.492,0.535,0.172c0.18-0.238,0.395-0.816,0.582-1.254c1.73-4.051,4.684-7.7,6.723-8.578
		c0.523-0.227,0.496,0.016,0.137,0.46c-2.398,2.981-4.23,5.743-5.531,9.34c-0.059,0.371,0.469,0.528,0.637,0.177
		c2.25-4.715,2.922-5.781,5.684-9.102c1.086-1.305,2.098-1.965,2.906-1.895c0.695,0.063,0.488,0.176-0.156,0.867
		c-0.492,0.523-1.223,1.258-2.402,2.741c-2.078,2.618-4.172,6.875-3.402,6.653c0.133,0.355,0.789-0.778,1.344-1.86
		c1.52-2.55,3.137-5.922,6.746-8.14C104.667,165.531,105.492,165.352,106.218,165.344L106.218,165.344z M36.398,166.168l6.43,6.422
		l12.929-0.164c-2.132,3.313-0.992,8.449,0.184,11.453c2.305,5.887,5.68,15.601,5.434,15.742c0,0-1.883,0.483-2.051,1.676
		c-0.254,1.769,0.512,1.637-0.594,3.234c-0.246,0.359-0.086,1.034,0.18,1.573c0.176,0.396,0.344,0.989,0.015,1.454l-11.406,20.348
		l-21.648,0.105v-4.071l10.84-10.972l-0.133-8.074c5.914,1.753,7.941,7.855,8.449,12.375c10.68-9.747,10.414-24.418,0.324-33.622
		c-1.965,9.728-9.011,11.75-8.859,11.556L36.398,166.168z M116.82,167.32c0.691,0.051,1.625,0.159,2.258,0.504
		c-0.43,0.254-0.734,0.563-1.02,0.875C117.714,168.086,117.246,167.75,116.82,167.32L116.82,167.32z M134.746,167.391
		c0.574-0.004,1.281,1.684,0.875,2.078c-0.227,0.222-0.969,0.304-1.234,0.136C134.046,169.354,134.218,167.391,134.746,167.391
		L134.746,167.391z M114.347,170.312c0.742,0,1.344,0.603,1.344,1.345c0,0.741-0.602,1.344-1.344,1.344s-1.344-0.603-1.344-1.344
		C113.003,170.914,113.605,170.312,114.347,170.312L114.347,170.312z M57.472,172.229l0.969,0.021c-1.762,2.354-2,4.387-1.375,7.324
		c0.703,3.305,6.063,15.734,6.406,19.155c0.016,0.153,0.032,0.591,0.032,0.591l-1.317,0.09c0,0-0.097-0.355-0.137-0.492
		c-1.843-6.195-3.679-10.922-4.96-14.535C55.812,180.488,53.859,174.715,57.472,172.229L57.472,172.229z M64.554,172.25
		c0.008,0,0.016,0.004,0.024,0.004l0.929,0.008c-0.031,0.023-1.386,2.925-1.484,4.691c-0.113,1.996,0.371,4.172,1.035,6.319
		c1.563,4.646,3.852,9.821,5.121,15.685c0.016,0.07,0.157,0.637,0.157,0.637l-1.379-0.184c0,0-0.137-0.602-0.153-0.684
		c-0.949-5.161-3.605-10.516-5.187-15.594c-0.813-2.309-1.375-5.145-1.086-7.313C62.738,174.289,64.269,172.281,64.554,172.25
		L64.554,172.25z M75.812,172.262c-0.988,1.527-1.883,3.441-1.949,4.941c-0.055,2.789,0.758,5.145,1.57,7.608
		c2.5,7.591,3.711,11.595,4.961,17.685l-1.328-0.57c0,0-0.051-0.34-0.082-0.438c-0.707-3.813-0.754-3.48-4.922-16.302
		c-0.976-3.078-1.91-5.772-1.726-8.335c0.043-1.461,1.316-4.352,2.656-4.582L75.812,172.262z M77.406,172.262h1.238
		c0,0-0.679,0.722-0.879,0.996c-2.164,3-1.539,6.222-0.465,10.066c1.481,5.284,4.215,11.195,5.649,19.25c0.023,0.152,0,0.93,0,0.93
		l-1.477-0.598c-1.34-7.387-4.648-15.043-6.242-21.688c-0.933-3.903-0.668-6.367,1.496-8.492
		C77.269,172.309,77.406,172.262,77.406,172.262L77.406,172.262z M62.281,172.305h0.926c0,0-1.551,2.547-1.547,4.043
		c-0.262,2.684,0.711,5.645,1.824,8.75c1.715,4.773,3.977,10.543,4.672,13.582c0.027,0.121,0.121,0.664,0.121,0.664l-1.617-0.086
		c0,0-0.086-0.735-0.184-1.074c-1.867-6.531-3.683-10.754-5.828-16.719c-0.324-0.903-0.844-4.473-0.234-6.785
		C60.894,172.863,62.281,172.305,62.281,172.305L62.281,172.305z M59.797,172.309l1,0.027c0,0-0.149,0.272-0.532,0.926
		c-1.824,3.304-1.008,6.32,0.121,9.684c1.512,4.484,3.879,9.956,5.36,15.141c0.082,0.293,0.195,1.172,0.195,1.172l-1.445-0.02
		c0,0-0.293-1.055-0.313-1.168c-0.812-4.805-5.203-12.809-6.343-18.902C57.215,175.897,57.754,173.875,59.797,172.309
		L59.797,172.309z M73.191,172.309c0,0-1.578,2.738-1.719,4.262c-0.285,2.984,0.664,5.461,1.746,8.827
		c1.872,5.817,4.512,12.638,4.747,15.759c0.007,0.102,0.046,0.48,0.046,0.48l-1.625-0.578c0,0-0.074-0.325-0.105-0.441
		c-1.414-5.641-3.09-11.263-5.344-17.595c-0.555-2.14-1.285-4.289-1.219-6.125c0.329-2.452,0.747-3.116,2.207-4.569L73.191,172.309z
		 M80.343,172.312l1.309,0.028c0,0-0.391,0.211-1.324,1.207c-5.164,4.719,3.215,18.043,5.148,30.172
		c0.02,0.129,0.082,0.586,0.082,0.586l-1.441-0.516c-0.137-0.605-0.238-1.34-0.406-2c-1.567-6.203-3.653-12.578-5.571-18.363
		c-1.078-4.215-1.468-7.926,0.461-10C79.207,172.707,80.343,172.312,80.343,172.312L80.343,172.312z M66.879,172.32l1.394,0.038
		c-1.008,1.263-1.598,3.231-1.652,4.981c-0.055,2.07,0.5,4.086,1.179,6.215c1.399,4.367,3.395,9.113,4.766,15.007
		c0.078,0.392,0.145,0.642,0.18,0.813c0.054,0.27,0.211,0.699,0.211,0.699l-1.469-0.293c0,0-0.152-0.384-0.254-0.586
		c-0.148-0.301-0.285-0.684-0.406-1.145c-0.711-3.074-3.332-10.051-4.93-14.946C64.632,180.022,64.289,174.633,66.879,172.32
		L66.879,172.32z M84.285,172.375c1.781-0.066,3.394,1.449,3.773,2.871c0.371,1.508-0.101,3.211-1.761,4.055
		c-2.696,1.363-5.594-2.266-3.469-4.266c1.609-1.513,3.992-0.395,3.476,1.547c-0.336,1.262-2.25,1.34-2.566,0.065
		c-0.086-0.421-0.297-0.843-0.449-0.612c-0.992,2.328,2.336,3.418,3.718,1.254c0.821-1.738-0.738-3.974-3.039-3.547
		c-3.148,0.582-3.511,4.582-2.203,9.246c1.825,7.37,6.18,17.284,6.172,21.836c0,0.059,0.016,0.246,0.016,0.246l-1.383-0.414
		c0,0-0.012-0.074-0.02-0.141c-0.828-6.355-5.55-16.879-6.906-24.969c-0.586-3.688,0.852-6.367,4.082-7.098
		C83.914,172.406,84.097,172.383,84.285,172.375L84.285,172.375z M70.613,172.434c-0.969,1.296-1.602,3.242-1.633,4.632
		c-0.031,2.036,0.703,4.021,1.305,6.142c1.527,5.233,5.097,14.906,4.965,16.715c0.039,0.195,0.136,0.797,0.136,0.797l-1.379-0.41
		c0,0-0.054-0.086-0.156-0.336c-0.461-1.797-2.648-9.496-5.094-16.157c-0.945-2.675-1.402-4.761-1.335-6.534
		c0.199-2.449,0.898-3.473,1.972-4.836L70.613,172.434z M96.863,181.113c-3.574,0.202-3.23,4.559-1.016,5.297
		c0.793,0.219,1.258,0.03,1.383-0.141c0.145-0.195-0.016-0.497-0.535-0.57c-1.504-0.496-2.039-2.263-0.684-3.004
		c0.742-0.391,1.922-0.141,3.352,0.918c2.547,1.887,5.672,2.004,5.266,0.094c-0.098-0.461-0.297-0.523-2.164-0.777
		c-1.52-0.207-2.203-0.688-2.863-1.043C98.558,181.324,97.64,181.09,96.863,181.113L96.863,181.113z M45.707,185.164
		c9.23,9.016,7.863,23.145-0.024,30.219c-0.16-0.571-0.508-1.969-0.543-1.93c5.93-6.172,8.723-16.285,0.137-26.656
		C45.324,186.836,45.468,186.051,45.707,185.164L45.707,185.164z M103.562,185.401c-0.086,0.005-0.164,0.013-0.23,0.035
		c-2.391,0.657-2.887,3.021-1.336,3.989c0.949,0.597,1.68,0.234,0.496-0.489c-1.012-0.616-0.512-2.241,0.715-2.222
		c0.539,0.008,0.902,0.238,2.27,1.246c1.121,0.828,2.18,0.894,2.418-0.228c0.145-0.672-0.078-0.968-0.793-0.793
		c-0.316,0.079-0.504-0.108-0.93-0.405C105.214,185.871,104.175,185.391,103.562,185.401L103.562,185.401z M44.754,187.172
		c8.32,9.66,5.648,19.73,0.039,25.633c-1.543-4.547-5.317-7.383-5.317-7.383c1.422-3.156,2.27-6.453-0.39-10.617
		C41.562,192.565,43.613,190.104,44.754,187.172L44.754,187.172z M98.816,190.699c-0.391-0.009-0.262,0.366,0.656,1.012
		c2.195,1.492,2.383,1.762,0.258,1.726c-0.539-0.034-1.383,0.349-1.863,0.509c-2.773,0.926-2.906,0.852-4.234,0.538
		c-0.441-0.101-0.891-0.284-1.086-0.108c-0.301,0.272-0.637,0.453-0.258,0.858c0.273,0.298,0.785,0.524,1.41,0.884
		c3.219,1.844,3.512,2.284,7.301,2.387c0.434,0.008,0.656-0.215,0.91-0.219c0.621-0.008,0.945,0.145,1.57,0.715
		c1.145,1.043,1.195,0.285,0.516-1.086c-0.355-0.719-0.668-0.892-0.496-1.435c0.402-1.246-0.168-1.496-0.914-0.39
		c-0.559,0.863-0.621,0.844-1.148-0.27c-0.703-1.387-0.375-2.027,0.691-1.121c0.805,0.684,1.008,0.176,1.324-0.367
		c0.41-0.715,0.348-1.353-0.387-1.297c-0.426,0.03-0.82-0.164-1.152-0.527C101.261,191.797,100.015,190.906,98.816,190.699
		L98.816,190.699z M99.73,194.453c0.086,0.004,0.148,0.039,0.176,0.129c0.008,0.457-0.305,1.391-0.563,1.883
		c-0.082,0.215-0.223,0.242-0.422,0.285c-0.664,0.121-0.711-0.082-0.59-0.496c0.242-0.633,0.445-1.539,1.301-1.797
		C99.667,194.453,99.699,194.449,99.73,194.453L99.73,194.453z M98.042,194.77c0.266-0.02,0.277,0.089,0.168,0.335
		c-0.191,0.411-0.527,0.802-0.777,1.122c-0.535,0.344-1.402-0.707-1.016-0.98c0.531-0.211,0.934-0.431,1.492-0.461
		C97.96,194.772,98.003,194.77,98.042,194.77L98.042,194.77z M38.433,195.457c0.141,0,0.289,0.026,0.438,0.09
		c2.015,2.719,1.879,6.855,0.313,9.144c-0.113,0.173-0.234,0.204-0.429,0.138c-0.676-0.398-1.528-0.547-2.168-0.777v-7.957
		C37.246,195.953,37.812,195.453,38.433,195.457L38.433,195.457z M91.496,196.104c-0.152,0.004-0.219,0.11-0.023,0.313
		c2.938,2.125,6.977,4.586,10.703,3.633c0.344-0.074,0.621-0.262,0.555-0.614c-0.043-0.222-0.422-0.409-0.832-0.3
		c-0.855,0.222-2.492,0.254-3.164,0.145c-2.566-0.418-4.828-2.059-6.797-3.02C91.789,196.151,91.617,196.098,91.496,196.104
		L91.496,196.104z M90.64,198.133c-0.133-0.008-0.121,0.125-0.039,0.371c0.414,1.229,4.566,4.098,7.848,5.047
		c2.82,0.813,6.867,0.011,6.633-1.328c-0.125-0.696-0.637-0.864-2.434-0.637c-3.957,0.769-7.77-0.848-10.66-2.649
		C91.207,198.449,90.808,198.141,90.64,198.133L90.64,198.133z M64.715,199.815c1.726-0.022,3.441,0.118,5.296,0.427
		c3.606,0.616,7.789,1.734,11.325,3.371c6.011,2.258,13.57,4,19.984,3.762c1.566,0.043,4.395-0.09,4.941-0.271
		c1.43-0.319,1.824-0.015,2.168,1.759c0.059,0.387,0.18,0.495,0.676,0.832c0.758,0.516,0.633,1.023,0.539,2.159
		c-0.078,0.954,0.5,1.493,2.816,5.767c2.633,4.862,5.203,10.516,5.203,10.516c-23.098-0.02-45.133-0.875-68.766-0.141
		c2.125-5.039,7.918-14.129,11.551-21.422c-0.879-2.246,0.207-2.625-0.25-3.16c-0.734-1.246-0.203-2.996,1.351-3.392
		C62.632,199.897,63.675,199.828,64.715,199.815L64.715,199.815z M64.715,199.815"/>
	<path fill="#E2CF00" d="M49.168,228.151c0,0,7.566-15.3,10.757-19.886c4.586-5.816,25.297,2.527,35.598,4.613
		c4.188,0.808,13.891,0.43,13.891,0.43l8.113,14.621L49.168,228.151z M33.449,210.766l-0.32-47.637l2.371,1.479l0.543,47.849
		l-10.246,9.809l-0.055-2.875L33.449,210.766z M39.648,205.332c2.442-4.914-0.285-10.91-0.285-10.906
		c1.418,0.347,5.359-7.133,5.711-6.918c6.035,7.402,7.082,18.429-0.293,25.265C42.922,208.02,39.672,205.332,39.648,205.332
		L39.648,205.332z M44.152,171.637c4.586-4.684,8.223-8.336,11.859-13.578c0.297-0.426-19.347-25.379-19.043-25.816
		c3.032-3.352,7.094-5.813,10.254-9.855c0,0,16.11,21.09,16.481,20.902c1.633-6.599,2.828-12.574,2.515-19.473
		c-0.992-17.648-8.535-28.457-8.593-28.242c-2.551,16.215-27.618,40.778-32.555,39.028l-0.027-11.332
		c0.3,0.566,15.882-10.024,19.992-24.024c0.293-1.008,12.383-4.875,12.301-5.023c-0.512-1.313-5.801-8.797-5.801-8.797
		s2.137-0.996,2.371-0.992c6.859,8.527,12.031,19.757,13.793,30.453c2.137,11.516,3.516,33.172-19.582,56.82L44.152,171.637z
		 M113.398,141.84c-3.613-11.219-3.516-22.832-1.855-30.942c2.539-14.695,11.824-25.214,19.273-33.238h3.23
		c0,0-3.863,3.996-5.27,5.453c-2.414,2.766-5.906,8.539-5.906,8.539l19.277,25.196l10.984-2.375c0,0-0.332,11.273,0.012,11.273
		c-8.539,7.065-14.676,13.465-19.082,23.762c-2.699,1-11.652,4.859-11.652,4.859c-4.254-1.043,12.664-27.566,9.445-28.016
		c-1.324-1.09-16-20.887-16.285-20.844c-6.766,20.707-0.164,42.457,11.734,57.648c-1.352,0.875-2.574,1.555-2.461,1.348
		C119.746,157.434,115.281,148.992,113.398,141.84L113.398,141.84z M78.183,131.457c0.762,1.18,4.192-25.277-4.82-46.453
		c0.855-0.649,8.293-2.07,8.293-2.07l2,6.339l-5.07,2.149l0.933,2.973c3.938-1.911,12.469-4.731,17.711-13.446
		c0,0,25.488-0.219,26.031-0.172c0.531,0.043-5.199,5.532-10.629,16.641c-2.48,5.078-4.453,11.644-4.867,19.348
		c-0.082,1.523-5.832-7.157-5.832-7.157c1.434-7.336,5.27-14.554,9.086-21.773c0,0-5.859-0.336-9.953-0.215
		c-6.367,6.961-10.363,10.625-19.961,13.949c3.5,11.215,24.918,16.606,20.152,15.582c-0.973-0.23-2.203,10.313-1.172,22.188
		c0.195,9.496,5.305,25.324,5.484,25.199c0,0-3.402,0.766-3.676,0.219c0.574-0.137-5.066,1.293-5.066,1.293l-2.02-5.903l5.461-2.511
		l-0.883-3.328c-0.023,0-12.05,3.637-17.938,14.128l-26.344,0.032c10.16-11.023,14.301-21.926,16.508-36.34
		C73.769,132.512,78.183,131.457,78.183,131.457L78.183,131.457z M142.968,36.285c3.313-2.769,9.961-9.988,9.961-9.988l0.086,3.699
		l-7.547,7.844l0.078,48.441l-2.551-2.445L142.968,36.285z M139.48,54.016c-1.355,0.648-4.066,3.832-5.355,7.41
		c-8.742-7.809-5.141-22.16-0.355-25.149c1.387,3.133,5.406,7.289,5.313,7.2C138.16,46.758,137.453,50.086,139.48,54.016
		L139.48,54.016z M62.093,21.496l67.411,0.117c-3.844,7.574-7.371,13.692-11.461,21.145c-2.125,2.566-48.161-8.281-48.375-7.203
		L62.093,21.496z M62.093,21.496"/>
	<path fill="#D40000" d="M157.101,241.301v-2.223h2.215l5.289-8.027l-5.48-12.664h-2.133v-2.492h7.945v2.492h-2.801l4.172,9.875
		l2.781-3.961l-0.063-5.914h-1.949v-2.492h7.25v2.492h-2.59l0.129,20.691h2.195v2.223h-6.891v-2.223h1.898l-0.188-9.73l-6.328,9.73
		h2.238v2.223H157.101z M131.867,226.867c-4.418-8.602-10.09-16.402-16.594-23.141c6.477-7.07,11.879-14.398,16.492-22.402
		c4.754,7.965,9.98,15.487,17.273,22.762C141.808,211.203,136.378,218.969,131.867,226.867L131.867,226.867z M25.656,218.512
		l-0.453-63.609l7.664,7.445l0.457,48.848L25.656,218.512z M158.394,200.824c2.789-2.957,5.324-6.234,7.418-9.773
		c2.629,3.895,5.422,7.883,7.73,9.871c-2.621,2.984-5.098,6.441-7.484,10.004C163.98,207.602,161.718,204.254,158.394,200.824
		L158.394,200.824z M60.816,206.184c-1.586,0.242-0.691-1.227-0.398-2.622c0.16-0.776-0.594-1.507-0.59-1.746
		c0.019-1.382,1.054-1.964,5.742-1.909c11.051,0.77,16.766,4.305,23.102,5.948c6.07,1.575,12.089,1.543,18.789,1.392
		c0.652,0.254,2.523,4.867,1.949,5.367C94.257,215.602,74.922,204.477,60.816,206.184L60.816,206.184z M88.125,173.25
		c-1.598-1.16-3.094-1.371-4.575-1.625c2.598-4.57,5.747-8.734,11-11.344l2.445,6.055C93.906,167.922,90.871,169.815,88.125,173.25
		L88.125,173.25z M56.203,157.535c0,0-2.27,3.707-4.41,5.512c-6.364-8.535-20.594-26.703-20.594-26.703l-6.035,3.059
		c0,0-0.028-3.516,0.109-3.762c16.313-8.407,27.5-24.289,32.43-39.164c0,0,2.625,2.679,2.281,3.812
		c-4.41,11.734-11.953,23.5-23.039,32.324L56.203,157.535z M76.543,140.227l20.589,0.027l0.91,7.156
		c-7.883,2.645-14.391,8.039-20.473,14.28l-9.766-0.168C71.007,154.508,75.453,147.391,76.543,140.227L76.543,140.227z
		 M152.773,110.07c0.664,2.02-0.008,4.196,0.25,4.102c-24.664,12.199-31.711,38.969-31.711,38.969s-2.34-3.707-2.234-4.282
		c12.766-28.371,21.305-29.213,22.945-32.296l-19.414-25.125L127,85.465l20.824,27.097
		C149.894,111.609,151.074,110.809,152.773,110.07L152.773,110.07z M140.613,146.772c4.18-7.519,8.496-11.89,12.793-14.897
		l-0.211,9.926L140.613,146.772z M25.312,117.254l0.106-9.629l12.703-5.465C34.609,109.816,29.84,113.918,25.312,117.254
		L25.312,117.254z M81.906,108.598l-0.75-6.774c7.711-3.363,14.523-7.863,20.023-14.019c5.91-0.285,9.945,0.117,9.914,0.035
		c0.008-0.012-5.621,8.246-9.352,21.25L81.906,108.598z M145.8,37.449l7.02-7.09l0.219,63.293l-7.051-6.707L145.8,37.449z
		 M84.109,88.988l-2.23-6.273c3.503-1.313,6.156-4.172,8.628-7.004c1.676,1.496,3.836,2.027,4.586,2.312
		C96.121,78.266,87.992,88.023,84.109,88.988L84.109,88.988z M29.812,45.648c7.516-7.336,12.403-15.07,17.121-22.765
		c4.145,8.465,10.137,15.871,16.563,23.027c-6.625,7.203-11.656,14.91-16.489,22.672C42.257,60.402,37.257,52.734,29.812,45.648
		L29.812,45.648z M12.48,58.293C10.316,54.832,8.132,51.5,4.988,48.16c3.062-3.277,5.664-6.527,7.41-9.723
		c2.41,3.508,4.699,7.176,7.66,9.981C17.175,51.59,14.859,54.953,12.48,58.293L12.48,58.293z M70.949,41.465
		c0,0-0.879-0.508-0.781-1.223c0.289-0.926-0.938-3.019-0.938-3.019c14.949-4.536,36.719,8.226,49.637,5.543
		c-0.109,0.902,0.039,1.976-0.324,2.828c0.406,1.808,0.691,1.867-1.074,2.968c-9.074,2.571-18.641-2.906-27.504-5.523
		C82.73,40.762,76.855,41.34,70.949,41.465L70.949,41.465z M4.25,33.523V30.82h2.539V10.5H4.25V8.152h7.039V10.5H9.453l0.172,9.77
		l6.382-9.77h-2.488l0.028-2.348h7.964V10.5h-2.273l-5.082,8.039l5.082,12.281h2.273v2.703H13.55v-2.531l2.985-0.051l-4.231-9.566
		l-2.851,3.93v5.562h2.074v2.656H4.25z M4.25,33.523"/>
	<path fill="#100F08" d="M61.324,20.605l2.73,5.141l-0.472,0.32c0.742,1.239,1.375,2.633,2.133,3.86l0.55-0.063
		c0.899,1.719,1.258,2.356,2.434,4.391l-0.531-0.004c0.273,0.906,0.972,1.508,0.988,2.156c0.008,0.809-0.203,1.629,0.297,2.176
		c0.586,0.648,0.656,0.828,0.535,1.207c-0.32,1.012,0.594,2.125,1.519,2.027c6.536-0.875,13.196-0.132,19.852,1.879
		c4.789,1.508,9.039,3.2,13.063,4.387c1.266,0.379,3.832,0.977,6.039,1.141c6.121,0.449,9.555-0.801,8.523-3.348
		c-0.082-0.203-0.266-0.352-0.281-0.457c-0.027-0.191,0-0.402,0.348-0.688c1.004-1.027,0.445-1.773-0.168-2.906
		c0,0,7.863-14.043,11.789-21.043L61.324,20.605z M129.386,21.867l-5.734,9.906c-3.07-0.558-3.789,2.024-3.836,2.383
		c-3.984-1.019-3.371,4.145-1.375,4.496c0.133,0.746-3.273,1.68-5.066-0.078c2.758,0.371,3.734-3.277,0.367-4.086
		c4.438-3.301-3.891-8.238-3.988-1.414c-3.914-0.691-3.406,4.485-0.922,4.887c-1.273,1.398-5.008,1.437-6.961-1.512
		c3.324,1.723,5.121-2.726,1.668-3.976c4.258-3.731-4.078-7.176-3.883-1.141c-3.145-1.863-5.305,2.887-1.109,3.613
		c-0.238,0.856-5.734,0.864-7.129-1.347c3.898,0.89,4.078-3.856,0.637-4.239c3.453-4.379-5.309-6.593-3.836-0.617
		c-3.386-1.34-4.664,2.879-1.367,4.235c0.184,0.671-5.336,1.242-7.269-1.18c4.242-0.637,2.758-4.75,0.008-4.418
		c0,0,0.042-0.121,0.195-0.52c1.297-4.129-5.68-4.472-4.711-0.097c0.152,0.406,0.324,0.941,0.324,0.941
		c-1.922-0.391-3.098,0.391-2.957,2.195c0.477,2.395,1.742,2.219,3.363,1.743c0.68,0.711-3.906,3.082-6.785,0.964
		c3.524-1.015,1.738-5.144-1.211-4.589c-0.121-1.317-1.554-3.168-3.422-2.266l-1.98-3.887L129.386,21.867z M135.152,76.895
		l-4.141,0.062c-2.906,2.969-23.973,22.375-20.426,51.684c1.52,12.535,5.02,23.382,14.379,36.191l2.5-1.465l0.383,0.254
		l25.938-14.918l0.012-4.531l-30.105,12.629c-0.598-0.637-0.949-1.344-1.453-2.125l12.066-5.129c0,0,0.289-0.735,0.383-1.07
		c3.965-10.036,12.023-17.301,19.039-22.915c-0.039-9.877-0.082-30.565-0.082-30.565l-18.141-18.062
		c-2.328,2.125-4.391,4.312-6.453,6.687l20.828,27.414l-1.848,1.199l-20.605-27.269C129.863,82.031,132.511,79.469,135.152,76.895
		L135.152,76.895z M153.656,94.719c0,0-0.098-47.067-0.238-69.793l-10.809,11.09l0.043,47.707L153.656,94.719z M152.738,29.406
		l-7.637,7.879l0.086,48.496l-1.965-1.937l0.004-47.188l9.539-9.996L152.738,29.406z M78.418,28.238
		c0.23,0.407,0.132,0.961-0.235,1.418c-1.563,1.938,3.344,5.305,6.871,4.719c2.688-0.445,4.977-2.059,3.989-3.285
		c-0.805-1-0.278-2.012,0.687-2.004c0.996,0.004,1.793,0.797,0.934,1.879c-1.918,2.41,1.004,5.234,5.473,5.293
		c3.16,0.043,4.215-0.735,4.043-2.988c-0.078-1.055,0.129-1.344,0.863-1.504c1.172-0.258,1.762,1.086,0.789,2.109
		c-2.098,2.215,0.289,5.469,4.258,5.676c1.453,0.078,1.738,0,3.359-0.914c1.266-0.715,1.711-1.793,1.094-2.633
		c-0.801-1.078,0.277-2.371,1.52-1.84c0.891,0.383,1.328,1.063,0.344,2.219c-1.293,1.515-0.68,2.769,1.809,3.613
		c1.938,0.66,3.277,0.578,4.184-0.25c0.281-0.258,0.91-0.797,0.902-0.633c-0.609,1.055-1.148,2.032-1.148,2.032
		c-4.059,1.808-7.227-1.579-7.121-1.704c-4.184,2.411-7.891,1.903-11.02-2.148c-0.816,0.449-6.648,1.512-10.855-3.106
		c-4.25,2.129-8.195,1.235-11.707-1.148c-2.59,2.449-5.324,2.836-8.164,1.66l-0.84-1.691c0.211-0.082,1.125,1.695,5.57,0.867
		c1.492-0.277,4.059-2.785,2.621-4.008c-0.656-0.93-0.675-1.351-0.093-1.914C77.113,27.395,78.09,27.684,78.418,28.238
		L78.418,28.238z M67.531,30.457c0.25,0.48,0.281,1.281,0.008,0.801c-0.145-0.254-0.895-1.383-0.86-1.418
		C67.027,29.812,67.375,30.172,67.531,30.457L67.531,30.457z M152.742,30.844l0.051,62.578l-6.504-6.449l-0.313-49.024
		L152.742,30.844z M77.429,33.875l2.047,1.289l-3.668-0.023L77.429,33.875z M88.941,34.953l1.719,1.668l-3.617-0.758L88.941,34.953z
		 M121.152,35.82l-0.77,1.575C119.941,36.898,119.812,35.848,121.152,35.82L121.152,35.82z M134.148,61.832
		c1.305-2.93,3.051-6.66,5.879-7.848c-2.105-4.179-1.832-8.359-0.34-10.652c-2.137-1.988-4.328-4.367-5.688-7.789
		C127.253,41.496,126.171,53.73,134.148,61.832L134.148,61.832z M133.945,36.687l0.465,1.141
		c-6.008,7.356-4.152,17.004,0.199,22.156l-0.625,1.297C128.664,55.672,126.335,43.816,133.945,36.687L133.945,36.687z
		 M98.031,40.844c6.961,2.043,12.539,5.226,20.586,2.39l0.035,1.567c-5.121,3.289-15.324-0.184-22.219-2.731
		c-11.082-4.09-19.707-3.851-25.867-3.383c-0.543-0.105-0.973-1.523-0.105-1.531C81.984,37.027,80.121,35.59,98.031,40.844
		L98.031,40.844z M99.605,38.074l2.285,2.426c-1.715-0.539-3.387-1.137-4.938-1.883L99.605,38.074z M134.496,38.672l0.449,0.617
		c0.191,0.27-1.266,0.406-1.02,0.094L134.496,38.672z M95.218,43.109c8.309,3.121,17.457,6.235,23.465,3.442
		c0,0,0.035,1.187-0.648,1.527c0,0-0.637,0.512-2.754,0.801c-9.715,0.801-16.023-3.223-23.863-5.602
		c-2.977-0.898-7.754-1.992-12.661-2.195c-2.914-0.133-7.371,0.285-7.371,0.285c-0.972-0.082-0.957-0.652-0.964-1.215
		C78.867,39.023,86.636,39.863,95.218,43.109L95.218,43.109z M135.398,40.117c0.109-0.004,0.219,0.004,0.324,0.02l0.852,1.086
		l-1.008,1.601c0,0-0.891-0.816-1.34-1.621C133.976,40.684,134.648,40.152,135.398,40.117L135.398,40.117z M110.917,40.426
		l2.633,1.984c-1.98,0.098-4.207,0.172-6.41-0.703L110.917,40.426z M133.203,41.434c0.211-0.004,0.426,0.214,0.68,0.648
		c0.492,0.836,0.426,0.996-0.523,1.305c-1.246,0.398-1.348,0.312-0.941-0.809C132.691,41.816,132.937,41.441,133.203,41.434
		L133.203,41.434z M137.203,41.949l1.777,1.492c-0.98,2.555-1.625,5.801,0.348,10.457c-0.219,0.016-1.496,1.278-1.898,1.493
		C136.304,54.918,133.82,45.687,137.203,41.949L137.203,41.949z M135.179,43.902l-0.453,2.828c-0.035,0.231-1.969-1.339-1.789-2.125
		C133.281,43.672,134.457,43.871,135.179,43.902L135.179,43.902z M131.984,44.895c0.234,0.003,0.602,0.566,1.051,1.304
		c0.352,0.578,0.281,0.793-0.496,1.496c-1.145,1.157-1.371,0.778-1.117-1.191C131.546,45.531,131.722,44.895,131.984,44.895
		L131.984,44.895z M134.351,47.457c0.156,0.004,0.293,0.039,0.391,0.121l0.133,2.75c0.012,0.25-2.148-0.098-2.434-1.144
		C132.082,48.512,133.515,47.437,134.351,47.457L134.351,47.457z M131.5,49.785c0.156-0.023,0.641,0.297,1.098,0.57
		c0.797,0.473,0.813,0.68,0.129,1.559c-0.805,1.035-1.207,0.871-1.328-0.93C131.351,50.324,131.3,49.812,131.5,49.785L131.5,49.785z
		 M134.671,50.836c0.07,0,0.133,0.019,0.188,0.066c0.383,0.328,0.965,3.086,0.719,3.375c-0.348,0.41-2.191-0.136-2.605-0.785
		C132.582,52.875,134,50.836,134.671,50.836L134.671,50.836z M132.414,54.086c0.211-0.016,0.594,0.129,1.172,0.41
		c0.348,0.164,0.926,0.481,1.051,0.75c0.227,0.469-0.148,1.172-0.633,1.75c-0.316,0.387-0.617,0.098-1.238-1.187
		C132.265,54.773,132.062,54.109,132.414,54.086L132.414,54.086z M136.136,55.32c0.043,0,0.082,0.008,0.117,0.028
		c0.629,0.347,0.523,1.382-0.219,2.144c-0.895,0.918-1.668,0.227-1.051-0.937C135.375,55.816,135.839,55.328,136.136,55.32
		L136.136,55.32z M84.316,80.992c-0.543,0.028-1.391,0.52-1.758,0.992c-0.468,0.602-0.875,0.524-1.394,0.481
		c-0.617-0.008-1.555,0.129-2.828,0.707c-0.719,0.328-1.047,0.402-2.106,0.457c-0.687,0.031-1.379,0.125-1.531,0.207
		c-0.152,0.082-0.649,0.254-1.102,0.387c-0.922,0.269-0.593,0.531-0.062,1.718c2.691,6.903,4.617,14.942,5.32,21.493
		c0.789,7.515,0.551,16.625-0.5,23.585c-2.574,0.016-4.195-0.117-6.906-0.07c-1.852,15.047-6.875,26.996-16.91,37.741l27.133,0.071
		c3.109-8.293,17.296-14.617,17.761-14.148l0.746,3.023c0,0-10.203,1.461-17.078,14.41c0.703-0.426,3.262-0.129,4.953,1.625
		c3.375-4.281,8.915-7.078,8.95-7.012l0.184-0.516c0,0,1.016-0.344,1.91-0.516c0.285-0.055,0.871-0.164,1.262-0.301
		c0.602-0.211,0.898-0.434,1.828-0.355c1.938,0.184,3.879-0.375,3.836-0.387c-5.758-15.887-7.121-30.228-4.871-46.883
		c2.121,0.016,6.777,0.098,6.777,0.098c0.465-4.68,1.059-9.364,2.496-13.781c1.848-5.676,4.074-10.95,7.656-15.774
		c2.023-3.027,3.793-5.184,5.883-8.019l-26.563,0.058c-3.516,5.91-10.285,10.844-15.73,12.899c-1.852,0.695-2.114,0.593-2.422-0.278
		c-0.547-1.554-0.52-1.492,0.929-1.902c0.485-0.141,2.032-0.953,4.446-2.086c5.128-2.602,8.656-7.367,10.73-10.586
		c0.824-1.27,0.27-0.984-1.141-0.996c-1.293-0.102-1.883-0.5-3.043-1.582c-0.426-0.399-0.613-0.684-0.809-0.66
		C88.847,77.27,86.304,80.145,84.316,80.992L84.316,80.992z M90.55,75.965c1.195,1.277,2.613,2.023,4.477,2.269
		c-2.98,4.676-6.621,8.332-10.805,10.555l-2.125-5.984C87.308,80.379,88.703,77.949,90.55,75.965L90.55,75.965z M133.847,77.867
		c-28.094,25.969-26.441,58.711-6.77,85.309l-2.059,1.238c-18.477-24.758-21.82-61.383,6.41-86.656L133.847,77.867z M116.136,81.035
		l6.887-0.015l-4.688,6.078l-6.293-0.024L116.136,81.035z M115.058,81.086l-3.832,6.039l-10.328,0.133
		c-6.184,7.621-12.824,11.336-19.582,13.875l-1.32-6.508c0,0,10.703-2.582,17.633-13.621L115.058,81.086z M104.558,81.586
		l-2.395,2.648l2.488,2.528l2.27-2.567L104.558,81.586z M109.98,81.523l-2.426,2.52l1.895,2.539l2.512-2.465L109.98,81.523z
		 M98.023,81.98l-0.414,3.969l3.121,1.024l0.453-3.391L98.023,81.98z M117.003,82.129l-2.266,3.539l3.41,0.055l2.383-3.524
		L117.003,82.129z M81.359,83.035l2.207,6.125l-1.937,0.934l-1.969-6.395L81.359,83.035z M78.742,84.016l2.277,6.339l-1.906,0.629
		l-2.094-6.597L78.742,84.016z M81.472,109.035c0.254,8.813,0.379,14.125-1.093,21.871c-0.079,0.405-1.661,0.047-1.661,0.047
		c0.204,0.066,0.895-8.754,0.836-14.293c-0.101-10.551-1.89-20.988-6.031-31.445c0.789-0.485,2.734-0.731,2.734-0.731
		C78.871,92.414,81.187,100.945,81.472,109.035L81.472,109.035z M53.89,84.602c9.071,12.031,15.551,28.355,14.469,44.459
		c-1.039,18.728-8.141,29.521-20.609,42.489l-3.219,0.074c14.762-14.152,21.293-26.267,21.809-42.246
		C66.929,111,61.316,98.777,51.863,85.75L53.89,84.602z M24.886,101.141l0.032,4.382l30.894-13.25l-4.457-6.566L24.886,101.141z
		 M97.296,86.785l-3.363,0.172l0.113,3.395l3.504-0.086L97.296,86.785z M127.277,86.141l20.02,26.254l-4.953,3.679l-19.086-24.672
		L127.277,86.141z M111.585,87.934l5.992,0.093l-2.316,3.844l-5.793-0.047L111.585,87.934z M110.476,88.027
		c-2.754,5.125-6.555,10.969-8.691,20.414l-19.727,0.016c-0.035-2.156-0.316-4.312-0.636-6.469c8.5-3.109,15.085-7.761,19.929-13.91
		L110.476,88.027z M114.125,88.301l-2.57,1.48l1.57,1.809l2.836-1.086L114.125,88.301z M90.644,90.187l-0.852,3.344l3.199,1.231
		l0.59-3.973L90.644,90.187z M109.039,92.687l5.75,0.036l-2.422,4.832l-5.695-0.086L109.039,92.687z M122.73,92.055l18.945,24.558
		l-1.777,1.407l-18.516-24.008L122.73,92.055z M111.222,93.074l-2.594,2.16l1.949,2.25l2.391-1.906
		C113.019,95.539,111.222,93.074,111.222,93.074L111.222,93.074z M86.074,93.254l-0.793,3.25l3.324,0.887l0.594-3.489L86.074,93.254
		z M81.476,95.418L80.8,98.617l3.133,0.848l0.66-3.086L81.476,95.418z M55.621,95.094c0.16-0.032-0.524,3.812-1.531,4.504
		c-0.481,0.332-0.731,0.257-1.149-0.192c-0.289-0.312-1.59-2.437-1.59-2.437l1.114-0.559c1.347,2.16,1.347,1.113,1.859-0.726
		L55.621,95.094z M50.425,97.309c0.442-0.004,0.977,0.543,1.582,1.605c0.872,1.535,0.844,1.637-0.593,2.078
		c-2.582,0.684-3.543,0.848-2.746-0.859C49.523,98.301,49.859,97.312,50.425,97.309L50.425,97.309z M58.117,97.004l1.769,3.027
		c-7.089,18.047-18.523,30.996-34.261,38.833l-0.039-3C44.144,125.301,51.754,112.824,58.117,97.004L58.117,97.004z M106.316,98.309
		l5.582,0.101l-1.492,4.266l-5.93-0.043L106.316,98.309z M48.75,98.121c-4.539,10.824-10.746,20.266-23.153,28.237l-0.05-2.875
		c13.933-8.398,19.957-24.125,19.957-24.132L48.75,98.121z M119.277,98.105c3.301,0.09,6.777,3.692,6.426,6.661
		c-0.25,2.089,0.152,3.645,0.719,2.785c1.262-1.891,4.969-0.633,4.934,1.64c-0.016,1.211-0.824,1.407-1.289,0.317
		c-0.684-1.613-2.609-1.653-2.895,0.039c-0.266,1.582,1.078,2.746,4.668,4.047c4.211,0.984,6.742,4.758,5.246,6.926
		c-0.52,0.574-0.832,0.714-0.93,0.417c-0.031-0.085-0.133-0.535-0.23-0.992c-0.477-2.273-1.566-3.226-2.887-2.449
		c-0.664,0.391-0.582,0.91-0.195,1.594c0.516,0.91,0.195,1.262-0.727,0.797c-1.457-0.731-1.938-2.465-0.527-3.262
		c1.68-0.672,1.109-0.816-1.035-1.543c-4.566-1.559-6.523-4.422-6.766-9.875c0.09-2.484-0.25-3.371-1.422-3.711
		c-1.07-0.309-2.281,1.051-1.512,1.766c0.418,0.39,0.758,0.742,0.535,0.957c-0.707,0.691-2.484-0.43-2.465-1.629
		c0.012-0.785,0.309-0.945,1.48-1.867c0.328-0.258,0.051-0.739-0.426-0.746C118.183,100.555,118.308,98.18,119.277,98.105
		L119.277,98.105z M108.933,98.734l-2.789,1.602l1.449,2.031l3.09-1.453L108.933,98.734z M54.66,100.309
		c0.32,0,0.582,0.257,0.582,0.578c0,0.32-0.262,0.582-0.582,0.582c-0.32,0-0.582-0.262-0.582-0.582
		C54.078,100.566,54.34,100.309,54.66,100.309L54.66,100.309z M60.379,100.559c5.886,12.847,7.285,27.542,3.187,42.226
		l-15.898-20.688C53.769,115.23,57.871,107.371,60.379,100.559L60.379,100.559z M38.875,101.504l-14.188,5.961l-0.078,10.637
		C32.535,112.691,35.898,107.152,38.875,101.504L38.875,101.504z M52.511,101.414c1.399-0.043,0.707,3.731-1.105,5.02
		c-0.668,0.511-1.117,0.449-1.336-0.575c-0.113-0.531-0.672-1.652-1.375-2.554c-0.816-1.051-0.809-1.078,0.387-1.153
		C50.402,102.172,51.48,101.539,52.511,101.414L52.511,101.414z M51.129,103.02c-1.032-0.016-1.34,0.464-0.727,1.125
		c0.52,0.558,0.93,0.437,1.277-0.368C51.89,103.289,51.699,103.027,51.129,103.02L51.129,103.02z M25.543,116.816l0.035-9.027
		l12.133-5.109C35.277,107.953,30.769,113.184,25.543,116.816L25.543,116.816z M133.316,124.109l-1.613,1.625l-15.664-20.417
		l0.98-2.574L133.316,124.109z M47.484,103.457c0.527,0.008,1.715,1.828,2.051,3.137c0.246,0.968-0.016,1.176-1.856,1.449
		c-0.761,0.207-2.816,0.008-2.652-0.543C45.328,106.711,47.3,103.457,47.484,103.457L47.484,103.457z M104.222,103.668l5.715,0.059
		l-1.309,4.691l-5.984-0.09L104.222,103.668z M106.75,103.953l-2.66,1.84l2.102,2.074l2.82-1.742L106.75,103.953z M115.714,105.969
		l15.844,20.563c-4.727,6.012-9.441,12.918-12.543,22.047C113.375,135.387,111.312,122.543,115.714,105.969L115.714,105.969z
		 M51.367,107.719c0.32,0,0.582,0.258,0.582,0.578s-0.262,0.586-0.582,0.586c-0.32,0-0.578-0.266-0.578-0.586
		S51.047,107.719,51.367,107.719L51.367,107.719z M49.543,108.504c0.992,0.07,0.058,3.219-1.434,4.367
		c-1.172,0.906-1.676,0.484-1.949-1.172c-0.098-0.597-0.727-1.617-1.281-2.418c-0.618-0.898-0.364-1.043,1.207-0.679
		C47.179,108.812,48.531,108.555,49.543,108.504L49.543,108.504z M102.496,109.273l5.992,0.036l-0.926,7.117L102.496,109.273z
		 M44.109,109.602c0.945,0.878,2.141,3.968,1.527,4.191c-0.711,0.258-3.933-0.117-4.293-0.488c-0.25-0.254-0.25-0.254,0.278-0.961
		c0.289-0.387,0.84-1.16,1.226-1.719C43.195,110.219,43.582,109.113,44.109,109.602L44.109,109.602z M47.449,109.707
		c-0.914,0.031-0.977,0.156-0.543,1.141c0.355,0.8,0.598,0.871,1.207,0.347C48.957,110.461,48.601,109.668,47.449,109.707
		L47.449,109.707z M152.625,110.324l0.215,3.512c-23.035,11.426-31.66,38.397-31.785,38.397l-1.672-3.112
		C129.953,123.078,144.011,115.535,152.625,110.324L152.625,110.324z M44.086,114.477c1.371-0.028,1.773-0.122,1.765,0.386
		c0.016,1.367-1.261,3.305-2.824,4.039c-1.051,0.493-1.074,0.504-1.191-0.734c-0.094-0.953-0.403-2.18-0.899-3.156
		c-0.152-0.36-0.75-1.192,0-0.953C41.683,114.293,43.23,114.496,44.086,114.477L44.086,114.477z M47.164,114.16
		c0.32,0,0.578,0.258,0.578,0.578c0,0.321-0.258,0.578-0.578,0.578c-0.324,0-0.582-0.257-0.582-0.578
		C46.582,114.418,46.84,114.16,47.164,114.16L47.164,114.16z M39.824,114.961c0.246-0.008,0.484,0.5,0.766,1.254
		c0.617,1.633,0.804,2.519,0.621,2.902c-0.278,0.594-4.059,0.211-4.704-0.453C36.386,118.758,39.289,115.289,39.824,114.961
		L39.824,114.961z M42.543,115.363c-0.539,0.039-0.254,0.364,0.148,1.309c0.277,0.656,0.656,0.762,1.086,0.305
		c0.574-0.618,0.652-1.102,0.289-1.368C43.531,115.398,43.14,115.367,42.543,115.363L42.543,115.363z M152.785,118.914l0.02,1.176
		c-0.898-0.266-1.453-0.649-2.477-0.988c-0.625-0.207-0.996-0.36-0.441-1.02c0.867-1.035,1.797-1.68,2.855-2.32l0.004,1.332
		C151.054,117.84,151.222,118.531,152.785,118.914L152.785,118.914z M86.203,117.719h6.363v4.203h4.977l-0.387,4.789h-4.59v4.199
		h-6.363v-4.199h-4.547l0.367-4.789h4.18V117.719z M100.574,117.734c-3.223,15.969-0.266,32.918,4.707,46.731l-2.512,0.277
		c-3.875-11.047-6.953-26.77-3.82-47C98.949,117.742,100.07,117.723,100.574,117.734L100.574,117.734z M147.808,118.043
		c0.32,0,0.578,0.262,0.578,0.582c0,0.32-0.258,0.578-0.578,0.578s-0.578-0.258-0.578-0.578
		C147.23,118.305,147.488,118.043,147.808,118.043L147.808,118.043z M35.859,119.383c0.211-0.004,0.859,0.273,1.434,0.433
		c0.863,0.243,1.547,0.344,2.332,0.36c1.582,0.031,1.789,0.015,1.109,1.316c-0.492,0.938-1.594,2.176-2.367,2.555
		c-1.094,0.582-1.516,0.504-1.449-0.574c0.007-0.731-0.309-2-0.723-2.903C35.875,119.867,35.507,119.395,35.859,119.383
		L35.859,119.383z M42.554,119.898c0.321,0,0.582,0.258,0.582,0.579c0,0.32-0.261,0.582-0.582,0.582
		c-0.324,0-0.582-0.262-0.582-0.582C41.972,120.156,42.234,119.898,42.554,119.898L42.554,119.898z M149.625,119.82
		c0.449-0.008,1.219,0.266,1.922,0.606c1.859,0.906,1.809,1.113-0.711,2.902c-1.832,1.387-2.266,1.543-2.328-0.644
		C148.441,120.836,148.64,119.84,149.625,119.82L149.625,119.82z M34.906,120.348c0.738,0.011,1.555,3.855,0.891,4.199
		c-1.032,0.535-4.231-0.508-4.219-1.383C31.582,122.879,34.582,120.344,34.906,120.348L34.906,120.348z M147.402,120.191
		c0.441-0.019,0.5,0.329,0.461,1.551c-0.023,0.649,0.09,1.707,0.133,2.203c0.094,1.024,0.008,1.094-0.801,0.637
		c-0.52-0.293-1.574-0.773-2.711-0.871c-0.934-0.082-1.004-0.465-0.715-1.082C144.593,121.266,146.089,120.309,147.402,120.191
		L147.402,120.191z M37.648,120.77c-0.644-0.004-0.484,0.339-0.086,1.3c0.285,0.684,0.774,0.75,1.278,0.168
		c0.707-0.816,0.57-1.246-0.458-1.402C38.164,120.805,37.797,120.773,37.648,120.77L37.648,120.77z M146.55,121.687
		c-0.27,0.024-0.637,0.235-0.813,0.348c-0.605,0.383-0.852,0.656,0.027,0.957c0.781,0.266,1.195,0.383,1.137-0.289
		C146.863,122.297,146.894,121.707,146.55,121.687L146.55,121.687z M86.82,122.184v4.187h5.066v-4.187H86.82z M142.023,122.547
		c0.32,0,0.578,0.258,0.578,0.578c0,0.32-0.258,0.582-0.578,0.582s-0.578-0.262-0.578-0.582
		C141.445,122.805,141.703,122.547,142.023,122.547L142.023,122.547z M47.187,123.199l15.981,20.516l-1.063,2.672l-16.461-21.657
		L47.187,123.199z M152.886,123.102l0.035,2.683c-1.809,1.319-13.273,9.629-19.207,23.612l-3.105,1.325
		C134.984,138.684,144.332,128.375,152.886,123.102L152.886,123.102z M31.304,124.238c1.039,0.317,2.032,1.04,3.016,1.168
		c1.129,0.141,1.52,0.066,1.211,0.652c-0.684,1.305-1.977,2.671-3.34,3.117c-0.973,0.32-1.434,0.203-1.281-0.406
		c0.285-1.133,0.336-2.063,0.297-3.094C31.363,125.112,30.882,124.324,31.304,124.238L31.304,124.238z M30.082,124.477
		c0.664,0.566,0.535,4.152-0.207,4.925c-0.387,0.402-1.508,0.034-3.192-0.923c-1.101-0.621-1.308-1.003-0.758-1.386
		C26.855,126.531,29.582,124.344,30.082,124.477L30.082,124.477z M144.265,124.555c0.348-0.008,0.773,0.05,1.289,0.173
		c1.988,0.444,2.434,0.897,0.734,2.249c-0.625,0.496-1.293,1.117-1.484,1.355c-0.914,1.121-1.551,0.309-1.75-1.728
		C142.914,125.18,143.128,124.371,144.265,124.555L144.265,124.555z M141.773,124.746c0.324,0,0.531,0.172,0.523,0.574
		c-0.008,0.512,0.363,2.738,0.57,3.352c0.355,1.043,0.098,1.277-0.766,0.82c-0.629-0.336-2.293-0.595-3.195-0.523
		c-1.023,0.078-0.992-0.196-0.695-1.055C138.742,126.391,140.8,124.75,141.773,124.746L141.773,124.746z M32.277,125.488
		c-0.391,0-0.406,0.523-0.141,1.727c0.086,0.383,0.414,0.359,1.036-0.078c0.734-0.516,0.707-0.84-0.122-1.336
		C32.707,125.598,32.453,125.488,32.277,125.488L32.277,125.488z M36.804,125.621c0.325,0,0.582,0.258,0.582,0.578
		s-0.257,0.578-0.582,0.578c-0.32,0-0.578-0.258-0.578-0.578S36.484,125.621,36.804,125.621L36.804,125.621z M139.878,127.871
		c0.281,0.273,1.309,0.262,1.484,0.098c0.273-0.25,0.145-1.414-0.082-1.555C140.703,126.219,139.535,127.44,139.878,127.871
		L139.878,127.871z M43.953,130.086c0.351,1.656,2.679,1.562,2.418-0.164c-0.153-1.008-0.188-0.988,0.316-0.965
		c2.406,0.117,1.988,3.91-0.785,3.617c-0.578,0.07-0.652,0.309-0.164,0.512c0.484,0.203,2.352,0.68,2.637,0.68
		c3.019-0.012,7.371,4.629,7.265,8.746c-0.07,2.691,0.84,4.629,1.774,4.847c0.742,0.177,1.82-0.5,1.726-1.323
		c-0.129-1.138,0.797-0.781,1.328,0.035c0.813,1.129-0.234,2.758-2.168,2.629c-0.824,0.159,0.602,0.684,1.661,0.987
		c0.961,0.056,0.148,1.239-0.028,1.45c-0.543,0.629-2.32,0.148-3.715-0.977c-1.711-1.383-2.449-3.234-2.648-6.875
		c-0.133-2.336-0.305-2.813-0.984-1.849c-1.227,2.153-4.153,1.099-4.52-1.175c-0.203-1.203,0.856-2.071,1.199-0.98
		c0.907,2.27,3.129,1.723,2.766-0.527c-0.238-1.484-1.723-2.305-4.66-3.133c-3.528-0.992-4.578-2.203-5.266-5.099
		c-0.305-1.28-0.258-1.948,0.422-2.62c0.332-0.332,0.758-0.669,0.758-0.669S43.757,129.184,43.953,130.086L43.953,130.086z
		 M136.285,128.246c0.32,0,0.578,0.258,0.578,0.582c0,0.319-0.258,0.578-0.578,0.578s-0.582-0.259-0.582-0.578
		C135.703,128.504,135.964,128.246,136.285,128.246L136.285,128.246z M25.496,128.797c1.051,0.383,1.953,0.945,3.039,1.312
		c0.703,0.239,0.512,0.806-0.219,1.603c-0.812,0.961-1.609,1.43-2.734,1.965l0.011-1.621c1.368-0.477,2.239-1.618-0.058-1.98
		L25.496,128.797z M139.019,129.703c0.398,0.004,0.961,0.016,1.621,0.151c1.676,0.349,1.871,0.497,0.867,1.673
		c-0.375,0.438-0.93,1.094-1.234,1.465c-0.988,1.379-1.523,0.905-1.984-0.875C137.718,130.254,137.585,129.539,139.019,129.703
		L139.019,129.703z M30.75,130.367c0.32,0,0.578,0.258,0.578,0.578s-0.258,0.577-0.578,0.577c-0.325,0-0.582-0.257-0.582-0.577
		S30.425,130.367,30.75,130.367L30.75,130.367z M137.328,131.629c0.16,0.586,0.402,1.336,0.59,1.867
		c0.906,2.004,0.332,1.227-1.297,1.051c-1.094-0.117-2.836,0.066-3.266-0.238c-0.191-0.243-0.016-0.887,0.336-1.613
		c0.492-1.023,1.391-1.895,2.063-2.289C137.453,129.621,137.054,130.617,137.328,131.629L137.328,131.629z M39.476,130.914
		l18.258,24.137l-1.434,2.043l-18.777-24.821L39.476,130.914z M153.886,131.004c-9.488,6.859-13.133,15.18-13.875,16.269
		l13.914-5.366L153.886,131.004z M135.769,131.793c-0.523,0.141-1.27,1.104-0.949,1.483c0.195,0.2,0.961,0.224,1.328,0.091
		C136.71,133.16,136.324,131.789,135.769,131.793L135.769,131.793z M55.765,157.895l-3.886,4.898l-20.262-26.207l5.113-3.691
		L55.765,157.895z M152.875,132.422l0.145,9.008l-11.902,4.961C145.101,139.66,149.007,135.5,152.875,132.422L152.875,132.422z
		 M71.507,133.187l4.766,6.204l-5.824-0.133L71.507,133.187z M131.773,133.695c0.32,0,0.578,0.258,0.578,0.577
		c0,0.321-0.258,0.579-0.578,0.579s-0.578-0.258-0.578-0.579C131.195,133.953,131.453,133.695,131.773,133.695L131.773,133.695z
		 M135.265,135.164c2.18,0.026,2.906,0.145,2.273,1.219c-0.844,1.043-1.344,2.039-2.266,3.004c-0.535,0.543-1.199-0.575-1.758-2.364
		c-0.449-1.444-0.219-1.808,0.633-1.819C135.003,135.19,135.148,135.16,135.265,135.164L135.265,135.164z M132.75,137.117
		c0.176,0.569,0.594,1.508,0.926,2.082c0.332,0.57,0.703,1.207,0.68,1.316c-0.055,0.27-0.309,0.289-0.883,0.074
		c-1.242-0.559-4.164,0.031-4.242-0.242c-0.434-0.618,0.219-2.305,1.445-3.473c0.598-0.57,1.145-0.938,1.465-0.945
		C132.457,135.926,132.511,136.363,132.75,137.117L132.75,137.117z M30.918,136.672l20.617,26.773l-1.43,1.738l-20.848-27.293
		c0,0-3.289,1.613-4.257,2.152l0.129,13.848l-0.563-0.027L24.648,224l11.504-11.469l-0.148-47.595c2.441,2.297,4.531,4.747,7.324,7
		l4.785-0.039c12.488-12.702,19.328-23.573,20.832-43.043c1.004-13.022-3.324-29.401-14.801-45.272l-2.804,1.703l5.539,8.344
		l-11.731,5.199c-4.672,9.848-10.211,18.938-20.34,24.141l-0.054,12.75l-0.18,0.261l0.137,4.004L30.918,136.672z M131.714,137.586
		c-0.547,0.043-1.402,1.223-1.012,1.625c0.461,0.223,1.176,0.207,1.473-0.191C132.378,138.633,132.328,137.812,131.714,137.586
		L131.714,137.586z M70.215,140.344l6.054,0.035l-1.582,5.195l-5.898-0.113L70.215,140.344z M127.73,140.32
		c0.32,0,0.578,0.258,0.578,0.577c0,0.325-0.258,0.582-0.578,0.582s-0.582-0.257-0.582-0.582
		C127.148,140.578,127.41,140.32,127.73,140.32L127.73,140.32z M96.882,140.479l0.781,6.743
		c-6.602,2.402-13.723,6.477-19.949,13.964c-1.067-0.069-9.559,0.075-9.559,0.075c0.215,0.031,7.871-14.414,8.75-20.688
		L96.882,140.479z M72.902,141.108l-2.777,1.907l2.172,2.313l2.875-1.945L72.902,141.108z M130.687,141.137
		c0.59-0.004,1.379,0.066,2.016,0.179c1.023,0.2,1.172,0.22,0.828,1.063c-0.461,1.121-1.5,3.141-1.762,3.305
		c-0.938,0.578-3.02-3.59-2.309-4.309C129.648,141.227,130.046,141.141,130.687,141.137L130.687,141.137z M128.031,142.418
		c0.27-0.023,0.625,0.496,0.73,0.945c0.129,0.547,1.074,1.922,1.672,2.582c0.746,0.827,0.707,0.945-0.363,1.031
		c-1.277,0.102-2.527,0.355-3.246,0.613c-1.113,0.406-1.266,0.316-1.121-0.985C125.917,144.641,127.226,142.488,128.031,142.418
		L128.031,142.418z M127.054,146.477c0.137,0.378,1.867-0.316,1.965-0.773c-0.02-0.207-0.695-1.388-1.105-1.441
		C127.222,144.367,126.933,145.937,127.054,146.477L127.054,146.477z M68.629,146.211l5.722,0.055l-1.875,4.714l-5.66-0.015
		L68.629,146.211z M71.191,146.84l-2.742,1.734l2.137,2.066l2.625-1.809L71.191,146.84z M129.386,147.695
		c0.484-0.005,1,0.043,1.105,0.223c0.305,0.5-0.934,3.297-0.934,3.297l-2.016,0.801c-0.434-0.895-1.176-1.82-1.355-2.789
		c-0.07-0.422,0.141-0.579,0.609-0.84C127.492,147.996,128.574,147.703,129.386,147.695L129.386,147.695z M123.98,147.926
		c0.32,0,0.582,0.258,0.582,0.578s-0.262,0.578-0.582,0.578s-0.578-0.258-0.578-0.578S123.66,147.926,123.98,147.926L123.98,147.926
		z M97.886,148.004c0,0,1.234,6.988,1.305,6.219c-9.547,3.593-15.129,8.898-17.773,14.07l-17.907-0.012l3.996-6.199l10.602-0.055
		C83.234,155.809,89.554,150.852,97.886,148.004L97.886,148.004z M95.593,149.647l-0.883,2.825l2.676,1.707l1.008-3.032
		L95.593,149.647z M124.925,149.703c0.227-0.02,0.449,0.362,0.91,1.18c0.34,0.601,0.789,1.48,0.789,1.48l-0.801,0.297
		c-0.648-2.207-1.238-1.388-1.309,0.563l-1.098,0.438c0,0,0.121-1.879,0.746-2.974C124.523,150.055,124.726,149.723,124.925,149.703
		L124.925,149.703z M66.558,151.637l5.551,0.066l-2.32,4.809l-5.645-0.153L66.558,151.637z M90.761,152.02l-0.438,3.57l2.988,0.633
		l0.406-3.391L90.761,152.02z M68.918,152.062l-2.743,1.774l1.801,2.367l2.637-1.773L68.918,152.062z M86.476,155.187l-0.566,3.286
		l2.801,0.636l0.636-3.304L86.476,155.187z M25.55,155.379l7.016,6.957l0.387,48.519l-6.977,6.997L25.55,155.379z M63.722,157.156
		c-0.023,0.039,5.598,0.159,5.598,0.159l-2.25,4.063l-1.922-0.086l2.527-1.728l-1.621-2.073l-2.597,1.694l1.449,2.099l-3.797-0.082
		L63.722,157.156z M99.917,158.358l1.902,6.294l-2.289,0.398l-1.723-5.922C98.511,158.766,99.214,158.586,99.917,158.358
		L99.917,158.358z M81.918,158.75l0.035,3.776l3.058,0.259l0.121-3.539L81.918,158.75z M97.117,159.354l1.746,5.981l-1.453,0.414
		l-2.086-5.68C95.894,159.733,96.492,159.488,97.117,159.354L97.117,159.354z M94.464,160.59l2.242,5.855
		c-3.098,1.254-6.305,3.941-8.719,6.62c-1.793-1.315-2.844-1.452-3.949-1.754C87.086,165.641,90.683,162.66,94.464,160.59
		L94.464,160.59z M60.66,162.059l5.883,0.175l-4.09,6.114l-6.66-0.008L60.66,162.059z M78.179,162.285l-0.382,3.573l3.148,1.864
		l0.48-3.672L78.179,162.285z M74.382,162.785l-2.238,2.366l2.379,2.716l2.18-2.832L74.382,162.785z M69.375,162.91l-2.66,2.441
		l2.113,2.762l2.433-2.777L69.375,162.91z M35.476,165.187l0.262,47.399l-9.777,9.476l-0.071-2.55l7.77-8.117
		c0.008-16.031-0.043-32.066-0.098-48.098L35.476,165.187z M61.484,163.656l-2.699,3.68l3.203,0.008l2.32-3.563L61.484,163.656z
		 M44.84,186.594c-1.067,3.828-5.973,7.984-6.059,7.914c2.426,3.48,2.344,8.445,0.203,10.89c0.012-0.054,3.906,3.181,4.453,4.86
		c0.309,0.668,0.43,1.48,0.82,2.144c0.106,0.177,0.434,0.614,0.434,0.614C54.207,203.367,49.675,192.059,44.84,186.594
		L44.84,186.594z M44.98,187.594c9.238,11.461,3.149,21.953-0.074,24.879l-0.617-1.016c6.867-7.978,3.957-17.781-0.043-22.422
		L44.98,187.594z M43.98,189.824c0.063,0.188,0.422,0.727,0.156,0.691l-0.464-0.094L43.98,189.824z M43.91,191.102
		c0.203,0,0.371,0.063,0.461,0.203c0.188,0.313-0.766,2.949-1.356,2.332c-0.179-0.348-0.386-0.648-0.55-1.008
		c-0.196-0.43-0.067-0.637,0.375-1.067C43.14,191.27,43.578,191.102,43.91,191.102L43.91,191.102z M45.238,191.815
		c0.469,0.039,1.133,1.509,1.195,2.56c0.028,0.108-1.578-0.25-2.004-0.738C44.48,193.207,44.882,192.113,45.238,191.815
		L45.238,191.815z M41.625,193.016c2.781,5.593,2.609,9.961,0.16,13.98l-1.918-1.642c1.289-3.054,1.926-6.315-0.246-10.468
		L41.625,193.016z M43.504,194.418c0.191-0.021,0.785,0.07,1.312,0.238c1.859,0.594,1.93,1.813,0.137,2.707
		c-0.742,0.37-0.973,0.207-1.403-1.656C43.34,194.785,43.179,194.445,43.504,194.418L43.504,194.418z M47.097,196.559
		c0.36,0,0.524,0.675,0.567,1.848c0.043,1.109-0.196,1.195-1.09,0.405c-0.965-0.858-1.133-1.062-0.246-1.765
		C46.59,196.84,46.933,196.559,47.097,196.559L47.097,196.559z M44.558,198.395c0.18-0.016,0.692,0.313,1.196,0.695
		c1.273,0.969,0.988,1.633-0.457,2.101c-1,0.329-0.95,0.368-0.926-1.366C44.382,198.969,44.332,198.414,44.558,198.395
		L44.558,198.395z M61.41,199.973c-1.551,0.395-2.203,1.777-1.688,3.027c0.235,0.565,0.59,0.57,0.172,0.918
		c-0.469,0.539-0.715,1.785-0.203,2.238c0.606,0.348,0.762-0.255,0.125,0.918l-11.703,21.5l70.25-0.129l-8.441-15.816
		c0.02-0.024,0.676-2.609-0.676-2.922c-0.434-0.099-0.684-0.5-0.77-0.887c0.109-1.102-0.391-1.57-0.813-2.137
		c-6.676,0.941-12.477,0.473-17.27-0.605c-6.902-1.552-11.836-4.242-15.043-5.086C70.925,199.828,65.586,199.324,61.41,199.973
		L61.41,199.973z M65.195,200.121c5.445-0.035,11.539,1.633,15.801,3.477c4.426,1.828,9.113,3.191,13.848,3.891
		c3.91,0.491,7.809,0.241,11.547-0.055c0.406-0.059,0.832-0.004,1.133,0.32c0.777,0.859,0.25,1.398-1.688,1.578
		c-3.113,0.258-6.973,0.147-10.398-0.367c-5.418-0.621-11.164-2.262-16.125-4.317c-6.195-2.323-11.887-3.101-16.383-2.418
		c-2.468,0.379-2.832,0.438-2.824-0.226C60.125,200.711,61.195,200.117,65.195,200.121L65.195,200.121z M47.359,203.871
		c-0.238,0.551-1.93-1.246-1.914-1.75c0.035-0.227,1.406-1.117,1.949-1.48c0.262-0.204,0.246-0.098,0.25,0.136
		C47.652,201.457,47.601,203.203,47.359,203.871L47.359,203.871z M44.754,202.547c0.781,0.104,2.066,2.215,0.933,2.543
		c-1,0.289-1.914,0.476-2.035-0.195c0.516-1.652,0.711-2.305,1.008-2.344C44.691,202.547,44.722,202.547,44.754,202.547
		L44.754,202.547z M90.183,209.75c4.984,0.863,11.531,1.379,15.809,1.047c2.453-0.25,2.969-0.168,2.953,0.851
		c-0.008,0.642,0.063,0.625-3.105,0.625c-2.629,0.173-4.996-0.108-7.543-0.237c-5.27-0.263-10.055-1.168-14.48-2.703
		c-4.91-1.273-9.16-3.719-13.965-4.224c-4.402-0.433-8.363,0.349-9.195,0.81c-0.277-0.004-0.422-0.414-0.406-0.793
		c0.015-0.371,0.152-0.668,0.465-0.906C73.34,201.035,80.097,207.854,90.183,209.75L90.183,209.75z M46.402,205.535
		c0.422,0.004,0.285,0.625-0.402,1.944c-0.586,1.122-0.817,1.114-1.145-0.034c-0.355-1.23-0.32-1.363,0.379-1.548
		C45.648,205.801,46,205.586,46.402,205.535L46.402,205.535z M43.457,206.16c0.492,0.008,1.191,2.237,0.832,2.66
		c-0.282,0.332-1.309,0.105-1.61-0.285C42.199,207.901,42.816,206.147,43.457,206.16L43.457,206.16z M65.527,206.762
		c1.957-0.02,3.91,0.191,5.703,0.5c-1.031,0.379-2.058,0.734-3.133,1.352C67.355,207.977,66.515,207.358,65.527,206.762
		L65.527,206.762z M68.07,209.473c6.922-3.859,9.844,1.468,10.844,2.328c6.051-1.34,7.234-0.68,10.609,2.969
		c6.059-2.965,8.996-0.445,11.527,1.148c2.965-2.773,6.727-2.853,8.688-1.457c0.367,0.613,0.875,1.391,0.918,1.621
		c0.031,0.184-0.242-0.027-0.926-0.517c-3.559-2.546-9.465,0.625-7.887,3.981c0.426,0.902,0.359,1.293-0.277,1.656
		c-0.902,0.608-2.012-0.402-1.383-1.438c1.051-1.727,0.262-3.172-2.293-4.504c-3.598-1.883-9.476,0.227-8.266,3
		c0.773,0.886,0.055,1.508-0.965,1.477c-1.16-0.035-1.551-0.809-0.809-1.637c0.926-1.055,0.684-2.125-0.394-3.348
		c-3.235-4.603-9.77-2.777-8.907,1.258c0.383,1-0.699,1.406-1.82,0.961c-0.715-0.286-0.605-1.387,0.172-1.777
		c0.902-0.091,1.027-1.395,0.922-2.23c-0.156-1.215-1.949-2.41-3.723-3.047c-1.285-0.461-2.476-0.56-3.418-0.473
		c-1.988,0.18-3.097,1.531-2.77,3.551c0.195,1.194-0.141,2.43-1.539,1.773c-0.766-0.355-0.575-1.223,0.207-2.023
		c2.75-2.688-2.789-5.953-6.133-3.703c-0.567,0.465-0.981,0.547-0.981,0.547C61.566,204.371,68.132,209.258,68.07,209.473
		L68.07,209.473z M77.187,208.77l4.18,1.574c-0.965,0.191-1.645,0.461-2.328,0.73L77.187,208.77z M66.273,210.469
		c-3.859-0.735-4.066,3.578-1.555,4.281c-3.457,4.75,5.598,6.594,3.938,0.729c4.586,0.829,3.758-4.394,0.344-4.343
		c0.8-1.946,7.097-0.473,6.824,0.972c-4.258,0.45-2.555,4.328-0.715,4.337c-4.449,4.215,4.457,8.098,4.223,1.745
		c3.574,0.75,3.996-3.995,0.558-4.304c1.258-1.773,5.754-0.657,7,1.367c-3.547,0.473-3.328,3.586-0.55,4.09
		c-3.52,4.48,5.14,6.136,4.238,0.929c3.105,1.067,4.809-3.073,0.789-4.257c4.117-2.454,8.586,1.203,8.102,1.277
		c-4.699-0.277-3.762,4.43-0.363,4.176c-2.16,4.89,6.41,5.16,4.238,0.09c3.855,0.07,3.516-4.395-0.18-4.695
		c2.328-1.695,4.949-1.844,6.637-0.259c-3.516,0.927-2.055,5.013,1.484,3.879c0.324,3.423,3.105,2.696,3.168,2.595l2.488,4.641
		l-67.406,0.105l5.75-10.617c3.402,0.176,3.281-3.099,3.133-3.18c2.261,1.617,4.691-2.398,1.382-3.548
		C62.504,207.652,66.511,210.266,66.273,210.469L66.273,210.469z M44.328,210.172c-0.141,0.144-0.176,0.229-0.41,0.015
		C43.332,209.516,44.929,209.457,44.328,210.172L44.328,210.172z M58.265,211.949c0.297,0.241,0.094,0.909-0.148,1.137
		c-0.606,0.647-0.813,0.598-0.277-0.524C58,212.223,58.148,211.945,58.265,211.949L58.265,211.949z M87.797,212.25l3.507,0.848
		l-1.664,0.938C89.023,213.367,88.433,212.793,87.797,212.25L87.797,212.25z M98.753,213.66l3.809,0.246
		c-0.504,0.34-0.996,0.659-1.613,1.284C100.468,214.68,99.562,214.172,98.753,213.66L98.753,213.66z M111.449,217.547
		c0.211,0.445,1.055,1.979,0.977,2.019C111.191,219.781,110.859,217.949,111.449,217.547L111.449,217.547z M111.449,217.547"/>
</g>
</svg>
