<?xml version="1.0" encoding="utf-8"?>
<!-- Generator: Adobe Illustrator 15.0.0, SVG Export Plug-In . SVG Version: 6.00 Build 0)  -->
<!DOCTYPE svg PUBLIC "-//W3C//DTD SVG 1.1//EN" "http://www.w3.org/Graphics/SVG/1.1/DTD/svg11.dtd">
<svg version="1.1" id="Layer_1" xmlns="http://www.w3.org/2000/svg" xmlns:xlink="http://www.w3.org/1999/xlink" x="0px" y="0px"
	 width="178.582px" height="249.449px" viewBox="0 0 178.582 249.449" enable-background="new 0 0 178.582 249.449"
	 xml:space="preserve">
<g>
	<path fill="#FFFFFF" d="M8.504,0"/>
	<path fill="#D40000" d="M71.457,46.176c7.937-7.742,13.148-16.188,18.136-24.309c4.371,8.934,10.646,16.754,17.427,24.309
		c-7.258,7.496-12.883,15.511-17.407,23.933C84.597,61.477,79.32,53.652,71.457,46.176L71.457,46.176z"/>
	<path fill="#D40000" d="M71.457,203.857c7.937-7.744,13.148-16.189,18.132-24.312c4.375,8.937,10.647,16.754,17.431,24.312
		c-7.258,7.496-12.883,15.51-17.407,23.936C84.597,219.156,79.32,211.336,71.457,203.857L71.457,203.857z"/>
	<path fill="#D40000" d="M71.457,124.948c7.937-7.741,13.148-16.188,18.132-24.308c4.375,8.933,10.647,16.754,17.431,24.308
		c-7.258,7.497-12.883,15.513-17.407,23.938C84.597,140.25,79.32,132.43,71.457,124.948L71.457,124.948z"/>
	<path fill="#D40000" d="M158.341,203.746c3.254-3.172,5.387-6.629,7.43-9.957c1.789,3.66,4.359,6.861,7.141,9.957
		c-2.973,3.068-5.276,6.355-7.133,9.805C163.723,210.016,161.563,206.813,158.341,203.746L158.341,203.746z"/>
	<path fill="#D40000" d="M5.238,46.064c3.254-3.172,5.387-6.632,7.43-9.957c1.793,3.66,4.359,6.864,7.14,9.957
		c-2.972,3.071-5.277,6.356-7.133,9.805C10.625,52.334,8.461,49.127,5.238,46.064L5.238,46.064z"/>
	<path fill="#D40000" d="M3.933,27.482l2.04-1.469c1.769,2.825,3.746,4.688,6.769,4.368c4.539-0.305,6.422-4.977,5.469-8.497
		c-0.918-3.156-4.676-4.695-7.66-3.011c-0.707,0.398-1.52,0.886-1.52,0.886l-1.062-1.73l7.011-8.156H7.371v3.375H4.449V7.197h14.875
		v2.055c0,0-3.984,4.054-5.305,6.277c3.247,0.117,5.86,2.133,6.793,5.324c0.551,1.68,0.305,5.524-0.41,7.176
		c-1.195,2.762-4.469,5-7.457,5.129C7.926,33.49,5.262,30.037,3.933,27.482L3.933,27.482z"/>
	<path fill="#D40000" d="M174.216,222.724l-2.039,1.473c-1.773-2.824-3.75-4.691-6.773-4.367c-4.539,0.306-6.418,4.974-5.469,8.496
		c0.918,3.156,4.676,4.695,7.664,3.012c0.703-0.397,1.52-0.813,1.52-0.813l1.258,1.625l-7.207,8.188h7.609v-3.375h2.918v6.052
		h-14.871v-2.056c0,0,3.984-4.055,5.301-6.276c-3.241-0.117-5.854-2.138-6.793-5.328c-0.547-1.676-0.301-5.521,0.414-7.172
		c1.195-2.763,4.47-5,7.457-5.129C170.22,216.72,172.884,220.173,174.216,222.724L174.216,222.724z"/>
</g>
</svg>
