<?xml version="1.0" encoding="utf-8"?>
<!-- Generator: Adobe Illustrator 15.0.0, SVG Export Plug-In . SVG Version: 6.00 Build 0)  -->
<!DOCTYPE svg PUBLIC "-//W3C//DTD SVG 1.1//EN" "http://www.w3.org/Graphics/SVG/1.1/DTD/svg11.dtd">
<svg version="1.1" id="Layer_1" xmlns="http://www.w3.org/2000/svg" xmlns:xlink="http://www.w3.org/1999/xlink" x="0px" y="0px"
	 width="178.582px" height="249.449px" viewBox="0 0 178.582 249.449" enable-background="new 0 0 178.582 249.449"
	 xml:space="preserve">
<g>
	<path fill="#FFFFFF" d="M8.504,0"/>
	<path fill="#D40000" d="M27.007,45.879c7.938-7.746,13.149-16.192,18.133-24.313c4.371,8.938,10.645,16.754,17.43,24.313
		c-7.258,7.492-12.883,15.508-17.406,23.933C40.148,61.176,34.871,53.355,27.007,45.879L27.007,45.879z"/>
	<path fill="#D40000" d="M27.007,124.991c7.938-7.745,13.149-16.187,18.133-24.312c4.371,8.937,10.645,16.754,17.43,24.312
		c-7.258,7.497-12.883,15.509-17.406,23.935C40.148,140.289,34.871,132.469,27.007,124.991L27.007,124.991z"/>
	<path fill="#D40000" d="M27.007,203.871c7.938-7.746,13.149-16.188,18.133-24.313c4.371,8.938,10.645,16.752,17.43,24.313
		c-7.258,7.496-12.883,15.508-17.406,23.934C40.148,219.168,34.871,211.348,27.007,203.871L27.007,203.871z"/>
	<path fill="#D40000" d="M116.234,45.879c7.938-7.746,13.147-16.192,18.133-24.313c4.371,8.938,10.645,16.754,17.43,24.313
		c-7.258,7.492-12.883,15.508-17.406,23.933C129.375,61.176,124.098,53.355,116.234,45.879L116.234,45.879z"/>
	<path fill="#D40000" d="M116.234,124.991c7.938-7.745,13.147-16.187,18.133-24.312c4.371,8.937,10.645,16.754,17.43,24.312
		c-7.258,7.497-12.883,15.509-17.406,23.935C129.375,140.289,124.098,132.469,116.234,124.991L116.234,124.991z"/>
	<path fill="#D40000" d="M116.234,203.871c7.938-7.746,13.147-16.188,18.133-24.313c4.371,8.938,10.645,16.752,17.43,24.313
		c-7.258,7.496-12.883,15.508-17.406,23.934C129.375,219.168,124.098,211.348,116.234,203.871L116.234,203.871z"/>
	<path fill="#D40000" d="M160.07,204.331c3.25-3.176,5.387-6.633,7.43-9.961c1.789,3.66,4.359,6.863,7.137,9.961
		c-2.973,3.07-5.276,6.353-7.129,9.806C165.452,210.597,163.293,207.394,160.07,204.331L160.07,204.331z"/>
	<path fill="#D40000" d="M3.817,46.578c3.25-3.172,5.387-6.633,7.426-9.957c1.793,3.66,4.363,6.859,7.141,9.957
		c-2.973,3.07-5.277,6.352-7.129,9.805C9.2,52.844,7.036,49.641,3.817,46.578L3.817,46.578z"/>
	<path fill="#D40000" d="M4.297,25c-0.325-2.196-0.321-7.875-0.051-9.551c0.82-5.145,2.824-7.496,6.176-8.27
		c3.257-0.746,7.832,0.086,8.835,4.387l-2.726,0.051c-1.469-2.906-5.195-2.129-7.289-0.867c-1.676,1.011-2.434,5.219-2.11,5.476
		c-0.003,0,3.168-2.3,5.661-2.132c5.336,0.546,7.535,5.085,7.347,9.375c-0.168,5.16-1.836,9.281-7.488,9.558
		C7.277,32.825,4.813,29.946,4.297,25L4.297,25z M17.555,23.637c0.028-3.578-1.629-6.257-4.761-6.554
		c-3.133-0.293-6.289,2.707-6.071,6.355c0.219,3.66,1.664,6.746,5.461,6.727C16.27,30.149,17.532,26.184,17.555,23.637
		L17.555,23.637z"/>
	<path fill="#D40000" d="M174.301,224.978c0.328,2.201,0.324,7.879,0.055,9.557c-0.824,5.145-2.828,7.496-6.18,8.266
		c-3.254,0.75-7.832-0.082-8.836-4.383l2.727-0.051c1.473,2.904,5.195,2.129,7.293,0.861c1.676-1.006,2.43-5.213,2.105-5.472
		c0.004,0-3.164,2.302-5.66,2.134c-5.332-0.548-7.531-5.086-7.348-9.375c0.168-5.162,1.836-9.287,7.487-9.56
		C171.319,217.159,173.785,220.038,174.301,224.978L174.301,224.978z M161.047,226.347c-0.031,3.578,1.625,6.258,4.758,6.551
		c3.133,0.298,6.293-2.702,6.074-6.352c-0.224-3.66-1.664-6.746-5.461-6.73C162.332,219.835,161.065,223.8,161.047,226.347
		L161.047,226.347z"/>
</g>
</svg>
