<?xml version="1.0" encoding="utf-8"?>
<!-- Generator: Adobe Illustrator 15.0.0, SVG Export Plug-In . SVG Version: 6.00 Build 0)  -->
<!DOCTYPE svg PUBLIC "-//W3C//DTD SVG 1.1//EN" "http://www.w3.org/Graphics/SVG/1.1/DTD/svg11.dtd">
<svg version="1.1" id="Layer_1" xmlns="http://www.w3.org/2000/svg" xmlns:xlink="http://www.w3.org/1999/xlink" x="0px" y="0px"
	 width="178.582px" height="249.449px" viewBox="0 0 178.582 249.449" enable-background="new 0 0 178.582 249.449"
	 xml:space="preserve">
<g>
	<path fill="#FFFFFF" d="M8.504,0"/>
	<path fill="#D40000" d="M26.806,45.535c7.937-7.746,13.148-16.191,18.133-24.312c4.371,8.938,10.645,16.754,17.429,24.312
		c-7.257,7.492-12.882,15.508-17.405,23.934C39.946,60.832,34.669,53.012,26.806,45.535L26.806,45.535z"/>
	<path fill="#D40000" d="M26.806,125.729c7.937-7.742,13.148-16.187,18.133-24.308c4.371,8.933,10.645,16.754,17.429,24.308
		c-7.257,7.498-12.882,15.515-17.405,23.938C39.946,141.031,34.669,133.211,26.806,125.729L26.806,125.729z"/>
	<path fill="#D40000" d="M26.806,204.607c7.937-7.74,13.148-16.188,18.133-24.309c4.371,8.934,10.645,16.756,17.429,24.309
		c-7.257,7.496-12.882,15.514-17.405,23.938C39.946,219.91,34.669,212.09,26.806,204.607L26.806,204.607z"/>
	<path fill="#D40000" d="M71.954,85.633c7.938-7.746,13.148-16.192,18.133-24.313c4.371,8.938,10.645,16.754,17.43,24.313
		c-7.258,7.496-12.883,15.508-17.406,23.933C85.095,100.93,79.817,93.109,71.954,85.633L71.954,85.633z"/>
	<path fill="#D40000" d="M116.031,45.535c7.938-7.746,13.147-16.191,18.134-24.312c4.371,8.938,10.646,16.754,17.43,24.312
		c-7.258,7.492-12.883,15.508-17.405,23.934C129.173,60.832,123.896,53.012,116.031,45.535L116.031,45.535z"/>
	<path fill="#D40000" d="M116.031,125.729c7.938-7.742,13.147-16.187,18.134-24.308c4.371,8.933,10.646,16.754,17.43,24.308
		c-7.258,7.498-12.883,15.515-17.405,23.938C129.173,141.031,123.896,133.211,116.031,125.729L116.031,125.729z"/>
	<path fill="#D40000" d="M116.031,204.607c7.938-7.74,13.147-16.188,18.134-24.309c4.371,8.934,10.646,16.756,17.43,24.309
		c-7.258,7.496-12.883,15.514-17.405,23.938C129.173,219.91,123.896,212.09,116.031,204.607L116.031,204.607z"/>
	<path fill="#D40000" d="M160.065,204.332c3.254-3.172,5.387-6.633,7.43-9.957c1.793,3.66,4.359,6.863,7.142,9.957
		c-2.974,3.068-5.276,6.354-7.133,9.805C165.452,210.602,163.288,207.395,160.065,204.332L160.065,204.332z"/>
	<path fill="#D40000" d="M3.933,46.449c3.25-3.175,5.386-6.632,7.429-9.961c1.789,3.661,4.36,6.864,7.137,9.961
		c-2.973,3.071-5.277,6.352-7.129,9.805C9.315,52.715,7.155,49.512,3.933,46.449L3.933,46.449z"/>
	<path fill="#D40000" d="M7.918,33.177c1.707-8.871,3.527-15.527,8.304-22.758H6.515v3.109H3.933V7.666H18.14l1.75,2.754
		c-5.074,5.438-9.718,23.012-8.898,22.758H7.918z"/>
	<path fill="#D40000" d="M170.652,217.29c-1.707,8.871-3.527,15.527-8.305,22.758h9.707v-3.113h2.582v5.867h-14.203l-1.75-2.754
		c5.074-5.438,9.719-23.018,8.895-22.758H170.652z"/>
</g>
</svg>
