<?xml version="1.0" encoding="utf-8"?>
<!-- Generator: Adobe Illustrator 15.0.0, SVG Export Plug-In . SVG Version: 6.00 Build 0)  -->
<!DOCTYPE svg PUBLIC "-//W3C//DTD SVG 1.1//EN" "http://www.w3.org/Graphics/SVG/1.1/DTD/svg11.dtd">
<svg version="1.1" id="Layer_1" xmlns="http://www.w3.org/2000/svg" xmlns:xlink="http://www.w3.org/1999/xlink" x="0px" y="0px"
	 width="178.582px" height="249.449px" viewBox="0 0 178.582 249.449" enable-background="new 0 0 178.582 249.449"
	 xml:space="preserve">
<g>
	<path fill="#FFFFFF" d="M8.504,0"/>
	<path fill="#D40000" d="M26.906,45.497c7.937-7.746,13.148-16.192,18.133-24.313c4.371,8.938,10.645,16.754,17.429,24.313
		c-7.257,7.496-12.882,15.508-17.406,23.933C40.047,60.793,34.769,52.973,26.906,45.497L26.906,45.497z"/>
	<path fill="#D40000" d="M26.906,125.696c7.937-7.747,13.148-16.191,18.133-24.313c4.371,8.937,10.645,16.753,17.429,24.313
		c-7.257,7.496-12.882,15.508-17.406,23.934C40.047,140.993,34.769,133.173,26.906,125.696L26.906,125.696z"/>
	<path fill="#D40000" d="M26.906,204.575c7.937-7.746,13.148-16.191,18.133-24.313c4.371,8.938,10.645,16.754,17.429,24.313
		c-7.257,7.496-12.882,15.508-17.406,23.934C40.047,219.872,34.769,212.052,26.906,204.575L26.906,204.575z"/>
	<path fill="#D40000" d="M71.851,85.595C79.789,77.852,85,69.407,89.984,61.286c4.371,8.934,10.645,16.754,17.43,24.309
		c-7.258,7.496-12.883,15.511-17.407,23.937C84.992,100.895,79.715,93.075,71.851,85.595L71.851,85.595z"/>
	<path fill="#D40000" d="M116.132,45.497c7.935-7.746,13.147-16.192,18.134-24.313c4.371,8.938,10.645,16.754,17.43,24.313
		c-7.258,7.496-12.887,15.508-17.406,23.933C129.273,60.793,123.996,52.973,116.132,45.497L116.132,45.497z"/>
	<path fill="#D40000" d="M116.132,125.696c7.935-7.747,13.147-16.191,18.134-24.313c4.371,8.937,10.645,16.753,17.43,24.313
		c-7.258,7.496-12.887,15.508-17.406,23.934C129.273,140.993,123.996,133.173,116.132,125.696L116.132,125.696z"/>
	<path fill="#D40000" d="M116.132,204.575c7.935-7.746,13.147-16.191,18.134-24.313c4.371,8.938,10.645,16.754,17.43,24.313
		c-7.258,7.496-12.887,15.508-17.406,23.934C129.273,219.872,123.996,212.052,116.132,204.575L116.132,204.575z"/>
	<path fill="#D40000" d="M71.851,165.134c7.938-7.742,13.149-16.188,18.133-24.309c4.371,8.934,10.645,16.754,17.43,24.309
		c-7.258,7.496-12.883,15.512-17.407,23.938C84.992,180.433,79.715,172.614,71.851,165.134L71.851,165.134z"/>
	<path fill="#D40000" d="M159.629,204.264c3.25-3.172,5.387-6.633,7.43-9.961c1.789,3.66,4.359,6.863,7.137,9.961
		c-2.973,3.07-5.276,6.352-7.129,9.805C165.011,210.527,162.847,207.326,159.629,204.264L159.629,204.264z"/>
	<path fill="#D40000" d="M4.45,46.445c3.254-3.172,5.387-6.633,7.43-9.957c1.793,3.66,4.359,6.863,7.14,9.957
		c-2.972,3.071-5.277,6.356-7.132,9.805C9.837,52.71,7.673,49.507,4.45,46.445L4.45,46.445z"/>
	<path fill="#D40000" d="M3.936,25.544c0.129-3.5,1.418-4.816,3.957-6.648c-2.027-1.438-2.879-3.551-2.707-5.352
		c0.418-4.356,3.848-6.535,7.59-6.441c3.738,0.093,6.961,3.011,7.215,6.179c0.219,2.754-0.617,4.082-2.605,5.531
		c2.359,1.954,3.871,3.239,3.812,6.688c-0.055,3.449-3.043,7.551-8.25,7.676C7.741,33.307,3.811,29.044,3.936,25.544L3.936,25.544z
		 M18.475,25.557c0.223-3.172-2.629-5.309-5.851-5.344c-3.137-0.031-5.945,2.598-5.945,5.445c0,3.055,3.652,4.715,6.007,4.727
		C15.554,30.393,18.284,28.287,18.475,25.557L18.475,25.557z M17.444,14.216c0.063-2.672-2.445-4.582-5.031-4.508
		c-2.301,0.07-4.734,1.793-4.738,4.027c0,2.789,2.769,4.184,5.136,4.239C14.956,18.021,17.397,16.231,17.444,14.216L17.444,14.216z"
		/>
	<path fill="#D40000" d="M174.634,224.672c-0.129,3.5-1.414,4.816-3.953,6.648c2.022,1.434,2.879,3.545,2.703,5.348
		c-0.414,4.359-3.849,6.539-7.586,6.445c-3.742-0.099-6.965-3.013-7.215-6.181c-0.22-2.754,0.616-4.082,2.604-5.53
		c-2.363-1.955-3.871-3.24-3.816-6.688c0.06-3.449,3.048-7.552,8.255-7.681C170.833,216.908,174.763,221.172,174.634,224.672
		L174.634,224.672z M160.099,224.658c-0.228,3.174,2.629,5.311,5.848,5.346c3.141,0.029,5.945-2.598,5.945-5.445
		c0-3.055-3.648-4.719-6.008-4.727C163.017,219.82,160.29,221.93,160.099,224.658L160.099,224.658z M161.126,236
		c-0.063,2.668,2.444,4.582,5.03,4.504c2.302-0.066,4.738-1.789,4.738-4.023c0.004-2.793-2.771-4.184-5.134-4.238
		C163.617,232.195,161.173,233.98,161.126,236L161.126,236z"/>
</g>
</svg>
