<?xml version="1.0" encoding="utf-8"?>
<!-- Generator: Adobe Illustrator 15.0.0, SVG Export Plug-In . SVG Version: 6.00 Build 0)  -->
<!DOCTYPE svg PUBLIC "-//W3C//DTD SVG 1.1//EN" "http://www.w3.org/Graphics/SVG/1.1/DTD/svg11.dtd">
<svg version="1.1" id="Layer_1" xmlns="http://www.w3.org/2000/svg" xmlns:xlink="http://www.w3.org/1999/xlink" x="0px" y="0px"
	 width="178.582px" height="249.449px" viewBox="0 0 178.582 249.449" enable-background="new 0 0 178.582 249.449"
	 xml:space="preserve">
<g>
	<path fill="#FFFFFF" d="M8.504,0"/>
	<path fill="#D40000" d="M27.14,46.129c7.934-7.746,13.149-16.192,18.133-24.313c4.371,8.938,10.645,16.754,17.43,24.313
		c-7.262,7.492-12.887,15.508-17.41,23.933C40.281,61.426,35,53.605,27.14,46.129L27.14,46.129z"/>
	<path fill="#D40000" d="M27.14,98.391c7.934-7.743,13.149-16.188,18.133-24.309c4.371,8.934,10.645,16.754,17.43,24.309
		c-7.262,7.496-12.887,15.511-17.41,23.938C40.281,113.691,35,105.871,27.14,98.391L27.14,98.391z"/>
	<path fill="#D40000" d="M27.14,151.91c7.934-7.746,13.149-16.191,18.133-24.313c4.371,8.938,10.645,16.754,17.43,24.313
		c-7.262,7.496-12.887,15.508-17.41,23.934C40.281,167.207,35,159.387,27.14,151.91L27.14,151.91z"/>
	<path fill="#D40000" d="M27.14,203.996c7.934-7.746,13.149-16.191,18.133-24.313c4.371,8.934,10.645,16.752,17.43,24.313
		c-7.262,7.492-12.887,15.508-17.41,23.934C40.281,219.293,35,211.473,27.14,203.996L27.14,203.996z"/>
	<path fill="#D40000" d="M72.293,124.901c7.937-7.746,13.148-16.19,18.137-24.312c4.37,8.937,10.645,16.754,17.426,24.312
		c-7.258,7.496-12.883,15.509-17.406,23.935C85.433,140.199,80.156,132.379,72.293,124.901L72.293,124.901z"/>
	<path fill="#D40000" d="M116.363,46.129c7.938-7.746,13.152-16.192,18.137-24.313c4.371,8.938,10.645,16.754,17.426,24.313
		c-7.258,7.492-12.883,15.508-17.406,23.933C129.507,61.426,124.227,53.605,116.363,46.129L116.363,46.129z"/>
	<path fill="#D40000" d="M116.363,98.391c7.938-7.743,13.152-16.188,18.137-24.309c4.371,8.934,10.645,16.754,17.426,24.309
		c-7.258,7.496-12.883,15.511-17.406,23.938C129.507,113.691,124.227,105.871,116.363,98.391L116.363,98.391z"/>
	<path fill="#D40000" d="M116.363,151.91c7.938-7.746,13.152-16.191,18.137-24.313c4.371,8.938,10.645,16.754,17.426,24.313
		c-7.258,7.496-12.883,15.508-17.406,23.934C129.507,167.207,124.227,159.387,116.363,151.91L116.363,151.91z"/>
	<path fill="#D40000" d="M116.363,203.996c7.938-7.746,13.152-16.191,18.137-24.313c4.371,8.934,10.645,16.752,17.426,24.313
		c-7.258,7.492-12.883,15.508-17.406,23.934C129.507,219.293,124.227,211.473,116.363,203.996L116.363,203.996z"/>
	<path fill="#D40000" d="M159.779,204.332c3.254-3.172,5.387-6.633,7.43-9.961c1.789,3.66,4.359,6.863,7.141,9.961
		c-2.973,3.07-5.276,6.352-7.133,9.805C165.162,210.596,163.001,207.395,159.779,204.332L159.779,204.332z"/>
	<path fill="#D40000" d="M4.222,46.444c3.25-3.172,5.387-6.633,7.43-9.957c1.789,3.66,4.359,6.864,7.137,9.957
		c-2.973,3.071-5.278,6.356-7.129,9.805C9.605,52.71,7.445,49.507,4.222,46.444L4.222,46.444z"/>
	<path fill="#D40000" d="M4.115,28.17l2.418-0.75c0.914,2.395,2.761,3.102,4.715,2.95c3.503-0.274,4.668-4.118,4.933-7.52
		c-1.367,1.418-3.422,2.141-5.168,2.07c-5.586-0.296-7.015-4.683-7.07-9.281c-0.152-3.875,1.48-6.683,4.281-7.969
		c1.481-0.656,4.875-0.656,6.367,0.118c3.426,1.773,4.692,4.839,4.461,12.152c0.004,6.02-1.297,13.031-7.867,13.18
		C7.384,33.635,4.5,30.737,4.115,28.17L4.115,28.17z M13.623,21.577c1.14-0.707,1.785-1.371,2.293-2.367
		c0.421-0.821,0.562-1.247,0.441-2.938c-0.305-4.363-2.637-6.84-6.02-6.348c-1.882,0.274-2.914,1.313-3.503,3.239
		c-1.094,3.558,0.292,7.726,2.886,8.688C10.888,22.28,12.693,22.155,13.623,21.577L13.623,21.577z"/>
	<path fill="#D40000" d="M174.46,222.036l-2.422,0.754c-0.914-2.395-2.762-3.102-4.715-2.949c-3.504,0.273-4.668,4.117-4.931,7.521
		c1.363-1.422,3.418-2.142,5.168-2.069c5.587,0.293,7.017,4.684,7.066,9.28c0.155,3.875-1.479,6.683-4.277,7.97
		c-1.483,0.651-4.879,0.651-6.371-0.119c-3.426-1.771-4.69-4.838-4.461-12.15c-0.004-6.02,1.298-13.031,7.867-13.182
		C171.186,216.575,174.069,219.474,174.46,222.036L174.46,222.036z M164.948,228.632c-1.142,0.707-1.781,1.371-2.293,2.369
		c-0.418,0.819-0.563,1.241-0.441,2.938c0.309,4.361,2.641,6.84,6.02,6.348c1.883-0.272,2.914-1.313,3.504-3.238
		c1.094-3.559-0.289-7.727-2.887-8.688C167.682,227.925,165.882,228.05,164.948,228.632L164.948,228.632z"/>
</g>
</svg>
