<?xml version="1.0" encoding="utf-8"?>
<!-- Generator: Adobe Illustrator 15.0.0, SVG Export Plug-In . SVG Version: 6.00 Build 0)  -->
<!DOCTYPE svg PUBLIC "-//W3C//DTD SVG 1.1//EN" "http://www.w3.org/Graphics/SVG/1.1/DTD/svg11.dtd">
<svg version="1.1" id="Layer_1" xmlns="http://www.w3.org/2000/svg" xmlns:xlink="http://www.w3.org/1999/xlink" x="0px" y="0px"
	 width="178.582px" height="249.449px" viewBox="0 0 178.582 249.449" enable-background="new 0 0 178.582 249.449"
	 xml:space="preserve">
<g>
	<path fill="#FFFFFF" d="M8.504,0"/>
	<path fill="#D40000" d="M95.398,226.063c0.43-6.344,0.063-13.151,0.352-18.315c-0.195-0.363,0.512-1.363,0.547-1.363
		c-0.418-0.77-0.563-2.735-0.031-4.477c4.152-15.816,11.672-28.13,19.414-39.609c6.297,18.974-13.477,32.285-17.633,48.859
		c-1.387,5.741-1.18,9.75-1.711,14.934L95.398,226.063z M62.523,226.305L39,189.965l5.105-2.488l24.18,38.699L62.523,226.305z
		 M92.949,158.982c0.207,1.045,1.031,1.604,1.902,1.125c0.852-0.467,0.948-0.5,0.418,0.326c-1.172,1.815,1.203,3.573,2.727,2.016
		c0.543-0.555,0.633-1.457,0.141-1.914c-0.555-0.516-0.676-0.785,0.146-0.391c2.059,0.832,3.19-2.146,1.194-3.146
		c-0.512-0.258-1.516-0.031-1.891,0.362c-0.457,0.478-0.52,0.31-0.398-0.059c0.07-0.219,0.121-0.574,0.293-0.996
		c0.138-0.328,0.23-0.781,0.23-0.781l-2.102,0.023c0,0,0.172,0.48,0.344,0.887c0.16,0.383,0.223,0.668,0.301,0.828
		c0.281,0.57-0.059,0.359-0.625-0.063c-0.805-0.6-1.809-0.432-2.383,0.355C93.035,158.02,92.859,158.5,92.949,158.982
		L92.949,158.982z M95.988,129.418l4.52-0.133l4.973,13.723c-3.977,6.605-5.051,14.059-0.422,21.613l-14.34,0.023
		C94.082,153.262,94.602,141.188,95.988,129.418L95.988,129.418z M100.714,147.271c0.609-0.543,0.685-1.525,0.134-2.183
		c-0.695-0.823-0.535-0.866,0.395-0.328c1.348,0.777,2.637-0.903,1.84-2.391c-0.504-0.945-2.137-1.152-2.758-0.313
		c-0.52,0.699-0.461,0.06-0.063-0.871c0.148-0.344,0.359-0.983,0.359-0.983l-2.19,0.043c0,0,0.28,0.621,0.434,1.021
		c0.397,1.059,0.414,1.391-0.203,0.711c-1.336-1.123-2.906-0.31-2.918,1.305c0.012,1.24,1.137,2.039,2.121,1.457
		c0.598-0.353,0.867-0.435,0.195,0.375c-0.466,0.77-0.302,1.754,0.313,2.215C99.214,147.836,100.113,147.809,100.714,147.271
		L100.714,147.271z M70.422,151.551c0.175-0.129,0.242-0.043,0.132,0.129c-0.089,0.152-0.328,0.363-0.527,0.586
		c-1.023,1.137,0.297,2.586,1.945,2.359c1.125-0.152,1.782-1.918,0.953-2.613c-0.269-0.18-0.48-0.215-0.683-0.457
		c-0.016-0.102,0.031-0.168,0.129-0.129c0.148,0.063,0.445,0.305,0.597,0.344c1.043,0.285,1.829-0.147,2.094-0.883
		c0.168-0.852,0.008-1.766-0.687-2.242c-0.649-0.434-1.606-0.313-2.16,0.431c-0.571,0.758-0.653,0.034-0.184-1.009
		c0.176-0.395,0.293-0.948,0.293-0.948l-2.012,0.104c0,0,0.106,0.435,0.285,0.93c0.446,1.142,0.766,1.466,0.196,0.88
		c-2.461-1.449-3.278,0.52-3.321,1.305C67.398,151.813,69.547,152.646,70.422,151.551L70.422,151.551z M80.273,129.293l3.637,0.016
		c-2.742,14.57-8.36,26.781-17.809,35.181l-17.785-0.056l-8.57-5.987l3.308-4.302C65.632,156.473,75.25,145.275,80.273,129.293
		L80.273,129.293z M63.91,163.078c1.066-0.471,1.508-1.672,0.805-2.48c-0.637-0.729-0.704-0.961,0.277-0.391
		c1.305,0.762,2.57-0.758,1.93-2.246c-0.399-0.93-1.657-1.215-2.563-0.586c-0.797,0.594-0.781,0.328-0.367-0.609
		c0.207-0.465,0.367-1.207,0.367-1.207l-2.23,0.031c0,0,0.16,0.531,0.324,0.895c0.371,0.832,0.508,1.216,0.332,1.22
		c-0.082,0-0.356-0.254-0.52-0.402c-0.441-0.405-1.656-0.485-2.105-0.055c-1.336,1.272-0.582,3.496,1.113,3.086
		c1.098-0.267,1.348-0.681,0.438,0.353C60.593,161.953,62.328,163.777,63.91,163.078L63.91,163.078z M49.855,162.637
		c0.922-0.434,1.231-1.496,0.715-2.184c-0.52-0.688-0.777-1.133,0.145-0.514c1.23,0.619,2.3-0.201,2.285-1.597
		c-0.016-1.465-1.657-2.145-2.864-1.266c-0.207,0.147-0.457,0.28-0.5,0.284c-0.148,0,0.118-0.793,0.414-1.309
		c0.125-0.227,0.352-0.684,0.352-0.684l-2.23-0.086c0,0,0.125,0.609,0.3,1.072c0.356,0.951,0.442,1.268-0.179,0.729
		c-1.676-1.566-3.465,0.43-2.758,2.152c0.371,0.969,1.515,0.969,2.191,0.483c0.61-0.477,0.297,0.152-0.121,0.656
		C46.461,161.742,48.136,163.439,49.855,162.637L49.855,162.637z M151.621,126.098l0.117,2.695l-28.797,24l-1.207-1.854
		L151.621,126.098z M44.515,131.145c4.145-2.949,8.758-8.247,13.309-11.007C61.148,127.781,53.351,135.271,44.515,131.145
		L44.515,131.145z M120.609,129.211c-4.172-14.316,15.527-13.363,13.051-10.324L120.609,129.211z M27,119.859l28.504-23.242
		L56.8,98.57l-30.074,24.637L27,119.859z M105.089,96.414c0.078,0.242,0.94,1.168,0.945,1.254c-0.246-0.184-1.711-1.004-2.427-0.207
		c-0.25,0.293-0.569,0.988-0.535,1.711c0.302,1.297,1.773,1.754,2.82,0.867c0.301-0.254,0.56-0.566,0.621-0.457
		c0.055,0.094-0.109,0.539-0.246,0.895c-0.151,0.359-0.727,1.121-0.313,1.121l2.027-0.004c0,0-0.078-0.477-0.32-1
		c-0.449-0.981-0.434-1.512,0.113-0.805c1.063,1.375,3.125,0.227,2.91-1.422c-0.156-1.191-1.359-1.871-2.246-1.305
		c-0.099,0.063-0.383,0.344-0.422,0.348c-0.109,0.004,0.188-0.449,0.383-0.828c0.651-1.25-0.32-2.41-1.813-2.285
		c-0.479,0.039-1.012,0.344-1.012,0.387C105.016,95.137,104.925,95.914,105.089,96.414L105.089,96.414z M129.703,84.754
		c2.852,2.625,5.703,4.547,8.555,6.226l-2.691,4.25c-18.241-1.687-31.504,5.524-37.039,25.075l-3.008,0.578
		c1.129-12.196,5.219-24.289,17.301-36.11L129.703,84.754z M112.218,87.676c0.009,0.578,1.066,1.265,0.832,1.422
		c-0.108,0.058-0.741-0.493-1.03-0.524c-2.105-0.222-2.543,3.051-0.457,3.418c0.41,0.074,1.258-0.18,1.512-0.387
		c0.332-0.273,0.566-0.5,0.633-0.476c0.129,0.047-0.164,0.633-0.391,1.062c-0.215,0.403-0.512,1.192-0.512,1.192
		c0.836,0.148,1.641,0.183,2.395,0.008c0,0-0.215-0.684-0.434-1.204c-0.273-0.667-0.332-1.089-0.148-1.042
		c0.082,0.019,0.172,0.226,0.34,0.371c1.035,0.89,2.559,0.507,2.957-0.883c0.375-1.309-1.188-2.653-2.277-1.922
		c-0.383,0.258-0.383,0.062-0.004-0.508c0.348-0.523,0.262-1.32-0.051-1.789C114.438,85.199,112.167,86.066,112.218,87.676
		L112.218,87.676z M129.41,91.551c-0.055-0.289,0.02-0.207,0.324,0.113c0.961,0.996,2.613,0.844,3.035-0.48
		c0.422-1.325-0.863-2.836-1.98-2.317c-0.582,0.27-0.594,0.176-0.262-0.258c0.859-1.117-0.086-2.586-1.56-2.57
		c-1.344,0.016-2.137,1.309-1.479,2.422c0.266,0.453,0.18,0.551-0.293,0.324c-1.375-0.668-2.656,1.508-1.648,2.801
		c0.59,0.758,1.961,0.836,2.746,0.082c0.418-0.398,0.414-0.207,0.109,0.621c-0.262,0.723-0.555,1.309-0.555,1.309l2.379,0.019
		C130.227,93.617,129.589,92.41,129.41,91.551L129.41,91.551z M78.445,120.797c0,0-3.531-9.832-4.742-14.547
		c2.617-6.27,6.203-12.348,0.179-21.375l14.637-0.043c-4.523,10.258-4.617,36.137-5.679,36.199L78.445,120.797z M79.73,109.289
		c0,0-0.723-0.996-0.765-1.801c-0.09-0.515,0.042-0.547,0.312-0.019c1.305,1.441,3.07,0.047,3.078-1.231
		c0.149-1.164-1.215-2.168-2.094-1.582c-0.613,0.406-0.781,0.289-0.234-0.472c0.773-1.071-0.066-2.465-1.449-2.45
		c-1.797,0.02-2.485,1.7-1.196,2.899c0.95,0.883,0.063,0.359-0.691,0.043c-1.473-0.614-2.437,0.883-1.777,2.394
		c0.457,1.043,1.793,1.317,2.578,0.473c0.43-0.465,0.824-0.734,0.594-0.035c-0.121,0.566-0.782,1.765-0.782,1.765L79.73,109.289z
		 M81.996,93.527c0,0-0.867-1.086-1.016-1.902c-0.051-0.301,0.164-0.227,0.656,0.195c1.575,1.352,3.739-1.07,2.27-2.55
		c-0.504-0.512-1.016-0.657-1.606-0.352c-0.734,0.387-0.675,0.199-0.308-0.199c0.535-0.582,0.496-1.645-0.082-2.16
		c-1.602-1.426-4.137,0.699-2.649,2.226c0.649,0.664,0.34,0.578-0.371,0.149c-1.351-0.805-2.843,1.406-1.828,2.703
		c1.199,1.015,2.098,0.515,2.93-0.121c0.18-0.098,0.336-0.141,0.336-0.063c0.004,0.149-0.828,2.106-0.828,2.106L81.996,93.527z
		 M62.797,87.402c-0.895-0.062-1.532-8.406-0.442-11.05c2.328-11.145,9.434-19.266,13.856-26.094
		c7.093-10.168,6.211-27.059,6.511-26.387l1.008,0.117c0,0-0.777,9.903-0.34,14.375c0.457,3.934,0.36,4.18,0.078,4.571
		c-0.074,0.367,0.036,1.437-0.046,1.804C80.265,59.305,72.73,74.277,64.953,85.582L62.797,87.402z M135.734,61.961l-23.953-37.777
		l5.754-0.516c2.137,3.383,22.949,35.66,22.949,35.66L135.734,61.961z"/>
	<path fill="#E2CF00" d="M37.093,226.977c2.723-9.987-4.656-33.215-9.269-36.25c5.41-0.227,11.914-0.129,11.711-0.637
		c0,0,23.004,36.18,22.816,36.371C62.172,226.645,37.093,226.977,37.093,226.977L37.093,226.977z M130.324,170.314
		c-5.574-0.793-3.375-5.418,0.207-5.896c-0.465,0.078,0.387-2.301,3.277-3.266c0.655-1.188,1.168-3.224,1.77-4.164
		c-1.73,0.563-3.836,2.022-11.711,0.869c0.688-3.729,8.219-4.365,10.934-3.787c1.566,0.363,3.113,2.699,3.59,2.75
		c4.836-0.805,10.984,3.565,9.125,8.004c-0.289,0.633-1.022-0.75-2.651-1.342c-5.259-1.904-5.625-4.754-6.837-6.025
		c-0.44-0.082-2.766,4.52-2.766,4.52l0.728,3.125c1.262-0.112,6.866,3.349-0.113,5.695
		C133.949,177.449,130.313,172.754,130.324,170.314L130.324,170.314z M143.535,140.621c-0.301-0.307,0.234-2.375,0.941-3.566
		c0.383-0.641,1.266-1.074,1.785-0.983c0.922,0.163,0.776,1.504-0.445,5.434C145.766,142.07,144.516,142.129,143.535,140.621
		L143.535,140.621z M32.519,113.113c-1.527-0.004-0.156-4.164,0.785-5.484c0.309-0.41,1.528,0.465,1.59,1.066
		C35.007,109.773,33.351,113.543,32.519,113.113L32.519,113.113z M31.433,84.828c1.867,0.453,4.817,2.332,6.223,3.363
		c1.754,1.305,1.273,3.871,2.676,4.102c0.945-0.469,2.679-4.672,2.679-4.672s0.438-2.156-0.796-2.824
		c-3.071-1.652-3.016-3.442-2.821-3.598c0.91-2.363,2.723-1.941,3.703-2.074c0.02-1.293-0.023-4.02,2.653-3.738
		c2.34,0.222,2.57,3.562,1.586,3.593c-0.02-0.054,4.425-0.636,4.382,2.293c-0.023,1.59-2.66,3.625-3.48,2.887
		c0,0,0.437,3.164-3.543,4.25c-0.93,0.949-1.688,4.973-1.688,4.617c2.399-2.168,6.161-2.675,12.09-1.898
		c-3.672,6.812-13.836,3.625-14.629,2.308C35.355,91.895,30.562,89.887,31.433,84.828L31.433,84.828z M75.203,68.5
		c5.406,0.492,11.32-1.203,15.82-0.305c0.512,0.071,1.065,0.828,1.375,0.996c2.324,1.266,4.758,0.871,8.5-0.543
		c0.922-0.347,18.065-0.214,18.065-0.214c3.906,5.765,10.853,16.621,11,16.253c0,0-9.504-0.109-13.883,0.149
		c-3.078,0.184-1.267,0.601-3.406,0.695c-14.979,11.254-17.832,35.567-17.832,35.567s4.763-1.25,6.005,0.063
		c5.891-17.23,17.073-25.098,32.664-23.555c7.206,0.711,15.805,7.797,15.805,7.797l-15.418,12.551
		c-11.949-6.027-17.066,11.733-13.441,11.776l31.055-25.382c0,0,0.531,2.074,0.478,2.14c-2.216,2.903-39.234,32.953-39.234,32.953
		l-1.625-1.793c0,0-1.022,0.906-1.56,1.509c-0.055,0.983,0.294,1.819,1.039,2.59c-7.332,5.887-7.573,16.685-2.168,22.578
		c0,0-2.397,0.168-2.651,0.211c-3.047,0.522-6.194-14.5-0.156-21.488c-3.047-5.978-4.926-14.106-5.305-14.485
		c0.078,0.961-4.813,0.643-4.813,0.643c-0.371,12.141-1.641,24.047-4.559,35.52l22.469,0.484l-9.563,16.598
		c0,0-10.734-0.27-15.356-0.59c-4.828-2.809-7.613-0.676-12.144,0.367c-6.445,0.188-15.938-0.113-15.938-0.023
		c-3.218-6.395-6.679-11.094-11.378-16.574c-0.598-0.995,19.085-0.379,19.085-0.379s9.836-14.883,11.629-19.086
		c1.399-3.28,4.536-15.227,4.536-15.227c0.144,0.625-1.786-3.105-6.286-3.021c-3.718,24.731-33.109,33.063-50.793,17.146
		l-0.164-2.875l38.969-31.609l1.731,2c-0.372-0.297-23.922,19.298-23.532,19.173c6.981,3.654,15.059,0.697,14.118-11.295
		c5.531-3.996,10.429-8.656,15.242-13.41c0.105-0.183,5.371,11.825,5.242,14.133c3.031-1.015,4.824,1.117,4.769,0.75
		c-1.089-6.941,4.993-33.269,5.106-36.297c-3.375-0.269-7.856-0.148-14.879-0.426c5.641,10.918,3.684,18.317-4.203,25.043
		l-1.649-2.07c0.668,0.371,11.516-9.015,2.782-23.043c-0.399,0.031-4.602-0.379-4.602-0.379S74.765,70.437,75.203,68.5L75.203,68.5z
		 M117.074,23.375c0,0,24.594-0.594,24.602,0.129c-0.785,13.215,2.297,25.266,9.73,36.414c0,0-10.896-0.387-10.695-0.25
		L117.074,23.375z"/>
	<path fill="#131F67" d="M152.852,22.516L24.988,22.359l0.793,205.223h127.708L152.852,22.516z M141.156,23.328
		c-0.012-0.012-1.648,21.711,9.684,35.938c-6.922-1.051-10.887,0.011-14.918,2.859l0.551,0.57
		c5.555-3.414,10.258-2.515,15.078-1.984l-0.133,27.945c-0.035,1.356-5.633,0.75-9.172-1.91c-1.684-0.992-3.852-3.074-4.82-4.641
		c-0.297-0.472-0.609-0.945-0.695-1.043c-0.323-0.375-2.344-4.136-6.051-11.257c-1.883-3.621-4.375-8.563-6.397-12.391
		c-1.31-2.477-3.742-7.16-3.914-7.531c-0.359-0.781-3.013-5.953-4.043-7.836c-2.728-4.969-7.125-13.645-8.695-16.754
		c-0.348-0.805-0.875-1.18,0.07-1.152c0.207,0.004,0.418,0.02,0.538,0.046c0.169,0.083,0.367-0.285,0.367-0.285L141.156,23.328z
		 M27.3,140.84l-0.082-2.199l37.161-30.645l1.183,1.524L27.3,140.84z M63.203,87.16c-0.149,0.055-0.313,0.11-0.492,0.168
		c-0.954-4.258-0.411-9.941,0.714-14.215c1.641-5.938,4.7-10.695,8.11-15.476c7.789-10.922,11.238-19.157,11.097-33.828l1.114,0.121
		c-0.047,2.316-0.352,4.058-0.442,7.144c-0.14,3.301-0.086,5.817,0.266,9.039c0.176,1.586,0.277,2.614,0.012,2.821
		c-0.129,0.105-0.242,0.652-0.125,0.855c-0.02,0.438-0.078,1.316-0.078,1.316C81.593,53.84,72.027,76.238,63.203,87.16L63.203,87.16
		z M67.851,107.016l-1.969-2.414c0,0-1.515-1.223-0.156-2.602c3.934-3.988,3.961-9.063,0.16-13.621
		c-0.257-0.578,1.18-3.504,1.18-3.504l2.996,0.051C74.73,90.605,76.004,100.645,67.851,107.016L67.851,107.016z M70.601,84.469
		c0.094-0.391-4.437-0.239-4.437-0.239c2.816-4.195,5.207-8.511,7.558-12.835c3.649-6.547,8.707-18.02,10.293-26.336
		c1.18,9.726,2.899,24.16,11.219,24.73c2.729,0.188,5.891-1.684,6.406-1.375l17.289-0.137c3.547,7.192,7.354,11.821,11.862,16.739
		c3.242,1.847,7.194,3.313,11.017,4.261c2.172,0.539,2.379,0.18,6.659,0.789c1.134,0.164,2.853-0.316,2.837-0.316
		c-3.423,2.699-7.367,1.937-11.712,0.781c-0.245-0.066-0.5-0.14-0.754-0.23l-3.28,4.937c-7.306-1.73-30.754-0.508-36.935,24.989
		c0,0,0.633,0.324,0.483,0.148c4.91-22.129,25.648-26.539,35.535-24.336l-0.848,1.297c-16.406-2.008-29.762,8.254-32.945,22.805
		l0.316,0.285c6.156-21.996,32.035-30.137,48.078-14.887l2.945-2.086l-0.099,2.82l-39.444,33.051l-1.578-1.635
		c0,0-0.277,0.213-0.59,0.475c-1.021,0.848-1.422,1.055-1.138,1.525c0.285,0.475,1.396,1.539,1.441,1.658
		c-6.543,5.331-8.617,15.612-2.402,22.813c0.695,0.762,0.57,0.969,0.44,0.109c-5.577-6.07-4.87-16.802,2.082-21.888l1.402,1.836
		c-3.063,6.718-4.695,17.203,3.355,18.109c2.883,7.729-0.434,16.887-4.137,23.022c-3.926,7.074-8.685,12.949-11.652,20.652
		c-1.441,3.215-3.738,12.746-3.617,20.031l-0.867-0.008c0-2.974,0.199-6.502,0.223-8.752c0.121-10.986,0.105-10.336,0.353-10.611
		c0.082-0.094,0.313-0.191,0.336-0.27c0.031-0.113-0.18-0.345-0.262-0.609c-0.086-0.277-0.233-0.764-0.22-1.168
		c0.017-0.406,0.396-1,0.324-1.135c-1.729-6.062-1.875-16.957-7.465-21.961c-2.738-2.351-6.379-2.447-11.093-0.515
		c-10.407,0.015-8.864,0.552-17.266,0.07c-3.477-6.363-7.691-12.56-12.25-17.156c-2.133-2.379-5.098-3.68-7.883-5.401
		c1.117-2.123,2.383-3.673,3.77-4.677c0.289-0.409,0.484-0.854,0.855-1.202c28.332,2.723,34.477-24.716,33.184-24.017l-0.254,0.215
		C70,157.113,42.433,156.082,28.578,143.857c0,0-1.957,1.701-1.965-0.162c-0.008-1.699,0.613-2.188,0.613-2.188l38.891-31.715
		c0.711,0.453,1.476,1.961,1.797,1.793c0.715-0.383,1.77-1.149,1.738-1.602c-0.023-0.351-1.422-2.55-1.422-2.55
		C78.632,96.66,73.941,91.848,70.601,84.469L70.601,84.469z M85.343,23.93c0.188,0,0.364,0.09,0.497,0.297
		c0.238,0.375-0.708,2.558-1.29,2.941c-0.554,0.367-0.593-0.059-0.195-2.172C84.472,24.379,84.933,23.934,85.343,23.93L85.343,23.93
		z M142.41,23.969h9.008l0.066,34.597C144.753,49.102,141.343,38.207,142.41,23.969L142.41,23.969z M87.761,24.051
		c0.227-0.008,0.426,0.054,0.489,0.215c0.23,0.586-1.09,3.105-2.723,5.195c-0.848,1.082-1.277,1.394-1.543,1.137
		c-0.223-0.493-0.215-1.067,0.566-1.969c0.645-0.742,1.739-2.477,2.192-3.449C86.937,24.609,87.129,24.094,87.761,24.051
		L87.761,24.051z M97.012,24.176c0.262,0,0.53-0.004,0.608,0.121c1.569,3.207,4.53,6.101,7.563,7.648
		c0.44,0.25,0.233,0.879,0.383,1.321c-3.402-0.504-7.871-5.329-9.066-8.848C96.492,24.164,96.75,24.172,97.012,24.176L97.012,24.176
		z M102.335,24.172c0.677,0.687,1.742,1.519,1.979,2.305c0.148,0.48,0.259,1.035,0.152,1.296c-0.59,0.368-3.531-3.043-3.418-3.441
		C101.425,24.086,101.895,24.035,102.335,24.172L102.335,24.172z M89.589,24.125c0.289,0.012,0.729-0.008,0.798,0.211
		c0.366,1.488-3.032,7.281-5.508,8.922c-0.879,0.582-0.938,0.429-0.868-0.547c0.047-0.66,0.11-0.606,1.016-1.469
		c1.289-1.234,2.699-3.133,3.473-4.816C89.496,24.266,89.25,24.129,89.589,24.125L89.589,24.125z M91.895,24.145
		c0.323,0.003,0.625,0.113,0.707,0.253c0.112,0.196-0.039,0.512-0.146,0.903c-1.117,3.168-3.899,7.722-7.164,10.312
		c-1.274,0.977-1.489,0.973-1.578-0.039c-0.055-0.586,0.214-0.758,0.812-1.172c2.77-1.922,5.262-5.257,6.316-8.664
		c0.203-0.66,0.125-1.258,0.488-1.461C91.5,24.184,91.699,24.145,91.895,24.145L91.895,24.145z M109.093,29.633
		c0.134,0.226,1.082,1.715,0.306,1.156c-0.316-0.262-0.898-0.922-1.82-1.969c-2.18-2.476-2.246-2.324-2.203-2.941
		c0.023-0.801-0.551-2.117,0.688-1.777C107.285,25.535,108.05,27.848,109.093,29.633L109.093,29.633z M99.164,24.195
		c0.246-0.004,0.539,0.043,0.781,0.09c1.438,2.699,4.945,5.07,4.93,5.059c0,0,0.09,1.176-0.039,1.383
		c-0.074,0.363-5.566-3.813-6.18-6.313C98.714,24.254,98.917,24.199,99.164,24.195L99.164,24.195z M95.253,24.246
		c1.289,2.367,3.953,7.746,10.207,9.922c0.449,0.098,0.931,1.375,0.582,1.73c-3.431-0.996-9.647-4.355-11.763-11.621
		C94.488,24.086,95.035,24.113,95.253,24.246L95.253,24.246z M93.574,24.707c-0.215,0,2.953,9.145,11.977,11.871
		c0.781,0.242,1.238,0.582,1.188,1.043c-0.063,0.582-0.043,0.656-0.909,0.219c-2.461-1.285-5.974-1.887-8.902-0.399
		c-0.456,0.235-0.922,0.868-0.555,1.266c0.211,0.203,0.729,0.051,1.392-0.203c3.409-1.328,8.633-0.547,9.555,1.539
		c0.652,1.48,0.766,2.574,0.406,2.754c-0.273,0.14-0.734-0.36-1.552-1.074c-2.594-2.278-5.698-2.911-8.164-0.723
		c-0.534,0.473-1.063,0.391-1.25,0.586c-0.18,0.191,0.035,0.617,0.185,1.031c0.16,0.434,0.168,0.551,0.008,0.918
		c-0.215,0.504-0.223,1.145-0.199,1.625c0.059,1.164,0.828,2.168,3.051,3.707c1.727,1.199,3.078,1.871,0.977,0.168
		c-3.633-2.945-4.293-4.14-1.938-3.121c2.352,0.941,5.609-0.004,7.918-1.766c0.785-0.011,1.254-0.148,1.668,0.153
		c1.723,4.043,3.129,9.422,5.418,14.636c-2.729,3.086-12.25,10.653-19.035,10.383c-5.858-0.234-7.929-9.824-9.226-15.125
		c-0.434-2.242-0.934-4.523-0.875-7.691c0,0,0.109-0.086,0.258-0.059c0.984,0.188,2.671,0.317,3.531,0.114
		c1.56-0.364,1.875-0.641,1.965-0.411c0.104,0.27-0.543,0.879-1.676,1.657c-0.496,0.336-1.93,1.031-1.781,1.132
		c0.343,0.227,2.082-0.695,2.375-0.945c0.453-0.383,0.767-0.406,0.984-0.195c0.254,0.25,0.305-0.016-0.535,2.07
		c-0.926,2.297-0.836,2.508,0.969,3.922c0.63,0.496,1.203,0.984,1.341,1.199c0.172,0.285,0.289,0.617,0.37,0.723
		c0.306,0.41,0.117-0.246-0.063-1.293c-0.211-0.773-0.973-1.539-1.508-1.914c-0.983-0.684-0.832-1.359-0.016-3.692
		c2.406-6.886,1.793-9.96-0.859-11.457c-1.194-0.671-4.542-0.492-5.597,0.387c-0.52,0.438-0.45-0.418-0.368-0.472
		C90.46,32.898,91.953,28.727,93.574,24.707L93.574,24.707z M105.848,28.078c1.805,1.793,4.055,4.227,5.405,5.957
		c0.742,0.922,1.134,1.867,1.728,2.836c0.112,0.176,0.223,0.379,0.145,0.457c-0.031,0.035-0.289-0.113-0.434-0.223
		c-1.324-0.996-6.785-7.214-6.785-7.214C105.656,28.867,105.48,28.52,105.848,28.078L105.848,28.078z M106.93,32.301
		c0,0,4.729,5.168,7.44,7.707c0.534,1.121,1.555,2.734,1.53,3.004c-0.012,0.121-0.582-0.317-0.582-0.317
		c-2.995-2.758-5.762-5.863-8.637-8.8c0.027,0.015-0.227-1.219-0.229-1.715C106.516,31.937,106.805,32.203,106.93,32.301
		L106.93,32.301z M117.195,45.547c0.637,1.035,1.102,1.961,1.406,2.57c0.508,0.965,0.336,0.992-0.109,0.637
		c-3.387-2.77-6.223-6.145-9.41-9.238c-0.414-0.426-1.242-1.371-1.242-1.371c0.031,0.035-1.039-2.231-0.367-2.184
		c0.523,0.203,0.871,0.773,1.207,1.137C110.352,38.891,113.539,41.969,117.195,45.547L117.195,45.547z M87.656,38.16
		c1.398-0.043,2.774,0.32,3.465,1.176c0.633,0.777,0.887,2.012,0.539,2.371c-0.219,0.223-0.996-0.406-0.996-0.406
		c-3.289-1.848-4.422-0.957-6.203-0.418c-0.258,0.078-0.528-0.606-0.2-1.285C84.914,38.469,86.574,38.191,87.656,38.16L87.656,38.16
		z M108.352,39.906c3.52,3.528,7.09,7.446,10.897,10.481c0.53,0.453,0.897,0.746,1.142,0.988c0.504,0.996,1.659,3.367,1.659,3.367
		c-4.077-2.851-13.271-12.683-13.168-12.617C108.977,42.172,108.113,40.324,108.352,39.906L108.352,39.906z M101.464,40.492
		c0.646-0.008,1.349,0.195,1.902,0.414c1.772,0.703,2.887,1.453,1.055,1.203c-2.555-0.347-3.43-0.367-4.362-0.214
		c-1.738,0.277-1.875,0.472-2.027,0.195C97.632,41.367,99.539,40.508,101.464,40.492L101.464,40.492z M86.965,40.699
		c0.64-0.004,1.335,0.137,2.015,0.434c2.168,0.949,2.551,1.566,0.703,1.269c-0.957-0.156-2.711-0.14-3.968,0.184
		c-0.399,0.101-0.84,0.336-0.942,0.367c-0.445,0.141-0.57-0.191-0.379-0.75C84.722,41.238,85.742,40.707,86.965,40.699
		L86.965,40.699z M102.652,43.461l0.445,0.035c-0.56,3.164-3.72,2.856-4.57,0.137l0.449-0.008
		C100.641,46.223,101.887,44.695,102.652,43.461L102.652,43.461z M104.414,43.625c1.457-0.016,1.363,0.863-0.156,1.449
		c-1.168,0.453-1.297,0.371-0.871-0.5C103.796,43.734,103.753,43.633,104.414,43.625L104.414,43.625z M89.363,43.742
		c0.141,2.852-3.832,3.371-4.074,0.262l0.379-0.016c1.3,2.446,2.804,0.969,3.273-0.246H89.363z M91.128,44.129
		c0.449,0.308,0.172,0.73-0.805,1.324c-0.879,0.551-1.109-0.113-0.384-1.031C90.246,44.125,90.75,43.879,91.128,44.129
		L91.128,44.129z M98.02,44.125c0.176-0.055,0.586,0.719,0.233,0.902c-0.207,0.11-0.517-0.207-0.551-0.441
		C97.675,44.402,97.792,44.199,98.02,44.125L98.02,44.125z M109.917,44.305c2.651,2.922,5.319,5.851,13.129,12.211
		c0,0,1.103,1.961,1.341,2.726c-0.189,0.235-0.289,0.207-0.837-0.062c-5.09-3.93-9.823-8.711-13.53-13.153
		C109.843,45.398,109.453,44.793,109.917,44.305L109.917,44.305z M84.64,44.594c0.301-0.008,0.727,0.664,0.492,1.07
		c-0.195,0.148-0.492-0.086-0.625-0.269c-0.128-0.184-0.125-0.52-0.046-0.672C84.511,44.637,84.57,44.598,84.64,44.594L84.64,44.594
		z M111.027,48.641c-0.021-0.102,12.328,12.418,13.914,12.175c0.738,0.434,2.574,3.993,2.574,3.993
		c0.051,0.113,0.043,0.324-0.254,0.175c-2.091-1.035-10.82-8.277-15.281-13.668C111.652,50.531,111.257,49.531,111.027,48.641
		L111.027,48.641z M96.348,50.48c2.151,1.04,1.227,3.172-1.048,1.817c-1.793-1.09-3.211-1.188-3.202-0.246
		c0.008,0.398,0.491,0.91,0.965,0.902c0.887,0.059,1.688,0.383,2.559,0.574c1.359,0.289,2.375-0.07,2.715-0.894
		c0.574-1.399-0.797-2.926-1.699-2.844S95.96,50.305,96.348,50.48L96.348,50.48z M113.398,53.898
		c-0.148-0.128,6.141,6.766,14.723,12.457c0.332,0.387,1.16,2.375,1.293,2.645c-0.035,0.187-0.223,0.004-0.223,0.004
		c-4.332-2.508-10.051-7.473-15.469-13.109c0,0-0.523-1.25-0.685-2.063C113.156,53.777,113.285,53.848,113.398,53.898
		L113.398,53.898z M99.105,56.383c-0.195,0.027-0.453,0.32-0.777,0.5c-0.66,0.363-0.867,0.461-2.492-0.028
		c-0.879-0.265-1.02-0.246-1.547,0.145c-0.457,0.34-0.711,0.395-1.227,0.164c-0.922-0.41-1.349-0.109-2.199,0.188
		c-0.816,0.293-1.094-0.063-1.824-0.231c-0.098,0-0.141,2.953-0.043,3.047c0.035,0.031,0.762-0.445,1.172-0.656
		c0.711-0.36,0.609-0.305,1.645-0.262c1.527,0.266,3.039,0.176,4.063-0.227c1.272-0.359,2.271-0.293,3.147,0.43
		c0.535,0.438,1.242,0.363,0.828-0.441c-0.141-0.278-0.465-1.301-0.426-1.684c0.059-0.57-0.07-0.933-0.281-0.945
		C99.132,56.383,99.121,56.383,99.105,56.383L99.105,56.383z M115.425,58.684c2.896,2.777,6.466,7.015,14.867,11.925
		c0.438,0.77,1.026,1.786,1.401,2.582c0.035,0.219-0.02,0.418-0.233,0.34c-5.19-3.289-8.078-4.886-15.272-11.98
		c-0.445-0.719-0.922-1.942-1.293-2.938C114.973,58.328,115.305,58.613,115.425,58.684L115.425,58.684z M114.203,59.742l3.211,6.031
		l-10.816-0.019C109.343,64.113,111.968,61.93,114.203,59.742L114.203,59.742z M96.27,59.879c-1.777,0.707-2.047,0.851-3.81,0.426
		c-1.022-0.25-0.742,0.343-0.219,0.59c1.327,0.621,3.254,0.183,3.969-0.309C96.684,60.281,97.003,59.586,96.27,59.879L96.27,59.879z
		 M94.445,61.742c-1.859,0.024-3.617,0.672-3.746,1.43c-0.027,0.144,0.125,0.308,0.414,0.137c1.262-0.762,4.391-1.008,6.762-0.153
		c0.383,0.137,0.449-0.101,0.051-0.429C97.039,61.996,95.718,61.723,94.445,61.742L94.445,61.742z M118.059,64.316
		c3.5,3.235,6.879,6.207,14.418,10.532c0.543,1.183,1.328,2.601,1.465,2.722c-7.063-3.425-14.762-10.191-14.762-10.191
		s-1.212-2.16-1.488-3.082C117.664,63.984,117.957,64.238,118.059,64.316L118.059,64.316z M120.468,69.352
		c0,0,6.449,5.453,13.802,9.156c0.297,0.285,1.035,2.039,1.276,2.23c0.246,0.188-0.293,0.188-0.819-0.086
		c-3.849-1.769-12.099-7.441-12.099-7.441C121.835,71.914,120.703,70.562,120.468,69.352L120.468,69.352z M43.3,92.141
		c0.59-1.262,1.192-2.664,1.582-3.809c1.754,0.02,2.618-0.641,3.243-1.434c0.89-0.023,1.57-0.019,2.781-0.054
		c-0.039-1.199,0.016-2.895,0.016-2.895c1.226-1.262,2.058-2.722,0.156-4.957c0,0-0.078-1.043-0.106-2.82
		c-0.875-0.137-2.843-0.047-2.843-0.047c-1.59-2.238-4.411-1.676-5.266-0.004c0,0-1.27,0.07-2.141,0.074
		c-0.015,0.473-0.164,2.571-0.164,2.571s-3.711,2.531,0.137,5.511l-0.051,2.504c0.719,0.055,1.235,0.008,2.176,0.188
		c0,0-1.473,3.418-2.441,5.039c-0.332,0.086-0.25-0.102-0.653-1.235c-0.48-1.336-1.57-2.796-2.492-3.515
		c-1.25-0.965-2.965-1.266-4.16-2.106c-1.149-0.808-1.965-1.851-2.328-1.656c-0.121,0.406-0.254,2.738,0.179,4.238
		c0.61,2.465,4.161,4.039,7.122,5.219c0.23,0.145,0.429,0.367,0.433,0.449c0.004,0.407-0.39,0.282-1.363,0.184
		c-1.469-0.145-2.078,0.258-2.594,1.512c-0.152,0.308-0.519,0.843-0.816,1.195s-0.606,0.699-0.653,0.848
		c-0.043,0.148-0.347,0.91-0.648,1.546c-0.188,0.391-0.496,0.805-0.52,1.383c-0.066,1.766-0.093,4.141,0.172,5.637
		c0.196,1.102,1.582,1.73,2.063,1.82c0.734,0.137,0.867,0.883,0.75,1.493c-0.563,3.003-2.293,4.843-2.848,3.855
		c-0.144-0.262-0.301-1.488-0.34-1.473c-0.027,0.012-0.289,1.043-0.191,1.465c0.109,0.453,0.687,0.785,1.258,0.578
		c0.843-0.304,1.511-1.144,2.035-3.05c0.215-0.778,0.418-1.215,0.785-1.27c0.668,0.047,1.711,1.422,1.711,1.422
		c-3.473,2.89-10.152,8.14-10.152,8.14l-0.247-94.718l54.981,0.105c0.305,7.512-0.606,13.828-3.305,20.516
		c-3.195,7.207-8.152,12.562-11.949,19.195c-4.582,8.008-6.047,16.313-4.488,24.668c-4.68,6.125-8.621,9.067-12.367,11.914
		c0,0-2.805-2.949-4.368-4.601c0,0,0.661-0.055,1.43-0.086c3.555-0.399,7.406-0.903,8.891-4.606c0.211-0.41,0.125-0.594-0.129-0.648
		c-2.785,0.383-5.203-0.008-6.781,0.105C44.933,90.805,43.3,92.141,43.3,92.141L43.3,92.141z M43.726,94.867
		c0,0-4.469-2.125-4.801-2.183c-1.949-0.356-6.644-2.801-7.441-4.465c-0.102-0.219-0.363-3.254-0.445-3.875
		c0.027-0.199,0.109-0.192,0.304-0.051c0.5,0.348,2.446,1.617,3.164,1.965c2.969,1.441,4.118,2.469,4.844,4.64
		c0.184,0.543,0.375,1.11,0.481,1.223c0.238,0.258,0.34,0.238,0.636,0.008c1.274-1.645,1.868-3.016,2.457-4.781
		c0.075-0.196,0.243-0.399,0.145-0.684c-0.234-0.781-0.805-1.789-0.219-2.555c-1.859,0.086-3.64-1.273-3.414-2.632
		c0.496-2.524,1.567-2.071,3.57-2.438c-0.23-5.832,5.231-4.414,5.215-0.352c6,0.504,3.164,6.051-0.32,5.204
		c1.383,3.152-2.77,4.332-3.352,3.796c-0.234,1.02-1.816,4.297-2.152,5.274c4.445-3.149,11.594-1.75,12.633-1.953
		C52.449,96.406,44.007,95.094,43.726,94.867L43.726,94.867z M123.753,74.984c1.129,0.871,10.695,6.856,12.465,6.989
		c0,0,0.845,0.949,1.544,1.812c0.647,0.805,0.891,0.934,0.965,1.094c0.073,0.164-0.246,0.156-0.302,0.148
		c-4.305-1.871-8.684-3.84-12.405-6.949c-0.504-0.43-0.617-0.621-0.863-0.949C124.828,76.695,123.855,75.148,123.753,74.984
		L123.753,74.984z M126.925,79.812c4.375,2.461,8.095,4.844,12.087,6.129c0.565,0.211,0.858,0.227,1.141,0.426
		c0.285,0.199,1.5,0.953,1.785,1.121c1.819,1.067,2.008,1.016,1.555,1.196c-0.496,0.199-3.695-0.735-6.395-1.735
		c-4.789-1.769-6.48-2.773-8.216-4.336C128.492,82.211,126.675,80.035,126.925,79.812L126.925,79.812z M39.664,93.531
		c0.367-0.008,0.957,0.219,1.574,0.692c0.656,0.504,2.273,1.562,2.941,1.847c0.34,0.145,0.446,0.184,0.446,0.184l4.304,4.887
		l-11.082,9.007c0,0-0.898-0.921-1.187-1.226c-0.27-0.293-0.192-0.535,0.144-0.863c0.274-0.266,0.293-0.84,0.246-1.122
		c-0.066-0.417-0.054-0.89,0.477-1.277c0.426-0.316,0.492-0.867,0.473-1.019c-0.02-0.121,0.23-0.524,0.601-0.793
		c0.778-0.571,1.012-1.258,0.746-2.071c-0.109-0.34-0.168-0.429,0.278-0.726c0.793-0.528,0.988-1.028,1.05-1.797
		c0.008-0.125-0.023-0.254-0.043-0.352c-0.156-0.816,0.567-0.609,1.161,0.418c0.324,0.563,0.418,1.481,0.578,2.528
		c0.191,1.234,0.324,1.57,0.39,1.398c0.387-0.996-0.066-4.738-1.207-5.246c-1.664-0.742-3.054-2.254-2.636-2.852
		c0.144-0.203,0.172-0.132,1.183,0.336c0.594,0.274,1.145,0.496,1.227,0.5c1.176,0.036,0.461-0.468,0.078-0.519
		c-0.457-0.063-1.832-0.899-1.992-1.192C39.144,93.785,39.293,93.539,39.664,93.531L39.664,93.531z M36.828,94.176
		c1.082-0.016,1.293,0.277,1.304,1.211c0.004,0.547,0.211,0.972,1.075,2.066c0.351,0.449,0.586,0.793,0.562,0.965
		c-0.039,0.289-0.14-0.008-1.336-0.148c-0.422-0.051-0.64-0.059-0.785,0.16c-0.414,0.609-1.281-0.024-1.816-0.922
		C34.554,95.367,35.004,94.195,36.828,94.176L36.828,94.176z M57.461,95.465l11.781,14.418l-1.328,1.031L56.09,96.691L57.461,95.465
		z M55.492,96.352l1.262,2.128c0,0-3.653,3.118-4.61,4c-7.758,6.282-25.265,20.54-25.265,20.54l-0.235-2.868L55.492,96.352z
		 M34.226,96.734c0.231,0.008,0.492,0.297,0.867,0.868c0.321,0.496,1.016,1.484,1.754,2.164c1.438,1.324,1.575,1.203,0.41,1.328
		c-0.464,0.051-0.613-0.004-0.898,0.703c-0.855,1.066-3.379-2.754-2.789-4.219C33.8,97.008,33.996,96.73,34.226,96.734
		L34.226,96.734z M38.336,98.797c0.211-0.008,0.492,0.07,0.82,0.269c0.625,0.258,0.668,0.407,0.562,1.004
		c-0.097,0.571-0.531,0.719-1.386-0.035C37.683,99.422,37.793,98.824,38.336,98.797L38.336,98.797z M57.14,99.152l1.383,1.785
		l-31.422,25.411l0.008-2.926C27.875,123.52,48.023,106.012,57.14,99.152L57.14,99.152z M32.773,99.441
		c0.082-0.019,0.215,0.27,0.563,0.793c0.711,1.071,1.363,1.774,2.105,2.332c0.703,0.532,0.781,0.825,0.297,0.829
		c-0.203,0.003-0.488,0.218-0.633,0.472c-0.301,0.512-0.324,0.391-0.785,0.121c-0.656-0.383-1.316-0.965-1.578-1.722
		c-0.246-0.719-0.274-1.809-0.07-2.605C32.707,99.523,32.734,99.449,32.773,99.441L32.773,99.441z M37.734,101.469
		c0.801-0.028,1.375,0.906,0.848,1.66c-0.297,0.285-0.563,0.422-1.149,0.078c-0.773-0.457-0.914-1.16-0.277-1.551
		C37.351,101.531,37.55,101.477,37.734,101.469L37.734,101.469z M32.578,103.488c0.172-0.008,0.472,0.235,0.98,0.754
		c0.391,0.403,1.071,0.742,1.34,0.895c0.609,0.34,0.637,0.457,0.309,0.73c-0.141,0.117-0.606,0.125-0.731,0.492
		c-0.359,1.051-1.886-0.172-2.031-1.675C32.371,103.918,32.363,103.496,32.578,103.488L32.578,103.488z M36.418,103.609
		c1,0.043,1.476,1.215,0.675,1.789c-0.433,0.313-1.531-0.242-1.64-0.816C35.382,104.215,36.035,103.594,36.418,103.609
		L36.418,103.609z M59.847,104.48c0.582,0,1.051,0.469,1.051,1.051s-0.469,1.055-1.051,1.055s-1.05-0.473-1.05-1.055
		S59.265,104.48,59.847,104.48L59.847,104.48z M56.703,104.914c0.582,0,1.051,0.473,1.051,1.055c0,0.578-0.469,1.051-1.051,1.051
		s-1.051-0.473-1.051-1.051C55.652,105.387,56.121,104.914,56.703,104.914L56.703,104.914z M35.629,106.32
		c0.066-0.004,0.132-0.004,0.203,0c0.965,0.047,1.015,0.965,0.441,1.461c-0.344,0.297-0.652,0.391-1.098,0.035
		C34.382,107.18,34.675,106.375,35.629,106.32L35.629,106.32z M59.043,107.859c0.582,0,1.054,0.473,1.054,1.051
		c0,0.582-0.472,1.055-1.054,1.055c-0.578,0-1.055-0.473-1.055-1.055C57.988,108.332,58.465,107.859,59.043,107.859L59.043,107.859z
		 M151.402,107.922l0.051,2.66l-37.153,30.9l-1.258-1.64L151.402,107.922z M56.91,108.148l-2.746,6.168l-0.824-1.589h-2.055
		l0.629-1.84l-1.211-1.473L56.91,108.148z M115.375,133.801l4.887-3.918c-2.102-10.617,6.297-14.844,14.277-11.758l4.961-4.23
		C130.289,106.137,108.632,111.398,115.375,133.801L115.375,133.801z M49.238,113.047c0.578,0,1.051,0.473,1.051,1.055
		c0,0.578-0.473,1.05-1.051,1.05c-0.582,0-1.055-0.472-1.055-1.05C48.183,113.52,48.656,113.047,49.238,113.047L49.238,113.047z
		 M46.043,113.305c0.582,0,1.019,0.437,1.019,1.019s-0.437,1.09-1.019,1.09s-1.051-0.477-1.051-1.059
		C44.992,113.777,45.461,113.305,46.043,113.305L46.043,113.305z M63.039,115.441l-4.844,3.879
		c1.25,10.168-3.695,15.344-14.328,11.86l-5.141,4.078C52.617,144.814,70.8,132.496,63.039,115.441L63.039,115.441z M48.125,116.359
		c0.582,0,1.05,0.469,1.05,1.051s-0.468,1.055-1.05,1.055s-1.055-0.473-1.055-1.055S47.543,116.359,48.125,116.359L48.125,116.359z
		 M150.082,116.625c0.582,0,1.055,0.473,1.055,1.055c0,0.578-0.473,1.05-1.055,1.05s-1.051-0.472-1.051-1.05
		C149.031,117.098,149.5,116.625,150.082,116.625L150.082,116.625z M45.949,116.879l-3.102,6.129l-0.769-1.848l-2.082,0.031
		l0.672-2.14l-1.301-1.102L45.949,116.879z M145.917,117.523l0.965,1.622l2.035,0.05l-0.767,1.543l1.47,1.512l-6.629,1.629
		L145.917,117.523z M38.554,121.973c0.582,0,1.055,0.472,1.055,1.054c0,0.578-0.473,1.051-1.055,1.051s-1.054-0.473-1.054-1.051
		C37.5,122.445,37.972,121.973,38.554,121.973L38.554,121.973z M35.527,122.09c0.582,0,1.055,0.472,1.055,1.055
		c0,0.578-0.473,1.05-1.055,1.05s-1.055-0.472-1.055-1.05C34.472,122.562,34.945,122.09,35.527,122.09L35.527,122.09z
		 M140.796,122.715c0.578,0,1.052,0.472,1.052,1.055c0,0.582-0.474,1.049-1.052,1.049c-0.582,0-1.055-0.467-1.055-1.049
		C139.742,123.187,140.214,122.715,140.796,122.715L140.796,122.715z M151.438,122.879l0.047,2.336
		c-9.695,8.559-30.078,25.07-30.078,25.07l-1.27-1.629C120.137,148.656,140.875,131.711,151.438,122.879L151.438,122.879z
		 M37.632,125.16c0.583,0,1.055,0.469,1.055,1.051s-0.472,1.055-1.055,1.055c-0.578,0-1.05-0.473-1.05-1.055
		S37.054,125.16,37.632,125.16L37.632,125.16z M142.949,125.41c0.582,0,1.051,0.473,1.051,1.055c0,0.578-0.469,1.055-1.051,1.055
		s-1.051-0.477-1.055-1.055C141.895,125.883,142.367,125.41,142.949,125.41L142.949,125.41z M139.968,125.602
		c0.582,0,1.056,0.469,1.056,1.051s-0.474,1.056-1.056,1.056c-0.577,0-1.055-0.474-1.055-1.056
		C138.914,126.07,139.391,125.602,139.968,125.602L139.968,125.602z M151.73,125.973l-0.09,2.973
		c-9.392,8.009-28.605,23.914-28.539,23.927l-1.453-2.004C121.648,150.867,142.71,132.727,151.73,125.973L151.73,125.973z
		 M35.703,125.535l-2.899,6.539l-1.25-1.764l-1.828-0.125l0.434-1.765l-1.68-1.146L35.703,125.535z M136.188,128.117l1.852-0.352
		l-0.324,1.895l1.301,1.365l-6.815,1.496l3.297-6.107L136.188,128.117z M146.371,159.969c1.383,2.066,1.297,4.324,0.715,4.672
		c-0.609-0.344-1.137-0.94-1.77-1.211c-3.176-1.371-5.711-2.496-6.164-4.512C137.421,154.363,145.218,158.25,146.371,159.969
		L146.371,159.969z M129.684,147.863l10.684-8.699c0,0,1.637,0.844,1.945,1.23c0.112,0.42-0.185,0.551-0.617,0.94
		c-0.203,0.258-0.328,0.504-0.34,1.06c-0.013,0.598,0.188,0.862-0.056,1.127c-0.401-0.021-0.727,0.506-0.707,0.932
		c0.013,0.324-0.413,0.684-0.659,0.93c-0.441,0.434-0.574,0.523-0.855,1.996c-0.027,0.146-0.02,0.531-0.227,0.729
		c-0.617,0.057-1.066,1.567-1.349,1.662c-0.448-0.027-1.168-0.58-1.344-1.392c-0.113-0.53-0.082-1.56,0.043-2.219
		c0.147-0.789,0.219-1.504,0.168-1.691c-0.117-0.44-0.406-0.172-0.402,0.445c0.005,0.25-0.094,1-0.254,1.707
		c-0.159,0.707-0.59,1.647-0.396,2.207c0.289,0.832,1.355,1.184,1.836,1.625c1.267,1.159,1.539,1.728,1.685,1.983
		c1.013,1.849,1.017,2.164,0.763,3.556c-0.146,0.801-0.927,0.664-1.396,0.34c0,0-3.008-2.188-4.313-3.272
		C131.914,151.414,130.523,149.732,129.684,147.863L129.684,147.863z M133.738,153.84c1.145,0.465,4.129,2.629,4.129,2.629
		l-2.719,5.652c0.496,0.887,0.694,3.086,0.694,3.086c3.438-0.268,5.298,5.525-0.055,4.992c0.608,3.582-5.156,6.387-5-0.027
		c-6.009,0.465-3.992-6.34-0.289-5.063c-0.108-2.887,1.813-3.258,3.168-3.969c1.113-1.258,1.793-4.104,1.793-4.104l-0.271-0.867
		c-1.141,1.992-5.991,2.562-11.319,1.508C125.313,154.254,129.691,154.352,133.738,153.84L133.738,153.84z M123.137,158.145
		c-0.185,0.681-0.188,0.672,0.633,0.59c0.418-0.043,2.09-0.038,3.254,0.009c2.145,0.168,5.522,0.184,7.215-1.109
		c0.328-0.313,0.508-0.288,0.57-0.12c0.145,0.836-1.5,3.573-1.5,3.573l-2.716,1.504c0,0-1.108,0.052-2.487,0.015l-0.023,2.446
		c-1.078,0.636-2.93,3.367,0.047,5.466l-0.102,2.659l2.625,0.048c1.738,1.664,3.156,1.655,4.754,0.088h3.023l-0.013-2.871
		c1.487-1.197,1.703-3.229,0.181-4.854l-0.039-2.914l-2.328,0.016c0,0-0.48-0.375-0.492-0.668c-0.004-0.19,1.699-3.469,2.022-3.938
		c0.423-0.609,0.31-0.262,0.984,1.145c0.969,2.008,1.926,2.828,4.379,4.013c2.188,1.059,2.974,1.555,3.604,2.159
		c0.508,0.484,0.806,0.332,1-0.391c0.422-1.602,0.293-3.203-0.59-4.672c-1.863-3.094-5.104-3.234-5.621-3.953
		c-0.065-0.168,0.594-0.367,1.301-0.684c1.23-0.746,3.027-3.004,3.259-3.91c-0.043-0.436,0.245-1.811,0.457-2.113
		c0.245-0.543,0.272-0.793,0.262-2.246c-0.219-0.828-0.021-1.906,0.082-2.277c0.113-0.754-0.285-1.641-0.854-2.729
		c-0.211-1.012-0.164-0.746,0.492-3.026c0.104-0.367,0.84-3.543-0.103-3.758c0.012,0.026,0.103,0.125,0.125,0.174
		c0.159,0.321,0.246,1.692,0.103,2.08c-0.056,0.151-0.16,0.549-0.238,0.887c-0.57,2.551-0.906,3.191-1.422,2.633
		c-0.121-0.133-0.595-0.324-0.957-0.563c-0.685-0.457-0.625-0.681-0.457-1.533c0.039-0.129,0.313-1.295,0.285-1.26
		c-0.148,0.401-0.25,1.438-0.72,1.684c-0.25,0.059-0.594-0.164-1.246-0.727c-0.25-0.216-0.784-0.591-0.784-0.591
		s7.723-6.5,10.594-8.651l-0.027,96.246l-54.574,0.022c-0.684-5.961,1.109-13.849,4.078-21.75c1.836-4.883,4.473-8.504,7.445-12.875
		c5.695-8.332,10.004-16.797,8.344-27.522c-0.215-1.591-0.438-2.355-0.359-2.783c0.691-1.299,3.438-5.236,5.445-6.879
		c2.945-2.408,7.047-6.002,7.375-5.793c0.98,1.893,2.137,3.418,3.672,4.571c0.27,0.293,0.277,0.552-0.344,0.679
		C128.68,153.652,124.492,154.547,123.137,158.145L123.137,158.145z M28.367,130.801c0.582,0,1.051,0.469,1.051,1.051
		s-0.469,1.051-1.051,1.051s-1.051-0.469-1.051-1.051S27.785,130.801,28.367,130.801L28.367,130.801z M130.391,131.039
		c0.582,0,1.055,0.469,1.055,1.051s-0.473,1.051-1.055,1.051s-1.052-0.469-1.052-1.051S129.809,131.039,130.391,131.039
		L130.391,131.039z M132.684,133.926c0.582,0,1.051,0.469,1.051,1.051s-0.469,1.051-1.051,1.051s-1.052-0.469-1.052-1.051
		S132.102,133.926,132.684,133.926L132.684,133.926z M129.277,134.371c0.582,0,1.055,0.473,1.055,1.051
		c0,0.582-0.473,1.055-1.055,1.055c-0.578,0-1.051-0.473-1.051-1.055C128.227,134.844,128.699,134.371,129.277,134.371
		L129.277,134.371z M125.52,136.77l1.901-0.094c-0.237,0.684-0.366,1.387-0.5,2.098l1.547,1.138l-6.702,1.141l2.891-5.942
		L125.52,136.77z M120.945,154.09l-11.285-14.574l1.359-1.102l11.379,14.418L120.945,154.09z M119.57,139.93
		c0.578,0,1.051,0.473,1.051,1.055c0,0.578-0.473,1.052-1.051,1.052c-0.582,0-1.055-0.474-1.055-1.052
		C118.516,140.4,118.988,139.93,119.57,139.93L119.57,139.93z M143.277,141.563c0.914,0.711,0,1.711-0.875,1.316
		c-0.758-0.32-0.703-1.09-0.105-1.398C142.671,141.305,142.957,141.348,143.277,141.563L143.277,141.563z M144.496,142.242
		c0.938,0.016,1.973,2.236,1.785,2.895c-0.281,0.758-0.539,0.785-1.863-0.332c-1.309-1.108-1.328-1.156-0.797-1.754
		C143.914,142.711,144.055,142.262,144.496,142.242L144.496,142.242z M122.167,142.646c0.582,0,1.051,0.471,1.051,1.053
		s-0.469,1.055-1.051,1.055s-1.051-0.473-1.051-1.055S121.585,142.646,122.167,142.646L122.167,142.646z M118.906,143.051
		c0.582,0,1.051,0.473,1.051,1.055s-0.469,1.052-1.051,1.052s-1.051-0.47-1.051-1.052S118.324,143.051,118.906,143.051
		L118.906,143.051z M142.012,143.805c1.038,0.152,1.313,0.938,0.831,1.521c-0.647,0.789-2.102,0.069-1.758-0.867
		C141.242,144.031,141.621,143.813,142.012,143.805L142.012,143.805z M143.875,144.988c0.406-0.035,1.02,0.527,1.691,1.457
		c0.75,1.047,0.813,1.387,0.598,2.027c-0.309,0.928-0.504,1.102-1.18,0.19c-0.254-0.34-0.848-1.146-1.271-1.586
		c-0.901-0.945-1.043-0.703-0.504-1.427C143.46,145.32,143.632,145.008,143.875,144.988L143.875,144.988z M141.434,146.09
		c0.934,0.48,1.022,1.105,0.473,1.551c-0.648,0.355-1.793-0.065-2.016-0.707C139.566,145.992,140.563,145.516,141.434,146.09
		L141.434,146.09z M143.016,147.477c0.526-0.035,0.961,0.508,1.604,1.551c1.103,1.773,1.159,2.371,0.223,3.544
		c-0.672,0.84-0.741,0.883-1.401-0.457c-0.535-1.095-1.563-2.38-2.512-3.148c-0.396-0.319-0.535-0.77-0.25-0.801
		c0.086-0.008,0.438-0.026,0.78-0.039c0.508-0.021,0.69-0.086,0.97-0.358C142.613,147.586,142.809,147.488,143.016,147.477
		L143.016,147.477z M139.23,148.857c0.487-0.021,1.121,0.244,1.594,0.789c0.535,0.563,0.473,1.08-0.578,1.186
		c-0.473,0.184-1.762-0.66-1.766-1.229C138.473,149.129,138.796,148.879,139.23,148.857L139.23,148.857z M141.703,150.918
		c0.027-0.004,0.051-0.004,0.078,0c0.441,0.02,0.668,0.445,1.164,1.439c0.762,1.528,0.539,2.36-0.773,3.037
		c-0.895,0.457-1.574,0.594-1.691,0.069c-0.03-0.153-0.03-0.594-0.104-1.021c-0.099-0.569-0.229-1.163-0.733-1.922
		c-0.806-1.211-0.945-1.641-0.063-1.285c0.465,0.188,0.978,0.169,1.508-0.112C141.324,151,141.523,150.926,141.703,150.918
		L141.703,150.918z M137.242,153.371c-0.305-0.004-0.504,0.184-0.418,0.684c0.277,0.137,0.715,0.008,1.047,0.129
		c0.445,0.16,0.723,0.887,1.199,0.767C139.121,154.34,137.914,153.387,137.242,153.371L137.242,153.371z M46.168,164.021
		c-2.461-1.17-8.551-3.881-11.489-3.924c-5.441-1.527-5.808-0.832-7.714-1.322c10.101-2.619,17.054,2.42,19.597,4.865
		C47.718,164.793,47.09,164.461,46.168,164.021L46.168,164.021z M52.597,187.832c5.782,10.025,11.168,21.336,20.207,38.082
		l-0.867,0.271l-34.469,0.063c1.707-18.504-8.289-36.129-8.964-35.438c7.804,0.146,14.285-1.361,15.656-4.236l-1.113-0.32
		c-4.543,3.922-11.125,4.102-15.668,2.891c0.101-9.641-0.438-19.819-0.141-29.457c5.371-0.397,9.566,1.57,12.543,5.492
		C44.781,171.771,48.175,180.16,52.597,187.832L52.597,187.832z M36.793,161.125c1.382-0.105,8.925,3,12.3,5.314
		c0.938,0.971,2.305,2.658,2.309,2.821c0.004,0.445-0.66-0.104-3.922-1.965c-2.465-1.387-5.023-2.496-7.515-3.56
		c-0.118-0.047-0.344-0.145-0.344-0.145s-0.184-0.215-0.5-0.461C38.234,162.449,36.507,161.229,36.793,161.125L36.793,161.125z
		 M40.461,164.641c-0.079-0.016,7.48,2.724,13.492,7.512c0.801,0.638,1.781,3.013,1.781,3.013
		c-0.535-1.013-10.031-6.69-13.367-7.992C42.363,167.164,40.461,164.641,40.461,164.641L40.461,164.641z M43.125,168.271
		c0.41-0.244,11.465,6.278,13.082,7.961c0.734,0.563,2.453,3.289,2.461,3.838c0.004,0.488-0.532,0.065-1.524-0.848
		c-5.086-4.75-12.441-8.332-12.5-8.255L43.125,168.271z M45.175,172.064c5.188,2.196,11.707,7.475,14.997,10.619
		c0.824,0.813,1.41,1.991,1.523,2.543c0.07,0.338-0.102,0.315-0.172,0.5c-4.262-4.896-13.633-10.48-14.875-10.918
		C46.656,175.117,45.617,172.91,45.175,172.064L45.175,172.064z M62.406,187.313c0.598,0.609,1.543,2.746,1.332,3.008
		c-0.106,0.125-0.094,0.06-0.344-0.112c-1.363-1.358-8.375-7.578-14.222-11.065c-0.547-0.273-2.391-3.177-2-3.234
		C50.23,176.906,58.972,183.887,62.406,187.313L62.406,187.313z M49.761,180.375c0.098,0.008,0.282,0.137,0.598,0.309
		c5.375,2.969,13.172,10.438,14.648,12.23c0.336,0.555,0.868,1.568,0.829,2.189c-0.071,0.489-0.266,0.076-2.438-2.064
		c-3.496-3.422-7.516-6.73-11.773-9.514c-0.821-0.562-0.66-0.635-1.258-1.668C49.773,180.82,49.539,180.357,49.761,180.375
		L49.761,180.375z M84.152,180.488c3.84,0.109,5.34,3.016,7.708,8.375c1.934,5.277,2.738,10.113,2.824,13.965
		c0.008,0.258-0.461,0.039-0.677-0.02c-1.026-0.273-2.309-0.533-3.793-0.158c-1.089,0.274-2.125,0.244-1.004-0.486
		c0.359-0.238,1.336-1.143,1.854-1.465c1.056-0.656,0.414-0.648-0.629-0.135c-0.792,0.393-1.319,0.885-1.647,0.961
		c-0.199,0.049-0.074-0.611,0.117-1.09c1.117-2.746,1.457-4.371-0.207-4.881c-0.449-0.138-1.059-0.556-1.344-0.832
		c-0.226-0.224-0.422-1.109-0.496-1.146c-0.074-0.039-0.129,0.809-0.129,0.938c0.004,0.44,0.57,1.336,1.254,1.823
		c1.156,0.828,1.387,1.058,0.758,3.022c-0.883,2.75-1.07,3.427-1.231,4.063c-0.093,0.367-0.273,0.992-0.363,1.398
		c-0.351,1.559-0.308,2.922-0.242,4.219c0.379,2.894,3.5,4.324,7.691,2.715c0.398-0.153,0.563-0.016,0.563-0.016
		c-3.341,3.397-7.086,5.565-9.27,12.426c-2.808-5.66-6.785-10.094-13.398-11.871l-0.098-1.18c2.309,1.104,6.778,2.608,9.617,0.918
		c1.52-1.039,1.059-1.707-0.785-0.992c-2.199,0.853-6.164,0.754-8.144-0.363c-0.403-0.227-0.817-0.032-0.93,0.007
		c-0.105-0.664-1.059-3.17-0.918-4.111c-0.082-0.135,0.602-0.141,0.734,0.033c0.547,0.735,3.332,2.912,6.223,2.744
		c1.438-0.086,2.617-0.523,3.867-1.841c0.105-0.094,0.614-0.159,0.68-0.239c0.113-0.125,0.031-0.308,0.027-0.375
		c-0.031-0.101-0.218-0.375-0.34-0.687c-0.16-0.271-0.195-0.551-0.168-0.771c0.004-0.18,0.125-0.276,0.219-0.401
		c0.11-0.242,0.078-0.552,0.02-0.715c-0.258-0.177-0.227-0.496-0.09-0.648c0.391-0.442-3.367-3.871-4.102-3.864
		c-0.265,0.004-0.109,0.493,0.43,0.854c1.91,1.27,3.305,2.926,2.988,3.141c-0.242,0.168-1.097-0.199-1.968-0.402
		c-1.75-0.409-3.848-0.672-6.122,0.97c-0.851,0.698-3.101,0.805-3.101,0.805c-0.031-1.223-5.211-14.913-5.219-14.317
		c1.883-2.197,7.805-7.4,13.738-9.644C80.875,180.617,82.836,180.313,84.152,180.488L84.152,180.488z M61.656,183.551l10.769,0.168
		c-2.707,1.363-7.628,6.254-7.628,6.254C63.39,187.137,62.961,185.727,61.656,183.551L61.656,183.551z M52.343,184.973
		c0.805,0.004,9.352,6.969,10.571,8.617c0.144,0.195,1.011,1.109,1.926,2.027c2.21,2.215,3.121,3.496,3.132,4.408
		c0.004,0.436-0.39,0.154-0.98-0.5c-4.43-4.918-7.309-7.59-12.781-11.361c-0.621-0.332-2.551-2.898-1.899-3.186
		C52.324,184.977,52.332,184.973,52.343,184.973L52.343,184.973z M81.59,186.254c-0.243-0.008-0.204,0.223-0.071,0.438
		c1.356,1.199,4.938,1.146,6.172,0.177c1.121-0.879-0.348-0.414-0.805-0.22c-1.07,0.457-2.218,0.406-3.707,0.013
		C82.308,186.43,81.828,186.262,81.59,186.254L81.59,186.254z M84.894,188.207c-1.254,0.012-2.562,0.387-2.273,0.848
		c0.109,0.168,0.449,0.484,1.269,0.039c1.18-0.586,3.61,0.18,3.68,0.199c0.25,0.064-0.805-0.695-1.16-0.854
		C86.019,188.27,85.461,188.203,84.894,188.207L84.894,188.207z M54.711,189.508c4.593,2.813,10.191,8.438,13.55,12.453
		c0.559,0.689,0.961,1.543,0.969,2.043c0.008,0.723-0.148,0.324-3.199-2.771c-2.395-2.443-6.004-5.779-8.399-7.572
		c-1.433-1.047-1.691-1.184-2.367-2.428C54.632,190.07,54.402,189.492,54.711,189.508L54.711,189.508z M83.332,190.449
		c-0.864,0.408-2.008,0.32-3.125-0.063c-1.008-0.348-0.774-0.051-0.387,1.05c0.172,0.504,0.281,1.217,0.281,1.317
		c0.004,0.246,0.004,0.267,0.715-0.133c0.621-0.349,0.754-0.47,2.078-0.16c1.348,0.312,1.371,0.195,2.004-0.133
		c0.551-0.289,0.664-0.461,1.043-0.31c0.738,0.297,1.574,0.426,2.52-0.074c0.726-0.379,0.96-0.12,1.296,0.048
		c0.457,0.229,0.634,0.082,0.457-0.371c-0.073-0.181-0.207-0.957-0.211-1.203c-0.008-0.465-0.121-0.887-0.316-0.789
		c-0.722,0.367-1.312,0.754-2.004,0.738C86.418,190.348,85.304,189.586,83.332,190.449L83.332,190.449z M27.343,191.406
		c11.454,14.266,9.426,34.832,9.047,34.664l-8.976,0.043L27.343,191.406z M57.14,194.289c4.575,3.207,10.016,8.797,13.035,12.664
		c0.512,0.668,0.094,0.879,0.352,1.684c0.094,0.301-0.414-0.141-1.867-1.703c-1.809-1.944-4.785-4.867-6.746-6.563
		c-2.149-1.859-2.766-2.328-3.223-2.957C58.328,196.891,56.859,194.363,57.14,194.289L57.14,194.289z M82.882,195.602
		c-0.046,0-0.097,0-0.144,0.004c-1.629,0.078-2.453,1.902-1.059,3.191c0.524,0.484,1.36,0.77,1.356,0.508
		c-0.004-0.063-0.266-0.324-0.449-0.465c-1.161-0.895-1.043-2.285,0.281-2.301c0.461-0.004,0.488,0.16,1.547,0.922
		c1.25,0.895,2.722,0.895,2.703-0.004c-0.012-0.664-0.258-1.34-1.375-1.23c-0.293,0.027-0.68,0.06-1.024-0.026
		c-0.328-0.082-0.609-0.281-0.738-0.341C83.593,195.688,83.222,195.604,82.882,195.602L82.882,195.602z M60.113,199.801
		c3.5,2.352,8.309,7.664,10.766,10.797c0.566,0.734,0.601,1.547,0.375,1.984c-0.055,0.086-0.485-0.186-0.485-0.186
		c-2.844-3.347-6.066-6.39-9.23-9.479C61.539,202.918,59.66,199.896,60.113,199.801L60.113,199.801z M94.039,204.883l-0.758,0.375
		c-1.145-1.715-2.191-1.738-3.07,0.266l-0.563-0.141C89.23,204.922,91.156,200.559,94.039,204.883L94.039,204.883z M93.867,203.418
		c0.316,0.012,0.867,0.184,0.996,0.504c0.145,0.297-0.021,0.633-0.449,0.617c-0.066-0.004-0.484-0.518-0.691-0.828
		C93.566,203.52,93.632,203.414,93.867,203.418L93.867,203.418z M81.015,205.52l-0.847,0.039c-1.61-2.117-2.813-0.694-3.536,0.188
		l-0.906-0.121C75.871,203.297,79.98,202.488,81.015,205.52L81.015,205.52z M89.246,203.711c0.129,0.004,0.254,0.027,0.371,0.074
		c-0.332,0.504-0.391,0.926-0.465,1.383c-0.328,0.137-0.797,0.422-1.145,0.059C87.359,204.637,88.355,203.695,89.246,203.711
		L89.246,203.711z M76.031,203.949c0.398,0,0.277-0.023,0.105,0.197c-0.175,0.229-0.414,0.629-0.543,0.989
		c-0.054,0.25-0.093,0.341-0.328,0.347c-0.449,0.018-1.355-0.144-1.347-0.14C73.574,205.02,74.996,203.982,76.031,203.949
		L76.031,203.949z M81.148,204.246c0.266-0.035,0.203,0.348,0.121,0.496c-0.172,0.197-0.238,0.266-0.332,0.016
		c-0.047-0.117-0.113-0.211-0.172-0.285c-0.133-0.168-0.117-0.176,0.047-0.203C80.882,204.254,81.054,204.246,81.148,204.246
		L81.148,204.246z M94.977,205.938c0.983-0.026,0.328,1.646-1.043,2.052c-1.517,0.766-3.25,0.581-5.021-0.427
		c-1.008-0.573-1.313-1.18-0.434-0.938c3.309,0.91,4.113,0.742,6.109-0.551C94.707,205.973,94.832,205.949,94.977,205.938
		L94.977,205.938z M63.14,205.574c3.293,2.789,5.774,5.947,8.407,8.861c0.527,0.649,0.773,1.278,0.671,1.7
		c-0.125,0.527-1.207-0.729-1.207-0.729c0.028,0.012-6.429-6.881-6.429-6.881S62.941,205.59,63.14,205.574L63.14,205.574z
		 M72.984,206.539c0.231,0.008,0.684,0.111,1.414,0.301c3.172,0.961,4.129,0.926,5.949,0.09c1.16-0.535,1.641-0.457,1.145,0.344
		c-0.914,1.478-4.145,1.638-6.567,0.816c-0.64-0.219-1.207-0.602-1.824-1.063C72.769,206.68,72.691,206.527,72.984,206.539
		L72.984,206.539z M87.597,207.516c0.192-0.016,0.543,0.203,0.973,0.449c2.657,1.504,4.618,1.227,6.25,0.219
		c0.297-0.27,0.457-0.141,0.496,0.121c0.141,0.918,0.18,1.574-0.238,2.017c-0.242,0.258-0.656,0.375-1.281,0.581
		c-2.57,0.867-5.7,0.25-6.296-1.68C87.304,208.229,87.179,207.543,87.597,207.516L87.597,207.516z M66.535,211.646
		c0.008,0,0.019,0,0.031,0c0.184,0.028,0.613,0.403,1.289,1.174c3.531,4.008,5.488,6.309,5.129,7.469
		c-0.031,0-0.055,0.25-0.203,0.121c-1.941-1.682-3.527-3.514-4.711-5.432C66.777,212.879,66.242,211.676,66.535,211.646
		L66.535,211.646z M95.02,214.469c-2.98,2.281-6.598,7.707-6.922,10.379c-0.062,0.512-0.007,0.896-0.199,1.078
		c-0.148,0.148-0.488,0.16-0.937,0.074c-0.278-0.051-0.211-0.082-0.278-0.396c-0.254-1.222,0.918-4.299,3.344-7.933
		c1.27-1.901,4.16-4.473,4.969-4.491C95.535,213.4,95.012,214.492,95.02,214.469L95.02,214.469z M72.941,213.229
		c0.211-0.002,0.535,0.106,0.992,0.303c2.676,1.148,3.672,1.566,5.407,2.977c3.226,2.633,6.816,8.883,5.761,9.469
		c-0.461,0.258-0.789,0.094-0.976-0.483c-0.035-0.109-0.375-0.984-0.778-1.728c-2.164-3.977-4.98-6.711-8.945-8.645
		c-1.465-0.715-1.613-0.639-1.727-1.234C72.593,213.438,72.672,213.238,72.941,213.229L72.941,213.229z M94.977,215.527
		c0.266-0.023,0.332,0.469,0.237,1.451c-0.069,0.803-0.121,0.787-1.016,1.729c-1.431,1.156-3.121,3.879-3.906,6.646
		c0.004,0.1-0.069,0.311-0.207,0.422c-0.367,0.317-0.832,0.164-1.148,0.158c-0.23-0.123-0.168-0.623-0.125-0.902
		c0.652-2.516,2.266-5.605,4.79-8.32C94.313,215.949,94.738,215.547,94.977,215.527L94.977,215.527z M73.496,215.602
		c1.418-0.035,6.453,3.728,8.492,7.023c1.332,2.15,1.691,3.035,1.387,3.348c-0.164,0.164-0.879,0.191-1.254,0.043
		c-0.34-0.133-0.473-0.647-1.11-1.848c-1.664-3.125-4.058-5.393-6.656-6.59c-0.484-0.225-0.742-0.363-0.898-0.535
		C73.285,216.684,73.062,215.676,73.496,215.602L73.496,215.602z M74.261,218.396c0.442,0.082,1.657,0.873,2.676,1.619
		c1.801,1.319,4.539,5.358,3.973,5.938c-0.184,0.188-0.809,0.191-1.133,0.066c-1.93-3.431-4.43-5.063-5.445-6.017
		C74.023,219.482,73.304,218.262,74.261,218.396L74.261,218.396z M70.257,219c0.083-0.021,0.422,0.313,1.032,0.957
		c1.808,1.896,2.957,4.004,2.691,5.064c-0.223,0.899-0.488,0.408-2.558-3.543C70.55,219.82,70.136,219.031,70.257,219L70.257,219z
		 M95,219.055c0.043,1.094-0.047,1.363-0.16,1.941c-0.078,0.395-0.34,0.578-0.586,0.887c-0.617,0.766-1.316,2.09-1.668,3.16
		c-0.293,0.863-0.156,1.064-1.215,0.953c-0.496-0.066-0.379-0.199-0.184-0.77C91.855,223.354,93.46,220.324,95,219.055L95,219.055z
		 M74.445,221.113c0.023-0.559,4.852,4.301,4.187,4.848c-0.625,0.109-1,0.133-1.265-0.09c-0.516-1.156-2.813-3.352-2.813-3.352
		L74.445,221.113z M94.734,222.645c0.012,0,0.02,0,0.027,0c0.219,0.047,0.098,3.035-0.082,3.281c-0.345,0.176-0.996,0.191-1.345,0
		c-0.211-0.113-0.276-0.328-0.194-0.559C93.339,224.789,94.387,222.719,94.734,222.645L94.734,222.645z M76.504,225.934
		c-0.153,0.238-1.094,0.281-1.45,0.012c-0.113-0.086-0.222-1.569-0.089-1.836C75.324,223.875,76.621,225.613,76.504,225.934
		L76.504,225.934z"/>
	<path d="M13.816,10.738c-3.754,0.071-5.617,3.215-5.637,6.36l0.004,8.257H5.941v2.739h2.242c0,0,0.039,1.254,0.032,2.004
		c-0.032,3.707,1.281,5.957,3.835,6.578c2.457,0.445,3.735-0.082,5.602-1.047c0.68,0.281,1.152,0.863,1.879,0.937
		c0.805,0.079,2.476,0.043,2.476,0.043l-0.046-2.812l-0.836-0.121c-1.598-0.028-2.293-0.586-2.121-1.586
		c0.339-0.653,0.39-1.125,0.421-1.914V16.215C19.379,12.793,16.582,10.766,13.816,10.738L13.816,10.738z M13.699,13.457
		c1.793-0.027,3.281,2.059,3.242,4.195l0.027,10.789c0.059,0.676-0.05,1.34-0.347,1.805c-0.239-0.687-3.946-4.476-5.797-4.301
		c0,0-0.078,0.192-0.129-4.55c-0.023-2.329-0.637-5.801,1.457-7.372C12.672,13.641,13.195,13.465,13.699,13.457L13.699,13.457z
		 M110.859,22.805l0.604,0.793l-3.534,0.019c0.577,0.488,13.688,26.867,30.448,57.348c2.772,5.347,8.065,7.277,14.211,7.512
		l-16.276-26.215c1.733-0.946,5.176-3.473,7.258-3.004c0.129,0.637,0.75,0.383,0.758-0.184l0.754,0.016l0.262,0.41h3.164
		l0.258-0.371l2.73,0.391c-7.289-8.981-11.133-22.825-9.887-36.336l-24.168,0.05l-0.32-0.422L110.859,22.805z M107.93,23.617
		c-0.017-0.012-0.023-0.015-0.023,0H107.93z M80.14,41.203c-2.746,8.871-9.543,16.172-13.574,23.524
		c-4.328,8.023-5.344,15.003-4.125,22.636l0.789,0.067c9.223-12.575,16.363-27.606,20.36-42.383c0.085-0.32-0.063-0.891,0.011-1.215
		c-0.172-0.391-0.023-0.812,0.086-0.926c0.235-0.246,0.149-1.203-0.027-2.789c-0.434-4.711-0.348-8.406,0.047-12.676
		c0.3-3.277,0.285-3.793,0.285-3.793l-1.578-0.023C82.703,29.203,81.968,36.078,80.14,41.203L80.14,41.203z M118.102,24.004
		l2.594,0.055c0.397,7.925,7.074,8.957,8.104,8.839c-1.702,5.36,1.117,11.243,7.914,12.079c-1.56,4.968,1.199,11.519,6.638,11.343
		l0.573,0.364c-0.352,0.714-0.426,2.187-0.405,2.207c-1.207,0.089-1.863,0.265-2.648,0.421
		C133.848,48.719,118.102,24.004,118.102,24.004L118.102,24.004z M141.152,24.004c-0.785,8.855,0.992,21.016,5.147,28.203
		c0,0-0.129,0.48-0.219,0.613c-0.396,0.598-0.59,0.078-0.832-0.402c-0.888-1.637-2.56-1.891-3.293-0.981
		c-1.617,2.208,0.137,3.079,1.5,4.325c-5.565-0.344-7.422-6.469-6.138-9.5c-0.026,0.578,0.281,1.449,0.688,2.07
		c1.566,2.371,3.853,0.371,3.195-1.508c-0.271-0.777-1.267-2.07-1.267-2.07s1.355-0.203,1.906-0.535
		c0.52-0.324,0.848-0.891,0.711-1.668c-0.104-0.625-0.133-0.899-0.469-1.461c-0.41-0.516-1.145-0.867-1.734-0.828
		c-1.147,0.074-1.289,0.867-2.043,1.406c-0.184-1.422-1.098-2.508-2.586-2.238c-1.133,0.207-1.949,1.41-1.258,2.918
		c0.352,0.773,0.844,1.004,1.34,1.672c-8-0.895-7.129-10.395-6.242-10.223c0,0,0.242-0.047,0.168,0.316
		c-0.453,2.324,2.435,3.715,3.699,2.028c0.805-1.371-0.926-3.536-0.926-3.536s1.152-0.246,1.676-0.55
		c2.09-1.203-0.137-4.664-2.078-3.817c-0.684,0.313-0.858,0.946-1.522,1.282c-0.445-0.497-0.474-1.036-1.271-1.481
		c-2.195-1.223-3.565,1.668-2.352,2.938c0.496,0.515,1.375,0.984,1.203,1.046c-6.801-0.855-6.734-7.976-6.578-7.925L141.152,24.004z
		 M82.691,24.062h0.938c-0.278,4.223-0.879,9.793-0.485,13.911c0.457,3.933,0.477,4.492,0.196,4.882
		c-0.387,0.434-0.184,0.637-0.106,0.993c0.102,0.644,0.109,0.652,0.02,1.019c-0.825,3.305-1.879,6.723-3.219,10.184
		c-4.375,12.07-11.516,25.226-17.117,32.125c-0.004-0.024-0.254,0.023-0.258,0c-1.531-9.629,1.742-17.656,3.449-20.949
		c3.469-6.68,8.91-12.379,12.145-19.375C81.004,40.895,83.035,33.742,82.691,24.062L82.691,24.062z M117.148,24.023l22.809,35.469
		l-4.164,2.043l-23.344-37.383L117.148,24.023z M48.449,27.734c-8.086,0.121-12.031,10.297-5.258,15.184
		c1.219,0.875,1.59,1.387,1.262,1.727c-0.281,0.285-0.656,0.152-1.262-0.45c-5.273-5.175-13.414-2.347-14.172,4.828
		c-1.258,11.891,13.539,15.012,17.332,3.692c1.086-3.246,1.551,0.269,0.496,3.722c-0.879,3.184-2.406,6.45-4.195,9.168
		c-0.297,0.446-0.734,1.016-0.734,1.016h12.996c0,0-0.414-0.555-1-1.238c-2.364-3.52-3.645-7.469-4.059-11.59
		c-0.098-1.172-0.055-2.063,0.172-2.211c0.395-0.254,0.621,0.063,1.043,1.461c0.863,2.875,2.496,5.223,4.32,6.113
		c4.407,1.828,8.008,1.274,11.02-2.738c6.515-8.684-4.141-19.41-11.754-12.402c-0.699,0.64-1.137,0.707-1.203,0.183
		c-0.031-0.254,0.164-0.496,1.117-1.394c6.543-5.196,3.266-14.106-4.898-15.008C49.257,27.75,48.847,27.73,48.449,27.734
		L48.449,27.734z M15.57,33.16c0.164,0.332-0.441,0.66-1.094,0.844c-1.836,0.512-3.636-0.633-3.691-3.266
		c-0.02-0.801-0.07-1.66,0.211-1.785C11.84,28.574,15.074,32.156,15.57,33.16L15.57,33.16z M130.516,30.949
		c0.59,0,1.065,0.481,1.065,1.074c0,0.59-0.478,1.071-1.065,1.071c-0.59,0-1.07-0.481-1.07-1.071
		C129.445,31.43,129.925,30.949,130.516,30.949L130.516,30.949z M13.453,40.312c-3.699,0.012-5.637,5.043-2.117,8.028
		c0.617,0.523,0.855,0.996,0.816,1.109c-0.098,0.262-0.191,0.043-0.945-0.484c-3.309-2.332-7.285-0.246-6.934,3.101
		c0.496,4.778,5.875,5.911,7.785,1.493c0.34-0.782,0.5-1.024,0.684-1.028c0.164,0,0.187,0.321,0.109,0.828
		c-0.351,2.082-1.359,4.27-2.496,6.028h6.008c-1.231-1.86-1.742-3.696-2.07-5.992c-0.024-0.606,0.058-1.004,0.293-1.008
		c0.16,0,0.25,0.215,0.507,1.238c0.957,3.781,6.805,3.586,7.778-0.242c1.09-4.285-2.957-7.336-6.281-4.625
		c-0.469,0.383-1,0.66-1.094,0.394c-0.028-0.078,0.273-0.636,0.801-1.101C19.691,44.738,17.422,40.305,13.453,40.312L13.453,40.312z
		 M138.078,42.781c0.598,0,1.082,0.485,1.082,1.082c0,0.598-0.484,1.082-1.082,1.082s-1.082-0.484-1.082-1.082
		C136.996,43.266,137.48,42.781,138.078,42.781L138.078,42.781z M83.73,44.891c0.391,1.546-7.238,24.746-18.082,39.511l4.734,0.098
		l0.149,0.52c6.629,9.792,2.484,18.457-2.871,22.48l1.851,2.469l-1.668,1.351l-1.668-1.988
		c-13.57,10.18-40.054,32.715-40.054,32.715l0.148,3.613l2.067-1.625c13.433,13,41.918,12.289,49.386-14.553l2.004,0.043
		c-4.519,19.678-22.906,27.375-36.781,24.115l-3.25,4.668l0.871,0.467c-0.16-0.248-0.309-0.336-0.074-0.564l2.762-3.551
		c20.761,2.654,33.296-9.096,37.367-25.014l2.648,0.049c-2.273,13.369-8.543,25.141-17.48,34.354
		c-6.449-0.028-17.793-0.176-17.793-0.176c4.129,4.004,12.019,16.215,12.332,17.453c0,0,8.113,0.258,16.816,0.047
		c3.192-1.438,7.461-2.013,9.453-1.008c3.504,1.766,6.797,8.315,8.278,18.823c0.379,2.711,0.727,3.855,0.832,4.402
		c0.02,0.098,0.254,0.172,0.289,0.152c0.137-0.07-0.211,0.477-0.227,0.887c-0.013,0.406,0,1.02,0.194,1.23
		c0.242,0.27,0.216,0.447,0.181,0.565c-0.023,0.074-0.496,0.511-0.496,0.511c-0.07,6.125-0.035,11.686-0.371,19.217l1.203,0.008
		c-0.008-12.121,3.647-23.332,9.285-31.051c3.426-5.066,7.051-10.523,9.055-15.723c2.254-5.853,2.566-12,1.359-17.188l-0.828,0.047
		c-4.953-3.397-6.974-10.647-0.867-15.828l-2.164-2.813c-6.094,4.717-7.496,13.408-1.18,20.606l-2.47-0.008
		c-6.164-7.69-4.801-16.522,2.32-22.828l-1.591-2.024l1.73-1.521l1.563,1.707l39.755-33.215l-0.031-3.633l-3.043,2.469
		c-17.832-16.484-44.276-4.918-48.155,14.942l-2.423,0.027c5.082-21.371,23.81-27.41,37.353-24.567l3.344-5.058
		c-3.016-0.848-5.98-3.063-8.609-5.633c-0.078-0.078-0.652,0.129-0.73,0.051c-0.077-0.082,0.349-0.402,0.271-0.485
		c-6.582-6.796-11.065-16.503-11.272-16.519l-17.445-0.043c-2.563,1.266-6.945,2.703-9.348,0.762
		c-5.165-4.172-6.898-12.582-7.609-17.996c-0.215-1.688-0.395-4.618-0.555-5.59C84.093,44.871,83.902,44.863,83.73,44.891
		L83.73,44.891z M145.578,54.25c0.586,0,1.059,0.477,1.059,1.059s-0.473,1.054-1.059,1.054c-0.582,0-1.055-0.472-1.055-1.054
		S144.996,54.25,145.578,54.25L145.578,54.25z M147.852,55.496c0.858,1.113,1.621,2.262,2.051,3.477
		c-0.402-0.012-0.777,0.113-1.228-0.239c-0.103-1.226-0.604-1.961-1.241-2.777L147.852,55.496z M144.66,57.059
		c0.352,0.171,0.633,1.503,0.387,1.73c-0.426,0.09-0.715,0.063-0.859-0.086C143.977,58.352,144.378,57.125,144.66,57.059
		L144.66,57.059z M75.281,68.629l16.196,0.019c2.815,2.161,5.569,1.875,9.569,0.141h18.009l1.016,1.848H74.402
		C74.656,69.953,75.281,68.629,75.281,68.629L75.281,68.629z M73.945,71.516h46.605l1.181,1.895H72.789L73.945,71.516z
		 M78.441,74.27h5.231l-1.938,3.289H76.34L78.441,74.27z M90.055,74.27h4.987l-2.219,3.285h-4.949L90.055,74.27z M106.195,74.27
		l-2.103,3.285H99.02l2.18-3.254L106.195,74.27z M112.453,74.27h5l-1.871,3.285h-5.176L112.453,74.27z M45.312,74.781
		c-3.242-0.035-2.64,4.262-2.336,4.129c-2.035-0.469-3.539,0.5-3.789,2.231c-0.199,1.379,1.145,3.339,3.496,3.063
		c-0.313,0.363,0.008,2.442,0.321,2.633c0,0,0.039,0.301-1.204,2.891c-1.472,3.07-1.773,3.214-2.437,1.199
		c-0.719-2.172-1.828-3.274-4.719-4.676c-0.773-0.371-1.859-1.023-2.422-1.449c-1.293-0.973-1.308-0.957-1.246,1.019
		c0.078,2.563,0.856,3.688,3.594,5.203c1.34,0.739,3.906,1.786,4.371,1.782c0.328-0.004,1.527,0.535,3.309,1.484
		c0.347,0.184,1.535,0.84,3.058,0.988c1.617,0.114,5.262-0.269,7.371-1.488c1.188-0.684,1.645-1.297,2.52-3.047
		c0,0-2.992,0.156-4.359-0.203c-2.84-0.168-4.254-0.004-6.407,1.117c-1.804,0.934-1.902,1.102-1.152-0.445
		c0.344-0.707,0.664-1.543,0.953-2.375c0.316-0.828,0.398-0.899,1.188-0.977c1.726-0.175,2.71-1.172,2.871-2.902
		c0.043-0.465-0.028-0.953-0.028-0.953c1.176,0.172,3.586-0.41,3.508-2.848c-0.066-2.191-1.629-2.695-3.551-2.844
		C48.468,77.191,47.648,74.809,45.312,74.781L45.312,74.781z M45.351,75.461c2.84,0.019,2.774,2.625,1.535,4.105l-1.511-1.242
		l-1.219,1.125C42.832,78.602,42.836,75.445,45.351,75.461L45.351,75.461z M123.05,75.492l1.396,2.063h-2.883L123.05,75.492z
		 M70.031,78.457h5.348l-2.145,3.016h-5.059C68.175,81.473,69.308,79.547,70.031,78.457L70.031,78.457z M86.886,78.457l-2.023,3.133
		h-4.672l1.875-3.07L86.886,78.457z M93.148,78.457h4.832l-1.91,3.34h-4.777L93.148,78.457z M104.52,78.457h4.891l-1.988,3.34
		h-4.824L104.52,78.457z M115.602,78.457h5.043l-2.082,3.34h-4.859L115.602,78.457z M45.422,79.078l2.402,2.422l-2.344,2.344
		l-2.414-2.309L45.422,79.078z M51.511,81.434c-0.425,2.816-3.136,2.66-3.906,1.285l1.106-1.258l-1.356-1.332
		C48.672,78.02,51.836,79.309,51.511,81.434L51.511,81.434z M43.445,80.09l-1.301,1.461l1.426,1.371
		c-0.918,1.277-4.445,1.176-3.738-1.895C40.281,79.078,42.265,78.719,43.445,80.09L43.445,80.09z M125.805,79.73l1.487,2.043
		l-2.789,0.024L125.805,79.73z M67.808,82.238l59.793,0.196l1.602,1.957c-20.879,0.359-41.321-0.336-62.645-0.352L67.808,82.238z
		 M46.789,83.512c2.367,1.453,0.617,4.515-1.926,3.996c-1.895-0.832-2.281-2.801-0.578-3.942l1.34,1.102L46.789,83.512z
		 M67.293,84.684l-1.633,0.007l-1.59,1.86c6.008,6.328,5.789,11.816,0.191,16.601l2.25,2.524
		C72.793,100.305,74.183,91.863,67.293,84.684L67.293,84.684z M73.465,84.926c3.367,5.261,6.277,15.23-3.754,24.359l-1.211-1.469
		c8.734-8.531,6.683-15.707,2.769-22.824L73.465,84.926z M74.398,85.055l13.578,0.054c-2.906,11.075-4.945,17.598-5.254,34.926
		l-3.922,0.024c0.426-0.399-2.035-10.465-4.902-13.954C79.914,95.891,76.672,90.133,74.398,85.055L74.398,85.055z M31.691,85.07
		c0.234,0,0.715,0.301,1.656,0.867c0.848,0.508,1.946,1.149,2.442,1.426c1.867,1.047,2.793,2.032,3.324,3.539
		c0.394,1.125,0.148,1.149-0.992,0.086c-0.848-0.789-1.754-1.468-4.016-3.019c-0.797-0.547-1.047-0.457-0.586,0.207
		c0.332,0.48,1.051,1.023,2.5,1.91c1.055,0.641,2.504,1.926,2.387,2.113c-0.102,0.172-0.281,0.156-0.789-0.062
		c-0.235-0.106-0.992-0.414-1.68-0.696c-2.957-1.199-4.219-2.671-4.398-5.121C31.476,85.465,31.425,85.074,31.691,85.07
		L31.691,85.07z M93.652,85.125c0,0,0.406,0.539,0.461,0.762c0.113,0.488-0.363,0.933-1.867,1.601
		c-0.516,0.231-0.941,0.356-0.93,0.657c0.07,0.703,1.422,1.781,1.258,2.746c-0.313,0.734-2.191,1.457-2.66,2.328
		c0.004,0.597,1.223,1.511,1.047,2.32c-0.094,0.242-0.488,0.492-1.07,0.996c-1.19,1.035-1.265,1.195-0.828,2
		c1.016,1.871,1.05,1.73-0.336,3.059c-1.394,1.34-1.371,1.324-0.703,2.488c0.723,1.254,0.688,1.199-0.277,2
		c-0.949,0.789-0.91,0.949-0.403,1.926c0.493,0.949,0.602,0.961-0.222,1.691c-0.965,0.856-1.149,0.946-0.465,2.024
		c0.703,1.109,0.754,1.063-0.039,1.972c-0.754,0.864-0.84,0.903-0.434,1.489c0.516,0.734,0.61,0.929,0.074,1.742
		c-0.582,0.875-0.578,0.812-0.046,1.625c0.449,0.687,0.371,1.449,0.371,1.449l-1.68-0.004c0,0-0.012-0.965-0.207-1.32
		c-0.477-0.86-0.465-1.129,0.102-1.891c0.582-0.785,0.484-0.851-0.059-1.637c-0.547-0.793-0.469-0.785,0.242-1.687
		c0.652-0.828,0.688-1.219,0.317-1.691c-0.879-1.122-0.879-1.594,0.007-2.333c0.672-0.566,0.739-0.82,0.153-1.789
		c-0.567-0.945-0.641-1.031,0.406-1.976c1.07-0.965,1.059-0.945,0.34-2.039c-0.696-1.063-0.656-1.133,0.461-2.172
		c1.129-1.047,1.144-1.047,0.402-2.371c-0.691-1.238-0.699-1.215,0.656-2.422c1.348-1.121,1.805-1.266,0.461-2.875
		c-0.75-1.277-0.215-1.402,1.016-2.039c2.155-1.317,1.172-1.238,0.266-3.192c-0.757-1.308-0.325-1.32,0.996-1.976
		c0.328-0.141,0.69-0.301,1.063-0.508c0.883-0.492,0.406-0.945,0.406-0.945L93.652,85.125z M96.468,85.152l6.484,0.086
		c-7.517,9.594-11.129,21.864-12.427,34.809l-2.448-0.039C87.925,109.898,91.105,97.27,96.468,85.152L96.468,85.152z
		 M129.753,85.379c3.707,3.121,6.457,4.906,8.41,5.609c0,0-2.617,4.34-2.815,4.184c-15.039-2.899-32.923,5.871-36.966,24.773
		l-2.37,0.016c0.875-7.418,2.827-13.613,6.422-20.074c3.565-6.278,6.852-9.942,11.809-14.563L129.753,85.379z M103.882,85.219
		l3.195,0.054c0,0,0.598,0.723,0.871,0.981c1.375,1.562,1.495,1.254-1.544,2.969c-1.918,1.082-2.766,1.586-2.879,2.039
		c-0.086,0.457,0.841,1.363,0.945,1.972c0.004,0.071-2.604,1.817-3.078,2.063c-0.66,0.32-0.69,0.594-0.039,1.73
		c0.75,1.305,0.691,1.262-0.93,2.391c-1.582,1.105-1.895,0.996-1.219,2.094c0.934,1.523,0.496,1.871-1.707,3.058
		c-0.555,0.301-0.57,0.602-0.184,1.641c0.543,1.449,0.68,1.301-0.457,2.086c-1.344,0.926-1.578,0.949-1.281,1.515
		c0.863,1.649,1.207,2.047,0.051,2.586c-0.879,0.411-0.898,0.641-0.41,1.731c0.488,1.094,0.617,1.047-0.254,1.664
		c-0.805,0.57-1.281,0.445-0.496,1.379c0.621,0.738,0.566,1.32,0.059,1.773c-0.434,0.184-0.637,1.012-0.508,1.028l-1.121,0.031
		c-0.879-1.18,0.156-1.859,0.313-1.973c0.146-0.273-0.03-0.469-0.383-1.105c-0.488-0.883-0.474-0.989,0.229-1.504
		c0.707-0.52,0.728-0.387,0.258-1.535c-0.551-1.34-0.522-1.492,0.34-2.114c0.849-0.609,0.859-0.746,0.281-1.918
		c-0.608-1.234-0.608-1.238,0.902-2.238c1.063-0.707,1.078-0.664,0.516-1.972c-0.391-0.903-0.112-1.215,1.332-2.208
		c0.824-0.566,0.888-0.675,0.5-1.351c-1.074-1.856-1.063-1.914,0.785-3.109c1.512-0.981,1.5-1.063,0.914-2.368
		c-0.629-1.414-0.688-1.304,1.387-2.547c1.707-1.023,1.802-0.964,1.099-2.195c-0.875-1.531-0.815-1.281,2.594-3.23
		c1.234-0.844,2.345-0.555,1.117-1.989C104.542,85.961,103.882,85.219,103.882,85.219L103.882,85.219z M43.597,87.738
		c0.235-0.008,0.418,0.282,0.407,0.821c-0.043,0.761-0.399,1.511-0.747,2.265c-0.718,1.539-1.441,2.676-1.82,2.68
		c-0.89,0.012-0.867-0.188,0.32-2.508c0.54-1.059,1.098-2.266,1.188-2.5C43.136,87.988,43.386,87.746,43.597,87.738L43.597,87.738z
		 M54.57,91.219c0.016,3.254-10.195,4.894-10.723,3.254c1.778-1.395,7.039-0.778,8.157-2.024c-1.344-0.078-3.164,0.145-4.414,0.168
		c-1.555,0.028-4.071,0.692-4.094,0.969c-0.164-0.859,2.672-2.465,4.918-2.566C50.511,90.926,52.793,91.176,54.57,91.219
		L54.57,91.219z M55.445,96.187c0,0-19.906,16.473-29.746,24.442l0.058,3.555L57.25,98.402L55.445,96.187z M55.379,97l1.273,1.547
		L27.09,122.629l-0.106-2.524L55.379,97z M148.816,105.453l-1.063,1.133c-28.871-21.481-55.457,11.137-40.797,34.469
		c-0.134,0.301-1.151,1.047-1.151,1.047C89.464,115.012,120.73,83.316,148.816,105.453L148.816,105.453z M132.93,100.746
		c1.641,0.016,4.655,1.141,5.93,2.672c1.483,1.785,1.051,2.582-0.832,0.898c-2.027-1.472-3.699-1.812-0.887-0.074
		c0.621,0.383,1.18,1.129,1.207,1.211c0.104,0.301-0.414-0.012-2.773-0.871c-1.402-0.512-3.18-1.895-3.641-2.836
		C131.589,101.043,132.07,100.742,132.93,100.746L132.93,100.746z M126.852,100.797c0.512-0.004,0.969,0.035,1.293,0.129
		c2.063,0.594,2.715,0.902,3.483,1.504c0.526,0.406,0.354,0.703-0.254,0.441c-0.711-0.305-2.97-0.976-3.371-0.934
		c-0.586,0.059,0,0.442,0.845,0.653c1.866,0.469,2.793,0.949,1.461,0.969c-0.695,0.105-3.738,0.113-4.566,0.015
		c-1.383-0.164-3.453-1.426-2.977-1.875C123.281,101.211,125.32,100.809,126.852,100.797L126.852,100.797z M120.93,102.738
		c2.448,0.028,3.772,0.942,1.098,1.129c-4.603,0.727-5.484,1.727-0.387,0.535c1.188-0.277,1.164,0.153,0.344,0.555
		c-0.668,0.324-1.508,0.484-2.203,0.824c-1.258,0.524-4.141,0.637-5.266,0.211C112.859,105.363,118.066,102.703,120.93,102.738
		L120.93,102.738z M140.632,103.152c1.238,0.035,3.88,1.828,5.056,3.508c0.766,1.102,0.383,1.891-0.777,1.008
		c-0.23-0.176-1.898-1.594-1.992-1.625c-0.152-0.059,1.387,1.402,1.609,1.816c0.195,0.348,0.637,1.149-0.191,1.164
		c-1.297-0.16-4.344-3.562-4.363-5.246C139.968,103.328,140.223,103.145,140.632,103.152L140.632,103.152z M125.281,104.113
		c0.516-0.019,0.254,0.254-0.727,0.946c-1.767,1.242-0.845,0.992,1.219-0.071c0.629-0.32,1.383-0.574,1.651-0.625
		c0.267-0.047,0.582-0.121,0.703-0.156c0.556-0.172,0.125,0.512-0.776,1.238c-1.898,1.52-4.043,2.715-5.523,3.082
		c-1.887,0.469-2.289,0.528-1.59-0.652c1.109-1.871,2.723-3.367,4.266-3.656C124.848,104.152,125.109,104.117,125.281,104.113
		L125.281,104.113z M131.632,104.141c0.785-0.016,1.759,0.148,3.289,0.476c1.074,0.336,0.793,0.41-0.496,0.551
		c-2.426,0.266-1.418,0.547,0.941,0.508c3.219-0.028-1.613,1.16-3.181,1.394c-1.223,0.055-1.578,0.012-4.246-0.488
		c-1.016-0.191-0.405-0.934,1.521-1.855C130.246,104.352,130.848,104.156,131.632,104.141L131.632,104.141z M151.516,104.578
		l0.09,2.074l-38.957,32.571l-1.324-1.465L151.516,104.578z M138.262,106.359c1.555-0.019,3.797,1.059,3.559,1.707
		c-0.09,0.243-0.266,0.231-1.449-0.082c-0.781-0.207-2.172-0.425-1.988-0.254c0.063,0.059,1.152,0.473,1.566,0.575
		c1.371,0.328,3.016,1.105,2.652,1.336c-0.638,0.386-1.22,0.082-1.974,0.004c-1.883-0.262-4.978-1.215-5.483-1.688
		C134.566,107.418,136.589,106.383,138.262,106.359L138.262,106.359z M120.089,106.48c0.281,0.016,0.388,0.274,0.117,0.633
		c-0.406,0.535-0.595,0.985-0.957,1.641c-1.302,2.012-2.121,2.808-3.375,3.59c-1.25,0.777-1.431,0.644-1.319-0.977
		c0.141-1.687,1.348-3.457,3.051-4.289c0.785-0.109,1.237-0.316,0.41,0.672c-1.461,1.75-0.461,1.574,0.905-0.418
		C119.355,106.699,119.809,106.465,120.089,106.48L120.089,106.48z M115.031,106.715c0.844-0.004,1.129,0.297,0.047,0.801
		c-1.031,0.484-3.082,1.918-3.133,2.074c-0.082,0.269,0.684-0.153,1.957-0.848c1.703-0.93,1.854-0.906,1.031,0.156
		c-0.935,1.204-3.172,2.707-4.931,3.266c-2.461,0.672-2.401,0.203-1.026-1.625c1.313-1.984,2.426-2.93,4.102-3.473
		C113.813,106.828,114.523,106.719,115.031,106.715L115.031,106.715z M73.3,107.02c8.926,15.394,3.973,31.035-6.386,39.015
		c-10.828,8.34-27.672,7.844-37.614-2.168l1.379-1.303c-0.007,0.01,15.672,15.975,35.414,1.803
		c10.024-7.191,14.161-24.176,5.895-36.015L73.3,107.02z M33.312,107.051c-0.031,0-0.055,0.004-0.07,0.015
		c-0.301,0.196-1.434,3.52-1.66,4.903c-0.067,0.402,0.031,0.797,0.363,1.121c0.234,0.23,0.609,0.082,0.727,0.035
		c0.753-0.34,1.171-0.863,1.832-2.523c0.441-0.911,0.503-1.993,0.414-2.372c-0.036-0.156-0.278-0.511-0.586-0.718
		C33.992,107.289,33.515,107.051,33.312,107.051L33.312,107.051z M33.484,107.746c0.359-0.004,1.063,0.574,1.152,0.988
		c0.004,0.723-0.406,1.926-0.714,1.746c-0.516-0.64-1.11-0.238-1.207-0.468c-0.067-0.711,0.386-1.641,0.703-2.262
		C33.437,107.746,33.461,107.746,33.484,107.746L33.484,107.746z M129.902,108.32c3.969,0,7.918,1.164,10.815,3.731l-1.551,1.418
		c-6.797-4.844-14.711-3.426-19.397-0.157c-4.646,3.235-8.754,10.399-4.728,20.485l-1.453,1.316
		c-4.512-8.113-2.09-18.836,5.892-23.91c2.815-1.789,6.422-2.812,10.035-2.879C129.645,108.32,129.773,108.32,129.902,108.32
		L129.902,108.32z M71.199,109.504c0.121,0,0.305,0.394,0.285,0.879c-0.023,0.578-0.269,1.336-0.66,1.496
		c-0.445,0.183-0.727-1.137-0.727-1.137C70.371,110.312,70.742,109.871,71.199,109.504L71.199,109.504z M142.273,109.957
		c0.16-0.008,0.315,0,0.453,0.016c0.444,0.054,0.448,0.453,0.03,0.832c-0.448,0.414-0.688,0.433-1.141,0.101
		c-0.406-0.293-0.427-0.511-0.074-0.761C141.727,110.027,142.003,109.973,142.273,109.957L142.273,109.957z M66.031,110.047
		l1.316,1.625l-4.562,3.672l-0.547,0.039l-34.934,28.93l-0.007-2.569L66.031,110.047z M139.023,113.965l-4.758,3.926
		c-9.509-4.942-17.138,3.863-14.445,11.859l-4.113,3.574C108.348,113.125,129.871,106.215,139.023,113.965L139.023,113.965z
		 M114.113,110.883c0.012-0.004,0.027-0.004,0.039,0c0.031,0.004,0.065,0.027,0.094,0.058c0.168,0.164-0.164,2.84-0.41,3.34
		c-0.09,0.18-0.16,0.41-0.16,0.516c0.004,0.219-0.875,2.058-1.563,3.269c-0.258,0.457-0.535,1.059-0.613,1.336
		c-0.551,2.653-1.738-1.613-1.32-4.086c0.199-1.164,1.848-3.566,2.328-3.386c0.242,0.09,0.227,0.273-0.199,1.203
		c-1.195,2.594-1.492,3.929-0.242,1.422C113.512,111.664,113.887,110.922,114.113,110.883L114.113,110.883z M33.289,110.934
		c0.176,0.011,0.316,0.109,0.394,0.316c0.051,0.176,0.11,0.539,0.008,0.719c-0.242,0.547-0.746,0.91-1.258,0.875
		c-0.226-0.012-0.468-0.211-0.5-0.453c-0.027-0.219,0.028-0.59,0.305-0.875C32.601,111.145,32.992,110.918,33.289,110.934
		L33.289,110.934z M69.507,111.102c0.567,0.027,1.161,1.543,0.782,2.234c-0.309,0.566-0.367,0.461-0.91-0.633
		c-0.282-0.578-0.5-1.199-0.5-1.199l0.461-0.363c0.035-0.02,0.078-0.032,0.117-0.036C69.472,111.102,69.492,111.102,69.507,111.102
		L69.507,111.102z M68.558,111.742c0,0,0.594,1.07,0.739,1.93c0.089,0.519,0.074,0.422-0.5,0.207
		c-0.45-0.281-0.551-0.445-0.832-0.801c-0.184-0.324-0.372-0.566-0.372-0.566L68.558,111.742z M72.125,111.973
		c0.297-0.012,0.621,0.289,0.914,1.031c1.105,2.781,1.004,5.902-0.239,7.375c-0.207,0.246-0.253,0.254-0.503,0.101
		c-0.2-0.125-0.219-1.445-0.024-1.82c0.059-0.117,0.242-0.914,0.254-1.363c0.035-1.07-0.258-1.203-0.398-0.215
		c-0.164,1.145-0.34,1.945-0.653,1.258c-0.156-0.352-0.238-0.699-0.355-1.07C70.5,114.863,71.226,112,72.125,111.973L72.125,111.973
		z M67.308,112.684c0,0,1.063,1.371,1.5,1.863c0.157,0.265,0.149,0.336-0.097,0.43c-0.422,0.16-1.829-0.778-2.387-1.067
		c-0.301-0.242-0.172-0.426-0.172-0.426C66.539,113.195,66.922,112.91,67.308,112.684L67.308,112.684z M109.281,112.73
		c0.566-0.003,0.566,0.192-0.039,1.067c-3.387,4.867-2.703,4.144-0.551,1.48c1.199-1.48,1.406-1.621,1.539-1.289
		c0.098,0.246-1.328,3.129-2.063,4.172c-0.383,0.539-1.685,1.445-2.34,1.777c-1.609,0.813-1.431,0.489-0.836-1.535
		C105.75,115.27,107.656,112.75,109.281,112.73L109.281,112.73z M65.32,114.414c9.277,23.074-16.129,33.203-27.594,22.531
		l1.336-1.063c15.949,10.816,31.688-6.512,24.485-20.071C63.547,115.812,64.199,115.27,65.32,114.414L65.32,114.414z
		 M67.468,114.977c1.528,0.156,3.786,2.949,3.899,4.503c0.242,1.11-0.07,1.297-0.613,0.52c-0.914-1.688-0.805-0.617-0.028,1.059
		c0.414,0.851,0.512,1.867,0.082,1.921c-0.59-0.121-1.859-2.148-2.25-2.984c-0.926-1.832-0.992-1.519-1.5-4.234
		C66.961,115.254,67.093,114.98,67.468,114.977L67.468,114.977z M62.851,115.734c7.071,13.551-8.136,29.84-23.597,19.313l4.632-3.68
		c8.071,3.871,17.079-0.932,14.496-12.058L62.851,115.734z M133.363,118.258l-12.75,10.625
		C117.988,120.078,127.621,115.047,133.363,118.258L133.363,118.258z M109.68,118.238c0.418-0.086,0.77,2.578,0.848,6.324
		c0.078,3.661,0.172,4.02-0.969,2.67c-0.478-0.547-1.063-1.068-1.324-1.564c-0.754-1.426-0.517-2.926-0.305-5.016
		c0.194-1.953,0.891-1.648,0.776,0.399c-0.069,1.312-0.06,2.949,0.147,2.945c0.074,0,0.099-0.125,0.051-0.305
		c-0.102-0.375,0.353-4.613,0.535-5.113C109.523,118.363,109.602,118.254,109.68,118.238L109.68,118.238z M74.543,119.848
		c0.922,0.363,1.183,3.438,0.183,6.41c-0.429,1.273-1.086,2.109-2.07,2.625c-0.699,0.367-0.863,0.25-0.547-0.391
		c0.582-1.043,0.891-2.125,1.129-3.472c0.094-1.317-0.602-0.263-0.543,0.3c-0.543,2.451-1.258,2.824-1.164,0.238
		c0.066-1.904,0.316-2.72,1.215-4.029C73.195,120.875,73.679,119.973,74.543,119.848L74.543,119.848z M106.52,120.16
		c0.379,0.004,0.473,0.512,0.133,1.5c-0.234,0.688-1.035,2.91-0.941,2.902c0.059-0.003,0.918-2.003,1.094-2.328
		c0.289-0.535,0.396-0.636,0.648-0.613c0.246,0.988-0.008,2.219-0.129,3.241c-0.523,2.666-2.336,5.419-3.031,4.599
		c-1.133-1.336-0.602-6.738,0.898-8.383C105.757,120.461,106.227,120.156,106.52,120.16L106.52,120.16z M57.961,120.57
		c1.367,9.422-6.411,13.45-13.129,10.606C44.976,131.141,57.961,120.57,57.961,120.57L57.961,120.57z M89.753,120.742l1.354,1.778
		l2.48,0.128l-1.27,1.875l1.262,2.399l-2.77,0.055l-1.595,1.828l-1.382-1.652l-2.422-0.129l1.41-2.25l-1.137-2.151l2.613-0.125
		L89.753,120.742z M68.922,121.551c0.312,0.011,1.843,2.023,1.996,2.769c0.461,1.797,0.289,5.2-0.356,5.083
		c-0.703-2.448-0.43-3.715-0.683-3.434c-0.434,0.449,0.273,4.207,0.039,5.133c-0.11,0.238-0.489-0.047-0.911-0.651
		c-1.125-1.621-0.972-7.958-0.113-8.89C68.902,121.555,68.914,121.551,68.922,121.551L68.922,121.551z M151.82,125.371
		l-30.637,25.379l1.77,2.271l28.922-23.877L151.82,125.371z M107.574,125.809c0.133-0.026,0.438,0.188,1.012,0.816
		c1.004,1.354,2.066,3.215,2.453,4.645c0.148,0.556,0.383,1.293,0.527,1.642c0.215,0.516,0.229,0.66,0.104,0.815
		c-0.53,0.652-2.75-0.992-3.469-2.569c-1.004-2.216-1.031-4.212-0.021-2.267c0.367,0.707,0.82,1.734,0.816,1.328
		c0-0.117-0.445-1.602-0.789-2.266C108,127.539,107.23,125.879,107.574,125.809L107.574,125.809z M151.496,126.426l0.063,2.102
		l-28.531,23.859l-1.12-1.359C121.906,151.027,148.781,128.676,151.496,126.426L151.496,126.426z M106.949,127.723
		c0.133,0.017,0.203,0.207,0.16,0.633c-0.129,1.388-0.469,4.406-0.398,4.677c0.043,0.155,0.449-2,0.543-2.388
		c0.488-2,1.234,2.785,0.785,4.926c-0.07,0.341-0.215,0.884-0.289,1.216c-0.074,0.336-0.313,0.905-0.406,1.059
		c-0.809,1.271-2.711-3.793-2.391-6.37C105.152,129.867,106.468,127.676,106.949,127.723L106.949,127.723z M73.941,128.832
		c0.371-0.021,0.445,0.348,0.383,1.117c-0.219,2.641-1.973,5.408-3.895,6.148c-1.914,0.733-2.093,0.586-0.957-0.783
		c0.86-1.037,1.383-2.129,1.235-2.271c-0.078-0.078-0.27,0.359-0.969,1.254c-0.871,1.121-1.016,0.172-0.223-1.477
		c0.688-1.424,1.328-2.17,2.621-3.039C73.047,129.168,73.609,128.852,73.941,128.832L73.941,128.832z M91.289,129.637
		c-0.387,11.367-3.219,23.715-8.692,34.453l-5.113,0.012c6.262-9.223,10.258-20.637,11.367-34.418L91.289,129.637z M93.539,129.645
		c0,0,0.766,0.797,1.078,1.332c0.344,0.594,0.438,1.109-0.188,1.556c-0.724,0.612-1.027,0.383,0.155,1.905
		c0.625,0.802,0.422,0.935-0.353,1.609c-0.797,0.695-0.844,0.734-0.102,1.676c0.793,1.008,0.938,1.16-0.098,1.941
		c-0.934,0.699-0.945,0.863-0.219,2.004c0.672,1.051,0.875,1.039-0.41,2.125c-1.103,0.93-1.125,0.672-0.066,2.383
		c0.391,0.629,0.363,0.668-0.352,1.301c-1.754,1.556-1.664,1.457-1.414,1.867c1.926,2.758,1.055,2.68-0.828,3.996
		c-0.379,0.324-0.281,0.691,0.566,2.066c0.723,1.172,0.616,1.426-1.074,2.59c-1.762,1.211-1.82,1.375-0.938,2.607
		c0.867,1.221,0.888,1.139-0.523,2.396c-0.637,0.564-1.156,1.09-1.156,1.09h-3.125c0,0,0.66-0.602,1.109-0.938
		c2.567-1.896,2.555-1.695,1.473-3.063c-0.957-1.211-0.863-1.293,0.105-1.985c0.699-0.496,1.637-1.011,2.344-1.519
		c0.379-0.271,0.098-0.496-0.535-1.69c-0.707-1.341-0.746-1.188,0.574-2.271c1.441-1.19,1.465-1.146,0.684-2.651
		c-0.785-1.509-0.797-1.375,0.191-2.188c1.473-1.199,1.543-1.138,0.77-2.531c-0.617-1.108-0.625-1.078,0.418-2.121
		c1.055-1.051,0.926-0.985,0.301-1.948c-0.633-0.98-0.602-1.109,0.234-1.855c0.898-0.803,0.773-0.75,0.027-1.773
		c-0.734-1.008-0.724-0.934,0.168-1.715c0.473-0.41,0.944-0.828,0.918-1.02c-0.07-0.5-0.547-1.207-1.004-1.887
		c-0.176-0.259,0.176-0.336,0.733-0.918c0.57-0.591,0.543-0.441,0.113-1.228c-0.229-0.427-0.673-1.142-0.673-1.142L93.539,129.645z
		 M85.172,129.672l0.89,0.023c0,0,0.153,0.201,0.36,0.412c0.57,0.582,0.593,0.924,0.019,1.235c-0.551,0.302-0.336,0.722,0.121,1.398
		c0.488,0.715,0.485,0.633-0.215,1.34c-0.722,0.586-1.093,0.754-0.297,1.862c0.454,0.517,0.395,1.052-0.308,1.513
		c-0.539,0.354-1.438,0.647-0.492,2c0.461,0.965,0.5,0.901-0.465,1.586c-1.281,0.91-1.524,0.754-0.934,2.078
		c0.653,1.478,0.719,1.496-0.625,2.487c-1.562,1.148-1.617,1.242-0.965,2.617c0.657,1.387,0.672,1.035-0.98,2.324
		c-1.211,0.941-1.484,0.992-1.129,1.773c0.672,1.461,0.957,1.852-1,2.854c-2.266,1.16-2.379,1.246-1.293,2.974
		c0.887,1.401,0.688,1.201-0.769,2.043c-2.11,1.215-3.043,1.74-3.11,2.115c-0.043,0.432,1.649,1.696,1.649,1.696l-2.946,0.082
		c0,0-1.238-1.004-1.718-1.474c-1.333-1.297-1.344-0.87,3.082-3.02c2.441-1.188,2.238-0.918,1.839-1.609
		c-1.179-2.043-1.218-2.254,0.989-3.366c1.922-0.966,1.593-1.035,1.125-2.496c-0.407-1.272-0.34-1.156,0.672-1.91
		c2.445-1.813,2.378-1.625,1.996-2.517c-0.375-0.875-0.664-1.28-0.383-1.715c0.883-1.262,2.758-1.53,1.992-3.035
		c-0.359-0.973-0.484-1.19,0.594-2.03c0.972-0.81,0.98-0.711,0.355-1.781c-0.758-0.979-0.648-1.146,0.461-1.914
		c0.793-0.727,0.781-0.707,0.336-1.411c-0.613-0.976-0.582-1.007,0.293-1.771c0.711-0.625,0.836-0.656,0.383-1.35
		c-0.602-0.914-0.504-1.111,0.289-1.562c0.488-0.274,0.484-0.388,0.445-0.853C85.425,130.188,85.172,129.672,85.172,129.672
		L85.172,129.672z M96.214,129.727l4.099,0.013c1.309,7.598,3.594,10.715,4.914,13.12c-5.181,8.32-4.004,15.23-0.84,21.345
		l-12.98-0.052C94.734,152.77,96.449,141.314,96.214,129.727L96.214,129.727z M68.082,129.758c0.152-0.012,0.258,0.23,0.511,0.664
		c0.821,1.398,0.239,3.387-0.961,5.465c-0.898,1.555-1.062,0.367-0.652-1.875c0.262-1.41-0.453,0.707-0.789,2.41
		c-0.184,0.926-0.629,1.672-1.109,1.629c-0.453-0.074-0.313-1.371-0.301-1.656c0.105-2.043,0.867-3.492,2.344-5.52
		C67.683,130.107,67.91,129.77,68.082,129.758L68.082,129.758z M109.917,133.754c0.194-0.012,0.47,0.07,0.806,0.262
		c0.258,0.152,0.729,0.435,1.055,0.613c1.137,0.625,1.227,0.816,0.688,1.445c-0.668,0.779-1.094,0.484-2.25-0.813
		C109.434,134.387,109.421,133.771,109.917,133.754L109.917,133.754z M109.539,135.461c0.184,0.008,0.563,0.203,0.934,0.625
		c0.746,0.859,0.656,1.582-0.172,1.375c-0.34-0.496-0.512-1.25-0.836-1.805C109.391,135.525,109.43,135.461,109.539,135.461
		L109.539,135.461z M146.148,135.57c-0.728,0.004-1.941,0.961-2.172,1.934c-0.707,2.977-0.707,2.848-0.074,3.277
		c0.188,0.129,0.324,0.223,0.418,0.277c0.371,0.293,0.875,0.746,0.94,0.655c0.603,0.004,1.521-3.805,1.488-4.59
		c0.035-0.832,0.065-0.931-0.142-1.31C146.516,135.646,146.352,135.57,146.148,135.57L146.148,135.57z M108.984,135.637
		c0.047-0.008,0.108,0.016,0.18,0.074c0.477,0.473,0.668,1.32,0.91,1.926c0,0.133-0.055,0.348-0.121,0.478
		c-0.41,0.788-1.051,0.026-1.117-1.337C108.8,136.016,108.839,135.664,108.984,135.637L108.984,135.637z M146.035,136.223
		c0.031,0,0.063,0,0.09,0c0.488,0.023,0.41,0.527-0.266,1.258c-0.355,0.384-1.09,0.566-1.332,0.328
		c-0.353-0.344,0.375-1.293,1.168-1.52C145.828,136.25,145.938,136.229,146.035,136.223L146.035,136.223z M63.718,136.641
		c0.028,0,0.055-0.004,0.082,0c0.254,0.017,0.465,0.129,0.633,0.324c0.324,0.402,0.188,1.023,0.035,1.539
		c-0.386,1.359-2.929,3.992-3.843,4c-0.543-0.094,1.73-2.984,1.8-3.469c-0.168-0.168-1.578,1.461-2.242,2.59
		c-0.297,0.512-0.636,1.145-0.82,1.254c-0.473,0.055-1.02,0.354-1.023,0.039c0.078-1.445,2.902-4.59,3.867-5.465
		C62.797,136.895,63.308,136.646,63.718,136.641L63.718,136.641z M70.535,136.777c2.183-0.027-2.117,4.748-4.899,5.44
		c-0.863,0.211-2.461,0.271-2.574,0.091c-0.117-0.181,0.012-0.33,0.371-0.423c0.574-0.147,3.414-1.957,3.41-2.172
		c0-0.266-1.175,0.177-2.179,0.824c-0.649,0.422-0.953,0.336-0.602-0.172C65.695,138.02,67.882,136.805,70.535,136.777
		L70.535,136.777z M108.324,136.781c0.125,0.012,0.25,0.258,0.328,0.809c0.395,1.023,0.414,1.301,0.039,1.605
		c-0.642,0.512-0.797,0.369-0.789-0.816C107.906,137.4,108.121,136.766,108.324,136.781L108.324,136.781z M36.402,138.141
		c0,0,0.797,0.301,0.465,0.68c-0.231,0.263-1.211,0.039-1.211-0.038L36.402,138.141z M146.082,138.172
		c0.262-0.016,0.266,0.223,0.129,0.828c-0.07,0.32-0.387,1.992-0.941,2.457c-0.065,0.043-0.875-0.438-1.094-0.66
		c-0.102-0.102-0.414-0.336-0.457-0.492c-0.137-0.504,0.008-1.16,0.396-1.488c0.147-0.129,0.448-0.198,0.612-0.202
		c0.125,0,0.5-0.125,0.836-0.271C145.792,138.238,145.964,138.18,146.082,138.172L146.082,138.172z M36.683,139.324
		c0.524-0.004,1.168,0.055,1.715,0.236c1.609,0.471,4.563,1.793,5.016,2.229c0.66,0.633-1.067,1.305-3.141,1.328
		c-1.101,0.012-1.308-0.215-2.832-1.129c-0.195-0.131-1.082-0.711-0.824-0.924c0.281-0.289,1.133,0.082,2.191,0.621
		c0.348,0.178,1.188,0.125,1.184-0.029c0-0.184-2.113-0.971-3.699-1.473c-1.039-0.33-1.016-0.664-0.379-0.806
		C36.097,139.352,36.367,139.328,36.683,139.324L36.683,139.324z M34.601,140.047c0,0,0.438,0.391,1.008,0.816
		c0.617,0.461,1.332,1.031,1.828,1.787c0.723,0.881,1.863,3.067,1.735,3.463c-0.29,0.908-3.336-0.685-5.825-3.174
		c-0.808-0.812-1.281-1.414-1.281-1.414l0.949-0.857c0,0,0.836,0.699,1.797,1.551c1.809,1.594,1.797,1.047-0.023-0.633
		c-0.512-0.479-0.985-0.902-0.985-0.902C33.828,140.379,34.113,140.107,34.601,140.047L34.601,140.047z M108.945,140.125
		c0,0,0.973,1.008,1.332,1.473c-5.922,5.789-8.185,13.875-2.465,22.492l-2.746-0.012C99.93,153.965,102.367,146.352,108.945,140.125
		L108.945,140.125z M58.855,140.363c0.371-0.016,0.035,0.418-0.617,1.527c-1.223,2.077-1.465,2.602-3.445,3.116
		c-0.512,0.134-1.239,0.027-1.536,0.066c-0.851,0.104-0.472,0,0.833-0.849c1.808-1.172,0.273-0.57-1.403,0.293
		c-0.969,0.496-1.984,0.474-2.07,0.215c-0.051-0.145,0.39-0.52,0.676-0.772c2.547-2.276,3.328-2.18,5.699-3.004
		C58.027,140.598,58.605,140.375,58.855,140.363L58.855,140.363z M48.207,142.439c0.925,0.006,1.785,0.1,2.547,0.268
		c0.507,0.117,1.332,0.219,0.636,0.848c-0.785,0.738-2.914,1.75-4.488,1.816c-0.219,0.012-3.461-0.219-2.77-0.914
		c0.141-0.078,0.579-0.061,0.958-0.129c1.796-0.34,1.308-0.629-0.899-0.514c-2.769,0.149-2.894-0.135-0.801-0.711
		c1.535-0.418,3.039-0.631,4.422-0.658C47.945,142.439,48.078,142.438,48.207,142.439L48.207,142.439z M62.996,142.65
		c1.234-0.01,2.191,0.207,2.195,0.678c0.008,0.762-2.324,2.434-3.855,2.766c-0.36,0.074-0.875,0.188-1.141,0.246
		c-0.531,0.121-3.492,0.02-3.777-0.086c-1.387-0.504-0.422-0.699,2.117-0.996c1.105-0.125,1.633-0.418,1.633-0.625
		c-0.004-0.105-0.817-0.133-2.032,0.02c-1.351,0.173-1.086-0.227,0.598-1.098C59.851,142.977,61.601,142.664,62.996,142.65
		L62.996,142.65z M40.199,143.707c0.172,0.004,0.586,0.146,1.277,0.438c1.477,0.431,3.5,0.914,4.891,2.431
		c1.121,1.082,1.39,1.434,1.156,1.815c-0.285,0.461-3.762,0.109-5.226-0.516c-0.965-0.414-2.118-1.301-2.645-2.066
		c-1.273-1.858-0.738-2.348,0.883-1.047c1.953,1.563,2.242,1.723,2.59,1.652c0.136-0.027-0.207-0.354-0.86-0.836
		C40.621,144.354,39.82,143.699,40.199,143.707L40.199,143.707z M52.226,145.703c1.637,0,1.989,0.125,3.578,0.852
		c1.985,0.699,1.504,1.32-2.023,2.199c-1.766,0.418-3.543,0.125-4.832-0.668c-2.84-1.75-2.652-2.098,0.519-1.316
		c1.043,0.258,2.082,0.306,2.145,0.109c0.051-0.148-1.211-0.469-2.234-0.809c-1.11-0.367-0.157-0.338,2.062-0.359
		C51.734,145.707,51.992,145.703,52.226,145.703L52.226,145.703z M134,153.258c0,0-0.363,0.172-0.523,0.258
		c-0.129,0.07-1.108,0.191-2.184,0.273c-2.121,0.156-3.547,0.496-4.832,1.012c-1.941,0.781-3.238,3.188-3.238,3.188
		c1.453-0.099,9.664,1.387,11.941-1.57c0.477-0.621-1.227,4.672-2.098,4.91c-2.164-0.263-3.074,3.133-2.859,2.991
		c-2.184,0.845-3.875,1.341-3.32,3.875c0.242,1.105,1.363,2.419,3.734,2.087c-0.645,4.395,4.73,5.53,5.32,0.233
		c0,0,1.051-0.199,1.453-0.246c2.453-0.582,3.047-4.164-0.552-5.301c-1-0.293-1.055-0.479-1.055-0.479
		c0.185-0.81,0.142-1.656-0.445-2.599c0.798-1.891,2.771-5.539,2.771-5.539L134,153.258z M134.378,154.348
		c0.492,0.66-2.086,1.754-4.832,1.992c-0.616,0.051-1.969,0.176-2.004,0.238c-0.297,0.516,5.31,0.141,7.056-0.836
		c0.598-0.336,0.651-0.043,0.395,0.477c-2.027,2.605-6.922,1.965-10.75,1.504c-0.219-0.219-0.031-0.488,0.824-1.184
		c1.574-1.273,2.707-1.703,5.188-1.957C130.949,154.563,134.066,153.973,134.378,154.348L134.378,154.348z M137.41,157.047
		c-0.352,1.121-2.195,4.543-2.195,4.543c-0.227,0.227-1.031,0.387-0.973-0.48c0.012-0.93,1.754-4.762,2.223-4.836
		C137.023,156.229,137.438,156.645,137.41,157.047L137.41,157.047z M138.578,157.309c0.539,3.926,3.52,4.859,6.383,6.099
		c0.75,0.348,1.391,0.961,2.145,1.354c1.414-1.926-0.18-5.672-2.668-6.891c-1.848-0.863-3.535-1.551-4.574-1.475
		C139.257,156.445,138.585,156.832,138.578,157.309L138.578,157.309z M140.109,157.074c0.32-0.004,0.776,0.09,2.445,0.529
		c2.522,0.674,4.301,2.532,4.766,4.981c0.02,0.101,0.147,2-0.285,1.931c-0.656-0.188-1.012-0.849-2.066-1.289
		c-1.313-0.552-3.156-1.273-4.289-2.302c-0.914-0.832-1.414-1.727-1.522-2.491c-0.113-0.793,0.151-0.875,0.819-0.234
		c1.496,1.191,2.969,1.598,4.449,2.75c0.41,0.316,1.887,1.137,0.879,0.115c-0.684-0.687-2.69-1.89-3.758-2.4
		C140.063,157.949,139.257,157.082,140.109,157.074L140.109,157.074z M26.55,160.992l16.903,26.426
		c-4.16,2.195-6.211,3.156-13.121,2.613l0.027,0.348l-2.934-0.168c5.071,7.914,11.325,18.238,9.551,36.25l20.59-0.023
		c0,0,0.32,0.306,0.352,0.328c0.3,0.203,0.754-0.358,0.754-0.358l9.289-0.048l0.25,0.298l4.332-0.027
		c0,0-19.805-37.059-29.75-55.457C38.707,163.793,34.453,160.512,26.55,160.992L26.55,160.992z M133.137,161.867
		c1.108-0.027,2.215,0.734,2.223,2.219c0.004,0.77-0.648,1.848-0.648,1.848l-1.508-1.438l-1.441,1.439
		c-0.711-0.584-1.129-1.703-0.897-2.338C131.309,162.512,132.273,161.891,133.137,161.867L133.137,161.867z M115.656,162.395
		c1.43,5.574,2.977,13.263-9.43,31.027c-7.34,10.508-9.738,20.422-10.031,32.52l-0.742,0.004c0.352-6.637,0.398-18.676,0.398-18.676
		l0.69-0.617c0,0-0.315-0.512-0.453-1.112c-0.233-1.013-0.039-0.676,0.565-3.396C99.191,189.012,115.656,162.395,115.656,162.395
		L115.656,162.395z M49.414,164.953l62.871,0.285l-0.836,1.652l-60.84-0.438L49.414,164.953z M133.218,165.43l2.332,2.273
		l-2.28,2.563l-2.402-2.516L133.218,165.43z M131.3,166.395l-1.272,1.355l1.104,1.16c-1.137,2.387-4.159,0.523-4.059-1.264
		C127.191,165.563,129.632,164.703,131.3,166.395L131.3,166.395z M135.335,169.086l1.017-1.289l-1.146-1.258
		c1.875-1.854,3.651-0.219,3.823,1.328C139.21,169.516,136.641,171.375,135.335,169.086L135.335,169.086z M60.875,167.508
		l5.148,0.051l-1.914,3.582l-5.223-0.02L60.875,167.508z M72.347,167.535h4.731l-2,3.633h-4.785L72.347,167.535z M83.519,167.535
		h5.016l-2.035,3.633h-5.157L83.519,167.535z M94.75,167.535h5.133l-1.867,3.633h-5.328L94.75,167.535z M106.188,167.535h4.949
		l-2.005,3.633h-5.094L106.188,167.535z M51.531,167.555h3.324l-1.355,2.391L51.531,167.555z M134.468,169.848
		c1.902,1.527,0.582,4.039-1.401,4.082c-1.367,0.031-3.349-2.277-1.203-4.164l1.43,1.31L134.468,169.848z M64.504,171.777h4.836
		l-1.821,3.27h-4.738L64.504,171.777z M75.254,171.805h5.304l-1.871,3.271H73.64L75.254,171.805z M86.613,171.805h5.278l-1.72,3.271
		H84.84L86.613,171.805z M97.93,171.805h5.237l-1.629,3.271H96L97.93,171.805z M54.738,171.93h3.34l-1.422,2.617L54.738,171.93z
		 M57.257,175.723l49.005,0.435l-0.832,1.59l-46.93,0.007L57.257,175.723z M58.976,178.564l45.926,0.115l-1.06,2.198l-15.863-0.069
		c-3.098-2.313-6.637-1.248-10.672,0.069c0,0-12.148,0.125-16.922,0L58.976,178.564z M123.425,184.18
		c2.548,3.258,4.375,7.801,5.113,11.383c0.733,3.664-0.063,5.461-0.996,2.254c-1.556-8.02-11.063-9.19-15.306-2.979
		c-5.895,8.629,4.431,19.101,11.832,12.09c0.634-0.602,0.984-0.745,1.195-0.491c0.25,0.289,0.078,0.549-1.238,1.877
		c-5.145,5.182-3.233,12.639,3.73,14.373c9.883,2.461,15.855-9.619,7.219-15.32c-0.897-0.684-0.992-0.855-0.664-1.227
		c0.289-0.328,0.543-0.294,1.344,0.434c7.402,6.695,17.517-2.055,12.832-11.105c-3.608-6.969-13.647-5.691-16.051,2.055
		c-0.449,1.445-0.479,1.527-0.729,1.688c-1.026,0.039-0.306-3.362-0.147-4.262c1.164-3.978,2.453-7.695,4.914-10.767h-13.048V184.18
		z M43.707,187.883l24.218,38.23l-5.351-0.063l-23-35.961L43.707,187.883z M162.671,190.113c0.16,0.119,2.418,6.326,1.978,6.897
		c-0.137,0.449-0.517,0.294-0.664-0.27c-1.406-5.359-8.043-4.457-7.98,1.086c0.039,3.434,3.563,4.918,6.629,2.784
		c0.453-0.315,0.664-0.319,0.664-0.02c0.004,0.094-0.352,0.563-0.785,1.047c-2.465,2.742-1.535,6.535,1.789,7.313
		c4.469,1.047,6.633-3.984,3.273-7.603c-0.488-0.526-0.887-1.008-0.891-1.074c0-0.272,0.375-0.227,0.813,0.099
		c3.098,2.301,6.875,0.75,6.832-2.81c-0.055-4.69-5.891-5.93-7.496-1.586c-0.398,1.078-0.594,1.367-0.797,1.172
		c-0.785-0.414,2.102-7.104,2.18-7.104L162.671,190.113z M38.851,190.371l22.867,35.732c-1.05-0.025-2.023,0.041-3.074,0.024
		c0.426-6.676-4.945-9.805-8.101-9.961c1.894-7.806-3.797-11.09-7.59-11.707c1.539-10.146-6.86-11.582-6.981-11.481
		c0.043-0.832-0.113-1.433-0.226-2.125L38.851,190.371z M35.144,190.938c-0.047,0.215,0.434,2.238-0.472,1.863l-0.063-1.859
		L35.144,190.938z M30.332,190.992c0.328,1.344,1.015,1.609,1.957,2.512c0,0-1.203,0.203-1.481,0.008
		c-0.496-0.344-1.539-2.531-1.539-2.531L30.332,190.992z M33.91,193.266c0.578,0,1.047,0.469,1.047,1.051
		c0,0.578-0.469,1.048-1.047,1.048c-0.582,0-1.051-0.47-1.051-1.048C32.859,193.732,33.328,193.266,33.91,193.266L33.91,193.266z
		 M35.988,194.07c3.008-0.195,7.367,3.031,6.219,9.065c-0.2-0.422-0.438-1.348-0.926-2.008c-2.074-2.797-4.516,1.035-2.871,2.601
		c0.808,0.768,1.187,1.067,1.097,1.139c-1.851-0.352-3.257,1.289-2.484,3.111c1.285,2.36,3.07,1.11,4.106-0.289
		c0,0,0.636,2.11,1.269,2.381c0.969,0.408,2.305-0.109,2.762-1.281c0.676-1.742-0.969-2.188-1.332-3.16
		c3.48,0.113,7.914,5.199,5.894,9.609c0.266-1.006-0.812-3.26-2.906-2.678c-1.047,0.368-1.41,1.893-0.566,3.459
		c0.269,0.502,0.414,0.69,0.414,0.69s-0.907,0.117-1.145,0.267c-2.715,1.67,0.789,6.237,2.809,3.387
		c0.207-0.342,0.547-0.73,0.547-0.73c0.332,0.637,0.433,1.531,1.043,1.84c2.507,1.262,3.621-1.402,2.57-2.707
		c-0.594-0.733-1.262-1.582-1.262-1.582c-0.105-0.469,7.508,1.527,6.578,8.931l-20.175-0.027
		c1.871-11.371-2.657-24.383-4.969-28.348l1-1.324c0.254,0.492,0.668,1.729,1.406,1.965c2.34,0.754,3.055-0.883,2.738-2.563
		C37.64,194.922,36.386,194.199,35.988,194.07L35.988,194.07z M41.328,204.771c0.551,0,0.996,0.451,0.996,1
		c0,0.553-0.445,0.998-0.996,0.998c-0.551,0-0.996-0.445-0.996-0.998C40.332,205.223,40.777,204.771,41.328,204.771L41.328,204.771z
		 M161.18,213.979c-1.341-1.252-2.824-1.218-4.168-1.068l-0.07,2.816c0,0,3.32-0.166,2.879,1.559
		c-0.117,0.336-0.277,1.469-0.277,1.469l-0.043,14.457c0.539,6.354,8.719,7.625,10.738,1.598c0.387-1.031,0.324-1.965,0.324-3.09
		v-7.621l2.324-0.047l-0.091-2.707l-2.129,0.031c0.156-3.811-0.504-7.475-3.176-8.344
		C164.55,212.145,162.707,212.895,161.18,213.979L161.18,213.979z M168.121,220.482c-1.352,0.246-3.242-2.303-4.797-4.131
		c0.711-1.373,2.879-1.125,3.688-0.281C168.184,217.289,168.102,219.543,168.121,220.482L168.121,220.482z M48.902,216.621
		c0.555,0,1.004,0.453,1.004,1.008s-0.449,1.008-1.004,1.008c-0.559,0-1.008-0.453-1.008-1.008S48.343,216.621,48.902,216.621
		L48.902,216.621z M162.23,219.055c1.426,2.785,5.813,4.926,5.875,4.5l0.026,7.664c0.224,3.074-0.858,4.57-2.805,4.771
		c-3.414,0.038-3.375-4.203-3.375-6.563l-0.048-7.57C161.93,220.945,161.82,219.809,162.23,219.055L162.23,219.055z"/>
</g>
</svg>
