<?xml version="1.0" encoding="utf-8"?>
<!-- Generator: Adobe Illustrator 15.0.0, SVG Export Plug-In . SVG Version: 6.00 Build 0)  -->
<!DOCTYPE svg PUBLIC "-//W3C//DTD SVG 1.1//EN" "http://www.w3.org/Graphics/SVG/1.1/DTD/svg11.dtd">
<svg version="1.1" id="Layer_1" xmlns="http://www.w3.org/2000/svg" xmlns:xlink="http://www.w3.org/1999/xlink" x="0px" y="0px"
	 width="178.582px" height="249.449px" viewBox="0 0 178.582 249.449" enable-background="new 0 0 178.582 249.449"
	 xml:space="preserve">
<g>
	<path fill="#FFFFFF" d="M8.504,0"/>
	<path fill="#E2CF00" d="M128.605,24.008L64.183,24.32l8.18,15.496c16.742-1.504,31.418-0.164,46.704,0.332L128.605,24.008z
		 M84.605,78.496c-0.066,0.09-2.68,0.766-2.414,1.359c6.824,14.602,9.872,26.485,12.719,41.497c1.441-1.168,3.77-1.122,3.77-1.122
		c-1.147-5.574,5.879-6.269,5.926-0.437c1.349,0.312,2.734,0.316,3.953,1.68c0.578-16.442,6.59-33.754,13.918-45.145
		c-8.664,3.43-21.254,11.984-21.254,11.984S90.645,83.945,84.605,78.496L84.605,78.496z M137.262,80.242
		c-11.527,10.945-16.039,41.32-15.216,41.738c-14.858-0.496-19.362,15.883-6.479,24.715c-0.512,1.715-1.771,3.108-2.742,4.619
		c1.328,0.764,2.777,0.924,4.227,1.082c1.102,1.307,2.18,2.811,3.375,2.932c1.297-0.816,2.219-2.008,3.297-3.043
		c1.348-0.346,2.685-0.725,3.961-1.307c-1.133-1.578-2.473-3.175-2.508-4.65c11.199-7.895,9.664-18.629-0.434-24.125
		c3.008-18.078,7.395-29.625,12.488-37.836L137.262,80.242z M57.859,94.211c-1.465,0.715-2.266,2.223-3.328,3.406
		c-1.457,0.067-2.863,0.563-4.254,1.184c0,0,3.34,4.613,3.133,4.859c-10.832,7.094-10.742,17.461-0.34,24.29
		c1.762,14.758-10.781,38.104-11.414,37.43l-0.024,4.824c8.727-9.652,13.668-27.188,14.532-41.59
		c17.828-1.185,18.457-18.402,6.187-24.875c-0.945-0.867,3.086-4.867,3.086-4.867c-1.023-1.008-2.734-1.121-4.234-1.246
		C60.257,96.496,59.433,95.371,57.859,94.211L57.859,94.211z M133.25,106.125c2.52,5.602,11.727-1.227,13.324,1.758
		c1.297,1.691,4.121,1.863,3.969-0.985c-0.531-2.824-2.387-3.449-9.762-2.218c-2.797,0.465-3.941,0.742-3.926-0.532
		C134.921,101.812,133.262,104.988,133.25,106.125L133.25,106.125z M141.8,114.301c-2.065,0-2.418,8.078-2.387,10.504
		c-5.983,9.449,12.276,8.375,4.379-1.918c0.272-1.344-1.008-3.539-0.974-4.508C142.175,118.297,141.891,114.648,141.8,114.301
		L141.8,114.301z M36.527,119.16c-3.238,0.082-6.801,3.055-1.609,7.328c0.347,0.115-0.172,1.02,0.004,2.406
		c1.464,3.155,1.07,7.832,2.16,7.112c1.258-0.832,2.308-4.317,2.039-9.188c-0.02-0.319-0.442-0.659-0.364-1.004
		C41.672,121.008,39.211,119.09,36.527,119.16L36.527,119.16z M69.664,128.211c-0.832,15.781-4.699,31.262-13.461,44.688
		c7.543-3.512,14.863-8.047,21.945-11.93l16.559,10.242c0.957-0.414,1.621-0.621,2.258-1.246
		c-7.629-11.156-9.993-27.211-13.316-41.734c-1.266,0.896-3.644,1.349-3.644,1.349c-0.168,5.035-5.454,6.668-6.536,0.098
		L69.664,128.211z M29.707,140.521c-1.766,0.11-3.094,4.481,1.906,5.129c3.531,0.502,8.051-1.236,10.293-0.433
		c2.609,4.156,4.949-1.965,1.465-2.961c-3.742-1.073-11.367,1.722-12.207-0.653C30.73,140.793,30.199,140.492,29.707,140.521
		L29.707,140.521z M59.734,208.871l-9.988,17.637l63.855-0.383l-8.349-16.824C105.395,209.117,77.363,212.633,59.734,208.871
		L59.734,208.871z"/>
	<path fill="#D40000" d="M73.59,41.328l1.039,2.473c13.714-1.656,28.066-3.375,42.43,0.277c0,0,1.055-2.289,1.039-2.453
		C104.71,38.223,74.777,39.105,73.59,41.328L73.59,41.328z M87.468,76.074l13.056,8.442c0,0,6.25-4.414,8.914-6.286l-1.617-2.375
		c-5.521,12.168-15.223,2.547-18.863-3.179C88.957,72.676,87.968,74.895,87.468,76.074L87.468,76.074z M122.527,80.16
		c0.902-0.02,1.406,0.328,1.859,1.25c0.512,1.039,0.711,0.781,0.379-0.515c-0.521-2.043,1.651-3.372,3.694-2.008
		c1.478,0.984,1.414,3.371-0.198,3.812c-1.306,0.356-1.341,0.696-0.195,0.641c2.055-0.098,2.602,2.64,1.141,3.98
		c-1.68,1.543-3.824,0.45-4.02-1.484c-0.09-0.547-0.203-0.539-0.388-0.227c-0.516,0.891-0.565,2.051-0.465,3.098l-3.035-1.883
		c1.082-0.535,1.738-0.855,2.521-1.668c0.104-0.105,0.18-0.183,0.18-0.23c0-0.082-0.34,0.027-0.957,0.094
		c-1.832,0.191-3.246-0.997-2.867-2.723C120.496,80.828,121.253,80.187,122.527,80.16L122.527,80.16z M109.145,127.781
		c3.301-3.777,7.397-6.199,13.098-5.863c0.723-15.82,6.211-29.891,15-42.566l-9.668-5.813l-3.879,2.34
		C114.367,89.109,108.637,105.895,109.145,127.781L109.145,127.781z M36.675,90.809c0,0-6.543,4.898-9.585,7.265l0.148,43.633
		l0.844,0.289c0.062,0.094-0.075-0.648,0.316-0.988c0.317-0.273,0.817-0.59,1.117-0.695c0.84-0.309,0.879-0.867,0.094-1.354
		c-0.609-0.375-0.844-0.957-0.773-1.922c0.05-0.685,0.019-0.832-0.262-1.293c-0.356-0.578-0.383-1.306-0.086-2.06
		c0.141-0.352,0.129-0.444-0.121-0.918c-0.317-0.604-0.356-1.254-0.117-1.953c0.09-0.27,0.152-0.852,0.144-1.305
		c-0.031-1.738,1.403-2.891,4.055-3.254c1.035-0.141,1.066-0.184,0.59-1.051c-2.684-4.902,3.347-7.457,3.797-6.672L36.675,90.809z
		 M119.246,93.242c2.449-0.035,4.465,1.918,4.5,4.367c0.035,2.45-1.922,4.461-4.371,4.496c-2.449,0.04-4.461-1.918-4.5-4.367
		C114.839,95.289,116.796,93.277,119.246,93.242L119.246,93.242z M119.289,94.031c-1.961,0.031-3.527,1.641-3.496,3.602
		c0.027,1.961,1.637,3.531,3.598,3.5c1.961-0.028,3.531-1.641,3.504-3.602C122.863,95.57,121.25,94.004,119.289,94.031
		L119.289,94.031z M119.378,95.16c1.332-0.02,2.427,1.039,2.445,2.371c0.02,1.328-1.044,2.426-2.375,2.446
		c-1.328,0.019-2.423-1.047-2.441-2.375C116.992,96.27,118.05,95.18,119.378,95.16L119.378,95.16z M31.347,96.98
		c0.18-0.003,0.371,0.024,0.567,0.086c1.105,0.352,1.492,1.325,0.894,2.246c-0.472,0.727-0.418,0.79,0.407,0.481
		c0.648-0.238,0.976-0.164,1.488,0.34c1.531,1.515-0.75,4.062-2.246,2.519c-0.742-0.761-0.813-0.539-0.297,0.774
		c0.164,0.426,0.441,1.086,0.441,1.086l-2.199-0.032c0,0,0.344-0.875,0.5-1.289c0.379-0.996,0.395-1.14-0.398-0.515
		c-1.789,1.414-3.813-1-2.168-2.582c0.332-0.321,0.871-0.336,1.617-0.043c0.543,0.215,0.609,0.066,0.199-0.446
		C29.265,98.488,30.086,97.004,31.347,96.98L31.347,96.98z M76.863,100.891c-0.895,5.847-0.113,14.05-0.133,18.437
		c2.379,0.453,2.406,2.074,2.774,4.09c1.156-0.402,3.687,1.31,4.035,1.156C83.8,118.641,80.715,101.422,76.863,100.891
		L76.863,100.891z M116.371,106.75c3.379,0.27,2.73,2.883,1.727,3.953c-0.477,0.551-0.391,0.797,0.133,0.481
		c1.431-0.86,2.563-0.239,3.023,1.246c0.785,2.539-2.551,4.726-4.039,2.449c-0.504-0.774-0.813-0.598-0.691,0.211
		c0.078,0.777,0.836,2.39,0.836,2.39l-3.315-0.296c0,0,1.017-1.688,1.19-2.141c0.371-0.941,0.177-1.195-0.53-0.434
		c-2.074,1.899-4.949-0.531-3.608-3.05c0.659-1.239,1.875-1.641,3.19-0.653c0.887,0.578,1.077,0.328,0.284-0.375
		C113.089,109.223,114.378,106.59,116.371,106.75L116.371,106.75z M31.507,108.824c0.04-0.004,0.075-0.004,0.114-0.004
		c0.285,0.008,0.582,0.086,0.879,0.25c0.824,0.465,1.05,1.379,0.535,2.176c-0.297,0.457-0.211,0.746,0.133,0.445
		c0.464-0.398,1.484-0.132,1.882,0.489c1.024,1.601-0.976,3.699-2.25,2.367c-0.566-0.59-0.781-0.613-0.714-0.227
		c0.183,0.723,0.66,1.961,0.66,1.961l-2.297,0.043c0,0,0.496-1.304,0.605-1.965c0.086-0.523-0.121-0.445-0.672,0.172
		c-0.531,0.602-1.015,0.664-1.691,0.215c-1.676-1.109-0.336-3.961,1.41-3.004c0.602,0.332,0.688,0.141,0.219-0.48
		C29.48,110.152,30.336,108.879,31.507,108.824L31.507,108.824z M150.757,107.805c-3.715,3.843-2.551,1.57-0.827,4.5
		c0.008,1.929,1.137,3.441,0.241,6.488c-0.284,0.598-0.313,0.879-0.155,1.477c-0.271,3.367-2.97,3.324-5.591,3.847
		c0.435-0.027,4.152,6.844-2.784,7.383l0.077,27.934l10.884-8.02l-0.047-43.609H150.757z M69.101,122.555
		c-3.086,1.988-7.418,6.957-12.871,5.878c-0.656,17.431-6.379,30.922-14.539,42.521c2.816,1.664,5.918,3.664,8.801,4.944
		c2.433-1.254,3.805-1.776,6.195-3.746C66.496,157,69.605,140.434,69.101,122.555L69.101,122.555z M94.718,125.742
		c0.552,8.953,2.009,17.43,6.664,24.23l0.313-19.023c-1.656-0.398-3.021-1.471-3.5-4.514L94.718,125.742z M61.062,131.021
		l3.113,0.076c0,0-0.707,1.405-1.011,2.19c-0.371,0.961-0.196,1.155,0.511,0.487c0.926-0.866,2.399-0.948,3.172-0.172
		c2.055,2.06-0.093,5.418-2.527,3.945c-1.039-0.633-1.215-0.422-0.391,0.473c1.61,1.492-0.07,3.638-1.949,3.648
		c-1.355-0.008-2.238-1.094-2.344-2.289c-0.05-0.75,0.325-1.508,0.981-1.875c0.68-0.383,0.191-0.629-0.547-0.23
		c-2.418,1.298-4.031-2.039-2.211-3.938c1.051-1.098,2.164-0.996,3.231,0.051c0.746,0.73,1.015,0.664,0.804-0.199
		C61.683,132.219,61.062,131.021,61.062,131.021L61.062,131.021z M145.059,133.645h2.229c-0.224,0.556-0.504,1.117-0.685,1.66
		c-0.19,0.594-0.051,0.672,0.539,0.098c1.539-1.03,3.176,0,2.844,1.634c-0.229,1.129-1.172,1.68-2.266,1.19
		c-0.961-0.434-0.652-0.246-0.104,0.41c0.651,0.785,0.483,1.695-0.375,2.301c-1.521,1.07-3.531-0.707-2.523-2.258
		c0.595-0.922,0.32-0.82-0.219-0.375c-0.813,0.594-2.039-0.246-2.063-1.41c-0.094-1.676,1.599-2.621,2.789-1.434
		c0.57,0.477,0.711,0.418,0.453-0.277C145.445,134.68,145.371,134.141,145.059,133.645L145.059,133.645z M145.175,145.824
		l2.341-0.023c0,0-0.035,0.176-0.396,0.852c-0.422,0.798-0.358,1.617,0.082,1.06c0.746-0.94,2.327-0.676,2.848,0.474
		c0.604,1.338-0.573,2.823-1.797,2.262c-0.793-0.367-0.849-0.289-0.319,0.473c0.516,0.746,0.284,1.656-0.547,2.189
		c-1.646,1.049-3.609-1.043-2.242-2.381c0.362-0.359,0.25-0.531-0.195-0.293c-1.809,0.983-3.145-1.461-1.578-2.896
		c0.664-0.608,1.176-0.569,2.273,0.188c0.34,0.237,0.405-0.004,0.16-0.605C145.387,146.102,145.175,145.824,145.175,145.824
		L145.175,145.824z M58.437,147.293c2.602-0.039,4.738,2.035,4.778,4.637c0.035,2.603-2.04,4.742-4.641,4.777
		c-2.602,0.039-4.742-2.039-4.777-4.643C53.757,149.465,55.836,147.328,58.437,147.293L58.437,147.293z M58.492,148.133
		c-2.137,0.031-3.844,1.785-3.813,3.922c0.032,2.137,1.789,3.844,3.926,3.813c2.137-0.031,3.844-1.789,3.813-3.927
		C62.386,149.805,60.629,148.102,58.492,148.133L58.492,148.133z M58.535,149.617c1.316-0.02,2.394,1.029,2.414,2.344
		c0.019,1.316-1.027,2.402-2.344,2.418c-1.316,0.02-2.398-1.031-2.418-2.348C56.168,150.715,57.222,149.637,58.535,149.617
		L58.535,149.617z M52.617,161.025l2.719,1.328c0,0-1.286,1.049-1.797,1.586c-0.657,0.692-0.61,1.021,0.273,0.688
		c1.684-0.637,3.371,0.312,3.403,2.062c0.042,2.332-2.719,3.455-4.043,1.688c-0.395-0.526-0.864-0.742-0.68-0.317
		c0.449,1.047,0.176,2.36-0.606,2.899c-0.625,0.435-1.769,0.562-2.347,0.263c-1.985-1.027-2.086-3.316-0.188-4.22
		c0.953-0.453,0.985-0.879,0.047-0.646c-1.953,0.484-3.094-1.879-1.683-3.504c1.496-1.723,3.933-1.367,4.203,1.185
		c0.047,0.453,0.359,0.125,0.496-0.57C52.578,162.953,52.617,161.025,52.617,161.025L52.617,161.025z M77.957,164.863
		c0,0-9.957,5.664-9.653,5.902c0.059,0.034,2.207,3.055,2.207,3.055c4.938-11.188,16.766-1.924,18.661,3.793
		c0.41,0.25,0.48,0.18,0.926,0.379c0.043-0.402,0.863-4.371,0.863-4.371L77.957,164.863z M61.992,206.004
		c-0.5,0.625-2.168,2.395-1.957,2.461c14.629,3.145,29.715,2.895,45.074,1.227l-1.172-3.688
		C88.773,209.867,61.992,206.004,61.992,206.004L61.992,206.004z"/>
	<path fill="#131F67" d="M25.054,22.543l0.899,205.66l128.383-0.453l-0.77-205.453L25.054,22.543z M64.101,24.008l64.031-0.262
		c-3.004,7.797-11.651,20.117-11.241,20.145c-13.32-2.2-27.052-3.309-42.407-0.032L64.101,24.008z M26.539,24.512l35.933-0.047
		L74.32,45.707c0,0,0.699,1.324,0.281,2.711c-0.453,1.512-0.844,2.184-1.25,2.957c0.039-0.441-3.418-0.879-3.129,2.082
		c0.2,2,2.731,3.133,4.621,1.578c0.301-0.027,0.297,0.254,0.231,0.742c-0.172,1.149-1.391,4.789-2.227,5.032
		c-4.254-3.489-5.773,2.878-2.906,4.152c1.664,0.734,4.215,0.125,5.41-1.871c0.914-1.528,0.813-1.274,1.098,0.578
		c0.109,0.691,0.262,1.488,0.34,1.848c0.242,1.125,0,1.343-1.891,1.851c-1.523,0.594-3.066,0.922-4.633,1.258
		c-2.871,0.473-4.336,2.637-4.406,5.266c-0.016,0.57,0.004,0.832-0.117,1.004c-12.133,4.601-25.024,11.046-38.547,22.046
		L26.539,24.512z M108.003,74.949c-0.457-0.746-1.926-4.648-2.332-6.273c-1.051-7.895-1.25-17.266-2.375-24.61l1.479,0.164
		c0,0,0.56,2.129,1.156,7.875c0.297,2.848,0.609,8.774,0.855,11.497c0.375,4.043,2.203,10.511,3.336,12.144
		c1.848,2.664,5.559,0.941,4.316-2.219c-0.646-1.64-3.138-1.375-2.793,0.328c0.008,0.301,0.237-0.218,0.602-0.539
		c1.078-0.406,2.293,0.715,1.66,2.067c-0.785,1.722-3.113,0.937-3.883-1.238c-0.922-2.598,2.184-4.543,4.504-2.961
		c2.59,1.765,2.594,6.238,0.512,7.648C111.535,80.113,109.148,77.559,108.003,74.949L108.003,74.949z M116.675,78.238
		c-0.141-0.086,0.005-0.355,0.177-1c0.651-2.414,0.241-4.301-1.32-6.074c-0.871-0.988-1.195-1.164-0.742-1.344
		c0.969-0.379,3.102,1.172,3.688,2.696c0.578,1.496,0.724,3.043-0.09,4.734C117.82,77.613,116.938,78.34,116.675,78.238
		L116.675,78.238z M119.316,76.629c0-0.281,0.188-1.172,0.233-1.609c0.168-1.684-0.62-3.391-2.012-4.731
		c-1.172-1.121-1.276-1.238-0.172-1.254c2.854-0.051,4.676,4.567,3.358,6.84C120.387,76.234,119.352,76.973,119.316,76.629
		L119.316,76.629z M121.734,75.066c0.84-3.933-2.965-6.554-3.039-6.433c0.188-0.879,1.699-0.375,2.215-0.031
		c1.922,1.293,3.027,4.668,1.848,6.585c-0.129,0.239-0.285,0.372-0.492,0.5c-0.397,0.25-0.633,0.45-0.711,0.274
		C121.492,75.828,121.71,75.258,121.734,75.066L121.734,75.066z M88.254,62.305c0.398-0.391,0.519-0.403,1.281-0.114
		c2.395,0.903,4.309-0.816,3.742-2.621c-0.203-0.652-1.103-1.363-1.652-1.418c-0.902-0.093-0.922,0.383,0.051,0.746
		c1.195,0.446,1.316,1.711,0.266,2.286c-1.237,0.832-3.261-1.286-4.746-1.106c-0.707,0.211-1.16,0.875-0.758,1.688
		C86.754,62.332,87.824,62.676,88.254,62.305L88.254,62.305z M85.601,62.047c-0.832-0.387-1.148-0.379-0.988-1.285
		c0.102-0.598,0.953-4.61,1.359-6.16c1.207-4.649,0.071-7.223-3.355-8.262c-2.324-0.703-4.324-0.344-6.692,0.914L75.5,45.941
		c9.922-2.597,26.859-2.023,26.8-1.921c0.332,1.335,0.462,2.671,0.591,4.007c0,0-3.173-1.554-4.828-2.074
		c-2.551-0.781-6.582,0.074-7.293,1.539c-0.406,0.828-0.195,1.383,1.516,0.461c2.805-1.512,8.535-0.359,10.551,1.242
		c0.469,0.367,0.445,0.45,0.453,0.883c0.012,0.656,0.051,0.695-0.867,0.207c-4.813-2.461-8.926-2.176-10.344,1.055
		c-0.328-0.098-1.578-0.313-1.578-0.313l1.344,1.981l0.254,2.074c0,0,2.188,1.215,3.396,1.73c1.19,0.5,0.504-0.035-0.953-1.05
		c-1.069-0.742-0.22-0.981,0.487-0.696c1.453,0.332,3.578,0.754,6.035-0.804c0.763-0.485,2.513-0.067,2.539,0.152
		c0,0,0.23,1.816,0.465,5.602c0.109,1.789,0.328,4.129,0.453,5.089c0.379,2.899,0.488,3.063-1.039,1.672
		c-0.512-0.465-1.367-1.238-1.375-1.191c-0.194,0.898,2.06,2.476,2.582,3.019c0.797,0.825,1.435,2.93,1.117,3.055
		c-0.203,0.078-2.344-1.734-4.027-3.367c-0.629-0.609-1.569-1.43-1.598-1.402c-0.348,0.23,1.066,1.828,2.391,3.019
		c1.548,1.395,1.728,1.52,1.207,1.727c-0.961,0.39-1.823-0.094-4.151-2.02c-0.228-0.187-1.108-0.812-1.147-0.765
		c-0.215,0.281,1.934,2.316,2.422,2.492c0.906,0.324,1.168,1.199,0.453,1.543c-0.478,0.23-2.254-0.746-3.681-1.98
		c-0.258-0.222-0.965-0.597-1.012-0.547c-0.281,0.184,1.31,1.559,2.832,2.477c1.487,0.894,1.728,1.117,1.348,1.859
		c-0.354,0.77-3.62-1.008-5.258-2.836c-0.349-0.39-0.621-0.558-0.552-0.425c0.712,1.968,3.056,3.382,4.798,3.945
		c0.31,0.101,0.762,0.23,0.965,0.391c0.496,0.394,0.383,0.804-0.151,1.035c-1.859,0.519-4.789-1.731-6.884-4.086
		c-0.241-0.102-0.098,0.207-0.034,0.308c1.745,2.789,5.094,4.914,7.108,4.516c1.181-0.231,2.129,0.125,2.137,0.519
		c0.009,0.325-0.641,0.84-1.909,0.93c-2.867,0.207-7.349-2.93-9.97-6.926c-0.082-0.125-0.18-0.171-0.185-0.093
		c-0.069,0.843,1.56,2.922,2.81,4.109c3.711,3.531,7.224,4.723,9.961,2.734c1.543-1.195,3.035-3.812,0.738-4.687
		c-1.22-0.461-1.992,1.215-0.949,0.738c1.371-0.168,1.681,0.559,1.5,1.242c-0.348,1.172-1.508,1.36-2.452,0.868
		c-1.642-0.891-1.294-3.942,0.836-4.473c1.914-0.465,3.586,1.16,3.809,2.703c0.34,2.391-2.359,4.984-4.527,5.629
		c-7.387,2.195-13.156-8.07-13.191-8.301c-0.371-0.715-0.816-1.09-1.097-0.258c-0.301,1.203-1.969,4.735-2.864,4.711
		c0.278-1.246,1.449-3.34,1.164-5.172c-0.492,1.504-1.531,4.719-3.519,6.43c-0.516,0.473-2.031,1.024-0.989-0.184
		c1.258-1.769,2.903-4.183,2.563-6.453c-0.336,0.508-0.516,1.801-0.898,2.653c-0.954,2.133-3.043,4.668-4.418,5.078
		c-1.02,0.301-0.922-0.043,0.117-1.137c1.117-1.176,3.094-4.629,2.965-6.117c-0.059-0.656-2.051,5.684-5.801,7.422
		c-1.012,0.367-1.586-0.098-1.586-0.098c1.473-0.848,5.543-4.859,5.16-9.418c0,0-0.219,0.676-0.539,1.688
		c-1.379,4.351-4.344,7.211-6.656,7.449c-1.844,0.187-3.133-0.559-2.676-0.887c2.394,0.02,4.359-0.808,5.894-3.14
		c1.563-2.368,2.141-6.176,1.196-10.204c-0.852-3.636-1.039-6.902-1.336-10.394c2.621,0.894,5.258,1.488,7.808,0.492
		c-0.257,1.039-0.683,1.168-1.355,1.957c-0.488,0.574-0.32,0.711,1.586-0.637c0.555-0.39,0.754-0.707,0.855-0.601
		c0.161,0.172-0.093,1.242-0.648,3.379c-0.828,3.195-0.613,3.422,2.457,4.625c0.574,0.226,0.785,0.445,0.988,0.683
		c0.094,0.114,0.598,1.02,0.645,1.051c0.109,0.074,0.082-0.922,0.019-1.176c-0.164-0.672-0.527-1.175-0.843-1.375
		C87.027,62.348,86.156,62.301,85.601,62.047L85.601,62.047z M143.535,103.707l0.031-3.316l3.223,2.289l-0.039,1.093
		L143.535,103.707z M138.027,104.43l-0.117-61.344c0,0,2.473-1.645,3.711-2.457c0.77,2.43,0.766,7.648,0.477,9.969
		c-0.484,1.511-0.699,8.242-0.152,11.668c0.438,2.73,0.359,7.246-0.055,9.406c-0.16,0.848-0.039,4.805,0.267,8.465
		c0.229,2.797,0.163,5.34-0.173,6.797c-0.266,1.148-0.176,5.257,0.13,6.836c0.444,2.32,0.522,9.773,0.323,10.179
		C141.906,104.551,137.75,104.633,138.027,104.43L138.027,104.43z M142.925,40.234c0,0,2.492,1.645,3.695,2.465l0.017,2.645
		l-3.603-2.352L142.925,40.234z M105.75,44.504l1.539,0.094c0.613,3.195,0.879,6.828,1.125,10.468
		c0.078,5.614,0.77,11.532,2.09,15.414l-1.133,1.188c-1.93-4.449-2.082-11.461-2.512-16.211
		C106.671,50.117,105.792,44.539,105.75,44.504L105.75,44.504z M143.227,43.945l3.352,2.266l0.035,2.875l-3.375-2.238
		L143.227,43.945z M107.973,44.715l1.352,0.148c0.41,3.789,1.043,6.364,1.281,10.543c0.313,5.403,1.25,9.84,1.832,14.063
		l-1.017,0.336c-0.676,0.312-1.801-4.676-2.301-14.789C108.968,51.957,108.449,48.516,107.973,44.715L107.973,44.715z
		 M110.02,44.855l1.612,0.29c0.716,9.601,1.845,18.617,3.027,23.785l-1.406,0.093C111.512,61.637,111.398,53.094,110.02,44.855
		L110.02,44.855z M112.352,45.195l1.483,0.258c1.785,21.957,2.888,21.672,3.233,22.535l-1.608,0.653
		C113.727,62.332,113.375,53.437,112.352,45.195L112.352,45.195z M119.093,66.762c-0.254,0.738-0.854,0.672-1.516,0.746
		c-0.734-2.016-1.164-4.422-1.474-6.778c-0.676-5.171-0.922-10.023-1.629-15.125l1.773,0.18
		C116.191,45.824,117.507,63.789,119.093,66.762L119.093,66.762z M80.984,47.465c2.336,0.113,4.273,1.16,4.461,2.691
		c0.039,0.348-0.234,0.18-0.551-0.063c-2.008-1.539-4.289-2.02-7.051-1.028c-0.601,0.219-1.093,0.559-1.359,0.512
		c-0.242-0.156-0.316-0.527-0.133-0.836C76.996,47.664,79.832,47.41,80.984,47.465L80.984,47.465z M75.574,50.543
		c0.047,2.418-0.539,3.75-1.809,4.312c-1.531,0.672-3.496-0.773-2.539-2.386c0.719-1.223,1.961-0.856,2.196,0.429l1.945-4.332
		C75.367,48.566,75.566,49.937,75.574,50.543L75.574,50.543z M146.641,50.156l-0.023,2.492l-3.59-2.398l0.242-2.398L146.641,50.156z
		 M82.949,49.832c1.769,0.699,2.418,1.555,2.484,1.938c-0.105,0.281-0.281,0.089-1.57-0.61c-1.992-1.219-4.582-1.418-6.863,0.129
		c-0.567,0.113-0.625-0.207-0.055-0.82C78.679,49.109,81.078,49.09,82.949,49.832L82.949,49.832z M96.382,49.363
		c1.556-0.047,3.414,0.348,4.988,1.137c0.69,0.348,1.315,0.566,1.771,0.965c0.362,0.191,0.391,1.012,0.125,1.074
		c-0.234,0.031-0.625-0.152-1.203-0.555c-3.734-2.425-6.422-2.129-8.578-0.636c-0.121,0.082-0.492,0.168-0.642,0.156
		c-0.409-0.031-0.43-0.199-0.258-0.422C93.582,49.953,95.078,49.41,96.382,49.363L96.382,49.363z M143.039,51.109l3.598,2.516v2.473
		l-3.828-2.661L143.039,51.109z M78.09,52.113l0.527,0.016c1.223,2.969,2.762,1.437,3.398,0.25l0.641,0.105
		C81.652,56.457,77.578,54.379,78.09,52.113L78.09,52.113z M77.195,52.508c0.598,0.074,0.574,0.746,0.762,1.234
		c0.414,1.098-1.164,0.168-1.434-0.097C76.066,53.164,76.718,52.559,77.195,52.508L77.195,52.508z M95.003,52.395
		c1.556,2.359,2.449,0.96,3.332-0.067l0.422,0.137c-0.112,1.691-2.965,3.5-4.315-0.031L95.003,52.395z M99.777,52.66
		c0.164,0.004,0.5,0.121,0.805,0.246c0.848,0.344,0.805,0.594-0.137,1.012c-1.504,0.668-2.023,0.754-1.574-0.188
		C99.128,53.297,99.3,52.727,99.777,52.66L99.777,52.66z M93.882,53.02c0.38,0.277,0.625,0.585,0.668,1.085
		c0.031,0.352-1.141-0.054-1.141-0.613C93.449,53.133,93.641,52.844,93.882,53.02L93.882,53.02z M83.484,53.156
		c0.773,0.285,0.68,0.653,0.145,0.985c-0.965,0.539-1.379,0.433-0.754-0.414C83.16,53.336,83.222,53.164,83.484,53.156
		L83.484,53.156z M142.796,54.398l3.897,2.739l-0.034,2.515L142.766,57C142.585,55.922,142.757,55.195,142.796,54.398
		L142.796,54.398z M75.461,58.293c0.183,0.004,0.254,0.613,0.3,1.508c0.071,1.484-1.441,3.551-2.968,4.261
		c-1.84,0.86-3.809-0.343-3.481-2.125c0.305-1.644,2.637-1.71,2.727-0.195c-0.227,0.399,0.09,0.735,0.222,0.699
		c0.598-0.16,2.016-1.433,2.59-2.859c0.223-0.555,0.36-1.125,0.52-1.254C75.402,58.301,75.433,58.289,75.461,58.293L75.461,58.293z
		 M142.695,57.828l3.891,2.84l0.02,2.5l-3.862-2.656C142.589,59.398,142.656,58.602,142.695,57.828L142.695,57.828z M95.445,61.785
		c-0.293,0.492-0.051,1.379,0.551,0.625c1.555-1.805,3.801,0.453,2.598,1.891c-1.09,1.301-2.434,0.883-5.27-0.199
		c-2.066-0.79-2.391-0.52-2.898,0.05c-0.422,0.469-0.207,1.41,0.336,1.399c1.676,0.383,3.125,0.75,4.855,1.113
		c3.664,0.75,5.895-3.969,2.551-5.699C97.367,60.551,95.71,61.09,95.445,61.785L95.445,61.785z M79.285,62.328
		c-1.43,1.281-0.258,4.645,1.844,4.945c0.441,0.063,1.097,0.043,1.843-0.171c1.473-0.422,3.094-1.293,3.16-1.801
		c0.301-2.305-3.128-0.239-3.582,0.035c-1.082,0.656-2.226,0.57-2.8-0.207c-1.301-1.758,1.027-3.774,2.441-1.625
		c0.359,0.543,0.231-0.375-0.156-1C81.484,61.621,80.066,61.68,79.285,62.328L79.285,62.328z M142.953,61.602l3.656,2.585
		l-0.021,2.407l-3.547-2.559L142.953,61.602z M143.227,65.125l3.465,2.492l0.059,2.5l-3.637-2.394
		C143.184,66.824,143.203,65.977,143.227,65.125L143.227,65.125z M123.792,66.559c3.047,0.05,4.767,4.554,3.16,6.425
		c-0.479,0.559-0.859,0.707-1.078,0.5c-0.047-0.043,0.03-0.547,0.063-1.117c0.098-1.816-0.285-3.058-1.613-4.437
		C123.328,66.898,122.949,66.578,123.792,66.559L123.792,66.559z M86.269,67.277c-0.578,0.207-1.187,0.621-1.656,0.52
		c-0.465-0.102-0.691,0.129-0.871,0.492c-0.699,1.398-0.485,1.852,0.898,1.059c0.657-0.379,0.887-0.243,2.645,0.089
		c1.254,0.235,2.105,0.211,3.211-0.074c1.375-0.355,2.191-0.383,2.887-0.004c0.696,0.379,1.168,0.903,1.188,0.477
		c-0.077-0.5-0.512-1.774-0.612-2.199c-0.047-0.203-0.392-0.024-0.711,0c-1.142,0.082-2.496-0.942-3.375-0.399
		c-0.703,0.43-0.797,0.547-1.762-0.019C87.39,66.797,86.89,67.055,86.269,67.277L86.269,67.277z M122.973,67.59
		c2.065,1.722,2.594,3.254,2.395,4.508c-0.105,0.91-0.172,1.918-1.066,2.468c-0.164,0.079-0.41,0.129-0.637,0.161
		c0.691-2.59-0.125-4.911-3.043-7.387C121.468,66.918,122.335,67.059,122.973,67.59L122.973,67.59z M76.429,67.586
		c0.094,0,0.196,0.016,0.297,0.051c0.36,0.117,0.414,1.054,0.133,1.347c-0.281,0.293-0.508,0.051-0.836-0.695
		C75.781,67.883,76.035,67.586,76.429,67.586L76.429,67.586z M74.527,68.316c0.75-0.015,1.039,0.672,1.168,1.223
		c0.109,0.469-0.031,1.867-0.43,1.379c-0.097-0.297-0.504-1.25-0.832-1.5C73.703,68.867,73.777,68.332,74.527,68.316L74.527,68.316z
		 M72.406,69.012c0.109-0.004,0.25,0.008,0.422,0.039c1.176,0.195,2.078,2.066,1.804,3.129c-0.625,1.144-0.855,0.375-1.058-0.664
		c-0.164-0.43-0.645-1.102-0.938-1.45C72.023,69.348,71.925,69.023,72.406,69.012L72.406,69.012z M143.125,68.465l3.582,2.566
		l0.004,2.75l-3.746-2.519C143.046,70.301,143.089,69.379,143.125,68.465L143.125,68.465z M70.078,69.578
		c1.754,0.004,3.25,2.043,2.699,4.012c-0.687,2.047-4.102,1.609-3.535-0.434c0.164-0.586,0.793-1.019,1.39-0.648
		c0.868,0.531,0.77-0.336,0.223-0.641c-0.848-0.476-2.015-0.187-2.277,0.77c-0.906,3.347,3.394,4.484,5.734,1.031
		c0.856-1.262,1.785-2.613,2.301-3.191c0.461-0.516,0.559-0.465,0.484,0.203c-0.297,3.109-2.465,6.992-6.527,6.781
		c-3.949-0.375-5.184-4.566-2.203-7.18c0.504-0.441,1.031-0.656,1.543-0.695C69.965,69.582,70.019,69.578,70.078,69.578
		L70.078,69.578z M91.007,69.75c-1.445,0.699-2.757,0.965-4.18,0.344c-1.051-0.457-1.035,0.039-0.578,0.449
		c1.32,1.125,3.726,0.613,4.753-0.02C91.339,70.32,91.449,69.723,91.007,69.75L91.007,69.75z M146.718,74.715l0.013,2.5l-4-2.68
		c-0.063-0.598,0.004-1.504,0.137-2.441L146.718,74.715z M142.863,75.551l3.809,2.508l0.098,2.476l-3.699-2.293L142.863,75.551z
		 M143.128,79.023l3.638,2.516l0.051,2.703l-3.603-2.371L143.128,79.023z M54.445,81.867l-2.227,6.723l1.457,0.09l0.985,1.773
		l1.012-1.82l1.531-0.113L54.445,81.867z M143.281,82.762l3.504,2.41l0.055,2.496l-3.645-2.516L143.281,82.762z M143.137,85.82
		l3.594,2.594l0.074,2.652l-4.074-2.711L143.137,85.82z M62.742,87.32l-2.203,7.2l1.242-0.168l1.164,1.925l1.172-1.73l1.113,0.062
		L62.742,87.32z M46.152,87.855l-2.098,7.157l1.407-0.004l1.187,1.804l1.043-1.742l1.594-0.043L46.152,87.855z M142.671,89.172
		l4.216,2.961l0.034,2.816l-4.086-2.738L142.671,89.172z M146.839,95.863l0.048,2.465l-3.552-2.523l-0.383-2.739L146.839,95.863z
		 M71.558,96.289l-2.574,7.27l1.727,0.015l1.046,1.746l0.84-1.754l1.387,0.016L71.558,96.289z M143.57,97.012l3.293,2.258
		l-0.027,2.531l-3.238-2.172L143.57,97.012z M81.179,126.439l-1.875-1.804c-0.023-0.149,1.536-0.903,2.493-0.422
		c1.265,0.633,1.918,2.914,0.5,4.113c-1.129,0.953-2.848,0.159-2.883,0.047L81.179,126.439z M79.511,123.469
		c0.036-2.785-1.433-3.5-2.644-4.067c0,0-0.203-17.64-0.176-18.168c0,0.075-0.312-1.91-0.348-2.027l-0.293-0.078
		c0.055,1.789,0.168,20.125,0.141,20.242c-2.269,0.262-2.902,1.797-3.109,3.863c-1.77-0.132-2.922,0.93-2.957,1.11
		c-0.653-0.899-0.129-2.098-0.645-3.035c-2.25,7.125,3.996,9.273,4.106,8.337c0.429,5.268,6.23,6.221,6.035-0.17
		C86.64,129.064,84.261,122.613,79.511,123.469L79.511,123.469z M46.535,101.316l-2.543,7.125l1.781-0.203l0.649,1.317
		c2.855-2.516,4.293,1.367,2.843-1.965L46.535,101.316z M143.132,113.992c0.328-0.023,0.763,0.274,0.849,0.676
		c0.063,1.203-1.556,0.934-1.605,0.172C142.335,114.301,142.824,114.016,143.132,113.992L143.132,113.992z M144.191,121.816
		c0.695-0.574,1.805-0.25,1.824,0.614c0.016,0.761-0.859,1.015-1.548,0.586C143.964,122.824,143.906,122.086,144.191,121.816
		L144.191,121.816z M144.289,123.937c3.82,0.29,6.664-2.304,5.445-4.167c1.027-1.293,0.19-2.032,0.473-2.774
		c0.809-0.832,0.129-2.617-0.074-2.625c-0.164-2.398-0.863-2.707-1.898-3.988c-0.313-0.367,0.728-0.731,1.125-1.367
		c-1.055,0.406-2.094-0.379-2.086-0.559l-0.453-0.559c-7.073,0.332-13.43,0.825-13.188,10.422c-1.02,4.071,0.707,7.7,5.645,6.578
		c1.082-0.963,0.367-2.367,0.234-3.039c-0.422-1.851,0.066-3.054,0.203-3.922c0.422-2.679,2.387-5.171,2.598-0.964
		c0.349-0.532,0.185-0.61,0.754-0.828c1.355-0.489,1.353,0.882,1.074,1.437c-0.18,0.281-0.445,0.258-0.723,0.227
		c-0.395-0.047-0.91-0.192-0.918-0.336c-0.105,0.433,0.715,1.246,0.629,1.656c-0.105,0.406-0.105,0.402,0.18,0.086
		c1.728-1.188,2.771,1.515,0.31,1.207C144.832,121.07,143.035,122.965,144.289,123.937L144.289,123.937z M141.77,109.293
		c1.34-0.066,1.664-0.082,1.602,0.625c0.254,1.297,0.578,1.902,2.273,1.766c1.707-0.223,2.25-0.329,0.53,0.703
		c-0.866,0.383-1.147,0.457-2.18,0.363c-1.035-0.094-0.957-0.199-1.552,0.156c-0.327,0.196-0.69,0.438-0.961,0.489
		c-0.397,0.07-1.098,0.222-1.098,0.222c-0.402,2.02-1.008,3.035-1.844,3.992c-1.184,1.348-1.785,1.582-0.332,1.481
		c0.535,0.031,0.258-0.235,0.492,1.941c0.082,0.762,0.223,1.645,0.336,1.942c0.379,0.988,0.43,1.48-1.004,1.55
		c-3.578,0.274-4.414-3.211-3.938-4.988c0.038-0.281,0.202-1.207,0.237-1.941c0.021-0.403-0.063-0.742-0.051-1.153
		c0.082-3.32,0.866-4.191,3.813-6.351C138.988,109.441,140.582,109.309,141.77,109.293L141.77,109.293z M144.914,109.473
		c1.648-0.036,3.246,0.757,2.449,1.273c-0.516,0.332-2.371,0.195-2.887-0.172C143.809,110.102,144.059,109.488,144.914,109.473
		L144.914,109.473z M71.254,112.289l-0.657,1.16l-0.683,5.399l0.121,1.097l1.351,1.77l1.071-1.836l1.683,0.031L71.254,112.289z
		 M148.484,111.75c1.07,0.215,1.113,1.191,0.844,1.793c-0.598,1.32-4.602,1.961-4.602,1.961c-0.031-0.567,0.047-1.113-0.371-1.754
		c0,0,2.668-0.695,3.229-1.211C147.96,112.195,148.191,111.762,148.484,111.75L148.484,111.75z M149.277,114.758
		c0.387,0.004,0.594,0.285,0.699,0.855c0.051,0.309-0.066,0.571-0.316,0.903c-1.016,1.105-3.871,1.871-4.902,1.589
		c-0.07-0.097,0.102-1.257,0.18-1.777C146.309,116.371,148.621,115.152,149.277,114.758L149.277,114.758z M108.566,121.555
		c-1.363-1.969-4.392-1.68-4.066-1.543c0.023-1.684-0.266-4-2.824-4.246c-2.582-0.196-3.906,3.211-2.926,4.648
		c-1.594-0.66-3.984,0.996-3.984,1.152c-0.203,0.008-2.027,4.833,3.496,5.079c0.504,2.277,1.363,3.379,3.129,4.316l0.043,18.586
		l0.625,0.84l0.055-19.473c2.828-0.125,3.177-3.359,2.966-4.105c1.258,0.056,2.397-0.199,3.354-0.93l0.332,3.172
		c0,0,0.664-1.117,0.517-1.711c-1.23-18.254,5.375-38,14.043-50.797c0.465-0.535,0.604-1.18,0.832-1.184
		c2.116-1.136,3.448-1.906,3.448-1.906c3.488,1.676,9.711,5.719,9.711,5.719l0.103,26.008c-0.099-0.254,11.599-1.305,11.422-0.989
		c0,0-1.022-0.398-1.039-1.086l-0.305-60.859l-5.117-3.344c0,0-4.207,2.75-5.383,3.692l0.129,35.828l-9.063-5.309
		c0,0,0.146-1.265,0.16-1.676c-0.145-4.89-2.547-6.531-7.117-5.082c-0.612,0.196-1.039,0.368-1.34,0.118
		c-1.922-5.625-2.789-20.411-2.785-20.411l12.898-21.847l21.879-0.121l0.379,83.48l0.613,44.313c0,0-6.352,4.771-9.715,6.988
		c-0.695,0.453-1.188,0.354-1.277,0.107c-0.066-0.183-0.16-11.713-0.207-18.678c-0.039-5.822,0.047-8.974,0.047-8.974
		s-1.602-0.358-2.02-0.41c-0.156-0.012-0.359,0.035-0.078,0.22c0.41,0.256,1.422,0.625,1.422,0.625l0.238,27.78
		c0,0-4.344,2.922-6.285,4.14c-1.445,0.899-6.023,3.205-8.734,4.532c-1.051,0.515-2.113,0.929-2.211,1.009
		c-3.695,1.584-7.022,2.698-10.102,4.334c-2.125,0.873-2.027,0.021-2.48-0.675c-4.434-4.383-10.156-4.641-14.789-2.616
		c-0.719,0.266-1.608,0.496-2.211,0.914c-0.172,0.127-0.477,0.27-0.672,0.315c-0.41,0.099-0.852,0.276-1.227,0.574
		c-0.668,0.526-1.109,1.387-1.492,2.237c-0.234,0.531-0.945,2.992-1.039,3.724c-0.016,0.125,0.238,0.098,0.246,0.108
		c0.031,0.043,0.715-2.983,0.984-3.559c0.574-1.223,1.301-1.957,1.688-2.07c0.176-0.031,0.328,0.242,0.09,0.672
		c-0.473,0.859-0.859,2.681-0.973,3.5c-0.105,0.758-0.125,1.367,0.016,1.396c0.027,0.022,0.695-2.297,0.996-3.113
		c0.789-2.137,1.285-3.02,2.039-3.473c0.777-0.47,0.961-0.402,0.809,0.094c-1.155,2.254-1.633,3.957-1.854,6.354
		c-0.035,0.478,0.207,0.492,0.397-0.301c0.634-2.52,1.5-5.926,3.552-6.94c0.875-0.398,1.266-0.379,1.172-0.095
		c-2.445,3.086-3.056,6.513-3.026,7.617c0.012,0.371,0.159,0.297,0.473-0.504c0.828-3.039,2.055-5.629,3.512-6.895
		c0.563-0.492,1.246-0.629,1.816-0.699c1.727-0.215,1.785,0.426,0.28,1.301c-1.711,0.996-3.688,4.621-3.905,7.34
		c-0.078,0.941,0.254,1.047,0.492-0.211c1.016-5.41,5.651-8.983,9.366-7.328c1.672,0.746,1.978,1.781,0.521,1.32
		c-2.945-0.934-6.219,1.156-7.566,4.07c-1.219,2.633-1.195,4.016-0.336,7.543c0.582,3.262,1.723,7.422,1.348,10.611
		c-0.406,0.621-1.684-0.254-3.195-0.439c-0.909-0.168-2.026-0.211-2.977,0.152c-0.832,0.315-1.301,0.397-1.453-0.053
		c-0.051-0.144,0.637-0.843,0.945-1.232c0.492-0.621,0.211-0.721-0.48-0.047c-0.34,0.332-1.069,1.104-1.27,1.145
		c-0.434,0.09-0.453-0.406-0.102-1.656c1.237-4.871,0.906-4.953-1.215-5.938c-2.103-0.801-1.438-1.207-2.371-2.004
		c-0.657,0.516,0.858,2.867,2.569,3.383c1.402,0.418,1.229,1.137,0.617,3.063c-0.621,2.695-1.685,6.267-1.069,8.66
		c1.293,5.031,6.401,4.93,10.315,2.898l0.478,1.281c-3.31,1.34-20.75,2.483-26.625,1.809c-0.453-1.59-0.5-1.996-0.683-3.867
		c0,0,3.629,1.641,5.441,1.926c2.262,0.355,5.746,0.371,6.641-1.711c0.273-0.613-0.008-1.129-0.789-0.772
		c-1.434,0.647-3.887,1.129-5.871,1.008c-1.66-0.103-4.032-0.771-5.059-1.387c-0.488-0.294-0.898-0.867-0.516-1.591
		c0.34-0.073,0.782,0.302,1.047,0.435c3,1.517,4.649,1.81,6.606,1.229c1.484-0.44,3.484-2.043,2.992-2.5
		c-0.504,0.177-2.168,1.574-3.316,1.879c-2.36,0.625-4.879-0.336-7.332-1.922c-0.754-0.655-0.411-1.137,0.515-0.612
		c3.676,1.852,5.207,3.077,8.727,0.479c0.785-0.582,1.222-0.508,1.683-0.152c1.825,1.634,1.821,0.716,0.481-0.983
		c-0.301-0.383-0.578-0.926-0.758-1.5c-0.137-0.426-0.168-0.853-0.41-1.129c-0.414-0.478-1.16-0.711-2.016-1.086
		c-1.23-0.543-1.64-0.281-0.73,0.164c1.59,0.776,2.367,1.608,0.39,1.159c-1.796-0.805-4.796-0.354-6.492,0.824
		c-1.332,0.648-1.918,1.344-2.23-0.125c-0.66-3.065-0.02-7.227-0.903-12.574c-0.168-1.02-0.371-1.668-0.16-1.805
		c0.274-0.18,0.957,0.48,1.805,1.668c0.387,0.543,1.156,1.586,1.152,1.371c0.028-1.133-1.734-3.258-3.188-4.098
		c-0.801-0.461-1.344-2.586-0.43-2.117c0.707,0.344,4.379,3.57,5.078,4.719c0.324,0.535,0.598,0.195,0.254-0.434
		c-0.207-0.379-1.07-1.484-1.906-2.305c-1.488-1.449-1.66-1.385-1.375-1.68c0.566-0.591,1.773,0.168,3.93,2.12
		c0.554,0.699,1.285,1.328,1.195,0.98c0.223-0.543-1.938-2.863-3.219-3.484c-0.238-0.153-0.269-0.309-0.25-0.598
		c0.121-1.095,2.602,0.516,4.656,2.395c0.77,0.703,0.133-0.62-0.761-1.52c-0.7-0.711-1.828-1.591-2.598-1.892
		c-0.762-0.313-0.809-0.977-0.211-1.258c2.063-0.086,4.191,2.02,5.457,3.676c0.352,0.457,0.672,0.806,0.309-0.055
		c-1.176-2.594-3.618-4.055-5.313-4.348c-1.375-0.242-1.344-1.484-0.051-1.346c1.422,0.157,3.75,1.438,5.723,3.428
		c0.574,0.572,1.539,1.887,1.34,1.115c-0.004-0.211-0.609-1.029-1.309-1.818c-1.617-1.605-3.492-3.021-5.48-3.441
		c-0.93-0.266-3.692,0.271-3.707-0.211c-0.008-0.352,0.289-0.566,1.168-0.859c3.41-1.133,8.406,1.798,11.136,6.306
		c0.196,0.323,0.567,0.461,0.59,0.387c-1.32-3.684-5.418-7.021-8.675-7.594c-2.219-0.356-4.454,0.211-5.516,1.703
		c-1.195,1.684-0.731,3.93,1.066,3.75c0.942-0.086,0.868-0.621,0.852-0.638c-0.067-0.065-0.613,0.191-0.953,0.125
		c-1.227-0.237-1.098-2.461,0.699-2.241c2.066,0.254,2.359,3.512,0.051,4.198c-2.133,0.633-2.914-0.344-3.496-1.496
		c-0.856-1.69,0.062-4.422,1.566-5.465c4.215-2.93,9.547-0.477,12.559,2.426c1.492,1.438,2.582,3.146,3.265,4.984
		c0.176,0.43,0.493,0.402,0.379-0.055c-4.238-10.809-16.879-11.979-18.758-3.684c0,0-0.066,0.254-1.281-1.478
		c-1.973-2.801-4.918-3.426-8.543-1.517c-3.66,1.375-4.898,2.255-7.437,3.566c-0.371,0.133-2.719,1.75-3.094,1.414
		c-3.598-2.387-6.734-3.199-8.441-4.945c0.058-0.323-0.247-5.168-0.247-5.168l0.082-20.901c0.028-0.203-1.902,0.141-5.117,0.646
		c-8.543,1.702-7.793-2.791-8.926-3.105c-0.597-0.117-0.55,0.137-0.714-15.979c-0.047-4.679-0.141-12.906-0.207-18.281
		c-0.071-5.379-0.09-9.855-0.039-9.953c0.046-0.094,0.527-0.504,1.078-0.898c2.082-1.473,3.25-2.368,7.808-5.84
		c1.032-0.789,1.289-0.922,1.289-0.922c0.524,9.68,0.055,19.848,0.313,28.168l0.387,0.004l-0.154-27.94
		c-0.785-0.208,17.965-11.176,28.238-14.739c0.192-0.066,0.672,0.149,0.672,0.149c5.899,7.226,21.414,5.039,22.664-3.758
		c2.571,5.363,13.868,15.785,19.028,3.223c0,0,1.871,3.609,3.473,3.847c3.609,0.477,4.008-0.094,11.945-3.941
		C114.214,89.32,109.21,103.898,108.566,121.555L108.566,121.555z M103.742,118.121c0.199,0.609,0.27,1.395,0.098,2.016
		c-0.23,0.484-0.578,0.48-0.578,0.48l-1.758-1.504l-1.719,1.594c0,0-1.051-1.059-0.473-2.527
		C100.41,116.125,102.93,116.496,103.742,118.121L103.742,118.121z M149.16,117.879c1.129-0.07,0.547,1.226-1.121,2.101
		c-1.043,0.551-1.91,0.707-2.285,0.508c-0.203-0.609-0.031-1.164,0.098-1.41C146.563,118.715,148.512,118.074,149.16,117.879
		L149.16,117.879z M76.515,120.32c1.25-0.031,2.332,0.86,2.371,2.434c0.016,0.644-0.312,1.281-0.312,1.281l-2.09-1.539l-1.594,1.699
		c-0.273,0.094-1.25-1.121-0.578-2.449C74.8,120.781,75.66,120.34,76.515,120.32L76.515,120.32z M106.699,121.043
		c1.758,0.797,2.063,3.25,0.352,4.195c-0.809,0.447-2.086,0.701-2.684-0.208l1.727-1.882l-1.984-1.668
		C104.031,121.402,105.628,120.559,106.699,121.043L106.699,121.043z M148.855,120.398c0.301,0,0.379,0.114,0.465,0.399
		c0.246,0.801-0.379,1.605-1.461,1.863c-1,0.235-0.902,0.352-1.379-0.539c-0.367-0.703-0.469-0.672,0.112-0.894
		C147.292,121,148.042,120.734,148.855,120.398L148.855,120.398z M98.906,121.602c0,0-1.246,1.265-1.793,1.796l1.875,1.958
		c0.094,0.234-2.16,1.254-3.348-0.281c-0.771-1-0.336-2.901,0.758-3.55C97.512,120.855,99.113,121.41,98.906,121.602L98.906,121.602
		z M101.589,121.379c1.109-0.016,2.017,0.867,2.035,1.976c0.017,1.106-0.867,2.02-1.978,2.036c-1.104,0.017-2.02-0.871-2.035-1.977
		C99.598,122.305,100.484,121.398,101.589,121.379L101.589,121.379z M74.191,124.754l-1.801,1.883l1.946,2.113
		c0,0-1.539,0.254-2.082,0.152c-2.649-0.496-2.391-3.603-0.344-4.422C72.777,124.176,73.418,124.277,74.191,124.754L74.191,124.754z
		 M38.898,125.395c0,0,0.352,3.984,0.676,5.349c-0.211,1.555-1.219,2.612-1.668,4.207c-0.242,0.711-1.149,1.664-1.324,0.664
		c-0.653-1.234-0.028-2.763-0.571-3.646c-0.273-0.82-0.191-1.293-0.375-2.152c-0.398-0.702-0.718-1.03-0.664-1.668
		c-0.105-2.815-0.812-2.258-2.062-2.026c-1.031,0.34-2.422,0.478-3.238,1.078c-1.774,1.25-0.809,1.965-1.477,3.848
		c0.105,0.824,0.309,1.121,0.164,1.836c-0.684,3.363,0.578,3.086,0.539,3.138c-0.527,0.772,0.121,2.512,0.375,2.42
		c1.539,0.381,0.981,1.506,1.481,2.104c0.503,0.574,0.476,0.867,2.586,0.918c3.812,0.301,9.867-0.266,11.175-4.914
		C45.332,129.996,46.527,124.223,38.898,125.395L38.898,125.395z M76.785,124.75c1.07-0.017,1.949,0.84,1.965,1.906
		c0.015,1.07-0.84,1.947-1.907,1.965c-1.07,0.016-1.949-0.84-1.964-1.906C74.863,125.645,75.718,124.767,76.785,124.75
		L76.785,124.75z M40.566,125.766c0.719-0.008,1.57,0.146,2.27,0.813c1.492,1.435,1.558,2.733,0.894,8.254
		c-0.187,1.556-0.734,2.853-1.457,3.418c-1.457,1.138-3.238,1.949-4.711,2.31c-0.773,0.19-1.449,0.194-1.972,0.19
		c-0.567-0.004-0.899-0.267-0.938-0.742c0.125-1.28-1.187-1.405-1.949-1.336c-1.352,0.056-1.492,0.195-0.649-0.457
		c0.965-0.746,3.188-0.758,3.61-0.319c0.867-0.869,1.773-0.97,2.879-1.099c-0.164-0.241-0.563-1.203-0.297-1.819
		c0.57-1.009,1.535-2.787,2.547-3.455c1-1.308,0.152-0.713-0.469-0.693c-0.356,0.016-0.324-0.102-0.383-0.34
		c-0.246-1.021-0.601-2.928-0.605-4.063C39.332,125.879,39.847,125.775,40.566,125.766L40.566,125.766z M34.191,127.18
		c0.391,0.348,0.383,0.832-0.027,1.195c-0.469,0.414-1.403,0.184-1.426-0.594C32.8,126.996,33.715,126.777,34.191,127.18
		L34.191,127.18z M101.723,129.939c-1.621,0.082-2.961-1.654-2.349-3.385c0.336-0.47,0.479-0.404,0.479-0.404l1.849,1.654
		l1.772-1.855C104.938,127.711,103.684,129.813,101.723,129.939L101.723,129.939z M32.211,127.254
		c-0.133,0.504,0.043,1.012,0.062,1.258c-0.32,0.228-1.691,0.629-2.426,0.992c-0.511,0.176-0.882-0.305-0.808-0.742
		c0.191-0.816,1.39-1.352,2.265-1.604C31.574,127.094,32.015,127.064,32.211,127.254L32.211,127.254z M32.511,129.59
		c0.496-0.063,0.348,1.016,0.164,1.566c-0.183,0.395-0.73,0.379-1.218,0.404c-0.864,0.053-1.953,1.047-2.422,0.889
		c-0.156-0.07-0.266-0.48-0.285-0.742C28.851,130.27,31.242,129.742,32.511,129.59L32.511,129.59z M35.125,131.086
		c-0.164,0.242-0.696,0.354-1.141,0.234c-0.727-0.199-0.836-1.242-0.199-1.598C34.91,129.348,35.586,130.406,35.125,131.086
		L35.125,131.086z M106.895,128.711l-0.984,1.5l-1.496-0.027l2.418,7.426l1.121-2.897c0.148-1.336,0.328-2.668,0.465-4.004
		L106.895,128.711z M75.035,129.336l1.918,1.563l1.64-1.676c1.223,2.723-0.187,3.969-1.683,3.938
		C75.257,133.121,73.496,131.555,75.035,129.336L75.035,129.336z M32.996,132.15c0.605-0.111,0.344,1.529,0.261,1.576
		c-0.386,0.141-2.058,0.358-2.761,0.953c-1.496,1.172-2.137,0.456-1.442-0.951C29.711,132.914,32.125,132.168,32.996,132.15
		L32.996,132.15z M34.902,132.229c0.664-0.062,1.133,0.678,0.727,1.385c-0.555,0.512-1.524,0.137-1.52-0.594
		C34.105,132.563,34.484,132.258,34.902,132.229L34.902,132.229z M33.918,136.391c0.089,0.383-0.043,0.267-0.746,0.474
		c-0.387,0.112-0.993,0.37-1.625,0.69c-0.93,0.469-1.192,0.719-1.52,0.668c-0.262-0.059-0.562-0.172-0.645-0.438
		c-0.324-1.059,0.54-2.141,2.551-2.883c0.418-0.152,1.164-0.277,1.422-0.305C34.039,134.598,33.308,135.645,33.918,136.391
		L33.918,136.391z M35.105,134.797c0.969-0.012,1.152,1.277,0.426,1.504C33.828,136.742,33.972,134.797,35.105,134.797
		L35.105,134.797z M33.906,139.551c0.273,0.262,0.312,0.691,0.004,0.914c-0.559,0.277-2.715,0.043-2.731-0.563
		c-0.007-0.398,0.711-0.535,1.383-0.549C33.23,139.34,33.687,139.34,33.906,139.551L33.906,139.551z M131.23,140.211l-1.777,2.375
		l2.387,5.969l2.176-7.227l-1.711,0.676L131.23,140.211z M30.734,146.34c0.41,18.375,0.34,60.484,0.34,60.484l5.23,3.559
		l5.508-3.957c-0.058-13.258-0.109-22.398-0.164-34.672l8.07,4.434c0,0,0.247,0.355,0.211,2.017
		c-0.558,4.578,3.871,7.551,6.809,5.742c1.133-0.478,1.227-0.56,1.465-0.203c0.66,0.987,1.406,5.207,1.531,7.896
		c0.188,4.059,1.254,12.323,1.512,12.379L48.113,226.27l-20.473,0.099l-0.234-82.754C28.468,144.867,28.953,145.688,30.734,146.34
		L30.734,146.34z M106.938,144.57l-0.984,1.504l-1.188-0.004l2.082,7.69l2.522-7.52l-1.392-0.173L106.938,144.57z M41.179,205.896
		c0,0-2.554,1.836-3.371,2.364c-0.429,0.16-0.636,0.191-0.738-0.219c-0.125-0.504,0.074-1.461,0.254-3.039
		c0.164-1.457,0.164-1.539-0.082-3.617c-0.25-2.172-0.281-2.266-0.078-5.129c0.23-3.198,0.273-6.305,0.023-8.227
		c-0.242-1.824-0.238-5.992-0.055-8.32c0.227-2.849,0.153-5.344-0.222-7.41c-0.664-3.684-0.774-4.952-0.082-7.727
		c0.262-1.035,0.39-1.587,0.336-3.324c-0.059-1.931-0.098-2.563-0.789-6.836c-0.395-2.461-0.426-2.802-0.055-6.695
		c0.074-0.784,0.102-1.313,0.402-1.563c0.348-0.288,3.993-0.504,3.993-0.504L41.179,205.896z M31.593,146.41l3.973-0.043
		c-0.309,1.24-0.375,2.188-0.41,3.09l-3.524-2.32L31.593,146.41z M31.652,148l3.492,2.277c0.004,0.961-0.07,1.879,0.071,2.84
		l-3.54-2.348L31.652,148z M31.66,151.613l3.734,2.555c0.149,0.996,0.449,2,0.567,2.895l-4.235-2.862L31.66,151.613z
		 M152.48,152.621l0.194,73.375l-37.19,0.168l-11.789-22.648c0,0,0.121-2.082,0.414-3.147c0.352-1.285,0.445-1.563,0.938-1.625
		c1.324,0.688,2.801-0.228,3.25-1.228c0.559-1.238-0.57-3.104-2.297-3.512c-0.762-0.18-1.594,0.164-2.434,0.805
		c-0.488,0.406-0.599,0.453-0.695,0.099c-0.219-0.798,0.488-2.974,1.758-4.836c0.707-1.039,0.898-1.337,1.125-0.941
		c0.926,1.599,2.906,1.267,3.656,0.363c0.91-1.091,0.719-3.578-1.34-4.238c-4.031-1.289-5.883,2.754-5.832,2.746l-0.863-4.853
		c4.855-1.188,7.656-1.604,9.195-3.077c1.215-1.156,1.793-3.16,1.641-4.941c0,0,13.48-5.478,19.789-8.875
		C142.863,160.396,152.48,152.621,152.48,152.621L152.48,152.621z M131.953,153.15l-0.996,1.756h-1.414l2.859,7.404l2.188-7.729
		l-1.363,0.121L131.953,153.15z M31.836,155.277l4.281,2.951c0.094,0.957,0.215,1.813,0.086,2.899l-4.508-2.981L31.836,155.277z
		 M115.355,154.371l-1.066,1.414l-1.227-0.129l2.405,7.332c0.734-2.117,1.398-4.996,2.125-7.117l-1.141,0.055L115.355,154.371z
		 M31.757,159.047l4.43,2.934c0.02,0.906,0.063,1.763-0.254,2.402l-4.179-2.684L31.757,159.047z M123.656,159.473l-1.074,2.066
		l-1.434-0.195l2.563,7.027l2.801-6.961l-1.734,0.094L123.656,159.473z M31.765,162.465l3.844,2.82
		c0.055,0.039-0.215,1.285-0.156,1.992l-3.653-2.25L31.765,162.465z M31.871,165.953l3.582,2.461
		c0.008,0.934,0.07,1.809,0.219,2.602l-3.887-2.522L31.871,165.953z M31.808,169.508l4.141,2.945l0.219,2.371l-4.387-2.76
		L31.808,169.508z M65.894,170.496c3.973,1.48,7.699,9.035,7.582,18.814c-0.078,6.793,1.973,16.485,1.934,16.373
		c0,0-1.153,0.155-1.477-0.099c-1.496-4.987-1.996-10.258-2.23-14.603c-0.196-3.625-0.403-7.184-0.633-8.012
		c-0.652-2.922-1.359-6.332-3.23-8.555c-1.454-1.676-3.114-1.965-4.106-0.086c-0.812,1.543,0.898,4.09,2.32,3.242
		c0.34-0.191,0.547-0.521,0.098-0.51c-1.477,0.221-2.465-1.818-1.531-2.793c1.64-1.711,4.515,2.104,3.183,4.2
		c-0.589,0.906-2.125,1.066-3.351,0.734c-2.735-1.32-3.422-4.56-2.504-6.688C62.644,170.891,64.175,169.922,65.894,170.496
		L65.894,170.496z M61.086,171.465c0.324,0.016,0.101,0.613-0.196,1.539c-0.703,2.227,0.617,5.684,2.442,6.375
		c0.547,0.371,0.519,0.512,0.152,0.719c-1.191,0.668-3.355-1.34-3.926-3.578c-0.414-1.617-0.313-3.53,0.469-4.34
		c0.422-0.445,0.762-0.676,0.992-0.711C61.043,171.469,61.066,171.465,61.086,171.465L61.086,171.465z M31.765,172.777l4.422,2.891
		c0.207,0.902,0.117,1.863-0.023,2.832l-4.426-3.082L31.765,172.777z M58.445,172.742c0.328-0.014,0.207,0.539,0.113,1.543
		c-0.211,2.318,0.512,4.008,2.149,5.41c0.695,0.59,0.883,0.777,0.586,1.086c-0.422,0.441-1.637-0.148-2.586-1.141
		c-1.739-1.813-2.317-5.238-0.961-6.478C58.043,172.891,58.273,172.746,58.445,172.742L58.445,172.742z M107.621,173.145
		c1.891-0.074,3.484,0.66,3.66,2.97c0.258,3.379-2.895,5.227-5.09,3.284c-1.969-1.944,0.026-4.996,2.309-3.565
		c1.148,0.724-0.223,2.371-1.148,1.521c-0.422-0.384-0.604-0.146-0.305,0.301c0.898,1.34,2.664,0.223,2.539-0.957
		c-0.25-2.324-3.102-2.293-4.176-1.385c-1.473,1.244-2.77,3.08-3.734,4.416c-0.793,1.155-0.961,1.125-0.844-0.306
		C101.141,175.637,104.675,173.258,107.621,173.145L107.621,173.145z M56.172,173.883c0.3-0.012,0.183,0.422,0.207,1.535
		c0.121,2.854,1.324,4.633,2.851,5.625c0.512,0.564-0.144,0.969-1.109,0.695c-2.192-0.678-4.43-5.391-2.571-7.414
		C55.808,174.039,56.015,173.891,56.172,173.883L56.172,173.883z M54.039,174.82c0.304-0.021,0.133,0.609,0.16,1.801
		c0.062,2.508,0.836,3.711,2.703,5.242c0.605,0.5,0.684,0.441,0.441,0.719c-0.636,0.732-2.8-0.305-3.722-1.805
		c-1.098-1.789-1.258-4.484-0.239-5.506C53.668,174.988,53.879,174.828,54.039,174.82L54.039,174.82z M51.918,176.025
		c0.254,0,0.113,0.453,0.152,1.535c0.094,2.625,0.691,3.928,2.359,5.143c1.047,0.762,1.301,0.535,0.981,0.836
		c-0.563,0.525-2.094,0.074-3.246-0.895c-1.723-1.459-2.207-5.047-0.805-6.277C51.609,176.146,51.785,176.025,51.918,176.025
		L51.918,176.025z M31.84,176.396l4.25,2.946l-0.122,2.484l-4.226-2.859L31.84,176.396z M106.125,181.059
		c-1.73-0.352-2.383-1.602-2.176-3.016c0.07-0.473,0.348-0.742,0.645-0.125c0.254,0.979,0.91,2.34,1.801,2.604
		C106.757,180.629,106.457,181.129,106.125,181.059L106.125,181.059z M68.929,178.125c1.95,4.91,1.918,10.271,2.239,15.344
		c0.429,6.738,1.625,11.277,2.011,12.039c0,0-1.902,0.023-2-0.254c0,0-1.797-8.934-1.527-13.352
		c0.02-4.945-0.941-9.295-1.531-11.246C67.5,178.926,67.472,180.07,68.929,178.125L68.929,178.125z M31.816,180.043l4.09,2.672
		c-0.059,0.914-0.066,1.828-0.055,2.742l-4.008-2.836L31.816,180.043z M86.777,179.813c0.004,0.148,0.594,0.273,1.516,0.052
		c1.019-0.246,2.039-0.203,2.828,0.016c0.836,0.226,0.926-0.043,0.172-0.371c-0.371-0.159-0.957-0.528-1.836-0.512
		C88.582,179.012,86.773,179.488,86.777,179.813L86.777,179.813z M103.335,179.711c0.099,0.184,0.41,0.594,0.688,0.918
		c0.526,0.609,0.676,0.613,0.434,0.863c-0.551,0.572-1.707-0.26-1.832-1.32C102.516,179.396,102.902,178.906,103.335,179.711
		L103.335,179.711z M66.738,179.918c1.906,2.723,2.187,9.102,2.23,13.637c0.036,4.082,1.414,11.566,1.528,11.535
		c-0.395,0.23-0.922,0.148-1.418-0.043c-0.492-0.637-0.793-2.43-1.363-7.285c-0.149-1.25-0.434-5.234-0.5-8.441
		c-0.059-2.827-1.637-8.952-1.637-8.952S66.191,179.93,66.738,179.918L66.738,179.918z M64.613,180.602
		c1.738,3.879,2.023,7.734,2.102,12.41c0.074,4.426,1.054,9.609,1.425,11.896c-0.586,0.063-1.207,0.108-1.453-0.152
		c-0.156-0.215-0.281-0.551-0.355-0.983c-0.793-3.83-0.981-7.988-1.207-11.508c-0.344-5.453-0.43-6.802-1.203-9.521
		c-0.438-1.543-0.594-1.513-0.262-1.81C63.914,180.707,64.394,180.594,64.613,180.602L64.613,180.602z M84.172,181.492
		c0.046,1.809,0.281,1.068,0.918,0.779c0.48-0.039,0.875,0.225,1.765,0.553c1.137,0.418,1.035,0.559,1.836,0.164
		c0.492-0.238,0.887-0.324,1.122-0.135c0.934,0.764,2.141,0.332,2.819-0.279c0.527-0.277,1.104-0.129,1.556-0.086
		c0.647,0.059,0.477-0.353,0.559-1.168c0.07-0.728-0.207-0.789-0.957-0.549c-0.77,0.25-1.531,0.287-2.195,0.082
		c-1.707-0.519-2.954-0.179-3.796-0.045c-1.997,0.313-2.102,0.108-2.555-0.177c-0.336-0.211-0.895-0.604-1.086-0.594
		C83.961,180.051,84.027,180.707,84.172,181.492L84.172,181.492z M101.875,180.664c0.188-0.1,0.277,0.16,0.539,0.504
		c0.445,0.574,0.574,0.848,0.203,0.896c-0.98,0.146-1.223,0.039-1.191-0.564C101.453,181.012,101.563,180.824,101.875,180.664
		L101.875,180.664z M62.562,181.52c1.438,1.449,1.805,9.578,1.965,11.328c0.52,9.484,1.422,10.849,0.957,11.56
		c-0.543-0.009-0.734,0.19-1.09-0.285c-1.23-3.474-1.16-7.043-1.359-10.668c-0.281-4.797-0.758-7.397-1.434-9.777
		c-0.449-1.582-0.441-1.61,0.367-2.043C62.113,181.559,62.433,181.516,62.562,181.52L62.562,181.52z M60.625,182.664
		c0.504,1.15,1.523,6.387,1.66,10.906c0.113,3.59,0.969,10.604,1.129,10.645c-0.524,0.047-1.153-0.059-1.407-0.457
		c-1.57-6.918-1.07-13.621-2.882-20.578C59.23,182.84,59.804,182.285,60.625,182.664L60.625,182.664z M31.879,183.516l4.238,3.039
		l0.09,2.594l-4.328-3.069V183.516z M94.878,183.188c-2.396,0.931-3.012,1.691-2.637,2.363c0.315,0.563,1.271,0.363,3.819-0.699
		c1.902-0.797,2.5-0.449,2.888,0.75c-0.017,1.773-1.738,1.98-2.707,1.738c-0.418-0.016-0.354,0.02,0.09,0.578
		c1.974,1.547,4.396-1.48,3.188-3.398C98.574,182.766,96.941,182.266,94.878,183.188L94.878,183.188z M79.855,183.906
		c-1.973,1.551-1.269,4.344,0.375,4.762c0.457,0.229,1.141,0.121,1.406-0.055c0.246-0.164,0.246-0.43-0.261-0.512
		c-1.524-0.254-2.391-1.375-1.653-2.509c0.715-1.102,2.039-0.891,4.59,0.207c2.203,0.949,3.168,0.656,3.43-0.485
		c0.113-0.5-0.027-0.972-1.082-1.01C83.718,184.195,81.769,182.406,79.855,183.906L79.855,183.906z M106.285,188.18
		c-0.133-0.801-1.438,0.023-2.305,1.445c-0.853,1.4-0.938,1.602-1.113,0.146c-0.258-2.168,1.992-3.865,3.398-3.92
		c1.69-0.191,2.801,0.752,2.844,1.844C109.195,189.84,106.632,189.857,106.285,188.18L106.285,188.18z M31.781,186.9l4.492,3.082
		c0,0,0.149,1.653,0.055,2.539l-4.508-2.886L31.781,186.9z M85.683,187.938c-1.953,1.32-0.804,3.738,0.559,4.013
		c1.441,0.284,1.543-0.72,0.109-1.017c-0.765-0.301-0.961-1.026-0.66-1.59c0.68-1.117,1.941-0.395,2.676-0.047
		c1.629,0.773,2.473,1.059,2.988,0.523c0.914-0.953,0.098-2.652-1.109-2.051c-0.324,0.16-0.57,0.313-1.262,0.141
		C87.933,187.689,86.668,187.457,85.683,187.938L85.683,187.938z M31.82,190.564l4.418,3.021l-0.137,2.676l-4.144-3.043
		L31.82,190.564z M31.91,194.238l4.156,2.961c-0.062,1.129-0.035,1.576,0.012,2.297l-4.199-2.711L31.91,194.238z M105.355,194.809
		c3.332,0.324,2.227,4.152-0.099,3.117c-0.62-0.465-0.809-0.43-1.495,1.25c-0.884,2.148-1.099,1.973-0.978-0.508
		C102.875,196.238,103.988,194.828,105.355,194.809L105.355,194.809z M79.117,195.391c0.078,0.004,0.14,0.017,0.18,0.047
		c0.226,0.254-0.45,1.25-1.024,1.836c-0.422,0.277-1.445-0.469-1.199-0.836C77.367,196.082,78.578,195.445,79.117,195.391
		L79.117,195.391z M83.558,197.357l-0.593,0.088c-0.899-2-2.766-1.545-3.344,0.315l-0.821-0.094
		C79.629,195.391,82.586,193.992,83.558,197.357L83.558,197.357z M100.328,197.814l-1.008,0.063
		c-0.902-2.172-2.184-2.496-3.266-0.353l-0.781-0.227C96.613,194.559,98.859,194.34,100.328,197.814L100.328,197.814z
		 M95.292,195.34c0.517-0.031,0.449,0.207-0.09,0.941c-0.466,0.637-0.578,0.734-1.048,0.387
		C93.387,196.098,94.664,195.383,95.292,195.34L95.292,195.34z M100.066,195.406c0.098,0.004,0.211,0.012,0.344,0.047
		c1.039,0.254,1.516,0.746,1.004,1.379c-0.316,0.395-0.625,0.547-0.836,0.285C99.878,195.961,99.492,195.371,100.066,195.406
		L100.066,195.406z M84.379,196.09c0.109,0.43-0.231,0.734-0.61,0.375c-0.156-0.145-0.289-0.395-0.269-0.574
		C83.738,195.664,84.304,195.852,84.379,196.09L84.379,196.09z M31.871,197.564l4.269,3.067c0.141,1.078,0.168,1.898,0.16,2.638
		l-4.394-2.912L31.871,197.564z M94.113,198.496c2.461,1.684,5.344,1.66,7.148,0.18c0.401-0.328,0.754-0.344,0.762-0.027
		c-0.258,1.185-3.396,2.699-5.844,1.841c-1.349-0.474-2.453-0.941-3.337-2.195C92.32,197.473,93.398,198,94.113,198.496
		L94.113,198.496z M93.07,199.314c3.598,3.104,6.453,2.24,8.621,0.678c0.32-0.082,0.324,0.207,0.395,0.74
		c0.094,0.688-0.477,1.024-2.035,1.494c-3.012,0.901-6.543-0.086-7.18-2.105C92.796,199.723,92.645,199.207,93.07,199.314
		L93.07,199.314z M31.855,201.172l4.328,2.973l-0.136,2.267l-4.219-2.849L31.855,201.172z M31.922,204.646l4.089,2.771l-0.015,1.879
		l-3.973-2.832L31.922,204.646z M61.609,205.531c17.434,3.945,29.79,2.07,41.918-0.066l10.742,21.07l-64.743,0.086
		C53.757,219.771,57.273,212.289,61.609,205.531L61.609,205.531z"/>
	<path d="M5.847,10.973v2.297h2.348v19.98H5.847v2.477h6.825V33.25h-1.809v-5.668l2.742-3.797l4.11,9.465H15.09v2.477h7.445V33.25
		h-1.778l-5.453-12.168l5.18-7.852l1.922,0.04v-2.297h-7.395v2.297h2.133l-6.281,9.636V13.27h1.863v-2.297H5.847z M63.238,23.309
		l3.227,6.031l0.003,0.285l1.786,3.48l0.269,0.172l0.402,0.762l0.043,0.367L69.965,36l-0.008,0.34l4.226,7.855
		c3.48-1.297,32.098-3.64,42.695,0.192l1.543-2.617h0.367l2.723-4.778l-0.043-0.398l0.914-1.047l0.134-0.473l3.004-4.699
		l0.012-0.758l3.754-6.262L63.238,23.309z M128.031,24.211c0,0-1.961,3.766-2.969,5.289c-0.816-0.645-3.185-0.207-3.043,2.289
		c-3.863-1.465-4.793,3.141-1.81,4.18c-1.53,1.336-2.996-0.176-4.155-1.203c-1.138,0.281-3.496,1.117-4.828-1.34
		c0,0,0.559,0.301,1.112,0.629c3.16,0.961,3.414-3.301,1.063-3.996c-0.293-0.079-0.853-0.11-0.853-0.11
		c0.789-3.277-4.276-4.422-4.375-0.484c0,0-0.602-0.098-1.059-0.016c-2.688,0.492-2.07,4.453,0.676,4.262
		c0.379-0.024,0.715,0.043,0.715,0.043c-0.043,0.633-3.366,1.848-5.762-0.336c-1.138,0.863-2.935,1.949-5.277-0.207
		c1.544-0.063,3.021-0.504,3.005-2.25c-0.013-1.137-1.035-2.152-2.513-2.207c-0.082-1.27-1.026-2.481-2.258-2.574
		c-1.5,0.086-2.267,1.297-2.277,2.574c-1.276,0.133-2.469,1.258-2.194,2.547c0.375,1.761,1.729,1.976,3.276,1.64
		c-1.883,3.028-4.945,1.45-5.891,0.485c-1.125,1.051-3.086,2.469-5.504,0.527c1.289-0.219,2.719-0.976,2.477-2.773
		c-0.188-1.414-1.778-1.836-2.469-1.762c0-0.934-0.707-2.477-2.375-2.316c-1.821,0.171-1.711,2.472-1.692,2.492
		c-1.504-0.125-2.593,1.644-2.164,2.773c0.52,1.371,1.614,1.797,3.621,1.426c-2.343,2.199-3.828,1.348-5.109,0.883
		c-1.129,1.187-2.641,1.57-4.187,0.519c3.464,0.164,2.91-5.961-1.196-3.738c-0.355-1.148-0.887-2.562-3.039-2.234l-2.449-4.735
		L128.031,24.211z M48.711,28.125c-0.176,0.004-0.356,0.012-0.539,0.023c-6.633,0.426-9.086,5.036-8.774,9.122
		c0.211,2.753,1.715,5.109,3.902,6.382c0.938,0.715,1.133,0.985,0.969,1.317c-0.195,0.394-0.457,0.359-0.988-0.129
		C35.691,37.578,25,46.105,29.73,55.523c3.758,7.489,14.309,5.754,16.57-2.671c0.18-0.668,0.469-0.961,0.782-0.778
		c0.222,0.133,0.047,1-0.133,2.321c0.016,4.769-4.949,12.277-5.231,12.531l13.016-0.012C51.75,62.836,50,58.84,49.636,53.02
		c-0.035-1.762,0.621-1.387,1.18,0.609c2.543,9.113,14.129,9.027,16.758,0.152c2.453-8.281-6.77-15.199-12.879-9.625
		c-0.879,0.801-1.477,0.949-1.488,0.364c-0.004-0.247,0.816-1.168,1.57-1.754c1.523-1.192,2.797-3.414,2.809-5.672
		C57.613,32.539,54.226,28.062,48.711,28.125L48.711,28.125z M41.718,66.926h-0.015C41.703,66.934,41.711,66.934,41.718,66.926
		L41.718,66.926z M95.75,30.246c0.168-0.008,0.344,0.027,0.52,0.117c0.543,0.274,0.646,0.758,0.313,1.465
		c-0.117,0.25-0.285,0.539-0.258,0.801c3.815,7.035,12.227,3.891,13.021,0.621c0.047-0.207-0.048-0.434-0.156-0.656
		c-0.324-0.535-0.281-0.977,0.141-1.344c0.895-0.785,2.176,0.141,1.656,1.199c-0.137,0.278-0.281,0.582-0.176,0.957
		c2.16,4.903,6.461,5.27,10.065,3.332c-1.66,2.973-8.104,4.797-10.81-2.367c-4.315,5.836-11.172,5.727-14.28-0.863
		C92.988,40.25,84.55,40.41,81.48,34.809c-2.797,6.406-9.277,4.953-11.113,0.945c6.019,4.355,9.988-0.192,10.703-2.133
		c0,0-0.141-0.226-0.332-0.414c-0.77-0.758-0.75-1.648,0.047-2c1.023-0.453,1.98,0.531,1.457,1.492
		c-0.149,0.274-0.277,0.332-0.18,0.563c1.875,4.371,11.105,5.636,12.973-0.489c0.063-0.351,0.027-0.675-0.133-0.941
		C94.464,31.102,95.023,30.277,95.75,30.246L95.75,30.246z M68.804,32.719c1.457,0.082,1.051,1.336,0.758,1.429L68.804,32.719z
		 M122.867,33.5c0.008,0.023-0.898,1.621-0.898,1.621C121.488,34.355,121.613,33.398,122.867,33.5L122.867,33.5z M117.945,41.574
		c0,0-0.93,2.059-1.238,2.231c-17.246-4.418-41.309-0.578-41.898-0.153L73.75,41.66C88.871,38.637,103.945,39.281,117.945,41.574
		L117.945,41.574z M13.597,40.879c-0.535,0.004-1.097,0.129-1.679,0.391c-2.996,1.363-3.254,4.8-0.559,7.519
		c0.426,0.43,0.781,0.844,0.781,0.91c0.008,0.309-0.297,0.25-1.031-0.191c-4.121-2.485-8.144,0.496-6.469,4.797
		c1.352,3.472,6.696,2.945,7.524-0.743c0.109-0.492,0.465-0.792,0.621-0.527c0.137,0.227-0.258,2.106-0.656,3.149
		c-0.52,1.371-0.832,2.089-1.145,2.648c-0.383,0.68-0.41,0.906-0.113,0.977c0.426,0.101,5.097-0.028,5.094-0.141
		c0-0.063-0.196-0.52-0.438-1.02c-0.937-1.949-1.652-5.328-1.211-5.711c0.25-0.218,0.336-0.105,0.672,0.891
		c1.672,4.945,7.887,3.754,7.766-1.488c-0.079-3.567-3.34-5.129-6.282-3.016c-0.668,0.481-0.867,0.508-0.929,0.133
		c-0.024-0.148,0.093-0.316,0.328-0.477C19.597,46.461,17.336,40.832,13.597,40.879L13.597,40.879z M88.812,72.133
		c-1.664,6.422-5.695,7.078-10.562,7.859c-6.032,0.965-9.961-1.23-11.801-4.59c0,0-8.625,3.262-11.77,5.153
		c6.543,3,15.188,9.636,20.102,17.172c1.75,2.3,1.664,1.781,1.66,6.82c-0.008,10.933,0.02,14.996,0.02,14.996
		c2.699,0.406,2.847,2.262,2.699,4.348c2.168-0.957,4.254,0.214,4.242,2.257c-0.016,3.759-3.707,2.738-4.477,2.324
		c1.204,3.313-0.207,4.685-1.648,4.849c-1.773,0.198-3.809-0.652-3.215-4.445c-1.933,0.75-4.383-0.612-4.722-2.897l-0.094-3.864
		c4.781-9-1.223-16.32-6.864-18.726c0,0,1.598-3.301,3.661-4.227c0.211-0.062-1.25-2.203-3.707-1.738
		c-1.133,0.023-0.868,0.015-1.93-1.363c-2.106-2.731-3.094-2.918-5.145,0.003c-0.898,1.286-1.117,1.321-2.183,1.34
		c-1.172,0.028-2.977,0.871-3.363,1.625c-0.086,0.172,0.371,0.348,0.984,1.063c0.883,1.027,2.242,2.441,2.027,3.879
		c-4.644,1.89-12.347,10.179-4.25,20.798l-5.855,0.073L42.34,87.055l-4.071,2.265l0.18,29.598l-1.16-0.387
		c0.09-9.438-0.055-18.871-0.352-28.308l-10.742,7.828l0.48,44.375l1.141,0.242c0.848,6.047,12.828,1.814,13.527,2.344l0.141,24.656
		l-0.523,1.223l9.531,5.211l8.742-4.535c0,0,1.18-0.211,1.621-0.444c3.625-1.91,6.328-1.479,8.301,1.319
		c1.215,1.73,1.422,1.984,1.422,1.984c0.734-4.988,5.156-6.824,9.445-5.523c3.156,0.962,7.465,4.103,8.785,7.941
		c0,0,0.239,0.578,0.473,0.836l0.18,0.078c-0.012-0.098-0.207-0.578-0.281-0.809c-4.425-10.16-16.89-11.721-18.813-3.418
		l-1.766-2.473l9.281-5.691l12.685,8.344c0,0-0.599,2.938-0.664,4.203l0.219,0.102c0.063-0.16,0.152-0.77,0.207-1.147
		c0.203-1.388,0.57-2.552,1.066-3.441c0.301-0.534,0.647-0.973,1.039-1.297c0.758-0.442,1.461-0.396,2.229-1.116l-1.853-1.384
		l-0.043-4.444l3.724,5.213c1.172-0.271,5.729-1.631,8.434-0.125c0.306,0.096,4.271-1.033,6.738,4.498l11.892-4.938
		c0,0,0.758-0.426,0.766-0.539c-11.855-4.375-23.824-19.862-22.672-20.112c0,0-0.035-1.587,0.055-5.484
		c0.098-4.348,0.043-8.785,0.117-13.146c-4.035-1.288-3.031-4.538-3.031-4.538c-2.426,0.53-2.813,0.063-3.426-0.367l-0.418-4.114
		c1.453-1.238,2.328-1.351,4.125-0.957c0,0-0.871-1.789-0.078-3.258c0.668-1.164,2.445-1.898,3.867-1.082
		c1.836,1.25,1.25,3.871,0.988,4.239c1.905-0.856,4.237,0.097,4.813,1.984c0.285-5.578,0.77-11.824,1.887-16.687
		c2.066-8.782,5.445-17.977,9.676-25.208c0.691-1.207,1.578-2.417,2.289-3.546c0.664-1.008,0.977-1.661,0.977-1.661
		s-0.901,0.497-1.862,0.766c-1.375,0.371-2.414,0.731-2.569,0.887c-1.009,0.847-2.332,1.476-3.41,1.945
		c-3.81,1.481-6.367-0.726-7.949-4.101c-0.879,4.285-4.809,7.91-10.602,5.656c-3.271-1.735-4.302-2.848-7.36-7.379
		C89.476,72.668,88.812,72.133,88.812,72.133L88.812,72.133z M88.937,72.836c2.168,4.281,5.411,7.316,8.563,8.527
		c5.625,1.844,9.34-1.758,10.387-5.066l1.086,1.836l-8.522,6.051l-12.856-8.172C87.808,75.812,88.957,72.934,88.937,72.836
		L88.937,72.836z M127.628,73.129l-3.815,2.25c0,0-2.535,4.09-3.388,5.629c-4.452,7.863-7.793,16.422-9.538,24.91
		c-0.703,3.105-1.449,8.785-1.699,11.516c-0.398,4.351-0.379,6.14-0.267,10.13l0.302,0.326c0,0-0.47,0.819-0.806,1.512
		c-0.91,1.879-1.133,2.94-1.078,5.119c0.125,5.018,3.177,9.817,7.479,11.774c0.246,0.108,0.566,0.254,0.566,0.254
		s-0.738,1.996-2.078,3.398c-0.895,0.94-1.086,0.983-0.77,1.444c0.441,0.646,1.859,1.199,3.621,1.176
		c0.625-0.012,0.621-0.012,1.773,1.242c2.25,2.453,2.926,2.402,4.977-0.375c0.605-0.828,0.953-1.022,1.844-1.047
		c1.309-0.031,3.695-1.086,3.684-1.578c-1.608-0.715-3.477-4.391-3.18-4.43c8.809-4.66,10.672-14.316,4.242-21.418l6.141-0.099
		l0.228,38.528c1.202-0.802,3.922-2.517,3.922-2.517l-0.09-29.981c0.422,0.08,0.854,0.385,1.676,0.518l0.242,28.348
		c0,0,0.797-0.324,1.491-0.777c3.435-2.262,10.152-7.491,10.152-7.491l-0.23-43.688h-0.895l0.141,43.668l-10.426,7.613l-0.07-27.137
		c0,0,0.824-0.125,1.134-0.168c3.051-0.428,4.465-4.316,2.44-6.859c-0.723-0.902-0.211-0.84,1.32-1.133
		c2.711-0.238,4.211-2.285,3.422-3.746c-0.336-0.629,0.103-0.559,0.391-1.156c0.188-0.469,0.152-1.047,0.07-1.508
		c-0.104-0.606,0.142-0.871,0.293-1.258c0.242-0.601,0.008-1.285-0.391-1.851c-0.422-0.598-0.305-1.239-0.309-1.637
		c-0.021-0.887-0.34-1.012-1.281-1.871c-0.711-0.649-0.137-0.789,0.906-1.325c1.645-0.847,1.758-3.843-0.43-5.121
		c-1.168-0.679-3.298-0.625-7.91,0.102c-1.746,0.277-3.802,0.461-3.802,0.461s-0.016-17.078-0.137-25.883L127.628,73.129z
		 M127.628,73.734c0,0,9.367,5.477,9.293,5.629c-3.146,4.309-14.875,21.469-14.961,42.223c-8.603-1.082-12.121,5.645-12.539,5.617
		c-1.133-25.398,9.181-43.574,14.461-51.285L127.628,73.734z M121.723,77.074l-0.027,0.621l-1.855,2.774l-0.051-2.774
		L121.723,77.074z M118.859,78.039l0.065,4.469l-3.801,2.902l-0.224-4.656L118.859,78.039z M83.617,79.062l1.957,1.352l-0.07,4.43
		l-2.942-5.352L83.617,79.062z M137.102,80.555l0.016,3.207c-7.496,10.574-11.43,22.648-12.633,37.941l-1.824-0.058
		C123.145,106.437,128.262,92.562,137.102,80.555L137.102,80.555z M86.336,80.883l4.621,3.023l-0.199,5.055l-4.195-2.695
		l-0.394-1.032L86.336,80.883z M114.328,81.098l-0.02,4.699l-3.57,2.652l-0.168-4.664L114.328,81.098z M71.035,82.328
		c0.531,0.008,0.953,0.395,1.055,1.125c0.39,3.121,2.769,2.223,3.332,3.16c0.214,0.321-0.293,0.598-1.918,0.469
		c-2.985-0.223-5.157-2.637-3.633-4.227C70.261,82.496,70.675,82.324,71.035,82.328L71.035,82.328z M91.648,84.344l3.949,2.515
		l-0.013,5.188l-3.871-2.36L91.648,84.344z M109.667,84.359l0.306,4.59l-4.324,2.871l-0.152-4.558L109.667,84.359z M117.891,84.375
		l-2.48,5.285l-14.48,10.418l-12.016-7.781l-2.231-5.098l14.02,9.145L117.891,84.375z M78.843,86.473
		c3.848-0.047,6.801,4.039,7.813,7.617c0.734,2.363,0.844,3.215,0.922,6.972c0.082,3.829,0.199,4.489,0.918,5.028
		c0.441,0.332,0.57,0.242,0.625-0.434c0.125-1.504,1.922-0.578,1.953,1.008c0.035,1.758-1.902,2.324-3.332,0.973
		c-0.762-0.719-0.774-0.711-1.012,0.703c-0.16,0.945-1.262,6.875,1.559,8.351c0.531,0.051,0.656-0.375,0.261-0.871
		c-0.789-0.992,0.79-2.14,2.079-1.508c1.559,0.766,1.402,3.274-0.262,4.168c-1.902,1.02-4.363-0.14-5.516-2.597
		c-0.844-1.805-0.84-4.309,0.016-8.028c0.394-1.714,0.566-2.804,0.656-4.117c0.031-0.433,0.082-0.902,0.113-1.047
		c0.094-0.398-0.105-0.418-0.789-0.074c-1.863,0.938-3.894,0.27-4.394-1.445c-0.598-2.051,1.691-4.172,3.101-2.875
		c0.536,0.492,0.473,0.984-0.168,1.297c-1.113,0.547-0.734,1.988,0.446,1.703c3.89-1.164,0.336-12.078-4.047-12.836
		c-2.895-0.5-5.168,2.801-3.07,4.562c0.82,0.692,1.652,0.321,1.472-0.656c-0.25-1.359,1.559-1.215,2.231,0.184
		c1.089,2.269-1.723,4.121-4.352,2.863C71.355,92.613,74.578,86.559,78.843,86.473L78.843,86.473z M96.289,87.34l3.879,2.609
		l0.035,5.063l-3.855-2.285L96.289,87.34z M104.839,87.777l0.017,4.653l-3.742,2.722v-4.949L104.839,87.777z M114.925,90.828
		l-1.913,5.336l-12.091,8.266l-9.973-6.254l-1.715-4.938l11.75,7.614L114.925,90.828z M36.472,91.215l-0.004,27.015
		c-3.918,0.168-6.164,4.043-3.23,7.704c0,0-0.512,0.066-1.109,0.148c-2.653,0.367-4.426,1.77-4.075,3.473
		c0.11,0.521,0,1.047-0.152,1.31c-0.234,0.698-0.172,1.233,0.145,1.836c0.25,0.473,0.207,0.664,0.066,1.016
		c-0.297,0.755-0.227,1.336,0.125,1.91c0.437,0.431,0.316,0.772,0.258,1.457c-0.071,0.965,0.105,1.354,0.711,1.729
		c0.785,0.484,1.078,1.281,0.187,1.215c-0.445-0.03-2.004,1.474-2.004,1.474l-0.148-43.355L36.472,91.215z M57.711,94.68
		c0.703,0,1.421,0.879,2.461,2.367c0.625,1.062,0.636,0.918,2.07,0.863c1.461,0.105,2.355,0.492,2.738,0.934
		c0.145,0.168-0.242,0.211-1.168,1.152c-0.957,0.973-1.094,1.359-1.73,2.449c-0.231,0.395-0.731,0.434-0.965,0.075
		c-0.192-0.293,0.297-1.235,1.207-2.348c1.285-1.238,1.016-1.363-0.852-1.168c-1.312,0.137-1.453,0.07-1.949-0.727
		c-1.488-2.949-2.277-2.851-3.699,0.094c-0.387,0.824-0.234,0.77-1.914,0.641c-1.324-0.102-1.653,0.23-0.906,0.925
		c1.168,0.961,1.621,3.219,1.558,3.192l-0.902,0.082c0,0-0.274-0.508-0.395-0.828c-0.246-0.649-0.902-1.625-1.617-2.395
		c-1.008-1.09-0.453-1.687,1.801-1.933c1.258-0.133,1.285-0.153,1.863-0.996C56.332,95.566,57.011,94.684,57.711,94.68L57.711,94.68
		z M112.542,97.371l-1.301,4.609l-10.313,7.231l-8.387-5.598l-1.113-4.336l9.637,6.106L112.542,97.371z M76.992,101.02
		c0,0,2.98,5.808,4.062,9.57c0.942,3.273,2.25,12.75,1.903,13.332c-0.731-1.004-3.153-0.777-3.184-0.77
		c0.203-1.109-0.695-3.347-2.758-3.789L76.992,101.02z M110.917,103.145l-1.026,4.539l-8.781,6.347l-7.246-4.949l-0.949-4.387
		l8.016,5.356L110.917,103.145z M59.871,103.398l1.14,0.395l0.215,8.195l8.785,1.461l0.2,1.403l-10.172-1.641
		C59.933,109.715,59.871,103.398,59.871,103.398L59.871,103.398z M55.414,103.641l0.246,9.531c-0.094-0.031-7.324,1-10.09,1.726
		l0.164-1.304c0,0,5.023-1.094,8.66-1.516c0-2.664-0.019-5.465-0.023-8.183L55.414,103.641z M137.141,105.395
		c0,0,1.194,0.113,3.75-0.336c6.594-1.157,8.379-0.688,9.223,1.343c0.922,3.153-2.535,3.231-3.148,1.227
		c-0.395-1.297-1.809-1.012-6.535,0.109c-4.047,0.957-6.604,0.192-6.559-2.097C133.921,103.285,136.605,103.074,137.141,105.395
		L137.141,105.395z M82.957,103.672c0.812-0.012,1.488,0.64,1.5,1.457c0.011,0.816-0.641,1.484-1.457,1.496
		c-0.817,0.012-1.485-0.637-1.496-1.453C81.492,104.359,82.14,103.684,82.957,103.672L82.957,103.672z M61.535,103.934l1.043,0.312
		c0,0,0.152,6.219,0.183,6.227c2.239,0.492,6.946,1.375,6.946,1.375l0.246,1.23c-1.969-0.461-8.242-1.488-8.242-1.488
		C61.511,108.895,61.535,103.934,61.535,103.934L61.535,103.934z M53.937,104.051c0,0,0.004,4.961-0.082,7.625
		c0.035-0.024-5.324,0.855-8.047,1.418l0.211-0.996c2.153-0.485,4.496-0.973,6.867-1.469c-0.046-1.953-0.043-6.231-0.043-6.231
		L53.937,104.051z M57.765,105.117c0.653-0.008,1.196,0.52,1.207,1.172c0.008,0.656-0.519,1.191-1.175,1.199
		c-0.653,0.012-1.188-0.508-1.2-1.164C56.59,105.668,57.109,105.125,57.765,105.117L57.765,105.117z M146.973,108.215
		c0.729,1.078,1.34,1.047,2.059,0.941c-0.18,0.055-1.031,0.555-0.98,0.723c0.023,0.082-0.359,1.445,0.223,1.504
		c2.188,0.211,1.082,2.48,1.345,2.832c0.59,0.672,1.022,1.101,0.616,1.941c-0.358,0.746-0.875,0.723-0.477,1.364
		c0.875,1.308-0.332,1.582-0.227,2.472c0.074,0.539,0.266,1.274,0.066,1.695c-0.603,1.262-2.716,1.981-5.066,2.083
		c-0.336,0.011-0.082-0.536-0.238-0.879c-0.582-0.368-0.262-0.989-0.066-1.395c0.191-0.535,0.195-0.535-0.168-0.809
		c-1-0.625-0.949-0.91-0.871-1.363c0.224-1.332,0.017-1.461-0.387-1.66c-0.516-0.25-0.445-0.812-0.215-1.535
		c0.156-0.496,0.047-0.621-0.195-1.074c-0.145-0.266-0.188-0.41-0.19-0.578c0.073-0.692-0.543-0.688-1.406-0.012
		c-0.729,1.258-0.979,2.914-1.44,3.957c-0.353,0.805-0.41,1.644,0.012,3.496c0.813,2.828,0.211,3.301-2.977,2.695
		c-2.396-0.59-3.103-3.144-2.435-6.273c0.104-0.504,0.078-0.996,0.026-1.391c-0.258-2.152,0.297-4.222,1.802-5.637
		c2.508-2.355,3.75-2.714,8.934-2.386c2.031,0.144,2.185,0.273,2.185,0.273S146.91,108.223,146.973,108.215L146.973,108.215z
		 M109.621,108.863l-0.605,4.387l-4.867,3.434c-2.293-1.809-4.063-1.207-5.676,0.734c-1.277-0.648-3.832-2.414-3.832-2.414
		l-0.652-4.977l7.078,4.91L109.621,108.863z M57.871,109.902c0.652-0.007,1.188,0.516,1.199,1.172
		c0.008,0.653-0.512,1.192-1.168,1.203c-0.652,0.008-1.195-0.511-1.207-1.168C56.687,110.457,57.215,109.914,57.871,109.902
		L57.871,109.902z M108.805,114.395l-0.267,4.226l-1.729,1.301l-1.742-0.18l-0.414-2.617L108.805,114.395z M57.84,114.43
		c0.656-0.012,1.195,0.519,1.207,1.172c0.007,0.656-0.52,1.191-1.172,1.199c-0.657,0.011-1.192-0.512-1.2-1.164
		C56.664,114.98,57.183,114.437,57.84,114.43L57.84,114.43z M62.613,114.562c0.656-0.011,1.191,0.512,1.199,1.165
		c0.012,0.656-0.508,1.195-1.164,1.203c-0.656,0.011-1.195-0.516-1.203-1.168C61.437,115.105,61.961,114.57,62.613,114.562
		L62.613,114.562z M53.121,114.789c0.656-0.012,1.195,0.512,1.203,1.168c0.008,0.656-0.512,1.195-1.164,1.203
		c-0.656,0.008-1.199-0.515-1.207-1.168C51.941,115.336,52.465,114.797,53.121,114.789L53.121,114.789z M141.3,114.98
		c0.332-0.027,0.828,0.469,0.587,1.211c-0.32,0.848-0.095,1.133,0.44,1.821c0.457,0.582,0.375,0.664,0.305,1.035
		c-0.103,2.437,1.47,1.383,0.785,3.156c-0.147,0.387,0.051,0.938,0.117,1.391c-0.152-0.418-3.043-0.379-3.289,0.047
		c-0.41-0.063-0.931-2.778-0.517-3.137c0.056,0,0.355,0.469,0.508,0.73c0.392,0.657,0.474,0.633,0.353-0.129
		C140.109,118.078,140.398,115,141.3,114.98L141.3,114.98z M67.402,115.191c0.652-0.007,1.191,0.516,1.203,1.168
		c0.008,0.657-0.515,1.192-1.172,1.2c-0.652,0.011-1.188-0.508-1.199-1.164C66.226,115.738,66.746,115.199,67.402,115.191
		L67.402,115.191z M48.195,115.41c0.656-0.008,1.191,0.516,1.199,1.168c0.012,0.656-0.512,1.192-1.164,1.199
		c-0.656,0.012-1.199-0.507-1.207-1.164C47.011,115.957,47.539,115.418,48.195,115.41L48.195,115.41z M94.691,115.754l3.555,2.305
		c0.059,0.726-0.035,1.765,0.203,2.117c-2.32-0.215-3.492,1.105-3.492,1.105L94.691,115.754z M58.226,117.656
		c3.891,0.031,7.66,0.649,11.156,1.781l-0.273,1.254c-7-1.804-14.824-1.898-22.301,0.082l-0.582-1.316
		c3.766-1.172,7.547-1.746,11.223-1.797C57.711,117.66,57.968,117.656,58.226,117.656L58.226,117.656z M36.238,119.359
		c1.019-0.019,2.062,0.364,2.797,1.184c1.379,1.543,0.715,4.405-1.235,5.32c-2.914,1.359-5.953-1.551-4.714-4.554
		C33.601,120.062,34.929,119.383,36.238,119.359L36.238,119.359z M108.395,119.727l-0.043,1.253l-0.888-0.738L108.395,119.727z
		 M89.843,119.781c1.285-0.019,2.341,1.012,2.359,2.297c0.021,1.285-1.009,2.344-2.293,2.363c-1.285,0.016-2.344-1.007-2.36-2.296
		C87.531,120.859,88.558,119.801,89.843,119.781L89.843,119.781z M36.304,119.855c-0.316,0.004-0.836,0.133-1.074,0.352
		c-0.617,0.574,0.004,0.59,0.824,0.738c1.453,0.27,1.856,1.524,1.723,2.875c-0.121,1.231,0.293,1.21,0.625,0.754
		C39.761,122.715,38.601,120.008,36.304,119.855L36.304,119.855z M103.843,120.477c-0.03,0.015-0.065,0.035-0.065,0.035
		C103.792,120.527,103.816,120.508,103.843,120.477L103.843,120.477z M57.851,121.207c1.742-0.035,1.922,2.828,0.383,6.025
		c-0.461,0.963-0.699,0.846-1.207-0.607C55.777,123.043,56.047,121.246,57.851,121.207L57.851,121.207z M61.879,121.289
		c0.336-0.016,0.66,0.113,0.929,0.414c0.934,1.07,0.215,2.797-2.281,5.457c-0.605,0.645-0.918,0.891-1.141,0.895
		c-0.625,0.017-0.621-0.09,0.086-2.397c0.313-1.016,0.621-2.133,0.688-2.48C60.367,122.066,61.14,121.328,61.879,121.289
		L61.879,121.289z M55.578,123.852c0.168,0.793,0.469,1.894,0.66,2.449c0.191,0.559,0.316,1.086,0.285,1.176
		c-0.152,0.426-1.266-0.156-2.058-1.074c-1.598-1.854-2.239-3.472-1.907-4.339c0.485-0.691,1.727-1,2.297-0.394
		C55.445,122.297,55.531,123.637,55.578,123.852L55.578,123.852z M66.593,122.004c1.684,0.992-0.257,3.262-4.031,5.145
		c-1.617,0.806-1.5,0.441-0.277-1.147c0.469-0.604,1.097-1.598,1.406-2.203C64.367,122.461,65.047,121.125,66.593,122.004
		L66.593,122.004z M49.773,122.012c0.535-0.004,1.082,0.566,2.094,2.035c0.453,0.656,1.187,1.586,1.637,2.07
		c0.445,0.484,0.796,0.969,0.777,1.068c-0.172,1.032-5.43-2.229-5.809-3.604C48.343,122.746,49.004,121.996,49.773,122.012
		L49.773,122.012z M125,124.996c0.949,1.949,1.031,3.164,0.246,3.605c-1.113,0.625-2.547-0.332-2.574-1.72
		c-0.012-0.465-0.488-2.094-0.93-3.149c-0.359-0.871-0.41-1.406-0.113-1.449C122.792,122.473,124.512,124.082,125,124.996
		L125,124.996z M118.71,123.52c-0.367,1.113-0.754,2.851-0.75,3.359c0,0.199-0.121,0.609-0.267,0.906
		c-0.961,1.98-3.237,0.367-2.401-1.703c0.758-1.867,2.681-3.812,3.438-3.875C119.246,122.164,118.762,123.355,118.71,123.52
		L118.71,123.52z M120.246,122.449c0.379-0.039,0.695,0.793,1.188,2.192c0.664,1.886,0.637,3.359-0.078,3.984
		c-1.53,1.344-3.141-0.605-2.52-3.061C119.328,123.609,119.816,122.492,120.246,122.449L120.246,122.449z M68.863,122.797
		c1.906,28.055-12.477,49.641-13.5,50.227l-4.895,2.677l-8.586-4.677c8.899-12.194,14.215-26.176,14.618-42.414
		C64.73,129.41,68.965,122.824,68.863,122.797L68.863,122.797z M116.027,122.883c0.598-0.164,0.18,0.359-0.414,1.219
		c-0.637,0.918-1.461,3.41-2.117,3.808c-1.465,0.703-3.125-0.641-2.238-1.809C112.078,125.026,114.488,123.305,116.027,122.883
		L116.027,122.883z M124.757,123.074c0.229,0,0.66,0.153,1.285,0.457c3.056,1.492,4.563,3.461,3.254,4.402
		c-0.918,0.66-1.897,0.148-2.815-1.594c-0.313-0.59-0.879-1.469-1.263-1.953C124.531,123.508,124.371,123.074,124.757,123.074
		L124.757,123.074z M141.938,124.074c1.961-0.027,3.578,1.535,3.604,3.5s-1.539,3.582-3.504,3.609
		c-1.965,0.026-3.578-1.543-3.604-3.509C138.402,125.711,139.973,124.102,141.938,124.074L141.938,124.074z M140.855,124.996
		c-2.313,1.023-1.617,4.65,0.375,5.176c0.844,0.234,1.862-0.113,1.444-0.52c-2.633-0.824-2.647-2.767-1.59-4.185
		C141.257,125.242,141.027,124.922,140.855,124.996L140.855,124.996z M44.601,129.988c-0.09,2.051,0.352,4.426-0.625,6.652
		c-1.484,3.42-6.254,4.983-8.801,4.68c-0.531-0.217-1.148-0.424-1.671-0.203c-0.317,0.137-0.707,0.115-1.043-0.039
		c-0.329-0.152-0.641,0.047-0.957-0.066c-0.368-0.25-0.969-0.816-0.899-1.238c0.113-0.594,0.067-1.03-0.629-1.227
		c-0.961-0.273-1.156-0.793-0.875-2.316c0.063-0.332,0.137-0.479-0.078-0.625c-0.711-0.473-0.98-1.352-0.512-2.28
		c0.305-0.531,0.539-0.91-0.007-1.332c-0.215-0.488-0.18-0.677,0.285-1.302c0.496-0.59,0.582-0.655,0.265-1.164
		c-0.714-1.137,0.094-1.977,1.055-2.444c1.289-0.526,2.414-0.801,3.773-0.957c0.504,0.026,0.485,0.474,0.79,0.901
		c0.445,0.695-0.184,1.703,0.179,2.06c0.528,0.242,0.766,0.726,0.723,1.144c-0.016,0.967,0.043,1.299,0.305,1.701
		c0.289,0.448,0.398,1.27,0.125,1.832c-0.239,0.495-0.215,0.461,0.101,0.754c0.317,0.293,0.469,1.75,0.36,1.723l1.32-0.121
		c-0.137,0.145,0.496-2.727,2.004-4.945c-0.082-1.738-0.746-3.336-0.688-5.633C42.367,124.371,44.726,127.145,44.601,129.988
		L44.601,129.988z M95.313,126.082c0.469,0.367,2.809,1.02,2.895,0.945c-0.074,1.119,0.609,3.297,3.047,4.022
		c0.031,3.125,0.004,17.543,0.004,17.543C97.863,142.902,95.757,135.555,95.313,126.082L95.313,126.082z M38.488,126.59
		c0,0,0.129,0.414,0.246,1.219c0.211,1.642-0.016,1.863-0.449,0.742c-0.512-1.313-0.539-0.289,0.035,2.715
		c0.141,0.728,0.133,0.898-0.043,1.387c-0.113,0.31-0.312,1.023-0.469,1.587c-0.461,1.647-0.726,2.125-1.199,0.813
		c-0.242-0.672-0.441-0.778-0.269-1.301c0.214-0.656,0.16-1.147-0.27-1.785c-0.07-0.106-0.227-0.344-0.254-1.024
		c0.133-1.521-0.547-1.537-0.68-1.928c0.024-0.599-0.254-2.044,0.157-2.005c0.336,0.031,1.558,0.066,2.136-0.149
		C37.687,126.766,38.488,126.59,38.488,126.59L38.488,126.59z M89.125,126.777c1.262-0.021,2.296,0.992,2.316,2.254
		c0.02,1.262-0.988,2.297-2.25,2.313c-1.262,0.021-2.305-0.984-2.32-2.246C86.851,127.836,87.863,126.797,89.125,126.777
		L89.125,126.777z M53.851,128.168l1.735,0.328c0.382,0.129,0.101,24-13.754,41.227l-0.121-3.992
		C48.304,156.189,53.054,144.488,53.851,128.168L53.851,128.168z M83.207,128.672l0.316,5.703c-0.973-0.828-3.449-2.383-3.43-2.414
		l0.012-2.109C80.105,129.854,82.23,130.016,83.207,128.672L83.207,128.672z M69.863,128.75c0.418,0.176,0.781,0.582,1.141,0.871
		l-1.133,0.762L69.863,128.75z M109.527,129.039c7.473,2.215,14.836,2.15,22.113,0.531l0.496,1.395
		c-7.896,2.141-15.742,2.016-23.544-0.473L109.527,129.039z M73.324,130.104l0.402,2.457l-4.219,2.731l0.204-3.733l2.199-1.427
		L73.324,130.104z M110.667,132.15c0.685-0.006,1.242,0.535,1.254,1.221c0.009,0.68-0.534,1.242-1.219,1.25
		c-0.681,0.012-1.238-0.535-1.25-1.215C109.445,132.723,109.988,132.164,110.667,132.15L110.667,132.15z M129.875,132.254
		c0.68-0.008,1.242,0.535,1.254,1.219c0.008,0.685-0.539,1.242-1.219,1.254c-0.684,0.008-1.238-0.539-1.25-1.219
		C128.648,132.824,129.191,132.266,129.875,132.254L129.875,132.254z M93.906,136.09c0.551,1.949,0.43,6.352-0.281,9.34
		c-0.215,0.896-0.344,4.078-0.344,4.078c-0.133,0.168,4.234-3.613,5.637,1.344c0.484,1.703-1.477,3.32-2.789,2.849
		c-0.258-0.095-0.18-0.938,0.066-1.435c0.727-1.479-1.348-2.25-2.531-0.938c-2.734,3.035,0.078,10.719,4.363,11.465
		c3.555,0.621,6.41-2.922,4.035-5.031c-1.039-0.922-2.699,0.353-1.938,1.523c0.813,1.254-0.685,1.758-1.815,0.594
		c-1.974-2.027,0.241-5.082,3.223-4.375c4.762,1.082,3.781,8.527-1.211,8.945c-3.82,0.32-6.391-1.346-8.004-4.293
		c-1.517-2.832-1.629-5.096-0.935-10.063c0.41-2.948,0.07-5.438-0.75-5.418c-0.448,0.009-0.797,0.226-0.871,0.754
		c-0.145,1.078-0.27,1.281-0.945,0.892c-0.859-0.5-1.336-2.105,0.066-3.191c1.442-1.113,3.31,0.625,3.235,0.922
		c0.035-0.055,0.18-0.336,0.371-1.602c0.633-4.117-0.766-8.467-2.496-7.771c-0.379,0.152-0.332,0.324,0.164,0.603
		c1.148,0.647,0.137,2.309-1.309,2.141c-2.047-0.238-2.511-3.094-0.711-4.355C90.977,131.535,93.292,133.93,93.906,136.09
		L93.906,136.09z M79.929,132.66c0,0,3.633,2.215,3.825,2.785c0.125,0.363,0.273,3.543,0.273,3.543l-6.305-3.945l-9.035,5.586
		c0.149-1.227,0.801-4.383,0.801-4.383l4.805-3.043C74.316,133.387,77.617,135.564,79.929,132.66L79.929,132.66z M125.05,132.871
		c0.685-0.008,1.242,0.539,1.255,1.219c0.008,0.684-0.535,1.242-1.216,1.254c-0.685,0.008-1.241-0.531-1.254-1.215
		C123.828,133.445,124.371,132.883,125.05,132.871L125.05,132.871z M115.434,132.891c0.68-0.008,1.246,0.535,1.254,1.215
		c0.012,0.685-0.539,1.246-1.22,1.259c-0.684,0.008-1.241-0.539-1.25-1.22C114.207,133.461,114.75,132.9,115.434,132.891
		L115.434,132.891z M120.27,133.172c0.68-0.012,1.246,0.535,1.254,1.219c0.012,0.68-0.535,1.242-1.219,1.25
		c-0.681,0.012-1.242-0.535-1.25-1.219C119.042,133.742,119.585,133.18,120.27,133.172L120.27,133.172z M108.16,134.922
		c3.273,0.68,6.555,1.379,9.691,1.723l0.129,9.629l-0.918-0.051l-0.133-8.604c-3.031-0.216-5.888-0.867-8.574-1.563L108.16,134.922z
		 M132.492,135.232l-0.168,1.135c0,0-5.664,0.977-8.621,1.359c-0.047,1.938-0.039,8.414-0.039,8.414l-1.133,0.207l-0.004-9.802
		C125.887,136.18,129.238,135.805,132.492,135.232L132.492,135.232z M77.711,135.777l6.668,4.406l0.781,4.668l-7.77-5.166
		c0,0-7.043,4.744-9.675,6.5l0.8-4.4L77.711,135.777z M108.477,136.646c2.684,0.567,5.366,1.158,8.051,1.389l0.113,7.75
		l-1.234-0.328l-0.098-6.289c-2.095-0.18-4.246-0.586-6.41-1.043L108.477,136.646z M132.214,136.879l-0.228,1.051
		c0,0-4.297,0.648-6.512,1.047c-0.195,0.043-0.125,6.816-0.125,6.816l-1.059,0.164l-0.125-7.91L132.214,136.879z M120.184,137.746
		c0.684-0.014,1.237,0.535,1.25,1.219c0.012,0.68-0.531,1.242-1.216,1.25c-0.68,0.012-1.241-0.531-1.25-1.215
		C118.957,138.32,119.503,137.754,120.184,137.746L120.184,137.746z M77.609,140.539l7.879,5.318c0,0,0.914,2.771,1.109,4.307
		l-9.066-5.855l-11.344,7.521l1.313-4.646L77.609,140.539z M29.855,140.703c0.465,0.008,0.934,0.318,1.176,1.035
		c0.34,1.012,0.98,1.313,2.66,1.281c3.293-0.177,6.75-1.728,9.859-0.563c1.516,0.56,2.051,2.785,0.786,3.367
		c-1.375,0.633-1.957,0.233-2.434-0.845c-0.441-0.461-0.988-0.387-3.941,0.121c-1.305,0.211-2.836,0.398-4.125,0.504
		c-3.293,0.267-5.11-0.77-5.52-2.729C28.054,141.621,29.074,140.689,29.855,140.703L29.855,140.703z M120.117,142.504
		c0.684-0.012,1.242,0.531,1.254,1.211c0.008,0.684-0.539,1.246-1.219,1.258c-0.685,0.008-1.242-0.535-1.254-1.219
		C118.891,143.074,119.438,142.512,120.117,142.504L120.117,142.504z M95.98,144.008c0.887-0.016,1.612,0.695,1.629,1.582
		c0.012,0.887-0.699,1.617-1.586,1.629c-0.887,0.016-1.613-0.695-1.625-1.582S95.093,144.02,95.98,144.008L95.98,144.008z
		 M77.621,145.133c0,0,6.484,4.328,9.488,6.332l1.656,4.766l-11.043-7.18l-13.511,8.789l1.621-4.902L77.621,145.133z
		 M124.438,146.621c0.586,1.582,1.651,2.789,2.78,4.016c0,0-0.629,1.191-2.87,1.121c-1.224-0.039-1.289,0.152-1.707,0.984
		c-0.688,1.051-1.246,1.736-1.691,2.082c-0.785,0.605-2.254-0.297-3.469-2.139c-0.441-0.666-0.625-0.822-1.957-0.795
		c-2.047,0.043-2.785-0.527-1.724-1.445c0.927-1.131,1.591-2.371,2.423-3.56l0.918,0.105c0.039,0.137-0.716,2.418-1.777,3.344
		c-0.535,0.608,0.219,0.828,1.531,0.551c0.836-0.25,1.051-0.153,1.668,1.125c1.289,2.435,1.957,2.316,3.483-0.153
		c0.535-1.101,0.517-1.211,1.979-0.894c1.578,0.16,2.052-0.039,1.406-0.586c-1.309-1.112-2.031-3.728-2.031-3.728L124.438,146.621z
		 M77.679,149.883c0,0,11.727,7.68,11.696,7.512l2.348,5.539l-13.761-9.151l-16.813,10.934l2.516-5.481L77.679,149.883z
		 M78.132,154.926l4.086,2.688l-0.011,4.84l-4.176-2.806L78.132,154.926z M77.082,155.064l0.074,4.774l-3.664,2.183l-0.203-4.479
		L77.082,155.064z M72.433,158.145l-0.035,0.185l0.086,0.047l0.031,0.004l0.133,4.302l-4.219,2.922l0.016-4.859L72.433,158.145z
		 M83.23,158.195l3.844,2.565l0.156,5.121l-4.168-2.729L83.23,158.195z M87.976,161.324L91.828,164l0.137,5.113l-3.938-2.648
		L87.976,161.324z M67.574,161.34l-0.02,4.727l-3.836,2.681l-0.179-4.828L67.574,161.34z M108.141,167.439
		c-0.759,0.793-1.039,0.696-1.691-0.615c-0.676-1.359-1.691-1.992-3.16-1.971c-1.855,0.037-0.645-1.183,1.324-1.326
		C108.012,163.379,109.738,165.66,108.141,167.439L108.141,167.439z M62.675,164.668l0.102,4.742l-3.816,1.984l-0.118-2.25
		l1.965-3.435L62.675,164.668z M57.754,171.004l0.132,0.863l-0.707,0.273L57.754,171.004z M123.57,182.879
		c-0.012-0.004-0.016,0-0.016,0.016h0.043C123.585,182.887,123.574,182.879,123.57,182.879L123.57,182.879z M123.598,182.895
		c0.491,0.324,4.883,6.688,5.19,13.57c0.168,1.82-0.617,2.168-1.013,0.438c-0.641-2.819-2.409-5.284-4.711-6.565
		c-11.621-4.31-16.582,10.277-8.922,16.172c2.728,1.972,7.984,1.75,9.832-0.977c0.574-0.849,1.156-0.767,1.23-0.23
		c0.035,0.265-0.098,0.449-0.809,1.087c-2.871,2.577-4.59,6.227-3.676,8.895c1.206,3.543,4.516,5.99,8.327,6.555
		c4.095,0.602,8.353-2.281,9.604-6.023c1.148-3.434,0.138-6.328-3.047-9.219c-1.5-1.359-1.573-1.469-1.266-1.793
		c0.301-0.313,0.5-0.234,1.242,0.48c2.289,2.211,6.555,3.402,9.367,2.102c4.504-2.082,6.438-9.09,3.359-13.68
		c-1.863-3.73-6.945-5.121-11.191-3.059c-2.262,1.098-4.254,3.664-4.848,6.237c-0.267,1.156-0.931,1.363-1.031,0.324
		c0.313-4.188,0.902-6.931,5.496-14.306L123.598,182.895z M162.273,190.078c0,0,1.676,3.457,1.922,5.275
		c0.184,1.336,0.211,1.885-0.152,1.889c-0.117,0.004-0.406-0.645-0.516-1.148c-0.898-4.145-6.922-4.082-7.793,0.063
		c-0.887,4.215,2.922,7.198,6.25,4.577c1.367-0.94,1.434-0.512,0.078,0.863c-2.609,2.609-1.461,6.262,1.819,7.234
		c4.461,1.318,7.207-4.117,3.423-7.57c-0.484-0.5-0.923-0.992-0.927-1.098c-0.004-0.268,0.328-0.289,0.586-0.012
		c2.173,2.276,6.548,1.574,7.216-1.349c1.258-5.477-5.813-7.815-7.763-2.922c-0.478,1.22-0.401,1.39-0.647,1.152
		c-0.138-0.13-0.099-0.638,0.055-1.324c0.305-1.387,2.285-5.59,2.285-5.59L162.273,190.078z M103.688,205.176
		c-16.063,3.438-31.461,2.223-42.516,0.176l-5.047,8.633l-0.348-0.016l-1.301,2.23l0.137,0.258c0,0-4.195,8.051-5.961,10.59
		c20.645-0.199,65.954-0.297,65.954-0.297l-2.758-5.551l0.147-0.152l-2.728-5.797l-0.887-1.004c0,0-0.539-1.047-0.945-2.172
		c-0.375-1.035-1.973-3.871-1.973-3.871l-0.227,0.02L103.688,205.176z M61.754,206.391c0.214,0.168,20.574,4.004,41.68,0.063
		l1.155,1.935c-18.473,4.25-45.2,0.188-44.145-0.203L61.754,206.391z M62.105,210.188c1.863-0.065,3.75,0.935,5.02,2.603
		c0.406,0.53,1.066,2.099,1.066,2.099s0.891-1.474,1.766-2.212c1.324-1.116,3.039-2.051,5.519-1.965
		c2.285,0.082,4.797,1.32,7.067,4.894c0.574-2.062,8.078-9.068,14.262-0.332c0.707-2.322,4.016-6.961,9.37-3.717
		c0.367,0.78,0.746,1.645,0.746,1.645c-3.164-2.217-8.375-0.73-9.608,2.727c-0.109,0.422,0.03,0.641,0.194,1.047
		c1.63,2.328-2.612,2.273-1.354,0.392c0.234-0.431,0.254-0.781-0.121-1.345c-0.992-1.487-3.984-3.344-6.18-3.297
		c-2.54,0.055-5.348,1.738-6.286,3.267c-0.348,0.565-0.426,1.129-0.121,1.62c0.223,0.5,0.145,0.914-0.227,1.22
		c-0.871,0.719-1.968-0.108-1.55-1.168c0.277-0.465,0.234-1.039-0.332-1.832c-1.137-1.599-3.786-3.276-6.094-3.229
		c-3.301,0.078-6.637,2.457-6.426,4.414c0.09,0.858-0.144,1.178-0.848,1.082c-0.851-0.121-0.949-0.927-0.343-1.582
		c0.086-0.211,0.234-0.724-0.043-1.095c-3.489-4.719-8.707-3.344-9.907-2.289C58.84,211.137,60.461,210.246,62.105,210.188
		L62.105,210.188z M59,213.461c1.308,0.012,2.718,1,3.164,1.771c0.324-0.336,3.285-1.744,4.722,0.274
		c-3.765-0.284-3.812,3.716-1.027,4.097c-1.269,3.86,4.422,4.092,4.063,0.471c4.25,0.629,3.726-4.764-0.278-4.195
		c2.098-1.527,3.528-1.035,6.047,0.719c0.848-1.104,4.305-2.137,5.152-0.207c-3.961-0.246-3.289,4.34-0.328,4.383
		c-0.879,3.177,4.942,4.349,4.043-0.401c3.692,0.262,3.16-4.729-0.383-4.315c0.266-0.91,3.856-1.302,5.446,0.434
		c1.457-1.332,3.066-2.246,5.977-0.342c-3.965-0.658-4.016,4.49-0.332,4.182c-0.344,3.41,4.863,3.465,3.996-0.475
		c3.965-1.068,1.785-5.312-1.129-4.144c1.297-1.543,3.496-0.815,4.371-0.504c2.699-3.086,5.051-0.504,5.051-0.504
		c-4.699-0.492-3.676,6.203,0.902,3.776c-0.008,1.375,0.586,2.566,2.453,2.763l2.223,4.598l-62.954,0.414l3.473-6.106
		c0.352,0.11,2.359,0.293,2.793-2.062c4.137,1.312,4.414-3.504,1.324-4.266C58.14,213.563,58.566,213.457,59,213.461L59,213.461z
		 M156.464,214.031v2.336h1.845l5.254,11.789l-5.031,8.234h-1.938v2.088h7.341v-2.088h-2.445l6.729-9.707v9.707h-2.022v2.088h6.703
		v-2.039h-2.203v-20.072h2.203v-2.336h-6.703v2.336h2.022v5.93l-2.858,3.68l-4.285-9.608h2.859v-2.336L156.464,214.031
		L156.464,214.031z M56.547,215.203c0.41,0.664,0.066,1.094-0.641,1.107C55.906,216.313,56.367,215.645,56.547,215.203
		L56.547,215.203z M108.335,216.059l0.406,0.855C108.3,216.732,108.246,216.547,108.335,216.059L108.335,216.059z"/>
</g>
</svg>
