<?xml version="1.0" encoding="utf-8"?>
<!-- Generator: Adobe Illustrator 15.0.0, SVG Export Plug-In . SVG Version: 6.00 Build 0)  -->
<!DOCTYPE svg PUBLIC "-//W3C//DTD SVG 1.1//EN" "http://www.w3.org/Graphics/SVG/1.1/DTD/svg11.dtd">
<svg version="1.1" id="Layer_1" xmlns="http://www.w3.org/2000/svg" xmlns:xlink="http://www.w3.org/1999/xlink" x="0px" y="0px"
	 width="178.582px" height="249.449px" viewBox="0 0 178.582 249.449" enable-background="new 0 0 178.582 249.449"
	 xml:space="preserve">
<g>
	<path d="M5.527,30.25l2.063-1.488c1.792,2.859,3.792,4.746,6.855,4.422c4.594-0.309,6.496-5.036,5.531-8.602
		c-0.926-3.191-4.73-4.75-7.754-3.047c-0.711,0.402-1.535,0.902-1.535,0.902l-1.078-1.753l7.098-8.254h-7.7v3.414H6.05V9.719h15.051
		v2.078c0,0-4.031,4.105-5.367,6.355c3.285,0.118,5.93,2.16,6.879,5.391c0.555,1.699,0.305,5.586-0.422,7.262
		c-1.207,2.793-4.519,5.058-7.547,5.187C9.57,36.328,6.871,32.836,5.527,30.25L5.527,30.25z"/>
	<path d="M172.574,219.203l-2.063,1.486c-1.795-2.861-3.795-4.744-6.854-4.42c-4.596,0.309-6.496,5.035-5.535,8.598
		c0.932,3.193,4.732,4.754,7.754,3.047c0.715-0.402,1.539-0.82,1.539-0.82l1.271,1.646l-7.293,8.283h7.699v-3.414h2.953v6.121H157
		v-2.078c0,0,4.031-4.102,5.363-6.352c-3.281-0.121-5.93-2.16-6.875-5.391c-0.555-1.699-0.305-5.586,0.418-7.264
		c1.211-2.793,4.52-5.059,7.547-5.189C168.535,213.121,171.23,216.617,172.574,219.203L172.574,219.203z"/>
	<path d="M83.101,147.854c2.328-4.674,4.028-9.472,4.328-14.601c0.278-1.887-0.871-1.918-1.043-0.59
		c-3.3,12.625-20.855,9.207-20.254-2.668c0.493-9.633,10.055-11.703,15.047-8.555c1.969,1.161,1.856,0.465,0.782-0.738
		c-7.411-8.266-2.922-18.914,7.093-19.109c10.833,0.644,13.645,12.039,7,18.742c-0.828,0.805-2.66,3.394,0.098,1.586
		c6.711-4.77,16.02,0.355,15.832,7.707c-0.354,13.552-16.875,14.562-20.406,3.242c-0.34-1.254-1.32-1.888-1.047,0.246
		c0.488,3.858,1.5,9.68,4.398,14.737H83.101L83.101,147.854z"/>
	<path d="M83.05,68.176c2.329-4.68,4.028-9.477,4.329-14.606c0.277-1.886-0.872-1.918-1.043-0.59
		c-3.301,12.625-20.86,9.207-20.254-2.668c0.488-9.628,10.054-11.703,15.043-8.554c1.972,1.16,1.859,0.465,0.785-0.738
		c-7.41-8.266-2.922-18.915,7.094-19.11C99.836,22.555,102.645,33.949,96,40.652c-0.824,0.805-2.656,3.395,0.102,1.586
		c6.707-4.769,16.021,0.356,15.828,7.707c-0.348,13.551-16.871,14.563-20.402,3.242c-0.34-1.253-1.318-1.886-1.051,0.247
		c0.492,3.859,1.504,9.679,4.402,14.742H83.05z"/>
	<path d="M94.953,181.488c-2.332,4.676-4.031,9.473-4.332,14.602c-0.277,1.891,0.871,1.922,1.043,0.59
		c3.301-12.621,20.859-9.203,20.254,2.672c-0.488,9.629-10.055,11.699-15.043,8.551c-1.969-1.158-1.859-0.465-0.785,0.738
		c7.414,8.271,2.926,18.914-7.094,19.109c-10.832-0.643-13.641-12.039-6.996-18.742c0.824-0.805,2.656-3.391-0.102-1.582
		c-6.707,4.766-16.019-0.359-15.828-7.707c0.352-13.555,16.871-14.563,20.402-3.246c0.34,1.258,1.321,1.887,1.051-0.246
		c-0.492-3.857-1.504-9.676-4.402-14.736L94.953,181.488L94.953,181.488z"/>
	<path d="M10.324,59.297c0.965-1.977,1.902-3.82,2.414-5.992c0.34-2.043-0.356-1.285-0.75,0.058
		c-0.582,1.86-2.203,2.707-3.707,2.727c-2.731,0.035-4.09-2.11-4.004-4.418c-0.301-2.426,2.16-4.145,4.016-4.012
		c1.394,0.102,2.609,0.852,3.343,1.438c0.485,0.254,1,0.367,0.282-0.289c-1.36-1.485-2.493-2.403-2.465-4.625
		c0.023-2.086,1.808-4.266,4.172-4.196c2.957,0.086,4.3,2.34,4.293,4.438c-0.008,1.527-0.77,2.933-1.95,3.804
		c-0.765,0.622-0.55,1.086,0.321,0.5c0.836-0.722,1.836-1.039,2.871-1.062c2.824-0.043,3.93,2.398,3.765,4.668
		c-0.148,2.125-1.96,4.312-4.343,4.066c-2.133-0.246-3.25-2.031-3.891-3.867c-0.215-0.563-0.547-0.715-0.539,0.125
		c0.492,4.094,2.016,6.641,2.027,6.637H10.324z"/>
	<path d="M168.257,190.746c-0.965,1.977-1.901,3.818-2.414,5.992c-0.34,2.043,0.353,1.283,0.746-0.059
		c0.586-1.859,2.207-2.707,3.711-2.729c2.728-0.035,4.091,2.107,4.005,4.418c0.297,2.426-2.164,4.146-4.017,4.012
		c-1.396-0.104-2.613-0.854-3.349-1.438c-0.483-0.254-1-0.366-0.276,0.289c1.354,1.483,2.487,2.401,2.465,4.625
		c-0.022,2.086-1.81,4.267-4.176,4.194c-2.953-0.086-4.302-2.34-4.293-4.438c0.008-1.527,0.772-2.935,1.952-3.808
		c0.767-0.621,0.552-1.084-0.319-0.5c-0.84,0.726-1.836,1.041-2.871,1.063c-2.828,0.043-3.93-2.397-3.771-4.668
		c0.151-2.125,1.961-4.313,4.349-4.065c2.129,0.245,3.25,2.03,3.892,3.866c0.211,0.563,0.547,0.715,0.539-0.121
		c-0.492-4.098-2.021-6.646-2.031-6.641h5.858V190.746z"/>
</g>
</svg>
