<?xml version="1.0" encoding="utf-8"?>
<!-- Generator: Adobe Illustrator 15.0.0, SVG Export Plug-In . SVG Version: 6.00 Build 0)  -->
<!DOCTYPE svg PUBLIC "-//W3C//DTD SVG 1.1//EN" "http://www.w3.org/Graphics/SVG/1.1/DTD/svg11.dtd">
<svg version="1.1" id="Layer_1" xmlns="http://www.w3.org/2000/svg" xmlns:xlink="http://www.w3.org/1999/xlink" x="0px" y="0px"
	 width="178.582px" height="249.449px" viewBox="0 0 178.582 249.449" enable-background="new 0 0 178.582 249.449"
	 xml:space="preserve">
<g>
	<path d="M6.496,28.801c-0.324-2.196-0.321-7.875-0.051-9.551c0.824-5.145,2.824-7.496,6.176-8.27
		c3.258-0.746,7.832,0.086,8.836,4.387l-2.723,0.051c-1.473-2.906-5.199-2.129-7.293-0.867c-1.676,1.011-2.434,5.219-2.109,5.476
		c0,0,3.168-2.3,5.66-2.132c5.336,0.546,7.535,5.085,7.351,9.375c-0.171,5.16-1.836,9.281-7.492,9.558
		C9.48,36.625,7.011,33.746,6.496,28.801L6.496,28.801z M19.754,27.437c0.031-3.578-1.625-6.257-4.758-6.554
		c-3.133-0.293-6.293,2.707-6.074,6.355c0.218,3.66,1.664,6.746,5.46,6.727C18.468,33.949,19.734,29.984,19.754,27.437
		L19.754,27.437z"/>
	<path d="M171.898,220.646c0.324,2.201,0.318,7.879,0.051,9.557c-0.824,5.145-2.824,7.496-6.18,8.266
		c-3.254,0.75-7.828-0.082-8.832-4.383l2.723-0.051c1.473,2.904,5.199,2.129,7.293,0.861c1.676-1.006,2.43-5.213,2.109-5.473
		c0,0-3.168,2.303-5.66,2.135c-5.336-0.549-7.535-5.086-7.354-9.375c0.174-5.162,1.836-9.287,7.492-9.561
		C168.914,212.828,171.382,215.707,171.898,220.646L171.898,220.646z M158.641,222.016c-0.031,3.578,1.625,6.258,4.758,6.551
		c3.134,0.299,6.293-2.701,6.074-6.352c-0.22-3.66-1.664-6.746-5.461-6.73C159.925,215.504,158.66,219.469,158.641,222.016
		L158.641,222.016z"/>
	<path d="M123.242,147.66c2.301-4.621,3.98-9.359,4.277-14.432c0.271-1.861-0.859-1.895-1.031-0.582
		c-3.258,12.475-20.609,9.1-20.012-2.637c0.482-9.516,9.934-11.563,14.865-8.453c1.945,1.148,1.838,0.461,0.773-0.731
		c-7.324-8.168-2.893-18.688,7.008-18.879c10.703,0.633,13.479,11.895,6.914,18.516c-0.814,0.797-2.625,3.355,0.104,1.566
		c6.629-4.711,15.826,0.355,15.641,7.616c-0.348,13.394-16.672,14.394-20.164,3.205c-0.336-1.238-1.301-1.863-1.035,0.246
		c0.484,3.813,1.484,9.563,4.352,14.563L123.242,147.66L123.242,147.66z"/>
	<path d="M43.617,147.66c2.301-4.621,3.98-9.359,4.277-14.432c0.274-1.861-0.859-1.895-1.031-0.582
		c-3.262,12.475-20.609,9.1-20.012-2.637c0.481-9.516,9.934-11.563,14.864-8.453c1.949,1.148,1.835,0.461,0.773-0.731
		c-7.32-8.168-2.887-18.688,7.012-18.879c10.703,0.633,13.48,11.895,6.914,18.516c-0.817,0.797-2.625,3.355,0.097,1.566
		c6.629-4.711,15.832,0.355,15.645,7.616c-0.348,13.394-16.672,14.394-20.164,3.205c-0.336-1.238-1.305-1.863-1.035,0.246
		c0.484,3.813,1.484,9.563,4.347,14.563L43.617,147.66L43.617,147.66z"/>
	<path d="M123.242,68.547c2.301-4.621,3.98-9.363,4.277-14.43c0.271-1.867-0.859-1.898-1.031-0.586
		c-3.258,12.477-20.609,9.098-20.012-2.636c0.482-9.516,9.934-11.563,14.865-8.45c1.945,1.145,1.838,0.457,0.773-0.73
		c-7.324-8.168-2.893-18.688,7.008-18.883c10.703,0.637,13.479,11.898,6.914,18.52c-0.814,0.796-2.625,3.351,0.104,1.566
		c6.629-4.711,15.826,0.352,15.641,7.613c-0.348,13.395-16.672,14.391-20.164,3.207c-0.336-1.242-1.301-1.863-1.035,0.242
		c0.484,3.813,1.484,9.563,4.352,14.567H123.242z"/>
	<path d="M43.617,68.547c2.301-4.621,3.98-9.363,4.277-14.43c0.274-1.867-0.859-1.898-1.031-0.586
		c-3.262,12.477-20.609,9.098-20.012-2.636c0.481-9.516,9.934-11.563,14.864-8.45c1.949,1.145,1.835,0.457,0.773-0.73
		c-7.32-8.168-2.887-18.688,7.012-18.883c10.703,0.637,13.48,11.898,6.914,18.52c-0.817,0.796-2.625,3.351,0.097,1.566
		c6.629-4.711,15.832,0.352,15.645,7.613c-0.348,13.395-16.672,14.391-20.164,3.207c-0.336-1.242-1.305-1.863-1.035,0.242
		c0.484,3.813,1.484,9.563,4.347,14.567H43.617z"/>
	<path d="M135.003,180.828c-2.305,4.617-3.979,9.357-4.276,14.43c-0.272,1.863,0.858,1.895,1.026,0.582
		c3.263-12.477,20.613-9.098,20.017,2.637c-0.483,9.518-9.938,11.563-14.867,8.453c-1.944-1.146-1.836-0.461-0.772,0.729
		c7.324,8.172,2.888,18.689-7.008,18.883c-10.703-0.633-13.479-11.896-6.918-18.521c0.815-0.793,2.629-3.352-0.099-1.563
		c-6.629,4.711-15.828-0.355-15.642-7.617c0.345-13.391,16.673-14.391,20.16-3.207c0.336,1.242,1.306,1.863,1.039-0.242
		c-0.483-3.813-1.488-9.563-4.353-14.563H135.003z"/>
	<path d="M55.379,180.828c-2.305,4.617-3.985,9.357-4.282,14.43c-0.273,1.863,0.86,1.895,1.032,0.582
		c3.261-12.477,20.609-9.098,20.015,2.637c-0.484,9.518-9.937,11.563-14.867,8.453c-1.949-1.146-1.836-0.461-0.773,0.729
		c7.324,8.172,2.886,18.689-7.012,18.883c-10.703-0.633-13.481-11.896-6.914-18.521c0.816-0.793,2.625-3.352-0.098-1.563
		c-6.629,4.711-15.832-0.355-15.644-7.617c0.347-13.391,16.671-14.391,20.164-3.207c0.336,1.242,1.304,1.863,1.035-0.242
		c-0.485-3.813-1.485-9.563-4.348-14.563H55.379z"/>
	<path d="M10.527,59.043c0.953-1.957,1.883-3.777,2.387-5.922c0.336-2.019-0.348-1.269-0.739,0.055
		c-0.578,1.84-2.179,2.676-3.664,2.695c-2.695,0.035-4.043-2.082-3.957-4.363c-0.297-2.399,2.137-4.094,3.969-3.965
		c1.379,0.098,2.578,0.84,3.305,1.422c0.476,0.25,0.988,0.363,0.277-0.289c-1.344-1.465-2.461-2.371-2.437-4.567
		c0.023-2.066,1.785-4.214,4.125-4.148c2.922,0.086,4.25,2.312,4.242,4.383c-0.008,1.511-0.762,2.902-1.93,3.761
		c-0.754,0.614-0.543,1.075,0.32,0.493c0.829-0.711,1.813-1.024,2.836-1.047c2.789-0.043,3.883,2.371,3.723,4.613
		c-0.148,2.098-1.937,4.262-4.297,4.016c-2.101-0.243-3.211-2.008-3.844-3.821c-0.207-0.554-0.539-0.707-0.531,0.121
		c0.488,4.047,1.992,6.563,2.004,6.563H10.527z"/>
	<path d="M168.05,188.645c-0.952,1.957-1.879,3.777-2.387,5.922c-0.336,2.023,0.353,1.271,0.741-0.055
		c0.574-1.84,2.177-2.676,3.664-2.695c2.695-0.033,4.039,2.082,3.957,4.363c0.293,2.398-2.137,4.098-3.969,3.965
		c-1.379-0.098-2.582-0.84-3.31-1.418c-0.478-0.254-0.983-0.367-0.272,0.285c1.34,1.465,2.461,2.371,2.438,4.566
		c-0.021,2.066-1.789,4.215-4.125,4.148c-2.922-0.082-4.25-2.313-4.242-4.385c0.01-1.512,0.764-2.902,1.928-3.762
		c0.758-0.613,0.547-1.074-0.316-0.492c-0.828,0.711-1.813,1.021-2.836,1.047c-2.793,0.045-3.883-2.369-3.723-4.613
		c0.146-2.098,1.938-4.262,4.293-4.016c2.104,0.242,3.211,2.01,3.844,3.82c0.211,0.559,0.543,0.707,0.531-0.121
		c-0.484-4.047-1.992-6.563-2.004-6.563h5.787L168.05,188.645L168.05,188.645z"/>
</g>
</svg>
