<?xml version="1.0" encoding="utf-8"?>
<!-- Generator: Adobe Illustrator 15.0.0, SVG Export Plug-In . SVG Version: 6.00 Build 0)  -->
<!DOCTYPE svg PUBLIC "-//W3C//DTD SVG 1.1//EN" "http://www.w3.org/Graphics/SVG/1.1/DTD/svg11.dtd">
<svg version="1.1" id="Layer_1" xmlns="http://www.w3.org/2000/svg" xmlns:xlink="http://www.w3.org/1999/xlink" x="0px" y="0px"
	 width="178.582px" height="249.449px" viewBox="0 0 178.582 249.449" enable-background="new 0 0 178.582 249.449"
	 xml:space="preserve">
<g>
	<path d="M6.578,31.48L9,30.73c0.914,2.395,2.761,3.102,4.715,2.95c3.503-0.274,4.667-4.118,4.933-7.52
		c-1.367,1.418-3.422,2.141-5.168,2.07c-5.586-0.296-7.015-4.683-7.07-9.281c-0.153-3.875,1.48-6.683,4.281-7.969
		c1.481-0.656,4.875-0.656,6.367,0.118c3.426,1.773,4.692,4.839,4.461,12.152c0.004,6.02-1.297,13.031-7.867,13.18
		C9.851,36.945,6.968,34.047,6.578,31.48L6.578,31.48z M16.09,24.887c1.14-0.707,1.781-1.371,2.292-2.367
		c0.422-0.821,0.563-1.247,0.442-2.938c-0.305-4.363-2.637-6.84-6.02-6.348c-1.882,0.274-2.914,1.313-3.504,3.239
		c-1.093,3.558,0.293,7.726,2.887,8.688C13.355,25.59,15.16,25.465,16.09,24.887L16.09,24.887z"/>
	<path d="M171.41,217.969l-2.422,0.754c-0.914-2.395-2.762-3.102-4.715-2.949c-3.504,0.273-4.668,4.117-4.932,7.521
		c1.363-1.422,3.42-2.143,5.164-2.068c5.586,0.293,7.018,4.684,7.07,9.279c0.154,3.875-1.479,6.684-4.281,7.971
		c-1.479,0.65-4.875,0.65-6.365-0.119c-3.428-1.771-4.691-4.838-4.463-12.15c-0.004-6.02,1.299-13.031,7.867-13.182
		C168.137,212.508,171.02,215.406,171.41,217.969L171.41,217.969z M161.898,224.564c-1.143,0.707-1.781,1.371-2.293,2.369
		c-0.422,0.818-0.563,1.24-0.441,2.938c0.309,4.361,2.637,6.84,6.02,6.348c1.883-0.271,2.914-1.313,3.504-3.238
		c1.096-3.559-0.293-7.727-2.887-8.688C164.632,223.857,162.832,223.982,161.898,224.564L161.898,224.564z"/>
	<path d="M124.027,121.059c2.301-4.618,3.979-9.36,4.277-14.43c0.271-1.863-0.859-1.895-1.031-0.582
		c-3.262,12.476-20.609,9.098-20.012-2.637c0.482-9.515,9.934-11.563,14.861-8.453c1.949,1.148,1.84,0.461,0.775-0.727
		c-7.322-8.171-2.891-18.691,7.01-18.882c10.701,0.632,13.479,11.894,6.914,18.519c-0.816,0.793-2.625,3.352,0.098,1.563
		c6.629-4.707,15.832,0.355,15.646,7.617c-0.35,13.39-16.672,14.39-20.164,3.207c-0.336-1.242-1.305-1.863-1.035,0.242
		c0.484,3.813,1.484,9.563,4.348,14.563H124.027L124.027,121.059z"/>
	<path d="M83.371,142.781c2.301-4.617,3.98-9.359,4.277-14.43c0.274-1.863-0.859-1.896-1.031-0.582
		c-3.262,12.473-20.61,9.098-20.012-2.639c0.485-9.516,9.934-11.563,14.863-8.453c1.95,1.148,1.84,0.461,0.778-0.727
		c-7.324-8.172-2.891-18.691,7.008-18.883c10.703,0.633,13.48,11.895,6.914,18.52c-0.816,0.793-2.625,3.351,0.098,1.562
		c6.633-4.711,15.832,0.356,15.646,7.619c-0.35,13.39-16.672,14.39-20.164,3.204c-0.336-1.24-1.303-1.859-1.035,0.244
		c0.482,3.813,1.482,9.563,4.354,14.563L83.371,142.781L83.371,142.781z"/>
	<path d="M42.8,121.059c2.301-4.618,3.981-9.36,4.278-14.43c0.273-1.863-0.86-1.895-1.031-0.582
		c-3.262,12.476-20.61,9.098-20.012-2.637c0.484-9.515,9.933-11.563,14.863-8.453c1.949,1.148,1.84,0.461,0.777-0.727
		c-7.324-8.171-2.89-18.691,7.008-18.882c10.703,0.632,13.481,11.894,6.914,18.519c-0.816,0.793-2.625,3.352,0.098,1.563
		c6.633-4.707,15.832,0.355,15.645,7.617c-0.348,13.39-16.672,14.39-20.165,3.207c-0.335-1.242-1.3-1.863-1.035,0.242
		c0.485,3.813,1.485,9.563,4.352,14.563H42.8L42.8,121.059z"/>
	<path d="M124.027,68.797c2.301-4.621,3.979-9.363,4.277-14.43c0.271-1.867-0.859-1.898-1.031-0.586
		c-3.262,12.477-20.609,9.098-20.012-2.636c0.482-9.516,9.934-11.563,14.861-8.45c1.949,1.145,1.84,0.457,0.775-0.73
		c-7.322-8.168-2.891-18.688,7.01-18.883c10.701,0.637,13.479,11.898,6.914,18.52c-0.816,0.796-2.625,3.351,0.098,1.566
		c6.629-4.711,15.832,0.352,15.646,7.617c-0.35,13.391-16.672,14.387-20.164,3.203c-0.336-1.242-1.305-1.863-1.035,0.242
		c0.484,3.813,1.484,9.563,4.348,14.567H124.027z"/>
	<path d="M42.8,68.797c2.301-4.621,3.981-9.363,4.278-14.43c0.273-1.867-0.86-1.898-1.031-0.586
		c-3.262,12.477-20.61,9.098-20.012-2.636c0.484-9.516,9.933-11.563,14.863-8.45c1.949,1.145,1.84,0.457,0.777-0.73
		c-7.324-8.168-2.89-18.688,7.008-18.883c10.703,0.637,13.481,11.898,6.914,18.52c-0.816,0.796-2.625,3.351,0.098,1.566
		c6.633-4.711,15.832,0.352,15.645,7.617c-0.348,13.391-16.672,14.387-20.165,3.203c-0.335-1.242-1.3-1.863-1.035,0.242
		c0.485,3.813,1.485,9.563,4.352,14.567H42.8z"/>
	<path d="M54.562,180.949c-2.305,4.621-3.98,9.359-4.281,14.43c-0.274,1.867,0.863,1.896,1.031,0.582
		c3.262-12.473,20.61-9.094,20.016,2.637c-0.485,9.518-9.938,11.566-14.867,8.453c-1.946-1.145-1.836-0.461-0.774,0.73
		c7.324,8.168,2.887,18.688-7.008,18.883c-10.707-0.637-13.484-11.898-6.918-18.52c0.817-0.797,2.629-3.355-0.097-1.566
		c-6.629,4.711-15.828-0.355-15.641-7.617c0.344-13.391,16.668-14.391,20.16-3.203c0.336,1.238,1.305,1.863,1.035-0.242
		c-0.48-3.814-1.484-9.564-4.347-14.564L54.562,180.949L54.562,180.949z"/>
	<path d="M135.789,180.949c-2.305,4.621-3.98,9.359-4.281,14.43c-0.273,1.867,0.859,1.896,1.031,0.582
		c3.262-12.473,20.609-9.094,20.016,2.637c-0.484,9.518-9.938,11.566-14.867,8.453c-1.943-1.145-1.836-0.461-0.771,0.73
		c7.324,8.168,2.887,18.688-7.014,18.883c-10.701-0.637-13.479-11.898-6.912-18.52c0.814-0.797,2.629-3.355-0.1-1.566
		c-6.629,4.711-15.828-0.355-15.641-7.617c0.344-13.391,16.668-14.391,20.16-3.203c0.336,1.238,1.305,1.863,1.035-0.242
		c-0.48-3.814-1.484-9.564-4.348-14.564L135.789,180.949L135.789,180.949z"/>
	<path d="M135.789,128.863c-2.305,4.619-3.98,9.363-4.281,14.43c-0.273,1.867,0.859,1.896,1.031,0.586
		c3.262-12.479,20.609-9.098,20.016,2.637c-0.484,9.518-9.938,11.563-14.867,8.449c-1.943-1.145-1.836-0.457-0.771,0.73
		c7.324,8.168,2.887,18.689-7.014,18.883c-10.701-0.639-13.479-11.895-6.912-18.52c0.814-0.799,2.629-3.354-0.1-1.563
		c-6.629,4.707-15.828-0.354-15.641-7.617c0.344-13.392,16.668-14.392,20.16-3.207c0.336,1.242,1.305,1.863,1.035-0.242
		c-0.48-3.813-1.484-9.563-4.348-14.565H135.789L135.789,128.863z"/>
	<path d="M54.562,128.863c-2.305,4.619-3.98,9.363-4.281,14.43c-0.274,1.867,0.863,1.896,1.031,0.586
		c3.262-12.479,20.61-9.098,20.016,2.637c-0.485,9.518-9.938,11.563-14.867,8.449c-1.946-1.145-1.836-0.457-0.774,0.73
		c7.324,8.168,2.887,18.689-7.008,18.883c-10.707-0.639-13.484-11.895-6.918-18.52c0.817-0.799,2.629-3.354-0.097-1.563
		c-6.629,4.707-15.828-0.354-15.641-7.617c0.344-13.392,16.668-14.392,20.16-3.207c0.336,1.242,1.305,1.863,1.035-0.242
		c-0.48-3.813-1.484-9.563-4.347-14.565H54.562L54.562,128.863z"/>
	<path d="M10.527,58.203c0.953-1.957,1.883-3.777,2.387-5.922c0.336-2.019-0.348-1.269-0.739,0.055
		c-0.578,1.84-2.179,2.676-3.664,2.695c-2.695,0.039-4.043-2.082-3.957-4.363c-0.297-2.398,2.137-4.094,3.969-3.965
		c1.379,0.098,2.578,0.844,3.305,1.422c0.476,0.25,0.988,0.363,0.277-0.289c-1.344-1.465-2.461-2.371-2.437-4.566
		c0.023-2.063,1.785-4.215,4.125-4.149c2.922,0.086,4.25,2.313,4.242,4.387c-0.008,1.508-0.762,2.898-1.93,3.762
		c-0.754,0.613-0.543,1.07,0.32,0.492c0.829-0.715,1.813-1.028,2.836-1.051c2.789-0.043,3.883,2.371,3.723,4.613
		c-0.148,2.102-1.937,4.262-4.297,4.016c-2.101-0.238-3.211-2.008-3.844-3.82c-0.207-0.555-0.539-0.708-0.531,0.121
		c0.488,4.046,1.992,6.566,2.004,6.563L10.527,58.203L10.527,58.203z"/>
	<path d="M168.05,189.939c-0.952,1.957-1.879,3.777-2.387,5.924c-0.336,2.02,0.353,1.27,0.741-0.055
		c0.574-1.842,2.177-2.678,3.664-2.695c2.695-0.035,4.039,2.082,3.957,4.363c0.293,2.396-2.137,4.094-3.969,3.963
		c-1.379-0.098-2.582-0.838-3.31-1.42c-0.478-0.25-0.983-0.363-0.272,0.289c1.34,1.463,2.461,2.371,2.438,4.564
		c-0.021,2.064-1.789,4.215-4.125,4.146c-2.922-0.086-4.25-2.313-4.242-4.383c0.01-1.512,0.764-2.902,1.928-3.762
		c0.758-0.613,0.547-1.074-0.316-0.492c-0.828,0.711-1.813,1.023-2.836,1.047c-2.793,0.043-3.883-2.371-3.723-4.613
		c0.146-2.098,1.938-4.262,4.293-4.016c2.104,0.242,3.211,2.008,3.844,3.82c0.211,0.559,0.543,0.707,0.531-0.121
		c-0.484-4.047-1.992-6.563-2.004-6.563h5.788V189.939z"/>
</g>
</svg>
