<?xml version="1.0" encoding="utf-8"?>
<!-- Generator: Adobe Illustrator 15.0.0, SVG Export Plug-In . SVG Version: 6.00 Build 0)  -->
<!DOCTYPE svg PUBLIC "-//W3C//DTD SVG 1.1//EN" "http://www.w3.org/Graphics/SVG/1.1/DTD/svg11.dtd">
<svg version="1.1" id="Layer_1" xmlns="http://www.w3.org/2000/svg" xmlns:xlink="http://www.w3.org/1999/xlink" x="0px" y="0px"
	 width="178.582px" height="249.449px" viewBox="0 0 178.582 249.449" enable-background="new 0 0 178.582 249.449"
	 xml:space="preserve">
<g>
	<path d="M3.933,33.312l0.129-1.617c0.41-4.992,1.5-6.675,7.699-11.883c3.008-2.527,3.996-3.773,4.133-5.222
		c0.394-3.406-2.68-4.473-4.684-4.488c-2.594-0.028-5.527,1.527-4.129,5.128l-2.906,0.856c-0.59-3.359,0.012-6.516,2.738-7.914
		c3.637-1.824,8.305-1.11,10.66,1.765c1.582,1.93,1.942,4.598,1.094,6.684c-2.48,5.336-10.898,7.684-11.594,13.856h9.305v-3.438
		h2.742v6.328L3.933,33.312z"/>
	<path d="M174.637,217.083l-0.133,1.617c-0.406,4.988-1.5,6.676-7.695,11.883c-3.008,2.527-3.996,3.773-4.137,5.219
		c-0.394,3.41,2.684,4.476,4.684,4.492c2.594,0.023,5.531-1.524,4.129-5.129l2.91-0.854c0.59,3.357-0.012,6.512-2.738,7.914
		c-3.637,1.822-8.305,1.107-10.66-1.768c-1.582-1.931-1.938-4.599-1.094-6.685c2.48-5.34,10.898-7.688,11.594-13.854h-9.305v3.436
		h-2.742v-6.324L174.637,217.083z"/>
	<path d="M83.382,68.227c2.301-4.618,3.981-9.36,4.278-14.43c0.273-1.863-0.86-1.895-1.031-0.582
		c-3.262,12.476-20.61,9.097-20.012-2.637c0.48-9.516,9.933-11.563,14.863-8.453c1.949,1.148,1.836,0.461,0.774-0.727
		c-7.321-8.171-2.887-18.691,7.011-18.882c10.703,0.632,13.48,11.894,6.915,18.519c-0.816,0.793-2.625,3.352,0.098,1.563
		c6.631-4.711,15.832,0.355,15.646,7.617c-0.348,13.39-16.672,14.39-20.164,3.207c-0.336-1.242-1.305-1.863-1.033,0.242
		c0.482,3.813,1.482,9.563,4.348,14.563H83.382z"/>
	<path d="M95.145,181.563c-2.306,4.621-3.982,9.359-4.281,14.433c-0.271,1.86,0.859,1.896,1.031,0.582
		c3.264-12.476,20.608-9.101,20.018,2.637c-0.484,9.519-9.938,11.563-14.867,8.453c-1.947-1.146-1.836-0.461-0.771,0.729
		c7.324,8.17,2.888,18.688-7.014,18.881c-10.704-0.631-13.48-11.896-6.915-18.521c0.817-0.793,2.625-3.354-0.097-1.563
		c-6.629,4.712-15.832-0.354-15.645-7.614c0.348-13.392,16.672-14.392,20.164-3.203c0.336,1.235,1.305,1.856,1.035-0.246
		c-0.484-3.813-1.484-9.563-4.347-14.563h11.689V181.563z"/>
	<path d="M9.935,55.571c0.953-1.957,1.882-3.777,2.386-5.921c0.336-2.024-0.351-1.27-0.738,0.054
		c-0.578,1.836-2.18,2.676-3.664,2.696c-2.699,0.035-4.043-2.086-3.961-4.364c-0.293-2.398,2.137-4.097,3.973-3.965
		c1.375,0.098,2.578,0.84,3.304,1.418c0.477,0.254,0.989,0.364,0.278-0.285c-1.344-1.468-2.461-2.371-2.438-4.57
		c0.024-2.063,1.785-4.215,4.125-4.145c2.918,0.082,4.25,2.309,4.242,4.383c-0.007,1.512-0.765,2.903-1.929,3.762
		c-0.758,0.613-0.543,1.07,0.316,0.492c0.828-0.715,1.816-1.027,2.836-1.047c2.793-0.043,3.887,2.367,3.727,4.61
		c-0.153,2.101-1.942,4.265-4.297,4.019c-2.106-0.242-3.211-2.008-3.844-3.82c-0.211-0.559-0.539-0.707-0.531,0.121
		c0.484,4.047,1.992,6.562,2.004,6.562H9.935z"/>
	<path d="M168.642,195.056c-0.957,1.953-1.883,3.771-2.391,5.918c-0.332,2.021,0.352,1.271,0.739-0.057
		c0.578-1.836,2.179-2.672,3.664-2.693c2.695-0.035,4.043,2.086,3.957,4.363c0.3,2.396-2.137,4.098-3.969,3.965
		c-1.379-0.1-2.578-0.84-3.308-1.418c-0.479-0.254-0.985-0.363-0.274,0.283c1.344,1.471,2.461,2.371,2.438,4.572
		c-0.022,2.063-1.789,4.213-4.125,4.146c-2.922-0.086-4.25-2.313-4.242-4.39c0.009-1.512,0.763-2.899,1.931-3.762
		c0.754-0.613,0.543-1.07-0.32-0.492c-0.827,0.715-1.813,1.027-2.836,1.047c-2.793,0.049-3.883-2.364-3.723-4.606
		c0.147-2.104,1.938-4.263,4.293-4.021c2.104,0.241,3.211,2.01,3.848,3.823c0.207,0.556,0.539,0.703,0.531-0.125
		c-0.488-4.043-1.996-6.563-2.004-6.559h5.789L168.642,195.056L168.642,195.056z"/>
</g>
</svg>
