<?xml version="1.0" encoding="utf-8"?>
<!-- Generator: Adobe Illustrator 15.0.0, SVG Export Plug-In . SVG Version: 6.00 Build 0)  -->
<!DOCTYPE svg PUBLIC "-//W3C//DTD SVG 1.1//EN" "http://www.w3.org/Graphics/SVG/1.1/DTD/svg11.dtd">
<svg version="1.1" id="Layer_1" xmlns="http://www.w3.org/2000/svg" xmlns:xlink="http://www.w3.org/1999/xlink" x="0px" y="0px"
	 width="178.582px" height="249.449px" viewBox="0 0 178.582 249.449" enable-background="new 0 0 178.582 249.449"
	 xml:space="preserve">
<g>
	<path d="M7.917,33.211c1.707-8.871,3.528-15.527,8.305-22.758H6.515v3.109H3.933V7.699h14.203l1.754,2.754
		c-5.074,5.438-9.719,23.012-8.898,22.758H7.917z"/>
	<path d="M170.653,217.033c-1.707,8.871-3.527,15.527-8.306,22.758h9.707v-3.113h2.582v5.867h-14.203l-1.75-2.754
		c5.07-5.438,9.72-23.018,8.896-22.758H170.653z"/>
	<path d="M123.897,68.104c2.305-4.621,3.979-9.363,4.28-14.433c0.271-1.864-0.862-1.895-1.03-0.583
		c-3.263,12.477-20.609,9.098-20.017-2.636c0.483-9.516,9.938-11.563,14.867-8.449c1.944,1.144,1.836,0.457,0.772-0.731
		c-7.324-8.168-2.89-18.691,7.008-18.883c10.707,0.637,13.481,11.895,6.918,18.52c-0.815,0.797-2.629,3.351,0.099,1.562
		c6.629-4.707,15.828,0.356,15.642,7.617c-0.345,13.391-16.673,14.391-20.16,3.208c-0.336-1.243-1.306-1.864-1.039,0.242
		c0.483,3.812,1.487,9.562,4.354,14.566H123.897z"/>
	<path d="M123.897,148.297c2.305-4.615,3.979-9.357,4.28-14.432c0.271-1.861-0.862-1.896-1.03-0.582
		c-3.263,12.479-20.609,9.1-20.017-2.637c0.483-9.516,9.938-11.563,14.867-8.453c1.944,1.147,1.836,0.461,0.772-0.727
		c-7.324-8.172-2.89-18.691,7.008-18.883c10.707,0.633,13.481,11.895,6.918,18.52c-0.815,0.793-2.629,3.354,0.099,1.563
		c6.629-4.711,15.828,0.355,15.642,7.617c-0.345,13.393-16.673,14.395-20.16,3.207c-0.336-1.238-1.306-1.861-1.039,0.242
		c0.483,3.813,1.487,9.563,4.354,14.563h-11.694V148.297z"/>
	<path d="M42.671,148.297c2.304-4.615,3.98-9.357,4.281-14.432c0.273-1.861-0.859-1.896-1.031-0.582
		c-3.262,12.479-20.61,9.1-20.016-2.637c0.485-9.516,9.938-11.563,14.867-8.453c1.946,1.147,1.836,0.461,0.774-0.727
		c-7.324-8.172-2.887-18.691,7.008-18.883c10.707,0.633,13.484,11.895,6.918,18.52c-0.817,0.793-2.629,3.354,0.097,1.563
		c6.629-4.711,15.828,0.355,15.641,7.617c-0.344,13.393-16.668,14.395-20.16,3.207c-0.336-1.238-1.305-1.861-1.035,0.242
		c0.48,3.813,1.484,9.563,4.347,14.563H42.671V148.297z"/>
	<path d="M83.018,108.201c2.305-4.621,3.981-9.36,4.278-14.43c0.273-1.867-0.86-1.898-1.028-0.582
		c-3.261,12.473-20.613,9.094-20.015-2.637c0.484-9.515,9.937-11.566,14.867-8.453c1.945,1.145,1.836,0.461,0.773-0.73
		c-7.324-8.168-2.886-18.688,7.008-18.883c10.704,0.637,13.48,11.898,6.918,18.519c-0.816,0.797-2.629,3.356,0.098,1.567
		c6.629-4.711,15.828,0.355,15.641,7.617c-0.344,13.391-16.672,14.391-20.16,3.203c-0.336-1.238-1.305-1.863-1.039,0.242
		c0.484,3.817,1.488,9.563,4.354,14.567H83.018z"/>
	<path d="M42.671,68.104c2.304-4.621,3.98-9.363,4.281-14.433c0.273-1.864-0.859-1.895-1.031-0.583
		c-3.262,12.477-20.61,9.098-20.016-2.636c0.485-9.516,9.938-11.563,14.867-8.449c1.946,1.144,1.836,0.457,0.774-0.731
		c-7.324-8.168-2.887-18.691,7.008-18.883c10.707,0.637,13.484,11.895,6.918,18.52c-0.817,0.797-2.629,3.351,0.097,1.562
		c6.629-4.707,15.828,0.356,15.641,7.617c-0.344,13.391-16.668,14.391-20.16,3.208c-0.336-1.243-1.305-1.864-1.035,0.242
		c0.48,3.812,1.484,9.562,4.347,14.566H42.671z"/>
	<path d="M135.659,181.465c-2.301,4.621-3.98,9.357-4.277,14.432c-0.273,1.861,0.859,1.895,1.031,0.582
		c3.262-12.475,20.609-9.1,20.012,2.637c-0.484,9.516-9.934,11.563-14.863,8.453c-1.949-1.148-1.84-0.461-0.777,0.729
		c7.324,8.168,2.895,18.688-7.008,18.879c-10.703-0.631-13.479-11.894-6.914-18.515c0.816-0.797,2.625-3.354-0.098-1.565
		c-6.633,4.714-15.832-0.354-15.645-7.614c0.348-13.396,16.672-14.396,20.164-3.203c0.336,1.238,1.301,1.863,1.035-0.246
		c-0.484-3.813-1.484-9.563-4.354-14.563h11.69v-0.002h0.004V181.465L135.659,181.465z"/>
	<path d="M54.432,181.465c-2.3,4.621-3.98,9.357-4.277,14.432c-0.273,1.861,0.86,1.895,1.031,0.582
		c3.262-12.475,20.61-9.1,20.012,2.637c-0.484,9.516-9.933,11.563-14.863,8.453c-1.949-1.148-1.84-0.461-0.778,0.729
		c7.325,8.168,2.891,18.688-7.007,18.879c-10.703-0.631-13.481-11.894-6.914-18.515c0.816-0.797,2.625-3.354-0.098-1.565
		c-6.633,4.714-15.832-0.354-15.645-7.614c0.348-13.396,16.672-14.396,20.164-3.203c0.336,1.238,1.301,1.863,1.036-0.246
		c-0.485-3.813-1.485-9.563-4.352-14.563h11.691V181.465z"/>
	<path d="M9.931,55.571c0.953-1.957,1.883-3.777,2.387-5.922c0.336-2.023-0.348-1.269-0.739,0.055
		C11.001,51.54,9.4,52.38,7.915,52.399c-2.695,0.036-4.043-2.086-3.957-4.363c-0.297-2.398,2.137-4.098,3.969-3.965
		c1.379,0.098,2.578,0.84,3.305,1.418c0.476,0.254,0.988,0.364,0.277-0.285c-1.344-1.469-2.461-2.371-2.437-4.57
		c0.023-2.063,1.785-4.215,4.125-4.145c2.922,0.082,4.25,2.313,4.242,4.383c-0.008,1.512-0.762,2.902-1.93,3.762
		c-0.754,0.613-0.543,1.074,0.32,0.492c0.829-0.715,1.813-1.027,2.836-1.047c2.789-0.043,3.883,2.367,3.723,4.609
		c-0.148,2.102-1.937,4.266-4.297,4.02c-2.101-0.242-3.211-2.008-3.844-3.82c-0.207-0.559-0.539-0.707-0.531,0.121
		c0.488,4.047,1.992,6.562,2.004,6.562H9.931z"/>
	<path d="M168.637,195.057c-0.952,1.957-1.879,3.777-2.387,5.922c-0.336,2.021,0.353,1.271,0.741-0.055
		c0.574-1.84,2.177-2.676,3.664-2.695c2.695-0.039,4.039,2.082,3.957,4.363c0.293,2.396-2.137,4.094-3.969,3.965
		c-1.379-0.098-2.582-0.844-3.312-1.422c-0.479-0.25-0.981-0.363-0.271,0.289c1.34,1.465,2.461,2.371,2.438,4.564
		c-0.021,2.063-1.789,4.217-4.125,4.146c-2.922-0.086-4.25-2.313-4.242-4.387c0.01-1.512,0.764-2.898,1.928-3.766
		c0.758-0.609,0.547-1.066-0.314-0.49c-0.828,0.717-1.813,1.025-2.838,1.053c-2.793,0.043-3.883-2.371-3.723-4.613
		c0.146-2.102,1.938-4.262,4.293-4.016c2.104,0.234,3.211,2.008,3.844,3.816c0.211,0.559,0.543,0.707,0.531-0.121
		c-0.482-4.047-1.992-6.563-2.004-6.563h5.787L168.637,195.057L168.637,195.057z"/>
</g>
</svg>
