<?xml version="1.0" encoding="utf-8"?>
<!-- Generator: Adobe Illustrator 15.0.0, SVG Export Plug-In . SVG Version: 6.00 Build 0)  -->
<!DOCTYPE svg PUBLIC "-//W3C//DTD SVG 1.1//EN" "http://www.w3.org/Graphics/SVG/1.1/DTD/svg11.dtd">
<svg version="1.1" id="Layer_1" xmlns="http://www.w3.org/2000/svg" xmlns:xlink="http://www.w3.org/1999/xlink" x="0px" y="0px"
	 width="178.582px" height="249.449px" viewBox="0 0 178.582 249.449" enable-background="new 0 0 178.582 249.449"
	 xml:space="preserve">
<g>
	<path d="M5.785,36.855v-2.191h2.129l4.531-23.418h2.582l4.992,23.418h1.719v2.191h-5.856v-2.191h1.583l-0.629-3.59h-5.911
		l-0.457,3.59h1.582v2.191H5.785z M16.328,28.523l-2.567-12.539l-2.406,12.539H16.328z"/>
	<path d="M172.792,212.598v2.191h-2.129l-4.531,23.414h-2.577l-4.996-23.414h-1.716v-2.191h5.853v2.191h-1.582l0.634,3.586h5.905
		l0.457-3.586h-1.582v-2.191H172.792z M162.25,220.93l2.566,12.539l2.406-12.539H162.25z"/>
	<path d="M83.41,147.582c2.301-4.621,3.98-9.359,4.277-14.43c0.274-1.863-0.859-1.896-1.031-0.582
		c-3.262,12.473-20.609,9.098-20.012-2.637c0.485-9.518,9.934-11.563,14.863-8.456c1.95,1.149,1.84,0.461,0.778-0.73
		c-7.324-8.168-2.891-18.688,7.008-18.879c10.703,0.633,13.48,11.895,6.914,18.516c-0.816,0.797-2.625,3.355,0.098,1.566
		c6.633-4.711,15.832,0.356,15.646,7.615c-0.35,13.393-16.674,14.393-20.164,3.203c-0.336-1.236-1.303-1.861-1.035,0.246
		c0.482,3.813,1.482,9.563,4.354,14.563L83.41,147.582L83.41,147.582z"/>
	<path d="M10.324,60.148c0.957-1.957,1.883-3.777,2.391-5.921c0.335-2.024-0.352-1.27-0.743,0.054
		c-0.578,1.836-2.175,2.676-3.664,2.696c-2.695,0.035-4.043-2.086-3.957-4.364c-0.297-2.398,2.137-4.097,3.969-3.965
		c1.379,0.098,2.578,0.84,3.305,1.418c0.48,0.254,0.988,0.364,0.277-0.285c-1.34-1.469-2.461-2.371-2.437-4.57
		c0.023-2.063,1.789-4.215,4.125-4.145c2.921,0.082,4.25,2.313,4.242,4.383c-0.008,1.512-0.762,2.903-1.93,3.762
		c-0.754,0.613-0.543,1.074,0.32,0.492c0.828-0.715,1.813-1.027,2.836-1.047c2.793-0.043,3.883,2.367,3.723,4.61
		c-0.149,2.101-1.938,4.265-4.293,4.02c-2.106-0.242-3.211-2.008-3.848-3.82c-0.207-0.559-0.539-0.707-0.531,0.121
		c0.488,4.047,1.996,6.562,2.004,6.562L10.324,60.148L10.324,60.148z"/>
	<path d="M167.5,189.613c-0.953,1.957-1.879,3.777-2.387,5.922c-0.336,2.02,0.352,1.27,0.742-0.057
		c0.574-1.838,2.176-2.674,3.664-2.693c2.693-0.039,4.039,2.082,3.957,4.361c0.293,2.398-2.139,4.096-3.971,3.967
		c-1.379-0.098-2.576-0.844-3.309-1.424c-0.479-0.25-0.984-0.361-0.273,0.289c1.342,1.467,2.463,2.373,2.438,4.566
		c-0.022,2.063-1.788,4.215-4.125,4.146c-2.922-0.086-4.25-2.313-4.241-4.383c0.008-1.512,0.762-2.9,1.926-3.766
		c0.759-0.609,0.547-1.07-0.315-0.492c-0.828,0.715-1.813,1.027-2.836,1.051c-2.793,0.043-3.883-2.371-3.724-4.611
		c0.147-2.1,1.938-4.264,4.293-4.018c2.104,0.238,3.211,2.008,3.845,3.82c0.211,0.555,0.543,0.707,0.53-0.121
		c-0.483-4.047-1.991-6.566-2.004-6.563h5.789L167.5,189.613L167.5,189.613z"/>
</g>
</svg>
