<?xml version="1.0" encoding="utf-8"?>
<!-- Generator: Adobe Illustrator 15.0.0, SVG Export Plug-In . SVG Version: 6.00 Build 0)  -->
<!DOCTYPE svg PUBLIC "-//W3C//DTD SVG 1.1//EN" "http://www.w3.org/Graphics/SVG/1.1/DTD/svg11.dtd">
<svg version="1.1" id="Layer_1" xmlns="http://www.w3.org/2000/svg" xmlns:xlink="http://www.w3.org/1999/xlink" x="0px" y="0px"
	 width="178.582px" height="249.449px" viewBox="0 0 178.582 249.449" enable-background="new 0 0 178.582 249.449"
	 xml:space="preserve">
<g>
	<path d="M174.73,217.03v25.203h-2.492V217.03H174.73z"/>
	<path d="M164.867,242.233c2.395,0,4.32-2.148,4.32-4.816V221.85c0-2.668-1.926-4.815-4.32-4.815h-1.398
		c-2.395,0-4.324,2.147-4.324,4.815v15.567c0,2.668,1.933,4.816,4.324,4.816H164.867z M164.145,239.851
		c-1.414,0-2.556-1.066-2.556-2.398v-15.777c0-1.332,1.142-2.406,2.556-2.406s2.557,1.074,2.557,2.406v15.777
		C166.699,238.784,165.559,239.851,164.145,239.851L164.145,239.851z"/>
	<path d="M3.851,33.18V7.973H6.34V33.18H3.851z"/>
	<path d="M13.715,7.973c-2.395,0-4.321,2.153-4.321,4.821v15.57c0,2.668,1.926,4.816,4.321,4.816h1.394
		c2.398,0,4.328-2.148,4.328-4.816v-15.57c0-2.668-1.93-4.821-4.328-4.821H13.715z M14.437,10.356c1.414,0,2.551,1.07,2.551,2.402
		v15.778c0,1.332-1.137,2.406-2.551,2.406c-1.418,0-2.555-1.074-2.555-2.406V12.758C11.882,11.426,13.019,10.356,14.437,10.356
		L14.437,10.356z"/>
	<path d="M124.907,120.777c2.301-4.621,3.98-9.359,4.277-14.429c0.271-1.864-0.859-1.895-1.031-0.582
		c-3.262,12.472-20.609,9.097-20.012-2.637c0.479-9.516,9.934-11.563,14.863-8.453c1.946,1.148,1.836,0.461,0.771-0.727
		c-7.32-8.172-2.89-18.691,7.012-18.883c10.703,0.633,13.479,11.895,6.914,18.52c-0.813,0.793-2.625,3.351,0.101,1.562
		c6.629-4.711,15.832,0.356,15.645,7.618c-0.348,13.39-16.672,14.39-20.164,3.203c-0.336-1.239-1.305-1.86-1.035,0.246
		c0.484,3.812,1.484,9.562,4.348,14.562H124.907z"/>
	<path d="M42.078,120.777c2.304-4.621,3.98-9.359,4.277-14.429c0.273-1.864-0.859-1.895-1.027-0.582
		c-3.262,12.472-20.614,9.097-20.016-2.637c0.484-9.516,9.937-11.563,14.867-8.453c1.945,1.148,1.836,0.461,0.774-0.727
		c-7.325-8.172-2.887-18.691,7.007-18.883c10.704,0.633,13.481,11.895,6.918,18.52c-0.816,0.793-2.629,3.351,0.098,1.562
		c6.629-4.711,15.828,0.356,15.641,7.618c-0.344,13.39-16.672,14.39-20.161,3.203c-0.335-1.239-1.304-1.86-1.039,0.246
		c0.485,3.812,1.489,9.562,4.352,14.562H42.078z"/>
	<path d="M83.449,94.645c2.304-4.618,3.98-9.36,4.281-14.43c0.273-1.863-0.859-1.895-1.031-0.582
		c-3.262,12.476-20.61,9.097-20.016-2.637c0.484-9.516,9.938-11.562,14.867-8.453c1.946,1.148,1.836,0.461,0.774-0.727
		c-7.325-8.171-2.887-18.691,7.011-18.882c10.705,0.632,13.482,11.894,6.916,18.519c-0.816,0.793-2.629,3.352,0.098,1.563
		c6.629-4.711,15.832,0.355,15.644,7.617c-0.347,13.39-16.668,14.39-20.16,3.207c-0.336-1.242-1.305-1.863-1.032,0.242
		c0.481,3.813,1.481,9.563,4.348,14.563H83.449z"/>
	<path d="M124.907,68.516c2.301-4.621,3.98-9.364,4.277-14.43c0.271-1.867-0.859-1.899-1.031-0.586
		c-3.262,12.477-20.609,9.098-20.012-2.637c0.479-9.515,9.934-11.562,14.863-8.449c1.946,1.145,1.836,0.457,0.771-0.73
		c-7.32-8.168-2.89-18.692,7.012-18.883c10.703,0.636,13.479,11.894,6.914,18.519c-0.813,0.797-2.625,3.352,0.101,1.563
		c6.629-4.707,15.832,0.355,15.645,7.617c-0.348,13.391-16.672,14.391-20.164,3.207c-0.336-1.242-1.305-1.863-1.035,0.242
		c0.484,3.813,1.484,9.563,4.348,14.567H124.907z"/>
	<path d="M42.078,68.516c2.304-4.621,3.98-9.364,4.277-14.43c0.273-1.867-0.859-1.899-1.027-0.586
		c-3.262,12.477-20.614,9.098-20.016-2.637c0.484-9.515,9.937-11.562,14.867-8.449c1.945,1.145,1.836,0.457,0.774-0.73
		c-7.325-8.168-2.887-18.692,7.007-18.883c10.704,0.636,13.481,11.894,6.918,18.519c-0.816,0.797-2.629,3.352,0.098,1.563
		c6.629-4.707,15.828,0.355,15.641,7.617c-0.344,13.391-16.672,14.391-20.161,3.207c-0.335-1.242-1.304-1.863-1.039,0.242
		c0.485,3.813,1.489,9.563,4.352,14.567H42.078z"/>
	<path d="M53.839,128.672c-2.304,4.621-3.98,9.363-4.277,14.43c-0.273,1.867,0.859,1.898,1.031,0.586
		c3.258-12.477,20.61-9.098,20.012,2.64c-0.484,9.516-9.934,11.563-14.867,8.446c-1.946-1.145-1.836-0.457-0.774,0.73
		c7.325,8.168,2.891,18.691-7.008,18.883c-10.703-0.637-13.48-11.895-6.914-18.52c0.817-0.797,2.625-3.352-0.101-1.563
		c-6.629,4.707-15.828-0.354-15.641-7.618c0.348-13.39,16.672-14.39,20.164-3.207c0.336,1.244,1.301,1.864,1.035-0.239
		c-0.484-3.813-1.484-9.563-4.351-14.565L53.839,128.672L53.839,128.672z"/>
	<path d="M53.839,180.938c-2.304,4.621-3.98,9.363-4.277,14.433c-0.273,1.864,0.859,1.896,1.031,0.582
		c3.258-12.476,20.61-9.097,20.012,2.641c-0.484,9.517-9.934,11.563-14.867,8.449c-1.946-1.146-1.836-0.461-0.774,0.729
		c7.325,8.168,2.891,18.688-7.008,18.883c-10.703-0.637-13.48-11.896-6.914-18.521c0.817-0.797,2.625-3.354-0.101-1.565
		c-6.629,4.711-15.828-0.353-15.641-7.615c0.348-13.393,16.672-14.389,20.164-3.203c0.336,1.236,1.301,1.861,1.035-0.242
		c-0.484-3.816-1.484-9.563-4.351-14.566h11.691V180.938z"/>
	<path d="M136.668,128.672c-2.305,4.621-3.983,9.363-4.28,14.43c-0.271,1.867,0.858,1.898,1.03,0.586
		c3.263-12.477,20.609-9.098,20.017,2.64c-0.482,9.516-9.938,11.563-14.865,8.446c-1.945-1.145-1.836-0.457-0.771,0.73
		c7.322,8.168,2.887,18.691-7.014,18.883c-10.703-0.637-13.479-11.895-6.914-18.52c0.814-0.797,2.629-3.352-0.1-1.563
		c-6.629,4.707-15.832-0.354-15.646-7.618c0.349-13.39,16.673-14.39,20.164-3.207c0.336,1.244,1.306,1.864,1.035-0.239
		c-0.483-3.813-1.483-9.563-4.349-14.565L136.668,128.672L136.668,128.672z"/>
	<path d="M136.668,180.938c-2.305,4.621-3.983,9.363-4.28,14.433c-0.271,1.864,0.858,1.896,1.03,0.582
		c3.263-12.476,20.609-9.097,20.017,2.641c-0.482,9.517-9.938,11.563-14.865,8.449c-1.945-1.146-1.836-0.461-0.771,0.729
		c7.322,8.168,2.887,18.688-7.014,18.883c-10.703-0.637-13.479-11.896-6.914-18.521c0.814-0.797,2.629-3.354-0.1-1.565
		c-6.629,4.711-15.832-0.353-15.646-7.615c0.349-13.393,16.673-14.389,20.164-3.203c0.336,1.236,1.306,1.861,1.035-0.242
		c-0.483-3.816-1.483-9.563-4.349-14.566h11.691L136.668,180.938L136.668,180.938z"/>
	<path d="M95.587,154.805c-2.302,4.621-3.979,9.363-4.277,14.43c-0.271,1.867,0.858,1.898,1.031,0.586
		c3.262-12.477,20.608-9.098,20.012,2.64c-0.482,9.519-9.935,11.563-14.861,8.449c-1.949-1.146-1.84-0.457-0.775,0.729
		c7.322,8.168,2.891,18.688-7.009,18.883c-10.708-0.639-13.484-11.9-6.917-18.521c0.816-0.797,2.625-3.354-0.102-1.566
		c-6.629,4.711-15.828-0.352-15.641-7.613c0.348-13.395,16.672-14.391,20.164-3.204c0.336,1.239,1.301,1.86,1.036-0.242
		c-0.485-3.813-1.485-9.563-4.352-14.563h11.693V154.805z"/>
	<path d="M9.849,55.571c0.953-1.957,1.883-3.777,2.387-5.922c0.335-2.023-0.348-1.269-0.739,0.055
		c-0.578,1.84-2.179,2.676-3.664,2.695c-2.695,0.036-4.043-2.082-3.957-4.363c-0.297-2.398,2.137-4.098,3.969-3.965
		c1.379,0.098,2.578,0.84,3.305,1.418c0.476,0.254,0.988,0.367,0.277-0.285c-1.344-1.465-2.461-2.371-2.438-4.57
		c0.024-2.063,1.79-4.211,4.125-4.145c2.922,0.082,4.25,2.313,4.243,4.383c-0.008,1.512-0.762,2.902-1.93,3.762
		c-0.754,0.613-0.543,1.074,0.32,0.492c0.828-0.711,1.813-1.023,2.836-1.047c2.789-0.043,3.883,2.371,3.723,4.609
		c-0.149,2.102-1.938,4.266-4.297,4.02c-2.102-0.242-3.207-2.008-3.844-3.82c-0.207-0.559-0.539-0.707-0.531,0.121
		c0.488,4.047,1.992,6.562,2.004,6.562H9.849z"/>
	<path d="M168.73,195.056c-0.953,1.957-1.879,3.777-2.388,5.922c-0.336,2.021,0.353,1.271,0.742-0.055
		c0.573-1.84,2.176-2.676,3.664-2.695c2.694-0.035,4.039,2.082,3.957,4.363c0.293,2.396-2.138,4.094-3.97,3.965
		c-1.379-0.098-2.578-0.84-3.311-1.422c-0.479-0.25-0.982-0.363-0.271,0.289c1.341,1.465,2.461,2.371,2.438,4.564
		c-0.021,2.065-1.789,4.217-4.125,4.147c-2.922-0.086-4.25-2.313-4.24-4.383c0.008-1.515,0.762-2.902,1.926-3.765
		c0.758-0.61,0.547-1.071-0.315-0.489c-0.828,0.711-1.813,1.021-2.836,1.047c-2.793,0.043-3.884-2.371-3.724-4.613
		c0.146-2.098,1.938-4.262,4.293-4.016c2.104,0.239,3.211,2.008,3.845,3.817c0.211,0.558,0.543,0.707,0.53-0.121
		c-0.483-4.047-1.991-6.563-2.004-6.563h5.789V195.056L168.73,195.056z"/>
</g>
</svg>
