<?xml version="1.0" encoding="utf-8"?>
<!-- Generator: Adobe Illustrator 15.0.0, SVG Export Plug-In . SVG Version: 6.00 Build 0)  -->
<!DOCTYPE svg PUBLIC "-//W3C//DTD SVG 1.1//EN" "http://www.w3.org/Graphics/SVG/1.1/DTD/svg11.dtd">
<svg version="1.1" id="Layer_1" xmlns="http://www.w3.org/2000/svg" xmlns:xlink="http://www.w3.org/1999/xlink" x="0px" y="0px"
	 width="178.582px" height="249.449px" viewBox="0 0 178.582 249.449" enable-background="new 0 0 178.582 249.449"
	 xml:space="preserve">
<g>
	<path d="M6.933,31.416l2.063-1.488c1.792,2.859,3.792,4.746,6.855,4.422c4.594-0.309,6.496-5.036,5.531-8.602
		c-0.926-3.191-4.73-4.75-7.754-3.047c-0.711,0.402-1.535,0.902-1.535,0.902l-1.078-1.753l7.098-8.254h-7.7v3.414H7.456v-6.126
		h15.051v2.078c0,0-4.031,4.105-5.367,6.355c3.285,0.118,5.93,2.16,6.879,5.391c0.555,1.699,0.305,5.586-0.422,7.262
		c-1.207,2.793-4.519,5.058-7.547,5.188C10.976,37.494,8.277,34.001,6.933,31.416L6.933,31.416z"/>
	<path d="M171.637,217.8l-2.063,1.486c-1.797-2.861-3.797-4.744-6.854-4.42c-4.598,0.309-6.496,5.034-5.535,8.598
		c0.933,3.193,4.73,4.754,7.754,3.047c0.715-0.401,1.539-0.819,1.539-0.819l1.271,1.646l-7.293,8.283h7.698v-3.414h2.953v6.121
		h-15.045v-2.078c0,0,4.031-4.103,5.363-6.353c-3.281-0.121-5.93-2.16-6.875-5.392c-0.555-1.698-0.305-5.586,0.418-7.265
		c1.211-2.793,4.52-5.059,7.547-5.188C167.598,211.718,170.293,215.214,171.637,217.8L171.637,217.8z"/>
	<path d="M83.101,147.823c2.328-4.675,4.028-9.472,4.328-14.601c0.278-1.888-0.871-1.918-1.043-0.591
		c-3.3,12.625-20.855,9.207-20.254-2.668c0.493-9.633,10.055-11.703,15.047-8.555c1.969,1.161,1.856,0.465,0.782-0.738
		c-7.411-8.266-2.922-18.914,7.093-19.109c10.833,0.644,13.645,12.039,7,18.742c-0.828,0.805-2.66,3.394,0.098,1.586
		c6.711-4.77,16.02,0.355,15.832,7.708c-0.354,13.551-16.875,14.562-20.406,3.241c-0.34-1.254-1.32-1.888-1.047,0.246
		c0.488,3.858,1.5,9.681,4.398,14.737L83.101,147.823L83.101,147.823z"/>
	<path d="M83.05,68.146c2.329-4.68,4.028-9.477,4.329-14.606c0.277-1.886-0.872-1.918-1.043-0.59
		c-3.301,12.625-20.86,9.207-20.254-2.668c0.488-9.628,10.054-11.703,15.043-8.554c1.972,1.16,1.859,0.465,0.785-0.738
		c-7.41-8.266-2.922-18.915,7.094-19.11C99.836,22.525,102.645,33.919,96,40.622c-0.824,0.805-2.656,3.395,0.102,1.586
		c6.707-4.769,16.021,0.356,15.828,7.707c-0.348,13.551-16.871,14.563-20.402,3.242c-0.34-1.253-1.316-1.886-1.051,0.247
		c0.492,3.859,1.504,9.679,4.402,14.742H83.05z"/>
	<path d="M94.953,181.458c-2.332,4.676-4.031,9.474-4.332,14.603c-0.277,1.891,0.871,1.922,1.043,0.59
		c3.301-12.621,20.859-9.203,20.254,2.672c-0.488,9.629-10.055,11.699-15.043,8.551c-1.969-1.157-1.859-0.465-0.785,0.738
		c7.414,8.271,2.926,18.914-7.094,19.108c-10.832-0.643-13.641-12.038-6.996-18.741c0.824-0.806,2.656-3.392-0.102-1.582
		c-6.707,4.766-16.019-0.359-15.828-7.707c0.352-13.556,16.871-14.563,20.402-3.246c0.34,1.258,1.321,1.887,1.051-0.246
		c-0.492-3.856-1.504-9.676-4.402-14.735L94.953,181.458L94.953,181.458z"/>
	<path d="M13.005,59.798c0.965-1.977,1.902-3.82,2.414-5.992c0.34-2.043-0.356-1.285-0.75,0.058
		c-0.582,1.86-2.203,2.707-3.707,2.727c-2.731,0.035-4.09-2.11-4.004-4.418c-0.301-2.426,2.16-4.145,4.016-4.012
		c1.394,0.102,2.609,0.852,3.343,1.438c0.485,0.254,1,0.367,0.282-0.289c-1.36-1.485-2.493-2.403-2.465-4.625
		c0.023-2.086,1.808-4.266,4.172-4.196c2.957,0.086,4.3,2.34,4.293,4.438c-0.008,1.527-0.77,2.933-1.95,3.804
		c-0.765,0.622-0.55,1.086,0.321,0.5c0.836-0.722,1.836-1.039,2.871-1.062c2.824-0.043,3.93,2.398,3.765,4.668
		c-0.148,2.125-1.96,4.312-4.343,4.066c-2.133-0.246-3.25-2.031-3.891-3.867c-0.215-0.563-0.547-0.715-0.539,0.125
		c0.492,4.094,2.016,6.641,2.027,6.637H13.005z"/>
	<path d="M165.564,189.831c-0.965,1.978-1.901,3.817-2.414,5.992c-0.34,2.043,0.353,1.282,0.746-0.06
		c0.586-1.858,2.207-2.707,3.711-2.729c2.728-0.035,4.091,2.105,4.004,4.418c0.298,2.426-2.163,4.146-4.016,4.012
		c-1.396-0.104-2.613-0.854-3.35-1.438c-0.482-0.254-1-0.365-0.275,0.289c1.354,1.482,2.486,2.4,2.465,4.625
		c-0.022,2.086-1.811,4.268-4.177,4.193c-2.952-0.086-4.302-2.34-4.293-4.438c0.009-1.526,0.772-2.936,1.952-3.809
		c0.768-0.619,0.553-1.084-0.318-0.5c-0.841,0.727-1.836,1.041-2.871,1.063c-2.828,0.043-3.931-2.397-3.771-4.668
		c0.15-2.125,1.961-4.313,4.35-4.065c2.129,0.245,3.25,2.03,3.892,3.866c0.211,0.563,0.547,0.715,0.538-0.121
		c-0.491-4.098-2.021-6.646-2.03-6.641h5.858V189.831z"/>
</g>
</svg>
