<?xml version="1.0" encoding="utf-8"?>
<!-- Generator: Adobe Illustrator 15.0.0, SVG Export Plug-In . SVG Version: 6.00 Build 0)  -->
<!DOCTYPE svg PUBLIC "-//W3C//DTD SVG 1.1//EN" "http://www.w3.org/Graphics/SVG/1.1/DTD/svg11.dtd">
<svg version="1.1" id="Layer_1" xmlns="http://www.w3.org/2000/svg" xmlns:xlink="http://www.w3.org/1999/xlink" x="0px" y="0px"
	 width="178.582px" height="249.449px" viewBox="0 0 178.582 249.449" enable-background="new 0 0 178.582 249.449"
	 xml:space="preserve">
<g>
	<path d="M14.726,37.102v-2.25h2.071v-3.711H6.457v-2.618l11.187-16.878l1.828,0.007v16.871h3.164v2.618h-3.164l-0.062,3.711h1.734
		v2.25H14.726z M16.797,17.824L9.691,28.523h7.106V17.824z"/>
	<path d="M164.773,212.352v2.25h-2.066v3.711h10.34v2.613l-11.188,16.879l-1.828-0.004v-16.875h-3.164v-2.613h3.164l0.059-3.711
		h-1.734v-2.25H164.773z M162.707,231.629l7.102-10.703h-7.102V231.629z"/>
	<path d="M123.042,66.707c2.306-4.621,3.979-9.359,4.276-14.43c0.272-1.867-0.858-1.898-1.03-0.582
		c-3.259,12.473-20.608,9.094-20.013-2.636c0.483-9.516,9.935-11.567,14.867-8.454c1.944,1.145,1.836,0.461,0.772-0.73
		c-7.324-8.168-2.892-18.688,7.008-18.883c10.703,0.637,13.479,11.899,6.914,18.52c-0.815,0.797-2.625,3.355,0.103,1.566
		c6.629-4.711,15.828,0.356,15.642,7.617c-0.349,13.391-16.672,14.391-20.164,3.203c-0.336-1.238-1.301-1.863-1.035,0.243
		c0.484,3.816,1.484,9.566,4.353,14.566H123.042L123.042,66.707z"/>
	<path d="M43.418,66.707c2.3-4.621,3.98-9.359,4.277-14.43c0.273-1.867-0.859-1.898-1.031-0.582
		c-3.262,12.473-20.61,9.094-20.012-2.636c0.484-9.516,9.934-11.567,14.863-8.454c1.95,1.145,1.84,0.461,0.778-0.73
		c-7.325-8.168-2.891-18.688,7.007-18.883c10.704,0.637,13.481,11.899,6.915,18.52c-0.817,0.797-2.625,3.355,0.097,1.566
		c6.629-4.711,15.832,0.356,15.645,7.617c-0.348,13.391-16.672,14.391-20.164,3.203c-0.336-1.238-1.305-1.863-1.036,0.243
		c0.485,3.816,1.485,9.566,4.348,14.566H43.418L43.418,66.707z"/>
	<path d="M134.805,180.07c-2.306,4.619-3.979,9.363-4.277,14.43c-0.272,1.867,0.859,1.896,1.027,0.586
		c3.262-12.479,20.612-9.098,20.016,2.637c-0.483,9.518-9.938,11.563-14.866,8.449c-1.945-1.145-1.836-0.457-0.772,0.73
		c7.323,8.168,2.887,18.689-7.009,18.883c-10.702-0.639-13.479-11.898-6.918-18.52c0.815-0.799,2.629-3.354-0.098-1.566
		c-6.63,4.711-15.828-0.352-15.642-7.613c0.344-13.396,16.672-14.391,20.159-3.207c0.337,1.242,1.306,1.863,1.039-0.242
		c-0.483-3.813-1.487-9.563-4.353-14.566H134.805L134.805,180.07z"/>
	<path d="M55.179,180.07c-2.304,4.619-3.98,9.363-4.281,14.43c-0.273,1.867,0.859,1.896,1.031,0.586
		c3.262-12.479,20.61-9.098,20.016,2.637c-0.484,9.518-9.938,11.563-14.867,8.449c-1.946-1.145-1.836-0.457-0.774,0.73
		c7.325,8.168,2.887,18.689-7.011,18.883c-10.703-0.639-13.481-11.898-6.914-18.52c0.816-0.799,2.628-3.354-0.098-1.566
		c-6.629,4.711-15.828-0.352-15.641-7.613c0.344-13.396,16.668-14.391,20.16-3.207c0.336,1.242,1.305,1.863,1.036-0.242
		c-0.481-3.813-1.485-9.563-4.348-14.566H55.179L55.179,180.07z"/>
	<path d="M11.168,60.34c0.953-1.957,1.879-3.778,2.386-5.922c0.336-2.02-0.351-1.27-0.742,0.055
		c-0.574,1.839-2.176,2.675-3.664,2.695c-2.695,0.035-4.039-2.082-3.957-4.363c-0.293-2.399,2.137-4.094,3.969-3.965
		c1.379,0.097,2.582,0.84,3.308,1.422c0.477,0.25,0.985,0.363,0.274-0.289c-1.34-1.465-2.461-2.371-2.434-4.567
		c0.02-2.066,1.785-4.215,4.121-4.148c2.922,0.086,4.25,2.312,4.243,4.383c-0.008,1.511-0.762,2.902-1.926,3.761
		c-0.758,0.614-0.547,1.075,0.316,0.493c0.828-0.711,1.813-1.024,2.836-1.047c2.793-0.043,3.883,2.371,3.723,4.613
		c-0.149,2.098-1.938,4.262-4.293,4.016c-2.106-0.243-3.211-2.008-3.844-3.821c-0.211-0.558-0.543-0.707-0.531,0.121
		c0.484,4.047,1.992,6.563,2.004,6.563H11.168L11.168,60.34z"/>
	<path d="M167.414,189.348c-0.953,1.953-1.883,3.773-2.387,5.918c-0.336,2.023,0.348,1.273,0.738-0.055
		c0.576-1.836,2.18-2.676,3.664-2.695c2.693-0.035,4.043,2.086,3.957,4.363c0.297,2.396-2.139,4.098-3.971,3.965
		c-1.375-0.098-2.578-0.84-3.307-1.418c-0.477-0.254-0.986-0.363-0.275,0.285c1.346,1.469,2.461,2.371,2.438,4.57
		c-0.022,2.063-1.785,4.215-4.125,4.145c-2.922-0.082-4.25-2.309-4.242-4.383c0.009-1.512,0.763-2.902,1.931-3.762
		c0.754-0.613,0.543-1.07-0.319-0.492c-0.824,0.715-1.813,1.025-2.832,1.047c-2.793,0.047-3.888-2.367-3.728-4.609
		c0.151-2.102,1.938-4.262,4.297-4.02c2.103,0.242,3.211,2.008,3.845,3.824c0.211,0.555,0.538,0.701,0.53-0.125
		c-0.487-4.049-1.992-6.563-2.004-6.559H167.414L167.414,189.348z"/>
</g>
</svg>
