<?xml version="1.0" encoding="utf-8"?>
<!-- Generator: Adobe Illustrator 15.0.0, SVG Export Plug-In . SVG Version: 6.00 Build 0)  -->
<!DOCTYPE svg PUBLIC "-//W3C//DTD SVG 1.1//EN" "http://www.w3.org/Graphics/SVG/1.1/DTD/svg11.dtd">
<svg version="1.1" id="Layer_1" xmlns="http://www.w3.org/2000/svg" xmlns:xlink="http://www.w3.org/1999/xlink" x="0px" y="0px"
	 width="178.582px" height="249.449px" viewBox="0 0 178.582 249.449" enable-background="new 0 0 178.582 249.449"
	 xml:space="preserve">
<g>
	<path d="M6.601,30.031l2.578-0.023c0.489,1.558,1.578,3.14,3.055,3.582c4.168,0.976,6.852-1.352,7.738-4.039
		c1.071-3.258-0.027-7.836-2.894-9.461c-2.383-1.352-5.918-0.211-7.539,2.668l-1.805-1.102l0.969-10.738h11.785v2.539h-9.551
		l-0.152,4.473c2.055-1.442,5.215-1.43,7.269-0.418c3.891,1.855,5.7,6.074,4.942,11.05c-1.047,4.946-3.356,7.747-8.574,8.153
		C8.629,36.762,6.578,32.777,6.601,30.031L6.601,30.031z"/>
	<path d="M172.098,219.422l-2.574,0.02c-0.491-1.555-1.578-3.141-3.056-3.576c-4.168-0.979-6.852,1.352-7.737,4.037
		c-1.069,3.26,0.022,7.838,2.896,9.463c2.383,1.348,5.918,0.211,7.539-2.674l1.806,1.105L170,238.535h-11.785v-2.539h9.551
		l0.148-4.475c-2.051,1.441-5.215,1.432-7.266,0.418c-3.896-1.854-5.699-6.072-4.941-11.049c1.047-4.945,3.355-7.75,8.57-8.152
		C170.074,212.688,172.121,216.672,172.098,219.422L172.098,219.422z"/>
	<path d="M83.414,147.602c2.304-4.617,3.98-9.357,4.277-14.43c0.274-1.863-0.859-1.895-1.031-0.582
		c-3.258,12.477-20.61,9.098-20.012-2.637c0.484-9.516,9.934-11.562,14.867-8.453c1.946,1.148,1.836,0.461,0.774-0.727
		c-7.324-8.171-2.891-18.691,7.007-18.882c10.703,0.632,13.479,11.894,6.914,18.52c-0.815,0.793-2.625,3.352,0.103,1.563
		c6.629-4.711,15.828,0.355,15.642,7.617c-0.349,13.39-16.672,14.39-20.164,3.207c-0.336-1.241-1.302-1.862-1.035,0.242
		c0.483,3.813,1.483,9.563,4.353,14.563H83.414V147.602z"/>
	<path d="M122.809,68.191c2.301-4.617,3.979-9.359,4.276-14.429c0.272-1.864-0.858-1.895-1.03-0.582
		c-3.263,12.476-20.609,9.097-20.013-2.637c0.483-9.516,9.935-11.563,14.862-8.453c1.949,1.148,1.841,0.461,0.777-0.727
		c-7.324-8.172-2.892-18.691,7.008-18.883c10.703,0.633,13.479,11.895,6.914,18.52c-0.815,0.793-2.625,3.352,0.103,1.562
		c6.629-4.707,15.828,0.356,15.642,7.618c-0.349,13.39-16.673,14.39-20.164,3.207c-0.336-1.242-1.302-1.864-1.035,0.242
		c0.483,3.812,1.483,9.562,4.353,14.562H122.809z"/>
	<path d="M43.863,68.191c2.305-4.617,3.98-9.359,4.277-14.429c0.274-1.864-0.859-1.895-1.031-0.582
		c-3.258,12.476-20.609,9.097-20.012-2.637c0.485-9.516,9.934-11.563,14.868-8.453c1.945,1.148,1.835,0.461,0.773-0.727
		c-7.324-8.172-2.891-18.691,7.008-18.883C60.449,23.113,63.226,34.375,56.66,41c-0.817,0.793-2.625,3.352,0.101,1.562
		c6.629-4.707,15.829,0.356,15.641,7.618c-0.348,13.39-16.672,14.39-20.164,3.207c-0.336-1.242-1.301-1.864-1.035,0.242
		c0.484,3.812,1.484,9.562,4.351,14.562H43.863z"/>
	<path d="M134.57,179.801c-2.305,4.621-3.98,9.363-4.277,14.43c-0.273,1.867,0.859,1.898,1.027,0.582
		c3.262-12.473,20.613-9.094,20.016,2.643c-0.484,9.516-9.938,11.563-14.867,8.447c-1.945-1.145-1.836-0.461-0.773,0.73
		c7.324,8.168,2.889,18.688-7.008,18.883c-10.703-0.637-13.479-11.896-6.918-18.52c0.816-0.797,2.629-3.355-0.098-1.566
		c-6.629,4.711-15.828-0.352-15.641-7.617c0.344-13.391,16.672-14.387,20.16-3.203c0.336,1.238,1.305,1.863,1.039-0.24
		c-0.484-3.816-1.488-9.563-4.354-14.566L134.57,179.801L134.57,179.801z"/>
	<path d="M55.625,179.801c-2.305,4.621-3.981,9.363-4.278,14.43c-0.273,1.867,0.86,1.898,1.028,0.582
		c3.261-12.473,20.613-9.094,20.015,2.643c-0.484,9.516-9.937,11.563-14.867,8.447c-1.945-1.145-1.836-0.461-0.773,0.73
		c7.324,8.168,2.886,18.688-7.008,18.883c-10.703-0.637-13.481-11.896-6.918-18.52c0.816-0.797,2.629-3.355-0.098-1.566
		c-6.629,4.711-15.828-0.352-15.64-7.617c0.343-13.391,16.671-14.387,20.16-3.203c0.336,1.238,1.304,1.863,1.039-0.24
		c-0.485-3.816-1.488-9.563-4.352-14.566L55.625,179.801L55.625,179.801z"/>
	<path d="M11.371,60.02c0.953-1.954,1.883-3.774,2.386-5.918c0.336-2.024-0.351-1.274-0.738,0.054
		c-0.578,1.836-2.179,2.672-3.664,2.696c-2.699,0.035-4.043-2.086-3.961-4.364c-0.293-2.398,2.137-4.097,3.973-3.965
		c1.375,0.098,2.578,0.84,3.305,1.418c0.476,0.254,0.988,0.364,0.277-0.285c-1.344-1.469-2.461-2.371-2.438-4.57
		c0.024-2.063,1.786-4.215,4.125-4.149c2.918,0.086,4.25,2.313,4.243,4.387c-0.008,1.512-0.766,2.903-1.93,3.762
		c-0.754,0.613-0.543,1.07,0.316,0.492c0.828-0.715,1.817-1.027,2.836-1.047c2.793-0.047,3.887,2.367,3.727,4.61
		c-0.153,2.101-1.938,4.261-4.297,4.019c-2.106-0.242-3.211-2.008-3.844-3.824c-0.211-0.555-0.539-0.703-0.531,0.125
		c0.484,4.043,1.992,6.562,2.004,6.559H11.371z"/>
	<path d="M167.207,189.625c-0.953,1.953-1.879,3.777-2.387,5.918c-0.336,2.021,0.352,1.271,0.742-0.055
		c0.574-1.838,2.176-2.674,3.664-2.695c2.693-0.035,4.043,2.086,3.957,4.363c0.293,2.402-2.139,4.098-3.971,3.969
		c-1.379-0.104-2.576-0.844-3.305-1.422c-0.479-0.254-0.988-0.363-0.277,0.285c1.342,1.469,2.463,2.375,2.438,4.57
		c-0.022,2.063-1.788,4.213-4.125,4.146c-2.922-0.086-4.25-2.313-4.241-4.389c0.008-1.508,0.762-2.896,1.93-3.762
		c0.755-0.613,0.543-1.07-0.319-0.492c-0.828,0.717-1.813,1.027-2.836,1.053c-2.793,0.043-3.884-2.371-3.724-4.613
		c0.147-2.104,1.938-4.262,4.293-4.021c2.104,0.242,3.211,2.01,3.845,3.824c0.211,0.555,0.543,0.707,0.534-0.125
		c-0.487-4.043-1.995-6.563-2.004-6.559h5.785L167.207,189.625L167.207,189.625z"/>
</g>
</svg>
