<?xml version="1.0" encoding="utf-8"?>
<!-- Generator: Adobe Illustrator 15.0.0, SVG Export Plug-In . SVG Version: 6.00 Build 0)  -->
<!DOCTYPE svg PUBLIC "-//W3C//DTD SVG 1.1//EN" "http://www.w3.org/Graphics/SVG/1.1/DTD/svg11.dtd">
<svg version="1.1" id="Layer_1" xmlns="http://www.w3.org/2000/svg" xmlns:xlink="http://www.w3.org/1999/xlink" x="0px" y="0px"
	 width="178.582px" height="249.449px" viewBox="0 0 178.582 249.449" enable-background="new 0 0 178.582 249.449"
	 xml:space="preserve">
<g>
	<path d="M3.936,25.544c0.129-3.5,1.418-4.816,3.957-6.648c-2.028-1.438-2.879-3.551-2.707-5.352
		c0.418-4.356,3.847-6.535,7.59-6.441c3.738,0.093,6.961,3.011,7.214,6.179c0.219,2.754-0.617,4.082-2.605,5.531
		c2.359,1.954,3.871,3.239,3.812,6.688c-0.054,3.449-3.042,7.551-8.25,7.676C7.74,33.307,3.811,29.044,3.936,25.544L3.936,25.544z
		 M18.475,25.557c0.222-3.172-2.629-5.309-5.852-5.344c-3.136-0.031-5.945,2.598-5.945,5.445c0,3.055,3.652,4.715,6.008,4.727
		C15.553,30.393,18.283,28.287,18.475,25.557L18.475,25.557z M17.444,14.216c0.062-2.672-2.446-4.582-5.032-4.508
		c-2.3,0.07-4.734,1.793-4.738,4.027c0,2.789,2.77,4.184,5.137,4.239C14.955,18.021,17.397,16.231,17.444,14.216L17.444,14.216z"/>
	<path d="M174.634,224.672c-0.129,3.5-1.414,4.816-3.953,6.648c2.023,1.434,2.88,3.545,2.703,5.348
		c-0.414,4.359-3.849,6.539-7.586,6.445c-3.742-0.102-6.965-3.016-7.215-6.184c-0.22-2.754,0.616-4.082,2.604-5.527
		c-2.363-1.955-3.871-3.24-3.815-6.688c0.059-3.449,3.047-7.552,8.254-7.681C170.834,216.908,174.763,221.172,174.634,224.672
		L174.634,224.672z M160.099,224.658c-0.227,3.174,2.63,5.311,5.849,5.342c3.144,0.033,5.945-2.594,5.945-5.441
		c0-3.055-3.646-4.719-6.009-4.727C163.018,219.82,160.291,221.93,160.099,224.658L160.099,224.658z M161.127,236
		c-0.063,2.668,2.445,4.582,5.031,4.504c2.301-0.066,4.738-1.789,4.738-4.023c0.004-2.793-2.771-4.184-5.137-4.238
		C163.619,232.195,161.173,233.98,161.127,236L161.127,236z"/>
	<path d="M124.832,67.965c2.301-4.621,3.98-9.36,4.277-14.43c0.271-1.867-0.859-1.898-1.031-0.582
		c-3.262,12.473-20.609,9.094-20.012-2.637c0.48-9.515,9.934-11.562,14.863-8.453c1.945,1.149,1.84,0.461,0.773-0.73
		c-7.324-8.168-2.895-18.688,7.008-18.879c10.703,0.633,13.479,11.894,6.914,18.516c-0.813,0.796-2.625,3.355,0.102,1.566
		c6.629-4.711,15.832,0.355,15.645,7.617c-0.348,13.391-16.672,14.391-20.164,3.203c-0.336-1.238-1.305-1.863-1.035,0.246
		c0.484,3.813,1.484,9.563,4.348,14.563H124.832z"/>
	<path d="M124.832,148.164c2.301-4.621,3.98-9.359,4.277-14.432c0.271-1.865-0.859-1.896-1.031-0.58
		c-3.262,12.473-20.609,9.094-20.012-2.637c0.48-9.521,9.934-11.567,14.863-8.458c1.945,1.145,1.84,0.461,0.773-0.73
		c-7.324-8.168-2.895-18.687,7.008-18.883c10.703,0.637,13.479,11.899,6.914,18.52c-0.813,0.797-2.625,3.355,0.102,1.566
		c6.629-4.711,15.832,0.356,15.645,7.613c-0.348,13.395-16.672,14.391-20.164,3.203c-0.336-1.234-1.305-1.859-1.035,0.242
		c0.484,3.816,1.484,9.563,4.348,14.566h-11.688V148.164L124.832,148.164z"/>
	<path d="M42.004,148.164c2.304-4.621,3.98-9.359,4.277-14.432c0.273-1.865-0.859-1.896-1.027-0.58
		c-3.262,12.473-20.614,9.094-20.016-2.637c0.484-9.521,9.937-11.567,14.867-8.458c1.945,1.145,1.836,0.461,0.774-0.73
		c-7.325-8.168-2.887-18.687,7.007-18.883c10.704,0.637,13.481,11.899,6.918,18.52c-0.816,0.797-2.629,3.355,0.098,1.566
		c6.629-4.711,15.828,0.356,15.641,7.613c-0.344,13.395-16.672,14.391-20.161,3.203c-0.335-1.234-1.304-1.859-1.039,0.242
		c0.485,3.816,1.489,9.563,4.352,14.566H42.004V148.164z"/>
	<path d="M82.152,108.062c2.301-4.617,3.98-9.359,4.277-14.429c0.274-1.863-0.859-1.895-1.031-0.582
		c-3.262,12.476-20.609,9.097-20.012-2.637c0.485-9.516,9.934-11.562,14.864-8.449c1.949,1.144,1.84,0.457,0.777-0.731
		c-7.324-8.172-2.891-18.691,7.008-18.882c10.703,0.632,13.48,11.894,6.914,18.519c-0.816,0.793-2.625,3.352,0.098,1.563
		c6.629-4.707,15.832,0.355,15.645,7.617c-0.348,13.39-16.672,14.39-20.164,3.207c-0.336-1.242-1.301-1.863-1.031,0.242
		c0.48,3.812,1.48,9.562,4.348,14.562H82.152z"/>
	<path d="M42.004,67.965c2.304-4.621,3.98-9.36,4.277-14.43c0.273-1.867-0.859-1.898-1.027-0.582
		c-3.262,12.473-20.614,9.094-20.016-2.637c0.484-9.515,9.937-11.562,14.867-8.453c1.945,1.149,1.836,0.461,0.774-0.73
		c-7.325-8.168-2.887-18.688,7.007-18.879c10.704,0.633,13.481,11.894,6.918,18.516c-0.816,0.796-2.629,3.355,0.098,1.566
		c6.629-4.711,15.828,0.355,15.641,7.617c-0.344,13.391-16.672,14.391-20.161,3.203c-0.335-1.238-1.304-1.863-1.039,0.246
		c0.485,3.813,1.489,9.563,4.352,14.563H42.004z"/>
	<path d="M136.593,181.328c-2.305,4.621-3.979,9.361-4.28,14.43c-0.271,1.867,0.858,1.898,1.03,0.586
		c3.263-12.477,20.609-9.098,20.017,2.637c-0.481,9.52-9.938,11.563-14.864,8.449c-1.945-1.145-1.836-0.457-0.771,0.73
		c7.321,8.168,2.887,18.691-7.015,18.883c-10.703-0.637-13.479-11.896-6.914-18.521c0.813-0.795,2.629-3.351-0.101-1.562
		c-6.629,4.707-15.825-0.356-15.641-7.617c0.344-13.391,16.668-14.391,20.159-3.207c0.336,1.242,1.306,1.863,1.035-0.241
		c-0.479-3.813-1.483-9.563-4.349-14.563L136.593,181.328L136.593,181.328z"/>
	<path d="M93.914,141.891c-2.305,4.621-3.98,9.359-4.281,14.434c-0.273,1.859,0.859,1.896,1.031,0.578
		c3.262-12.473,20.609-9.094,20.016,2.641c-0.484,9.52-9.938,11.563-14.867,8.453c-1.941-1.146-1.836-0.461-0.771,0.729
		c7.321,8.168,2.888,18.688-7.012,18.879c-10.703-0.633-13.48-11.896-6.914-18.517c0.816-0.797,2.629-3.354-0.098-1.565
		c-6.629,4.711-15.828-0.354-15.64-7.616c0.343-13.392,16.668-14.392,20.16-3.201c0.336,1.235,1.305,1.86,1.035-0.246
		c-0.48-3.813-1.484-9.563-4.348-14.563h11.69L93.914,141.891L93.914,141.891z"/>
	<path d="M53.765,181.328c-2.3,4.621-3.98,9.361-4.277,14.43c-0.273,1.867,0.859,1.898,1.031,0.586
		c3.258-12.477,20.61-9.098,20.012,2.637c-0.484,9.52-9.934,11.563-14.867,8.449c-1.946-1.145-1.836-0.457-0.774,0.73
		c7.325,8.168,2.891,18.691-7.008,18.883c-10.703-0.637-13.48-11.896-6.914-18.521c0.817-0.795,2.625-3.351-0.101-1.562
		c-6.629,4.707-15.828-0.356-15.641-7.617c0.348-13.391,16.672-14.391,20.164-3.207c0.336,1.242,1.301,1.863,1.035-0.241
		c-0.484-3.813-1.484-9.563-4.351-14.563L53.765,181.328L53.765,181.328z"/>
	<path d="M9.934,55.571c0.953-1.957,1.883-3.777,2.387-5.922c0.336-2.019-0.352-1.269-0.738,0.055
		c-0.578,1.84-2.18,2.676-3.664,2.695c-2.7,0.039-4.043-2.082-3.961-4.363c-0.293-2.399,2.136-4.094,3.968-3.965
		c1.379,0.098,2.583,0.844,3.309,1.422c0.477,0.25,0.988,0.363,0.274-0.289c-1.34-1.465-2.461-2.371-2.434-4.567
		c0.023-2.062,1.785-4.214,4.121-4.148c2.922,0.086,4.25,2.313,4.246,4.387c-0.008,1.508-0.766,2.898-1.93,3.761
		c-0.757,0.614-0.543,1.071,0.317,0.493c0.828-0.715,1.812-1.028,2.836-1.051c2.793-0.043,3.883,2.371,3.722,4.613
		c-0.148,2.102-1.937,4.262-4.293,4.016c-2.105-0.238-3.21-2.008-3.843-3.821c-0.211-0.554-0.543-0.707-0.532,0.122
		c0.485,4.046,1.993,6.566,2.004,6.562H9.934z"/>
	<path d="M168.644,195.057c-0.953,1.957-1.883,3.777-2.387,5.922c-0.34,2.021,0.348,1.271,0.734-0.055
		c0.578-1.84,2.184-2.676,3.664-2.695c2.691-0.039,4.043,2.082,3.957,4.363c0.297,2.396-2.141,4.094-3.973,3.965
		c-1.379-0.098-2.576-0.844-3.305-1.422c-0.477-0.25-0.988-0.363-0.277,0.289c1.348,1.465,2.463,2.371,2.438,4.564
		c-0.022,2.063-1.784,4.217-4.125,4.146c-2.922-0.086-4.25-2.313-4.241-4.387c0.008-1.512,0.762-2.898,1.93-3.766
		c0.757-0.609,0.543-1.066-0.317-0.49c-0.828,0.717-1.813,1.025-2.836,1.053c-2.789,0.043-3.884-2.371-3.726-4.613
		c0.147-2.102,1.938-4.262,4.297-4.016c2.104,0.234,3.207,2.008,3.847,3.816c0.207,0.559,0.539,0.707,0.528-0.121
		c-0.485-4.047-1.989-6.563-2.004-6.563h5.789v0.004h0.004v0.004H168.644z"/>
</g>
</svg>
