<?xml version="1.0" encoding="utf-8"?>
<!-- Generator: Adobe Illustrator 15.0.0, SVG Export Plug-In . SVG Version: 6.00 Build 0)  -->
<!DOCTYPE svg PUBLIC "-//W3C//DTD SVG 1.1//EN" "http://www.w3.org/Graphics/SVG/1.1/DTD/svg11.dtd">
<svg version="1.1" id="Layer_1" xmlns="http://www.w3.org/2000/svg" xmlns:xlink="http://www.w3.org/1999/xlink" x="0px" y="0px"
	 width="178.582px" height="249.449px" viewBox="0 0 178.582 249.449" enable-background="new 0 0 178.582 249.449"
	 xml:space="preserve">
<g>
	<path fill="#FFFFFF" d="M8.504,0"/>
	<path fill="#131F67" d="M23.187,18.055l-0.031,212.711l131.707,0.285l0.078-212.844L23.187,18.055z M65.019,19.301l59.676,0.219
		c0,0-6.836,8.843-8.25,12.871c-1.102,1.41-1.598,1.152-3.41,0.785c-4.852-1.266-13.023-1.242-17.082-1.317
		c-7.668-0.343-14.551,2.032-22.227,2.422C71.074,29.844,67.23,24.277,65.019,19.301L65.019,19.301z M24.836,19.687l38.379,0.114
		l8.996,16.418c0.328,0.457,0.015,1.398-0.18,1.929c-1.109,3.129-2.09,4.938-4.336,8.664c-2.129,3.532-2.891,6.766-2.137,8.938
		c0.114,0.266,0.211,0.672,0.172,1.012c-0.125,1.086-1.035,2.34-2.273,3.199c-0.84,0.133-2.59,0.242-3.602,1.242
		c-0.867,0.859-1.582,2.113-1.469,4.41c0.051,0.821,0.157,1.34,0.157,1.34c-11.442,4.762-19.645,10.34-19.371,10.543
		c-0.11-0.047-10.059-4.629-14.204-5.762L24.836,19.687z M126.824,19.977L153.132,20l0.156,75.074l-10.098-6.543
		c0.828-0.578,1.34-0.922,2.211-1.511c0.152-0.047,0.445-0.051,0.637-0.094c1.758-0.391,2.984-1.707,2.375-3.071
		c-0.414-0.925,0.152-0.871,0.66-1.625c0.574-0.847,0.457-1.605,0.09-2.32c-0.18-0.351-0.082-0.492,0.223-1.148
		c0.805-1,0.223-2.692-0.816-3.235c-0.109-0.164,0.113-0.41,0.164-0.644c0.293-1.352-0.246-2.539-1.418-2.844
		c-0.602-0.156-0.801-0.258-0.59-0.797c0.379-0.953-0.117-1.308-0.902-1.621c-1.32-0.519-0.945-0.605,0.684-1.336
		c3.336-1.5,4.121-5.961,1.828-10.008c-0.293-0.515-1.07-1.722-1.602-2.531c-0.617-0.945-1.215-1.762-1.215-1.762l4.414-6.156
		c0,0-3.074-3.644-4.168-5.656c0.258-0.996,3.336-4.117,3.734-7.149c0.629-4.753-2.98-7.793-6.395-7.437
		c-2.367,0.246-5.281,1.762-5.063,6.16c0.066,1.367,0.602,2.781,1.57,4.488c0.676,1.282,1.551,2.633,2.387,3.934l-4.441,6.074
		l4.488,5.688c0,0-0.059,0.093-0.156,0.246c-0.445,0.711-1.746,2.804-2.309,4.031c-1.656,3.273-2.242,6.871,1.16,9.406
		c0.594,0.364,1.055,0.676,1.305,0.926c0.336,0.332,0.129,0.582-0.41,0.707c-0.629,0.133-1.273,0.125-1.938,0.387
		c-2.133,0.777-4.273,2.035-5.793,3.265c-0.852,0.688-2.227,2.872-3.066,4.645c-0.91,1.93-1.164,2.355-1.164,2.355l-15.621-10
		c0,0-0.398-0.312-0.508-0.433c-0.289-0.324-0.184-0.516,0.016-0.875c0.172-0.305,0.18-1.207,0.102-1.891
		c-0.02-1.308-0.008-1.316,0.746-2.519c0.266-0.422,0.375-0.848,0.223-1.5c-0.246-0.739-0.27-0.504,0.199-1.008
		c0.184-0.223,0.402-0.336,0.438-0.578c0.047-0.324,0.02-0.895,0.023-1.957c0.012-2.125-0.016-1.953,1.18-2.887
		c1.48-1.16,2.035-1.707,2.27-2.234c0.34-0.75,0-1.321-0.832-2.825c-0.379-0.687-0.969-1.613-1.254-2.132
		c-0.535-0.93-1.305-2.157-1.672-3.329c-0.555-0.898-0.473-2.46,0.043-3.375c0.645-1.152,0.824-1.847,0.801-4.171
		c-0.02-2.157-0.176-1.954,0.371-2.676C120.304,30.074,126.824,19.977,126.824,19.977L126.824,19.977z M143.542,27.922
		c0.09,0,0.18,0.004,0.266,0.008c1.293,0.062,2.578,0.476,3.77,1.632c1.621,1.625,1.508,3.965,0.977,6.403
		c-0.246,0.707-0.43,1.43-0.926,2.168c-0.277,0.414-0.508,0.793-0.508,0.844c0,0.054-0.398,0.695-0.887,1.433
		c-0.477,0.719-1.023,1.727-1.023,1.727s0.762,1.367,2.113,3.082c1.023,1.515,1.684,2.84,1.762,2.761c0,0-0.258,0.657-0.613,1.122
		c-1.074,1.41-3.051,4.351-3.129,4.66c-0.02,0.074-0.223,0.148-0.219,0.222c0.012,0.274,0.406,0.598,0.996,1.411
		c3.566,4.898,4.074,9.031,1.395,11.46c-1.336,1.211-2.652,1.59-4.063,1.438c-2.586-0.277-4.973-2.484-4.695-5.703
		c0.125-1.481,0.051-1.922,0.922-3.641c0.391-0.969,1.281-2.625,1.871-3.461c0.52-0.601,1.07-1.457,1.07-1.457
		s-1.27-1.953-3.605-4.703c-0.418-0.5-0.68-1.18-0.68-1.18l4-5.921c0,0-0.465-1.149-1.246-2.313
		c-1.598-2.387-2.629-4.922-2.621-6.348C138.492,30.012,140.82,27.93,143.542,27.922L143.542,27.922z M153.5,112.539
		c-0.004,0-2.863,2.477-2.66,3.168c0.332,1.129,2.488-0.598,2.492-0.613l0.113,2.465c-2.336,3.316-6.906,0.882-5.742-2.551
		c-3.156,0.41-3.648-2.793-3.488-4.317c-4.148-0.902-2.715-5.296-2.715-5.296c-2.398-2.004-2.816-4.102-0.875-6.317
		c-1.965-1.219-2.52-2-4.676-2.887c1.656,14.711,9.598,22.352,17.953,29.164c0,0,0.184,4.739-0.77,3.864
		c-11.934-8.914-19.605-19.114-20.926-35.606c-0.102,0.262-5.66-4.301-6.578-4.058c-1.926,26.707,19.336,44.261,28.18,47.723
		c0,0,0.125,3.723-0.027,3.734c-13.402-5.848-28.301-23.004-31.172-43.414l-7.906,12.246l-2.961-1.27l12.785-20.14l-8.648-5.422
		l-14.074,22.304c0,0-0.375,1.86,0.645,1.832c19.758,2.114,49.145,25.852,39.297,64.489c-0.852-0.34-2.211-1-2.281-0.973
		c1.547-3.328,5.855-24.898-7.105-42.32c-5.938-7.985-15.148-16.477-29.926-18.985c1.223,2.52,0.688,8.235,0.688,8.235l3.445,0.695
		c-1.164-1.227-2.133-2.238-2.594-3.57c-0.645-2.078,0.301-3.305,2.598-2.071c0.91,0.512,1.141,0.493,2.031-0.168
		c1.848-1.375,3.961,0.04,3.473,2.329c-0.074,0.336,0.016,0.55,0.895,0.628c1.992,0.2,3.996,1.184,5.293,2.731
		c0.637,0.816,0.781,0.695,1.348,0.203c1.387-1.207,3.688,0.465,3.277,2.332c-0.234,1.067-0.105,1.324,0.387,1.531
		c2.715,1.141,3.383,1.86,4.227,4.235c0.309,0.871,0.563,1.156,0.723,1.109c0.113-0.035,0.559-0.184,0.949-0.332
		c2.027-0.77,3.215,1.68,1.777,3.602c-0.293,0.395-0.074,0.77,0.445,1.055c1.688,0.922,2.832,3.117,3.035,5.422
		c0.074,0.879,0.168,0.879,1.043,0.844c2.242-0.094,3.313,2.934,1.484,4.047c-0.633,0.39-0.516,0.89-0.023,1.476
		c1.309,1.552,1.617,2.673,1.5,4.442c-0.152,2.351-0.004,2.304,0.746,2.594c2.18,0.828,1.773,4.313-0.363,4.3
		c1.539,3.587-0.488,7.962-0.422,8.039c4.109,2.313,0.398,4.771-0.793,4.336c0,0-0.609,1.614,0.082,2.442
		c-3.605,4.765-8.32,5.559-13.543,7.926l-0.168-16.781c2.176,1.745,4.328,3.379,6.48,5.008c0,0,0.547-0.164,0.047-0.625
		c-0.957-0.883-3.363-2.441-4.039-3.063c-1.453-1.102-6.781-6.2-7.73-7.406c-0.422-0.805-1.063-0.337-1.047-0.289
		c0.637,1.102,1.113,2.383,1.938,3.527c1.781,2.473,3.512,5.214,3.332,7.934c-0.004,1.52-0.609,3.09-0.945,3.852
		c-0.25,1.043-1.914-0.176-1.496-1.055c0.738-2.41,1.352-4.379-1.289-8.25c-1.289-1.883-2.961-5.31-2.961-5.31l-1.066,0.263
		l0.039,21.895c-0.895,0.035-3.168,0.625-2.699,0.64c7.078-1.413,9.246,8.716,2.41,9.048c-1.297,0.047-2.641,2.28-2.777,3.491
		c0.059,2.942,0.488,6.043-1.664,8.868c-0.566,0.746-0.824,1.921-1.348,2.852c-2.629,4.652-3.801,7.316-3.535,8.52
		c0.07,0.309,0.133,0.715,0.133,0.715c-8.395,2.059-15.332,1.71-23.075,2.824c-0.086-0.133,2.828-8.324,4.953-12.528
		c1.575-3.101,2.383-5.226,1.942-5.866c-6.688,0.336-5.402-9.47,0.996-9.121c0,0,1.602-5.648,3.398-8.199
		c1.699-0.945,5.121,0.344,7.043-0.926c4.52-1.388,7.477,3.961,7.477,3.961l1.219-5.086l-39.973-0.191c0,0-4.121,1.543-6.227,0.672
		c-1.343-0.555-2.89-2.133-2.89-2.133s15.273-24.535,17.519-28.074c0.18-0.286-0.398-0.907-0.398-0.911
		c-0.086-0.804-17.785,26.782-17.711,28c0,0-0.473,0.668-1.324,0.079c-10.008-6.906-33.93-21.758-33.93-21.758l-0.031-11
		c0,0,0.726-1,1.32-1.141c1.199-0.813,2.117-1.691,3.352-2.47c0.672-0.401,1.09-0.968,0.926-1.233
		c-0.145-0.238-0.973,0.008-2.153,0.828c-0.789,0.551-3.578,2.344-3.578,2.344c-0.105,0.094-0.164-4.129-0.164-4.129
		c0.027,0.008,3.613-3.195,2.461-3.418c-0.227-0.043-0.754,0.062-1.344,0.574c-1.59,1.379-1.43,1.555-1.535-0.316
		c-0.094-1.625,0.105-1.844,0.809-2.488c2.566-2.367,5.625-1.008,5.773,2.488c0.027,0.621,0.031,0.625,0.531,0.734
		c1.797,0.395,2.774,1.684,2.836,3.487c0.031,0.989,0.149,1.177,0.852,1.368c1.601,0.434,2.676,2.867,2.043,4.586
		c-0.309,0.839-0.141,0.781,0.347,1.253c3.106,2.997,0.68,5.935-0.062,5.825c0.453,0.304,4.918,3.297,5.301,3.188
		c-0.387-15.691-17.668-30.672-18.149-29.887l0.367-3.382c0,0,21.598,13.813,21.407,35.977l6.886,4.094
		c-0.613-22.742-10.769-38.094-28.132-47.855l-0.368-4.286C39.047,114.27,52.562,128,55.711,150.508l8.07-12.528l2.844,1.375
		c-4.551,6.446-8.289,13.106-12.043,19.396c-0.496,0.863-1.215,1.098-1.215,1.098l8.39,5.621
		c6.278-8.262,11.512-18.395,14.704-23.219c-0.082-0.438-0.258-1.07-0.258-1.07c-30.856-5.09-48.235-34.004-39.949-64.215
		l2.14,0.941c-6.433,22.375,4.059,54.583,37.617,61.168c-0.066-2.379-0.484-8.23-0.484-8.23s-4.41-1.324-3.762-0.793
		c1.082,0.922,3.508,4.902,2.481,6.316c-0.735,0.105-1.969-0.309-3.321-1.297c-0.507-0.375-0.523-0.298-1.093,0.316
		c-1.586,1.691-3.895,0.722-3.914-1.605c-0.008-0.984-0.047-1.191-1.442-1.199c-2.113-0.017-3.062-0.379-4.328-2.074
		c-0.898-1.203-0.816-1.207-1.875-0.848c-0.933,0.323-1.121,0.559-1.976,0.121c-1.274-0.656-1.536-1.591-1.032-2.852
		c0.313-0.782-0.019-1.032-0.941-1.184c-1.797-0.297-3.828-2.551-4.199-4.391c-0.078-0.375-0.266-0.468-1.325-0.433
		c-2.074,0.074-3.222-1.188-2.406-2.949c0.446-0.953,0.571-1.34-0.262-1.985c-1.015-0.789-1.589-1.34-2.039-2.301
		c-0.359-0.757-0.414-1.246-0.66-2.867c-0.086-0.562-0.273-0.652-1.008-0.75c-2.148-0.281-2.992-2.476-1.418-3.902
		c0.485-0.434,0.481-0.422-0.25-1.367c-1.402-1.817-1.929-4.192-1.316-5.77c0.164-0.429,0.004-0.953-0.496-1.078
		c-1.957-0.488-1.992-2.656-0.117-3.875c0.543-0.355,0.57-0.59,0.16-1.305C38.265,91.523,38.3,88.246,39,86.68
		c0.449-1.016,0.445-1.039-0.25-1.485c-1.489-0.949-1.063-3.562,0.695-3.992c0.852-0.211,0.91-0.32,0.68-1.359
		c-0.41-1.848-0.481-2.328,0.609-3.059c3-1.949,10.684-5.672,10.684-5.672l2.539-1.211c0,0,0.254,15.512,0.09,17.344
		c-0.098,0.789,0.613,1.27,1.437,2.09c1.707,1.676,2.641,3.703,4.918,5.113c0,0,1.418-0.789,2.297-1.355l0.086-22.098
		c0.18-0.504,0.305-0.559,0.887-0.625c0.484-0.094,1.703-0.23,2.109-0.351c0.98-0.286,1.133-0.68-0.152-0.551
		c-0.387,0.039-0.969,0.207-1.622,0.336c-4.023,1.207-7-5.059-3.933-8.215c0.586-0.528,2.785-1.442,3.781-1.504
		c0.289,0,1.149-1.055,1.735-2.031c0.589-0.981,0.832-1.711,0.496-2.692c-0.711-2.07-0.067-5.242,2.054-8.711
		c1.176-1.922,2.125-3.238,2.157-3.289c1.043-1.773,2.98-7.496,2.882-7.519c6.551-1.012,13.141-2.574,19.629-2.633
		c0.93-0.008,1.855,0.016,2.777,0.074c0.289,2.488-8.042,17.152-6.305,18.012c6.559,1.57,4.32,9.348-0.664,9.09
		c-0.746-0.004-0.82,0.062-1.297,1.711c-0.902,2.414-1.488,4.254-2.461,6.496c0,0.578-0.406,0.519-3.133,0.5
		c-2.492-0.367-4.211,0.988-6.023,1.07c-2.313,0.102-4.285-1.004-5.086-2.844c-0.36-0.816-0.692-0.277-0.699,1.664
		c-0.012,1.547-0.071,2.45-0.071,2.45s9.551,0.027,20.438,0.046c22.008,0.04,19.816,0.375,21.563-0.496
		c1.02-0.511,1.691-1.062,3.453,0.09c2.824,1.844,2.734,1.594,1.91,2.781c-5.531,8.204-17.758,27.942-17.758,27.942l0.855,0.836
		c0,0,12.348-19.512,17.973-28.653c0.258-0.296,1.434,0.079,1.434,0.079l33.684,21.906c-0.285,3.312,0.047,10.933,0.047,10.933
		c0-0.519-6.391,3.981-6.125,4.602c1.512,0.57,4.395-2.426,6.066-3.301L153.5,112.539z M37.156,149.637
		c-0.024-0.016-0.156-0.105-0.156-0.105C37.035,149.594,37.086,149.629,37.156,149.637L37.156,149.637z M96.339,33.707
		c0,0,9.77,0.082,14.668,0.867c4.293,0.688,4.07,0.559,4.055,3.676c-0.012,2.215-0.016,2.164-0.582,3.223
		c-1.047,1.957-0.867,3.886,0.785,6.586c1.605,2.621,2.781,4.554,2.781,4.929c0,0.578-0.098,1.285-1.488,2.258
		c-1.645,1.145-1.957,1.949-1.934,3.113c0.02,0.942-0.16,1.25-0.723,1.246c-0.227,0-1.027,0.372-1.883,0.778
		c-1.508,0.711-1.512,0.711-2.918,0.699c-0.707-0.004-1.047-0.273-1.246-0.195c-0.379,0.175-0.723,1.445-0.711,1.816
		c0.039,0.129,0.242,0.051,0.656-0.09c2.336-0.801,5.809-0.441,5.902-0.09c0.473,0.426,0.473,1.082-0.238,1.766
		c-0.461,0.727-0.668,1.098-0.477,2.219c0.262,1.523,0.066,2.125-0.711,2.652c-2.375,1.606-5.543,1.809-10.609,0.832
		c-5.34-1.023-8.992-3.062-12.031-6.707c-1.355-1.629-1.691-2.199-1.02-2.313c0.828-0.129,1.742-0.301,2.594-0.664
		c3.754-1.618,3.688-8.489-1.371-9.207C87.777,51.027,94.101,41.305,96.339,33.707L96.339,33.707z M101.16,38.445
		c-1.816,1.016-2.762,2.254-2.766,2.926c-0.004,0.277,0.059,0.227,0.926-0.344c2.516-1.652,9.145-4.043,11.508-2.664
		c1.707,1.024,2.367,0.692,1.383-0.687C109.89,34.445,103.64,37.094,101.16,38.445L101.16,38.445z M107.64,39.527
		c-0.266,0-0.547,0.032-0.824,0.09c-1.75,0.391-3.676,1.832-5.27,3.102c-0.789,0.625-1.898,1.867-2.074,2.191
		c-0.395,0.735,0.477,1.543,1.66,0.895c0.688-0.375,0.746-0.293,1.41-0.2c1.527,0.461,3.27,1.172,5.961,0.946
		c0.254,0.058,0.234,0.117,0.148,0.355c-0.16,0.43-1.117,1.25-2.359,2.172c-0.645,0.477-1.207,0.867-1.25,0.938
		c-0.199,0.316,0.66,0.339,1.602-0.192c1.332-0.758,2.871-2.433,3.809-3.777c0.09-0.129,0.215-0.235,0.254-0.371
		c0.094-0.313-0.469-0.184-0.77-0.266c-0.129-0.035-0.102-0.363-0.137-0.512c-0.09-0.394,0.066-1.046,0.137-1.609
		c0.059-0.453,0.547-0.812,0.863-1.144c1.41-1.465,1.297-2.129-0.594-1.004c-0.316,0.191-0.57,0.304-0.879,0.328
		c-2.793,0.09-4.406-0.02-6.734,1.941c-1.035,0.836-1.656,0.918-0.734,0.027c1.406-1.136,3.164-2.753,5.113-3.183
		c1.176-0.293,2.293,0.605,2.809,0.375C109.785,39.984,108.804,39.516,107.64,39.527L107.64,39.527z M107.238,43.57
		c0.316,0.211,0.633,1.305,0.602,1.672c-0.035,0.426-0.77,0.25-0.871,0.047l-0.398-1.215
		C106.394,43.668,106.925,43.434,107.238,43.57L107.238,43.57z M105.812,43.816c0.344,0.34,0.422,1.071,0.617,1.672
		c-0.125,0.434-2.875-0.152-3.219-0.64C103.625,44.312,105.039,43.672,105.812,43.816L105.812,43.816z M110.632,51.648
		c-0.207-0.011-0.48,0.09-0.727,0.34c-1.238,1.27-0.84,3.426,0.648,4.125c0.727,0.34,1.824,0.09,3.441-0.406
		c0.77-0.238,1.324-0.344,1.469-0.344c0.633,0.004,0.977-0.976,0.531-1.426c-0.512-0.519-1.723-0.441-3.031,0.567
		c-0.66,0.512-1.133,0.758-1.664,0.754c-1.309-0.02-1.941-1.363-0.609-2.774C111.136,52.012,110.98,51.672,110.632,51.648
		L110.632,51.648z M101.476,60.934c1.543,1.246,4.469,0.593,6.434-0.707c1.758-1.165,2.488-1.508,3.898-1.266
		c1.727,0.297,1.664-0.383,0.914-1.234c-0.848-0.969-2.945-0.672-4.699,0.492c-3.887,2.578-5.293,3.008-6.422,1.613
		c-1.211-1.496,0.23-3.422,1.656-2.371c1.172,0.797,1.156,0.199,0.672-0.348C101.109,54.734,99.074,58.996,101.476,60.934
		L101.476,60.934z M87.808,62.156c1.965,2.489,3.844,4.547,6.665,6.063l0.031,0.468l-9.122-0.019
		C86.019,67.555,87.828,62.23,87.808,62.156L87.808,62.156z M56.922,68.641c-0.196,3.75,0.476,5.953,2.675,8.574
		c2.332,2.789,2.16,7.133,0.657,9.816c-0.664,1.188-2.016-0.273-1.379-1.031c0.906-1.141,0.961-3.922,0.535-5.664
		c-0.965-2.871-3.145-4.281-4.028-7.316c-0.296-1.297-0.203-3.629-0.203-3.629L56.922,68.641z M59.777,68.957
		c0.16-0.023,0.414,0.141,0.789,0.465c1.289,1.117,1.07,4.316-0.406,6.367c-0.453,0.621-0.828,0.445-1.262-0.133
		c-0.582-0.578-0.379-0.636,0.109-1.648c0.512-1.055,0.68-2.246,0.575-3.633C59.507,69.437,59.543,68.992,59.777,68.957
		L59.777,68.957z M143.46,70.051c1.141-0.016,2.563,0.226,2.691,0.64c0.125,0.5-0.148,0.903-0.781,1.172
		c-1.668,0.703-3.871-0.281-3.316-1.48C142.195,70.168,142.777,70.062,143.46,70.051L143.46,70.051z M140.574,70.328
		c0.328-0.008,0.582,0.07,0.781,0.164c0.547,0.281-0.313,2.203,2.406,2.164c0.648,0.098,1.129-0.051,1.043,0.242
		c-0.137,0.442-1.305,1.106-2.566,1.293c-3.789,0.559-3.625,0.371-3.453,3.047c0.113,1.75,0,2.336-0.238,3.399
		c-0.41,1.836-0.574,3.609-0.297,3.027c0.371-0.781,1.313-3.246,1.305-4.648c-0.008-2.067,0.73-2.477,1.027-0.977
		c0.125,0.988-0.316,1.551,0.348,2.563c0.379,0.566,0.551,0.558,0.297,1.437c-0.223,0.777-0.066,1.008,0.203,1.402
		c0.273,0.395,0.551,0.489,0.316,1.043c-0.496,1.2,0.285,2.332,1.422,2.43c0.523,0.043,0.672,0.273,0.512,0.473
		c-0.277,0.347-0.832,0.511-1.289,0.609l-12.031-7.687c0,0,0.891-1.789,1.156-2.266c1.73-3.793,3.102-5.516,8.156-7.5
		C140.019,70.391,140.32,70.332,140.574,70.328L140.574,70.328z M146.964,72.816c0.332-0.015,0.578,0.161,0.859,0.52
		c0.738,0.949,0.094,2.133-1.723,3.156c-1.551,0.883-2.004,0.988-2.34-0.398c-0.078-0.25-0.285-0.559-0.418-0.68
		c-0.359-0.332-0.277-0.605,0.18-0.848c0.219-0.117,0.918-0.402,1.477-0.769C145.968,73.156,146.539,72.832,146.964,72.816
		L146.964,72.816z M141.843,75.57c0.383,0.004,0.773,0.098,1.063,0.285c0.48,0.313,0.484,1.098,0,1.411
		c-0.965,0.394-2.492-0.133-2.363-1.02C140.609,75.793,141.21,75.559,141.843,75.57L141.843,75.57z M148.035,76.539
		c0.34-0.008,0.598,0.152,0.813,0.481c0.566,0.875-0.098,1.753-2.008,2.687c-1.254,0.617-2.859,0.883-2.754,0.52
		c0.086-0.29-0.363-1.727-0.563-1.954c-0.078-0.246,0.023-0.027,1.609-0.527c0.574-0.18,1.266-0.476,1.586-0.68
		C147.265,76.727,147.691,76.547,148.035,76.539L148.035,76.539z M57.785,78.809c-0.883,2.121-1.024,3.058-0.602,5.289
		c0.348,1.855,0.754,2.789,2.66,5.531c1.45,2.09,1.914,2.902,1.563,3.558c-0.246,0.356-0.801,0.688-1.145,0.348
		c-0.707-0.926-1.132-2.051-1.824-3.086c-2.664-3.906-2.847-4.898-3.187-7.984c-0.157-1.41,0.656-4.41,1.347-4.86
		C57.371,77.305,58.023,78.32,57.785,78.809L57.785,78.809z M119.316,77.828c-0.063,0.008-0.129,0.047-0.195,0.113
		c-0.363,0.36-1.398,2.047-1.363,2.301c0.078,0.563,0.535,0.195,1.738-1.566C119.785,78.25,119.585,77.797,119.316,77.828
		L119.316,77.828z M142.238,78.789c1.063,0.031,1.441,0.988,0.965,1.484c-0.695,0.731-1.949,0.18-1.949-0.839
		C141.253,79,141.457,78.777,142.238,78.789L142.238,78.789z M148.148,80.148c0.609,0.028,0.691,0.637,0.367,1.516
		c-0.406,0.816-0.895,0.957-2.359,1.41c-1.754,0.547-2.039,0.469-2.305-1.144c-0.102-0.621-0.051-0.481,1.566-0.91
		c0.691-0.184,1.504-0.516,1.938-0.696C147.679,80.195,147.945,80.141,148.148,80.148L148.148,80.148z M44.543,80.871l0.429,3.262
		l0.7-2.442L44.543,80.871z M142.449,81.969c0.863,0.004,1.324,0.777,0.887,1.242c-0.246,0.258-0.867,0.262-1.168,0.113
		C141.484,82.82,141.609,81.965,142.449,81.969L142.449,81.969z M116.078,83.672l1.684,1.035l-13.664,21.574l-1.648-0.035
		l-0.156-0.344L116.078,83.672z M147.085,83.879c1.012-0.016,1.098,0.937-0.125,1.812c-0.5,0.321-1.063,0.399-1.496,0.418
		c-0.609,0.028-1.02-0.132-1.066-0.554c-0.262-1.028-0.414-1.285,0.527-1.223c0.184,0.012,0.695-0.016,1.105-0.191
		C146.449,83.961,146.804,83.883,147.085,83.879L147.085,83.879z M142.91,84.82c0.695,0.004,1.141,0.762,0.672,1.133
		c-0.578,0.457-1.297,0.172-1.293-0.519C142.289,84.992,142.41,84.816,142.91,84.82L142.91,84.82z M44.582,86.348l-3.719,3.293
		c1.363,1.613,2.508,3.222,3.687,4.914L44.582,86.348z M119.757,86.559c1.613-0.067,2.141,0.714,1.375,1.238
		c-1.039,0.695-1.93,0.664-3.109,0.504c-1.559-0.293-0.316-1.543,1.395-1.719C119.535,86.57,119.648,86.562,119.757,86.559
		L119.757,86.559z M118.042,88.906c0.328-0.008,0.809,0.082,1.43,0.293c1.055,0.356,2.367,1.465,2.309,2.078
		c-0.102,0.993-1.969,0.481-3.477-0.945C117.363,89.441,117.328,88.926,118.042,88.906L118.042,88.906z M116.617,88.922
		c0.914,0.086,1.828,3.183,1.117,4.133c-0.695,0.933-1.922-1.075-1.699-2.653c0.09-0.625,0.246-1.449,0.492-1.476
		C116.554,88.922,116.585,88.918,116.617,88.922L116.617,88.922z M56.863,89.602c0.512,0.125,1.172,0.835,1.031,1.378
		c-0.105,0.215-0.32,0.153-0.554,0.098c-0.426-0.18-0.75-0.769-0.672-1.262C56.711,89.684,56.765,89.609,56.863,89.602
		L56.863,89.602z M126.199,90.133l2.688,1.824l-2.688,0.105V90.133z M115.062,93.824c2.063,0.012,2.496,0.676,0.957,1.488
		c-0.637,0.34-2.195,0.403-3.004,0.122C111.738,94.992,113.273,93.812,115.062,93.824L115.062,93.824z M131.742,95.211l0.145,1.871
		l-5.176,0.453l-0.27-1.949L131.742,95.211z M113.851,96.145c0.355-0.024,0.93,0.14,1.676,0.527c1.41,0.723,2.211,1.937,1.484,2.324
		c-0.66,0.348-1.832-0.066-2.66-0.937C113.253,96.906,113.164,96.187,113.851,96.145L113.851,96.145z M112.089,96.148
		c0.941,0.055,1.754,2.633,1.133,3.907c-0.336,0.699-0.766,0.547-1.383-0.602c-0.598-1.109-0.629-3.07,0.059-3.281
		C111.96,96.148,112.027,96.145,112.089,96.148L112.089,96.148z M44.769,96.875l-2.262,4.551l4.098,3.578L44.769,96.875z
		 M132.382,100.379l0.363,1.801l-4.969,1.222l-0.484-1.957L132.382,100.379z M110.683,100.73c0.605,0.012,1.176,0.157,1.504,0.442
		c0.453,0.402,0.355,0.578-0.715,1.015c-1.906,0.778-4.254,0.305-2.891-0.851C109.062,100.926,109.906,100.719,110.683,100.73
		L110.683,100.73z M143.085,100.75c-0.492,0-1.129,0.691-0.801,1.09c0.18,0.222,1.613,0.199,1.91-0.09
		C144.093,101.422,143.484,100.758,143.085,100.75L143.085,100.75z M109.292,103.176c1.355,0.047,4.02,1.906,3.449,2.797
		c-0.309,0.488-2.09,0.074-2.797-0.606c-0.93-0.89-1.422-2.082-0.906-2.176C109.117,103.18,109.203,103.176,109.292,103.176
		L109.292,103.176z M107.578,103.262c0.699-0.129,1.82,3.136,0.977,3.972c-0.316,0.313-0.406,0.293-0.938-0.175
		c-1.059-0.942-0.879-2.672-0.242-3.641C107.437,103.328,107.507,103.277,107.578,103.262L107.578,103.262z M144.324,107.176
		c0.121,0.195,0.68,0.39,2.824-0.844c2.402-0.93,2.285-1.887,1.469-2.043C147.753,104.375,144.152,106.574,144.324,107.176
		L144.324,107.176z M133.652,105.207l0.656,1.824l-5,1.985l-0.738-1.996L133.652,105.207z M48.066,108.656l-1.695,4.461
		c1.844,0.012,3.504,0.883,5.183,1.656L48.066,108.656z M135.316,109.969l1.059,1.793l-4.707,2.547l-0.938-1.891L135.316,109.969z
		 M25.98,113.457l1.926,1.363l-2.832,3.52l-0.258-0.496l0.031-2.922L25.98,113.457z M137.886,114.566l1.137,1.641l-4.527,3.152
		l-1.113-1.789L137.886,114.566z M30.836,116.676l2.082,1.605l-3.289,3.973l-1.993-1.524L30.836,116.676z M53.738,117.66
		l-0.098,4.777l4.899,0.188L53.738,117.66z M110.351,119.812l5.566,3.208l-0.836-4.895
		C113.625,118.41,111.761,119.355,110.351,119.812L110.351,119.812z M140.929,118.809l1.301,1.617l-4.188,3.515l-1.344-1.679
		L140.929,118.809z M35.086,120.227l1.941,1.804l-3.418,3.692l-1.797-1.696L35.086,120.227z M144.503,122.848l1.508,1.527
		l-3.813,3.969l-1.508-1.532L144.503,122.848z M39.496,124.793l1.5,1.75l-3.903,3.102l-1.449-1.758L39.496,124.793z M61.996,125.203
		l1.094,4.68c-0.079-0.344,4.859-1.399,5.503-1.043L61.996,125.203z M119.507,125.598l4.664,4.922l0.523-4.743L119.507,125.598z
		 M148.343,126.371l1.688,1.319l-3.133,4.457l-1.906-1.496L148.343,126.371z M42.855,129.344l1.391,2.008l-4.094,2.438l-1.16-1.773
		L42.855,129.344z M152.761,129.82l0.258,0.258l-0.004,3.184l-1.301,1.91l-1.77-1.047L152.761,129.82z M126.382,133.395l4.125,7.5
		l1.164-5.594C130.144,135.281,127.73,134.301,126.382,133.395L126.382,133.395z M46.117,134.395l0.984,2.164l-4.324,1.973
		l-0.984-2.152L46.117,134.395z M48.453,139.559l0.793,2.171l-4.598,1.528l-0.726-2.094L48.453,139.559z M33.453,140.699
		l-5.738,2.594l1.371,1.164l4.726-2.539L33.453,140.699z M70.054,141c0.282-0.031,0.606,0.358,0.868,1.219
		c0.394,1.301,0.187,2.914-0.696,2.89c-0.594-0.069-0.816-1.593-0.82-2.034C69.402,141.77,69.691,141.039,70.054,141L70.054,141z
		 M74.14,141.777l1.778,0.191l-0.008,0.5L61.761,164.93l-1.711-1.086L74.14,141.777z M66.523,142.297
		c0.567,0.008,1.391,0.394,2.121,1.172c0.43,0.465,0.887,1.121,0.996,1.797c-0.011,0.218-0.39,0.137-0.758,0.086
		c-0.937-0.133-2.32-0.786-2.761-1.586C65.582,142.781,65.886,142.293,66.523,142.297L66.523,142.297z M131.558,143.098l1.887,9.199
		c0.586-2.305,1.82-3.629,2.73-5.438C133.773,145.75,132.785,144.437,131.558,143.098L131.558,143.098z M50.281,144.957l0.441,2.379
		l-4.765,1.104l-0.492-2.308L50.281,144.957z M68.054,145.785c0.067-0.004,0.133,0,0.2,0.008c1.742,0.195,1.988,0.582,0.816,1.367
		c-0.711,0.477-2.633,0.543-2.949,0.035C65.785,146.652,67.043,145.793,68.054,145.785L68.054,145.785z M35.257,146.289
		l-1.781,0.891l1.481,0.867l1.039-1.137L35.257,146.289z M65.547,147.983c0.531,0.005,0.851,0.957,1.039,1.828
		c0.183,0.849,0.246,1.61-0.082,2.036c-0.399,0.52-0.789,0.613-1.106,0.098C64.468,150.437,64.5,147.969,65.547,147.983
		L65.547,147.983z M61.617,149.363c0.25-0.009,0.562,0.055,0.93,0.191c1.234,0.468,2.875,2.359,2.183,2.621
		c-1.023,0.386-3.258-0.735-3.68-1.871C60.84,149.733,61.07,149.383,61.617,149.363L61.617,149.363z M51.422,150.891l0.113,2.352
		l-5.008,0.203l-0.152-2.341L51.422,150.891z M63.699,152.867c0.496-0.013,0.988,0.055,1.387,0.227
		c0.714,0.309,0.195,0.871-1.039,1.297c-0.813,0.281-1.973,0.355-2.379,0.031C60.718,153.672,62.218,152.91,63.699,152.867
		L63.699,152.867z M24.945,153.145c3.434,2.082,10.508,6.727,10.508,6.727c-0.336,0.065-0.692,0.332-1.024,0.586
		c-0.257,0.211-0.535,0.406-0.773,0.508c-0.383,0.152-0.731,0.176-1.051,0.246c-2.211,0.479-3.297,1.729-2.605,3.289
		c0.273,0.613,0.343,0.512-0.129,1.026c-1.321,1.263-1.156,1.638-0.688,3.251c0.004,0.227-1.57,2.163-0.176,3.62
		c0.77,0.673,0.809,0.25,0.528,1.782c-0.098,0.918,0.152,1.672,1.492,1.934c0.742,0.344,0.73,0.223,0.469,0.855
		c-0.18,0.902,0.078,1.277,0.711,1.605c0.574,0.362,0.808,0.461,0.402,0.777c-4.453,2.281-5.824,6.25-1.621,12.094
		c0.492,0.691,1.738,2.637,1.738,2.637c-1.414,2.102-2.765,3.832-4.211,5.711l4.203,5.879c-0.679,1.066-2.273,3.238-3.25,5.379
		c-1.468,3.215-0.5,7.722,3.727,9.07c1.812,0.578,4.207,0.108,5.715-1.642c1.226-1.421,1.89-4.246,0.773-7.187
		c-1.41-3.297-3.105-4.91-3.652-5.848l4.5-5.652c0,0-3.102-4.461-4.336-6.082c8.441-10.332,1.543-13.223,0.223-14.106
		c-0.207-0.136-0.157-0.8-0.157-0.8c7.579-0.868,10.168-5.035,12.399-10.305c4.523,2.91,11,6.828,15.535,9.891
		c0.437,0.406,0.727,0.656,0.66,0.882c-0.055,0.181-0.23,1.021-0.238,1.88c0.211,1.37,0.109,1.992-0.445,2.516
		c-0.52,0.496-0.415,0.719-0.332,1.254c0.144,0.926,0.285,1.019-0.129,1.484c-0.512,0.577-0.68,0.848-0.586,2.241
		c0.054,0.832,0.16,1.454-0.055,1.942c-0.281,0.637-1.055,0.961-2.07,1.758c-1.774,1.395-1.535,1.82,0.914,6.879
		c2.09,4.313,2.328,5.3,1.527,6.832c-0.668,1.273-0.918,2.257-0.836,4.102c0.02,0.469,0.059,0.977,0.059,1.223
		c-0.004,0.597,0.004,0.527-0.34,0.898c-0.27,0.293-0.715,0.866-0.988,1.277c-2.914,4.371-10.582,15.496-10.582,15.496
		l-25.786-0.043L24.945,153.145z M61.105,155.176c0.305-0.02,0.668,0.52,1.082,1.613c0.238,0.633,0.211,1.727-0.172,2.147
		c-0.769,0.841-1.828-1.128-1.492-2.683C60.675,155.551,60.871,155.195,61.105,155.176L61.105,155.176z M133.625,153.996
		c0.004,3.983-0.082,9.151-1.453,12.965l1.555,0.703c-0.504-3.91,0.121-7.125,3.711-8.816
		C135.804,157.738,134.554,155.863,133.625,153.996L133.625,153.996z M57.242,156.508c0.125-0.004,0.265,0.027,0.426,0.078
		c0.582,0.16,1.289,0.5,1.722,0.937c0.735,0.755,1.496,1.657,1.305,1.743c-1.219,0.535-4.313-1.102-3.91-2.379
		C56.875,156.617,57.035,156.512,57.242,156.508L57.242,156.508z M51.82,156.676l0.031,1.953l-3-1.918L51.82,156.676z
		 M120.253,157.613c0.484,0.043,1.234,0.68,1.117,1.12c-0.207,0.478-0.465,0.435-0.797-0.069
		C120.156,158.039,119.988,157.647,120.253,157.613L120.253,157.613z M59.535,160.027c0.726-0.02,1.355,0.141,1.422,0.52
		c0,0.359-0.555,0.824-1.235,1.035c-1.707,0.522-2.984,0.184-2.515-0.648C57.496,160.379,58.597,160.055,59.535,160.027
		L59.535,160.027z M118.871,162.242c-0.719,1.293-0.809,5.422,0.465,7.105c1.973,2.179,3.797,5.02,3.586,8.797l-1.898,0.852
		c0.105-3.109-0.02-5.129-2.445-7.81c-2.887-3.14-2.207-8.582-1.211-10.179C118.222,159.426,119.457,161.664,118.871,162.242
		L118.871,162.242z M35.746,160.522c0.609-0.034,1.351,0.325,2.691,1.211c3.438,2.431,5.297,3.368,8.703,5.774
		c0.496,0.469,0.473,0.398,0.387,0.765c-1.301,4.985-5.082,8.938-10.684,9.661c-0.648,0.086-0.316-0.32-0.703-1.102
		c-0.402-0.806-1.144-1.156-1.968-1.164c-2.313-0.021-0.336-1.316,2.488-1.688c0.933-0.144,2.058-0.272,2.652-0.835
		c0.129,0.063-0.492-3.895,0.145-5.29c0.324-1.25,0.015-1.854-0.332-1.085c-0.223,0.484-0.528,1.753-0.696,3.055
		c-0.136,1.098-0.371,1.25-0.629,0.715c-0.117-0.242-0.113-0.82,0.071-1.273c0.211-1.036-1.094-1.816-0.832-2.766
		c0.347-0.793-0.016-1.668-0.453-1.957c-0.243-0.517-0.211-0.887-0.18-1.246c0.07-0.84-0.488-1.645-1.371-1.996
		c-0.391-0.199-0.274-0.414,0.133-0.617C35.359,160.59,35.547,160.535,35.746,160.522L35.746,160.522z M32.937,161.945
		c0.223-0.005,0.445,0.02,0.656,0.074c0.454,0.277,0.821,1.852,0.313,1.914c-0.188,0.023-0.774,0.093-1.227,0.227
		c-1.535,0.448-2.261,0.391-2.234-0.492C30.476,162.766,31.738,161.965,32.937,161.945L32.937,161.945z M34.98,162.104
		c0.606,0.004,1.094,0.711,0.711,1.086c-0.391,0.392-1.148,0.106-1.144-0.457C34.547,162.434,34.683,162.104,34.98,162.104
		L34.98,162.104z M35.39,164.559c0.176-0.008,0.367,0.031,0.571,0.125c0.562,0.262,0.886,1.227,0.531,1.582
		c-0.274,0.27-1.051,0.171-1.469-0.18C34.281,165.449,34.64,164.586,35.39,164.559L35.39,164.559z M33.484,164.699
		c0.352,0.008,0.602,0.121,0.668,0.359c0.055,0.207-0.039,0.398,0.055,0.691c0.144,0.465,0.441,0.82,0.183,1.008
		c-1.179-0.071-3.625,1.406-4.332,1.336c-0.59-0.078-0.656-0.621-0.144-1.5C30.504,165.574,32.441,164.676,33.484,164.699
		L33.484,164.699z M34.199,167.559c0.254-0.016,0.301,0.125,0.195,0.5c-0.074,0.27-0.012,0.902,0.168,1.313
		c0.195,0.438,0.547,0.699,0.363,0.871c-0.3,0.086-1.312,0.289-2.164,0.605c-1.097,0.609-4.179,2.438-3.402-0.489
		c0.246-0.976,1.379-1.655,3.359-2.347C33.468,167.75,33.941,167.574,34.199,167.559L34.199,167.559z M35.812,167.594
		c0.477-0.035,1.024,0.195,1.266,0.785c0.715,1.426-1.336,1.629-1.992,0.445C34.699,168.121,35.203,167.641,35.812,167.594
		L35.812,167.594z M36.207,170.906c1.062,0.008,1.89,1.327,1.117,1.827c-0.574,0.345-1.285,0.282-1.942,0.118
		C34.398,172.418,34.851,170.897,36.207,170.906L36.207,170.906z M138.218,170.934c4.055,2.125,9.566,4.082,14.914,5.535
		l-0.18,52.586l-36.371,0.023l-10.008-17.375c0,0-0.332-0.563-0.438-0.813c-0.203-0.473-0.133-0.859,0.008-1.352
		c0.328-1.185,1.332-3.508,2.258-5.156c2.418-4.438,5.852-9.305,3.992-13.567c-0.211-0.487,1.922-3.129,1.922-3.129
		c3.285,0.267,6-1.875,5.027-6.933C126.203,177.953,131.851,175.672,138.218,170.934L138.218,170.934z M34.316,171.195
		c0.094-0.005-0.187,1.148,0.395,1.855c0.363,0.558,0.304,0.539-0.926,1.027c-0.461,0.25-0.922,0.629-1.184,0.858
		c-1.761,1.575-3.508-0.483-1.804-2.136c1.378-1.235,2.816-1.504,3.496-1.59C34.3,171.199,34.308,171.195,34.316,171.195
		L34.316,171.195z M118.117,172.281c0.59,0.105,1.355,0.891,1.109,1.32c-0.832,1.398-0.871,2.148-0.945,3.594
		c-0.082,1.613,0.195,1.852-0.422,1.57c-0.402-0.188-1.148-0.508-1.316-0.918C116.152,176.902,117.144,172.108,118.117,172.281
		L118.117,172.281z M33.742,176.332c0.652-0.012,1.34,0.199,1.726,0.699c0.325,0.414,0.356,0.77,0.036,0.938
		c-0.762,0.402-3.289,0.195-3.414-0.324C31.894,176.844,32.785,176.348,33.742,176.332L33.742,176.332z M71.992,177.354
		c3.086,0.013,6.687,0.668,9.473,1.888c3.957,1.491,7.441,5.293,8.226,6.918c0.238,0.496-0.25,0.496-0.672,0.543
		c-4.711,0.776-6.281,6.573-2.304,9.344c1.246,0.781,2.253,0.695,2.253,0.695c1.008-0.086-4.48,10.448-6.668,17.012
		c-6.761-0.277-11.871,0.766-18.48-1.512c-0.711-1.181-0.539-3.785-0.023-5.134c0.476-1.218,1.101-2.163,0.8-3.569
		c-0.527-2.449-2.761-5.642-3.507-7.664c-0.657-1.543-0.614-2.121,0.527-3.004c1.348-1.043,1.68-1.263,2.047-1.789
		c0.343-0.488,0.199-0.603,0.203-1.707c0.008-1.344-0.024-1.133,1.086-1.332c0.387-0.07,1.297-0.359,1.992-0.728
		c1.445-0.761,2.453-0.733,3.305-0.261c0.367,0.098,0.332-0.285,0.488-0.793c0.066-0.219,0.223-0.582,0.211-0.691
		c-0.027-0.227-0.516-0.16-1.051-0.087c-2.16,0.302-3.859,0.368-4.73,0.044c-0.758-0.281-0.762-0.794-0.317-1.641
		c0.395-0.754,0.672-0.742,0.512-2.313c-0.203-1.977,0.07-2.395,0.992-3.043C67.507,177.723,69.593,177.344,71.992,177.354
		L71.992,177.354z M83.144,179.098h10.027c-0.984,1.586-2.082,4.035-2.699,6.355c-0.094,0.18-0.199,0.358-0.434,0.125
		C88.687,183.641,87.148,181.57,83.144,179.098L83.144,179.098z M74.828,186.156c-1.196,0.034-2.696,0.613-4.578,1.691
		c-1.282,0.734-2.328,1.188-3.688,0.938c-0.777-0.141-0.875-0.031-0.976,0.219c-0.457,1.137,1.238,2.351,2.953,1.555
		c0.5-0.207,4.32-2.191,4.531-2.359c0.23-0.184,1.812-0.648,2.23-0.645c1.262,0.016,2.043,1.007,1.887,2.156
		c-0.203,1.531-2.375,1.604-2.519,0.246c-0.11-1.051-0.547-0.582-0.586-0.066c0,0.438,0.332,1.441,0.691,1.668
		c1.836,1.148,4.254-1.082,3.098-3.379C77.16,186.772,76.187,186.117,74.828,186.156L74.828,186.156z M66.601,191.496
		c-1.242,0.233-2.054,0.719-3.394,0.832c-1.106,0.242-1.024,1.125-0.332,1.582c0.531,0.355,1.199,0.141,3.136-1.09
		c1.903-1.212,3.532,1.309,2.012,2.598c-0.957,0.812-0.301,1.027,0.356,0.539C70.062,194.699,69.097,191.02,66.601,191.496
		L66.601,191.496z M72.492,197.977c-0.149-0.012-0.379,0.043-0.688,0.184c-1.425,0.651-2.519,1.34-3.203,2.258
		c-0.117,0.199-0.054,0.535-0.109,0.797c-0.043,0.207-0.211,0.469-0.18,0.609c0.024,0.125,0.43,0.254,0.488,0.371
		c0.25,0.465,0.09,1.652-0.054,2.512c-0.067,0.41-0.68,0.535-0.922,0.785c-0.805,0.816-0.602,1.066,0.254,0.746
		c0.597-0.223,0.344-0.634,1.824-0.348c1.914,0.371,3.434-0.148,4.938-0.984c1.675-0.93,2.281-1.445,2.347-1.336
		c0.113,0.184,0.024,0.281-1.168,1.273c-2.992,2.484-5.215,3.063-6.894,2.129c-0.5-0.34-0.903-0.48-0.524,0.25
		c0.051,0.082,0.457,0.398,0.739,0.527c1.726,0.776,3.886,0.117,6.636-2.055c0.602-0.477,1.137-1.012,1.836-1.598
		c2.281-1.911,1.68-2.782-0.898-1.852c-0.813,0.293-1.039-0.023-2.141-0.453c-1.473-0.57-1.957-0.625-3.656-0.656
		c-1.477-0.028-1.699,0.113-1.699-0.137c0.004-0.316,0.996-1.435,2.113-1.922C72.621,198.604,72.929,198.008,72.492,197.977
		L72.492,197.977z M75.211,202.69c0.273,0.278-0.121,0.454-1.188,0.961c-0.601,0.285-1.156,0.524-1.234,0.521
		c-0.098,0.172-1.102-2.094-0.828-2.207C72.078,201.918,74.543,202.129,75.211,202.69L75.211,202.69z M71.34,202.453
		c0.246,0.512,0.437,1.051,0.531,1.547c0.023,0.151,0.133,0.375-0.11,0.371c-0.187,0.026-0.5,0.043-0.613-0.133
		c-0.242-0.38-0.508-1.664-0.418-1.914C70.914,202.07,71.242,202.246,71.34,202.453L71.34,202.453z M80.113,206.527
		c-0.09,0.004-0.258,0.066-0.523,0.223c-4.243,2.508-9.329,3.812-12.602,2.574c-1.102-0.414-1.305-0.27-0.902,0.484
		c0.277,0.527,0.832,1.141,1.671,1.371c2.672,0.734,6.977-0.336,10.29-2.508C79.394,207.789,80.5,206.522,80.113,206.527
		L80.113,206.527z M105.078,213.242c0,0,7.496,15.453,8.957,16.18l-61-0.11l10.277-14.69
		C63.402,215.437,92.175,218.512,105.078,213.242L105.078,213.242z M105.078,213.242"/>
	<path fill="#D40000" d="M53.562,228.979l9.707-14.371c14.571,2.771,27.68,1.31,42.035-1.254l9.563,16.125L53.562,228.979z
		 M130.843,174.535c-0.188-0.188-0.043-8.184,0.094-8.056c0.188,0.181,1.832,1.392,2.57,0.786c-0.934-7.652,4.008-7.504,3.887-8.504
		c-7.672-5.789-1.09-11.7-1.219-11.828c-8.395-4.332-4.184-10.98-4.766-11.579c-10.223-2.651-6.23-10.765-7.004-9.929
		c-5.953,1.789-9.23-3.199-9.332-7.254c-5.148,2.918-13.105-1.215-10.613-5.863c0,0,2.73,1.293,3.211,1.031
		c4.203-3.055,3.875,1.332,4.75,2.285c3.137-0.453,4.988,1.945,5.77,3.113c4.625,0.004,4.434-1.105,4.477,3.383
		c3.484,0.883,3.344,2.771,5.363,5.344c4.395,0.047,3.656,1.476,2.66,3.91c3.168,2.52,3.426,4.496,3.949,6.789
		c3.453,1.254,4.074,1.762,1.82,4.676c3.047,4.57,1.578,7.219,2.043,7.469c3.801,2.742,1.902,3.734,0.242,4.789
		c0.578,3.645,1.039,4.18-0.301,7.891c4.371,3.105-0.695,4.504-0.953,4.438c0,0-0.492,3.043-0.488,3.054
		C137.113,171.074,131.25,174.945,130.843,174.535L130.843,174.535z M24.836,152.422l-0.086-10.699l37.05,23.941l-4.683,7.348
		L24.836,152.422z M74.058,168.176l8.758-18.34c0,0-3.996-20.121-3.148-20c0.523,0.078,25.101,0.551,25.101,0.551
		c2.82,6.414,4.523,11.867,11.754,22.484l-7.641,2.383l0.266,12.854L74.058,168.176z M95.523,163.352
		c-0.254-0.531-0.398-0.895-0.352-1.129c0.094-0.305,0.328-0.293,0.629-0.129c1.066,0.52,2.133,0.965,2.918-0.016
		c0.395-0.513,0.293-1.242-0.043-1.664c-0.602-1.228-2.496-0.34-3.133-0.297c-0.59,0.016-0.816-0.484-0.332-1.191
		c0.289-0.309,0.473-0.648,0.52-1.047c0.332-2.805-4.445-1.809-2.789,0.91c0.754,1.008,0.316,1.613-0.793,0.977
		c-1.215-0.7-2.91-0.047-2.855,1.425c0.043,1.118,1.445,1.806,2.625,1.134c0.273-0.156,0.484-0.324,0.676-0.41
		c0.551-0.238,0.945-0.039,0.762,0.578c-0.492,0.77-1.066,1.879-0.586,2.609c0.484,1.063,2.145,0.96,2.715,0.301
		C95.878,164.945,95.988,164.207,95.523,163.352L95.523,163.352z M153.425,107.145L116.3,83.086l1.285-2.035
		c1.664-0.926,2.348-2.082,2.289-3.692l1.012-2.222l32.578,20.906L153.425,107.145z M96.445,101.875l2.742,16.562l-25.769,0.243
		c-0.95-4.223-9.719-20.227-10.45-20.899c4.356-4.172,4.43-11.301,6.911-16.984c0.199-0.258,33.984-0.297,34.39-0.039
		C104.132,84.785,93.785,102.707,96.445,101.875L96.445,101.875z M85.66,91.781c0.656-0.601,0.609-1.519-0.113-2.554
		c-0.704-1-0.391-1.723,0.734-1.043c0.621,0.414,1.609,0.503,2.277,0.289c0.848-0.289,1.2-0.965,1.075-1.817
		c-0.152-1.035-1.296-1.316-2.52-0.867c-0.356,0.074-0.57,0.363-0.875,0.5c-0.66,0.293-0.922-0.5-0.316-1.531
		c0.668-1.137-0.028-2.36-1.258-2.469c-1.313-0.113-2.098,1.383-1.559,2.203c0.77,1.176,0.211,1.996-0.894,1.207
		c-1.586-1.133-3.661,0.305-2.801,1.988c0.418,0.821,1.781,1.036,3.004,0.516c1.019-0.433,1.324,0.067,0.707,1.113
		C81.847,91.465,83.937,93.355,85.66,91.781L85.66,91.781z M48.054,72.707l-0.273,10.352c-3.875-2.372-3.301-2.403-3.445-2.368
		c1.14,3.114-0.188,6.957-3.477,8.848c5.926,5.559,2.723,9.469,1.75,12.109c7.57,4.395,3.731,11.993,3.762,11.598
		c7.465,0.043,7.312,6.57,7.527,9.293c9.234-0.578,7.996,6.797,9.211,7.43c4.477-2,9.703-1.316,11.09,4.699
		c0.894,3.414-2.395,0.125-3.828,0.269c-5.102,3.177-4.121-1.671-4.406-2.347c-4.227,0.398-4.797-1.613-6.649-3.043
		c-4.562,0.879-4.187-0.625-3.918-3.396c-3.582-0.726-4.359-2.96-5.785-5.147c-4.945,0.16-2.93-3.332-2.91-4.02
		c-0.598-0.535-3.438-3.328-3.578-6.527c-5.075-1.434-1.887-3.996-1.703-4.875c-1.922-2.391-2.426-4.156-1.782-7.168
		c-4.508-2.105-0.742-4.074-0.425-5.273c-1.469-3.926-0.399-5.102,0.183-7.227c-2.902-3.398-1.168-3.207,0.953-5.269
		c0.27-0.372-0.472-2.079-0.429-3.086L48.054,72.707z M74.086,34.344l-8.125-14.543h58.031c0,0-6.316,8.75-8.762,13.152
		C100.757,30.672,87.215,31.754,74.086,34.344L74.086,34.344z M74.086,34.344"/>
	<path fill="#E2CF00" d="M33.578,219.711c-5.09-1.156-5.953-7.555-1.176-12.875c0.387-0.43,0.652-1.094,0.652-1.094
		s-0.851-1.398-3.082-4.488c-0.414-0.574-1.019-1.492-1.019-1.492c1.222-1.762,2.504-3.223,3.871-5.133
		c0.183-0.258,0.523-0.547,0.473-0.785c-0.067-0.336-0.563-0.676-1.157-1.547c-3.445-5.078-3.824-7.09-2.074-10.11
		c1.645-2.839,5.57-3.167,7.961-0.664c2.586,2.704,2.465,5.161-0.891,10.161c-0.738,1.098-1.269,2.089-1.269,2.089
		s-0.031,0.349,1.183,1.918c1.688,2.177,2.926,4.043,2.926,4.043s-0.769,0.981-1.496,1.832c-1.945,2.286-2.82,3.864-2.82,3.864
		s0.133,0.453,0.426,0.785c5.332,6.039,4.91,12.98-1.121,13.57C34.656,219.815,33.902,219.77,33.578,219.711L33.578,219.711z
		 M76.476,142.598c-0.14-0.23-19.191,30.602-19.191,30.602l2.176,1.395l18.222-28.5c0.278,0.207,0.543,0.457,0.489,0.804
		c0,0-15.012,24.461-17.512,28.372c-0.067,0.105,3.722,2.348,3.847,2.355c5.586-2.75,28.868-0.371,44.329-1.316
		c0.063,0.046-0.234,5.43-0.234,5.43s-3.527-4.074-4.238-4.102c-3.516-0.121-7.215,1.375-9.863,1.207
		c-1.688,0.52-3.621,6.679-4,8.227c-3.078-0.355-6.051,2.863-5.336,5.859c1.004,3.332,2.73,3.082,4.602,3.136
		c-0.172,3.771-6.833,13.711-6.859,18.61c7.043-0.555,14.66-0.684,21.926-2.875c0,0,2.727-7.848,6.168-13.02
		c1.137-1.977,1.684-4.945,1.223-6.82c-0.293-2.047,0.59-2.566,1.379-4c0.48-0.899,2.254-0.859,2.48-0.926
		c4.621-1.34,2.973-7.313,1.004-8.375c-2.449-1.328-5.918,0.727-7.25-1.961c-1.41-2.845-0.953-8.727-0.953-8.727L74,168.137
		c0,0,9.855-18.727,9.605-18.867C80.91,147.793,76.507,142.647,76.476,142.598L76.476,142.598z M53.144,159.645
		c0.164-1.895,0.465-32.676-28.617-47.977l0.156-4.047c0.176-0.207,26.453,11.863,30.961,43.215l8.11-12.707l2.984,1.168
		C62.328,145.922,53.562,161.996,53.144,159.645L53.144,159.645z M35.484,148.555c1.199-3.555-0.769-1.668-2.559-1.813
		c-1.226-0.668-2.429-1.527-3.566-2.277c8.5-4.504,3.438-4.285-1.512-1.121c-1.285-0.699-2.91-2.223-3.011-2.094
		c9.589-6.168,5.992-6.293-0.145-1.828c0.211-4.188,0.063-2.617,0.145-4.024c5.234-5.604,0.359-2.562,0-2.491
		c-1.289-5.595,4.871-4.427,5.437-0.195c1.086,0.805,3.215,1.805,3.844,5.272c2.957,1.884,2.648,3.446,2.512,5.7
		c1.156,1.145,4.144,3.559,0.66,5.785L35.484,148.555z M24.453,123.031l0.195-3.094c0.402-1.261,22.832,14.743,21.215,35.305
		c0.266-0.145-2.484-1.434-3.27-2.141C42.605,137.969,24.797,122.281,24.453,123.031L24.453,123.031z M153.097,140.391
		c-14.965-6.859-29.176-23.297-29.922-44.676l-8.453,14.16l-2.93-1.094c0.141,0.176,6.297-11.961,13.207-20.051
		c1.859,26.973,12.438,39.516,28.465,48.628L153.097,140.391z M74.722,130.527c-14.504-1.801-35.468-21.543-29.203-48.309
		c0.887-2.719,14.875,12.34,14.875,12.34c0.086-0.684,12.582,19.445,12.231,23.375c10.543,3.003,31.125,0.156,31.125,0.156
		c17.113,3.824,35.008,22.285,28.547,48.527c0,0-4.547-2.988-8.348-6.465c-11.551-11.164-15.215-20.341-19.309-30.457
		C89.851,128.354,75.988,131.008,74.722,130.527L74.722,130.527z M153.238,108.238c0.582,1.297,0.137,4.09,0.137,4.09
		c-3.852,4.195-4.254,4.274,0.578,2.922c-0.598,4.027-3.574,4.687-5.34,3.316c-0.652-0.504-0.66-3.277-0.66-3.277
		c-2.93-0.734-3.934-1.617-3.52-4.769c-3.375-0.403-3.242-2.043-2.965-5.473c-3.074-1.731-2.203-4.852-0.383-6.027l1.414,1.417
		c-0.488,0.438-0.25,3.168,2.441,1.137c0,0,2.156,1.789,3.191,2.481c-7.793,5.011-3.07,3.91,1.73,0.617
		c0.902,0.617,2.008,1.551,2.648,1.984C146.417,111.23,144.253,115.055,153.238,108.238L153.238,108.238z M153.617,125.272
		l-0.258,3.614c-15.387-9.414-19.551-21.828-20.695-35.051c0,0,2.066,1.519,3.008,2.152
		C137.046,113.047,152.667,124.562,153.617,125.272L153.617,125.272z M69.324,80.516l36.898,0.234l-10.387,19.316
		c0,0,5.047,7.098,6.117,4.973c6.18-9.711,12.465-19.449,18.91-29.91l-2.23-1.332l-18.254,28.84l-1.012-0.457l18.469-29.368
		c-1.086-0.71-3.34-1.66-3.34-1.66s-31.422,0.504-45.078,0.45c0.441-1.883-0.168-5.887,1.246-4.907
		c0.59,2.735,4.918,5.032,8.336,2.383c0.168-0.129,5.379,0.117,5.582-0.148c0.679-1.098,1.883-4.555,3.289-8.457
		c5.355-0.36,4.824-2.95,5.434-3.801c-0.41-7.613-4.684-3.512-4.316-6.281c1.207-4.934,7.379-16.102,6.598-17.079
		c-1.59-1.058-17.371,2.051-21.965,2.618c-0.426-0.164-2.668,7.164-5.031,10.297c-2.575,3.41-3.489,7.066-2.176,10.515
		c-1.364,3.789-3.969,3.403-6.067,4.473c-2.375,2.574-1.722,6.519,0.543,8.043c1.578,1.062,4,1.008,6.469-0.996L69.324,80.516z
		 M142.644,54.043l-4.316-5.801l4.184-6.097c-1.652-2.622-4.375-6.629-3.887-9.805c1.066-6.301,9.563-5.375,10.301,0.648
		c0.402,2.797-1.633,6.231-3.707,9.149c1.367,2.492,1.957,2.898,3.945,5.754c-1.184,2.086-4.059,6.164-4.059,6.164
		c1.793,3.015,4.289,6.34,4.105,9.41c-0.188,2.633-3.059,5.305-5.738,4.742C135.14,66.461,139.792,57.551,142.644,54.043
		L142.644,54.043z M142.644,54.043"/>
	<path d="M12.465,6.395V9.18h2.753c0,0,0.067,2.683,0.09,8.386c0.028,5.536,0.141,8.282-0.218,9.856
		c-0.969,3.633-6.329,3.652-7.391,1.039c-0.621-1.52-0.453-2.699-0.488-4.227H4.25c0,0,0.015,0.77,0.019,1.707
		c0.016,4.09,1.395,6.039,4.621,6.813c3.317,0.879,7.188-0.461,8.567-3.242c0.824-1.586,0.73-1.692,0.75-11.278
		C18.218,11.84,18.32,9.18,18.32,9.18h2.535V6.395H12.465z M64.586,19.137c2.285,4.297,8.785,15.894,8.785,15.894
		c15.453-3.207,28.449-4.019,42.105-1.027l9.758-14.797L64.586,19.137z M66.597,20.008h2.793l5.481,11.277l9.457-1.887l-1.61-9.367
		l2.676,0.016l1.352,9.008l13.891-0.356l1.801-8.691L105,20.039l-1.84,8.836l11.004,1.48l5.383-10.347h3.695l-8.184,12.777
		c-14.559-2.836-29.023-1.883-41.129,1.094L66.597,20.008z M71.867,20.008h8.156l1.957,7.613c-1,0.524-4.742,1.418-5.992,1.293
		C74.492,26.293,72.949,22.508,71.867,20.008L71.867,20.008z M87.597,20.008h12.415l-1.059,6.484l-10.41,0.332L87.597,20.008z
		 M107.277,20.008h9.566l-3.777,7.871l-7.215-0.981L107.277,20.008z M46.125,21.98c-1.918,4.129-4.621,8.161-6.887,11.137
		c-6.719,8.781-8.16,11.281-9.488,16.453c-2.078,8.09,5.086,14.629,11.297,10.235c1.464-1.039,3.085-3.895,3.093-5.125
		c0.004-0.891,0.61-1.368,1.102-0.871c0.098,0.101,0.125,0.496,0.094,1.066c-0.344,3.664-1.817,9.629-4.664,13.371h11.382
		c-3.445-4.57-4.597-9.172-4.535-13.5c0.008-1.863,1.11-1.68,1.356,0.227c1.215,9.339,13.261,7.586,13.824-1.758
		c0.328-4.887-2.754-10.09-6.774-15.86C52.648,32.648,48.66,27.566,46.125,21.98L46.125,21.98z M143.695,27.887
		c-0.559-0.004-1.074,0.047-1.551,0.144c-2.48,0.52-3.781,2.426-3.801,5.539c-0.008,1.43,1.043,3.95,2.641,6.336
		c0.781,1.164,1.301,2.235,1.301,2.235l-4.164,6.117l4.43,5.785c0,0-0.691,0.809-1.102,1.391c-2.031,2.871-2.969,5.558-2.84,7.761
		c0.141,2.379,1.527,4.196,4.129,5.067c1.426,0.476,3.461-0.106,4.828-1.348c1.102-1,1.656-2.301,1.68-3.824
		c0.035-2.18-1.02-4.824-3.117-7.703c-0.57-0.782-0.848-1.399-0.848-1.399s2.938-4.179,4.043-6.093l-4.012-5.766
		c3.191-4.797,3.832-5.859,3.922-8.809C149.089,30.402,146.972,27.906,143.695,27.887L143.695,27.887z M143.296,28.238
		c0.137,0,0.277,0.004,0.414,0.012c3.645,0.281,5.57,2.992,5.086,6.469c-0.496,3.316-3.484,6.406-3.961,7.472
		c1.434,2.336,4.145,5.657,4.145,5.657c-1.148,2.089-4.117,6.14-4.117,6.14s0.168,0.336,0.359,0.602
		c3.098,4.394,3.953,6.472,3.738,9.105c-0.168,2.078-1.809,3.93-3.852,4.309c-3.242,0.594-5.898-1.703-6.227-4.809
		c-0.199-2.718,1.555-5.359,2.914-7.422c0.578-0.863,1.074-1.691,1.074-1.691l-4.414-5.793c0,0,0.316-0.496,0.52-0.793
		c0.777-1.129,1.781-2.519,2.293-3.187c0.93-1.211,1.48-2.043,1.48-2.043s-0.66-1.059-1.27-2.024
		c-2.418-3.824-3.094-5.781-2.723-7.894C139.214,29.75,141.23,28.273,143.296,28.238L143.296,28.238z M143.625,30.199
		c-1.348,0.035-2.633,1.028-3.145,2.465c-0.742,2.691,2.094,6.77,3.383,7.863c2.418-2.777,3.957-5.894,3.063-8.078
		C146.339,31.129,144.972,30.164,143.625,30.199L143.625,30.199z M143.957,31.07c2.441,0.051,3.355,2.95,1.473,6.246
		c-0.652,1.125-1.609,2.301-1.609,2.301s-0.895-1.117-1.43-1.957c-2.184-3.414-1.621-6.082,1.059-6.558
		C143.625,31.082,143.796,31.07,143.957,31.07L143.957,31.07z M95.386,32.578C89,32.613,80.465,33.676,72.961,35.379
		c-0.653,4.023-2.672,8.062-4.875,11.266c-2.121,3.468-2.891,6.484-2.18,8.554c0.664,1.934-1.149,4.824-3.141,5.008
		c-2.476,0.223-4.054,1.949-4.023,4.402c-0.07,3.934,2.644,6.348,6.332,5.008c0.371-0.047,0.617,0.195,0.617,0.195l-0.215,22.516
		c-2.074,0.324-3.461,0.777-5.222,1.715l-0.743-0.801c-0.41-0.437-0.925-1-1.152-1.25c-0.223-0.25-0.633-0.601-0.902-0.773
		c-0.274-0.176-0.641-0.551-0.821-0.836c-0.433-0.696-2.277-2.469-3.285-3.156c-0.172-0.118-0.605-0.485-0.965-0.817l-0.656-0.601
		l0.004-7.477c0-4.113-0.043-7.52-0.094-7.574c-0.054-0.055-0.898,0.304-1.875,0.797c-3.359,1.468-6.566,3.496-9.031,5.14
		c-1.09,0.731-1.199,1.137-0.789,2.985c0.23,1.039,0.172,1.148-0.68,1.359c-1.758,0.43-2.308,3.231-0.824,4.18
		c0.699,0.445,0.703,0.468,0.25,1.484c-0.695,1.567-0.668,4.567,0.055,5.817c0.41,0.714,0.383,0.945-0.164,1.3
		c-1.871,1.219-1.746,3.828,0.215,4.313c0.5,0.125,0.628,0.34,0.464,0.769c-0.613,1.578-0.054,3.977,1.348,5.797
		c0.731,0.946,0.731,0.934,0.246,1.367c-1.574,1.426-0.723,3.977,1.426,4.258c0.734,0.098,0.738,0.098,0.824,0.66
		c0.246,1.621,0.36,2.075,0.715,2.832c0.453,0.961,0.996,1.61,2.012,2.399c0.832,0.648,0.832,0.656,0.386,1.609
		c-0.816,1.762,0.485,3.512,2.559,3.438c1.059-0.035,1.059-0.039,1.137,0.336c0.371,1.839,2.558,4,4.355,4.297
		c0.922,0.152,1.067,0.371,0.754,1.152c-0.504,1.262-0.18,2.07,1.094,2.726c0.855,0.438,1.105,0.454,2.039,0.134
		c1.059-0.363,1.07-0.359,1.969,0.844c1.265,1.695,2.105,2.121,4.218,2.137c1.395,0.008,1.45,0.047,1.457,1.027
		c0.02,2.328,2.485,3.297,4.071,1.605c0.57-0.613,0.57-0.609,1.078-0.234c2.23,1.633,4.211,2.055,4.027,0.526
		c-0.433-3.578-3.023-5.761-3.023-5.761l3.238,0.844c0.141,3.777,0.274,8.335,1.063,11.484l-14.422,22.969
		c0,0-0.871-0.536-1.793-1.168c-1.355-0.938-3.016-2.035-4.035-2.672c-0.52-0.328-1.184-0.727-1.707-1.168
		c-0.504-0.418,0.308-0.969,0.48-1.41c3.32-5.93,8.516-13.055,12.297-19.984l-3.66-1.414c-2.801,4.409-4.864,7.957-7.473,12.023
		c-2.598-19.055-15.894-35.785-31.984-42.828l0.054,4.988c16.891,8.637,28.946,26.469,28.625,47.504
		c-0.066,0.078-1.414-0.727-3.234-1.942c-0.961-0.64-2.895-1.901-3.137-2.026c0.782-23.293-22.316-37.063-22.355-36.414
		c0,0-0.145,3.012-0.211,4.406c9.844,6.594,17.574,18.594,18.359,29.27c0.008,0.09-4.621-2.887-4.621-2.887
		c2.754-1.371,1.996-4.926,0.012-5.887c-0.621-0.277-0.656-0.414-0.348-1.255c0.633-1.718-0.531-4.308-2.133-4.741
		c-0.703-0.191-0.82-0.375-0.851-1.363c-0.063-1.805-1.063-2.984-2.86-3.379c-0.5-0.109-0.503-0.113-0.531-0.734
		c-0.148-3.496-3.566-4.922-6.133-2.555c-0.285,0.262-0.586,0.766-0.586,0.766l-0.019,3.789c0.875-0.48,2.203-2.129,2.75-2.063
		c0.602,0.074,0.309,0.477-1.047,1.648c-0.879,0.762-1.73,1.563-1.73,1.563l0.054,4.992c1.461-0.949,2.922-2.023,4.289-2.973
		c1.18-0.825,1.786-1.094,1.93-0.855c0.164,0.27-0.098,0.617-0.769,1.02c-1.797,1.195-3.891,2.602-5.403,3.785l-0.004,3.438
		l0.289,0.43l0.086,3.012l-0.269,0.066l0.004,3.793l35.527,22.694l18.078-28.519l0.297,0.301l-18.082,28.398
		c0,0,0.742,0.641,1.445,1.008c0.719,0.402,1.617,0.937,2.383,1.449c0.363,0.594,0.996,1.112,1.676,1.039
		c0.621-0.681,3.336-1.398,3.598-1.711c10.117-0.148,39.148,0.051,39.148,0.051l0.164,4.645c-1.305-4.504-5.512-5.434-8.82-3.418
		l-5.434,0.007c-0.043,0-3.215,5.786-3.68,8.806c-2.286-0.313-5.324,1.914-5.48,4.172c-0.367,3.215,1.742,5.559,4.504,5.102
		c0.051,0.02-0.434,3.184-1.996,5.656c-2.071,4.363-3.141,6.804-4.403,10.527c-0.859,2.34-0.566,2.758-0.418,2.816
		c8.106-0.118,15.563-0.902,23.254-3.387c0,0-0.141-0.547-0.211-0.856c-0.277-1.245,0.77-3.797,3.73-9.062
		c2.285-4.067,2.938-5.617,3.168-7.539c0.117-0.969,0.094-1.223-0.242-3.035c-0.02-0.168-0.152-0.411-0.117-0.594
		c0.238-1.219,2.098-3.367,2.141-3.313c0,0,0.672-0.125,0.941-0.147c4.191-0.297,5.488-5.992,1.953-8.563
		c-1.723-1.054-2.738-1.132-4.566-0.655l-0.031-22.09l2.547,0.094l2.801-1.383c4.5,3.844,7.434,7.77,12.277,10.727l-0.078,0.195
		l-3.602-2.47l0.012,14.478c4.164-2.168,8.047-4.168,11.793-7.203l-0.754-0.653l0.031-2.069c3.52,0.277,3.855-4.203,0.965-4.738
		c0,0,0.066-0.359,0.344-0.93c0.887-1.82,1-3.535,0.352-5.43c-0.395-1.156-0.375-1.445,0.09-1.445
		c2.141,0.012,1.941-3.781-0.238-4.609c-0.75-0.289-0.695-0.051-0.543-2.403c0.117-1.769-0.316-2.968-1.621-4.519
		c-0.496-0.586-0.453-0.867,0.184-1.258c1.824-1.113,0.5-4.328-1.742-4.234c-0.875,0.035-0.875,0.035-0.949-0.844
		c-0.199-2.305-1.488-4.5-3.176-5.422c-0.52-0.285-0.598-0.516-0.305-0.91c1.438-1.922,0.094-4.547-1.934-3.781
		c-0.391,0.152-0.805,0.301-0.918,0.336c-0.16,0.047-0.289-0.176-0.598-1.047c-0.844-2.367-1.59-3.113-4.273-4.238
		c-0.527-0.223-0.559-0.379-0.32-1.461c0.41-1.868-2.16-3.606-3.547-2.399c-0.566,0.492-0.586,0.488-1.223-0.328
		c-1.266-1.461-3.332-2.477-5.168-2.668c-0.879-0.078-1.008-0.148-0.938-0.484c0.488-2.289-1.738-3.778-3.586-2.403
		c-0.891,0.66-1.121,0.68-2.031,0.168c-1.918-1.078-2.758-1.117-2.957-0.144c-0.063,0.808,0.117,1.765,0.313,2.363
		c0.465,1.606,1.07,2.203,2.395,3.332c0,0-2.195-0.609-2.75-0.719c0.055-0.058-0.16-7.625-1.602-11.91l14.039-22.344l8.043,5.305
		l-12.859,20.344l3.742,1.523c0,0,5-8.304,7.617-12.379c1.715,20.227,17.348,37.96,31.512,43.223
		c-0.047,0.022,0.047-2.91,0.105-4.328c-14.941-6.578-29.156-24.965-28.262-47.031l6.004,3.843
		c1.742,17.684,9.445,28.047,22.285,36.813v-5.418c-8.844-6.547-16.191-15.094-18.141-28.773c0,0,3,1.894,4.344,2.792
		c0,0-0.379,0.215-0.574,0.379c-1.605,1.336-1.125,4.075,0.992,5.625c0.344,0.25,0.348,0.254,0.023,1.114
		c-0.641,1.715,0.348,3.781,2.02,4.215c0.957,0.25,0.953,0.238,0.969,1.335c0.035,2.129,0.895,3.11,3.168,3.622
		c0.313,0.07,0.324,0.101,0.316,1.054c-0.012,2.356,2.254,3.942,4.223,2.957c0.617-0.312,2.559-1.933,2.559-1.933v-3.793
		c0,0-0.879,0.718-1.512,1.312c-1.113,1.035-1.465,1.164-1.461,0.531c0.004-0.457,0.516-1.062,1.582-1.855
		c0.551-0.41,1.391-1.289,1.391-1.289v-4.418c0,0-0.496-0.785-0.465-1.731c0.016-0.511,0.16-1.289,0.16-1.289l0.531,0.012
		l-0.008-5.113l-0.645-0.504l0.027-3.391l-35.129-22.726l-18.297,29.097l-0.457-0.535l18.316-28.914l-4.867-3.113L110.3,71.16
		c0,0-20.332-0.32-40.161-0.066c0,0-0.047-0.547-0.039-2.094c0.008-1.941,0.098-2.215,0.457-1.395
		c0.801,1.836,2.793,2.946,5.106,2.84c1.304-0.062,1.484-0.113,2.937-0.898c0.539-0.289,0.637-0.297,3.18-0.281
		C84.507,69.285,85,69.187,85,68.609c0.949-2.16,1.886-4.664,2.425-6.55c0.262-0.911,0.379-1.313,0.594-1.5
		c0.164-0.145,0.293-0.114,0.692-0.137c1.742-0.113,2.23-0.227,3.484-1.453c2.52-2.532,1.074-7.68-2.574-7.699
		c-0.965-0.004-0.305-2.575,1.738-6.747c2.113-4.316,2.41-4.98,3.5-7.871c0.715-1.894,1.055-3.25,1.145-4.074
		C95.8,32.578,95.593,32.578,95.386,32.578L95.386,32.578z M95.195,33.824c0.508,0.426-0.754,3.543-3.031,8.262
		c-1.875,3.894-2.719,5.84-3.117,7.25c-0.118,0.41-0.282,0.996-0.368,1.305c-0.125,0.433-0.285,0.648-0.714,0.957
		c-0.309,0.218-0.735,0.543-0.954,0.718c-0.613,0.493-0.761,0.336-0.609-0.66c0.281-1.844,1.012-3.832,2.699-7.293
		c1.34-2.758,2.648-5.711,3.664-8.722c0.23-0.704,0.336-1.418,0.719-1.676C94.031,33.656,94.609,33.715,95.195,33.824L95.195,33.824
		z M92.457,34.008c0.348,0.238-1.301,4.508-4.16,10.437c-3.571,7.395-3.758,12.575-0.551,13.844c2.531,1,5.082-1.789,3.52-3.824
		c-0.75-0.977-2.371-1.059-2.929-0.047c-0.309,0.555,0.117,1.191,0.66,0.418c0.789-1.129,2.371,0.172,1.988,1.508
		c-0.262,0.918-1.547,1.652-2.34,1.496c-3.508-0.699-2.847-5.645,0.789-5.918c3.48-0.258,5.063,4.414,2.535,7.086
		c-0.801,0.867-1.738,1.297-3.372,1.297c-2.265-0.004-4.382-1.875-4.168-3.61c0.301-1.586,0.344-2.867-0.191-4.117
		c-0.172-0.402-0.383-0.801-0.371-1.308c0.031-1.407,1.187-3.586,3.769-8.977c0.926-1.934,2.063-5.281,2.622-7.395
		c0.199-0.617,0.102-0.793,0.336-0.878C91.167,33.895,91.996,33.719,92.457,34.008L92.457,34.008z M89.472,34.082
		c0.531,0.02-0.688,3.91-2.227,7.223c-1.164,2.539-2.758,5.797-3.942,8.812c-0.379,0.637-0.632,0.688-1.41,0.274
		c-0.855-0.457-0.601-1.184,1.418-5.2c1.52-3.05,2.985-6.5,4.008-9.972c0.094-0.418,0.234-0.778,0.582-0.977
		C88.425,34.012,88.941,34.059,89.472,34.082L89.472,34.082z M86.632,34.52c0.282,0.371-1.566,5.617-4.429,11.527
		c-0.61,1.258-1.024,2.402-1.637,3.687c-0.297,0.297-1.434,0.446-2.004,0.563c-0.586-0.078-0.031-1.18,1.645-4.567
		c1.363-2.757,1.75-3.539,2.468-5.218c0.52-1.231,1.282-3.34,1.993-5.313c0.058-0.16,0.113-0.512,0.265-0.594
		C85.465,34.379,86.113,34.289,86.632,34.52L86.632,34.52z M83.84,34.848c0.046,0.125-0.059,0.386-0.098,0.586
		c-0.449,2.109-1.481,4.074-2.231,6.089c-0.089,0.278-0.914,1.993-1.832,3.817c-0.914,1.82-1.757,3.562-1.867,3.867
		c-0.113,0.309-0.418,1.121-0.68,1.809c-1.644,3.531,0.125,6.316,2.305,6.511c3.403,0.282,3.723-4.488,1.324-4.945
		c-0.906-0.152-1.898,0.344-1.906,1.383c-0.062,0.547,0.606,1.176,0.598,0.394c-0.035-1.418,1.949-1.355,2.191-0.148
		c0.477,2.351-2.195,3.504-3.785,1.656c-0.656-0.762-0.652-1.629-0.531-2.406c0.332-2.106,2.758-3.625,5.004-2.039
		c3.078,2.176,2.015,6.98-1.957,7.762c-1.36,0.355-3.075-0.098-4.145-1.2c-0.683-0.703-1.133-1.738-1.301-3.019
		c-0.097-0.715-0.136-1.559-0.023-2.344c0.32-2.469,2.121-6.074,3.699-9.125c1.219-2.531,2.176-5.875,3.285-8.566
		C82.203,34.699,83.886,34.488,83.84,34.848L83.84,34.848z M80.84,35.184c0.179,0.054-0.75,2.98-2.075,6.136
		c-1.457,3.207-3.351,6.871-4.425,10.024c-0.336,0.773-0.583,0.75-1.543-0.145c-0.508-0.472-0.223-1.176,1.554-4.808
		c2.739-5.586,3.754-7.969,4.164-9.297c0.192-0.625,0.348-1.395,0.758-1.637C79.8,35.207,80.316,35.027,80.84,35.184L80.84,35.184z
		 M78.105,35.883c-0.289,0.941-1.238,3.73-2.859,7.031c-1.02,2.086-2.012,4.395-3.02,6.547c-0.558,1.324-0.574,1.324-1.531,1.523
		c-1.613,0.336-1.613,0.321-0.188-2.57c0.422-0.859,1.239-2.434,1.813-3.5c1.055-1.965,2.691-5.793,3.285-7.699
		c0.156-0.512,0.379-0.992,0.637-1.254C76.406,35.875,77.675,35.496,78.105,35.883L78.105,35.883z M74.578,36.234
		c0.289-0.007,0.547,0.043,0.672,0.2c0.07,0.656-1.703,4.851-2.789,6.796c-0.336,0.598-0.664,1.368-1.039,2.059
		c-1.387,2.207-3.055,6.449-3.485,8.211c-0.683,2.797,2.512,4.914,4.172,2.879c1.051-1.231-0.043-3.445-1.559-2.828
		c-0.531,0.215-0.312,0.453,0.411,0.511c1.191,0.102,1.285,1.942,0.019,2.348c-1.406,0.43-2.445-0.789-2.437-2.039
		c0.007-2.562,2.812-3.504,4.566-2.101c1.75,1.457,2.027,4.917-0.621,6.261c-2.586,1.309-5.766-0.465-6.406-3.566
		c-0.489-2.371,0.043-4.539,2.32-8.192c1.309-2.097,3.344-5.726,4.387-8.91c0.203-0.539,0.383-0.984,0.57-1.211
		C73.531,36.449,74.097,36.254,74.578,36.234L74.578,36.234z M12.316,36.879c0,0-1.027,1.973-2.453,4.344
		c-1.734,2.933-4.289,5.828-4.664,9.105c-0.102,0.934,0.051,1.871,0.242,2.445c0.793,2.411,4.246,2.774,5.453,0.743
		c0.36-0.61,0.485-0.723,0.836-0.532c0.152,0.082,0.215,0.321,0.207,0.653c-0.301,2.164-1.133,3.355-2.332,4.98h5.762
		c-1.211-1.336-2.242-3.18-2.363-5.043c-0.039-0.762,0.425-0.828,1.125,0.008c2.246,3.105,5.781-0.383,5.492-3.281
		c-0.321-3.227-3.696-7.399-4.625-9.039C13.593,39.184,12.316,36.879,12.316,36.879L12.316,36.879z M143.843,43.687l-3.469,4.415
		c1,1.445,3.379,4.293,3.379,4.293l3.289-4.25L143.843,43.687z M143.875,46.156l1.438,1.864l-1.645,1.941l-1.543-1.813
		L143.875,46.156z M144.003,55.75c0,0-4.195,4.598-3.23,8.008c0.859,3.039,5.434,3.777,6.543-0.668
		c0.082-0.356,0.02-0.832-0.031-1.43C147.191,59.852,144.003,55.75,144.003,55.75L144.003,55.75z M144.003,56.656
		c0,0,1.207,1.746,2.055,3.297c0.949,1.469,1.199,5.582-2.176,5.457c-1.828,0.188-3.574-2.223-2.121-5.172
		C142.16,59.34,144.003,56.656,144.003,56.656L144.003,56.656z M74.757,57.398c0.235-0.039,0.469,0.465,0.618,0.832
		c0.199,0.497-0.371,1.93-0.977,2.645c-0.113,0.121-0.883,0.187-2.027,0.77c-0.004-0.536,0.324-1.711,0.539-2.235
		c0.781-0.769,1.441-1.691,1.75-1.961C74.695,57.418,74.726,57.402,74.757,57.398L74.757,57.398z M66.398,57.656
		c0.516,0.582,1.024,1.09,1.004,1.449c-0.031,0.532-0.652,1.184-1.125,1.649c-0.59,0.582-1.77,0.234-1.766-0.52
		C64.515,59.953,66.195,57.652,66.398,57.656L66.398,57.656z M84.156,58.414c0.5,0.266,1.004,1.176,1.066,1.59
		c-0.726,3.93-3.429,8.734-3.34,8.555c0,0-1.656,0.293-2.359-0.063c1.82-2.527,3.039-5.742,3.867-8.371
		C83.746,58.988,83.906,58.418,84.156,58.414L84.156,58.414z M82.621,58.965c0.281-0.016,0.386,0.211,0.156,0.816
		c-1.07,4.348-3.477,8.918-5.367,9.75c-2.481,1.094-4.949,0.188-6.008-1.679c-1.148-2.024-0.941-5.215,2.879-5.915
		c2.25-0.23,4.555,1.543,3.355,4.395c-1.336,2.113-4.925,0.938-3.875-1.793c0.797-1,2.461-0.133,1.918,1
		c-0.277,0.57-0.011,0.926,0.399,0.527c1.308-1.273-0.844-3.461-2.297-2.367c-2.367,1.785,0.555,5.711,3.312,4.028
		c0.84-0.516,2.36-3.395,2.93-5.493c0.246-0.902,0.469-1.757,1.051-2.304C81.629,59.406,82.265,58.984,82.621,58.965L82.621,58.965z
		 M76.343,59.137c0.137,0.008,0.293,0.074,0.512,0.179c0.277,0.137,0.602,0.387,0.563,0.707c-0.043,0.368-0.254,1.172-0.68,1.563
		c-0.258-0.086-0.965-0.371-1.445-0.5c-0.305-0.082,0.097-0.734,0.285-1.094c0.297-0.582,0.461-0.828,0.707-0.851
		C76.304,59.141,76.324,59.137,76.343,59.137L76.343,59.137z M68.531,59.285c0.355-0.004,0.922,0.391,1.297,0.442
		c0.07,0.543-0.617,1.695-1.735,3.062c-0.918,1.117-0.914,1.121-1.523-0.109c-0.395-0.805-0.406-0.782,0.727-2.188
		c0.605-0.758,0.898-1.105,1.164-1.199C68.484,59.289,68.507,59.285,68.531,59.285L68.531,59.285z M72.078,59.68
		c0.019,0.289-0.129,0.925-0.254,1.297c-1.266,3.789-4.231,7.539-6.672,8.46c-3.191,1.043-6.113-0.636-6.187-4.511
		c0.082-4.563,5.515-5.828,7.156-1.664c0.742,1.879-1.278,4.703-3.024,4.23c-1.761-0.472-2.496-3.222-1.043-3.902
		c0.95-0.445,1.934,0.301,1.727,1.308c-0.07,0.352-0.051,0.399,0.152,0.364c0.907-0.172,0.43-1.989-0.64-2.442
		c-2.02-0.859-3.547,1.864-2.184,3.891c1.633,2.43,4.199,1.965,5.676-1.031c0.254-0.512,0.73-1.243,1.062-1.625
		c0.895-1.035,1.18-1.442,1.973-2.813c0.434-0.754,0.668-1.23,0.891-1.48C71.066,59.738,71.308,59.836,72.078,59.68L72.078,59.68z
		 M79.234,59.883c0.383,0,0.68,0.25,0.668,0.781c-0.004,0.441-0.641,2.313-0.937,2.762c-0.114,0.172-0.379,0.773-0.418,0.64
		c-0.375-1.246-1.04-1.629-1.137-1.957c-0.11-0.382,0.226-0.75,0.379-1.093C78.105,60.281,78.742,59.879,79.234,59.883
		L79.234,59.883z M85.98,60.473c0.461-0.004,1.117,0.207,1.25,0.55c0.422,0.743-2.433,7.641-2.539,7.661l-2.133-0.094
		c1.282-2.75,2.414-5.477,3.239-8.102C85.851,60.477,85.914,60.473,85.98,60.473L85.98,60.473z M114.585,71.391l2.711,1.613
		l-17.871,28.398l-2.598-1.988L114.585,71.391z M70,71.977c16.691,0.062,39.679,0.031,39.679,0.031l-0.969,1.844
		c0,0-25.109-0.247-38.71-0.219V71.977z M47.465,73.141l-0.036,9.332c0,0-0.125-0.055-1.718-1.114
		c-1.911-1.273-4.008-2.582-4.684-2.925c-0.992-0.508-0.863-0.75,1.051-1.969C43.957,75.336,47.465,73.141,47.465,73.141
		L47.465,73.141z M118.937,74.066l1.676,1.059l-18.777,29.891l-1.043-2.051L118.937,74.066z M70.004,74.48h2.613v2.954h-2.613V74.48
		z M75.988,74.48h3.172v2.954h-3.172V74.48z M82.922,74.512h3.261v2.953h-3.261V74.512z M89.722,74.523h3.301v2.954h-3.301V74.523z
		 M96.578,74.543h3.254v2.953h-3.254V74.543z M103.437,74.605h3.328v2.082l-0.504,0.872h-2.824V74.605z M121.378,75.57
		l31.852,20.606l-0.02,2.844l-33.156-21.43L121.378,75.57z M119.292,77.98l0.273,0.196l-1.352,2.062l-0.277-0.156L119.292,77.98z
		 M70.093,78.285h35.747l-1.074,1.809l-34.672-0.051V78.285z M40.742,79.207c0.242-0.016,0.711,0.195,1.441,0.605
		c1.758,0.989,2.864,3.067,2.105,3.821c-0.676,0.668-2.258-0.766-3.242-2.809C40.527,79.738,40.39,79.23,40.742,79.207
		L40.742,79.207z M104,80.992L92.464,99.426c-2.605-3.574-5.527-6.66-11.911-4.571c-3.328-2.574-6.847-2.968-10.589-0.785
		l0.042-13.015L104,80.992z M44.629,81l0.898,0.777c-0.266,0.508-0.387,1.243-0.559,1.899C44.953,82.777,44.875,81.883,44.629,81
		L44.629,81z M117.742,81.191l35.535,23.379v2.168l-36.773-23.695L117.742,81.191z M39.914,81.723
		c0.461-0.008,0.91,0.187,1.246,0.593c0.539,0.649,0.316,1.832-0.438,2.336c-1.5,1.008-3.304-0.941-2.113-2.285
		C38.984,81.949,39.453,81.73,39.914,81.723L39.914,81.723z M45.797,82l1.941,1.555c-3.367,19.207,6.254,38.597,26.977,44.41
		l0.238,2.461c0.039,0.117-8.805-2.629-12.668-5.516c-5.281-3.574-9.746-8.605-12.82-14.457c-0.184-0.348-0.399-0.746-0.477-0.879
		c-0.922-1.621-2.543-6.078-3.035-8.336c-0.172-0.793-0.391-1.726-0.485-2.07c-0.269-0.988-0.793-8.664-0.679-10.02
		C45.14,84.848,45.797,82,45.797,82L45.797,82z M43.593,84.605c0.747,0.032,0.825,0.567,0.227,1.598
		c-0.766,1.324-1.918,2.246-3.785,3.031c-1.028,0.434-1.297,0.235-1.176-0.859c0.176-1.652,1.324-2.859,3.313-3.496
		C42.648,84.746,43.129,84.602,43.593,84.605L43.593,84.605z M49.308,84.812c0.301,0.258,0.399,0.34,0.77,0.653
		c-0.637,0.219-1.098,0.82-1.098,1.531c0,0.895,0.727,1.621,1.621,1.621c0.801,0,1.465-0.582,1.594-1.347
		c0.289,0.25,0.562,0.48,0.773,0.664c-0.375,0.945-1.293,1.609-2.367,1.609c-1.406,0-2.547-1.141-2.547-2.547
		C48.054,86.062,48.558,85.258,49.308,84.812L49.308,84.812z M50.601,86.09c0.09,0,0.176,0.015,0.254,0.039
		c0.203,0.172,0.367,0.312,0.563,0.48c0.058,0.118,0.089,0.246,0.089,0.387c0,0.5-0.406,0.906-0.906,0.906s-0.906-0.406-0.906-0.906
		S50.101,86.09,50.601,86.09L50.601,86.09z M44.488,86.676c-0.211,2.476-0.145,5.066-0.066,7.66
		c-0.481-2.055-1.547-3.594-3.325-4.645C42.324,88.844,43.609,87.812,44.488,86.676L44.488,86.676z M53.824,88.621l1.726,1.488
		c-1.484,20.336,16.336,28.051,16.817,27.711l0.75,2.301C60.812,115.934,52.304,103.215,53.824,88.621L53.824,88.621z
		 M153.082,137.367l-0.09,2.559c-13.965-5.418-29.879-25.406-29.676-44.559c-3.586,5.496-5.598,9.164-8.676,14.117l-2.449-1.168
		c4.027-6,7.859-12.421,11.898-18.316c0.461-0.668,0.836-0.973,0.855,0.484C124.945,97.074,126.988,124.184,153.082,137.367
		L153.082,137.367z M39.55,90.207c0.45-0.027,1.09,0.191,1.903,0.734c1.277,0.856,2.707,3.5,2.211,4.09
		c-0.446,0.531-2.336-0.101-3.278-1.094C38.523,91.965,38.402,90.281,39.55,90.207L39.55,90.207z M50.437,90.473
		c1.406,0,2.547,1.14,2.547,2.543c0,1.406-1.141,2.546-2.547,2.546c-1.406,0-2.547-1.14-2.547-2.546
		C47.89,91.613,49.031,90.473,50.437,90.473L50.437,90.473z M56.136,90.715l1.664,1.949c0.325,17.066,13.793,22.328,13.668,22.371
		l0.407,1.836C71.125,116.973,55.211,109.73,56.136,90.715L56.136,90.715z M50.437,91.398c-0.894,0-1.621,0.723-1.621,1.618
		c0,0.894,0.727,1.621,1.621,1.621c0.895,0,1.621-0.727,1.621-1.621C52.058,92.121,51.332,91.398,50.437,91.398L50.437,91.398z
		 M50.437,92.109c0.5,0,0.906,0.407,0.906,0.907c0,0.504-0.406,0.91-0.906,0.91s-0.906-0.406-0.906-0.91
		C49.531,92.516,49.937,92.109,50.437,92.109L50.437,92.109z M59.043,93.656c0.207,0,1.168,1.395,1.168,1.395
		s-1.055,0.371-1.512-0.09C58.25,94.504,58.492,93.652,59.043,93.656L59.043,93.656z M132.8,94.285l2.496,1.703
		c1.164,11.516,7.762,22.02,17.707,29.305l-0.063,2.852C140.824,119.957,134.101,108.836,132.8,94.285L132.8,94.285z M39.285,94.48
		c0.039-0.003,0.082,0,0.121,0c1.527,0.024,2.172,2.372,0.539,3.043c-1.027,0.422-2.145-0.187-2.254-1.23
		c-0.078-0.738,0.469-1.523,1.215-1.742C39.035,94.512,39.16,94.488,39.285,94.48L39.285,94.48z M60.113,96.016
		c0.398,0.004,0.836,0.234,1.246,0.699c1.098,1.234,1.086,1.594-0.07,2.062c-1.625,0.657-2.973-0.257-2.434-1.652
		C59.14,96.391,59.597,96.016,60.113,96.016L60.113,96.016z M43.48,96.078c0.133-0.004,0.258,0.012,0.367,0.059
		c1.2,0.465-1.394,5.218-3.113,5.703c-1.09,0.305-1.316-0.121-0.961-1.789C40.168,98.195,42.207,96.102,43.48,96.078L43.48,96.078z
		 M51.117,96.187c1.406,0,2.547,1.137,2.547,2.543c0,1.403-1.141,2.547-2.547,2.547c-1.402,0-2.547-1.144-2.547-2.547
		C48.57,97.324,49.715,96.187,51.117,96.187L51.117,96.187z M51.117,97.109c-0.895,0-1.617,0.727-1.617,1.621
		c0,0.895,0.722,1.618,1.617,1.618c0.894,0,1.621-0.723,1.621-1.618C52.738,97.836,52.011,97.109,51.117,97.109L51.117,97.109z
		 M44.754,97.246c0.226,2.356,0.609,4.535,1.652,7.434c-0.981-1.571-2.379-2.348-3.719-3.235
		C43.629,100.043,44.715,98.645,44.754,97.246L44.754,97.246z M51.117,97.82c0.504,0,0.91,0.407,0.91,0.91
		c0,0.5-0.406,0.907-0.91,0.907c-0.5,0-0.906-0.407-0.906-0.907C50.211,98.227,50.617,97.82,51.117,97.82L51.117,97.82z
		 M65.531,98.098c2.656-0.055,4.531,2.132,4.418,4.226c0.074,2.434,0.164,3.992-0.035,7.016l-2.157-3.949
		c-0.031-1.118,0.161-1.965,0.075-3.079c-0.246-2.992-3.18-2.578-3.321-2.281l-0.925-1.508
		C64.265,98.246,64.918,98.113,65.531,98.098L65.531,98.098z M74.882,98.398c2.493,0,3.934,1.403,4.008,3.895
		c0.145,4.773-0.109,15.676-0.109,15.676l-5.383,0.004l-2.937-7.286c0,0-0.118-0.699-0.094-1.207
		c0.187-2.335,0.07-4.937,0.148-7.046C70.824,100.195,72.664,98.402,74.882,98.398L74.882,98.398z M62.429,99.156
		c0.344-0.004,0.668,0.102,0.911,0.348c1.25,1.262,1.242,2.09-0.024,2.66c-1.672,0.754-2.543,0.609-3.113-0.508
		C59.64,100.559,61.191,99.172,62.429,99.156L62.429,99.156z M140.906,99.5l1.367,0.879c0,0-0.289,0.449-0.445,0.715
		c-0.773,1.336,0.543,2.117,2.367,1.41c0.332-0.129,0.613-0.309,0.613-0.309l1.125,0.766c0,0-0.813,0.441-1.699,0.875
		c-2.277,1.113-3.914,0.641-4.461-1.289c-0.219-0.766,0-1.723,0.426-2.285C140.417,99.977,140.906,99.5,140.906,99.5L140.906,99.5z
		 M83.164,99.66c2.082-0.07,4.109,1.555,4.59,3.742c0.203,1.028-0.059,14.571-0.059,14.571l-8.266-0.004l0.145-14.211
		c-0.055-0.899,0-1.785,0.48-2.422C80.965,100.203,82.07,99.695,83.164,99.66L83.164,99.66z M74.578,100.281
		c-1.668,0.078-2.617,2.781-0.899,4.059c0.719,0.531,0.735,0.633,0.348,2.433c-0.437,2.051,0.016,4.868,1.043,6.45
		c0.785,1.312,0.625,0.64,0.223-0.528c-0.52-2.191-0.266-3.8,1-6.351c1.132-2.145,2.226-5.442-1.368-6.039
		C74.808,100.285,74.691,100.277,74.578,100.281L74.578,100.281z M143.183,100.898l0.746,0.508c0,0-0.109,0.09-0.273,0.25
		c-0.297,0.289-0.895,0.336-1.074,0.114C142.277,101.398,143.183,100.898,143.183,100.898L143.183,100.898z M83.632,101.949
		c-1.792-0.062-2.976,3.266-0.679,4.071c0.519,0.339,0.609,0.777,0.285,1.402c-0.438,0.836-0.871,2.824-0.805,3.652
		c0.098,1.192,0.403,2.746,0.645,3.289c0.601,1.485,0.48,0.891,0.324-0.828c-0.062-1.918,0.324-3.305,1.441-5.14
		c1.329-2.2,3.157-5.778-1.035-6.43C83.75,101.953,83.691,101.949,83.632,101.949L83.632,101.949z M52.757,101.961
		c1.407,0,2.547,1.137,2.547,2.543c0,1.406-1.14,2.547-2.547,2.547c-1.406,0-2.546-1.141-2.546-2.547
		C50.211,103.098,51.351,101.961,52.757,101.961L52.757,101.961z M64.562,102.219c0.438-0.004,0.77,0.289,1.168,0.883
		c1.098,1.64,0.973,1.976-1.144,3.14c-2.246,1.238-3.75-1.871-1.602-3.308c0.648-0.434,1.109-0.676,1.484-0.711
		C64.5,102.219,64.531,102.219,64.562,102.219L64.562,102.219z M41.25,102.34c2.371,0.023,6.07,3.406,4.265,3.894
		c-0.258,0.071-0.582,0.121-0.718,0.11C41.82,106.164,38.41,102.309,41.25,102.34L41.25,102.34z M52.757,102.883
		c-0.894,0-1.621,0.726-1.621,1.621c0,0.894,0.727,1.617,1.621,1.617c0.895,0,1.622-0.723,1.622-1.617
		C54.379,103.609,53.652,102.883,52.757,102.883L52.757,102.883z M146.57,103.359l1.184,0.805c0,0-0.723,0.332-1.574,0.785
		c-2.309,1.235-2.98,2.141-2.184,2.946c0.285,0.289,0.621,0.414,1.23,0.183c1.602-0.621,3.094-1.715,4.586-2.582l0.891,0.609
		c-0.02-0.039-3.531,2.5-5.449,3.567c-3.012,1.543-4.73-1.617-3.055-3.727C143.488,104.66,144.875,104.242,146.57,103.359
		L146.57,103.359z M52.757,103.594c0.5,0,0.907,0.406,0.907,0.91c0,0.5-0.407,0.906-0.907,0.906s-0.906-0.406-0.906-0.906
		C51.851,104,52.257,103.594,52.757,103.594L52.757,103.594z M148.417,104.445l0.645,0.434c0,0-0.07,0.031-2.043,1.164
		c-2.145,1.234-2.238,1.258-2.359,1.062c-0.105-0.058,0.043-0.562,0.703-1.007C146.515,105.324,148.558,104.379,148.417,104.445
		L148.417,104.445z M92.578,104.508c1.465-0.028,2.953,0.664,3.805,2.152c0.434,1.125,0.469,2.176,0.465,3.36l-0.035,7.953h-8.324
		c0,0-0.387-5.422,0-9.934C88.863,105.773,90.699,104.543,92.578,104.508L92.578,104.508z M66.722,105.684
		c0.532-0.039,0.918,0.48,1.422,1.605c0.496,1.113,0.121,1.742-1.441,2.418c-0.196,0.086-0.422,0.148-0.5,0.141
		c-1.578-0.153-2.227-1.973-1.09-3.078C65.816,106.082,66.312,105.715,66.722,105.684L66.722,105.684z M151.335,106.5l0.723,0.449
		c0,0-0.371,0.336-3.059,2.297c-2.172,1.582-2.484,2.012-2.031,2.902c0.367,0.715,1.16,0.622,2.258-0.218
		c1.523-1.172,3.918-3.153,3.918-3.153l0.078,1.356c-1.578,1.265-3.48,3.426-4.992,4.25c-2.922,1.437-5.02-2.516-2.348-4.461
		C148.183,108.242,151.335,106.5,151.335,106.5L151.335,106.5z M92.894,106.504c-2.176-0.02-2.984,3.211-0.645,3.894
		c0.676,0.36,0.617,0.547,0.168,2.157c-0.27,0.972-0.359,2.175-0.211,2.937c0.176,0.973,0.391,0.949,0.301-0.094
		c0.004-0.57,0.594-2.093,1.18-3.05C95.855,109.32,95.289,106.531,92.894,106.504L92.894,106.504z M42.195,106.543
		c1.434,0.008,2.238,2.008,0.992,2.871c-0.883,0.609-2.726-0.137-2.722-1.102c0.003-0.82,0.652-1.605,1.437-1.742
		C42.004,106.551,42.097,106.539,42.195,106.543L42.195,106.543z M46.324,106.711c0.453-0.004,0.715,0.66,0.711,1.969
		c-0.008,1.882-0.672,3.519-1.824,4.476c-1.664,1.387-2.039-2.39-0.481-4.89C45.379,107.227,45.925,106.711,46.324,106.711
		L46.324,106.711z M152.863,107.207c0.41-0.008,0.344,0.309-0.129,0.637c-0.371,0.258-0.996,0.769-2.938,2.406
		c-0.352,0.297-0.855,0.684-1.117,0.859c-0.645,0.434-1.191,0.321-0.879-0.179C148.109,110.437,152.492,107.211,152.863,107.207
		L152.863,107.207z M55.3,107.293c1.407,0,2.547,1.137,2.547,2.543c0,1.406-1.14,2.547-2.547,2.547
		c-1.406,0-2.546-1.141-2.546-2.547C52.754,108.43,53.894,107.293,55.3,107.293L55.3,107.293z M55.3,108.215
		c-0.894,0-1.621,0.726-1.621,1.621c0,0.894,0.727,1.617,1.621,1.617c0.895,0,1.622-0.723,1.622-1.617
		C56.922,108.941,56.195,108.215,55.3,108.215L55.3,108.215z M24.843,108.262c17.227,8.711,27.965,25.004,30.614,43.563
		l8.367-13.273l2.262,0.852L53.89,159.277l-0.527-0.164c-0.051-19.414-9.727-37.781-28.559-47.863L24.843,108.262z M55.3,108.926
		c0.5,0,0.907,0.41,0.907,0.91s-0.407,0.906-0.907,0.906s-0.906-0.406-0.906-0.906S54.8,108.926,55.3,108.926L55.3,108.926z
		 M48.191,109.035c0.754,1.664,1.672,3.41,3.086,5.41c-1.434-1.351-3.004-1.293-4.559-1.496L48.191,109.035z M68.672,109.395
		c0.269-0.016,0.535,0.097,0.742,0.386c0.707,0.969,0.836,1.867,0.347,2.352c-0.671,0.664-1.742,0.402-2.222-0.543
		C67.035,110.605,67.871,109.434,68.672,109.395L68.672,109.395z M153.144,110.738l0.027,1.508c0,0-0.32,0.387-0.664,0.703
		c-0.957,0.899-2.27,2.332-2.363,2.696c-0.305,1.187,0.867,1.625,2.023,0.75c0.402-0.301,0.977-0.758,0.977-0.758v1.855
		c-0.977,0.828-1.949,1.645-3.285,1.375c-0.773-0.234-1.457-0.847-1.598-1.625c-0.559-2.336,1.707-3.64,3.461-5.203
		C152.289,111.535,153.144,110.738,153.144,110.738L153.144,110.738z M58.886,112.055c0.043-0.004,0.086,0,0.129,0
		c1.407,0,2.547,1.136,2.547,2.543c0,1.406-1.14,2.547-2.547,2.547c-1.402,0-2.547-1.141-2.547-2.547
		C56.468,113.234,57.543,112.121,58.886,112.055L58.886,112.055z M110.027,112.625c1.387-0.004,2.121,1.863,1.004,2.922
		c-0.438,0.418-1.43,0.711-1.988,0.32C107.496,114.789,108.632,112.695,110.027,112.625L110.027,112.625z M107.257,114.105
		c0.805,0.856,1.41,3.329,0.938,3.797c-1.047,1.082-4.086-2.515-3.906-4.863C104.613,111.633,106.96,113.793,107.257,114.105
		L107.257,114.105z M70.039,112.758c0.578,0.004,0.687,0.523,0.558,0.832c-0.125,0.293-0.582,0.316-0.945,0.168
		C69.039,113.508,69.328,112.754,70.039,112.758L70.039,112.758z M59.015,112.977c-0.894,0-1.617,0.726-1.617,1.621
		c0,0.894,0.723,1.617,1.617,1.617c0.895,0,1.621-0.723,1.621-1.617C60.636,113.703,59.91,112.977,59.015,112.977L59.015,112.977z
		 M46.894,113.687c3.071,0.004,6.309,2.426,3.492,2.903c-2.093,0.359-3.449-0.055-5.078-1.543c-0.828-0.758-0.531-1.16,0.973-1.328
		C46.484,113.699,46.687,113.687,46.894,113.687L46.894,113.687z M59.015,113.687c0.504,0,0.91,0.407,0.91,0.911
		c0,0.5-0.406,0.906-0.91,0.906c-0.5,0-0.906-0.406-0.906-0.906C58.109,114.094,58.515,113.687,59.015,113.687L59.015,113.687z
		 M63.269,115.992c0.043,0,0.09,0,0.133,0c1.406,0,2.547,1.137,2.547,2.543c0,1.406-1.141,2.547-2.547,2.547
		s-2.547-1.141-2.547-2.547C60.855,117.176,61.925,116.062,63.269,115.992L63.269,115.992z M113.316,116.121
		c0.727-0.012,1.367,0.125,1.734,0.461c0.449,0.414-0.227,1.207-1.609,1.879c-1.613,0.789-4.426,0.68-4.422-0.172
		C109.023,117.16,111.46,116.152,113.316,116.121L113.316,116.121z M52.007,116.793c1.411,0.004,1.793,4.383,0.567,6.48
		c-0.637,1.09-1.492,0.36-2.106-1.789C49.968,119.723,50.929,116.785,52.007,116.793L52.007,116.793z M63.402,116.918
		c-0.895,0-1.621,0.723-1.621,1.617s0.726,1.621,1.621,1.621s1.621-0.726,1.621-1.621S64.297,116.918,63.402,116.918L63.402,116.918
		z M116.171,117.203c0.121,0,0.273,0.063,0.477,0.16c1.539,0.754,2.66,4.289,1.855,5.864c-0.844,1.66-2.746-1.536-2.73-4.586
		c0.008-0.996,0.07-1.399,0.348-1.434C116.136,117.203,116.156,117.203,116.171,117.203L116.171,117.203z M48.004,117.43
		c0.031-0.004,0.066-0.004,0.097,0c1.395,0.035,2.406,1.961,1.098,2.949c-0.574,0.433-1.457,0.5-2,0.156
		c-1.07-0.68-1.012-2.332,0.101-2.91C47.539,117.5,47.777,117.437,48.004,117.43L48.004,117.43z M63.402,117.629
		c0.5,0,0.906,0.406,0.906,0.906c0,0.5-0.406,0.91-0.906,0.91s-0.906-0.41-0.906-0.91C62.496,118.035,62.902,117.629,63.402,117.629
		L63.402,117.629z M53.886,117.934c0.766,1.136,3.856,4.128,4.282,4.39c-1.364-0.441-2.77-0.254-4.176-0.066
		C54.152,121.219,54.32,119.52,53.886,117.934L53.886,117.934z M103.539,118.191c20.941,4.903,33.727,27.125,28.672,47.973
		c0,0-1.766-0.984-2.043-1.457c0.738-3.605,1.195-9.32,0.27-15.066c-1.574-9.746-9.473-24.043-26.777-28.95
		C103.468,120.062,103.539,118.191,103.539,118.191L103.539,118.191z M114.82,118.344c0.238,1.426,0.465,2.863,0.816,4.144
		c-1.473-1.058-3.145-1.968-4.855-2.707C112.003,119.527,113.117,119.309,114.82,118.344L114.82,118.344z M120.859,118.801
		c0.836-0.02,1.684,0.574,1.664,1.601c-0.008,0.453-0.492,1.266-0.863,1.453c-1.395,0.711-2.82-0.64-2.207-2.085
		C119.726,119.121,120.289,118.816,120.859,118.801L120.859,118.801z M68.246,119.355c1.406,0,2.547,1.137,2.547,2.54
		c0,1.406-1.141,2.546-2.547,2.546c-1.406,0-2.547-1.14-2.547-2.546C65.699,120.492,66.84,119.355,68.246,119.355L68.246,119.355z
		 M68.246,120.277c-0.895,0-1.621,0.727-1.621,1.618c0,0.894,0.726,1.621,1.621,1.621c0.894,0,1.621-0.727,1.621-1.621
		C69.867,121.004,69.14,120.277,68.246,120.277L68.246,120.277z M24.91,120.52c10.406,6.14,19.742,19.203,20.433,33.972
		l-2.519-1.648c-1.086-9.946-6.18-20.77-17.996-29.645C24.828,123.199,24.859,122.242,24.91,120.52L24.91,120.52z M82.531,120.52
		h13.453v2.898l4.031-2.078v6.414l-4.031-2.442v2.797H82.531v-2.94l-4.117,1.992l0.047-6.383l4.07,2.289V120.52z M68.246,120.988
		c0.5,0,0.906,0.407,0.906,0.907c0,0.503-0.406,0.91-0.906,0.91s-0.906-0.407-0.906-0.91
		C67.34,121.395,67.746,120.988,68.246,120.988L68.246,120.988z M73.535,121.496c0.015,0,0.035,0,0.051,0l0.16,0.926
		c-0.028-0.004-0.051-0.004-0.078-0.004c-0.895,0-1.621,0.723-1.621,1.617s0.726,1.621,1.621,1.621c0.214,0,0.422-0.039,0.609-0.117
		l0.156,0.926c-0.242,0.078-0.496,0.117-0.765,0.117c-1.407,0-2.547-1.142-2.547-2.547
		C71.121,122.676,72.191,121.566,73.535,121.496L73.535,121.496z M103.917,121.816c0.043,0,0.086,0,0.133,0
		c1.406,0,2.547,1.141,2.547,2.543c0,1.207-0.844,2.215-1.973,2.477l-0.152-0.914c0.688-0.188,1.195-0.813,1.195-1.563
		c0-0.894-0.723-1.617-1.617-1.617c-0.039,0-0.074,0-0.109,0.004l-0.156-0.918C103.828,121.824,103.871,121.82,103.917,121.816
		L103.917,121.816z M121.777,122.68c3.141,0.015,4.441,1.82,1.867,2.586c-1.191,0.355-2.75,0.164-4.293-0.516
		C118.066,124.18,119.835,122.668,121.777,122.68L121.777,122.68z M56.125,122.852c0.761-0.004,1.496,0.113,2.039,0.371
		c1.313,0.621,1.281,1.043-0.121,1.855c-1.957,1.129-6.571-0.017-5.176-1.285C53.523,123.199,54.859,122.855,56.125,122.852
		L56.125,122.852z M73.668,123.129c0.07,0,0.136,0.008,0.203,0.023l0.281,1.653c-0.141,0.087-0.305,0.14-0.484,0.14
		c-0.5,0-0.907-0.405-0.907-0.909C72.761,123.535,73.168,123.129,73.668,123.129L73.668,123.129z M104.058,123.453
		c0.496,0.004,0.898,0.41,0.898,0.906c0,0.399-0.254,0.731-0.605,0.856L104.058,123.453z M109.597,124.102
		c1.406,0,2.547,1.14,2.547,2.542c0,1.406-1.141,2.546-2.547,2.546s-2.547-1.14-2.547-2.546
		C107.05,125.242,108.191,124.102,109.597,124.102L109.597,124.102z M60.019,124.746c0.149-0.013,0.321,0.059,0.504,0.211
		c1.527,1.246,2.285,3.887,1.688,5.852c-0.575,1.875-2.954-1.454-2.942-4.109C59.277,125.477,59.566,124.771,60.019,124.746
		L60.019,124.746z M125.957,124.969c0.211,0,0.434,0.16,0.652,0.527c0.949,1.578,0.906,4.836-0.078,5.852
		c-0.555,0.578-0.762,0.468-1.344-0.707C124.195,128.633,124.945,124.961,125.957,124.969L125.957,124.969z M109.597,125.026
		c-0.895,0-1.621,0.724-1.621,1.618s0.727,1.621,1.621,1.621s1.621-0.727,1.621-1.621S110.492,125.026,109.597,125.026
		L109.597,125.026z M62.043,125.461c1.922,1.215,3.89,2.32,5.937,3.242c-1.918-0.453-3.332,0.191-4.793,1.059
		C63.468,128.156,62.922,126.854,62.043,125.461L62.043,125.461z M119.824,125.805c1.434,0.199,2.852,0.438,4.516,0.125
		c-0.309,1.406-0.418,2.843-0.281,4.313C122.824,128.641,121.441,127.137,119.824,125.805L119.824,125.805z M109.597,125.738
		c0.5,0,0.906,0.406,0.906,0.906c0,0.503-0.406,0.91-0.906,0.91s-0.906-0.407-0.906-0.91
		C108.691,126.145,109.097,125.738,109.597,125.738L109.597,125.738z M57.09,126.363c0.281,0.008,0.582,0.086,0.894,0.238
		c1.18,0.578,1.211,2.007,0.066,2.753c-1.441,0.942-3.32-0.707-2.421-2.121c0.343-0.547,0.808-0.836,1.339-0.866
		C57.007,126.367,57.047,126.363,57.09,126.363L57.09,126.363z M114.707,127.43c1.406,0,2.547,1.136,2.547,2.543
		c0,1.402-1.141,2.547-2.547,2.547s-2.547-1.145-2.547-2.547C112.16,128.565,113.3,127.43,114.707,127.43L114.707,127.43z
		 M129.605,127.854c0.242-0.003,0.5,0.052,0.754,0.185c0.906,0.473,1.094,1.676,0.375,2.379c-0.797,0.777-1.887,0.644-2.422-0.297
		C127.699,129.047,128.539,127.875,129.605,127.854L129.605,127.854z M105.039,128.229c12.535,4.267,20.93,18.211,18.906,31.638
		l-1.563-1.477c1.191-7.609-2.988-22.148-16.949-28.114L105.039,128.229z M114.707,128.352c-0.895,0-1.621,0.727-1.621,1.621
		s0.727,1.617,1.621,1.617s1.621-0.723,1.621-1.617S115.601,128.352,114.707,128.352L114.707,128.352z M114.707,129.062
		c0.5,0,0.906,0.407,0.906,0.911c0,0.5-0.406,0.906-0.906,0.906s-0.906-0.406-0.906-0.906
		C113.8,129.469,114.207,129.062,114.707,129.062L114.707,129.062z M67.043,129.223c0.64,0.059,1.718-0.059,1.972,0.547
		c0.285,0.762-1.277,2.078-3.261,2.335c-0.809,0.052-2.539,0.254-2.903-0.328C62.507,131.051,64.843,129.246,67.043,129.223
		L67.043,129.223z M27.25,129.672c1.695-0.078,3.605,2.191,1.89,4.039c-1.375,1.422-4.183,3.354-4.183,3.354v-1.241
		c0,0,2.754-2.016,2.797-2.918c0.007-1.055-0.86-1.645-1.825-1.016c-0.191,0.125-0.949,0.742-0.949,0.742l0.063-2.086
		C25.554,129.983,26.461,129.703,27.25,129.672L27.25,129.672z M70.539,130.203c1.254,0.047,4.168,4.539,3.426,5.457
		c-0.586,0.727-2.954-0.888-3.84-2.621c-0.477-0.935-0.336-2.594,0.242-2.81C70.418,130.211,70.476,130.199,70.539,130.203
		L70.539,130.203z M89.91,130.746c0,0,0.129,10.449-0.457,11.434c-2.356,4.261-7.438,2.047-7.871-1.148
		c-0.313-1.927-0.125-10.266-0.125-10.266L89.91,130.746z M90.656,130.746h8.121c0,0-0.039,14.707-0.363,15.551
		c-0.27,0.687-1.449,1.871-2.188,2.195c-2.387,1.043-4.938-0.438-5.566-3.227C90.203,143.25,90.656,130.746,90.656,130.746
		L90.656,130.746z M99.457,130.746h5.391c0,0,0.184,0.781,0.398,1.418c0.375,1.121,1.645,4.324,1.793,4.52
		c0.656,0.878,0.691,10.492,0.039,11.589c-2.379,3.563-6.336,2.528-7.781-1.421C98.933,145.586,99.457,130.746,99.457,130.746
		L99.457,130.746z M105.742,131.108c9.672,4.595,17.07,14.332,16.145,26.825l-1.777-1.77c0.648-8.625-5.918-19.406-13.578-22.609
		L105.742,131.108z M119.058,131.401c1.402,0,2.547,1.138,2.547,2.544s-1.145,2.547-2.547,2.547c-1.406,0-2.547-1.141-2.547-2.547
		S117.652,131.401,119.058,131.401L119.058,131.401z M128.593,131.66c0.945,0.016,2.102,0.34,2.965,1.055
		c1.035,0.851,1.18,1.523,0.379,1.769c-1.551,0.481-3.406,0.017-4.574-1.132C126.277,132.281,127.21,131.641,128.593,131.66
		L128.593,131.66z M119.058,132.328c-0.895,0-1.621,0.723-1.621,1.617s0.727,1.62,1.621,1.62s1.617-0.726,1.617-1.62
		S119.953,132.328,119.058,132.328L119.058,132.328z M68.113,132.531c1.355,0.004,1.977,1.914,0.937,2.883
		c-0.425,0.395-1.589,0.48-2.097,0.151C65.562,134.66,66.379,132.52,68.113,132.531L68.113,132.531z M86.043,133.016
		c-0.45,1.289-1.172,2.746-1.77,3.742c-1.601,2.672-1.391,4.461,0.297,5.363c2.484,1.328,4.285-2.234,1.84-3.633
		c-0.86-0.492-0.86-0.496-0.547-1.82C86.25,135.02,86.316,133.051,86.043,133.016L86.043,133.016z M119.058,133.039
		c0.5,0,0.906,0.406,0.906,0.906s-0.406,0.909-0.906,0.909c-0.504,0-0.91-0.409-0.91-0.909S118.554,133.039,119.058,133.039
		L119.058,133.039z M94.746,133.562c-0.113-0.007-0.027,0.657-0.035,1.836c-0.012,1.903-0.172,2.481-1.387,5.032
		c-1.555,3.254-1.348,5.48,0.578,6.203c1.496,0.558,2.949-0.582,2.957-2.328c0.004-0.832-0.367-1.48-0.934-1.648
		c-0.516-0.035-1.086-0.273-1.047-0.523C95.195,140.187,96.878,136.527,94.746,133.562L94.746,133.562z M126.867,133.824
		c1.254,0.793,2.547,1.543,4.418,1.637c-0.797,1.91-0.715,3.309-0.848,4.832C129.636,138.238,128.402,135.969,126.867,133.824
		L126.867,133.824z M30.972,134.121c0.098,0,0.2,0.008,0.301,0.02c1.199,0.188,2.215,1.727,1.891,2.871
		c-0.282,1-0.367,1.172-4.235,3.754c-2.148,1.434-2.371,1.492-2.371,1.492l-1.152-0.774c0,0,0.976-0.647,2.516-1.687
		c2.968-1.992,3.406-2.469,3.101-3.36c-0.332-0.968-1.445-0.765-3.199,0.586c-2.598,2-2.867,2.134-2.867,2.134v-1.191
		c0,0,1.14-0.906,1.633-1.332C27.793,135.777,29.457,134.137,30.972,134.121L30.972,134.121z M107.808,134.641
		c0.293,0,0.516,0.27,0.414,0.531c-0.047,0.121-0.219,0.203-0.445,0.203c-0.465-0.004-0.488-0.664-0.027-0.73
		C107.769,134.645,107.789,134.641,107.808,134.641L107.808,134.641z M133.882,136.031c0.551,1.883-0.629,5.02-1.355,5.422
		c-0.77,0.762-1.25,0.035-1.418-1.938C131.113,137.918,132.945,132.922,133.882,136.031L133.882,136.031z M102.964,134.977
		c0.238,2.71,0.324,4.96-0.949,7.164c-1.648,2.855-1.223,5.305,0.543,5.848c1.758,0.534,3.313-0.723,3-2.43
		c-0.094-0.523-0.813-1.379-1.25-1.493c-0.543-0.136-0.605-0.472-0.297-1.55c0.594-2.082,0.395-4.719-0.504-6.625
		C103.421,135.604,103.093,134.965,102.964,134.977L102.964,134.977z M108.882,135.879c1.48,0.008,2.18,1.937,1.07,2.953
		c-0.617,0.565-1.012,0.309-1.66-1.078C107.695,136.465,107.878,135.875,108.882,135.879L108.882,135.879z M122.691,136.272
		c1.406,0,2.547,1.138,2.547,2.543c0,1.407-1.141,2.548-2.547,2.548s-2.547-1.141-2.547-2.548
		C120.144,137.41,121.285,136.272,122.691,136.272L122.691,136.272z M122.691,137.195c-0.895,0-1.621,0.727-1.621,1.62
		c0,0.896,0.727,1.621,1.621,1.621s1.621-0.726,1.621-1.621C124.312,137.922,123.585,137.195,122.691,137.195L122.691,137.195z
		 M122.691,137.91c0.5,0,0.906,0.405,0.906,0.905s-0.406,0.907-0.906,0.907s-0.906-0.407-0.906-0.907S122.191,137.91,122.691,137.91
		L122.691,137.91z M111.765,138.578c0.207-0.008,0.41,0.026,0.598,0.117c1.34,0.648,1.195,2.508-0.285,3.613
		c-0.938,0.703-1.332,0.461-2.207-1.352C109.398,139.973,110.64,138.625,111.765,138.578L111.765,138.578z M34.007,138.789
		c0.137,0.004,0.262,0.022,0.387,0.059c1.383,0.379,2.258,1.992,1.914,3.218c-0.765,1.892-3.347,2.528-5.304,3.321l-1.02-0.746
		c0,0,1.438-0.816,2.832-1.457c1.309-0.602,1.52-0.844,1.422-1.602c-0.191-1.48-0.906-1.43-4.156,0.319
		c-1.321,0.712-2.293,1.345-2.293,1.345l-0.719-0.59c1.074-0.711,1.719-1.102,2.895-1.902c1.96-1.344,3.082-1.922,3.902-1.961
		C33.914,138.789,33.961,138.789,34.007,138.789L34.007,138.789z M137.308,139.887c0.473,1.438-0.492,2.699-1.945,2.133
		c-0.789-0.305-1.348-1.316-0.855-2.25C135.16,138.746,136.992,138.922,137.308,139.887L137.308,139.887z M108.156,139.387
		l2.289,4.113c0,0,0.031,1.145,0.051,1.781c0.09,2.668,0.66,3.551,2.223,3.293c0.113-0.02,0.668-0.18,0.668-0.18l0.996,1.671
		c0,0-1.074,0.474-1.355,0.532c-1.84,0.382-4.387-0.996-4.785-2.848C107.859,145.965,108.156,139.387,108.156,139.387
		L108.156,139.387z M33.183,141.078c0.692,0.051,0.399,0.578,0.078,0.75c-1.343,0.684-2.613,1.43-4.015,2.237l-0.942-0.582
		c0,0,0.727-0.405,1.227-0.711C31.07,141.828,32.636,141.102,33.183,141.078L33.183,141.078z M125.16,141.604
		c1.406,0,2.547,1.138,2.547,2.543c0,1.407-1.141,2.548-2.547,2.548s-2.547-1.141-2.547-2.548
		C122.613,142.742,123.753,141.604,125.16,141.604L125.16,141.604z M114.386,141.953c0.586-0.017,1.074,0.233,1.391,0.766
		c0.68,1.129-0.039,2.508-1.688,3.242c-0.922,0.41-1.078,0.324-2.059-1.133c-0.664-0.984-0.66-1.16,0.074-1.785
		C112.929,142.34,113.722,141.973,114.386,141.953L114.386,141.953z M25.004,142.176l36.472,23.617l-1.039,1.769l-35.363-23.147
		L25.004,142.176z M133.378,142.479c2.215,0.043,5.109,2.61,4.086,3.625c-0.109,0.106-0.32,0.188-0.473,0.181
		C133.832,146.098,130.335,142.426,133.378,142.479L133.378,142.479z M125.16,142.527c-0.895,0-1.621,0.727-1.621,1.62
		c0,0.896,0.727,1.622,1.621,1.622s1.621-0.727,1.621-1.622C126.781,143.254,126.054,142.527,125.16,142.527L125.16,142.527z
		 M76.449,142.979l0.965,2.513l-18.153,28.898l-1.781-1.148L76.449,142.979z M125.16,143.242c0.5,0,0.906,0.405,0.906,0.905
		s-0.406,0.907-0.906,0.907s-0.906-0.407-0.906-0.907S124.66,143.242,125.16,143.242L125.16,143.242z M131.824,143.543
		c0.891,1.652,2.371,2.664,4.055,3.375c-1.59,1.312-2.391,3.016-2.328,4.793C133.148,149.039,132.8,146.383,131.824,143.543
		L131.824,143.543z M35.863,144.414c0.391,0.004,0.742,0.086,1.019,0.272c3.403,2.333,0.278,4.638-0.011,4.458l-1.16-0.73
		c0.398-0.66,1.304-1.556-0.153-2.392c-0.824-0.358-1.742,0.071-2.547,0.63l-1.214-0.832
		C31.797,145.82,34.179,144.402,35.863,144.414L35.863,144.414z M116.085,145.733c0.129-0.004,0.254,0.005,0.379,0.028
		c1.918,0.371,1.785,2.406-0.223,3.352c-1.141,0.539-1.34,0.43-2.336-1.281C113.437,147.027,114.847,145.772,116.085,145.733
		L116.085,145.733z M35.25,146.479c0.203,0.004,0.465,0.185,0.496,0.353c0.101,0.535-0.891,1.074-0.891,1.074l-1.137-0.759
		C34.203,146.883,34.711,146.52,35.25,146.479L35.25,146.479z M137.55,146.969c0.277-0.02,0.48,0.109,0.563,0.441
		c0.391,1.586-1.371,4.52-2.992,4.996c-0.949,0.28-1.223-0.168-0.914-1.477C134.644,149.086,136.554,147.047,137.55,146.969
		L137.55,146.969z M78.718,147.09l2.954,2.144l-17.723,28.013l-3.067-1.824L78.718,147.09z M126.945,147.315
		c1.402,0,2.547,1.138,2.547,2.543c0,1.407-1.145,2.548-2.547,2.548c-1.406,0-2.547-1.141-2.547-2.548
		C124.398,148.453,125.539,147.315,126.945,147.315L126.945,147.315z M126.945,148.242c-0.895,0-1.621,0.723-1.621,1.616
		c0,0.896,0.727,1.621,1.621,1.621s1.617-0.726,1.617-1.621C128.562,148.965,127.839,148.242,126.945,148.242L126.945,148.242z
		 M126.945,148.953c0.5,0,0.906,0.405,0.906,0.905c0,0.505-0.406,0.911-0.906,0.911c-0.504,0-0.91-0.406-0.91-0.911
		C126.035,149.358,126.441,148.953,126.945,148.953L126.945,148.953z M86.222,149.047c1.922,2.168,4.083,7.015,11.625,4.73
		c2.57,2.094,6.121,3.284,10.492,0.961l0.031,13.066l-33.492,0.035L86.222,149.047z M25.05,149.379l32.985,21.711l-1.031,1.82
		l-31.985-20.441L25.05,149.379z M117.648,149.397c0.031,0,0.059,0.004,0.082,0.009c1.688,0.414,1.875,2.098,0.309,2.741
		c-0.84,0.349-1.012,0.263-1.813-0.918c-0.316-0.472-0.496-0.858-0.453-0.979C115.886,149.965,117.175,149.395,117.648,149.397
		L117.648,149.397z M138.812,151.184c0.59,0.003,1.176,0.316,1.453,0.93c0.41,0.922,0.172,1.698-0.68,2.211
		c-1.406,0.848-2.984-0.711-2.25-2.23C137.628,151.483,138.222,151.18,138.812,151.184L138.812,151.184z M118.16,152.957
		c0.777,0.004,1.43,0.746,1.055,1.195c-0.254,0.301-0.574,0.215-0.988-0.262C117.742,153.332,117.714,152.953,118.16,152.957
		L118.16,152.957z M127.617,153.281c1.406,0,2.547,1.137,2.547,2.543c0,1.402-1.141,2.547-2.547,2.547s-2.547-1.145-2.547-2.547
		C125.07,154.418,126.21,153.281,127.617,153.281L127.617,153.281z M134.792,153.422c1.918,0.008,4.578,3.215,4.125,4.976
		c-0.145,0.575-1.223,0.263-2.504-0.722C134.687,156.348,133.566,153.414,134.792,153.422L134.792,153.422z M127.617,154.203
		c-0.895,0-1.621,0.727-1.621,1.621s0.727,1.616,1.621,1.616s1.617-0.722,1.617-1.616S128.511,154.203,127.617,154.203
		L127.617,154.203z M133.785,154.531c0.531,1.555,1.074,3.168,3.469,4.293c-3.715,1.73-4.426,4.645-3.867,8.379l-0.867-0.531
		C133.312,163.324,133.917,159.512,133.785,154.531L133.785,154.531z M127.617,154.914c0.5,0,0.906,0.406,0.906,0.91
		c0,0.5-0.406,0.905-0.906,0.905s-0.906-0.405-0.906-0.905C126.71,155.32,127.117,154.914,127.617,154.914L127.617,154.914z
		 M127.144,159.004c1.406,0,2.547,1.137,2.547,2.543c0,0.887-0.457,1.672-1.148,2.129l-0.82-0.617
		c0.609-0.23,1.039-0.825,1.039-1.512c0-0.896-0.723-1.621-1.617-1.621c-0.852,0-1.547,0.66-1.613,1.496l-0.824-0.617
		C125.023,159.762,125.996,159.004,127.144,159.004L127.144,159.004z M138.73,159.328c1.211,0.008-0.672,3.367-2.402,4.285
		c-1.316,0.695-2.523,0.75-2.52,0.113C133.82,162.055,136.878,159.315,138.73,159.328L138.73,159.328z M127.144,160.637
		c0.5,0,0.906,0.41,0.906,0.91s-0.406,0.906-0.906,0.906c-0.5-0.056-0.902-0.445-0.91-0.906
		C126.234,161.047,126.64,160.637,127.144,160.637L127.144,160.637z M138.339,163.703c0.598,0.008,1.188,0.266,1.441,0.77
		c0.324,0.652,0.199,1.234-0.398,1.824c-1.465,1.449-3.457-0.039-2.5-1.867C137.144,163.934,137.742,163.69,138.339,163.703
		L138.339,163.703z M133.656,165.065c2.039,0.063,3.586,2.603,3.215,4.039c-0.32,0.379-2.57-1.323-2.813-1.5
		C133.773,167.098,133.753,166.272,133.656,165.065L133.656,165.065z M130.875,166.641l6.395,3.839l-6.379,4.099L130.875,166.641z
		 M73.953,168.543l34.336,0.125l0.004,1.44l-35.278,0.021L73.953,168.543z M72.554,170.797h2.305v2.812h-3.168v-1.55L72.554,170.797
		z M105.546,170.863h2.777v2.816h-2.777V170.863z M78.293,170.883h3.16v2.816h-3.16V170.883z M84.867,170.906h3.418v2.816h-3.418
		V170.906z M91.855,170.906h3.285v2.816h-3.285V170.906z M98.875,170.953h3.129v2.816h-3.129V170.953z M70.285,174.422l38.082,0.09
		v1.684l-39.172-0.091L70.285,174.422z M102.777,177.973c3.879-0.043,6.137,4.285,3.105,7.324c-2.785,2.793-7.43-0.774-5.113-3.918
		c1.297-1.754,4.48-0.34,3.688,1.531c-0.523,1.23-2.238,0.655-2.188-0.677c0.004-0.534-0.391-0.172-0.438,0.399
		c-0.059,0.722,0.684,1.52,1.547,1.523c2.25,0.004,2.586-2.98,0.418-4.074c-1.938-0.978-3.98,0.27-4.449,2.746
		c-0.051,0.27-0.371,0.944-0.613,1.426c-0.719,1.437-0.949,2.269-1.309,3.91c-0.164,0.207-0.668,0.535-1.016,0.707
		c-1.105,0.555-1.059,0.319-0.645-1.477c1.191-5.18,3.137-8.516,5.52-9.195C101.8,178.051,102.3,177.979,102.777,177.973
		L102.777,177.973z M114.246,178.242c2.395-0.052,4.195,1.922,4.512,3.444c1.375,4.638-4.781,7.478-6.926,3.274
		c-1.199-2.399,1.285-5.266,3.559-4.149c1.863,0.915,1.742,3.754-0.16,3.747c-1.031,0.046-1.66-0.879-1.09-1.625
		c0.293-0.293,0.648-0.063,0.797-0.555c0.063-0.207-0.23-0.371-0.934-0.227c-1.168,0.234-1.051,2.59,0.305,3.059
		c2.016,0.699,3.742-1.43,2.781-3.531c-1.156-2.532-4.281-2.543-5.707,0.105c-0.211,0.383-0.535,0.934-0.715,1.176
		c-2.129,2.894-2.297,3.324-2.934,4.937c-0.063,0.161-0.176,0.282-0.367,0.259c-0.586,0-1.164,0.129-1.559,0.28
		c-0.266-0.069,0.09-1.085,0.113-1.16C107.375,182.793,111.105,178.352,114.246,178.242L114.246,178.242z M95.695,179.504
		c-0.508,0.879-2.027,3.742-3.082,7.969c-0.277-0.172-1.023-0.484-1.563-0.672c-0.207-0.074-0.039-0.309-0.051-0.668
		c0.383-1.906,1.613-5.238,2.973-6.934C94.261,178.983,96.113,178.918,95.695,179.504L95.695,179.504z M97.863,180.348
		c-1.301,1.66-2.656,6.074-2.941,8.348c-0.043,0.344-0.105,0.727-0.141,0.848c-0.203,0.68-1.477-0.781-1.469-1.688
		c0.008-1.534,1.711-6.218,2.93-8.007c0.422-0.625,0.473-0.727,1.379-0.758C99.078,179.051,98.437,179.617,97.863,180.348
		L97.863,180.348z M34.273,179.254c-0.32,0.008-0.641,0.047-0.957,0.125c-1.883,0.465-4.125,2.461-4.344,4.578
		c-0.105,0.065-0.359,1.547-0.195,2.297c0.621,2.844,2.281,4.772,4.309,7.59c0,0-2.547,3.953-4.297,5.781l4.136,5.988
		c-1.144,2.262-3.132,3.969-3.632,6.758c-0.782,3.676,1.14,7.254,5.234,7.582c3.055,0.094,5.055-1.97,5.434-5.099
		c0.156-2.073-0.7-4.683-3.774-8.8c-0.152-0.203-0.453-0.625-0.453-0.625s0.348-0.407,0.531-0.676
		c1.078-1.465,3.899-5.039,3.899-5.039l-4.215-5.961c0,0,0.183-0.399,0.512-0.844c3.437-4.691,4.078-7.074,3.468-9.406
		c-0.238-0.918-0.812-1.625-1.586-2.41C37.093,179.824,35.664,179.219,34.273,179.254L34.273,179.254z M34.175,179.828
		c1.344-0.02,2.731,0.52,3.852,1.694c2.586,2.704,2.355,4.989-1,9.989c-0.738,1.097-1.461,2.304-1.461,2.304l4.238,5.856
		c0,0-0.687,1.027-1.402,1.863c-1.934,2.276-3.02,3.914-3.02,3.914c0.735,1.125,1.926,2.332,2.676,3.684
		c0.907,1.535,1.446,3.063,1.606,4.465c0.336,2.945-1.578,6.082-4.852,6.156c-3.18,0.022-5.597-2.625-5.527-5.949
		c0.031-1.48,0.644-2.852,1.387-4.188c0.761-1.355,2.546-3.996,2.546-3.996l-4.097-5.977l4.34-5.801c0,0-3.157-3.867-4.125-6.653
		c-0.789-3.168,0.687-4.972,0.882-5.245C31.183,180.59,32.652,179.852,34.175,179.828L34.175,179.828z M125.585,180.156
		c2.438,2.777,3.758,6.754,4.324,10.172c0.227,1.401,0.27,3.797,0.07,4.059c-0.383,0.496-1.254,0.227-1.199-0.375
		c0.441-4.816-4.746-8.27-9.234-6.18c-3.465,1.608-5.313,5.354-4.449,10.012c1.633,8.781,9,15.215,13.98,24.023
		c1.766,2.984,2.184,4.664,2.172,4.605c0,0,0.652-1.743,2.137-4.223c3.555-6.523,8.375-10.73,11.965-17.254
		c1.684-3.066,2.754-6.095,2.934-8.832c0.035-6.367-6.184-11.168-11.039-7.824c-1.926,1.183-3.547,3.465-3.805,5.344
		c-0.109,0.805-0.25,1.043-0.609,1.043c-0.828-0.008-0.84-0.32-0.172-4.098c1.012-3.754,2.223-7.313,4.426-10.473H125.585z
		 M31.488,188.227c0.629,1.641,1.656,2.863,2.816,4.031c1.078-1.258,2.278-2.914,2.938-4.492
		C40.414,180.164,28.156,179.543,31.488,188.227L31.488,188.227z M34.257,191.512c-1.554-1.813-2.652-3.316-2.757-5.7
		c-0.172-4.726,6.007-4.198,5.699,0.028C36.855,188.141,35.648,189.598,34.257,191.512L34.257,191.512z M110.832,184.082
		c0.121,0.664,0.77,1.789,0.715,2.055c-0.301,0.699-0.742,1.047-1.352,2.195c-0.129,0.246-0.066,0.297-0.41,0.233
		c-0.32-0.043-0.887-0.222-1.188-0.308c-0.176-0.051-0.371-0.145-0.293-0.363C108.89,186.547,109.55,184.94,110.832,184.082
		L110.832,184.082z M100.589,186.113L99.863,188c-0.066,0.203-0.074,0.233-0.289,0.19c-0.414-0.05-0.777-0.086-1.188-0.054
		c-0.902-0.11,0.793-3.48,1.051-3.989C99.804,184.211,100.351,185.647,100.589,186.113L100.589,186.113z M101.277,186.547
		c0.016,0,0.031,0,0.047,0c0.367,0.051,0.918,0.25,1.328,0.43c0.227,0.089,0.234,0.098,0.133,0.378
		c-0.207,0.415-0.465,1.61-0.738,2.028c-0.008,0.063-1.285-0.758-1.648-0.914C100.386,188.242,100.804,186.613,101.277,186.547
		L101.277,186.547z M112.101,186.772c0.422,0.013,0.941,0.399,1.227,0.618c0.137,0.266,0.012,0.531-0.457,1.339
		c-0.414,0.72-0.848,1.493-0.953,1.411c-0.316-0.246-0.902-0.57-1.191-0.969c-0.215-0.297,0.195-1.055,0.477-1.469
		C111.64,187.047,111.851,186.812,112.101,186.772L112.101,186.772z M105.214,186.676c0.391,0.09-0.227,2.097-0.344,2.347
		c-0.367,0.556-0.941,1.282-1.398,1.575c-0.234,0.148-0.953-0.277-0.938-0.782c0.012-0.358,0.695-2.159,0.922-2.636
		C103.492,187.108,104.777,186.684,105.214,186.676L105.214,186.676z M89.289,187.445c0.086-0.005,0.176,0,0.262,0.004
		c1.535-0.047,3.109,0.711,4.105,2.402c0.469,0.796,0.477,0.832,0.367,1.578c-0.254,1.757-0.164,2.938,0.297,4.011
		c0.527,1.224,0.449,1.646-0.84,4.371c-1.297,2.743-2.863,6.083-4.059,9.181c-0.527,1.328-1.016,2.832-1.316,4.063
		c-0.203,0.773-1.144,0.539-2.086,0.504c-0.48,0.105,0.692-3.118,2.422-6.965c1.387-3.078,3.27-6.551,4.023-9.996
		c0.613-2.813,0.414-3.965,0.078-5.148c-1.297-3.434-5.813-2.591-5.801,0.573c0.098,2.048,2.469,3.146,3.336,1.138
		c0.145-0.922-0.309-0.388-0.691,0.063c-0.816,0.961-2.218-0.105-2-1.527c0.289-1.859,2.696-2.473,3.86-1
		c1.273,1.613,0.992,3.277-0.848,4.527c-1.891,1.391-3.617,0.602-4.562-0.844C83.816,191.133,86.578,187.527,89.289,187.445
		L89.289,187.445z M98.66,188.805c1.879,0.039,3.922,1.617,4.25,2.863c0.18,0.848-0.094,1.844,0.207,2.66
		c0.254,0.655,0.496,1.035,0.316,1.617c-1.551,4.98-5.203,10.293-7.008,16.188c-0.211,0.41-0.398,0.465-0.867,0.597
		c-0.719,0.204-1,0.185-1.078-0.19c-0.074-0.359,0.168-1.043,0.59-2.316c0.508-1.532,1.621-4.148,2.277-5.379
		c1.527-2.871,2.379-4.832,3.488-7.282c0.207-0.457,0.262-0.729,0.59-1.39c1.395-2.832-0.184-5.625-3.074-5.641
		c-2.293-0.012-3.32,3.577-1.313,4.629c1.965,1.026,3.43-1.672,1.684-2.625c-0.422-0.23-0.531-0.013-0.191,0.395
		c0.777,0.934,0.078,2.191-1.004,1.691c-1.672-0.773-0.813-3.629,1.145-3.465c3.016,0.254,3.406,4.645,0.332,5.754
		c-4.23,1.53-6.449-5.281-2.469-7.57C97.195,188.957,97.929,188.793,98.66,188.805L98.66,188.805z M107.57,188.94
		c1.113-0.026,2.281,0.371,3.242,1.293c2.367,2.274,1.738,5.778-2.258,12.56c-1.313,2.269-2.586,5-3.285,6.992
		c-0.172,0.5-0.316,0.75-0.711,0.969c-0.691,0.383-1.48,0.43-1.582,0.16c-0.258-0.688,1.723-4.974,5.246-11.703
		c0.93-1.793,2.098-3.875,2.039-6.008c-0.23-1.695-1.641-2.914-3.527-2.359c-1.27,0.375-1.789,2.164-0.855,3.066
		c0.391,0.379,0.875,0.573,1.184,0.547c0.586,0.016,1.25-0.563,0.117-0.625c-1.199-0.004-1.605-1.512-0.594-2.191
		c1.453-0.977,3.121,0.175,3.004,2.074c-0.242,3.82-5.82,3.25-5.965-0.684C103.531,190.598,105.445,188.996,107.57,188.94
		L107.57,188.94z M162.843,190.594c1.383,0.98,2.379,2.765,2.609,4.472c0.074,0.528,0.145,1.063-0.086,1.185
		c-0.277,0.147-0.473-0.07-1.051-0.828c-1.34-1.771-3.996-1.016-4.887,1.41c-0.848,2.313,0.031,4.91,3.594,10.074
		c1.277,1.909,2.406,3.495,3.465,5.366c0.75-1.862,2.023-3.866,3.109-5.522c4.07-6.16,4.816-9.363,2.602-11.426
		c-1.422-1.298-3.676-1.336-4.438,0.32c-0.516,0.68-0.824,1.012-1.043,0.598c-0.094-0.181-0.086-0.723-0.023-1.125
		c0.387-1.957,1.023-3.238,2.434-4.523H162.843z M91.816,195.059c0.844-0.066-0.605,4.473-3.141,9.566
		c-1.382,2.824-2.429,5.854-3.507,8.805c-0.289,0.395-2.036,0.465-2.032,0.059c3.098-9.927,5.286-11.637,6.344-15.418
		c0.184-0.652,0.32-1.598,0.344-1.68C90.609,196.168,91.269,195.229,91.816,195.059L91.816,195.059z M34.465,195.727l-3.282,4.281
		l3.203,4.543l3.329-4.344L34.465,195.727z M105.539,197.051c0,0.511-0.984,2.98-1.719,4.461c-3.215,6.488-4.016,8.238-4.57,9.968
		c-0.102,0.313-0.262,0.521-0.465,0.595c-0.402,0.152-1.516,0.362-1.609,0.211c0.68-3.789,5.883-12.418,6.895-16.199
		C104.472,196.07,105.507,196.684,105.539,197.051L105.539,197.051z M108.113,196.651c0.219-0.015,0.305,0.075,0.242,0.368
		c-0.098,0.469-0.66,1.574-1.637,3.496c-2.711,5.324-4.129,8.477-4.582,10.098c-0.105,0.379-0.172,0.676-0.352,0.773
		c-0.375,0.199-1.676,0.722-1.738,0.156c0.406-2.406,1.992-3.973,6.094-14.004c0.191-0.332,0.359-0.492,0.539-0.52
		C107.183,196.934,107.621,196.695,108.113,196.651L108.113,196.651z M97.003,198.301c-0.102,0.621-0.813,1.918-1.988,4.316
		c-1.953,3.987-3.215,6.957-3.98,9.594c-0.125,0.43-0.297,0.879-0.461,0.996c-0.32,0.219-1.742,0.151-1.742,0.151
		c-0.215-1.089,1.5-5.155,3.414-9.433c1.043-2.324,2.246-4.641,3.059-6.73C95.859,197.281,96.925,197.812,97.003,198.301
		L97.003,198.301z M99.902,197.272c0.578-0.003,0.129,0.97-1.258,3.711c-1.125,2.228-2.922,5.349-4.082,8.935
		c-0.301,0.789-0.656,1.769-0.789,2.18c-0.172,0.535-0.328,0.797-0.547,0.906c-0.418,0.207-1.434,0.195-1.609-0.021
		c-0.281-0.343,1.215-4.382,2.676-7.479c1.289-2.606,2.195-4.695,3.309-7.106c0.305-0.476,0.32-0.511,0.629-0.573
		C98.875,197.772,99.539,197.344,99.902,197.272L99.902,197.272z M34.519,197.793l1.692,2.262l-1.985,2.468l-1.652-2.401
		L34.519,197.793z M34.265,207.547c0,0-0.718,0.824-1.457,2.133c-2.16,3.598-2.218,6.25,0.328,7.824
		c1.079,0.551,2.477,0.43,3.364-0.344c2.882-2.516,0.738-5.974-1.125-8.316C34.882,208.156,34.265,207.547,34.265,207.547
		L34.265,207.547z M34.371,208.465c1.082,1.277,1.871,2.234,2.594,3.836c0.828,2.156,0.296,3.851-1.309,4.645
		c-2.535,1.258-4.84-1.566-3.637-4.582C32.91,210.133,34.371,208.465,34.371,208.465L34.371,208.465z M105.363,212.723
		c0.238,0.453-24.129,6.089-42.106,1.25L52.32,229.801l63.148-0.11L105.363,212.723z M104.441,213.844c0,0,5.871,10.16,8.75,15.136
		h-4.047l-5.77-12.354c-3.09,0.858-6.133,1.483-9.219,1.875l2.055,10.479h-3.031l-1.715-10.015c-4.421,0.34-8.93,0.472-13.527,0.34
		l-1.984,9.675h-3.172l2.031-9.608c-3.488-0.469-6.965-0.914-10.515-1.496l-5.95,11.104h-4.48l9.34-13.94
		C77.148,217.84,90.003,217.18,104.441,213.844L104.441,213.844z M167.519,216.172c-2.758,0.008-5.672,1.492-6.496,4.672
		c-0.293,1.008-0.293,1.011-0.301,10.011c-0.008,7.438-0.07,9.231-0.07,9.231h-2.543v2.973h8.277v-2.973h-2.746
		c0,0-0.039-9.254-0.039-15.09c-0.113-1.513,0.023-2.845,0.426-3.77c1.465-3.375,6.617-2.637,7.238,0.242
		c0.367,1.715,0.16,2.164,0.188,3.645h2.867c0,0,0.074-2.602-0.203-4.121c-0.379-3.391-3.305-4.902-6.332-4.816
		C167.699,216.172,167.609,216.172,167.519,216.172L167.519,216.172z M102.234,219.297l4.578,9.683H98.14l-1.594-8.636
		L102.234,219.297z M65.121,220l7.578,0.983l-1.957,7.996H60.507L65.121,220z M89.859,221.195l1.043,7.784H77.843l1.45-7.632
		L89.859,221.195z M89.859,221.195"/>
</g>
</svg>
