<?xml version="1.0" encoding="utf-8"?>
<!-- Generator: Adobe Illustrator 15.0.0, SVG Export Plug-In . SVG Version: 6.00 Build 0)  -->
<!DOCTYPE svg PUBLIC "-//W3C//DTD SVG 1.1//EN" "http://www.w3.org/Graphics/SVG/1.1/DTD/svg11.dtd">
<svg version="1.1" id="Layer_1" xmlns="http://www.w3.org/2000/svg" xmlns:xlink="http://www.w3.org/1999/xlink" x="0px" y="0px"
	 width="178.582px" height="249.449px" viewBox="0 0 178.582 249.449" enable-background="new 0 0 178.582 249.449"
	 xml:space="preserve">
<g>
	<path fill="#FFFFFF" d="M8.504,0"/>
	<path d="M6.648,37.312l0.129-1.617c0.41-4.992,1.5-6.675,7.699-11.883c3.008-2.527,3.996-3.773,4.133-5.222
		c0.395-3.406-2.68-4.473-4.684-4.488c-2.593-0.028-5.527,1.527-4.128,5.128l-2.911,0.856C6.3,16.727,6.902,13.57,9.629,12.172
		c3.636-1.824,8.304-1.11,10.66,1.765c1.582,1.93,1.941,4.598,1.093,6.684c-2.48,5.336-10.898,7.684-11.593,13.856h9.304v-3.438
		h2.743v6.328L6.648,37.312z"/>
	<path d="M171.934,212.141l-0.133,1.617c-0.406,4.988-1.5,6.676-7.695,11.883c-3.008,2.527-3.996,3.773-4.138,5.219
		c-0.391,3.41,2.685,4.474,4.685,4.492c2.594,0.023,5.527-1.526,4.129-5.129l2.91-0.854c0.59,3.358-0.012,6.512-2.738,7.914
		c-3.637,1.823-8.305,1.108-10.661-1.767c-1.582-1.93-1.94-4.598-1.094-6.684c2.479-5.34,10.896-7.688,11.594-13.855h-9.31v3.435
		h-2.737v-6.324L171.934,212.141z"/>
	<path d="M88.457,54.531c0.011-1.621-1.27-1.652-1.258-0.469c-0.106,5.946-5.133,8.872-8.781,8.176
		c-5.629-1.07-7.426-6.656-7.375-9.949c0.168-10.156,10.39-17.644,19.617-30.668c6.762,11.754,17.918,20.984,18.578,30.07
		c0.879,12.079-14.406,16.582-16.59,2.504c-0.142-0.992-1.313-1.437-1.219-0.05c0.332,3.859-0.142,5.464,4.211,14.976H84.265
		C86.785,64.676,88.285,59.223,88.457,54.531L88.457,54.531z"/>
	<path d="M88.465,195.277c0.011,1.619-1.27,1.651-1.254,0.469c-0.11-5.941-5.133-8.867-8.786-8.176
		c-5.628,1.07-7.425,6.658-7.371,9.949c0.164,10.155,10.391,17.647,19.614,30.666c6.762-11.752,17.918-20.982,18.578-30.068
		c0.879-12.078-14.406-16.582-16.586-2.504c-0.145,0.99-1.313,1.441-1.223,0.051c0.332-3.855-0.142-5.465,4.211-14.979H84.273
		C86.793,185.133,88.293,190.59,88.465,195.277L88.465,195.277z"/>
	<path d="M14.765,56.434c0.008-0.7-0.715-0.375-0.816-0.153c-0.93,1.586-2.289,1.957-3.637,1.383
		C8.98,57.098,8.23,55.84,8.347,54.047c0.25-2.75,2.43-5.758,3.485-7.461c1.004-1.543,2.105-3.379,3.261-5.723
		c1.36,2.692,2.047,3.457,3.524,5.914c1.301,2.164,3.117,4.282,3.254,6.899c0,1.984-0.836,3.863-2.719,4.207
		c-1.062,0.191-2.062-0.356-2.801-1.629c-0.226-0.328-0.679-0.156-0.672,0.289c0.133,1.672,0.762,3.184,2.262,4.969h-5.508
		C13.562,60.25,14.711,58.547,14.765,56.434L14.765,56.434z"/>
	<path d="M164.945,192.961c0.008,0.695-0.719,0.371-0.816,0.152c-0.93-1.592-2.289-1.963-3.637-1.387
		c-1.336,0.565-2.082,1.823-1.965,3.616c0.25,2.75,2.43,5.761,3.484,7.462c1.004,1.543,2.102,3.379,3.262,5.723
		c1.358-2.691,2.047-3.457,3.523-5.914c1.301-2.16,3.113-4.281,3.254-6.896c0-1.989-0.836-3.866-2.719-4.211
		c-1.066-0.192-2.063,0.354-2.801,1.634c-0.227,0.323-0.68,0.151-0.672-0.293c0.129-1.673,0.762-3.185,2.262-4.97h-5.508
		C163.738,189.141,164.891,190.844,164.945,192.961L164.945,192.961z"/>
</g>
</svg>
