<?xml version="1.0" encoding="utf-8"?>
<!-- Generator: Adobe Illustrator 15.0.0, SVG Export Plug-In . SVG Version: 6.00 Build 0)  -->
<!DOCTYPE svg PUBLIC "-//W3C//DTD SVG 1.1//EN" "http://www.w3.org/Graphics/SVG/1.1/DTD/svg11.dtd">
<svg version="1.1" id="Layer_1" xmlns="http://www.w3.org/2000/svg" xmlns:xlink="http://www.w3.org/1999/xlink" x="0px" y="0px"
	 width="178.582px" height="249.449px" viewBox="0 0 178.582 249.449" enable-background="new 0 0 178.582 249.449"
	 xml:space="preserve">
<g>
	<path fill="#FFFFFF" d="M8.504,0"/>
	<path d="M3.933,33.125l0.129-1.617c0.41-4.992,1.5-6.675,7.699-11.883c3.008-2.527,3.996-3.773,4.133-5.222
		c0.395-3.406-2.68-4.473-4.684-4.488c-2.593-0.028-5.527,1.527-4.128,5.128l-2.911,0.856C3.585,12.54,4.187,9.383,6.914,7.985
		c3.636-1.824,8.304-1.11,10.66,1.765c1.582,1.93,1.941,4.598,1.093,6.684C16.187,21.77,7.769,24.118,7.074,30.29h9.304v-3.438
		h2.743v6.328L3.933,33.125z"/>
	<path d="M174.637,217.083l-0.133,1.617c-0.406,4.988-1.5,6.676-7.695,11.883c-3.008,2.527-3.996,3.773-4.138,5.219
		c-0.391,3.41,2.685,4.475,4.685,4.492c2.595,0.023,5.527-1.525,4.13-5.129l2.909-0.854c0.591,3.357-0.012,6.512-2.737,7.914
		c-3.638,1.822-8.306,1.107-10.661-1.768c-1.582-1.93-1.939-4.598-1.094-6.684c2.479-5.34,10.896-7.688,11.594-13.855h-9.311v3.436
		h-2.736v-6.324L174.637,217.083z"/>
	<path d="M88.457,54.531c0.011-1.621-1.27-1.652-1.258-0.469c-0.106,5.946-5.133,8.872-8.781,8.176
		c-5.629-1.07-7.426-6.656-7.375-9.949c0.168-10.156,10.39-17.644,19.617-30.668c6.762,11.754,17.918,20.984,18.578,30.07
		c0.879,12.079-14.406,16.582-16.59,2.504c-0.143-0.992-1.313-1.437-1.219-0.05c0.332,3.859-0.143,5.464,4.211,14.976H84.265
		C86.785,64.676,88.285,59.223,88.457,54.531L88.457,54.531z"/>
	<path d="M88.465,195.277c0.011,1.619-1.27,1.65-1.254,0.469c-0.11-5.941-5.133-8.867-8.786-8.176
		c-5.628,1.07-7.425,6.658-7.371,9.949c0.164,10.154,10.391,17.646,19.614,30.666c6.762-11.752,17.918-20.982,18.578-30.068
		c0.879-12.078-14.406-16.582-16.586-2.504c-0.145,0.99-1.313,1.441-1.223,0.051c0.332-3.855-0.143-5.465,4.211-14.979H84.273
		C86.793,185.133,88.293,190.59,88.465,195.277L88.465,195.277z"/>
	<path d="M11.189,52.059c0.008-0.7-0.715-0.375-0.816-0.153c-0.93,1.586-2.289,1.957-3.637,1.383
		c-1.332-0.566-2.082-1.824-1.965-3.617c0.25-2.75,2.43-5.758,3.485-7.461c1.004-1.543,2.105-3.379,3.261-5.723
		c1.36,2.692,2.047,3.457,3.524,5.914c1.301,2.164,3.117,4.282,3.254,6.899c0,1.984-0.836,3.863-2.719,4.207
		c-1.062,0.191-2.062-0.356-2.801-1.629c-0.226-0.328-0.679-0.156-0.672,0.289c0.133,1.672,0.762,3.184,2.262,4.969H8.857
		C9.986,55.875,11.135,54.172,11.189,52.059L11.189,52.059z"/>
	<path d="M166.706,198.57c0.008,0.695-0.719,0.371-0.816,0.152c-0.93-1.592-2.289-1.963-3.637-1.387
		c-1.336,0.564-2.082,1.822-1.965,3.615c0.25,2.75,2.43,5.762,3.484,7.463c1.004,1.543,2.102,3.379,3.262,5.723
		c1.357-2.691,2.047-3.457,3.522-5.914c1.302-2.16,3.113-4.281,3.254-6.896c0-1.988-0.836-3.865-2.719-4.211
		c-1.065-0.191-2.063,0.354-2.802,1.635c-0.227,0.322-0.68,0.15-0.672-0.293c0.129-1.674,0.763-3.186,2.263-4.971h-5.509
		C165.499,194.75,166.651,196.453,166.706,198.57L166.706,198.57z"/>
</g>
</svg>
