<?xml version="1.0" encoding="utf-8"?>
<!-- Generator: Adobe Illustrator 15.0.0, SVG Export Plug-In . SVG Version: 6.00 Build 0)  -->
<!DOCTYPE svg PUBLIC "-//W3C//DTD SVG 1.1//EN" "http://www.w3.org/Graphics/SVG/1.1/DTD/svg11.dtd">
<svg version="1.1" id="Layer_1" xmlns="http://www.w3.org/2000/svg" xmlns:xlink="http://www.w3.org/1999/xlink" x="0px" y="0px"
	 width="178.582px" height="249.449px" viewBox="0 0 178.582 249.449" enable-background="new 0 0 178.582 249.449"
	 xml:space="preserve">
<g>
	<path fill="#FFFFFF" d="M8.504,0"/>
	<path d="M14.265,37.102v-2.25h2.071v-3.711H5.996v-2.618l11.187-16.878l1.828,0.007v16.871h3.164v2.618h-3.164l-0.062,3.711h1.734
		v2.25H14.265z M16.336,17.824L9.23,28.523h7.106V17.824z"/>
	<path d="M164.313,212.352v2.25h-2.066v3.711h10.34v2.613l-11.188,16.879l-1.828-0.004v-16.875h-3.164v-2.613h3.164l0.059-3.711
		h-1.734v-2.25H164.313z M162.246,231.629l7.102-10.703h-7.102V231.629z"/>
	<path d="M42.925,53.012c0.012-1.621-1.269-1.653-1.257-0.469c-0.106,5.941-5.133,8.867-8.786,8.176
		c-5.628-1.071-7.421-6.66-7.371-9.949c0.168-10.157,10.391-17.649,19.618-30.668c6.761,11.753,17.918,20.984,18.578,30.07
		c0.879,12.078-14.407,16.582-16.59,2.504c-0.141-0.992-1.313-1.442-1.219-0.051c0.332,3.855-0.141,5.465,4.211,14.977H38.73
		C41.25,63.156,42.754,57.699,42.925,53.012L42.925,53.012z"/>
	<path d="M132.148,53.012c0.016-1.621-1.271-1.653-1.254-0.469c-0.105,5.941-5.133,8.867-8.785,8.176
		c-5.629-1.071-7.426-6.66-7.371-9.949c0.168-10.157,10.391-17.649,19.617-30.668c6.762,11.753,17.918,20.984,18.578,30.07
		c0.879,12.078-14.406,16.582-16.591,2.504c-0.141-0.992-1.313-1.442-1.219-0.051c0.328,3.855-0.142,5.465,4.211,14.977h-11.379
		C130.477,63.156,131.98,57.699,132.148,53.012L132.148,53.012z"/>
	<path d="M42.933,193.789c0.012,1.621-1.269,1.65-1.254,0.469c-0.109-5.945-5.136-8.871-8.785-8.176
		c-5.629,1.07-7.426,6.656-7.371,9.949c0.164,10.154,10.387,17.645,19.613,30.668c6.762-11.754,17.918-20.984,18.579-30.07
		c0.878-12.078-14.407-16.582-16.59-2.508c-0.141,0.996-1.309,1.439-1.219,0.055c0.332-3.859-0.141-5.465,4.211-14.977H38.742
		C41.261,183.645,42.761,189.098,42.933,193.789L42.933,193.789z"/>
	<path d="M132.16,193.789c0.012,1.621-1.27,1.65-1.258,0.469c-0.105-5.945-5.133-8.871-8.781-8.176
		c-5.629,1.07-7.426,6.656-7.375,9.949c0.168,10.154,10.391,17.645,19.617,30.668c6.762-11.754,17.918-20.984,18.578-30.07
		c0.879-12.078-14.406-16.582-16.59-2.508c-0.142,0.996-1.313,1.439-1.22,0.055c0.332-3.859-0.141-5.465,4.211-14.977h-11.375
		C130.488,183.645,131.988,189.098,132.16,193.789L132.16,193.789z"/>
	<path d="M13.601,56.043c0.008-0.699-0.719-0.371-0.816-0.152c-0.93,1.589-2.293,1.957-3.637,1.386
		c-1.336-0.57-2.086-1.824-1.965-3.621c0.25-2.75,2.43-5.758,3.485-7.461c1-1.543,2.101-3.375,3.261-5.722
		c1.36,2.691,2.047,3.457,3.524,5.914c1.301,2.164,3.113,4.281,3.254,6.898c0,1.988-0.836,3.863-2.719,4.207
		c-1.066,0.195-2.063-0.351-2.805-1.629c-0.222-0.324-0.676-0.156-0.668,0.289c0.129,1.676,0.762,3.188,2.262,4.969h-5.508
		C12.394,59.859,13.547,58.16,13.601,56.043L13.601,56.043z"/>
	<path d="M163.375,193.645c0.008,0.695-0.715,0.371-0.813,0.152c-0.935-1.59-2.293-1.961-3.642-1.387
		c-1.332,0.566-2.082,1.822-1.961,3.617c0.246,2.748,2.426,5.758,3.479,7.461c1.004,1.543,2.105,3.379,3.263,5.723
		c1.358-2.691,2.047-3.457,3.526-5.914c1.301-2.16,3.113-4.281,3.254-6.895c0-1.988-0.84-3.867-2.723-4.213
		c-1.063-0.189-2.063,0.356-2.801,1.635c-0.227,0.322-0.68,0.152-0.672-0.293c0.133-1.674,0.766-3.184,2.262-4.971h-5.508
		C162.171,189.824,163.32,191.527,163.375,193.645L163.375,193.645z"/>
</g>
</svg>
