<?xml version="1.0" encoding="utf-8"?>
<!-- Generator: Adobe Illustrator 15.0.0, SVG Export Plug-In . SVG Version: 6.00 Build 0)  -->
<!DOCTYPE svg PUBLIC "-//W3C//DTD SVG 1.1//EN" "http://www.w3.org/Graphics/SVG/1.1/DTD/svg11.dtd">
<svg version="1.1" id="Layer_1" xmlns="http://www.w3.org/2000/svg" xmlns:xlink="http://www.w3.org/1999/xlink" x="0px" y="0px"
	 width="178.582px" height="249.449px" viewBox="0 0 178.582 249.449" enable-background="new 0 0 178.582 249.449"
	 xml:space="preserve">
<g>
	<path fill="#FFFFFF" d="M8.504,0"/>
	<path d="M6.543,30.031l2.574-0.023c0.492,1.558,1.578,3.14,3.055,3.582c4.168,0.976,6.855-1.352,7.738-4.039
		c1.07-3.258-0.024-7.836-2.895-9.461c-2.379-1.352-5.914-0.211-7.539,2.668l-1.804-1.102L8.64,10.918h11.785v2.539h-9.55
		l-0.149,4.473c2.051-1.442,5.215-1.43,7.27-0.418c3.89,1.855,5.699,6.074,4.941,11.05c-1.051,4.946-3.359,7.747-8.574,8.153
		C8.566,36.762,6.519,32.777,6.543,30.031L6.543,30.031z M6.543,30.031"/>
	<path d="M172.039,219.422l-2.578,0.019c-0.488-1.554-1.578-3.14-3.051-3.577c-4.172-0.977-6.855,1.352-7.738,4.038
		c-1.074,3.259,0.023,7.837,2.895,9.462c2.379,1.348,5.914,0.211,7.535-2.673l1.805,1.106l-0.969,10.738h-11.781v-2.539h9.547
		l0.152-4.474c-2.055,1.442-5.215,1.431-7.27,0.418c-3.891-1.854-5.699-6.073-4.941-11.05c1.047-4.945,3.359-7.75,8.574-8.152
		C170.015,212.687,172.062,216.672,172.039,219.422L172.039,219.422z M172.039,219.422"/>
	<path d="M43.172,54.496c0.011-1.621-1.27-1.652-1.258-0.469c-0.106,5.946-5.133,8.871-8.782,8.176
		c-5.628-1.07-7.425-6.656-7.375-9.949c0.168-10.156,10.391-17.645,19.618-30.668c6.761,11.754,17.918,20.984,18.578,30.07
		c0.879,12.078-14.406,16.582-16.59,2.508c-0.141-0.996-1.313-1.441-1.219-0.055c0.332,3.86-0.14,5.465,4.211,14.977H38.98
		C41.5,64.641,43,59.187,43.172,54.496L43.172,54.496z M43.172,54.496"/>
	<path d="M131.714,54.496c0.012-1.621-1.27-1.652-1.254-0.469c-0.109,5.946-5.133,8.871-8.785,8.176
		c-5.629-1.07-7.426-6.656-7.371-9.949c0.164-10.156,10.391-17.645,19.617-30.668c6.758,11.754,17.918,20.984,18.578,30.07
		c0.879,12.078-14.41,16.582-16.59,2.508c-0.141-0.996-1.313-1.441-1.223-0.055c0.332,3.86-0.141,5.465,4.215,14.977h-11.379
		C130.042,64.641,131.542,59.187,131.714,54.496L131.714,54.496z M131.714,54.496"/>
	<path d="M87.519,133.906c0.016-1.621-1.269-1.652-1.254-0.47c-0.105,5.946-5.133,8.872-8.785,8.177
		c-5.629-1.07-7.426-6.656-7.371-9.949c0.168-10.156,10.391-17.644,19.617-30.668c6.762,11.754,17.918,20.984,18.578,30.069
		c0.879,12.079-14.406,16.582-16.59,2.505c-0.141-0.992-1.313-1.438-1.219-0.051c0.328,3.859-0.141,5.464,4.211,14.977H83.328
		C85.847,144.051,87.351,138.598,87.519,133.906L87.519,133.906z M87.519,133.906"/>
	<path d="M43.179,193.52c0.012,1.617-1.269,1.648-1.254,0.469c-0.109-5.945-5.136-8.871-8.785-8.177
		c-5.629,1.071-7.425,6.657-7.371,9.946c0.164,10.16,10.387,17.648,19.613,30.668c6.762-11.75,17.918-20.98,18.579-30.067
		c0.879-12.077-14.407-16.586-16.59-2.507c-0.141,0.996-1.309,1.441-1.219,0.055c0.332-3.859-0.141-5.466,4.211-14.977H38.988
		C41.507,183.371,43.007,188.828,43.179,193.52L43.179,193.52z M43.179,193.52"/>
	<path d="M131.722,193.52c0.012,1.617-1.27,1.648-1.254,0.469c-0.105-5.945-5.133-8.871-8.785-8.177
		c-5.629,1.071-7.426,6.657-7.371,9.946c0.168,10.16,10.391,17.648,19.617,30.668c6.758-11.75,17.918-20.98,18.578-30.067
		c0.879-12.077-14.406-16.586-16.59-2.507c-0.141,0.996-1.313,1.441-1.223,0.055c0.332-3.859-0.137-5.466,4.215-14.977h-11.379
		C130.05,183.371,131.55,188.828,131.722,193.52L131.722,193.52z M131.722,193.52"/>
	<path d="M14.203,55.723c0.008-0.696-0.715-0.371-0.813-0.153c-0.929,1.59-2.293,1.961-3.64,1.387
		c-1.332-0.566-2.082-1.824-1.961-3.617c0.246-2.75,2.429-5.758,3.484-7.461c1-1.543,2.102-3.379,3.262-5.723
		c1.355,2.692,2.047,3.457,3.523,5.914c1.301,2.16,3.114,4.282,3.254,6.895c0,1.988-0.836,3.867-2.719,4.211
		c-1.066,0.191-2.062-0.356-2.804-1.633c-0.227-0.324-0.68-0.152-0.672,0.293c0.133,1.672,0.765,3.184,2.265,4.969h-5.511
		C13,59.543,14.152,57.84,14.203,55.723L14.203,55.723z M14.203,55.723"/>
	<path d="M163.57,193.922c0.008,0.695-0.715,0.371-0.813,0.152c-0.934-1.591-2.293-1.961-3.641-1.388
		c-1.332,0.567-2.082,1.825-1.961,3.618c0.246,2.75,2.426,5.761,3.484,7.461c1,1.543,2.102,3.379,3.258,5.723
		c1.359-2.688,2.047-3.457,3.527-5.91c1.301-2.164,3.113-4.285,3.254-6.898c0-1.989-0.84-3.868-2.723-4.207
		c-1.063-0.195-2.063,0.352-2.801,1.629c-0.227,0.324-0.68,0.156-0.672-0.29c0.133-1.675,0.766-3.187,2.262-4.972h-5.508
		C162.367,190.102,163.515,191.805,163.57,193.922L163.57,193.922z M163.57,193.922"/>
</g>
</svg>
