<?xml version="1.0" encoding="utf-8"?>
<!-- Generator: Adobe Illustrator 15.0.0, SVG Export Plug-In . SVG Version: 6.00 Build 0)  -->
<!DOCTYPE svg PUBLIC "-//W3C//DTD SVG 1.1//EN" "http://www.w3.org/Graphics/SVG/1.1/DTD/svg11.dtd">
<svg version="1.1" id="Layer_1" xmlns="http://www.w3.org/2000/svg" xmlns:xlink="http://www.w3.org/1999/xlink" x="0px" y="0px"
	 width="178.582px" height="249.449px" viewBox="0 0 178.582 249.449" enable-background="new 0 0 178.582 249.449"
	 xml:space="preserve">
<g>
	<path fill="#FFFFFF" d="M8.504,0"/>
	<path d="M6.59,28.801c-0.325-2.196-0.321-7.875-0.051-9.551c0.82-5.145,2.824-7.496,6.176-8.27
		c3.257-0.746,7.832,0.086,8.835,4.387l-2.726,0.051c-1.469-2.906-5.195-2.129-7.289-0.867c-1.676,1.011-2.434,5.219-2.11,5.476
		c-0.003,0,3.168-2.3,5.661-2.132c5.336,0.546,7.535,5.085,7.347,9.375c-0.168,5.16-1.836,9.281-7.488,9.558
		C9.57,36.625,7.105,33.746,6.59,28.801L6.59,28.801z M19.847,27.437c0.028-3.578-1.629-6.257-4.761-6.554
		c-3.133-0.293-6.289,2.707-6.071,6.355c0.219,3.66,1.664,6.746,5.461,6.727C18.562,33.949,19.824,29.984,19.847,27.437
		L19.847,27.437z M19.847,27.437"/>
	<path d="M171.988,220.647c0.328,2.2,0.324,7.879,0.055,9.556c-0.824,5.145-2.828,7.496-6.18,8.266
		c-3.254,0.75-7.832-0.082-8.836-4.383l2.727-0.051c1.473,2.905,5.195,2.129,7.293,0.862c1.676-1.007,2.43-5.214,2.105-5.472
		c0.004,0-3.164,2.301-5.66,2.133c-5.332-0.547-7.531-5.086-7.348-9.375c0.168-5.161,1.836-9.286,7.488-9.559
		C169.007,212.828,171.472,215.707,171.988,220.647L171.988,220.647z M158.734,222.016c-0.031,3.578,1.625,6.257,4.758,6.55
		c3.133,0.298,6.293-2.702,6.074-6.351c-0.223-3.66-1.664-6.746-5.461-6.731C160.019,215.504,158.753,219.469,158.734,222.016
		L158.734,222.016z M158.734,222.016"/>
	<path d="M43.078,54.852c0.012-1.622-1.27-1.653-1.258-0.469c-0.105,5.941-5.133,8.867-8.781,8.172
		c-5.629-1.071-7.426-6.657-7.375-9.946c0.168-10.16,10.39-17.648,19.617-30.668c6.762,11.75,17.918,20.985,18.578,30.067
		c0.879,12.078-14.406,16.586-16.59,2.508c-0.14-0.996-1.312-1.442-1.219-0.051c0.332,3.855-0.14,5.465,4.211,14.972H38.886
		C41.406,64.996,42.906,59.539,43.078,54.852L43.078,54.852z M43.078,54.852"/>
	<path d="M132.304,54.852c0.012-1.622-1.27-1.653-1.258-0.469c-0.105,5.941-5.133,8.867-8.781,8.172
		c-5.629-1.071-7.426-6.657-7.375-9.946c0.168-10.16,10.391-17.648,19.617-30.668c6.762,11.75,17.918,20.985,18.578,30.067
		c0.879,12.078-14.406,16.586-16.59,2.508c-0.141-0.996-1.313-1.442-1.219-0.051c0.332,3.855-0.141,5.465,4.211,14.972h-11.379
		C130.632,64.996,132.132,59.539,132.304,54.852L132.304,54.852z M132.304,54.852"/>
	<path d="M43.086,115.664c0.011,1.621-1.27,1.652-1.254,0.469c-0.11-5.942-5.133-8.871-8.785-8.176
		c-5.629,1.07-7.426,6.66-7.372,9.949c0.165,10.156,10.391,17.649,19.614,30.668c6.761-11.754,17.918-20.984,18.578-30.07
		c0.879-12.078-14.406-16.582-16.586-2.504c-0.145,0.992-1.313,1.441-1.223,0.051c0.332-3.86-0.14-5.465,4.211-14.977H38.894
		C41.414,105.52,42.914,110.977,43.086,115.664L43.086,115.664z M43.086,115.664"/>
	<path d="M132.312,115.664c0.012,1.621-1.27,1.652-1.254,0.469c-0.109-5.942-5.137-8.871-8.785-8.176
		c-5.629,1.07-7.426,6.66-7.371,9.949c0.164,10.156,10.387,17.649,19.613,30.668c6.762-11.754,17.918-20.984,18.578-30.07
		c0.879-12.078-14.406-16.582-16.59-2.504c-0.141,0.992-1.309,1.441-1.219,0.051c0.332-3.86-0.141-5.465,4.211-14.977h-11.375
		C130.64,105.52,132.14,110.977,132.312,115.664L132.312,115.664z M132.312,115.664"/>
	<path d="M132.312,194.543c0.012,1.621-1.27,1.652-1.254,0.469c-0.109-5.941-5.137-8.871-8.785-8.176
		c-5.629,1.07-7.426,6.66-7.371,9.949c0.164,10.155,10.387,17.648,19.613,30.668c6.762-11.754,17.918-20.984,18.578-30.07
		c0.879-12.078-14.406-16.582-16.59-2.504c-0.141,0.992-1.309,1.441-1.219,0.051c0.332-3.859-0.141-5.465,4.211-14.977h-11.375
		C130.64,184.397,132.14,189.854,132.312,194.543L132.312,194.543z M132.312,194.543"/>
	<path d="M43.086,194.543c0.011,1.621-1.27,1.652-1.254,0.469c-0.11-5.941-5.133-8.871-8.785-8.176
		c-5.629,1.07-7.426,6.66-7.372,9.949c0.165,10.155,10.391,17.648,19.614,30.668c6.761-11.754,17.918-20.984,18.578-30.07
		c0.879-12.078-14.406-16.582-16.586-2.504c-0.145,0.992-1.313,1.441-1.223,0.051c0.332-3.859-0.14-5.465,4.211-14.977H38.894
		C41.414,184.397,42.914,189.854,43.086,194.543L43.086,194.543z M43.086,194.543"/>
	<path d="M13.515,54.746c0.008-0.699-0.715-0.371-0.816-0.152c-0.93,1.59-2.289,1.957-3.637,1.386
		c-1.332-0.57-2.082-1.824-1.965-3.621c0.25-2.75,2.43-5.757,3.485-7.461c1.004-1.543,2.105-3.375,3.261-5.722
		c1.36,2.691,2.047,3.457,3.524,5.914c1.301,2.164,3.117,4.281,3.258,6.898c0,1.989-0.84,3.864-2.723,4.207
		c-1.062,0.196-2.062-0.351-2.801-1.629c-0.226-0.324-0.679-0.156-0.672,0.289c0.133,1.676,0.766,3.188,2.262,4.969h-5.508
		C12.312,58.562,13.461,56.863,13.515,54.746L13.515,54.746z M13.515,54.746"/>
	<path d="M164.566,192.94c0.008,0.7-0.715,0.371-0.813,0.153c-0.93-1.586-2.293-1.957-3.641-1.387
		c-1.332,0.57-2.082,1.824-1.961,3.621c0.246,2.75,2.43,5.758,3.484,7.461c1,1.543,2.102,3.375,3.262,5.723
		c1.355-2.691,2.047-3.457,3.523-5.914c1.301-2.164,3.113-4.282,3.254-6.898c0-1.988-0.836-3.863-2.719-4.207
		c-1.066-0.195-2.063,0.352-2.805,1.629c-0.227,0.324-0.68,0.155-0.672-0.289c0.133-1.676,0.766-3.188,2.266-4.969h-5.512
		C163.363,189.125,164.515,190.824,164.566,192.94L164.566,192.94z M164.566,192.94"/>
</g>
</svg>
