<?xml version="1.0" encoding="utf-8"?>
<!-- Generator: Adobe Illustrator 15.0.0, SVG Export Plug-In . SVG Version: 6.00 Build 0)  -->
<!DOCTYPE svg PUBLIC "-//W3C//DTD SVG 1.1//EN" "http://www.w3.org/Graphics/SVG/1.1/DTD/svg11.dtd">
<svg version="1.1" id="Layer_1" xmlns="http://www.w3.org/2000/svg" xmlns:xlink="http://www.w3.org/1999/xlink" x="0px" y="0px"
	 width="178.582px" height="249.449px" viewBox="0 0 178.582 249.449" enable-background="new 0 0 178.582 249.449"
	 xml:space="preserve">
<g>
	<path fill="#FFFFFF" d="M8.504,0"/>
	<path d="M3.936,25.544c0.129-3.5,1.418-4.816,3.957-6.648c-2.027-1.438-2.879-3.551-2.707-5.352
		c0.418-4.356,3.848-6.535,7.59-6.441c3.738,0.093,6.961,3.011,7.215,6.179c0.219,2.754-0.617,4.082-2.605,5.531
		c2.359,1.954,3.871,3.239,3.812,6.688c-0.055,3.449-3.043,7.551-8.25,7.676C7.741,33.307,3.811,29.044,3.936,25.544L3.936,25.544z
		 M18.475,25.557c0.223-3.172-2.629-5.309-5.851-5.344c-3.137-0.031-5.945,2.598-5.945,5.445c0,3.055,3.652,4.715,6.007,4.727
		C15.554,30.393,18.284,28.287,18.475,25.557L18.475,25.557z M17.444,14.216c0.063-2.672-2.445-4.582-5.031-4.508
		c-2.301,0.07-4.734,1.793-4.738,4.027c0,2.789,2.769,4.184,5.136,4.239C14.956,18.021,17.397,16.231,17.444,14.216L17.444,14.216z"
		/>
	<path d="M174.634,224.672c-0.129,3.5-1.414,4.816-3.953,6.648c2.021,1.434,2.879,3.545,2.703,5.348
		c-0.414,4.359-3.85,6.539-7.586,6.445c-3.742-0.1-6.965-3.014-7.215-6.182c-0.221-2.754,0.615-4.082,2.604-5.529
		c-2.363-1.955-3.871-3.24-3.816-6.688c0.061-3.449,3.049-7.552,8.256-7.681C170.833,216.908,174.763,221.172,174.634,224.672
		L174.634,224.672z M160.099,224.658c-0.229,3.174,2.629,5.311,5.848,5.342c3.141,0.033,5.945-2.594,5.945-5.441
		c0-3.055-3.648-4.719-6.008-4.727C163.017,219.82,160.29,221.93,160.099,224.658L160.099,224.658z M161.126,236
		c-0.063,2.668,2.444,4.582,5.03,4.504c2.302-0.066,4.738-1.789,4.738-4.023c0.004-2.793-2.771-4.184-5.134-4.238
		C163.617,232.195,161.173,233.98,161.126,236L161.126,236z"/>
	<path d="M42.972,54.27c0.016-1.622-1.269-1.653-1.254-0.469c-0.105,5.941-5.132,8.867-8.785,8.176
		c-5.629-1.071-7.426-6.661-7.371-9.95c0.168-10.156,10.391-17.648,19.617-30.668c6.762,11.754,17.918,20.985,18.578,30.071
		c0.879,12.078-14.406,16.582-16.589,2.504c-0.141-0.993-1.313-1.442-1.219-0.051c0.328,3.859-0.141,5.465,4.211,14.976H38.781
		C41.3,64.414,42.804,58.957,42.972,54.27L42.972,54.27z"/>
	<path d="M132.199,54.27c0.012-1.622-1.27-1.653-1.254-0.469c-0.105,5.941-5.133,8.867-8.785,8.176
		c-5.629-1.071-7.426-6.661-7.371-9.95c0.168-10.156,10.391-17.648,19.617-30.668c6.758,11.754,17.918,20.985,18.578,30.071
		c0.879,12.078-14.406,16.582-16.59,2.504c-0.143-0.993-1.313-1.442-1.225-0.051c0.332,3.859-0.137,5.465,4.217,14.976h-11.381
		C130.527,64.414,132.027,58.957,132.199,54.27L132.199,54.27z"/>
	<path d="M87.922,94.367c0.011-1.621-1.27-1.648-1.254-0.469c-0.11,5.946-5.137,8.872-8.786,8.176
		c-5.628-1.07-7.425-6.656-7.371-9.949c0.164-10.156,10.387-17.645,19.614-30.668c6.762,11.754,17.917,20.984,18.578,30.07
		c0.879,12.078-14.406,16.582-16.59,2.508c-0.141-0.996-1.309-1.441-1.219-0.055c0.332,3.86-0.143,5.465,4.211,14.977H83.73
		C86.25,104.512,87.75,99.059,87.922,94.367L87.922,94.367z"/>
	<path d="M42.972,134.469c0.016-1.621-1.269-1.652-1.254-0.469c-0.105,5.939-5.132,8.867-8.785,8.176
		c-5.629-1.07-7.426-6.66-7.371-9.949c0.168-10.157,10.391-17.646,19.617-30.667c6.762,11.753,17.918,20.984,18.578,30.066
		c0.879,12.082-14.406,16.586-16.589,2.508c-0.141-0.995-1.313-1.442-1.219-0.051c0.328,3.854-0.141,5.465,4.211,14.974H38.781
		C41.3,144.613,42.804,139.156,42.972,134.469L42.972,134.469z"/>
	<path d="M132.199,134.469c0.012-1.621-1.27-1.652-1.254-0.469c-0.105,5.939-5.133,8.867-8.785,8.176
		c-5.629-1.07-7.426-6.66-7.371-9.949c0.168-10.157,10.391-17.646,19.617-30.667c6.758,11.753,17.918,20.984,18.578,30.066
		c0.879,12.082-14.406,16.586-16.59,2.508c-0.143-0.995-1.313-1.442-1.225-0.051c0.332,3.854-0.137,5.465,4.217,14.974h-11.381
		C130.527,144.613,132.027,139.156,132.199,134.469L132.199,134.469z"/>
	<path d="M132.21,195.047c0.013,1.621-1.271,1.652-1.258,0.469c-0.104-5.945-5.134-8.871-8.785-8.176
		c-5.625,1.07-7.422,6.656-7.371,9.949c0.168,10.156,10.392,17.645,19.617,30.668c6.762-11.754,17.918-20.984,18.578-30.07
		c0.879-12.078-14.406-16.582-16.591-2.504c-0.142,0.992-1.313,1.438-1.219,0.051c0.332-3.857-0.142-5.465,4.211-14.977h-11.379
		C130.539,184.902,132.039,190.354,132.21,195.047L132.21,195.047z"/>
	<path d="M87.929,155.604c0.012,1.623-1.269,1.653-1.254,0.472c-0.109-5.941-5.132-8.867-8.785-8.179
		c-5.629,1.071-7.425,6.662-7.371,9.951c0.164,10.155,10.391,17.647,19.613,30.668c6.763-11.75,17.918-20.983,18.583-30.065
		c0.875-12.078-14.41-16.586-16.59-2.511c-0.141,0.996-1.313,1.442-1.223,0.054c0.332-3.854-0.141-5.468,4.211-14.974H83.738
		C86.257,145.461,87.757,150.918,87.929,155.604L87.929,155.604z"/>
	<path d="M42.984,195.047c0.012,1.621-1.269,1.652-1.258,0.469c-0.105-5.945-5.133-8.871-8.781-8.176
		c-5.629,1.07-7.426,6.656-7.375,9.949c0.168,10.156,10.391,17.645,19.617,30.668c6.762-11.754,17.918-20.984,18.578-30.07
		c0.879-12.078-14.406-16.582-16.59-2.504c-0.14,0.992-1.312,1.438-1.218,0.051c0.332-3.857-0.141-5.465,4.211-14.977H38.793
		C41.312,184.902,42.812,190.354,42.984,195.047L42.984,195.047z"/>
	<path d="M12.229,52.058c0.008-0.695-0.718-0.371-0.816-0.152c-0.93,1.59-2.289,1.957-3.637,1.387
		c-1.336-0.567-2.086-1.825-1.965-3.618c0.25-2.75,2.43-5.761,3.485-7.461c1.004-1.546,2.101-3.378,3.262-5.726
		c1.359,2.691,2.046,3.457,3.523,5.914c1.301,2.164,3.113,4.285,3.254,6.898c0,1.989-0.836,3.868-2.719,4.207
		c-1.066,0.196-2.062-0.351-2.801-1.628c-0.226-0.325-0.679-0.157-0.672,0.289c0.129,1.675,0.762,3.187,2.262,4.968H9.897
		C11.022,55.879,12.175,54.175,12.229,52.058L12.229,52.058z"/>
	<path d="M165.663,198.566c0.008,0.699-0.715,0.375-0.813,0.152c-0.936-1.586-2.293-1.957-3.643-1.383
		c-1.332,0.564-2.082,1.824-1.961,3.617c0.246,2.75,2.427,5.758,3.484,7.461c1,1.543,2.102,3.379,3.258,5.723
		c1.359-2.691,2.047-3.457,3.527-5.914c1.301-2.164,3.113-4.281,3.254-6.898c0-1.986-0.84-3.861-2.723-4.205
		c-1.063-0.191-2.063,0.354-2.801,1.629c-0.229,0.326-0.682,0.154-0.672-0.289c0.133-1.672,0.766-3.186,2.262-4.971h-5.508
		C164.46,194.75,165.607,196.453,165.663,198.566L165.663,198.566z"/>
</g>
</svg>
