<?xml version="1.0" encoding="utf-8"?>
<!-- Generator: Adobe Illustrator 15.0.0, SVG Export Plug-In . SVG Version: 6.00 Build 0)  -->
<!DOCTYPE svg PUBLIC "-//W3C//DTD SVG 1.1//EN" "http://www.w3.org/Graphics/SVG/1.1/DTD/svg11.dtd">
<svg version="1.1" id="Layer_1" xmlns="http://www.w3.org/2000/svg" xmlns:xlink="http://www.w3.org/1999/xlink" x="0px" y="0px"
	 width="178.582px" height="249.449px" viewBox="0 0 178.582 249.449" enable-background="new 0 0 178.582 249.449"
	 xml:space="preserve">
<g>
	<path fill="#FFFFFF" d="M8.504,0"/>
	<path d="M5.472,30.043c0.129-3.5,1.418-4.816,3.957-6.648c-2.027-1.438-2.879-3.551-2.707-5.352
		c0.418-4.356,3.848-6.535,7.59-6.441c3.738,0.093,6.961,3.011,7.215,6.179c0.219,2.754-0.617,4.082-2.605,5.531
		c2.359,1.954,3.871,3.239,3.812,6.688c-0.055,3.449-3.043,7.551-8.25,7.676C9.277,37.805,5.347,33.543,5.472,30.043L5.472,30.043z
		 M20.011,30.055c0.223-3.172-2.629-5.309-5.851-5.344c-3.137-0.031-5.945,2.598-5.945,5.445c0,3.055,3.652,4.715,6.007,4.727
		C17.09,34.891,19.82,32.785,20.011,30.055L20.011,30.055z M18.98,18.715c0.063-2.672-2.445-4.582-5.031-4.508
		c-2.301,0.07-4.734,1.793-4.738,4.027c0,2.789,2.769,4.184,5.136,4.239C16.492,22.52,18.933,20.73,18.98,18.715L18.98,18.715z
		 M18.98,18.715"/>
	<path d="M173.105,219.41c-0.129,3.5-1.414,4.816-3.953,6.648c2.023,1.434,2.879,3.546,2.703,5.348
		c-0.414,4.359-3.848,6.539-7.586,6.445c-3.742-0.098-6.965-3.012-7.215-6.18c-0.219-2.754,0.617-4.082,2.605-5.531
		c-2.363-1.954-3.871-3.239-3.816-6.688c0.059-3.449,3.047-7.552,8.254-7.681C169.304,211.647,173.234,215.91,173.105,219.41
		L173.105,219.41z M158.57,219.397c-0.227,3.173,2.629,5.31,5.848,5.341c3.141,0.034,5.945-2.594,5.945-5.441
		c0-3.055-3.648-4.719-6.008-4.727C161.488,214.559,158.761,216.668,158.57,219.397L158.57,219.397z M159.597,230.738
		c-0.063,2.668,2.445,4.582,5.031,4.504c2.301-0.066,4.738-1.789,4.738-4.023c0.004-2.793-2.77-4.184-5.133-4.239
		C162.089,226.934,159.644,228.719,159.597,230.738L159.597,230.738z M159.597,230.738"/>
	<path d="M41.972,54.27c0.016-1.622-1.269-1.653-1.254-0.469c-0.105,5.941-5.132,8.867-8.785,8.176
		c-5.629-1.071-7.426-6.661-7.371-9.95c0.168-10.156,10.391-17.648,19.617-30.668c6.762,11.754,17.918,20.985,18.578,30.071
		c0.879,12.078-14.406,16.582-16.589,2.504c-0.141-0.993-1.313-1.442-1.219-0.051c0.328,3.859-0.141,5.465,4.211,14.976H37.781
		C40.3,64.414,41.804,58.957,41.972,54.27L41.972,54.27z M41.972,54.27"/>
	<path d="M131.199,54.27c0.012-1.622-1.27-1.653-1.254-0.469c-0.105,5.941-5.133,8.867-8.785,8.176
		c-5.629-1.071-7.426-6.661-7.371-9.95c0.168-10.156,10.391-17.648,19.617-30.668c6.758,11.754,17.918,20.985,18.578,30.071
		c0.879,12.078-14.406,16.582-16.59,2.504c-0.141-0.993-1.313-1.442-1.223-0.051c0.332,3.859-0.137,5.465,4.215,14.976h-11.379
		C129.527,64.414,131.027,58.957,131.199,54.27L131.199,54.27z M131.199,54.27"/>
	<path d="M86.922,94.367c0.011-1.621-1.27-1.648-1.254-0.469c-0.11,5.946-5.137,8.872-8.786,8.176
		c-5.628-1.07-7.425-6.656-7.371-9.949c0.164-10.156,10.387-17.645,19.614-30.668c6.761,11.754,17.917,20.984,18.578,30.07
		c0.879,12.078-14.406,16.582-16.59,2.508c-0.141-0.996-1.309-1.441-1.219-0.055c0.332,3.86-0.141,5.465,4.211,14.977H82.73
		C85.25,104.512,86.75,99.059,86.922,94.367L86.922,94.367z M86.922,94.367"/>
	<path d="M41.972,134.469c0.016-1.621-1.269-1.653-1.254-0.469c-0.105,5.94-5.132,8.867-8.785,8.176
		c-5.629-1.071-7.426-6.66-7.371-9.949c0.168-10.157,10.391-17.648,19.617-30.667c6.762,11.753,17.918,20.984,18.578,30.066
		c0.879,12.082-14.406,16.586-16.589,2.508c-0.141-0.996-1.313-1.442-1.219-0.051c0.328,3.854-0.141,5.465,4.211,14.973H37.781
		C40.3,144.613,41.804,139.156,41.972,134.469L41.972,134.469z M41.972,134.469"/>
	<path d="M131.199,134.469c0.012-1.621-1.27-1.653-1.254-0.469c-0.105,5.94-5.133,8.867-8.785,8.176
		c-5.629-1.071-7.426-6.66-7.371-9.949c0.168-10.157,10.391-17.648,19.617-30.667c6.758,11.753,17.918,20.984,18.578,30.066
		c0.879,12.082-14.406,16.586-16.59,2.508c-0.141-0.996-1.313-1.442-1.223-0.051c0.332,3.854-0.137,5.465,4.215,14.973h-11.379
		C129.527,144.613,131.027,139.156,131.199,134.469L131.199,134.469z M131.199,134.469"/>
	<path d="M131.21,195.047c0.012,1.621-1.27,1.652-1.258,0.469c-0.105-5.945-5.133-8.871-8.785-8.176
		c-5.625,1.07-7.422,6.656-7.371,9.949c0.168,10.156,10.391,17.645,19.617,30.668c6.762-11.754,17.918-20.984,18.578-30.07
		c0.879-12.078-14.406-16.582-16.59-2.504c-0.141,0.992-1.313,1.438-1.219,0.051c0.332-3.859-0.141-5.465,4.211-14.977h-11.379
		C129.539,184.902,131.039,190.354,131.21,195.047L131.21,195.047z M131.21,195.047"/>
	<path d="M86.929,155.604c0.012,1.622-1.269,1.653-1.254,0.47c-0.109-5.941-5.132-8.867-8.785-8.177
		c-5.629,1.071-7.425,6.661-7.371,9.95c0.164,10.156,10.391,17.648,19.613,30.668c6.762-11.75,17.918-20.984,18.583-30.066
		c0.875-12.078-14.41-16.586-16.59-2.509c-0.141,0.996-1.313,1.442-1.223,0.052c0.332-3.855-0.141-5.466,4.211-14.973H82.738
		C85.257,145.461,86.757,150.918,86.929,155.604L86.929,155.604z M86.929,155.604"/>
	<path d="M41.984,195.047c0.012,1.621-1.269,1.652-1.258,0.469c-0.105-5.945-5.133-8.871-8.781-8.176
		c-5.629,1.07-7.426,6.656-7.375,9.949c0.168,10.156,10.391,17.645,19.617,30.668c6.762-11.754,17.918-20.984,18.578-30.07
		c0.879-12.078-14.406-16.582-16.59-2.504c-0.14,0.992-1.312,1.438-1.218,0.051c0.332-3.859-0.141-5.465,4.211-14.977H37.793
		C40.312,184.902,41.812,190.354,41.984,195.047L41.984,195.047z M41.984,195.047"/>
	<path d="M14.261,57.574c0.008-0.695-0.718-0.371-0.816-0.152c-0.93,1.59-2.289,1.957-3.637,1.387
		c-1.336-0.567-2.086-1.825-1.965-3.618c0.25-2.75,2.43-5.761,3.485-7.461c1.004-1.546,2.101-3.378,3.262-5.726
		c1.359,2.691,2.046,3.457,3.523,5.914c1.301,2.164,3.113,4.285,3.254,6.898c0,1.989-0.836,3.868-2.719,4.207
		c-1.066,0.196-2.062-0.351-2.801-1.628c-0.226-0.325-0.679-0.157-0.672,0.289c0.129,1.675,0.762,3.187,2.262,4.968h-5.508
		C13.054,61.395,14.207,59.691,14.261,57.574L14.261,57.574z M14.261,57.574"/>
	<path d="M165.312,195.77c0.008,0.699-0.715,0.375-0.813,0.152c-0.934-1.586-2.293-1.957-3.641-1.383
		c-1.332,0.565-2.082,1.824-1.961,3.617c0.246,2.75,2.426,5.758,3.484,7.461c1,1.543,2.102,3.379,3.258,5.723
		c1.359-2.692,2.047-3.457,3.527-5.914c1.301-2.164,3.113-4.281,3.254-6.899c0-1.987-0.84-3.862-2.723-4.206
		c-1.063-0.191-2.063,0.355-2.801,1.629c-0.227,0.327-0.68,0.155-0.672-0.289c0.133-1.672,0.766-3.184,2.262-4.97h-5.508
		C164.109,191.953,165.257,193.656,165.312,195.77L165.312,195.77z M165.312,195.77"/>
</g>
</svg>
