<?xml version="1.0" encoding="utf-8"?>
<!-- Generator: Adobe Illustrator 15.0.0, SVG Export Plug-In . SVG Version: 6.00 Build 0)  -->
<!DOCTYPE svg PUBLIC "-//W3C//DTD SVG 1.1//EN" "http://www.w3.org/Graphics/SVG/1.1/DTD/svg11.dtd">
<svg version="1.1" id="Layer_1" xmlns="http://www.w3.org/2000/svg" xmlns:xlink="http://www.w3.org/1999/xlink" x="0px" y="0px"
	 width="178.582px" height="249.449px" viewBox="0 0 178.582 249.449" enable-background="new 0 0 178.582 249.449"
	 xml:space="preserve">
<g>
	<path fill="#FFFFFF" d="M170.078,249.449"/>
	<path d="M174.73,217.03v25.203h-2.492V217.03H174.73z"/>
	<path d="M164.867,242.233c2.395,0,4.32-2.148,4.32-4.816v-15.569c0-2.668-1.926-4.816-4.32-4.816h-1.398
		c-2.395,0-4.324,2.148-4.324,4.816v15.569c0,2.668,1.931,4.816,4.324,4.816H164.867z M164.145,239.851
		c-1.414,0-2.556-1.066-2.556-2.398v-15.777c0-1.332,1.142-2.406,2.556-2.406s2.555,1.074,2.555,2.406v15.777
		C166.699,238.784,165.559,239.851,164.145,239.851L164.145,239.851z"/>
	<path d="M3.851,33.18V7.973H6.34V33.18H3.851z"/>
	<path d="M13.715,7.973c-2.395,0-4.321,2.153-4.321,4.821v15.57c0,2.668,1.926,4.816,4.321,4.816h1.394
		c2.398,0,4.328-2.148,4.328-4.816v-15.57c0-2.668-1.93-4.821-4.328-4.821H13.715z M14.437,10.356c1.414,0,2.551,1.07,2.551,2.402
		v15.778c0,1.332-1.137,2.406-2.551,2.406c-1.418,0-2.555-1.074-2.555-2.406V12.758C11.882,11.426,13.019,10.356,14.437,10.356
		L14.437,10.356z"/>
	<path d="M42.948,54.816c0.012-1.617-1.269-1.648-1.254-0.468c-0.109,5.945-5.132,8.871-8.785,8.175
		c-5.629-1.07-7.426-6.656-7.371-9.949C25.702,42.418,35.929,34.93,45.15,21.91c6.762,11.75,17.918,20.981,18.582,30.067
		c0.875,12.078-14.41,16.585-16.589,2.507c-0.141-0.996-1.313-1.441-1.223-0.054c0.332,3.859-0.141,5.465,4.211,14.976H38.756
		C41.275,64.961,42.775,59.508,42.948,54.816L42.948,54.816z"/>
	<path d="M87.522,80.949c0.011-1.621-1.27-1.652-1.258-0.469c-0.106,5.946-5.133,8.872-8.785,8.176
		c-5.629-1.07-7.422-6.656-7.372-9.949c0.168-10.156,10.391-17.645,19.618-30.668c6.762,11.754,17.917,20.984,18.578,30.07
		c0.879,12.078-14.406,16.582-16.59,2.508c-0.141-0.996-1.313-1.441-1.219-0.055c0.328,3.86-0.142,5.465,4.211,14.977H83.327
		C85.847,91.094,87.351,85.641,87.522,80.949L87.522,80.949z"/>
	<path d="M132.175,54.816c0.012-1.617-1.27-1.648-1.254-0.468c-0.109,5.945-5.133,8.871-8.785,8.175
		c-5.629-1.07-7.426-6.656-7.371-9.949c0.164-10.156,10.391-17.644,19.613-30.664c6.762,11.75,17.918,20.981,18.578,30.067
		c0.879,12.078-14.406,16.585-16.586,2.507c-0.146-0.996-1.313-1.441-1.224-0.054c0.332,3.859-0.142,5.465,4.211,14.976h-11.375
		C130.503,64.961,132.003,59.508,132.175,54.816L132.175,54.816z"/>
	<path d="M132.175,107.082c0.012-1.621-1.27-1.652-1.254-0.469c-0.109,5.946-5.133,8.871-8.785,8.176
		c-5.629-1.07-7.426-6.656-7.371-9.949c0.164-10.156,10.391-17.645,19.613-30.668c6.762,11.754,17.918,20.984,18.578,30.07
		c0.879,12.078-14.406,16.582-16.586,2.504c-0.146-0.992-1.313-1.437-1.224-0.051c0.332,3.86-0.142,5.465,4.211,14.977h-11.375
		C130.503,117.227,132.003,111.77,132.175,107.082L132.175,107.082z"/>
	<path d="M42.948,107.082c0.012-1.621-1.269-1.652-1.254-0.469c-0.109,5.946-5.132,8.871-8.785,8.176
		c-5.629-1.07-7.426-6.656-7.371-9.949c0.164-10.156,10.391-17.645,19.613-30.668c6.762,11.754,17.918,20.984,18.582,30.07
		c0.875,12.078-14.41,16.582-16.589,2.504c-0.141-0.992-1.313-1.437-1.223-0.051c0.332,3.86-0.141,5.465,4.211,14.977H38.756
		C41.275,117.227,42.775,111.77,42.948,107.082L42.948,107.082z"/>
	<path d="M132.183,142.391c0.012,1.621-1.27,1.652-1.254,0.469c-0.109-5.944-5.133-8.87-8.785-8.176
		c-5.629,1.07-7.426,6.656-7.371,9.949c0.164,10.156,10.391,17.645,19.617,30.668c6.758-11.754,17.918-20.984,18.578-30.07
		c0.875-12.078-14.41-16.582-16.59-2.504c-0.141,0.992-1.313,1.438-1.223,0.051c0.332-3.858-0.142-5.465,4.215-14.977h-11.379
		C130.511,132.246,132.011,137.699,132.183,142.391L132.183,142.391z"/>
	<path d="M132.183,194.656c0.012,1.615-1.27,1.648-1.254,0.465c-0.109-5.941-5.133-8.867-8.785-8.172
		c-5.629,1.07-7.426,6.654-7.371,9.945c0.164,10.16,10.391,17.647,19.617,30.666c6.758-11.75,17.918-20.979,18.578-30.064
		c0.875-12.078-14.41-16.586-16.59-2.508c-0.141,0.994-1.313,1.441-1.223,0.055c0.332-3.859-0.142-5.465,4.215-14.979h-11.379
		C130.511,184.508,132.011,189.965,132.183,194.656L132.183,194.656z"/>
	<path d="M87.905,168.521c0.012,1.623-1.269,1.649-1.257,0.471c-0.106-5.945-5.133-8.871-8.786-8.178
		c-5.629,1.071-7.421,6.658-7.371,9.951c0.168,10.155,10.391,17.645,19.618,30.668c6.762-11.754,17.918-20.984,18.578-30.07
		c0.879-12.078-14.406-16.582-16.59-2.51c-0.141,0.998-1.313,1.442-1.219,0.057c0.328-3.859-0.141-5.465,4.211-14.977H83.709
		C86.229,158.379,87.732,163.832,87.905,168.521L87.905,168.521z"/>
	<path d="M42.956,142.391c0.012,1.621-1.269,1.652-1.254,0.469c-0.109-5.944-5.133-8.87-8.785-8.176
		c-5.629,1.07-7.426,6.656-7.371,9.949c0.164,10.156,10.391,17.645,19.617,30.668c6.758-11.754,17.918-20.984,18.578-30.07
		c0.879-12.078-14.406-16.582-16.59-2.504c-0.14,0.992-1.312,1.438-1.222,0.051c0.332-3.858-0.141-5.465,4.215-14.977H38.765
		C41.284,132.246,42.784,137.699,42.956,142.391L42.956,142.391z"/>
	<path d="M42.956,194.656c0.012,1.615-1.269,1.648-1.254,0.465c-0.109-5.941-5.133-8.867-8.785-8.172
		c-5.629,1.07-7.426,6.654-7.371,9.945c0.164,10.16,10.391,17.647,19.617,30.666c6.758-11.75,17.918-20.979,18.578-30.064
		c0.879-12.078-14.406-16.586-16.59-2.508c-0.14,0.994-1.312,1.441-1.222,0.055c0.332-3.859-0.141-5.465,4.215-14.979H38.765
		C41.284,184.508,42.784,189.965,42.956,194.656L42.956,194.656z"/>
	<path d="M11.065,52.058c0.008-0.699-0.714-0.371-0.812-0.152c-0.934,1.586-2.293,1.957-3.641,1.383
		c-1.332-0.567-2.082-1.824-1.961-3.617c0.246-2.75,2.426-5.758,3.485-7.461c1-1.543,2.101-3.375,3.261-5.723
		c1.356,2.692,2.047,3.457,3.524,5.914c1.301,2.164,3.113,4.281,3.254,6.899c0,1.988-0.836,3.863-2.719,4.207
		c-1.066,0.191-2.066-0.352-2.805-1.629c-0.226-0.324-0.679-0.157-0.672,0.289c0.133,1.676,0.766,3.187,2.266,4.969H8.733
		C9.862,55.875,11.015,54.176,11.065,52.058L11.065,52.058z"/>
	<path d="M166.38,198.566c0.008,0.699-0.719,0.371-0.816,0.152c-0.93-1.59-2.293-1.957-3.637-1.389
		c-1.336,0.571-2.086,1.826-1.965,3.621c0.25,2.75,2.43,5.76,3.483,7.461c1,1.543,2.103,3.375,3.263,5.725
		c1.358-2.691,2.047-3.457,3.522-5.914c1.301-2.164,3.113-4.281,3.254-6.898c0-1.987-0.836-3.862-2.719-4.207
		c-1.065-0.194-2.063,0.353-2.806,1.629c-0.223,0.324-0.676,0.156-0.672-0.289c0.133-1.676,0.767-3.188,2.267-4.969h-5.513
		C165.173,194.748,166.325,196.449,166.38,198.566L166.38,198.566z"/>
</g>
</svg>
