<?xml version="1.0" encoding="utf-8"?>
<!-- Generator: Adobe Illustrator 15.0.0, SVG Export Plug-In . SVG Version: 6.00 Build 0)  -->
<!DOCTYPE svg PUBLIC "-//W3C//DTD SVG 1.1//EN" "http://www.w3.org/Graphics/SVG/1.1/DTD/svg11.dtd">
<svg version="1.1" id="Layer_1" xmlns="http://www.w3.org/2000/svg" xmlns:xlink="http://www.w3.org/1999/xlink" x="0px" y="0px"
	 width="178.582px" height="249.449px" viewBox="0 0 178.582 249.449" enable-background="new 0 0 178.582 249.449"
	 xml:space="preserve">
<g>
	<path fill="#FFFFFF" d="M8.504,0"/>
	<path fill="#E2CF00" d="M81.707,227.69l18.566-33.897c0,0.008,4.496,1.723,9.754,3.086c-5.047,13.152-0.484,27.406-0.035,30.496
		C110.367,229.969,81.707,227.69,81.707,227.69L81.707,227.69z M30.672,169.762c-1.055-14.41-1.09-28.328,1.281-39.855
		c0.047-0.188-6.633-4.043-5.942-4.484c1.059-0.681,14.211-7.535,14.211-7.535s0.891,0.504,1.657,0.425
		c0.601-0.058,1.16-0.605,0.929-1.183c-0.551-1.375-1.531-4.797-0.945-8.238c0.34-1.977,1.414-4.153,2.523-5.489
		c2.481-2.968,8.141-1.398,9.786-1.449c1.043-0.031,4.203-11.074-0.829-13.121c-1.382-0.566-4.562,6.973-2.355,8.664
		c0.332,0.254-4.441-2.516-8.102-4.168c-0.339-0.152-1.832-1.301-2.168-2.82c-0.421-1.895,5.606-5.539,4.422-7.672
		c-1.722-3.109-6.175-7.762-8.082-6.484c-1.801,1.625-6.097,4.949-6.07,7.226c1.344,4.078,4.754,4.359,6.547,8.219
		c0.449,0.836,3.746,4.34,3.746,4.34c-1.238,1.89,0.766,5.199,0.859,4.691l-15.621-6.801c0,0,3.578,26.934-0.199,30.921
		c-0.402,0.423,3.344-1.058,3.406-0.827c1.141,1.44,13.754,9.461,17.367,12.344c6.411-8.942,8.754-12.875,17.02-20.809
		c1.812-1.5,5.855-4.238,8.168-7.527c1.859-2.645,2.629-5.621,2.297-7.93c-0.434-2.988-0.699-5.035-2.543-7.414
		c-4.262-5.504-11.039-10.75-10.922-10.848l2.316-1.882c0,0,8.364,6.91,11.903,11.996c2.386,3.422,1.316,7.351,3.371,8.054
		c0.496,0.168,3.871-0.113,4.98,0.098c0.137,0.027,24.594,17.285,20.161,18.281c-6.141,1.379-15.929,0.481-15.929,0.481
		c-6.989-6.82-10.364-9.067-14.528-6.93c0,0-10.554,9.235-16.648,16.461c-3.469,4.117-6.367,9.273-8.691,12.59
		c-0.895,1.277-12.102-9.492-11.989-8.199c1.664,11.718,2.614,25.84,1.324,35.41c-0.882,8.133-2.093,16.867-2.636,24.363
		c0,0,1.883-0.543,3.316-0.035c0.774,0.272,1.34,0.992,1.406,1.793c0.418,3.57-4.179,2.742-4.289,2.43
		c0.008,0,2.567,5.507,2.567,5.507s-3.981,6.868-3.871,6.571c0.07-0.184-3.621-6.098-3.621-6.098s2.8-4.941,3.152-5.97
		c0.211-0.616-4.039,2.043-4.367-1.812c-0.328-3.883,4.64-2.844,4.414-2.363C32.855,184.715,31.519,176.473,30.672,169.762
		L30.672,169.762z M89.167,187.104c-6.734-2.804-14.93-1.804-20.532-3.608c-2.281-1.145-5.078-1.539-7.238-1.31
		c-3.523,0.372-4.863,2.302-4.863,2.302l-10.813-10.074c0,0,3.793-33.992,9.45-40.892c1.785-2.175,7.656-2.358,8.242,4.974
		c0.23,2.867,8.269,8.434,16.285,15.819c10.176,9.375,23.203,19.618,24.043,20.164c0.461,0.302-12.586,11.688-12.789,12.043
		C90.378,187.522,90.429,187.565,89.167,187.104L89.167,187.104z M115.148,111.051c-12.824-13.067-39.66-36.43-39.66-36.43
		L88.05,62.363c6.594,1.965,13.372,3.606,21.032,3.684c0.031,0.031,8.395,3.805,12.852-0.012l11.598,9.188
		c0,0-4.809,25.285-7.633,34.113c0.059,3.496-1.43,7.984-4.934,8.223C118.015,117.762,115.96,114.035,115.148,111.051
		L115.148,111.051z M141.066,80.777c1.34-8.218,1.613-14.203,2.543-23.793c-5.949,1.59-5.801-6.16-0.023-4.05l-2.637-5.801
		l3.902-6.535l3.578,6.207l-3.082,5.5c6.406,0.316,4.863,6.261-0.656,4.824c1.039,9.187,3.332,18.469,3.219,27.551
		c2.031,14.593-1.207,35.492-1.707,35.32l6.25,4.293l-1.066,31.695l-9.867-4.324l-2.938,1.98c0.941,1.863,2.141,3.652,2.547,5.68
		c0,0,6.793,5.586,5.852,7.327c0.438,0.259-4.836,7.235-6.383,7.06c-2.957-0.332-6.41-4.141-7.359-6.856
		c-0.832-2.729,6.102-5.405,5.227-7.405c-1.043-2.388-3.688-3.535-6.027-4.238c-3.23-0.969-4.707-3.524-4.855-3.524
		c0,0-1.254,10.129-2.461,9.321c-4.859-3.258-1.535-13.594-0.633-13.305c0,0,2.121,0.483,4.629,0.723
		c8.832,0.926,8.234-9.93,6.523-15.184c-0.43-1.246,0.238-1.259,0.191-1.273c-0.41-0.141,1.43-0.039,2.988-0.496
		c4.289-1.266,10.863-5.625,10.863-5.625s-3.609-2.254-5.527-3.426c-5.188-3.176-13.082-8.676-13.082-8.676
		s-4.93,8.426-10.949,14.426c-4.406,4.398-9.453,9.82-12.418,11.488c-0.156,0.086-5.555,6.573-2.977,14.125
		c2.203,6.465,12.801,13.457,12.723,13.926l-2.086,1.992c-0.453,0-13.066-9.845-14.043-15.47c-0.238-1.362-3.223-1.679-7.035-4.554
		c-7.196-5.422-18.028-14.543-19.703-18.164c-0.356-0.766,0.566-0.563,2.316-0.598c4.449-0.094,13.918,0.238,13.918,0.238
		l8.645,7.059l5.406,0.281c0.352,0.309,0.547-1.426,5.305-4.977c9.094-6.777,20.359-24.18,20.359-24.18s11.91,8.371,11.922,8.375
		C141.308,105.414,139.671,91.699,141.066,80.777L141.066,80.777z M97.695,21.352c0,0-12.375,23.238-19.164,34.183l-9.613-2.758
		c4.027-10.687,0.168-31.054-0.844-31.566L97.695,21.352z M97.695,21.352"/>
	<path fill="#131F67" d="M23.851,20l0.731,209.246l129.929-0.082L154.136,20H23.851z M114.152,171.637
		c6.164-5.727,12.262-10.453,17.961-13.887c2.211-1.332,2.883-1.527,3.75-0.738c1.418,1.289,2.301,2.41,1.836,3.313
		c-0.102,0.203-0.438,0.543-0.438,0.543l-3.402-1.297l1.102,3.863c-3.063,1.246-3.008,4.559-0.051,6.316l-2.035,4.68l4.73-2.082
		c0.18,1.023,3.555,3.488,5.652,0.004l4.27,2.082l-1.473-5.227c1.402-1.336,2.223-3.474,0.016-5.438l1.016-4.098l-3.855,1.254
		c-0.969-1.321-1.531-1.23-1.75-1.59c-0.066-0.492-0.078-1.637-0.723-2.695c-0.527-0.875-1.137-1.801-1.703-2.454
		c-0.301-0.507-0.059-0.55,1.48-1.382c0.723-0.391,1.32-0.789,1.32-0.789s7.594,3.809,10.691,5.257l0.176,70.114l-41.645-0.121
		c-4.68-13.977-1.316-26.055-0.074-31.141c-2.184-0.18-13.445-3.828-13.785-5.082C101.679,183.957,107.734,177.52,114.152,171.637
		L114.152,171.637z M33.129,192.035c-5.434-1.754-5.489,4.785-2.715,5.293c0.722,0.129,1.472,0.237,2.597-0.125
		c0.282,0.059-3.254,5.48-3.254,5.48s2.829,5.137,4.184,7.32l4.277-7.586l-2.796-5.25c4.378,2.229,6.644-4.414,2.046-5.281
		c-1.109-0.153-2.336,0.402-2.336,0.402l2.418-22.724c1.95,1.325,5.504,3.981,5.504,3.981c0.809,12.519,0.215,22.953,7.215,41.164
		l0.074,12.676H26.308l-0.093-66.168l4.207,3.011c0.085,0.372-0.672,0.122-0.262,4.728
		C30.531,173.117,31.797,180.328,33.129,192.035L33.129,192.035z M119.425,21.941c0.191,0.274,0.18,0.688,0.344,1.239
		c0.973,3.242,4.355,7.132,7.051,8.156c0.941,0.359,1.309,0.902,0.762,1.445c-0.688,0.692-3.527-1.191-5.625-3.633
		c-1.902-2.218-3.176-4.054-3.457-5.445c-0.164-0.828-0.25-1.359-0.125-1.789C118.722,21.434,119.156,21.566,119.425,21.941
		L119.425,21.941z M122.785,21.594c0.359-0.004,0.836,0.418,1.125,1.179c0.691,1.836,1.777,3.207,3.473,4.395
		c0.449,0.312,0.629,0.785,0.402,1.059c-0.086,0.101-0.195,0.152-0.32,0.187c-1.324,0.371-4.809-3.66-5.086-6.16
		C122.32,21.707,122.507,21.594,122.785,21.594L122.785,21.594z M127.121,21.641c0.703,0,1.043,1.464,0.633,2.234
		c-0.266,0.242-0.848-0.129-1.367-1.094C125.941,21.953,126.121,21.645,127.121,21.641L127.121,21.641z M124.765,21.664
		c0.156-0.004,0.48-0.086,0.648,0.141c0.27,1.519,1.414,2.617,2.328,3.496c0.152,0.285,0.223,0.89-0.113,1.047
		c-0.797,0.351-3.207-2.383-3.223-3.969C124.402,21.902,124.546,21.672,124.765,21.664L124.765,21.664z M121.707,22.625
		c0.844,2.77,2.891,5.031,4.719,6.203c1.309,0.832,1.816,1.305,1.207,1.731c-0.148,0.105-0.301,0.187-0.336,0.179
		c-3.066-1.168-6.832-5.605-6.957-8.746C121.003,21.141,121.593,22.098,121.707,22.625L121.707,22.625z M111.105,34.648
		c-1.613,0.004-3.586,0.368-5.191,1.098c-2.227,1.012-2.789,1.684-2.461,1.926c0.234,0.172,1.668-0.442,2.387-0.535
		c3.883-0.961,6.559-1.2,9.086-0.094c1.957,0.852,1.969,0.461,0.656-0.961C114.628,35.055,112.929,34.645,111.105,34.648
		L111.105,34.648z M124.792,36.777c1.285-0.011,2.598,0.285,3.063,0.887c0.363,1.938-0.605,1.051-1.387,0.664
		c-1.125-0.519-2.418-0.969-3.621-0.785c-0.777,0.121-0.797,0.082-0.359-0.168C123.152,36.973,124.089,36.785,124.792,36.777
		L124.792,36.777z M109.57,37.531c-3.672,0.285-4.945,2.145-7.316,4.059c-0.973,0.742-0.754,1.312,0.434,1.121
		c1.465-0.242,2.059-0.184,4.055,0.496c2.184,0.746,3.746,1.055,4.945,0.594c2.27-0.871,2.074-0.727-1.168,2.414
		c-1.734,1.394-1.035,1.32,0.723,0.113c1.297-1.035,2.191-1.699,2.461-2.266c0.133-0.277,0.145-1.265,0.391-1.265
		c0.824,0,0.398-1.031-0.352-1.465c-0.492-0.352-0.383-0.719,0.254-1.395c1.004-1.05,0.664-1.527-0.426-0.871
		c-0.191,0.102-0.285-0.218-0.949-0.621C111.574,37.812,110.687,37.52,109.57,37.531L109.57,37.531z M112.218,38.91
		c0.887,0.746,0.508,0.953-1.43,0.934c-1.637-0.016-3.031,0.156-4.977,0.804c-2.207,0.731-2.344,0.75-1.047-0.355
		C106.55,38.773,110.175,37.246,112.218,38.91L112.218,38.91z M123.691,38.266c0.891-0.02,1.641,0.105,2.32,0.48
		c1.852,1.02,2.262,1.902,0.203,1.184c-1.293-0.453-3.039-0.391-4.242-0.055c-1.246,0.344-1.461,0.465-1.293-0.207
		C120.886,38.848,122.207,38.297,123.691,38.266L123.691,38.266z M109.14,41.273c0.438,2.2,2.105,1.481,2.27,0.153l0.609,0.004
		c-0.258,1.765-2.66,3.242-3.594-0.157C108.621,41.27,109.492,41.328,109.14,41.273L109.14,41.273z M122.437,41.312l0.453-0.015
		c0.297,1.683,1.863,2.234,2.543,0.129l0.547,0.011C125.562,44.953,121.843,43.238,122.437,41.312L122.437,41.312z M107.863,41.477
		c0.301,0.105,0.438,0.929,0.391,1.144c-0.105,0.453-1.578-0.027-1.891-0.469C106.671,41.828,107.398,41.312,107.863,41.477
		L107.863,41.477z M127.882,41.852l-0.004,0.613c-0.68,0.164-0.961,0.543-1.594,0.418c0.035-0.391-0.031-0.934,0.336-1.391
		C127.085,41.246,127.636,41.547,127.882,41.852L127.882,41.852z M113.058,42.562c-0.309,0.243-0.73,0.27-0.73,0.27
		c-0.066-0.59-0.168-1.254,0.566-1.258C113.378,41.715,113.343,42.312,113.058,42.562L113.058,42.562z M121.535,41.586
		c0.258,0.016,0.563,0.66,0.598,1.031c-0.074,0.617-1.59,0.371-1.59-0.238C120.542,42.117,121.175,41.586,121.535,41.586
		L121.535,41.586z M107.687,64.859c-1.168-0.586-10.027-5.968-12.297-15.488l-0.449,0.973c0.961,2.281,2.379,5.984,2.379,5.984
		c-0.059-0.32,0.363,2.477,1.266,7.231c-0.48,0.003-1.008-0.133-1.527-0.27c-1.168-4.352-1.445-7.762-2.426-12.019l-0.43,1.191
		c0,0,1.234,7.637,2.07,10.625c-0.477-0.047-1.359-0.242-1.359-0.242c-0.695-3.223-1.234-5.383-1.887-8.614l-0.605,0.782
		c0.867,2.648,1.203,5.019,1.641,7.562c-0.594-0.09-1.191-0.148-1.758-0.465c0,0-0.895-4.632-1.012-4.699
		c-0.344,0.344-0.484,0.785-0.484,0.785c-0.035-0.043,0.777,2.567,0.719,3.645c-0.57-0.094-1.555-0.379-2.25-0.613
		c-0.363,0.242-0.555,0.644-0.836,1.007c0.344,1.473,20.668,4.668,19.449,3.446c-0.008,0.129,8.961,3.925,13.969,0.699
		c0,0,8.707,6.457,12.105,9.035c0,0.293,1.18,1.66,2.406,2.531l3.445,2.653c1.004,0.781,1.402,0.214,1.555-1.25
		c0.168-1.629,1.355-12.625,1.633-14.969c1.035-7.902,1.031-7.817-0.168-7.453c-1.832,0.554-3.484-0.168-3.484-2.043
		c0-1.149,0.531-2.098,1.754-2.543c0.348-0.117,0.801-0.129,1.32-0.117c0.234,0.043,0.676,0.07,0.723,0.078
		c0.582-0.031-2.262-5.184-2.262-5.184s2.719-4.847,4.027-6.652l3.52,6.379l-2.883,5.625c5.613-0.422,5.066,6.636-0.43,4.273
		c0,0-0.035,2.094-0.023,1.942c0.055-0.602,0.047-1.114,0.234-1.227c5.324,2.02,6.41-5.746,0.672-5.387
		c0.945-1.644,1.996-3.347,2.977-5.16l-4.148-7.563l-4.684,7.797l2.355,4.863c-0.527-0.137-0.953-0.051-1.52,0.004
		c-3.477,0.715-2.727,6.3,1.242,5.535c0.453-0.09,1.133-0.434,1.133-0.434l-2.563,22.828c0,0-0.25,0.207-1.281-0.535
		c-1.188-0.855-3.676-2.715-3.832-2.906c0.887-14.594-2.762-29.949-6.93-39.563c-0.266-0.738-0.109-15.218-0.109-15.218
		l23.637,0.062l0.09,67.246c-1.238-0.781-2.574-1.812-3.844-2.707c-0.383-0.308-0.617-0.675-0.457-1.261
		c-0.414,0.894-0.164,1.277-0.164,1.277l5.219,4.168l-0.207,66.18c0,0-8.426-4.34-13.613-6.438c-2.34-0.953-2.445-0.681-2.445-0.681
		c0.008-0.004,1.656,3.712,1.184,4.384c1.117,1.07,2.992,3.316,3.082,5.512c1,0.863,1.277,0.973,2.027,2.215l3.133-1.129
		l-0.711,3.262c3.328,2.328,0.121,5.464-0.496,5.175c0,0,1.469,3.153,1.805,4.587c-0.523-0.035-3.16-1.466-3.895-1.805
		c-1.91,3.762-5.137,0.605-5.164,0.05l-3.578,1.595l1.266-4.074c-2.305-1.402-3.859-3.521-0.133-5.801l-0.863-3.181l3.066,1.207
		c0,0,0.57-0.917,1.008-1.589c-1.148-4.993-8.684-4.047-11.105-8.536c0,0-0.594,5.603-1.203,7.629
		c-0.238,5.364-3.996-0.058-3.996-5.729c0-1.281,1.609-5.586,2.156-5.797c0.566-0.078,5.945,2.522,9.559-0.063
		c1.645-1.711,4.48-6.523,1.758-14.059c-0.902-1.738,1.715-1.961,2.563-1.371c0,0,7.863-4.113,11.414-6.094
		c-5.957-3.273-18.336-11.976-18.328-12.391c-1.652,2.622-3.543,4.821-6.203,8.532c-4.313,5.074-7.684,9.898-13.152,13.953
		c-7.695,5.605-9.504,11.242-7.355,17.863c0.867,2.859,2.617,5.762,5.48,6.766c1.457,1.472,7.309,7.015,7.309,7.015
		c-9.77,8.896-16.477,16.211-21.184,24.298c3.973,2.086,13.547,5.109,13.547,5.109c-3.555,11.824-1.938,21.214,0.406,30.641
		c0,0-27.796,0.034-42.223-0.418c-0.125,0.12-1.684,0.038-1.707-0.063c-0.055-1.055,2.601-3.949,3.394-3.547
		c0.461-0.293,1.407-0.336,1.094-1.078c-1.992-0.235-5.012,3.203-5.129,4.625h-1.187c-0.246-0.211,2.152-5.809,6.957-6.254
		c-0.188,0.027,1.347-1.012,0.125-0.707c-5.602,0.664-8.211,6.875-8.047,6.961h-0.863c1.902-6.11,6.863-8.039,9.73-8.305
		c0.031,0.137,0.934,0.215,0.692-0.863c-6.344,1.101-9.504,3.847-11.032,9.168h-1.14c0.824-5.399,6.375-10.125,12.652-9.969
		c0.238,0.125,1.172,0.477,0.332-0.888c-6.961,0.785-10.437,3.11-13.297,9.091c-2.558-6.641-9.672-9.793-9.758-9.82
		c0,0-0.172-1.86,0.227-1.785c6.066,2.199,8.383-3.071,8.133-6.133c-0.145-1.703-0.047-2.641-0.617-5.098
		c-0.508-2.188-0.883-3.664-0.844-4.613c0.039-0.941,0.336-1.133,1.031-1.445c1.301-0.59,2.113-2.727,1.824-2.989
		c-0.668,1.556-2.433,1.821-3.25,2.868c-0.648,0.859-0.363,2.227,0.793,6.977c0.707,2.895-0.129,1.566-1.773,0.66l-1.102-0.625
		c0.738,0.758,1.52,1.473,2.27,2.215c0.672,0.617,0.297,0.996-0.668,0.641c-1.391-0.696-4.067-0.403-5.09,0.468
		c-0.399,0.286-0.543,0.254-0.641-0.007c-0.449-7.379,0.325-11.918,2.77-17.465c1.582-3.77,3.933-6.59,7.07-6.793
		c3.164-0.262,7.711,0.848,11.84,3.652c4.848,3.293,9.574,8.301,10.074,14.445c0.02,0.07,0.375-0.527,0.535-0.84
		c0.223-0.73-0.586-2.926-1.851-5.469c-0.235-1.914-0.891-5.266-1.406-7.535c0.39-0.18,1.23-0.078,1.464,0.207
		c0.887,3.75,1.52,6.672,2.282,11.699c0.011,0.488,0.64-0.728,0.64-1.051c-0.109-0.75-2.203-10.582-2.16-10.359
		c0.012-0.336,1.988,0.105,1.715,0.414c0,0,1.504,8.25,1.609,7.996l0.508-0.699c0,0-1.433-6.028-1.254-7.188
		c0.121-0.18,1.231,0.184,1.582,0.37c0.446,0.595,0.727,2.743,0.914,4.212c0.512,0.391,0.614-0.738,0.575-1.035
		c-0.372-0.586-0.758-2.763-0.469-2.875c0.23-0.086,1.504,0.418,1.75,0.637c0.285,0.254,1.395-1.281,1.113-1.547
		c-6.004-2.301-13.578-3.642-19.281-3.734c-1.324,0.007-1.848-0.18-3.879-0.914c-5.176-1.868-9.453-0.008-10.078,0.586
		c-6.321-4.391-13.371-10.52-18.985-14.434c-0.261-0.176-0.894-0.277-0.961-0.277c-0.89,6.809-1.515,14.688-2.273,20.973
		c-0.309,2.488-0.344,2.684-0.23,2.754c0.097,0.059,0.293-0.039,0.371-0.078c1.847-0.685,3.515-0.238,4.398,1.43
		c0.445,2.386-1.641,3.957-3.844,2.824c-0.816-0.422-0.933-0.34-0.558,0.457c0.64,1.434,2.5,5.203,2.5,5.203
		c0.004,0.004-2.508,5.121-3.778,6.516c-1.238-2-2.816-4.02-3.5-6.203c0.969-1.902,2.809-4.352,3.387-6.227
		c-0.082-0.063-0.582-0.008-0.93,0.172c-3.21,1.519-3.726-1.34-3.683-2.367c0.086-2.09,1.906-2.535,4.551-1.563
		c-2.86-18.984-3.469-29.805-2.739-28.634c0,0-3.453-2.464-5.168-4.14l-0.152-138.27l41.297,0.063
		c4.211,11.289,3.051,24.863,0.535,31.929c4.473,0.817,8.984,1.872,14.086,4.801C72.91,71.082,59.382,84.738,44.73,93.48
		c-0.832,0.375-3.558-1.328-3.879-3.007c-0.078-0.391,0.141-1.164,0.578-1.149c1.078,0.352,2.121,0.828,3.172,1.258
		c0,0-1.465-3.672-0.758-4.23c0.461-0.305,0.836-0.555,1.133-0.868c1.051-1.355,0.965-2.898-0.148-4.082
		c-0.449-0.472-0.969-0.797-1.231-0.914c0,0,1.032-2.867,1.551-4.218l-4.066,1.343c-1.317-1.824-3.739-3.242-5.528-0.527
		c-0.339,0.726-0.269,0.613-2.789-0.5c-1.425-0.629-2.304-0.953-2.304-0.953c0.535,1.594,1.234,3.09,1.847,4.933
		c-2.801,1.786-2.164,4.797,0.196,5.696l-1.243,4.066c0,0,2.649-0.984,4.082-1.371c0,0,1.262,1.266,1.633,2.469
		c0.641,2.062,2.094,3.554,3.016,4.406c-1.535,1.125-2.289,1.5-4.016,2.332l5.957,2.406c-0.371-1.261-1.16-2.195-1.238-3.785
		c-0.07-1.367-0.148-1.39-1.031-2.313c-1.442-1.246-1.66-2.911-2.469-4.27c-0.566-0.34-1.016-1.027-1.438-1.797
		c-0.906,0.086-2.953,1.102-3.343,0.739c-0.473-0.508,0.824-3.106,0.683-3.368c-1.047-0.086-3.976-2.371-0.488-4.914l-1.113-4.133
		c0,0,2.656,1.161,3.929,1.809c0.883-4.129,4.915-2.148,5.567-0.367c0,0,3.195-1.051,2.996-0.199
		c-0.09,0.765-0.609,2.675-0.609,2.675c2.875,2.543,2.281,3.793-0.055,5.461c-0.035,1.348,0.531,3.446,0.531,3.446
		s-1.625-0.723-2.695-1.028c-0.43,0.43-0.914,1.203-0.836,1.602c0.726,3.215,4.691,4.109,10.566,7.398
		c0.203-2.078,1.637-4.918,1.797-7.41c0.102-1.816,0.164-1.847,1.445-1.265c3.364,2.429,2.336,9.109,1.11,11.851
		c-0.727,1.551-0.844,1.512-2.258,1.063c-1.957-0.625-5.414-0.371-7.316,0.273c-2.629,1.078-3.871,6.945-3.903,8.727
		c-0.043,1.695,0.086,3.375,0.977,5.468c0.367,1.336-0.309,2.371-1.516,2.012c-0.273-0.082-0.918-0.328-0.918-0.328l-11.355,5.875
		l2.14,1.258c0,0-1.578-0.942-0.601-1.453l9.738-5.078c1.813,0.707,1.57,0.851,2.746-0.375c0.703-0.723,1.051-0.739,1.992-0.649
		c5.743,0.551,8.282-0.285,9.278-2.691c0.148-0.36,0.09-0.348,0.676-0.645c1.085-0.422,1.597-1.183,1.652-2.144
		c0.035-0.629,0.308-0.715,0.789-1.153c0.891-0.82,1.074-1.847,0.512-2.906c-0.266-0.496-0.469-0.652-0.36-1.168
		c0.184-0.863-0.133-1.766-0.965-2.715c-0.957-1.097-0.949-0.91,0.852-2.586c3.535-3.363,6.648-5.933,10.086-8.976
		c2.352-2.078,2.098-1.93,3.016-0.977c3.367,3.504,4.691,8.965,3.171,13.77c-0.07,0.226-0.101,0.199,0.075,0
		c0.953-1.082,0.98-6.52,0.164-8.93c-0.992-2.961-1.953-4.504-5.239-7.406c-2.05-1.852-7.628-7.196-7.628-7.196
		c8.117-7.039,16.859-15.789,21.761-23.832c-2.515-2.699-14.176-5.187-14.176-5.187c1.45-3.012,4.321-16.539-0.593-31.543
		l41.898,0.484l1.492,0.102c0,0,0.223-0.086,0.344-0.117c0.402-0.106,0.602,0.179,0.504,0.629c-0.309,1.144-1.988,3.824-3.176,3.601
		c-0.527-0.203-0.379,0.813-0.613,1.235c1.867-0.243,4.059-2.61,4.609-4.958c0.301-0.492,0.496-0.574,0.797-0.48
		c0.344,0.109,0.258,0.438-0.117,1.574c-1.172,2.84-3.543,5.477-6.301,5.215l-0.359,0.965c3.723-0.059,6.602-3.547,7.449-6.156
		c0.594-1.551,0.617-1.762,1.215-1.614c0.492,0.457,0.188,1.114,0.02,1.653c-1.871,5.976-7.008,7.574-9.566,7.316
		c0.305-1.273-0.691,0.031-0.27,0.742c5.496,0.364,9.875-4.375,10.492-8.437c0.301-1.129,0.824-1.512,1.125-0.996
		c0.172,0.453,0.113,0.918,0.031,1.351c-1.504,6.414-8.34,10.055-12.52,9.016c-0.32-0.242-1.785,0.453-0.051,1.023
		c8.434-0.32,11.039-4.672,12.961-8.515c2.297,3.461,4.172,7.031,9.672,9.129c0,0,0.547,1.207,0.117,1.476
		c-0.23,0.145-0.578,0.078-1.082-0.004c-6.703-1.082-8.922,5.18-6.066,14.539c0.781,2.563,0.43,2.172-1.238,3.774
		c-0.797,0.765-1.176,2.121-0.965,2.152c0.285-0.16,0.379-0.601,1.074-1.176c0.305-0.254,0.926-0.492,1.387-0.808
		c1.238-0.719,1.227-1.211,0.781-2.91c-0.328-1.266-1.172-5.11-1.172-5.5c-0.004-0.739,0.172-0.661,1.094,0
		c1.285,0.957,2.016,0.886,0.457-0.336c-0.602-0.473-0.992-0.84-1.176-1.106c-0.246-0.363-0.094-0.597,0.406-0.437
		c2.313,0.722,4.293,0.672,6.535-0.696c0.258,6.176-0.594,15.543-5.766,22.239C118.093,69.637,110.496,66.266,107.687,64.859
		L107.687,64.859z M113.765,50.672c-0.152,0.004-0.707,0.121-1.051,0.316c-1.523,0.871-1.16,3.969,0.504,4.379
		c0.668,0.168,1.277,0.258,2.398-0.277c0.672-0.32,1.609-0.57,1.871-0.461c0.551,0.23,0.727-0.258,0.844-0.809
		c0.266-1.23-1.754-1.258-3.359,0.012c-2.027,1.605-3.578-0.762-1.672-2.547C113.937,50.875,113.917,50.664,113.765,50.672
		L113.765,50.672z M98.027,57.293l1.703,1.965l1.066,4.687c-0.648,0.11-1.434-0.25-1.434-0.25
		C98.832,61.574,98.312,59.453,98.027,57.293L98.027,57.293z M121.203,58.473c-0.02,0-0.039,0.007-0.059,0.015
		c-0.07,0.032-0.391,0.172-0.828,0.223c-0.254,0.027-0.637-0.152-0.906-0.137c-0.746,0.047-1.441,0.266-1.629,0.344
		c-0.23,0.094-0.453,0.137-0.648,0.019c-0.555-0.328-2.176-0.234-2.668,0.055c-0.582,0.246-1.238,0.25-1.715,0.004
		c-0.207-0.105-0.418-0.375-0.453-0.34c-0.078,0.078-0.387,1.403-0.48,1.918c0,0.18-0.125,0.481-0.051,0.512
		c0.094,0.035,0.398-0.242,0.777-0.434c0.773-0.394,1.637-0.363,3.152,0.008c1.875,0.461,2.605,0.328,3.711-0.238
		c0.879-0.449,1.414-0.555,2-0.395c0.145,0.039,0.527,0.239,0.582,0.188c0.102-0.098-0.184-0.656-0.426-1.203
		C121.386,58.613,121.324,58.457,121.203,58.473L121.203,58.473z M100.992,60.586c1.645,1.559,1.523,1.426,2.559,2.195l-0.047,1.504
		c0,0-1.273,0.027-1.898-0.164C101.41,63.535,100.554,60.602,100.992,60.586L100.992,60.586z M114.527,61.598
		c0.109,0.074,0.273,0.156,0.496,0.23c2.617,0.984-0.121,0.734-0.383,1.672c0,0.082,0.121,0.098,0.25,0.047
		c0.898-0.356,3.094-0.582,4.09-0.391c1.297,0.438,1.379,0.137,0.133-0.515c-0.914-0.36,0.195-0.602,0.566-0.918
		c0.773-0.496,0.242-0.7-0.742-0.227c-0.988,0.469-2.742,0.465-3.539,0.016c-0.355-0.18-0.699-0.348-0.863-0.36
		C114.199,61.141,114.378,61.492,114.527,61.598L114.527,61.598z M104.214,63.277l1.535,1.2l-1.57-0.149L104.214,63.277z
		 M69.496,93.391c-0.309,0-0.563,0.254-0.563,0.562c0,0.309,0.254,0.563,0.563,0.563c0.308,0,0.563-0.254,0.563-0.563
		C70.058,93.645,69.804,93.391,69.496,93.391L69.496,93.391z M71.543,93.957l-7.032,3.34l1.856,0.621l-0.012,1.922l1.711-0.543
		l0.723,1.797L71.543,93.957z M71.851,95.531c-0.308,0-0.558,0.25-0.558,0.559c0,0.312,0.25,0.562,0.558,0.562
		c0.313,0,0.563-0.25,0.563-0.562C72.414,95.781,72.164,95.531,71.851,95.531L71.851,95.531z M62.937,98.945
		c-0.308,0-0.558,0.25-0.558,0.559c0,0.308,0.25,0.562,0.558,0.562c0.313,0,0.563-0.254,0.563-0.562
		C63.5,99.195,63.25,98.945,62.937,98.945L62.937,98.945z M65.101,99.988l-7.894,3.629l2.34,0.711l-0.618,2.406l1.907-0.8
		l1.062,1.617L65.101,99.988z M65.332,101.715c-0.309,0-0.563,0.254-0.563,0.562c0,0.309,0.254,0.563,0.563,0.563
		c0.308,0,0.558-0.254,0.558-0.563C65.89,101.969,65.64,101.715,65.332,101.715L65.332,101.715z M49.672,102.078
		c2.968-0.004,6.296,1.125,7.433,3.664c0.301,1.27-0.945,2.028-3.613,1.297c-4.406-1.211-5.231-1.344-4.496-0.598
		c0.097,0.102,0.289,0.344,0.949,0.567c1.66,0.566,4.875,1.222,5.738,1.133c1.188-0.161,2.004,0.394,1.711,1.379
		c-0.336,1.121-1.875,1.582-4.187,1.253c-2.395-0.336-3.711-0.613-4.508-0.851c-1.02-0.309-1.059-0.285-0.574,0.433
		c0.254,0.375,0.277,0.672,0.652,0.743c1.578-0.09,3.262,0.214,4.715,0.351c2.605,0.231,3.015,0.969,1.101,2.098
		c-0.906,0.535-3.621,0.39-5.164-0.164c-1.101-0.399-3.629-0.965-2.652-0.196c0.234,0.184,0.152,0.637,0.559,0.782
		c1.336,0.183,5.117,0.449,5.707,0.98c0.379,0.348-0.477,1.219-2.243,1.676c-2.652,0.504-6.621,0.293-7.671-0.422
		c-1.942-3.953-0.895-10.426,2.144-12.953C46.242,102.492,47.89,102.078,49.672,102.078L49.672,102.078z M67.074,104.137
		c-0.309,0-0.555,0.254-0.555,0.562c0,0.309,0.246,0.559,0.555,0.559c0.312,0,0.562-0.25,0.562-0.559
		C67.636,104.391,67.386,104.137,67.074,104.137L67.074,104.137z M69.418,104.738l-8.149,4.059l2.063,0.613l-0.489,2.371
		l1.911-0.789l1.156,1.598L69.418,104.738z M69.484,106.723c-0.312,0-0.562,0.254-0.562,0.563c0,0.309,0.25,0.563,0.562,0.563
		c0.309,0,0.559-0.254,0.559-0.563C70.043,106.977,69.793,106.723,69.484,106.723L69.484,106.723z M74.222,111.508
		c-3.613,3.519-7.687,6.304-11.406,9.719l0.805-0.032l2.027-1.828l57.09-0.18l-1.336,1.946l0.563,0.242c0,0,1.711-2.531,1.594-2.648
		c-12.543,0.039-22.223,0.007-35.984,0.101c-2.504-2.48-5.156-4.808-7.777-7.168L74.222,111.508z M56.871,113.766
		c-0.313,0-0.563,0.25-0.563,0.558c0,0.313,0.25,0.563,0.563,0.563c0.308,0,0.554-0.25,0.554-0.563
		C57.425,114.016,57.179,113.766,56.871,113.766L56.871,113.766z M131.398,114.195c4.934,3.66,10.773,8.149,15.625,10.813
		c1.941,0.844,1.754,1.129-0.219,2.063c-1.941,1.207-5.168,2.758-7.859,4.116c-1.168,0.438-1.68-0.136-2.508,0.021
		c-0.594,0.151-0.766,0.262-1.121,0.733c-0.582,0.771-0.426,0.743-3.543,0.603c-3.148-0.141-4.445-0.07-5.121,0.272
		c-0.648,0.332-1.766,1.466-1.766,1.938c0,0.449-0.355,1.031-1.004,1.226c-0.754,0.185-1.625,0.782-1.59,1.707
		c-0.199,0.7-0.629,1.009-1.008,1.392c-0.895,0.901-0.805,1.617-0.547,2.457c0.121,0.375,0.305,0.289,0.211,1.401
		c-0.215,2.547-0.391,2.333,2.34,4.22l-13.938,12.145c-0.324,0.254-0.418,0.23-0.715,0.027c-1.699-1.263-2.883-3.349-3.563-5.434
		c-2.355-6.488,0.52-11.816,4.34-15.074c1.324-1.134,3.105-2.477,3.598-2.816C120.207,129.867,126.464,121.176,131.398,114.195
		L131.398,114.195z M58.949,114.668l-7.969,3.762l2.567,0.433l-0.489,2.215l1.86-0.703l0.98,1.871L58.949,114.668z M59.437,116.426
		c-0.308,0-0.562,0.254-0.562,0.562c0,0.309,0.254,0.559,0.562,0.559c0.309,0,0.559-0.25,0.559-0.559
		C59.996,116.68,59.746,116.426,59.437,116.426L59.437,116.426z M132.445,118.895l-0.906-2.141c0,0-2.516,6.199-3.051,8.301
		c2.133-1.098,8.379-4.278,8.379-4.278l-2.672-0.496l0.301-2.429L132.445,118.895z M41.433,119.277c-0.313,0-0.563,0.25-0.563,0.559
		c0,0.312,0.25,0.562,0.563,0.562c0.309,0,0.563-0.25,0.563-0.562C41.996,119.527,41.742,119.277,41.433,119.277L41.433,119.277z
		 M43.871,119.789c0,0-5.926,2.781-8.602,3.981l2.496,0.523l-0.437,2.43l2.254-0.879l0.91,2.402L43.871,119.789z M44.191,121.621
		c-0.312,0-0.562,0.254-0.562,0.563c0,0.308,0.25,0.558,0.562,0.558c0.309,0,0.559-0.25,0.559-0.558
		C44.75,121.875,44.5,121.621,44.191,121.621L44.191,121.621z M128.085,122.027c-0.309,0-0.559,0.246-0.559,0.559
		c0,0.309,0.25,0.559,0.559,0.559c0.313,0,0.559-0.25,0.559-0.559C128.644,122.273,128.398,122.027,128.085,122.027L128.085,122.027
		z M137.781,122.535l-2.82,7.84l7.629-3.84l-2.07-0.566l0.012-1.942l-1.707,0.496L137.781,122.535z M47.59,124.418
		c-0.309,0-0.563,0.254-0.563,0.562c0,0.31,0.254,0.563,0.563,0.563c0.312,0,0.562-0.254,0.562-0.563
		C48.152,124.672,47.902,124.418,47.59,124.418L47.59,124.418z M131.058,124.562c-0.309,0-0.555,0.25-0.555,0.563
		c0,0.309,0.246,0.555,0.555,0.555c0.313,0,0.563-0.246,0.563-0.555C131.621,124.812,131.371,124.562,131.058,124.562
		L131.058,124.562z M49.929,125.137l-8.086,3.945l2.512,0.586l-0.277,2.527l2.043-1.16l1.105,2.305L49.929,125.137z M50.437,126.805
		c-0.312,0-0.531,0.254-0.531,0.563s0.25,0.559,0.562,0.559c0.309,0,0.555-0.25,0.555-0.559S50.746,126.805,50.437,126.805
		L50.437,126.805z M134.527,127.301c-0.309,0-0.563,0.254-0.563,0.563s0.254,0.559,0.563,0.559s0.563-0.25,0.563-0.559
		S134.835,127.301,134.527,127.301L134.527,127.301z M123.382,129.879l-0.75-2.109l-2.992,7.742l8.047-3.688l-2.555-0.598
		l0.047-2.023L123.382,129.879z M115.21,128.215c-0.094-0.008-0.176,0.019-0.176,0.078c0,0.18-2.055,2.187-2.055,2.187
		l-23.746,0.224c0.047,0,1.977,0.535,1.977,0.535c3.113,2.488,7.996,6.902,7.996,6.902l5.895-0.234
		c3.266-3.203,8.172-5.641,10.359-9.602C115.406,128.254,115.3,128.219,115.21,128.215L115.21,128.215z M137.468,129.809
		c-0.309,0-0.563,0.253-0.563,0.563c0,0.309,0.254,0.559,0.563,0.559s0.559-0.25,0.559-0.559
		C138.027,130.062,137.777,129.809,137.468,129.809L137.468,129.809z M119.136,132.512c-0.309,0-0.555,0.25-0.555,0.559
		s0.246,0.563,0.555,0.563c0.313,0,0.563-0.254,0.563-0.563S119.449,132.512,119.136,132.512L119.136,132.512z M131.191,133.324
		c1.703-0.013,3.344,0.047,3.77,0.371c2.629,2.215,1.383,12.57-1.934,13.879c-3.641,0.82-6.156,0.969-9.316-1.113
		c-0.895-0.438-2.672-1.758-2.324-2.844c0.473-1.341,1.773-1.242,5.504-0.082c1.363,0.422,2.109,0.336,2.457,0.073
		c0.328-0.25-0.098-0.526-0.793-0.526c-0.281-0.004-1.488-0.301-2.496-0.609c-1.418-0.438-1.828-0.566-2.746-0.618
		c-1.543-0.093-1.992-0.151-1.992-1.097c0-1.766,2.453-1.996,6.969-0.961c0.539,0.121,1.516,0.258,1.758,0.254
		c0.172,0.066-0.344-0.586-0.434-0.977c-0.16-0.138-0.453-0.203-1.223-0.23c-2.902-0.285-5.313-0.48-5.363-0.86
		c-0.258-1.866,3.496-2.375,7.391-0.879c1,0.388,1.02,0.228,1.012-0.062c-0.012-0.539-1.688-1.481-4.156-1.453
		c-2.398,0.023-2.066-1.195-0.09-2.113C127.855,133.164,129.492,133.332,131.191,133.324L131.191,133.324z M121.906,135.324
		c-0.309,0-0.555,0.25-0.555,0.563c0,0.309,0.246,0.559,0.555,0.559c0.313,0,0.563-0.25,0.563-0.559
		C122.468,135.574,122.218,135.324,121.906,135.324L121.906,135.324z M113.257,139.199l-0.508-2.095l-3.27,8.142l8.254-4.203
		l-2.723-0.508l0.238-1.715L113.257,139.199z M109.05,142.469c-0.309,0-0.563,0.25-0.563,0.558c0,0.313,0.254,0.563,0.563,0.563
		s0.559-0.25,0.559-0.563C109.609,142.719,109.359,142.469,109.05,142.469L109.05,142.469z M117.273,144.777l-0.695-1.98
		l-2.773,7.086l7.039-3.145l-2.078-0.566l0.293-2.149L117.273,144.777z M111.667,144.797c-0.309,0-0.563,0.254-0.563,0.562
		c0,0.31,0.254,0.563,0.563,0.563s0.559-0.254,0.559-0.563C112.226,145.051,111.976,144.797,111.667,144.797L111.667,144.797z
		 M113.468,147.504c-0.309,0-0.559,0.246-0.559,0.558c0,0.31,0.25,0.56,0.559,0.56c0.313,0,0.559-0.25,0.559-0.56
		C114.027,147.75,113.781,147.504,113.468,147.504L113.468,147.504z M109.929,149.164l-2.375,6.711l6.617-3.203l-1.934-0.637
		c0,0,0.105-1.513-0.078-1.441c-0.113,0.047-1.359,0.395-1.359,0.395L109.929,149.164z M115.82,149.965
		c-0.309,0-0.563,0.25-0.563,0.558c0,0.31,0.254,0.563,0.563,0.563s0.563-0.254,0.563-0.563
		C116.382,150.215,116.128,149.965,115.82,149.965L115.82,149.965z M107.05,153.195c-0.313,0-0.563,0.25-0.563,0.559
		c0,0.312,0.25,0.562,0.563,0.562c0.309,0,0.559-0.25,0.559-0.562C107.609,153.445,107.359,153.195,107.05,153.195L107.05,153.195z
		 M109.578,155.789c-0.309,0-0.563,0.25-0.563,0.559s0.254,0.563,0.563,0.563s0.563-0.254,0.563-0.563
		S109.886,155.789,109.578,155.789L109.578,155.789z M74.683,186.699c-0.304,0.047-1.093-0.672-1.246-1.013
		c0.449-0.112,0.914-0.03,1.164,0.181C74.808,186.065,74.957,186.57,74.683,186.699L74.683,186.699z M77.078,186.215
		c-0.11,0.82,0.398,2.305,0.304,2.656c-0.261,0.125-1.578-1.285-1.902-1.629c-0.066-0.47,0.004-1.063,0.031-1.332
		C75.965,185.832,76.765,185.858,77.078,186.215L77.078,186.215z M79.449,186.625c0.277,1.815,1.078,4.738,0.953,5.723
		c-0.117-0.094-1.133-1.094-1.883-2.157c-0.262-0.636-0.672-2.847-0.637-3.905C78.386,186.215,79.066,186.297,79.449,186.625
		L79.449,186.625z M63.57,186.418c-0.809,0.414-1.73,0.711-2.887,0.707c-0.926-0.004-2.52-0.484-2.359-0.367
		c0.422,0.754,1.523,0.359,1.547,0.851c-0.278,0.489-1.008,0.442-1.371,0.907c-0.078,0.125,0.105,0.23,0.621,0.175
		c1.566-0.711,3.609-0.698,5.48-0.082c0.395,0.082,0.137-0.297,0.004-0.394c-0.246-0.18-0.644-0.367-0.984-0.406
		c-1.633-0.289-0.918-0.457,0.176-0.945C64.601,186.57,64.8,185.852,63.57,186.418L63.57,186.418z M67.109,188.727
		c-0.215,0.02-0.762,0.293-1.355,0.535c-1.008,0.406-1.942,0.313-3.293-0.066c-1.18-0.324-1.606-0.234-2.778,0.355
		c-0.777,0.496-1.629,0.636-2.242,0.289c-0.801-0.453-0.793-0.297-0.398,0.824c0.097,0.276-0.098,1.125,0.25,1.319
		c0.265,0.153,0.57-0.343,0.773-0.413s1.488,0.508,2.203-0.125c1.278-0.466,1.664,0.284,2.547,0.215
		c1.438-0.508,2.336-1.035,3.57-0.059c0.075-0.363,0.36-2.363,0.821-2.84C67.195,188.733,67.16,188.723,67.109,188.727
		L67.109,188.727z M64.492,194.488c-1.031,0.012-1.594,0.645-2.926,0.523c-1.062-0.075-1.43,0.871-0.976,1.559
		c0.316,0.484,0.742,0.574,2.191-0.091c0.598-0.272,1.43-0.875,1.914-0.827c1.418,0.141,1.762,1.516,0.582,2.672
		c-0.578,0.34-0.582,0.707-0.406,0.715c0.469,0.016,1.414-0.543,1.629-1.191C67.086,196.065,66.031,194.453,64.492,194.488
		L64.492,194.488z M69.132,202.699c-1.347,0.284-3.285,1.827-3.945,2.827c-0.613,0.974-1.207,2.075-0.773,2.618
		c0.351,0.445,0.847,0.878,0.886,1.121c0.04,0.211-0.25,0.421-0.519,0.723c-1.18,1.32-0.899,1.395,0.758,0.534
		c0.836-0.433,1.226-0.608,1.777-0.464c1.594,0.418,3.582,0.121,4.934-0.375c0.609-0.227,1.207-0.531,1.254-0.375
		c-2.465,2.714-5.543,2.031-6.641,1.867c-0.191-0.051-0.34-0.039-0.336,0.027c0,0.129,0.316,0.418,0.996,0.719
		c1.133,0.5,3.856-0.031,5.559-1.274c3.367-2.202,5.222-4.308,2.57-3.429c-1.219,0.406-1.676,0.332-3.152-0.332
		c-2.215-1.004-3.91-1.297-5.746-0.657c-2.325,0.813-0.543-1.104,2.074-2.765C69.394,203.104,69.465,202.69,69.132,202.699
		L69.132,202.699z M56.593,208.426l-0.773,0.011c-0.555-1.866-1.895-1.862-2.477,0.013l-0.644-0.047
		C53.332,206.074,55.726,205.594,56.593,208.426L56.593,208.426z M70.382,208.578l-0.582,0.026
		c-0.355-1.132-1.597-2.125-2.476-0.272l-0.402-0.082C67.636,205.289,70.496,206.937,70.382,208.578L70.382,208.578z M66.5,206.879
		c0.363,0,0.453,0.41,0.043,1.078c-0.293,0.473-0.637,0.43-0.985,0.074c-0.313-0.313-0.293-0.367,0.047-0.677
		C65.968,207.022,66.281,206.879,66.5,206.879L66.5,206.879z M70.789,206.891c0.156-0.008,0.457,0.125,0.793,0.238
		c0.883,0.297,1.086,0.543,0.722,0.906c-0.355,0.355-1.031,0.465-1.343,0.262c-0.016-0.445-0.454-0.789-0.469-1.235
		C70.492,206.94,70.629,206.895,70.789,206.891L70.789,206.891z M56.941,206.906c0.613-0.031,1.438,0.332,1.375,0.688
		c-0.062,0.386-0.668,0.64-1.168,0.679c-0.332,0.043-0.32-0.089-0.406-0.327c-0.078-0.212-0.18-0.48-0.235-0.691
		C56.367,206.848,56.629,206.918,56.941,206.906L56.941,206.906z M52.754,207.039c0,0-0.344,1.02-0.497,1.371
		c-1.285-0.07-1.164-0.638-0.558-1.043C52.027,207.117,52.355,207.113,52.754,207.039L52.754,207.039z M51.757,209.465
		c0.231,0.004,0.52,0.207,0.922,0.336c1.137,0.367,3.024,0.324,4.496-0.016c0.704-0.16,1.036-0.379,1.192-0.27
		c0.273,0.199-0.012,0.895-1.027,1.343c-1.325,0.489-3.348,0.755-4.879-0.026C51.152,210.164,51.007,209.453,51.757,209.465
		L51.757,209.465z M51.406,210.93c1.203,0.793,2.406,1.043,3.891,0.902c2.222-0.078,2.621-0.355,0.746,0.641
		c-1.731,0.914-4.403,0.746-4.918-0.246C50.832,211.656,51.023,210.977,51.406,210.93L51.406,210.93z M62.187,212.258
		c-0.008,0-0.015,0.004-0.019,0.004c0.179,1.203,2.195,2.3,3.16,2.559c2.054,0.909,5.316,0.012,7.773-1.051
		c1.793-0.773,2.438-1.938,0.301-1.277c-3.434,1.069-7.75,1.148-9.91,0.319C62.789,212.479,62.308,212.254,62.187,212.258
		L62.187,212.258z M50.875,216.754c4.3,0.973,9.5,7.604,9.48,10.504h-1.387c-2.117-7.379-7.609-8.973-8.144-9.414
		C50.578,216.937,50.886,216.729,50.875,216.754L50.875,216.754z M50.808,218.621c5.11,2.242,6.93,6.233,7.696,8.637h-1.497
		c-1.113-3.305-3.113-5.66-6.21-7.129C50.586,219.672,50.808,218.621,50.808,218.621L50.808,218.621z M50.8,220.883
		c2.618,0.773,4.93,4.222,5.586,6.375l-1.308-0.008c-0.926-2.402-2.242-3.945-4.328-4.832
		C50.664,221.965,50.679,221.453,50.8,220.883L50.8,220.883z M50.757,223.227c1.231,0.246,3.313,2.16,3.614,4.031h-1.203
		c-0.422-1.262-1.731-2.414-2.403-2.887C50.765,224.145,50.757,223.227,50.757,223.227L50.757,223.227z M50.882,225.227
		c0.133-0.082,1.969,1.57,1.661,2.031h-1.657C50.871,226.746,50.859,225.219,50.882,225.227L50.882,225.227z M50.882,225.227"/>
	<path fill="#D40000" d="M97.726,21.672c-3.117,6.039-19.113,33.234-19.273,34.18l4.094,1.812l19.89-35.852
		C102.437,21.812,98.316,21.676,97.726,21.672L97.726,21.672z M144.687,44.387l-1.859,2.609l1.582,2.867l1.605-2.836L144.687,44.387
		z M71.617,71.672c0,0-5.738,5.699-7.977,8.355c4.817,4.809,14.028,10.844,14.094,20.133l6.352,0.024l20.554,18.386
		c0,0,18.609,0.133,18.957,0.055c0.375-0.09,6.988-9.555,6.988-9.555l11.797,8.598c0,0-0.566-9.258-1.012-14.934
		c-0.148-3.797-0.273-6.129,2.5-7.812c-3.813-1.817-3.57-5.156-0.766-7.61c-0.926-1.277-2.309-1.515-2.516-6.046
		c-0.582-0.625-1.137-0.993-1.867-1.524l-0.762,0.68c-2.445,2.199-4.113,4.437-4.387,5.898c-0.523,2.778,2.297,4.68,3.926,2.649
		c0.461-0.571,0.871-0.41,0.871,0.336c0,1.515-1.906,2.371-3.516,1.582c-0.379-0.184-0.711-0.309-0.742-0.274
		c-0.059,0.059,1.598,4.117,2.047,5.012c0.742,1.488,1.133,2.984,1.191,4.551c0.063,1.672,0.027,1.886-0.754,4.773
		c-0.738,2.723-0.391,4.34,0.926,4.34c0.742,0,0.719,0.711-0.031,0.973c-1.59,0.554-2.578-0.617-2.633-3.121
		c-0.035-1.524-0.063-1.563-0.844-1.196c-2.723,1.282-5.676-1.008-4.398-3.398c0.27-0.504,0.59-0.344,0.754,0.371
		c0.316,1.348,1.02,1.941,2.293,1.937c2.938-0.011,4.168-4.164,2.477-8.339c-0.34-0.84-0.512-0.793-0.961,0.27
		c-0.699,1.66-1.875,2.152-2.84,1.184c-0.324-0.324-0.484-0.852-0.262-0.879c0.051-0.004,0.371-0.02,0.715-0.031
		c1.711-0.055,2.301-1.715,1.5-4.211c-0.707-2.196-0.813-2.59-1.023-3.782c-0.324-1.836-0.098-3.234,0.813-5.015
		c0.16-0.317,1.164-1.438,2.41-2.699c1.273-1.286,2.371-2.274,2.371-2.274s-0.645-0.555-1.52-1.211
		c-1.84-1.383-2.164-1.621-2.164-1.621s-8.746,24.02-8.129,33.375c-1.109,12.328-10.172,8.918-10.84,0.379L71.617,71.672z
		 M71.226,75.273c2.989-0.05,4.961,3.903,6.086,12.106c0.371,2.719,2.031,6.523,3.231,7.422c3.035,2.269,7.781,0.523,7.785-2.867
		c0.004-4.223-5.922-4.848-6.016-0.637c-0.019,0.992-0.531,1.047-1.019,0.101c-0.434-0.843-0.043-2.418,0.804-3.214
		c0.543-0.508,0.5-0.606-0.535-1.176c-3.605-1.988-5.137-4.957-3.211-6.219c0.844-0.555,1.992,0.145,1.465,0.887
		c-0.824,1.16-0.836,1.344-0.144,2.308c0.785,1.098,1.714,1.641,3.918,2.293c1.851,0.547,2.156,0.649,3.011,1.039
		c2.504,1.141,3.648,3.653,2.773,6.094c-0.203,0.574-0.407,1.145-0.446,1.262c-0.089,0.265,0.059,0.269,1.821,0.035
		c2.805-0.375,5.918,0.629,7.453,2.395c0.828,0.953,1.488,3.089,1.512,4.871c0.004,0.343,0.109,1.117,0.238,1.722
		c0.129,0.606,0.297,1.629,0.375,2.27c0.734,6.101,5.813,9.222,8.008,4.922c1.383-2.707-1.813-5.418-3.438-2.918
		c-0.57,0.879-1.16,0.476-0.832-0.567c0.641-2.031,3.172-2.375,4.898-0.668c0.934,0.926,1.379,3.02,0.926,4.348
		c-0.238,0.699-0.211,0.742,0.305,0.563c1.16-0.407,3.164-0.016,3.883,0.753c1.691,1.813,1.352,3.989-0.73,4.692
		c-0.949,0.32-2.023-0.012-2.375-1.121c-0.152-0.793,0.391-1.02,0.813-0.34c0.789,1.277,2.504,0.246,2.102-1.258
		c-0.465-1.711-1.926-2.074-4.629-1.144c-4.297,1.476-5.684,1.351-7.742-0.692c-1.469-1.457-2.02-2.719-2.414-5.5
		c-0.438-3.07-0.48-3.152-1.238-2.504c-3.637,3.094-8.441-1.582-5.359-4.656c0.953-0.949,1.652-0.121,0.797,0.945
		c-1.25,1.555,0.379,3.719,2.422,3.215c3.723-0.918,2.961-6.363-1.066-7.637c-1.227-0.386-4.598-0.226-7.191,0.344
		c-7.243,1.59-10.442-1.504-11.934-11.519c-0.176-1.168-0.379-2.036-1.066-4.555c-0.817-2.988-3.59-4.609-5.106-2.984
		c-1.207,1.296-0.57,3.043,1.109,3.046c1.676,0.004,1.161,1.153-0.586,1.309c-3.027,0.27-3.554-4.777-0.648-6.223
		C69.945,75.465,70.605,75.281,71.226,75.273L71.226,75.273z M31.675,77.133l0.938,3.59l3.746,1.058l-1.187-3.414L31.675,77.133z
		 M41.281,78.203l-1.004,3.25l2.84-0.695l0.926-3.387L41.281,78.203z M72.09,83.523c0.593,0,1.074,0.481,1.074,1.079
		c0,0.593-0.48,1.074-1.074,1.074c-0.598,0-1.079-0.481-1.079-1.074C71.011,84.004,71.492,83.523,72.09,83.523L72.09,83.523z
		 M35.988,85.461l-2.953,1.035l-0.57,2.574l3.089-0.797L35.988,85.461z M43.031,86.273l-2.41-0.414l0.676,2.661l2.554,1.042
		L43.031,86.273z M147.761,86.07l-1.555,1.207c4.523,3.934-0.355,7.719-0.508,7.465c3.27,2.164,2.688,5.574,2.262,8.699
		c-0.773,5.575-1.074,10.848-1.918,16.563c0,0,3.938,2.719,6.559,3.769c0.047,0.004,0.016-33.523,0.016-33.523L147.761,86.07z
		 M91.953,91.121c0.594,0,1.078,0.481,1.078,1.078c0,0.594-0.484,1.074-1.078,1.074s-1.078-0.48-1.078-1.074
		C90.875,91.602,91.359,91.121,91.953,91.121L91.953,91.121z M25.832,93.879l0.136,31.285l6.477-11.582l-4.457-5.137l3.852-4.113
		L25.832,93.879z M88.89,98.645c0.598,0,1.079,0.484,1.079,1.078c0,0.593-0.48,1.078-1.079,1.078c-0.593,0-1.074-0.485-1.074-1.078
		C87.816,99.129,88.297,98.645,88.89,98.645L88.89,98.645z M103.593,101.848c0.594,0,1.078,0.48,1.078,1.074
		c0,0.598-0.484,1.078-1.078,1.078s-1.078-0.48-1.078-1.078C102.515,102.328,103,101.848,103.593,101.848L103.593,101.848z
		 M145.71,136.699l4.758,4.883l-3.719,4.625l5.852,9.93l-0.094-30.719L145.71,136.699z M25.773,126.422L26,160.074l5.086,3.711
		l1.289-1.22c-3.282-3.504-1.321-6.112,1.152-7.62c-4.363-1.02-3.039-6.809-2.777-9.492c-0.11-4.98,1.718-10.664,1.156-15.453
		L25.773,126.422z M55.07,131.102l-7.293,10.156c0,0-8.012-6.067-12.051-8.805c0.434,4.383,0.828,9.977,1.364,14.691
		c1.312,6.883-2.098,7-2.133,7.66c5.422,4.113,0.871,7.961,0.058,7.77c2.887,1.57,2.649,6.344,2.649,6.344l1.367,0.777
		c0,0,0.445-0.273,0.637-0.375c1.461-0.789,3.847-3.594,4.394-5.445c0.93-3.142-1.801-5.75-3.515-3.363
		c-0.84,1.172-1.516,0.386-0.825-0.961c0.629-1.235,2.274-1.852,3.368-1.266c0.636,0.34,0.496-0.543-0.489-3.016
		c-0.328-0.833-0.597-1.738-1.062-3.57c-0.449-1.777-0.274-3.918,0.504-6.095c1.125-3.14,0.726-5.108-1.071-5.28
		c-0.961-0.095-1.066-0.395-0.281-0.836c1.746-0.988,3.438,0.418,3.367,2.805c-0.035,1.289-0.023,1.312,0.66,1.039
		c3.446-1.383,6.164,2.19,3.758,4.934c-0.738,0.839-1.199,0.309-0.715-0.82c0.746-1.738,0.036-2.977-1.714-2.992
		c-2.543-0.02-3.95,3.492-2.95,7.352c0.313,1.207,0.36,1.223,1.203,0.418c0.75-0.715,1.309-0.946,1.891-0.77
		c1.203,0.358,1.52,1.637,0.367,1.48c-1.984-0.273-2.504,1.8-1.383,5.492c1.489,4.898-0.019,8.886-4.418,11.727
		c-0.222,0.141-0.574,0.418-0.574,0.418c1.696,1.512,2.782,2.37,5.024,3.734l8-32.34c0,0-0.133-1.836-0.328-2.699
		c-0.008-8.68,8.089-9.512,10.625-1.633c0.242,0.758,1.531,2.691,1.531,2.691l42.164,37.414c0,0,7.871-7.605,7.766-7.809
		c-5.98-6.027-14.059-10.285-14.352-19.852c-1.434-0.039-6.223,0.047-6.223,0.047l-20.504-18.801
		C67.453,131.363,61.746,130.902,55.07,131.102L55.07,131.102z M66.558,131.805c1.125-0.035,2.262,0.55,2.262,1.488
		c0,0.812-0.543,0.996-0.996,0.34c-0.625-0.918-1.356-0.992-2.098-0.211c-2.058,2.164,1.141,4.14,4.817,2.976
		c2.25-0.711,3.339-0.901,4.164-0.737c3.476,0.694,5.152,3.039,5.449,7.605c0.148,2.32,0.144,2.313,1.148,1.391
		c2.446-2.238,5.977-0.992,6.524,2.305c0.238,1.418-1.285,3.199-2.735,3.199c-0.566,0-0.476-0.595,0.137-0.888
		c1.473-0.702,1.531-3.022,0.098-3.929c-1.899-1.207-4.399,0.672-4.367,3.281c0.035,3.133,2.375,4.578,7,4.312
		c0.675-0.039,2.375-0.121,3.773-0.179c2.207-0.094,4.582-0.508,6.832,1.191c2.355,1.871,3.922,5.598,4.59,10.98
		c1.055,6.629,1.867,8.402,4.094,8.563c1.32,0.094,2.438-1.031,2.438-2.336c0-0.923-1.219-1.734-2.141-1.43
		c-1.117,0.371-1.344-0.84-0.242-1.297c1.52-0.637,3.383,0.59,3.797,2.504c0.238,1.113-1.02,3.253-2.34,3.789
		c-3.445,1.395-5.895-1.453-6.703-7.82c-0.492-2.923-0.766-4.891-1.676-7.387c-1.672-4.594-4.418-6.493-7.41-5.118
		c-3.387,1.556-2.715,6.625,0.875,6.591c1.969,0.156,2.383-1.293,2.426-2.844c0.043-1.145,1.34-0.07,1.453,0.719
		c0.105,0.952-0.75,2.137-1.508,2.695c-1.223,0.816-0.785,0.766,0.465,1.094c3.355,0.62,5.852,5.066,3.844,6.574
		c-1.043,0.637-2.152-0.301-1.426-1.219c1.148-1.465-0.797-3.774-4.34-4.551c-4.641-1.017-6.488-4.469-4.816-8.021
		c0.555-1.175,0.602-1.147-1.66-1.019c-4.981,0.281-6.75-0.406-8.422-3.293c-0.504-0.871-0.727-2.035-0.836-4.353
		c-0.191-4.144-0.57-6.711-1.09-7.433c-2.586-3.574-7.969-2.504-7.297,1.453c0.356,2.078,2.5,2.742,3.969,1.229
		c1.106-1.144,1.621-0.082,0.543,1.114c-2.602,2.879-7.129-0.48-5.785-4.293c0.308-0.871,0.351-0.844-1.317-0.891
		c-3.714-0.105-5.48-3.281-3.085-5.543C65.382,132.012,65.965,131.824,66.558,131.805L66.558,131.805z M75.511,145.437
		c0.594,0,1.079,0.485,1.079,1.079c0,0.593-0.485,1.078-1.079,1.078c-0.593,0-1.078-0.485-1.078-1.078
		C74.433,145.922,74.918,145.437,75.511,145.437L75.511,145.437z M90.433,149.262c0.594,0,1.078,0.484,1.078,1.078
		s-0.484,1.078-1.078,1.078s-1.078-0.484-1.078-1.078S89.839,149.262,90.433,149.262L90.433,149.262z M87.23,156.289
		c0.594,0,1.078,0.483,1.078,1.078c0,0.598-0.484,1.078-1.078,1.078c-0.594,0-1.078-0.48-1.078-1.078
		C86.152,156.772,86.636,156.289,87.23,156.289L87.23,156.289z M134.652,160.479l0.68,3.185l2.473,0.651l-0.387-2.729
		L134.652,160.479z M143.296,161.582l-0.051,1.891l2.199,0.257l0.777-3.257L143.296,161.582z M106.378,164.434
		c0.594,0,1.078,0.484,1.078,1.078c0,0.593-0.484,1.078-1.078,1.078s-1.078-0.485-1.078-1.078
		C105.3,164.918,105.785,164.434,106.378,164.434L106.378,164.434z M137.96,168.824l-2.586,0.715l-1.242,3.59l3.309-1.195
		L137.96,168.824z M143.015,169.145l0.32,2.66l3.184,1.441l-1.078-3.793L143.015,169.145z M96.074,191.82l-19.77,35.741l5.403-0.073
		l18.66-33.703L96.074,191.82z M33.894,200.473l-1.75,2.352l1.66,2.727l1.903-2.739L33.894,200.473z M33.894,200.473"/>
	<path d="M12.398,9.047c-2.433,0.012-4.879,1.648-5.566,4.84c-0.153,0.711-0.215,1.941-0.266,5.386
		c-0.078,5.11-0.125,4.696-0.125,4.696L4.25,23.914l0.117,2.844l2.336,0.019c-0.012,0.012-0.051,0.168,0.019,1.774
		c0.188,4.004,0.813,5.426,3.078,6.5c1.536,0.726,4.372,0.722,5.657-0.285c0.777-0.493,0.855-0.489,1.777,0.082
		c1.961,1.211,3.578,0.554,3.578,0.554l-0.055-2.91c-3.089-0.047-3.503-0.777-2.691-2.789c0.055-0.141,0.063-0.402,0.086-0.746
		c0.23-3.238,0.137-14.152-0.223-15.453C17.121,10.574,14.687,9.035,12.398,9.047L12.398,9.047z M12.132,11.91
		c1.114,0.004,2.247,0.754,2.762,2.156c0.547,1.481,0.539,1.352,0.696,10.477c0.078,4.488-0.11,4.473-0.11,4.473
		c-1.723-2.286-3.902-3.969-6.293-4.762c0,0,0.047,0.211,0-4.215c-0.047-4.57,0.012-5.555,0.692-6.746
		C10.418,12.348,11.269,11.902,12.132,11.91L12.132,11.91z M67.488,20.777c3.641,11.039,3.98,21.914,0.82,32.368
		c1.801,0.089,9.653,2.105,13.977,4.773C81.484,59.973,69.23,75.043,60.91,81.836c2.367,2.344,4.969,4.684,7.703,7.266
		c4.137,3.921,5.598,6.625,5.871,11.718c-0.039,2.461-0.918,5.496-2.484,7.645c-1.188,1.625-2.442,2.875-4.965,4.543
		c-2.324,1.543-5.727,4.855-10,9.746c-1.633,1.863-4.383,5.258-6.66,8.492c-0.864,1.176-3.399,4.848-3.399,4.848
		c-8.469-6.907-17.535-12.239-17.765-12.196c0,0,9.144-4.875,11.07-5.871c1.476,0.95,3.484,0.137,2.519-1.949
		c-1.851-4.75-0.558-9.641,1.715-13.051c0.547-0.824,1.856-1.304,3.977-1.453c0.922-0.058,1.894-0.027,2.871-0.039
		c0.352,0,1.301,0.133,1.82,0.418c1.731,0.945,2.074-0.269,3.153-4.359c1.074-4.067-0.653-9.211-3.114-9.227
		c-0.578-0.004-0.906,0.207-0.785,1.656c0.09,1.09-0.172,1.657-0.453,2.348c-0.617,1.504-0.941,2.973-1.137,4.934
		c0.36,0.074-2.285-2.633-6.453-3.703c-2.711-0.321-4.086-3.696-3.972-3.704c0,0,0.406-0.91,0.761-1.269
		c0.926,0.445,1.836,0.965,2.934,1.285c0,0-0.254-1.352-0.352-1.719c-0.504-1.883-0.476-2.172,0.25-2.562
		c1.801-0.969,1.992-2.703,0.586-4.281c-0.355-0.403-0.656-0.661-1.133-0.864l0.891-3.539c0,0-0.816,0.172-1.465,0.371
		c-1.887,0.575-1.746,0.594-2.547-0.324c-1.75-1.988-4.418-1.609-4.816,0.688c-0.047,0.253-0.164,0.656-0.164,0.656l-4.016-1.949
		c0.117,0.941,1.16,4.136,1.16,4.136c-3.515,2.731-0.546,5.149,0.414,5.403c0,0-0.82,2.613-1.105,3.703l3.965-1.137
		c0.336,0.758,0.746,1.332,1.57,1.859c0.215,2.231,1.934,4.032,3.117,5.114c0,0,0.172,0.816,0.071,1.336
		c-0.258,1.297,1.062,3.351,1.285,3.476c-5.442-2.226-11.117-4.898-16.594-7.523l0.344,67.316c0,0,1.273,1.145,3.804,2.957
		c1.215,0.866,1.215,0.871,0.961,1.875c-0.332,1.323-0.25,2.332,0.879,11.043c0.598,4.602,1.246,9.379,1.828,13.664
		c0.336,2.445,0.27,2.695-0.578,2.34c-0.968-0.402-2.39-0.109-3.035,0.625c-1.57,1.789-0.316,4.664,2.012,4.605
		c0.527-0.036,0.887-0.188,1.34-0.497c0.883-0.472,0.742,0.099-0.477,1.974c-2.746,4.223-2.601,3.648-1.441,5.672
		c2.203,3.854,2.777,4.754,2.922,4.906c0.179,0.188,0.316-0.23,1.14-1.746c0.442-0.806,1.196-2.216,1.821-3.306
		c1.257-2.194,1.285-1.78-0.309-4.667c-1.711-3.094-1.754-3.266-0.727-2.75c0.391,0.195,0.914,0.344,1.278,0.367
		c2.019,0.016,2.437-0.907,2.648-2.566c0-2.137-1.699-3.102-4.039-2.298c-0.367,0.125-0.773,0.161-0.773,0.161l2.457-23.477
		l1.312,0.965l0.434-0.235l-1.153-0.979c0.25-3.762-0.988-5.094-2.332-6.004c4.485-2.551,2.543-6.582-0.437-7.82
		c0,0,1.934-1.133,2.324-2.321c0.328-1.062,0.207-2.741-0.168-5.726C36.988,142.229,36,132.723,36,132.723
		c3.914,2.953,7.933,6.113,11.715,9.098l7.582-10.531l18.261,0.125c0,0,13.883,12.605,20.872,19.031l6.031,0.055
		c0,0,0.066,0.645,0.129,1.074c0.57,6.223,4.746,10.496,8.547,13.496c1.551,1.391,5.379,5.047,5.379,5.047l-7.098,7.152
		l-43.465-38.816c0,0-0.207-0.566-0.289-0.914c-1.004-4.109-3.731-5.832-6.207-5.543c-2.598,0.305-4.817,2.862-4.703,7.223
		c0.015,0.672,0.261,1.859,0.261,1.859l-7.941,33.073c0,0-3.176-2.425-4.891-3.59l-0.375,0.22l4.645,3.491l0.347-0.147l1.321,1.031
		l0.097,0.702c4.067,2.767,10.961,7.931,10.961,7.931c3.254-2.418,6.676-1.613,10.102-0.703c0,0,2.492,0.836,3.816,0.828
		c6.735,0.151,12.696,1.461,18.954,3.719l-22.813,40.441l43.457,0.086c-2.145-8.461-4.418-17.059-0.352-31.496
		c-4.285-0.867-13.813-4.681-13.813-4.681s-0.047-0.214,0.355-0.711c1.762-2.519,6.219-9.347,10.391-13.293
		c0.508-0.366,7.785-7.425,7.855-7.647c0.039-0.125,0.215-0.603,0.5-0.789c0.672-0.449,2.453-2.133,2.453-2.133l-9.105-7.898
		c0,0-0.398-0.035-0.527-0.109c-1.273-0.712-3.566-4.676-4.133-7.332c-1.301-6.109,1.102-10.938,7.875-15.895
		c6.613-4.531,19.152-22.11,19.195-22.496c6.762,5.597,12.043,8.496,17.992,12.168c-3.594,2.063-6.527,3.438-9.039,4.804
		c-1.633,0.931-1.859,1.125-3.238,0.735c-0.781-0.129-1.492,0.175-1.68,0.711c-0.16,0.457-0.172,1.156-0.02,1.25
		c2.363,3.734,1.352,12.438-1.848,14.113c-2.773,1.453-5.473,1.062-7.703,0.234c-1.723-0.551-1.699-0.555-2.465,1.004
		c-1.691,3.598-1.797,6.625-0.238,10.07c1.277,2.77,3.176,4.031,3.41,0.301c0.137-2.191,1.105-4.755,1.074-7.109
		c1.938,2.141,3.223,3.121,6.402,3.992c2.137,0.332,4.402,3.008,4.332,4.098c-0.586,0.594-0.766,1.347-0.859,1.293
		c-1.039-0.34-3.289-1.297-3.289-1.297l0.957,3.387c0,0-0.156,0.152-0.621,0.387c-2.117,1.082-1.98,4.004,0.242,5.172
		c0.453,0.237,0.488,0.352,0.293,0.973c-0.273,1.39-0.883,2.32-1.211,3.699c0,0,0.305,0.008,2.84-1.164l0.996-0.461l0.602,0.641
		c1.313,1.406,2.891,1.398,4.27-0.02l0.629-0.652l1.762,0.895c1.66,0.84,2.098,1.016,2.098,1.016s-0.957-3.715-1.137-4.141
		c-0.094-0.23-0.289-0.462-0.434-0.516c-0.234-0.086-0.199-0.145,0.43-0.641c1.598-1.267,1.758-3.017,0.398-4.34
		c-0.52-0.509-0.586-0.613-0.586-0.613l0.828-3.441l-3.43,1.137c-0.543-1.152-1.402-1.677-1.945-1.91
		c-0.059-1.556-0.254-3.152-2.922-5.582c0.898-0.82-0.172-2.801-1.051-3.988c1.5,0.504,5.258,2.094,5.258,2.094l0.566-0.023
		l1.793,0.858l0.211,0.321c0,0,5.641,2.66,8.23,3.906c-0.004-0.138-0.023-2.926-0.031-33.602
		c-0.008-18.289,0.023-33.332-0.012-33.429c-0.039-0.098-0.656-0.571-1.301-1.059c-1.188-0.894-1.434-1.07-2.941-2.078
		c-1.207-0.805-1.129-0.801-0.875-1.73c0.289-1.067,0.281-2.536-0.102-5.289c-0.281-2.032-1.305-9.176-2.02-14.942
		c-0.5-4.043-0.617-4.941-0.742-5.594c-0.199-1.636,0.016-2.351-0.02-2.375c5.664,2.454,6.113-5.683,0.434-4.586
		c0,0,0.664-1.316,2.023-3.632c1.176-2.008,1.164-1.821,0.234-3.461c-0.438-0.77-1.07-1.926-1.41-2.571
		c-0.895-1.699-1.723-2.746-1.723-2.746l-4.152,7.227l2.445,5c0,0-0.383,0.055-0.719-0.008c-2.109-0.398-3.586,1.766-3.063,3.383
		c0.563,1.625,2.121,2.078,3.492,1.426c1.055-0.418,1.055-0.524,0.117,7.402c-0.277,2.344-1.508,13.309-1.676,14.937
		c-0.113,1.098-0.184,1.403-0.629,1.161c-0.605-0.262-0.953-0.641-1.559-1.039l-0.34,0.316c0.539,0.434,1.18,1,1.832,1.602
		c-0.152,2.902-0.094,4.585,2.324,6c-4.379,2.746-1.82,6.972,0.754,7.582c-1.531,0.394-3.047,2.367-2.68,6.289l1.242,16.152
		l-11.875-8.816l-6.969,9.972l-18.367,0.024L84.269,99.863c0,0-4.543-0.062-6.406-0.105c0.211-0.102-0.391-5.781-3.387-9.488
		C71.218,86.395,63.8,80,63.804,80l7.789-7.91l43.735,39.363c0,0,0.215,1.117,0.324,1.59c1.461,6.215,8.535,6.59,10.035,0.262
		c0.246-1.024,0.539-3.403,0.43-3.684c-0.035-0.094,0.184-1.129,0.488-2.309c2.352-9.222,4.352-17.175,6.668-26.027
		c0.316-1.219,0.656-2.578,0.75-3.02c0.379-1.793,0.324-1.786,2.203-0.368c1.152,0.868,1.625,1.176,1.625,1.176l0.367-0.379
		c-1.293-1-3.5-2.593-3.5-2.593l0.023-0.676c-7.102-5.086-8.566-6.438-12.77-9.77c-3.258,2.871-7.918,1.707-10.836,0.696
		c-0.754-0.297-2.602-0.778-2.602-0.778c-7.273,0.008-13.66-1.394-19.695-3.367l23.265-41.434l-8.984,0.004l-0.316,0.352h-4.676
		l-0.016-0.352H67.488z M153.289,157.039c0.004,0.026,0.004,0,0.004,0H153.289z M94.011,21.715l3.18,0.062l-18.828,33.59l-2-0.781
		c0,0,0.184-0.098,0.184-1.512c-0.004-1.519-0.332-2.168-1.016-3.066c-0.574-0.778-0.82-0.821,0.859-0.59
		c3.434,0.473,5.871-3.258,4.508-6.172c-0.523-1.125-0.449-1.191,0.942-1.332c3.828-0.383,5.316-5.238,2.605-7.66
		c-0.559-0.504-0.309-0.828,0.738-0.602c3.313,0.715,5.875-2.961,4.559-5.836c-0.426-0.804-0.043-0.937,0.563-1.015
		C93.14,26.137,94.105,23.906,94.011,21.715L94.011,21.715z M68.636,21.719l14.739,0.004c-1.985,3.031,1.515,4.828,1.961,4.617
		c-3.176,1.734-2.305,4.18-0.657,5.019c1.598,0.817,3.996,0.082,3.356-3.449l0.789-0.34c0.766,0.867,1.527,6.239-4.32,5.492
		c-1.039-0.132-1.606,0.84-0.735,1.379c4.621,5.313-2.613,7.657-2.926,6.778l-0.027-0.899c1.957,0.36,4.461-2.164,2.266-4.402
		c-1.246-1.273-4.867-0.652-4.246,3.211c-2.141-3.192-4.473-2.231-5.102-0.543c-0.488,1.309,0.133,3.098,2.266,3.402
		c-2.383,1.996-1.227,4.223,0.41,4.715c1.808,0.543,3.652-0.195,3.156-3.476c0.027-0.313,0.656-0.211,0.711-0.227
		c1.867,4.66-2.598,6.375-5.008,5.41c-0.894-0.348-1.363,1.031-0.414,1.735c1.442,1.062,0.996,4.125,0.828,4.156
		c-2.679-1.016-6.515-1.766-6.371-1.707C71.871,42.473,71.707,32.187,68.636,21.719L68.636,21.719z M92.132,21.723l1.332,0.004
		c0.016,1.906-0.813,4.25-4.063,4.613c0.016-0.512-0.023-0.996-0.156-1.535C90.468,24.527,92.085,24.867,92.132,21.723
		L92.132,21.723z M97.945,21.824l4.25,0.02l-20,35.5L79,55.703L97.945,21.824z M87.461,24.52c0.75,0,1.359,0.605,1.359,1.355
		c0,0.754-0.609,1.363-1.359,1.363c-0.754,0-1.36-0.609-1.36-1.363C86.101,25.125,86.707,24.52,87.461,24.52L87.461,24.52z
		 M45.765,25.141c-3.203,8.3-9.363,13.332-13.847,21.683c-4.684,8.488-2.539,15.801,4.074,17.156
		c3.484,0.715,7.558-2.679,8.082-6.371c0.125-0.879,0.277-1.132,0.691-1.132c0.606,0,0.539,1.539,0.157,3.621
		C44,65.621,42.101,68.98,40.656,71.043l11.484-0.098c-2.332-2.804-4.125-6.586-4.508-11.254c-0.281-2.539-0.074-3.656,0.739-3.218
		c0.265,0.14,0.336,0.394,0.453,1.707c0.418,4.55,5.183,7.035,9.035,5.031c5.32-2.813,5.176-8.074,3.953-11.906
		C58.136,41.273,50.023,34.676,45.765,25.141L45.765,25.141z M10.675,28.285c1.379,1.168,2.747,2.488,3.688,3.66
		c-1.32,0.946-2.711,1.004-3.566,0.532c-0.961-0.532-1.375-1.762-1.469-3.829C9.277,27.5,9.683,27.445,10.675,28.285L10.675,28.285z
		 M12.332,39.262c0.039-0.012-2.078,4.32-3.629,6.652c-1.11,2.051-3.844,5.621-3.11,8.477c0.848,2.968,4.02,3.726,5.707,1.441
		c0.793-1.07,0.961-0.945,0.942,0.254c-0.02,2.289-1.235,3.59-2.125,4.715l5.801,0.043c-1.231-1.477-2.336-2.703-2.461-4.707
		c0.004-0.754,0.226-1.305,0.758-0.489c0.597,0.582,1.105,1.653,2.738,1.352c1.691-0.301,3.172-2.5,2.832-4.629
		c-0.457-2.476-2.004-4.91-3.559-7C14.925,43.629,12.285,39.348,12.332,39.262L12.332,39.262z M78.933,40
		c0.696,0,1.258,0.562,1.258,1.258c0,0.695-0.562,1.262-1.258,1.262c-0.695,0-1.258-0.567-1.258-1.262
		C77.675,40.562,78.238,40,78.933,40L78.933,40z M144.773,41.004l3.387,5.891l-3.863,6.839l-3.223-6.554L144.773,41.004z
		 M144.71,43.012l-2.379,3.929l2.16,4.028l2.461-3.828L144.71,43.012z M144.757,44.695l1.23,2.379l-1.496,2.41l-1.242-2.55
		L144.757,44.695z M141.476,52.68c0.258,0.004,0.531,0.058,0.813,0.175c2.281,0.954,1.555,4.418-0.883,4.204
		c-0.32-0.032-0.742-0.196-1.047-0.403C138.667,55.27,139.683,52.676,141.476,52.68L141.476,52.68z M147.05,52.746
		c1.996,0.035,3.195,2.813,1.098,4.109c-1.016,0.563-2.527,0.223-3.125-0.781c-0.512-0.859-0.289-2.293,0.855-3.039
		C146.285,52.828,146.683,52.742,147.05,52.746L147.05,52.746z M144.281,56.707c0.199,0.016,0.418,0.984,0.617,2.664
		c0.07,0.609,0.266,2.133,0.43,3.387c0.164,1.25,0.332,2.664,0.371,3.137c0.043,0.476,0.098,0.949,0.129,1.054
		c0.031,0.106,0.113,0.742,0.184,1.418c0.074,0.672,0.176,1.637,0.23,2.145c0.055,0.508,0.191,1.59,0.305,2.402
		c1.152,8.387,1.414,11.063,1.145,11.777c-0.73,2.5-4.141,2.692-5.566,1.239c-1.078-1.098-1.238-2.305-0.813-5.446
		c0.246-1.816,0.344-2.73,1.066-9.664c0.168-1.625,0.41-3.785,0.539-4.8c0.133-1.016,0.273-2.235,0.316-2.708
		c0.043-0.476,0.16-1.5,0.254-2.277c0.098-0.781,0.355-2.328,0.426-2.949C144.019,57.129,144.144,56.695,144.281,56.707
		L144.281,56.707z M88.39,62.937c0,0,10.93,3.602,19.247,3.438c1.219,0,1.418-0.012,2.938,0.484c0.902,0.297,2.32,0.696,3.152,0.887
		c2.563,0.496,4.816,0.356,6.813-0.457c0.313-0.129,0.773-0.516,1.238-0.375c0.285,0.086,0.695,0.652,0.695,0.652
		c-7.281,1.934-24.313,1.575-34.918-2.894L88.39,62.937z M144.546,64.082c-0.047,0.008-0.094,0.07-0.145,0.156
		c-0.18,0.282-0.031,2.125,0.629,7.996c1.266,11.215,1.258,11.457-0.273,12.633c-0.754,0.582-0.871,0.813-0.508,1.024
		c0.27,0.156,0.25,0.156,0.797,0.004c1.289-0.356,1.824-1.379,1.813-3.469c-0.008-1.594-0.027-1.785-0.523-5.696
		c-0.172-1.355-0.406-3.265-0.523-4.25C144.984,65.496,144.792,64.043,144.546,64.082L144.546,64.082z M87.289,65.258
		c10.882,3.894,22.253,5,35.957,2.894c0,0,1.316,0.856,1.98,1.274l-0.461,0.109l0.207,1.891l2.328-0.371c0,0,1.258,1,2.195,1.617
		c-12.219,3.73-31.953,3.086-44.129-2.324c-0.465-0.27-0.735-0.481-0.735-0.481c0.262-0.648,0.579-1.031,0.903-1.39l2.222,0.636
		l0.645-2.027l-1.699-0.621L87.289,65.258z M90.14,67.684l-0.711,1.996l3.105,0.925l0.531-2.039L90.14,67.684z M94.894,68.918
		l-0.41,2.273l3.117,0.579l0.391-2.211L94.894,68.918z M100.058,69.984l-0.246,2.192l3.309,0.351l0.203-2.218L100.058,69.984z
		 M122.796,70.02l-2.816,0.308l0.176,1.93l2.848-0.336L122.796,70.02z M117.832,70.578l-2.793,0.184l0.094,2.023l2.809-0.176
		L117.832,70.578z M105.246,70.621l-0.004,2.149l2.863,0.109l0.035-2.199L105.246,70.621z M113.117,70.891l-2.637,0.011
		l-0.012,2.043l2.664,0.012L113.117,70.891z M82.519,71.25c0.285-0.008,0.934,0.625,1.203,1.336
		c0.532,1.394,0.289,2.941-0.543,3.453c-1.125,0.699-2.453-0.394-1.675-1.379c0.136-0.176,0.359-0.351,0.492-0.394
		c0.582-0.184,0.715-1.098,0.402-2.676C82.351,71.355,82.41,71.254,82.519,71.25L82.519,71.25z M86.738,71.785
		c11.781,3.856,25.145,5.152,38.918,2.332c0,0-6.527,26.649-6.668,26.66L86.738,71.785z M80.965,71.867
		c0.621,0,0.734,1.051,0.171,1.61c-0.711,0.714-2.074,0.14-1.789-0.754C79.429,72.465,80.554,71.867,80.965,71.867L80.965,71.867z
		 M84.351,72.484c0.129-0.007,0.371,0.246,0.758,0.766c1.324,1.781,1.426,3.773,0.242,4.68c-1.39,1.062-2.406-0.586-1.246-2.028
		c0.297-0.375,0.344-1.062,0.164-2.59C84.207,72.77,84.222,72.496,84.351,72.484L84.351,72.484z M130.023,73.129
		c0.152-0.008,0.422,0.113,0.965,0.375c0.844,0.414,1.137,1.019,0.73,1.508c-0.594,0.711-2.211-0.696-1.906-1.657
		C129.859,73.207,129.906,73.133,130.023,73.129L130.023,73.129z M128.753,74.055c0.215,0.019,0.551,0.41,0.945,1.195
		c0.25,0.508,0.398,0.652,0.82,0.805c1.008,0.363,1.195,1.406,0.309,1.715c-0.961,0.335-1.68-0.356-2.117-2.047
		C128.417,74.609,128.484,74.027,128.753,74.055L128.753,74.055z M86.621,74.801c0.144-0.008,0.426,0.32,0.867,0.972
		c1.316,1.946,0.863,5.676-0.793,6.543c-0.734,0.387-1.242,0.305-1.828-0.281c-0.86-0.859-0.649-1.539,0.625-2.008
		c1.086-0.398,1.437-1.629,1.101-3.875C86.461,75.254,86.453,74.812,86.621,74.801L86.621,74.801z M92.89,75.418
		c8.043,6.633,15.305,13.742,24.668,22.047c2.223-6.84,5.461-21.039,5.473-21.086C122.675,76.672,107.308,78.852,92.89,75.418
		L92.89,75.418z M123.031,76.379c0.008-0.008,0.008-0.012,0.004-0.016L123.031,76.379L123.031,76.379z M128.019,75.437
		c0.137,0,0.523,0.997,0.742,1.907c0.203,0.824,1,2.207,1.305,2.258c1.586,0.269,2.262,1.152,1.477,1.937
		c-0.574,0.574-1.816,0.246-2.418-0.633C127.996,79.254,127.226,75.437,128.019,75.437L128.019,75.437z M38.265,76.352
		c0.957,0.007,1.875,0.609,2.11,1.855c0.269,1.445-0.551,2.496-1.243,2.328c-0.75-0.281-1.007-1.473-1.007-1.473
		s-0.18,0.973-0.489,1.465c-0.671,1.028-2.089-0.5-1.836-1.984C36.047,77.098,37.179,76.344,38.265,76.352L38.265,76.352z
		 M95.519,76.73c8.758,1.317,16.297,1.661,26.746,0.524l-4.926,19.121L95.519,76.73z M88.902,76.762
		c0.129,0.011,0.395,0.242,0.813,0.683c1.359,1.438,1.754,3.434,0.867,4.426c-0.539,0.606-0.898,0.672-1.473,0.281
		c-0.73-0.5-0.785-1.254-0.117-1.601c0.617-0.317,0.676-1.02,0.188-2.344C88.816,77.215,88.711,76.75,88.902,76.762L88.902,76.762z
		 M31.754,77.254l3.199,1.328l1.144,2.703l-3.191-0.82L31.754,77.254z M43.855,77.613l-0.949,2.692l-2.465,0.922l0.957-2.915
		L43.855,77.613z M127.343,78.18c0.117-0.004,0.293,0.34,0.508,1.043c0.527,1.742,0.754,2.179,1.234,2.41
		c0.785,0.375,0.844,1.328,0.102,1.668c-0.473,0.215-0.629,0.168-0.965-0.27c-0.52-0.687-0.941-2-1.016-3.176
		C127.132,78.754,127.191,78.18,127.343,78.18L127.343,78.18z M91.714,79.395c0.09-0.008,0.227,0.128,0.43,0.371
		c1.242,1.476,1.379,3.742,0.266,4.421c-1.078,0.657-2.586-0.699-1.648-1.48c0.086-0.07,0.281-0.227,0.438-0.348
		c0.262-0.199,0.285-0.316,0.309-1.597C91.523,79.805,91.558,79.406,91.714,79.395L91.714,79.395z M101.16,79.551l15.324,13.926
		L120,79.703C113.949,80.246,107.625,80.082,101.16,79.551L101.16,79.551z M63.519,80.254c4.84,5.109,11.176,9.242,12.68,14.324
		c2.695,6.996,0.719,15.113-5.594,19.758c-3.484,2.637-6.898,5.41-9.738,8.762c-4.664,4.964-7.774,10.386-10.887,14.32
		c-0.531,0.66-1.922,2.742-1.922,2.742s-0.679,0.776-2.957-1.133c-6.043-5.371-12.383-9.266-18.836-12.977l2.731-1.528
		c5.39,3.071,12.09,7.446,18.113,12.539c0,0,4.793-6.996,6.32-9c2.219-2.878,3.774-4.729,5.84-6.957
		c5.274-6.507,10.719-8.664,12.985-11.96c3.316-4.829,3.461-10.551,0.73-15.442c-2.691-4.66-7.926-7.859-11.402-11.719
		L63.519,80.254z M109.468,80.629h5.988c0,0-0.879,0.734-1.555,1.183c-0.422,0.286-0.918,0.247-1.852-0.144
		C111.144,81.289,109.468,80.629,109.468,80.629L109.468,80.629z M116.324,80.629l1.398,0.043c-1.043,1.312-2.113,2.156-3.516,3.324
		c-0.184,0.078-0.281,0.109-0.703-0.027c-2.863-0.949-5.492-2.153-8.281-3.289l2.488-0.012c0,0,1.195,0.383,2.992,1.125
		c2.059,0.855,2.594,1.121,3.387,0.598C114.855,81.883,115.492,81.113,116.324,80.629L116.324,80.629z M119.152,80.629l-0.5,1.836
		c-0.836,1.043-2.523,2.246-3.934,3.43c-0.332,0.171-0.32,0.203-1.766-0.356c-5.324-2.07-7.898-3.414-7.898-3.414l-1.082-0.965
		c0,0,1.391,0.399,2.305,0.758c0.625,0.246,1.688,0.648,2.367,0.898c0.676,0.254,2.172,0.887,3.172,1.282
		c2.305,0.91,2.18,0.938,4.387-1.012C118.593,80.977,119.152,80.629,119.152,80.629L119.152,80.629z M38.496,80.797l2.324,2.664
		l-3.098,2.605l-2.34-2.754L38.496,80.797z M126.656,80.801c0.535,1,0.895,2.183,1.762,3.023c0.652,0.625,0.816,1.106,0.426,1.457
		c-1.008,0.625-1.184-0.386-1.496-1.043C126.796,83.074,126.125,81.504,126.656,80.801L126.656,80.801z M42.636,81.066
		c0.059,0,0.118,0,0.18,0c2.477,0.039,3.063,3.7,0.731,4.579c-0.836,0.316-1.797,0.171-2.317-0.344
		c-0.504-0.504-0.574-0.93-0.226-1.192c0.535-0.382,1.816-0.41,1.816-0.41s-1.164-0.394-1.68-0.683
		C40.121,82.437,41.004,81.133,42.636,81.066L42.636,81.066z M93.648,81.07c0.141,0.008,0.383,0.293,0.723,0.86
		c1.25,2.062,1.184,5.992-0.117,6.984c-0.68,0.52-1.523,0.445-2.09-0.184c-0.746-0.828-0.52-1.664,0.594-2.152
		c1.07-0.476,1.289-1.535,0.852-4.152C93.457,81.512,93.468,81.062,93.648,81.07L93.648,81.07z M33.527,81.137
		c0.738-0.028,1.453,0.261,1.805,0.847c0.265,0.43,0.136,0.746-0.36,0.961c-0.601,0.239-1.742,0.453-1.742,0.453
		s1.106,0.184,1.777,0.457c0.836,0.368,0.774,1.047-0.457,1.629c-2.363,1.125-4.593-1.945-2.644-3.703
		C32.359,81.371,32.949,81.156,33.527,81.137L33.527,81.137z M95.667,82.617c0.02,0,0.035,0,0.059,0
		c0.215,0.028,0.617,0.34,1.02,0.875c1.406,1.863,1.652,4.668,0.453,5.215c-1.266,0.578-2.18-0.613-1.266-1.652
		c0.645-0.739,0.566-1.817-0.293-3.953C95.515,82.793,95.546,82.637,95.667,82.617L95.667,82.617z M126.093,82.707
		c0.109-0.008,0.313,0.441,0.637,1.348c0.719,1.992,1.332,2.828,2.066,2.828c0.926,0,1.414,1.269,0.684,1.781
		c-1.445,1.012-3.336-1.465-3.477-4.555C125.964,83.184,125.98,82.715,126.093,82.707L126.093,82.707z M118.46,83.703l-0.426,1.629
		c0,0-0.984,0.957-1.691,1.563c-1.117,0.968-1.391,1.16-2.277,0.859c-1.359-0.469-2.703-0.895-4.117-1.324l-3.273-2.707l7.469,2.914
		c0,0,0.648,0.191,0.875-0.035C115.996,85.625,117.07,84.867,118.46,83.703L118.46,83.703z M125.507,85.227
		c0.094-0.024,0.188,0.097,0.254,0.394c0.34,1.535,0.828,2.645,1.242,2.816c0.523,0.219,0.727,0.672,0.504,1.137
		c-0.633,1.332-2.309-1.023-2.309-3.25C125.199,85.691,125.351,85.262,125.507,85.227L125.507,85.227z M98.546,85.336
		c0.09-0.008,0.238,0.129,0.469,0.359c1.031,1.032,1.344,3.887,0.516,4.715c-1.199,1.199-2.48-0.582-1.316-1.828
		c0.309-0.332,0.309-0.355,0.234-1.816C98.398,85.746,98.394,85.344,98.546,85.336L98.546,85.336z M35.965,85.617l-0.809,2.68
		l-2.582,0.664l0.605-2.203L35.965,85.617z M39.058,85.891c0.203-0.008,0.438,0.07,0.68,0.246c1.051,0.761,1.137,2.066,0.644,3.023
		c-0.468,0.938-1.429,1.207-2.359,1.113c-1.207-0.132-2.117-0.976-2.055-2.261c0.02-0.645,0.301-1.36,0.739-1.664
		c0.308-0.219,0.558-0.129,0.824,0.313c0.25,0.434,0.672,1.41,0.672,1.41s0.015-1.004,0.156-1.519
		C38.476,86.141,38.73,85.906,39.058,85.891L39.058,85.891z M41.027,86.125l1.871,0.641l0.738,2.539l-2.093-0.813L41.027,86.125z
		 M147.625,86.602c0,0,0.535,0.226,3.09,2.253c0.637,0.504,1.715,1.477,1.715,1.477l-0.063,33.133c0,0-5.035-2.723-5.684-3.367
		c-0.348-0.371-0.18-1.411-0.059-3.301c0.59-4.961,0.832-8.762,1.469-13.356c0.445-5.117,1.43-6.589-1.996-8.757
		c3.688-2.317,2.645-5.918,0.332-7.418L147.625,86.602z M117.558,86.727l-0.34,1.515c-1.215,2.078-2.301,1.973-4.16,1.008
		l-2.23-1.895c1.445,0.301,2.223,0.762,3.633,1.207c0.699,0.192,0.957,0.067,1.449-0.375
		C116.476,87.672,116.902,87.285,117.558,86.727L117.558,86.727z M101.015,87.523c0.758,0.825,0.953,1.637,0.887,3.645
		c-0.145,1.43-0.078,2.492-1.254,3.293c-0.57,0.375-1.559,0.379-2.004,0.004c-1.059-0.707-0.477-2.129,0.914-2.199
		c0.879-0.016,1.238-2.883,0.742-4.672c-0.078-0.282-0.059-0.461,0.078-0.477C100.519,87.105,100.773,87.262,101.015,87.523
		L101.015,87.523z M124.722,87.414c0.172,0,0.473,0.438,0.652,1.148c0.258,1.032,0.621,1.61,1.191,1.899
		c0.73,0.375,0.969,1.09,0.5,1.512c-0.93,0.843-1.879-0.168-2.184-2.321C124.867,89.41,124.441,87.437,124.722,87.414
		L124.722,87.414z M144.679,87.77c2.074,0.031,3.25,1.484,3.246,3.242c-0.023,1.265-0.715,2.554-1.992,3.09
		c-3.043,0.898-4.707-1.141-4.68-3.125C141.277,89.379,142.609,87.738,144.679,87.77L144.679,87.77z M102.828,88.918
		c1.742,1.746,1.82,5.477,0.113,5.477c-2.047-0.68-0.449-1.887-0.41-2.204c0.16-1.285-0.133-2.105-0.434-3.308
		C101.964,88.176,102.636,88.711,102.828,88.918L102.828,88.918z M144.792,88.75c-0.367-0.012-0.34,0.355,0.332,0.934
		c1.215,1.046,0.621,2.98-0.922,2.992c-0.711,0-0.883,0.48-0.266,0.73c2.395,0.961,4.027-2.676,1.883-4.191
		C145.371,88.898,145.011,88.758,144.792,88.75L144.792,88.75z M53.332,89.238c1.922,0.657,2.586,4.324,2.66,5.617
		c0.086,2.25-0.961,5.93-1.899,6.668c-2.418,1.903-3.554-4.828-1.484-9.16c0.184-0.355,0.41-0.836,0.324-1.718
		C52.847,89.766,52.996,89.246,53.332,89.238L53.332,89.238z M116.929,89.594c0,0-0.242,1.097-0.5,1.699
		c-0.297,0.695-0.516,0.719-1.211,0.121c-0.387-0.328-1.027-1.016-1.027-1.016c0.605,0.098,1.145,0.411,1.656,0.157
		C116.398,90.285,116.839,89.773,116.929,89.594L116.929,89.594z M124.234,89.648c0.137,0.008,0.313,0.391,0.543,1.149
		c0.633,2.078,1.188,2.859,2.027,2.859c1.375,0,1.676,1.656,0.379,2.078c-0.484,0.161-0.645,0.157-1.258-0.007
		c-0.93-0.247-2.195-3.372-2.012-4.961C123.996,90.02,124.097,89.645,124.234,89.648L124.234,89.648z M39.527,90.859
		c0.504-0.011,0.703,0.235,1,0.848c0.336,0.699,1.223,1.59,1.973,1.977c1.808,0.886,3.711,1.582,5.496,2.472
		c2.316,1.164,4.39,4.723,2.972,5.098c-0.515,0.117-1.109,0.125-1.636,0.074c-0.172-0.09-0.508-0.476-0.746-0.867
		c-1.055-1.731-3.032-3.422-6.079-4.215c-2.148-0.555-4.07-3.203-4.484-4.445c-0.109-0.321-0.113-0.574,0.176-0.656
		C38.812,90.969,39.222,90.867,39.527,90.859L39.527,90.859z M104.832,91.074c0.094-0.015,0.238,0.106,0.449,0.336
		c1.277,1.363,1.438,3.875,0.289,4.582c-1.246,0.77-2.336-0.5-1.359-1.582c0.434-0.476,0.434-0.476,0.434-1.91
		C104.644,91.516,104.671,91.102,104.832,91.074L104.832,91.074z M123.441,92.668c0.156,0.004,0.387,0.43,0.664,1.266
		c0.395,1.183,0.449,1.277,0.898,1.511c0.766,0.395,0.887,0.985,0.328,1.543c-1.047,1.047-2.098-0.636-2.102-3.351
		C123.23,92.98,123.308,92.66,123.441,92.668L123.441,92.668z M106.73,92.855c0.094,0.008,0.359,0.215,0.566,0.461
		c1.566,1.856,1.25,6.207-0.496,6.86c-0.582,0.219-0.762,0.23-1.121,0.074c-1.305-0.566-1.145-1.941,0.461-2.813
		C107.339,96.785,106.484,92.871,106.73,92.855L106.73,92.855z M26.652,94.223l6.465,3.211c0,0,1.773,3.73,2.59,5.128
		c0.558,0.973,1.679,1.911,0.523,2.555c-1.945,1.32-3.051,2.07-3.031,2.891c0.012,0.664,0.836,1.336,1.945,2.644
		c1.594,1.871,1.578,1.442,0.133,4.301c-1.109,2.004-2.051,6.543-2.051,6.543l-6.531,3.362c1.941-4.64,4.23-8.592,6.797-11.417
		c-1.906-1.414-3.508-2.886-5.18-4.839c1.235-1.653,2.86-2.985,4.363-4.422C29.625,100.73,27.715,97.426,26.652,94.223
		L26.652,94.223z M108.437,94.281c0.008,0,0.023,0,0.035,0c0.27,0.02,0.887,0.692,1.434,1.774c0.703,1.398,0.77,3.156,0.145,3.781
		c-1.078,1.078-2.48-0.305-1.473-1.453c0.711-0.516,0.516-1.801-0.043-3.137C108.277,94.605,108.281,94.309,108.437,94.281
		L108.437,94.281z M25.937,94.91c1.68,3.574,3.563,6.48,5.492,9.235l-4.211,4.417c1.297,1.504,2.868,3.118,5.071,4.993
		c-2.703,3.007-4.481,7.222-6.258,11.203L25.937,94.91z M122.722,94.984c0.148,0.012,0.355,0.446,0.566,1.317
		c0.27,1.097,0.453,1.379,1.094,1.656c1.016,0.434,1.039,1.418,0.039,1.773c-0.363,0.129-1.051-0.238-1.332-0.722
		c-0.375-0.684-0.566-1.61-0.563-2.457C122.468,95.504,122.558,94.973,122.722,94.984L122.722,94.984z M146.058,95.648
		c1.59,0.446,2.164,2.039,1.855,4.993c-0.418,3.949-0.906,8.343-1.301,11.972c-0.457,4.184-0.723,6.36-0.824,6.524
		c-0.324,0.523-0.375-1.446-0.141-3.633c0.355-3.125,0.551-5.863,0.852-8.984c0.676-6.95,0.512-9.145-0.746-9.79
		c-0.973-0.496-1.391-0.203-0.672,0.477c1.367,1.055,1.324,1.496-0.141,18.605c-0.148,1.77-0.211,3.024-0.211,3.024l-1.855-1.152
		c0,0-0.141-1.469-0.313-3.684c-0.422-4.172-0.664-8.617-0.941-12.617c-0.301-4.266,0.5-5.758,3.145-5.863
		C145.187,95.504,145.66,95.539,146.058,95.648L146.058,95.648z M111.917,98.129c0.203,0.562,1.125,4.769-1.234,3.562
		c-0.629-0.355-0.664-0.91-0.199-1.449c0.516-0.605,0.641-1.472,0.379-2.715c-0.156-0.754-0.352-1.379-0.352-1.379
		C110.968,96.316,111.863,97.98,111.917,98.129L111.917,98.129z M41.715,96.809c1.996,0.378,4.191,1.543,5.605,3
		c0.879,0.933,0.832,1.683-0.539,1.769c-1.32,0.195-1.348,0.41-1.981-0.137c-0.281-0.218-0.832-0.765-1.46-0.863
		C41.347,100.27,40.328,96.543,41.715,96.809L41.715,96.809z M122.332,97.91c0.211,0.34,0.23,1.004,0.406,1.481
		c0.301,1.332,1.215,2.32,2.035,2.195c0.551-0.066,1.316,0.101,1.398,0.762c0.16,0.558-0.133,1.089-0.738,1.332
		c-0.688,0.273-1.457,0.105-2.039-0.442C122.164,102.082,121.414,98.312,122.332,97.91L122.332,97.91z M112.722,97.961
		c0.719,0.277,1.633,2.57,1.73,4.387c-0.004,1.304-0.203,2.941-1.328,3.562c-0.715,0.371-1.449,0.188-1.773-0.437
		c-0.395-0.766-0.102-1.555,0.715-1.922c1-0.453,1.328-2.481,0.715-4.461C112.75,98.762,112.25,97.824,112.722,97.961
		L112.722,97.961z M36.433,98.914l5.27,2.668c-0.766,1.047-1.367,2.02-1.785,3.125C38.246,102.809,37.367,100.871,36.433,98.914
		L36.433,98.914z M114.707,99.828c0.09-0.004,0.391,0.285,0.656,0.543c1.316,1.274,1.883,3.586,1.09,4.434
		c-0.637,0.675-1.746,0.629-1.93-0.082c-0.07-0.348,0.301-1,0.465-1.313c0.242-0.465,0.285-1.793-0.082-2.765
		C114.742,100.211,114.589,99.832,114.707,99.828L114.707,99.828z M78.093,100.352l5.954,0.203l19.949,17.968l-1.871-0.039
		l-18.332-16.703l-5.703,0.012L78.093,100.352z M43.781,103.59c-2.274,3.613-2.895,8.168-1.496,12.215
		c1.058,2.871-1.254,3.043-2.203,1.152c-0.731-1.414-1.153-3.879-0.93-6.5c0.313-4.238,2.27-8.492,3.836-9.004
		C44.578,100.934,44.23,103.012,43.781,103.59L43.781,103.59z M125.527,112.285c-0.605,2.828-1.727,4.235-3.316,4.82
		c-6.512,2.407-9.352-10.73-3.309-13.871C124.664,101.32,126.328,108.551,125.527,112.285L125.527,112.285z M77.73,103.703
		l5.617,0.113c5.121,4.661,10.622,9.004,16.102,14.668H96.8c0,0-0.777-0.738-0.961-0.914c-4.949-4.422-8.622-8.035-13.395-12.144
		l-5.012-0.137L77.73,103.703z M120.582,104.57c-3.039,0.121-3.285,4.235-3.195,5.793c0.223,2.246,1.117,5.567,3.969,5.305
		c2.09-0.211,3.059-2.688,2.867-5.66C124.042,107.207,122.902,104.566,120.582,104.57L120.582,104.57z M77.218,105.934l4.926,0.113
		c4.344,3.785,8.934,7.898,13.496,12.437h-2.148c0,0-0.563-0.539-0.73-0.711c-3.695-3.336-7.449-7.058-11.031-10.058l-5.113-0.199
		L77.218,105.934z M120.66,106.094c0.863,0.32,1.008,2.422,0.254,3.293c-0.516,0.593-1.699-0.535-1.809-1.957
		C119.042,106.562,119.886,105.809,120.66,106.094L120.66,106.094z M39.215,106.355c-0.395,1.36-0.657,2.887-0.821,4.54
		l-2.062-2.622L39.215,106.355z M122.226,108.883c0.504,0,0.914,0.41,0.914,0.914s-0.41,0.91-0.914,0.91s-0.91-0.406-0.91-0.91
		S121.722,108.883,122.226,108.883L122.226,108.883z M80.824,109.344l9.82,9.23l-2.797,0.031l-8.054-7.3l-5.114-0.192l1-1.742
		L80.824,109.344z M119.019,109.5c0.504,0,0.91,0.406,0.91,0.91c0,0.504-0.406,0.914-0.91,0.914s-0.914-0.41-0.914-0.914
		C118.105,109.906,118.515,109.5,119.019,109.5L119.019,109.5z M130.71,109.52c5.535,4.304,13.352,10.011,21.469,14.64
		c0-0.015-1.34,1.051-2.57,1.391c-6.316-3.485-13.836-8.399-18.492-12.379c-4.395,6.469-12.84,18.242-20.348,23.676
		c-4.734,3.391-7.121,7.566-7.105,12.449c0.012,5.051,1.797,8.34,6.766,12.476c3.203,2.668,6.707,6.075,6.707,6.075l-1.84,1.586
		c-0.309-0.036-5.379-4.406-10.508-9.555c-2.82-2.828-4.074-9.043-3.594-12.396c0.652-4.558,2.172-7.823,6.496-11.343
		c1.656-1.286,3.332-2.282,4.797-3.743C125.914,118.035,130.71,109.52,130.71,109.52L130.71,109.52z M121.722,111.867
		c0.508,1.043,0.789,2.41-0.805,2.504c-0.941,0.055-1.48-1.516-0.664-2.914C120.871,110.359,121.421,111.293,121.722,111.867
		L121.722,111.867z M74.406,111.59l5.301,0.156c0,0,5.226,4.559,7.867,7.082h17.758c9.766,0,17.793,0.039,17.836,0.086
		c0.125,0.121-1.262,1.977-1.262,1.977l-58.563,0.035c0.012-0.008,3.618-3.219,4.907-4.121
		C70.539,115.211,72.632,113.727,74.406,111.59L74.406,111.59z M38.519,113.793c0.383,1.414,0.703,2.855,1.363,4.16l-4.066,2.156
		C36.566,117.957,37.422,115.887,38.519,113.793L38.519,113.793z M151.433,125.551c-0.809,2.199-2.922,6.691-5.477,10.094
		c-0.504,0.652-0.852,1.16-0.852,1.16l4.98,4.77l-4.324,4.598c2.43,2.527,4.484,6.398,5.563,9.48
		c-1.961-0.777-3.063-1.242-5.48-2.591c-0.684-1.714-1.383-3.534-2.152-5.101c-1.762-3.574-1.738-3.228-0.297-4.277
		c2.105-1.539,2.734-1.898,2.188-2.672c-0.387-0.547-2.875-3.5-3.023-3.594c-0.23-0.141-0.129-0.578,0.297-1.277
		c1.441-2.59,2.621-5.441,3.355-7.98L151.433,125.551z M152.375,125.729l0.133,30.06c-1.785-3.59-3.641-7.258-5.711-9.551
		c-0.078-0.156,4.512-4.641,4.512-4.641c-1.68-1.559-2.664-2.489-5.016-4.652C148.582,133.645,150.394,129.332,152.375,125.729
		L152.375,125.729z M26.039,126.772l5.711,3.317c-0.301,4.238-0.684,9.805-1.266,15.453c-0.492,4.406-0.695,6.434,0.086,7.656
		c0.66,0.895,2.445,1.862,2.445,1.862c-3.004,1.216-4.16,4.806-0.793,7.485c0,0-0.82,0.644-1.183,1.031l-4.684-3.504L26.039,126.772
		z M115.437,128.293c-1.426,1.594-3.656,3.961-5.371,5.094c-2.285,1.508-5.492,4.406-5.34,4.449c0,0-3.363-0.016-5.637-0.106
		l-7.855-7.011c0,0,0.277-0.102-10.41-0.016c-13.817,0.112-25.012-0.039-25.012-0.039l1.567-2.203L115.437,128.293z
		 M143.437,129.668c-0.773,2.488-1.973,4.785-3.492,6.937c-0.352-1.526-0.543-3.147-1.281-4.444L143.437,129.668z M32.476,130.465
		l0.684,0.488c0,0-0.41,5.188-0.543,6.707c-0.242,2.805-0.36,5.332-0.602,8.188c-0.492,5.675-0.41,6.511,0.703,7.386
		c0.856,0.642,1.442,0.353,0.68-0.461c-0.5-0.644-0.496-0.628-0.648-1.577c-0.106-0.656-0.09-1.637,0.058-4.301
		c0.848-14.988,1.028-15.493,1.043-15.497l1.707,1.103c-0.093,0.229,1.567,15.108,1.399,18.809c-0.2,4.324-6.02,3.371-6.297,0.16
		c-0.113-0.739,0.992-12.883,0.992-12.883L32.476,130.465z M79.957,131.34l2.285,0.066l14.094,12.952l4.805,0.106l-0.418,1.633
		l-4.645-0.008L79.957,131.34z M88.699,131.34h2.211l8.066,7.313l4.965,0.077l-0.945,1.407l-4.938-0.141L88.699,131.34z
		 M85.941,131.348l11.926,10.75l4.066,0.211l-0.625,1.473l-4.82-0.137l-13.398-12.27L85.941,131.348z M74.445,131.387h2.477
		l18.64,16.781l4.887,0.09l-0.074,1.512l-5.879-0.027L74.445,131.387z M137.179,131.863c0.984,0.245,1.469,1.198,2.164,4.734
		c0.809,4.121-0.945,10.816-3.141,12.07c-1.137,0.894-2.371-0.051-1.57-1.219c2.621-3.805,2.965-10.027,1.418-13.509
		C135.558,132.82,136.062,131.66,137.179,131.863L137.179,131.863z M58.09,132.479c5.953,0.071,7.496,12.306,1.632,14.021
		c-3.804,0.562-5.765-2.883-6.316-5.992C52.754,136.647,54.457,132.437,58.09,132.479L58.09,132.479z M54.812,139.82
		c0.356,2.452,1.879,5.258,4.09,5.02c2.906-0.317,3.27-4.195,2.98-6.149c-0.347-2.358-1.644-4.495-3.722-4.612
		C55.066,133.902,54.539,137.93,54.812,139.82L54.812,139.82z M58.007,135.059c0.833-0.012,1.442,1.098,1.215,2.473
		c-0.148,0.895-0.484,1.991-1.488,1.246c-0.469-0.426-0.887-1.676-0.773-2.609C57.035,135.555,57.34,135.074,58.007,135.059
		L58.007,135.059z M140.144,137.887l2.797,3.234l-3.176,2.227C140.21,141.647,140.359,139.836,140.144,137.887L140.144,137.887z
		 M60.035,138.18c0.504,0,0.91,0.41,0.91,0.914s-0.406,0.914-0.91,0.914c-0.504,0-0.914-0.41-0.914-0.914
		S59.531,138.18,60.035,138.18L60.035,138.18z M56.773,138.742c0.504,0,0.91,0.405,0.91,0.909c0,0.505-0.406,0.91-0.91,0.91
		s-0.918-0.405-0.918-0.91C55.855,139.147,56.269,138.742,56.773,138.742L56.773,138.742z M58.617,139.918
		c0.461,0.137,0.754,0.559,0.996,0.926c0.613,0.906,0.691,2.047,0.258,2.523c-0.875,1.039-2.242-0.074-2.078-1.681
		C57.914,140.508,58.226,139.797,58.617,139.918L58.617,139.918z M66.429,143.488c1.305,0,1.676,1.543,0.547,2.297
		c-0.73,0.487-0.894,2.082-0.441,4.293c0.367,1.594,0.176,1.84-0.778,0.401C64.132,147.875,64.55,143.488,66.429,143.488
		L66.429,143.488z M63.371,144.324c1.144-0.043,1.515,0.836,0.844,1.508c-0.391,0.434-0.352,1.582,0.085,2.526
		c0.618,1.368,0.473,1.778-0.683,0.466C62.015,147.113,62.039,144.375,63.371,144.324L63.371,144.324z M139.207,144.992
		c1.301,1.73,2.457,3.987,3.508,6.547l-5.641-2.594L139.207,144.992z M56.738,151.949c-0.398-0.461-0.594-1.961-0.922-2.598
		c-0.254-0.77-0.473-1.215-0.887-1.191c-2.386,0.203-2.285-2.078-0.918-2.509C56.847,144.762,57.879,151.602,56.738,151.949
		L56.738,151.949z M68.57,149.647c-0.406,1.196-0.109,1.911-0.027,3.188c0.07,0.578,0.101,0.729-0.375,0.285
		c-1.133-0.984-1.731-4.352-0.715-4.977C68.824,147.305,69.238,148.723,68.57,149.647L68.57,149.647z M125.109,148.051
		c0.551-0.028,1.18,0.402,1.492,1.195c0.445,1.141,0.406,3.93,0.18,5.418c-0.344,2.272-0.895,4.363-1.117,5.926
		c-0.801,0.949-2.766-2.406-2.953-5.059c-0.309-2.102,0.414-6.47,2.031-7.391C124.859,148.086,124.98,148.055,125.109,148.051
		L125.109,148.051z M132.726,148.406c0.496-0.02,0.383,0.145,0.75,0.527c0.555,0.582,0.781,0.723,1.566,0.969
		c1.617,0.512,3.395,2.766,2.711,3.452c-0.543,0.431-2.016-0.382-2.52-0.554c-0.543-0.188-1.219-0.418-1.504-0.516
		c-1.359-0.457-3.309-2.957-2.703-3.461C131.351,148.555,132.343,148.426,132.726,148.406L132.726,148.406z M128.781,148.824
		c1.004,0.008,1.277,0.258,1.852,1.336c0.852,1.602,2.43,2.73,4.723,3.379c2.93,0.895,5.457,2.59,5.332,5.733
		c-0.699,0.009-1.395,0.056-2.094,0.271c-0.813-2.281-2.828-3.59-4.563-3.984c-4.004-0.907-7.723-4.969-6.664-6.582
		C127.828,148.742,128.324,148.815,128.781,148.824L128.781,148.824z M59.718,149.022l34.586,30.122
		c-14.593-5.415-27.984-5.297-40.934-3.297L59.718,149.022z M74.468,151.016c-0.062,0.941-1.351,1.141-1.617,1.371
		c-0.644,0.563-0.558,2.188-0.285,4.082c0.211,1.136-0.07,1.086-0.668,0.195c-1.058-1.578-1.039-4.313-0.336-5.926
		C72.468,148.664,74.562,149.703,74.468,151.016L74.468,151.016z M54.578,149.543c1.328,0.137,1.691,1.94,1.746,3.137
		c0,1.652-0.465,1.59-0.731,0c-0.125-0.703-0.343-0.973-0.91-1.145C53.394,151.147,53.308,149.543,54.578,149.543L54.578,149.543z
		 M70.652,151.387c-0.34,0.371-0.348,2.121-0.039,3.297c0.172,0.648-0.145,0.699-0.586,0.184c-1.43-1.681-1.562-4.523-0.234-5.074
		C70.875,149.512,71.156,150.832,70.652,151.387L70.652,151.387z M55.687,154.75c0.031,1.676-0.351,1.832-0.855,0.223
		c-0.129-0.371-0.356-0.746-0.524-0.859c-0.941-0.645-1.105-1.148-0.558-1.691C55.09,151.324,55.672,154.254,55.687,154.75
		L55.687,154.75z M60.742,153.272l-4.688,20c11.539-0.968,16.786-1.171,29.118,1.239L60.742,153.272z M74.726,153.604
		c0.703,0.177,0.949,1.099,0.125,1.97c-0.269,0.344-0.519,0.879-0.191,2.293c0.449,1.934-0.309,1.316-1.231-0.513
		C72.84,156.184,73.109,153.199,74.726,153.604L74.726,153.604z M52.648,153.668c1.254,0,2.418,2.035,2.434,4.262
		c0.015,1.8-0.242,1.668-0.91-0.051c-0.473-1.137-0.852-1.551-1.704-1.848C50.886,155.479,51.023,153.668,52.648,153.668
		L52.648,153.668z M61.125,154.242l21.718,18.98c-8.894-1.422-17.625-1.532-26.105-0.465L61.125,154.242z M79.199,154.957
		c1.703,0,2.375,2.104,0.285,2.844c-1.246,0.438-0.715,2.957-0.484,4.453c0.086,0.562-0.094,0.601-0.45,0.098
		C77.238,160.414,76.504,155.531,79.199,154.957L79.199,154.957z M76.898,157.324c-0.308,0.487-0.344,1.012-0.129,1.953
		c0.551,2.031,0.696,2.406-0.457,1.374c-1.215-1.284-1.746-3.823-0.73-4.577C76.726,155.229,77.754,156.168,76.898,157.324
		L76.898,157.324z M33.98,155.758c2.016-0.016,3.481,1.289,3.402,3.109c-0.085,2.004-1.339,3.27-3.183,3.375
		c-2.059,0.105-3.332-1.539-3.375-3.238C30.781,157.5,31.738,155.772,33.98,155.758L33.98,155.758z M33.945,156.562
		c-2.309-0.007-3.172,3.036-1.262,4.442c0.821,0.601,1.465,0.43,0.793-0.211c-1.269-1.203-0.758-3.199,0.91-3.563
		C35.215,157.047,34.894,156.565,33.945,156.562L33.945,156.562z M62.039,157.078l-2.778,13.473
		c5.68-0.883,12.555-0.614,17.86-0.117L62.039,157.078z M52.683,157.59c1.383-0.07,1.785,2.008,1.797,2.836
		c0,1.07-0.125,1.625-0.324,1.054c-0.465-1.347-0.922-2.089-1.422-2.089c-0.269-0.07-0.504-0.18-0.719-0.422
		C51.523,158.315,52,157.617,52.683,157.59L52.683,157.59z M62.297,158.129l1.832,1.555c-1.18-0.516-2.184,0.82-2.184,0.82
		L62.297,158.129z M81.14,160.672c-0.531,0.668-0.527,2.078-0.113,3.719c0.113,0.461-0.312,0.121-0.746-0.426
		c-0.82-1.031-1.203-2.242-1.055-3.235C79.39,158.219,82.574,158.707,81.14,160.672L81.14,160.672z M52.175,159.473
		c1.184,0.132,1.633,2.605,1.606,3.355c-0.039,0.785-0.219,1.316-0.375,0.84c-0.305-1.035-0.934-2.521-1.481-2.863
		C50.988,160.223,51.254,159.555,52.175,159.473L52.175,159.473z M142.91,162.242c0.043,0.875-0.32,1.77-0.859,2.055
		c-0.551,0.293-0.883-0.102-1.211-1.11c-0.242-0.737-0.328-1.022-0.328-1.022s-0.203,0.926-0.27,1.117
		c-0.426,1.284-1.82,1.297-2.406-0.137c-0.621-1.672,1.117-3.387,2.449-3.329C141.765,159.887,142.832,160.84,142.91,162.242
		L142.91,162.242z M63.757,160.375c0.418,0,2.032,0.723,2.032,0.723l1.609,1.425c0,0-1.48-0.644-2-0.827
		c-1.246-0.441-1.219-0.445-2.226,0.375c-1.036,0.848-1.883,1.469-1.883,1.469l0.32-1.828
		C61.609,161.711,63.121,160.375,63.757,160.375L63.757,160.375z M53.207,164.863c0.238,1.934-0.305,2.094-0.828,0.25
		c-0.45-1.578-0.891-2.152-1.653-2.152c-1.406,0.211-1.879-1.875-0.617-2.293C52.492,160,53.105,164.102,53.207,164.863
		L53.207,164.863z M134.835,160.629l2.199,1.019l0.465,2.274l-2.023-0.5L134.835,160.629z M85.605,160.84
		c2.113-0.586,2.375,2.043,0.754,2.433c-0.988,0.239-0.984,1.771-0.699,3.997c0.062,0.507,0.199,1.121,0.168,1.207
		c-0.153,0.402-0.653-0.211-1.332-1.637C83.484,164.238,83.8,161.34,85.605,160.84L85.605,160.84z M146.035,160.805l-0.609,2.632
		l-1.859-0.128l-0.07-1.609L146.035,160.805z M83.437,162.516c-1.019,1.477-0.105,2.836,0.121,3.988
		c0.039,0.672-0.824,0.016-1.324-0.961c-1.039-2.039-1.098-3.685-0.164-4.418C83.379,160.358,83.98,161.729,83.437,162.516
		L83.437,162.516z M64.375,162.156c0.359,0.004,0.843,0.198,1.867,0.594c0.777,0.297,2.57,1.027,2.57,1.027l2.375,2.094
		c0,0-2.086-0.767-3.535-1.379c-3.27-1.384-2.801-1.427-5.383,0.543c-0.746,0.566-1.523,1.215-1.523,1.215l0.316-1.685
		c0,0,0.977-0.972,2.192-1.847C63.777,162.34,64.015,162.151,64.375,162.156L64.375,162.156z M33.976,162.953
		c1.672-0.047,2.77,1.285,3.172,2.77c0.234,0.859,0.031,1.656-0.016,2.48c-1.152,8.844-1.66,17.055-2.722,25.242
		c-0.129,0.395-0.274,0.245-0.442-0.457c-1.23-7.427-2.031-15.574-3.062-22.934c-0.238-2.75-0.945-6.34,2.531-7.043
		C33.621,162.977,33.8,162.957,33.976,162.953L33.976,162.953z M33.875,163.934c-0.739,0.031-1.61,0.535-1.918,1.188
		c-0.633,1.336-0.469,4.047,0.734,12.18c0.098,0.679,0.238,1.808,0.309,2.511c0.211,2.161,0.496,3.875,0.703,4.196
		c0.394,0.605,0.441-0.047,0.16-2.16c-0.145-1.078-0.34-2.727-0.434-3.661c-0.539-3.858-0.656-6.601-0.992-10.121
		c-0.168-1.729,0.528-3.007,1.836-3.351c0.707-0.188,0.742-0.504,0.082-0.719C34.211,163.949,34.047,163.926,33.875,163.934
		L33.875,163.934z M144.472,164.043c2.445,0.004,3.344,3.426,0.953,4.629c-0.891,0.449-2.375,0.238-2.746-0.477
		c-0.18-0.555,0.02-0.88,0.465-1.117c0.539-0.285,1.328-0.531,1.328-0.531s-1.293-0.25-1.656-0.863
		C142.031,164.363,143.472,164.065,144.472,164.043L144.472,164.043z M52.57,167.729c-0.027,0.646-0.355,0.379-0.438,0
		c-0.261-0.858-0.812-1.789-1.273-2.155c-0.555-0.449-0.687-1.055-0.312-1.434C51.965,162.887,52.562,167.328,52.57,167.729
		L52.57,167.729z M135.445,164.031c0.625-0.016,1.473,0.195,2.012,0.734c0.695,0.695,0.656,0.953-0.508,1.379
		c-0.563,0.207-0.953,0.371-0.953,0.371s0.523,0.207,0.914,0.316c1.117,0.371,1.059,1.02,0.031,1.785
		c-1.395,1.039-3.633-0.345-3.609-2.177C133.355,164.988,134.25,164.065,135.445,164.031L135.445,164.031z M140.601,164.022
		l2.23,2.457l-2.609,2.7l-2.453-2.691L140.601,164.022z M64.777,164.254c0.031-0.004,0.063,0,0.098,0
		c0.691,0.012,1.793,0.479,4.5,1.57c1.488,0.598,3.203,1.28,3.203,1.28l2.437,2.153c0,0-3.336-1.047-4.5-1.637
		c-0.25-0.125-0.804-0.363-1.23-0.52c-0.422-0.161-1.477-0.574-2.34-0.922c-1.859-0.746-1.879-0.75-2.504-0.227
		c-0.266,0.227-0.918,0.737-1.449,1.141c-0.531,0.398-1.305,0.988-1.723,1.304c-0.492,0.375-1.113,0.942-1.113,0.942l0.394-2.078
		c0,0,0.352-0.344,0.977-0.825c0.508-0.386,1.375-1.05,1.922-1.472C64.007,164.535,64.3,164.277,64.777,164.254L64.777,164.254z
		 M88.726,166.078c0.067,0.43,0.028,0.516-0.472,1.023c-0.625,0.641-0.711,1.691-0.254,3.051c0.129,0.379,0.281,0.824,0.25,0.855
		c-0.664,0.664-2.41-3.524-1.996-4.774C86.754,164.742,88.394,164.719,88.726,166.078L88.726,166.078z M50.429,166.258
		c0.457-0.024,0.989,0.324,1.254,1.047c0.723,2.016,0.282,4.488-0.457,2.184c-0.191-0.488-0.523-1.012-0.773-1.277
		c-0.262-0.274-0.84-0.594-0.828-1.043C49.679,166.582,50.027,166.276,50.429,166.258L50.429,166.258z M65.359,166.315
		c0.293,0.009,0.684,0.153,1.383,0.442c0.637,0.258,2.422,0.855,3.437,1.246c1.578,0.609,3.223,1.41,3.223,1.41l-3.57-0.199
		c0,0-1.211-0.403-1.934-0.699c-2.617-1.075-2.469-1.07-3.769-0.082c-0.465,0.355-1.051,0.925-1.051,0.925l-1.817,0.099
		c0,0,0.852-0.91,2.086-1.824c0.403-0.297,0.953-0.723,1.219-0.946C64.871,166.434,65.066,166.305,65.359,166.315L65.359,166.315z
		 M93.289,167.02c0.992-0.188,1.535,0.757,1.473,1.348c-0.066,0.648-0.668,1.297-1.594,1.477c-0.195,0.722-0.75,2.375-0.426,4.843
		c0.258,1.153-0.23,1.181-0.727,0.071C91.207,172.965,90.027,167.637,93.289,167.02L93.289,167.02z M90.453,168.996
		c-0.422,0.901-0.57,1.625-0.336,2.762c0.258,1.262,0.313,1.574-0.402,0.785c-1.391-1.853-1.594-4.801-0.313-5.142
		C90.636,167.078,90.91,168.418,90.453,168.996L90.453,168.996z M48.804,167.617c2.168,0.34,2.809,4.035,2.504,5.612
		c-0.574,1.915-0.543,0.622-0.746-0.175c-0.531-1.926-1.152-2.973-1.812-3.082C46.972,169.676,47.222,167.363,48.804,167.617
		L48.804,167.617z M65.425,168.344c0.036-0.004,0.067,0,0.102,0.008c0.715,0.117,2.625,0.707,1.801,0.906l-2.821,0.015
		C63.961,169.293,64.863,168.383,65.425,168.344L65.425,168.344z M141.355,168.945c0.273-0.023,0.645,0.297,1.082,0.741
		c1.004,1.024,0.563,2.634-0.793,3.431c-2.125,1.246-4.547-1.105-3.379-3.263c0.641-1.187,1.41-0.976,2.066,0.696
		c0.121,0.203,0-0.207,0.227-0.715C140.781,169.328,141.082,168.973,141.355,168.945L141.355,168.945z M137.785,169.065
		l-0.641,2.571l-2.594,1.246l0.949-3.168L137.785,169.065z M143.175,169.504l2.066,0.164l1.148,3.34l-2.98-1.27L143.175,169.504z
		 M94.363,171.391c1.504,0.063,1.656,1.48,0.793,2.102c-0.484,0.465-0.648,1.133-0.551,2.207c0.047,0.473,0.141,1.059,0.137,1.125
		c-0.016,0.23-0.203,0.191-0.461-0.091C92.691,175.008,92.902,171.332,94.363,171.391L94.363,171.391z M48.914,171.945
		c0.953,0,2.031,2.73,1.5,3.773c-0.336,0.613-0.657,0.461-0.782-0.25c-0.089-0.516-0.386-1.227-1.156-1.352
		C47.363,173.762,47.726,171.945,48.914,171.945L48.914,171.945z M97.109,173.598c0.73,0.375,0.797,1.211,0.141,1.679
		c-0.512,0.364-0.645,0.673-0.723,1.657c0.164,2.238-1.094,0.816-1.211-1.223C95.25,174.604,95.851,172.957,97.109,173.598
		L97.109,173.598z M48.113,174.285c0.684,0,1.496,1.227,1.316,1.944c-0.097,0.567-0.394,0.466-0.812,0.043
		c-0.16-0.125-0.524-0.253-0.695-0.304C46.902,175.656,47.074,174.285,48.113,174.285L48.113,174.285z M67.535,175.227
		c9.238-0.043,18.847,1.426,26.832,4.613l-0.656,1.183l-2.098-0.722l-0.719,1.902l1.727,0.655l-0.813,1.755
		c-9.426-3.098-19.59-5.406-36.484-2.906c-0.836-0.586-2.352-1.734-2.352-1.734l1.348-0.297l-0.176-1.879l-3.41,0.609l-0.996-1.043
		C55.07,175.996,61.215,175.258,67.535,175.227L67.535,175.227z M98.519,175.641c0.883,0,1.434,0.992,0.785,1.418
		c-0.457,0.296-1.465,0.378-1.668,0.137C97.218,176.687,97.812,175.637,98.519,175.641L98.519,175.641z M66.23,176.801l-0.035,1.949
		l2.785-0.09l0.055-1.849L66.23,176.801z M71.097,176.844l0.012,1.91l2.703,0.09l0.129-1.871L71.097,176.844z M64.023,176.977
		l-2.734,0.18l0.086,1.784l2.711-0.12L64.023,176.977z M76.254,177.27l-0.071,1.844l2.75,0.305l0.199-1.875L76.254,177.27z
		 M58.933,177.358l-2.75,0.353l0.235,1.832l2.675-0.293L58.933,177.358z M81.57,177.957l-0.27,1.922l2.567,0.383l0.328-1.828
		L81.57,177.957z M126.589,178.512c1.238,1.734,2.422,3.211,3.246,5.148c1.059,2.487,1.766,5.742,1.766,8.422
		c0,1.602-1.117,1.276-1.348-0.392c-0.961-7.019-9.41-8.077-12.73-1.589c-0.863,1.855-1.027,4.152-0.574,6.71
		c1.605,9.06,13.02,17.806,16.598,27.306c6.723-13.77,12.621-15.91,15.68-27.121c2.461-8.617-5.926-15.023-12.008-9.441
		c-1.109,1.023-2.137,2.925-2.254,4.179c-0.254,2.021-1.148,1.72-1.234,0.056c-0.031-1.754,0.719-5.117,1.781-8.113
		c0.563-1.582,1.402-3.528,2.543-5.164H126.589z M86.656,179.031l-0.254,1.945l2.605,0.555l0.352-1.805L86.656,179.031z
		 M68.195,181.272c8.66-0.011,16.551,1.481,23.199,4.009c0,0-0.863,1.855-1.164,2.059c-4.773-1.906-12.902-3.676-18.394-3.774
		c-2.012-0.073-2.457-0.125-3.2-0.382c-4.187-1.375-7.882-1.973-11.293,0.063l-1.39-0.984
		C60.16,181.59,64.257,181.276,68.195,181.272L68.195,181.272z M162.898,188.516c0,0,0.488,0.66,0.789,1.023
		c1.344,1.613,2.16,4.504,1.277,4.504c-0.219,0-0.324-0.203-0.648-0.516c-1.199-1.773-3.602-1.152-4.531,0.159
		c-0.957,1.349-1.059,3.532-0.32,5.129c2.402,4.961,7.016,10.621,6.934,11.271c2.465-5.504,4.484-7.055,6.313-11.082
		c0.652-1.992,0.66-3.16,0.152-4.692c-0.695-2.093-4.066-3.046-5.258-0.866c-0.395,0.668-0.707,0.859-0.973,0.59
		c-0.547-0.547,0.398-3.531,1.508-4.758c0.195-0.219,0.563-0.762,0.563-0.762H162.898z M31.617,192.375
		c1.98,0.022,2.922,3.059,0.832,4.336c-0.563,0.315-1.301,0.272-1.895,0.008c-1.695-0.809-1.82-3.332,0.157-4.157
		C31.027,192.43,31.336,192.371,31.617,192.375L31.617,192.375z M96.343,192.473c0.711,0.434,3.328,1.593,3.328,1.593l-18.391,33.25
		l-4.453,0.036L96.343,192.473z M37.023,192.551c1.102-0.121,1.883,0.824,2.168,1.617c0.387,1.078-0.309,2.992-2.25,2.883
		C34.715,196.926,33.715,192.922,37.023,192.551L37.023,192.551z M100.273,194.281c0.492,0.273,2.281,0.566,2.434,0.914
		c0.066,0.172-0.066,0.508-0.105,0.949c-0.098,1.055,0.168,2.227,0.809,3.164c1.047,1.457-0.09,0.789-1.137,0.777
		c-2.363-0.603-5.375,2.617-4.23,5.934c0.262,0.734,0.211,0.789-1.055,1.176c-2.875,0.875-4.129,3.926-2.75,6.652
		c0.723,1.422,0.742,1.348-0.523,1.453c-3.52,0.293-5.563,3.414-4.086,6.605c0.227,0.491,0.082,0.629-0.684,0.773
		c-2.402,0.441-3.48,2.449-3.781,4.656l-3.18,0.027L100.273,194.281z M103.32,195.457l6.105,1.664
		c-2.535,8.621-2.887,18.633,0.164,30.219l-14.035,0.012c1.949-1.75,1.176-4.168-1.102-4.704c2.211-1.269,2.215-4.644-0.438-5.05
		c-2.328-0.359-3.531,1.855-2.496,4.078l-0.996,0.27c0,0-0.445-0.559-0.547-0.859c-0.879-2.563,0.961-5.106,4.094-5.098
		c1.938,0.008,2.336-0.539,1.266-1.73c-1.91-2.125-1.309-5.113,1.188-6.285c1.148-0.543,1.824-0.184,1.824-0.184l0.063,1.406
		c0,0-0.469,0.047-0.828,0.105c-2.758,0.441-2.246,4.832,0.555,4.793c1.543-0.02,2.645-1.188,2.645-2.867c0-0.473,0-1.168,0-1.168
		c1.418,2.421,3.848,2.593,4.887,0.625c1.219-2.32-0.996-3.777-3.211-3.539c0,0,0.465-0.301,0.758-0.454
		c2.363-1.214,1.547-4.683-1.063-4.683c-1.793,0-2.836,1.664-2.262,3.429c0.094,0.286,0.313,0.739,0.313,0.739l-1.066,0.27
		c0,0-0.242-0.184-0.348-0.355c-1.828-2.856,1.105-6.004,4.809-5.293c1.355,0.426,1.309-0.512,0.551-1.356
		C103.328,198.223,102.718,196.84,103.32,195.457L103.32,195.457z M34.324,196.703l3.207,5.645l-3.59,6.507l-3.559-6.093
		L34.324,196.703z M34.011,199.641l-2.226,3.063l2.18,3.516l2.066-3.559L34.011,199.641z M33.914,200.789l1.445,1.94l-1.457,2.379
		l-1.426-2.233L33.914,200.789z M100.132,206.891c0.676,0,1.227,0.546,1.227,1.223c0,0.672-0.551,1.219-1.227,1.219
		c-0.672,0-1.219-0.547-1.219-1.219C98.914,207.437,99.46,206.891,100.132,206.891L100.132,206.891z M166.726,213.608
		c-0.938,0.024-1.953,0.298-3.008,0.841c-1.137,0.59-1.137,0.59-1.578,0.293c-1.086-0.715-1.418-0.884-2.637-0.884
		c-0.758,0-1.281,0.043-1.281,0.043l0.105,2.923c2.625-0.07,3.348,0.82,2.797,2.405c-0.574,0.716-0.445,11.032-0.262,15.013
		c-0.047,1.957,0.824,3.816,2.027,4.944c1.875,1.661,5.195,1.54,7.125,0.149c1.289-0.926,1.902-2.478,2.176-4.055
		c0.133-3.238,0.059-6.48,0.059-9.72l2.078,0.021l-0.023-2.93l-2.031-0.117c0,0,0.023,0.082-0.063-2.09
		c0.141-4.548-2.191-6.716-5.297-6.837C166.851,213.604,166.789,213.604,166.726,213.608L166.726,213.608z M166.562,216.555
		c1.715,0.132,2.41,0.813,2.805,2.273c0.285,1.043,0.391,2.276,0.152,2.664c-0.383,0.629-1.867-0.47-3.809-2.836
		c-0.652-0.798-0.945-1.211-0.945-1.211C165.144,216.776,165.941,216.508,166.562,216.555L166.562,216.555z M163.445,220.492
		c1.781,1.53,2.035,3.086,6.238,4.566c0,0,0.121-0.164,0.051,4.961c-0.082,5.656-0.418,6.813-2.125,7.281
		c-1.48,0.406-2.871-0.281-3.484-1.715c-0.629-1.469-0.781-4.926-0.758-11.504C163.375,221.695,163.445,220.492,163.445,220.492
		L163.445,220.492z M91.507,222.203c0.699,0,1.266,0.563,1.266,1.262s-0.566,1.265-1.266,1.265s-1.262-0.565-1.262-1.265
		S90.808,222.203,91.507,222.203L91.507,222.203z M89.593,223.062c-0.113,0.052,0.004,1.149,0.281,1.603
		c-1.825,0.108-2.305,1.504-2.485,2.684l-1.633-0.004C86.031,223.363,89.48,223.272,89.593,223.062L89.593,223.062z M89.593,223.062
		"/>
</g>
</svg>
