<?xml version="1.0" encoding="utf-8"?>
<!-- Generator: Adobe Illustrator 15.0.0, SVG Export Plug-In . SVG Version: 6.00 Build 0)  -->
<!DOCTYPE svg PUBLIC "-//W3C//DTD SVG 1.1//EN" "http://www.w3.org/Graphics/SVG/1.1/DTD/svg11.dtd">
<svg version="1.1" id="Layer_1" xmlns="http://www.w3.org/2000/svg" xmlns:xlink="http://www.w3.org/1999/xlink" x="0px" y="0px"
	 width="178.582px" height="249.449px" viewBox="0 0 178.582 249.449" enable-background="new 0 0 178.582 249.449"
	 xml:space="preserve">
<g>
	<path fill="#FFFFFF" d="M8.504,0"/>
	<path d="M12.202,32.831v-2.25h2.071V26.87H3.933v-2.618L15.12,7.374l1.828,0.007v16.871h3.164v2.618h-3.164l-0.062,3.711h1.734
		v2.25H12.202z M14.273,13.553L7.167,24.251h7.106V13.553z"/>
	<path d="M166.361,217.03v2.25h-2.064v3.711h10.34v2.612l-11.188,16.879l-1.828-0.004v-16.875h-3.163v-2.612h3.163l0.061-3.711
		h-1.734v-2.25H166.361z M164.296,236.309l7.103-10.703h-7.103V236.309z"/>
	<path d="M42.925,54.422c0.012-1.621-1.269-1.653-1.257-0.469c-0.106,5.941-5.133,8.867-8.786,8.176
		c-5.628-1.071-7.421-6.66-7.371-9.949c0.168-10.157,10.391-17.649,19.618-30.668c6.761,11.753,17.918,20.984,18.578,30.07
		c0.879,12.078-14.407,16.582-16.59,2.504c-0.141-0.992-1.313-1.442-1.219-0.051c0.332,3.855-0.141,5.465,4.211,14.977H38.73
		C41.25,64.566,42.754,59.109,42.925,54.422L42.925,54.422z"/>
	<path d="M132.148,54.422c0.016-1.621-1.271-1.653-1.254-0.469c-0.105,5.941-5.133,8.867-8.785,8.176
		c-5.629-1.071-7.426-6.66-7.371-9.949c0.168-10.157,10.391-17.649,19.617-30.668c6.762,11.753,17.918,20.984,18.578,30.07
		c0.879,12.078-14.406,16.582-16.593,2.504c-0.141-0.992-1.313-1.442-1.219-0.051c0.328,3.855-0.144,5.465,4.211,14.977h-11.379
		C130.477,64.566,131.98,59.109,132.148,54.422L132.148,54.422z"/>
	<path d="M42.933,195.198c0.012,1.62-1.269,1.649-1.254,0.469c-0.109-5.944-5.136-8.871-8.785-8.176
		c-5.629,1.069-7.426,6.655-7.371,9.948c0.164,10.154,10.387,17.646,19.613,30.668c6.762-11.754,17.918-20.983,18.579-30.069
		c0.878-12.078-14.407-16.582-16.59-2.508c-0.141,0.995-1.309,1.438-1.219,0.055c0.332-3.858-0.141-5.465,4.211-14.978H38.742
		C41.261,185.055,42.761,190.507,42.933,195.198L42.933,195.198z"/>
	<path d="M132.16,195.198c0.012,1.62-1.27,1.649-1.258,0.469c-0.105-5.944-5.133-8.871-8.781-8.176
		c-5.629,1.069-7.426,6.655-7.375,9.948c0.168,10.154,10.391,17.646,19.617,30.668c6.762-11.754,17.918-20.983,18.578-30.069
		c0.879-12.078-14.406-16.582-16.59-2.508c-0.144,0.995-1.313,1.438-1.222,0.055c0.332-3.858-0.141-5.465,4.211-14.978h-11.375
		C130.488,185.055,131.988,190.507,132.16,195.198L132.16,195.198z"/>
	<path d="M11.685,52.058c0.008-0.699-0.719-0.371-0.816-0.152c-0.93,1.589-2.293,1.957-3.637,1.386
		c-1.336-0.57-2.086-1.824-1.965-3.621c0.25-2.75,2.43-5.758,3.485-7.461c1-1.543,2.101-3.375,3.261-5.722
		c1.36,2.691,2.047,3.457,3.524,5.914c1.301,2.164,3.113,4.281,3.254,6.898c0,1.988-0.836,3.863-2.719,4.207
		c-1.066,0.195-2.063-0.351-2.805-1.629c-0.222-0.324-0.676-0.156-0.668,0.289c0.129,1.676,0.762,3.188,2.262,4.969H9.353
		C10.478,55.874,11.63,54.175,11.685,52.058L11.685,52.058z"/>
	<path d="M166.209,198.57c0.008,0.695-0.715,0.371-0.813,0.152c-0.937-1.591-2.293-1.962-3.644-1.388
		c-1.332,0.565-2.082,1.822-1.961,3.617c0.246,2.748,2.426,5.758,3.479,7.461c1.004,1.543,2.104,3.379,3.264,5.723
		c1.357-2.69,2.047-3.456,3.525-5.913c1.301-2.16,3.112-4.281,3.254-6.896c0-1.988-0.84-3.867-2.724-4.213
		c-1.063-0.189-2.063,0.354-2.801,1.635c-0.228,0.322-0.681,0.151-0.672-0.293c0.133-1.674,0.766-3.185,2.262-4.972h-5.508
		C165.005,194.75,166.154,196.453,166.209,198.57L166.209,198.57z"/>
</g>
</svg>
