<?xml version="1.0" encoding="utf-8"?>
<!-- Generator: Adobe Illustrator 15.0.0, SVG Export Plug-In . SVG Version: 6.00 Build 0)  -->
<!DOCTYPE svg PUBLIC "-//W3C//DTD SVG 1.1//EN" "http://www.w3.org/Graphics/SVG/1.1/DTD/svg11.dtd">
<svg version="1.1" id="Layer_1" xmlns="http://www.w3.org/2000/svg" xmlns:xlink="http://www.w3.org/1999/xlink" x="0px" y="0px"
	 width="178.582px" height="249.449px" viewBox="0 0 178.582 249.449" enable-background="new 0 0 178.582 249.449"
	 xml:space="preserve">
<g>
	<path fill="#FFFFFF" d="M8.504,0"/>
	<path d="M7.918,33.177c1.707-8.871,3.527-15.527,8.304-22.758H6.515v3.109H3.933V7.666H18.14l1.75,2.754
		c-5.074,5.438-9.718,23.012-8.898,22.758H7.918z"/>
	<path d="M170.652,216.936c-1.707,8.871-3.527,15.527-8.305,22.758h9.707v-3.113h2.582v5.867h-14.203l-1.75-2.754
		c5.074-5.438,9.719-23.018,8.895-22.758H170.652z"/>
	<path d="M43.18,54.41c0.012-1.617-1.27-1.649-1.254-0.469c-0.109,5.945-5.137,8.871-8.785,8.176
		c-5.629-1.07-7.426-6.656-7.371-9.949c0.164-10.157,10.387-17.645,19.613-30.664c6.762,11.75,17.918,20.98,18.577,30.066
		c0.88,12.078-14.405,16.586-16.589,2.508c-0.141-0.996-1.309-1.442-1.219-0.055c0.332,3.86-0.141,5.465,4.211,14.977H38.988
		C41.508,64.554,43.008,59.101,43.18,54.41L43.18,54.41z"/>
	<path d="M132.407,54.41c0.012-1.617-1.27-1.649-1.258-0.469c-0.105,5.945-5.133,8.871-8.781,8.176
		c-5.629-1.07-7.426-6.656-7.375-9.949c0.168-10.157,10.391-17.645,19.617-30.664c6.762,11.75,17.918,20.98,18.578,30.066
		c0.879,12.078-14.406,16.586-16.59,2.508c-0.143-0.996-1.311-1.442-1.221-0.055c0.332,3.86-0.141,5.465,4.213,14.977h-11.375
		C130.735,64.554,132.235,59.101,132.407,54.41L132.407,54.41z"/>
	<path d="M88.324,94.511c0.016-1.621-1.27-1.652-1.254-0.468c-0.105,5.941-5.133,8.867-8.785,8.175
		c-5.629-1.07-7.426-6.66-7.371-9.949c0.168-10.156,10.391-17.648,19.618-30.668c6.762,11.754,17.918,20.985,18.578,30.071
		c0.879,12.078-14.406,16.582-16.59,2.504c-0.143-0.993-1.313-1.442-1.219-0.051c0.326,3.855-0.143,5.465,4.211,14.976h-11.38
		C86.652,104.656,88.156,99.199,88.324,94.511L88.324,94.511z"/>
	<path d="M132.407,134.609c0.012-1.621-1.27-1.652-1.258-0.471c-0.105,5.947-5.133,8.871-8.781,8.178
		c-5.629-1.07-7.426-6.656-7.375-9.949c0.168-10.156,10.391-17.645,19.617-30.668c6.762,11.754,17.918,20.984,18.578,30.07
		c0.879,12.076-14.406,16.582-16.59,2.508c-0.143-0.996-1.311-1.441-1.221-0.057c0.332,3.859-0.141,5.467,4.213,14.979h-11.375
		C130.735,144.754,132.235,139.301,132.407,134.609L132.407,134.609z"/>
	<path d="M43.18,134.609c0.012-1.621-1.27-1.652-1.254-0.471c-0.109,5.947-5.137,8.871-8.785,8.178
		c-5.629-1.07-7.426-6.656-7.371-9.949c0.164-10.156,10.387-17.645,19.613-30.668c6.762,11.754,17.918,20.984,18.577,30.07
		c0.88,12.076-14.405,16.582-16.589,2.508c-0.141-0.996-1.309-1.441-1.219-0.057c0.332,3.859-0.141,5.467,4.211,14.979H38.988
		C41.508,144.754,43.008,139.301,43.18,134.609L43.18,134.609z"/>
	<path d="M132.414,195.188c0.013,1.619-1.271,1.652-1.254,0.469c-0.108-5.941-5.133-8.867-8.785-8.176
		c-5.629,1.07-7.426,6.658-7.371,9.947c0.164,10.158,10.392,17.648,19.613,30.668c6.762-11.754,17.918-20.982,18.578-30.064
		c0.879-12.078-14.406-16.586-16.587-2.508c-0.141,0.996-1.313,1.441-1.223,0.051c0.332-3.855-0.142-5.465,4.211-14.973h-11.375
		C130.743,185.043,132.243,190.5,132.414,195.188L132.414,195.188z"/>
	<path d="M43.188,195.188c0.012,1.619-1.27,1.652-1.254,0.469c-0.109-5.941-5.133-8.867-8.785-8.176
		c-5.629,1.07-7.426,6.658-7.371,9.947c0.164,10.158,10.391,17.648,19.613,30.668c6.762-11.754,17.918-20.982,18.582-30.064
		c0.875-12.078-14.41-16.586-16.59-2.508c-0.141,0.996-1.313,1.441-1.223,0.051c0.332-3.855-0.141-5.465,4.215-14.973H38.996
		C41.516,185.043,43.016,190.5,43.188,195.188L43.188,195.188z"/>
	<path d="M11.57,52.091c0.008-0.699-0.715-0.375-0.813-0.152c-0.929,1.586-2.293,1.957-3.64,1.383
		c-1.332-0.567-2.082-1.824-1.961-3.617c0.246-2.75,2.43-5.758,3.484-7.461c1-1.543,2.102-3.379,3.262-5.723
		c1.355,2.691,2.047,3.457,3.523,5.914c1.301,2.164,3.114,4.281,3.254,6.899c0,1.988-0.836,3.863-2.718,4.207
		c-1.067,0.191-2.063-0.356-2.805-1.629c-0.227-0.328-0.68-0.157-0.672,0.289c0.133,1.672,0.766,3.183,2.266,4.969H9.238
		C10.367,55.908,11.519,54.206,11.57,52.091L11.57,52.091z"/>
	<path d="M166.323,198.57c0.008,0.695-0.719,0.371-0.815,0.152c-0.931-1.59-2.289-1.957-3.638-1.387
		c-1.336,0.564-2.086,1.824-1.965,3.617c0.25,2.75,2.431,5.762,3.483,7.459c1.004,1.547,2.103,3.379,3.263,5.725
		c1.358-2.688,2.047-3.453,3.522-5.91c1.301-2.164,3.112-4.285,3.254-6.898c0-1.986-0.836-3.867-2.719-4.207
		c-1.066-0.193-2.063,0.354-2.806,1.629c-0.224,0.324-0.676,0.156-0.668-0.289c0.129-1.676,0.762-3.188,2.262-4.969h-5.508
		C165.116,194.748,166.27,196.453,166.323,198.57L166.323,198.57z"/>
</g>
</svg>
