<?xml version="1.0" encoding="utf-8"?>
<!-- Generator: Adobe Illustrator 15.0.0, SVG Export Plug-In . SVG Version: 6.00 Build 0)  -->
<!DOCTYPE svg PUBLIC "-//W3C//DTD SVG 1.1//EN" "http://www.w3.org/Graphics/SVG/1.1/DTD/svg11.dtd">
<svg version="1.1" id="Layer_1" xmlns="http://www.w3.org/2000/svg" xmlns:xlink="http://www.w3.org/1999/xlink" x="0px" y="0px"
	 width="178.582px" height="249.449px" viewBox="0 0 178.582 249.449" enable-background="new 0 0 178.582 249.449"
	 xml:space="preserve">
<g>
	<path fill="#FFFFFF" d="M8.504,0"/>
	<path d="M3.933,33.18v-2.191h2.129l4.531-23.418h2.582l4.992,23.418h1.719v2.191H14.03v-2.191h1.583l-0.629-3.59H9.073l-0.457,3.59
		h1.582v2.191H3.933z M14.476,24.848l-2.567-12.539L9.503,24.848H14.476z"/>
	<path d="M174.637,217.03v2.191h-2.129l-4.531,23.414h-2.577l-4.996-23.414h-1.716v-2.191h5.853v2.191h-1.582l0.634,3.586h5.905
		l0.457-3.586h-1.582v-2.191H174.637z M164.095,225.362l2.566,12.539l2.406-12.539H164.095z"/>
	<path d="M88.257,133.805c0.012-1.621-1.269-1.652-1.253-0.469c-0.106,5.939-5.133,8.867-8.786,8.172
		c-5.628-1.07-7.425-6.656-7.371-9.945c0.168-10.161,10.391-17.646,19.618-30.667c6.758,11.75,17.918,20.984,18.578,30.066
		c0.879,12.078-14.406,16.586-16.59,2.508c-0.141-0.995-1.313-1.44-1.223-0.051c0.332,3.854-0.139,5.465,4.215,14.974H84.066
		C86.586,143.949,88.086,138.492,88.257,133.805L88.257,133.805z"/>
	<path d="M11.568,52.059c0.012-0.7-0.715-0.375-0.812-0.153c-0.93,1.586-2.293,1.957-3.637,1.383
		c-1.336-0.566-2.086-1.824-1.965-3.617c0.25-2.75,2.43-5.758,3.485-7.461c1-1.543,2.101-3.379,3.261-5.723
		c1.356,2.692,2.047,3.457,3.524,5.914c1.301,2.164,3.113,4.282,3.254,6.899c0,1.988-0.836,3.863-2.719,4.207
		c-1.066,0.191-2.063-0.356-2.805-1.629c-0.222-0.328-0.679-0.156-0.672,0.289c0.133,1.672,0.766,3.184,2.266,4.969H9.236
		C10.365,55.875,11.518,54.171,11.568,52.059L11.568,52.059z"/>
	<path d="M166.325,198.568c0.008,0.693-0.72,0.371-0.815,0.15c-0.931-1.588-2.289-1.957-3.638-1.387
		c-1.336,0.57-2.086,1.824-1.965,3.617c0.25,2.75,2.43,5.764,3.483,7.461c1.004,1.547,2.103,3.379,3.262,5.727
		c1.359-2.689,2.048-3.457,3.523-5.914c1.301-2.164,3.112-4.279,3.254-6.896c0-1.988-0.836-3.867-2.72-4.207
		c-1.065-0.195-2.063,0.352-2.805,1.629c-0.224,0.324-0.677,0.156-0.669-0.289c0.13-1.676,0.763-3.188,2.263-4.969h-5.508
		C165.118,194.748,166.27,196.451,166.325,198.568L166.325,198.568z"/>
</g>
</svg>
