<?xml version="1.0" encoding="utf-8"?>
<!-- Generator: Adobe Illustrator 15.0.0, SVG Export Plug-In . SVG Version: 6.00 Build 0)  -->
<!DOCTYPE svg PUBLIC "-//W3C//DTD SVG 1.1//EN" "http://www.w3.org/Graphics/SVG/1.1/DTD/svg11.dtd">
<svg version="1.1" id="Layer_1" xmlns="http://www.w3.org/2000/svg" xmlns:xlink="http://www.w3.org/1999/xlink" x="0px" y="0px"
	 width="178.582px" height="249.449px" viewBox="0 0 178.582 249.449" enable-background="new 0 0 178.582 249.449"
	 xml:space="preserve">
<g>
	<path fill="#FFFFFF" d="M170.078,249.449"/>
	<path d="M172.48,213.176v25.203h-2.492v-25.203H172.48z M172.48,213.176"/>
	<path d="M162.617,238.379c2.395,0,4.32-2.149,4.32-4.817v-15.569c0-2.668-1.926-4.816-4.32-4.816h-1.398
		c-2.395,0-4.324,2.148-4.324,4.816v15.569c0,2.668,1.93,4.817,4.324,4.817H162.617z M161.894,235.996
		c-1.414,0-2.555-1.066-2.555-2.398V217.82c0-1.332,1.141-2.406,2.555-2.406s2.555,1.074,2.555,2.406v15.777
		C164.449,234.93,163.308,235.996,161.894,235.996L161.894,235.996z M161.894,235.996"/>
	<path d="M6.101,36.277V11.07H8.59v25.207H6.101z M6.101,36.277"/>
	<path d="M15.965,11.07c-2.395,0-4.321,2.153-4.321,4.821v15.57c0,2.668,1.926,4.816,4.321,4.816h1.394
		c2.398,0,4.328-2.148,4.328-4.816v-15.57c0-2.668-1.93-4.821-4.328-4.821H15.965z M16.687,13.453c1.414,0,2.551,1.07,2.551,2.402
		v15.778c0,1.332-1.137,2.406-2.551,2.406c-1.418,0-2.555-1.074-2.555-2.406V15.855C14.132,14.523,15.269,13.453,16.687,13.453
		L16.687,13.453z M16.687,13.453"/>
	<path d="M42.347,54.816c0.012-1.617-1.269-1.648-1.254-0.468c-0.109,5.945-5.132,8.871-8.785,8.175
		c-5.629-1.07-7.426-6.656-7.371-9.949C25.101,42.418,35.328,34.93,44.55,21.91c6.762,11.75,17.918,20.981,18.582,30.067
		c0.875,12.078-14.41,16.585-16.589,2.507c-0.141-0.996-1.313-1.441-1.223-0.054c0.332,3.859-0.141,5.465,4.211,14.976H38.156
		C40.675,64.961,42.175,59.508,42.347,54.816L42.347,54.816z M42.347,54.816"/>
	<path d="M86.922,80.949c0.011-1.621-1.27-1.652-1.258-0.469c-0.106,5.946-5.133,8.872-8.785,8.176
		c-5.629-1.07-7.422-6.656-7.372-9.949c0.168-10.156,10.391-17.645,19.618-30.668c6.761,11.754,17.917,20.984,18.578,30.07
		c0.879,12.078-14.406,16.582-16.59,2.508c-0.141-0.996-1.313-1.441-1.219-0.055c0.328,3.86-0.141,5.465,4.211,14.977H82.726
		C85.246,91.094,86.75,85.641,86.922,80.949L86.922,80.949z M86.922,80.949"/>
	<path d="M131.574,54.816c0.012-1.617-1.27-1.648-1.254-0.468c-0.109,5.945-5.133,8.871-8.785,8.175
		c-5.629-1.07-7.426-6.656-7.371-9.949c0.164-10.156,10.391-17.644,19.613-30.664c6.762,11.75,17.918,20.981,18.578,30.067
		c0.879,12.078-14.406,16.585-16.586,2.507c-0.145-0.996-1.313-1.441-1.223-0.054c0.332,3.859-0.141,5.465,4.211,14.976h-11.375
		C129.902,64.961,131.402,59.508,131.574,54.816L131.574,54.816z M131.574,54.816"/>
	<path d="M131.574,107.082c0.012-1.621-1.27-1.652-1.254-0.469c-0.109,5.946-5.133,8.871-8.785,8.176
		c-5.629-1.07-7.426-6.656-7.371-9.949c0.164-10.156,10.391-17.645,19.613-30.668c6.762,11.754,17.918,20.984,18.578,30.07
		c0.879,12.078-14.406,16.582-16.586,2.504c-0.145-0.992-1.313-1.437-1.223-0.051c0.332,3.86-0.141,5.465,4.211,14.977h-11.375
		C129.902,117.227,131.402,111.77,131.574,107.082L131.574,107.082z M131.574,107.082"/>
	<path d="M42.347,107.082c0.012-1.621-1.269-1.652-1.254-0.469c-0.109,5.946-5.132,8.871-8.785,8.176
		c-5.629-1.07-7.426-6.656-7.371-9.949c0.164-10.156,10.391-17.645,19.613-30.668c6.762,11.754,17.918,20.984,18.582,30.07
		c0.875,12.078-14.41,16.582-16.589,2.504c-0.141-0.992-1.313-1.437-1.223-0.051c0.332,3.86-0.141,5.465,4.211,14.977H38.156
		C40.675,117.227,42.175,111.77,42.347,107.082L42.347,107.082z M42.347,107.082"/>
	<path d="M131.582,142.391c0.012,1.621-1.27,1.652-1.254,0.468c-0.109-5.944-5.133-8.87-8.785-8.175
		c-5.629,1.07-7.426,6.656-7.371,9.949c0.164,10.156,10.391,17.645,19.617,30.668c6.758-11.754,17.918-20.985,18.578-30.071
		c0.875-12.077-14.41-16.582-16.59-2.503c-0.141,0.992-1.313,1.438-1.223,0.051c0.332-3.859-0.141-5.466,4.215-14.977H127.39
		C129.91,132.246,131.41,137.699,131.582,142.391L131.582,142.391z M131.582,142.391"/>
	<path d="M131.582,194.656c0.012,1.616-1.27,1.648-1.254,0.465c-0.109-5.941-5.133-8.867-8.785-8.172
		c-5.629,1.07-7.426,6.655-7.371,9.945c0.164,10.16,10.391,17.648,19.617,30.667c6.758-11.75,17.918-20.979,18.578-30.065
		c0.875-12.078-14.41-16.586-16.59-2.508c-0.141,0.995-1.313,1.441-1.223,0.055c0.332-3.859-0.141-5.465,4.215-14.978H127.39
		C129.91,184.508,131.41,189.965,131.582,194.656L131.582,194.656z M131.582,194.656"/>
	<path d="M87.304,168.522c0.012,1.622-1.269,1.649-1.257,0.47c-0.106-5.945-5.133-8.871-8.786-8.177
		c-5.629,1.071-7.421,6.657-7.371,9.95c0.168,10.156,10.391,17.645,19.618,30.668c6.762-11.754,17.918-20.984,18.578-30.07
		c0.879-12.078-14.406-16.582-16.59-2.509c-0.141,0.997-1.313,1.442-1.219,0.056c0.328-3.859-0.141-5.465,4.211-14.977H83.109
		C85.629,158.379,87.132,163.832,87.304,168.522L87.304,168.522z M87.304,168.522"/>
	<path d="M42.355,142.391c0.012,1.621-1.269,1.652-1.254,0.468c-0.109-5.944-5.133-8.87-8.785-8.175
		c-5.629,1.07-7.426,6.656-7.371,9.949c0.164,10.156,10.391,17.645,19.617,30.668c6.758-11.754,17.918-20.985,18.578-30.071
		c0.879-12.077-14.406-16.582-16.59-2.503c-0.14,0.992-1.312,1.438-1.222,0.051c0.332-3.859-0.141-5.466,4.215-14.977H38.164
		C40.683,132.246,42.183,137.699,42.355,142.391L42.355,142.391z M42.355,142.391"/>
	<path d="M42.355,194.656c0.012,1.616-1.269,1.648-1.254,0.465c-0.109-5.941-5.133-8.867-8.785-8.172
		c-5.629,1.07-7.426,6.655-7.371,9.945c0.164,10.16,10.391,17.648,19.617,30.667c6.758-11.75,17.918-20.979,18.578-30.065
		c0.879-12.078-14.406-16.586-16.59-2.508c-0.14,0.995-1.312,1.441-1.222,0.055c0.332-3.859-0.141-5.465,4.215-14.978H38.164
		C40.683,184.508,42.183,189.965,42.355,194.656L42.355,194.656z M42.355,194.656"/>
	<path d="M13.429,55.898c0.008-0.699-0.714-0.371-0.812-0.152c-0.934,1.586-2.293,1.957-3.641,1.383
		c-1.332-0.567-2.082-1.824-1.961-3.617c0.246-2.75,2.426-5.758,3.485-7.461c1-1.543,2.101-3.375,3.261-5.723
		c1.356,2.692,2.047,3.457,3.524,5.914c1.301,2.164,3.113,4.281,3.254,6.899c0,1.988-0.836,3.863-2.719,4.207
		c-1.066,0.191-2.066-0.352-2.805-1.629c-0.226-0.324-0.679-0.157-0.672,0.289c0.133,1.676,0.766,3.187,2.266,4.969h-5.512
		C12.226,59.715,13.379,58.016,13.429,55.898L13.429,55.898z M13.429,55.898"/>
	<path d="M164.484,194.094c0.008,0.699-0.719,0.371-0.816,0.152c-0.93-1.59-2.293-1.957-3.637-1.388
		c-1.336,0.571-2.086,1.825-1.965,3.621c0.25,2.75,2.43,5.759,3.484,7.461c1,1.543,2.102,3.375,3.262,5.724
		c1.359-2.691,2.047-3.457,3.523-5.914c1.301-2.164,3.113-4.281,3.254-6.898c0-1.988-0.836-3.863-2.719-4.207
		c-1.066-0.195-2.063,0.352-2.805,1.628c-0.223,0.325-0.676,0.157-0.672-0.289c0.133-1.675,0.766-3.187,2.266-4.968h-5.512
		C163.277,190.276,164.429,191.977,164.484,194.094L164.484,194.094z M164.484,194.094"/>
</g>
</svg>
