<?xml version="1.0" encoding="utf-8"?>
<!-- Generator: Adobe Illustrator 15.0.0, SVG Export Plug-In . SVG Version: 6.00 Build 0)  -->
<!DOCTYPE svg PUBLIC "-//W3C//DTD SVG 1.1//EN" "http://www.w3.org/Graphics/SVG/1.1/DTD/svg11.dtd">
<svg version="1.1" id="Layer_1" xmlns="http://www.w3.org/2000/svg" xmlns:xlink="http://www.w3.org/1999/xlink" x="0px" y="0px"
	 width="178.582px" height="249.449px" viewBox="0 0 178.582 249.449" enable-background="new 0 0 178.582 249.449"
	 xml:space="preserve">
<g>
	<path fill="#FFFFFF" d="M8.504,0"/>
	<path fill="#131F67" d="M23.726,20.629H154.55l0.242,209.094l-131.176-0.348C23.617,229.375,23.613,92.93,23.726,20.629
		L23.726,20.629z M116.347,227.914c0,0-7.516-13.832-11.453-21.392c-0.344-0.659-0.609-1.159-0.891-1.375
		c-0.449-0.343-0.594-0.168-2.301,0.2c-13.961,3.593-29.387,4.02-43.336,1.281c-0.641-0.082-0.883,0.223-0.887,0.604
		c-4.387,6.246-7.797,12.517-12.125,19.125c-0.906,1.388-0.965,1.556-0.965,1.556H116.347z M72.066,201.93
		c-0.73,0.016-1.543,0.457-1.394,0.074c0.085-0.223,0.293-2.478,0.382-3.285c0.219-0.36,0.528,0.582,0.493,1.457
		c-0.02,0.5,0.222,0.14,1.875,0.226c1.789,0.095,3.253,0.431,3.859,0.56c2.117,0.457,6.207,0.129,7.961-1.141
		c0.949-0.688,1.308,0.055,0.328,0.793c-4.418,3.327-7.922,2.059-11.758,1.5C73.238,202.031,72.66,201.914,72.066,201.93
		L72.066,201.93z M73.945,198.77c-0.273-0.176-0.453-0.195-0.805-0.031c-1.359,0.629-1.004-0.273-0.027-1.184
		c0.449-0.414,0.434-0.625,0.098-1.063c-0.172-0.223-0.461-0.25-0.391-0.578c0.293-1.431,2.309-3.586,4.559-4.551
		c0.937-0.398,1.086,0.038-0.098,0.73c-1.824,1.063-2.414,1.972-1.383,1.602c2-0.716,3.82-0.212,6.375,1.059
		c0.731,0.363,1.067,0.433,1.688,0.367c0.461-0.379,0.871,0.074,1.156,0.313c0.176,0.145,0.215,0.211,0.418,0.164
		c1.457-0.34,0.586,0.582-1.403,2.023C80.57,200.125,76.687,201.305,73.945,198.77L73.945,198.77z M79.425,199.387
		c1.454-0.438,3.227-1.348,4.317-2.297c1.324-1.153,0.574-0.977-0.945-0.25c-2.2,1.051-3.743,1.355-6.215,1.301
		c-2.075-0.047-2.008-0.133-2.082,0.125C74.234,199.168,77.086,200.086,79.425,199.387L79.425,199.387z M75.402,195.871
		c0.121-0.392,0.211-0.906,0.105-1.074c-0.191-0.305-0.605-0.078-1.128,0.578c-0.325,0.406-0.278,0.461,0.039,0.781
		c0.16,0.109,0.281,0.191,0.379,0.246C75.238,196.59,75.308,196.18,75.402,195.871L75.402,195.871z M76.308,196.402
		c0.637-2.156,2.067-2.113,3.082-0.051l0.719,0.003c-1.477-4.011-4.332-1.979-4.43,0.017
		C76.015,196.479,76.308,196.402,76.308,196.402L76.308,196.402z M81.64,196.039c0.672-0.375,0.575-0.629-0.285-1.066
		c-0.609-0.313-0.933-0.375-1.043-0.176c0.008,0.445,0.028,1.082,0.285,1.433C80.867,196.395,81.238,196.233,81.64,196.039
		L81.64,196.039z M72.199,189.901c-0.125-0.202-0.102-0.573,0.367-0.788c2.887-1.328,0.781-4.134-1.449-2.027
		c-0.707,0.574-1.758,0.844-2.57,0.5c-0.766-0.332-0.778-1.258,0.238-1.457c0.332-0.067,1.187-0.246,1.5-0.461
		c3.879-2.063,5.937,2.418,3.187,3.91C72.906,189.906,72.308,190.09,72.199,189.901L72.199,189.901z M61.336,185.832
		c-1.575-0.707-1.789-3.164-0.313-4.121c0.938-0.637,1.899-0.813,4.484,0.457c1.825,0.897,2.872-0.066,2.825,0.977
		c-0.032,0.637-0.067,1.273-1.129,1.43c-1.727,0.246-2.906-2.078-5.121-1.859c-1.602,0.16-1.399,2.058-0.242,2.445
		C63.379,185.672,62.445,186.285,61.336,185.832L61.336,185.832z M90.269,186.19c-0.289,0.134-0.422-0.491-0.297-0.827
		c0.785-1.852,1.508-3.324,2.223-5.059c0.566-1.383,0.949-1.977,1.203-1.977c0.262,0.004,0.383,0.203-0.055,1.055
		C92.683,181.102,90.273,186.336,90.269,186.19L90.269,186.19z M77.351,185.711c-0.695-0.492-0.578-1.223,0.211-0.668
		c1.02,0.711,2.688-0.59,2.348-1.82c-0.41-1.48-2.395-1.84-4.059-0.512c-2.621,2.094-5.496,2.199-5.496,0.562
		c0.004-0.468-0.058-0.573,1.031-0.647c1.266-0.082,2.7-0.66,3.411-1.09c3.187-1.931,6.578-0.599,5.875,2.621
		C80.355,185.676,78.48,186.41,77.351,185.711L77.351,185.711z M65.66,180.961c-0.258-0.008-0.735,0.25-0.867,0.147
		c-0.266-0.194-0.227-0.765-0.446-1.379c-0.386-1.085-0.011-0.746,0.672-0.452c0.926,0.355,1.801,0.284,2.582,0.016
		c0.809-0.277,1.864-0.211,3.555,0.008c1.363,0.176,2.125,0.125,3.359-0.227c1.344-0.418,0.989-0.266,0.766,0.555
		c-0.149,0.539-0.332,1.262-0.5,1.433c-0.93-0.515-1.633-0.315-2.242,0.036c-1,0.438-1.707,0.511-2.528,0.27
		c-0.773-0.438-1.23-0.398-1.847-0.023C67.097,181.854,66.621,181.008,65.66,180.961L65.66,180.961z M85.648,178.703
		c0.188-0.328,0.461-0.777,0.719-1.285c2.07-4.086,2.211-5.223,0.75-6.598c-1.965-1.848-3.641-1.048-5.524,2.645
		c-0.457,0.898-0.726,1.57-0.914,1.847c-0.211,0.321-0.461,0.075-0.582-0.05c-0.234-0.234,1.856-4.157,2.676-5.012
		c2.141-2.238,6.121-0.445,5.871,2.598c-0.129,1.535-0.422,2.379-1.836,5.191c-0.351,0.694-0.652,1.285-0.84,1.569
		C85.308,180.051,85.457,179.039,85.648,178.703L85.648,178.703z M66.129,178.539c0.324-1.453,5.023-2.129,6.257-0.219
		c0.121,0.188,0.051,0.18-0.48,0.034c-2.387-0.784-2.859-0.741-5.149,0.157C66.414,178.645,66.168,178.695,66.129,178.539
		L66.129,178.539z M84.047,178.266c0-0.137,0.175-0.676,0.437-1.195c1.566-3.074,2-3.816,1.523-4.391
		c-0.933-1.121-2.183-0.148-3.332,3.063c-0.429,1.198-0.722,0.944-0.929,0.754c-0.403-0.363,1.375-4.099,2.23-4.652
		c1.942-1.227,3.469,0.191,2.61,2.699c-0.668,1.133-1.219,2.875-1.844,3.793C84.445,178.746,84.043,178.625,84.047,178.266
		L84.047,178.266z M77.023,173.27c-0.094-0.152,0.09-0.363,0.762-1.793c0.926-1.969,1.211-2.699,0.836-3.82
		c-0.668-2.004-3.196-2.492-4.727-1.18c-0.504,0.421-0.844,1.012-1.078,1.539c-0.555,1.218-1.016,2.796-1.344,3.129
		c-0.289,0.285-0.687,0.344-0.664-0.156c0.367-1.063,0.539-1.887,1.399-3.441c2.148-4.641,8.343-2.492,6.894,2.39
		c-0.539,1.771-1.16,3.114-1.527,3.552C77.371,173.729,77.031,173.52,77.023,173.27L77.023,173.27z M75.586,172.418
		c0-0.152,0.234-0.586,0.48-1.191c1.047-2.574,1.055-3.363-0.473-3.395c-0.914,0.117-1.046,0.488-1.851,2.52
		c-0.258,0.656-0.402,1.128-0.559,1.328c-0.164,0.215-0.476,0.09-0.605-0.043c-0.324-0.328,1.105-3.66,1.859-4.285
		c1.738-1.504,3.988,0.628,2.934,2.543c-0.492,1.339-0.918,2.246-1.211,2.66C75.906,172.922,75.582,172.871,75.586,172.418
		L75.586,172.418z M38.605,142.418l-5.277-0.359c0.933,5.609,0.98,11.785,0.035,16.164c-0.805,3.746-0.816,6.504-0.574,9.75
		c0.281,3.777,1.89,6.98,2.293,10.992c0.293,2.906-0.352,5.938-0.93,8.828c-0.965,4.824-0.766,5.328-0.625,10.996
		c0.133,5.25-0.359,5.063-0.664,4.754c-0.047-0.047-0.086-0.973-0.082-2.078c0.008-1.106-0.059-3.805-0.125-5.68
		c-0.125-3.746,0.293-7.059,0.598-8.422c0.617-2.773,1.312-5.613,0.882-8.684c-0.867-3.871-2.089-7.739-2.519-11.473
		c-0.531-4.605,0.769-9.224,1.199-12.566c0.418-3.23-0.023-8.813-0.875-11.137c-0.144-0.774-0.84-1.781-0.84-1.781
		c-0.797-0.114-1.594-0.227-2.711-0.219c-0.062,22.168,0,44.348,0.02,66.519l4.918,4.543l5.058-4.78L38.605,142.418z
		 M38.957,167.848c0,0,7.511,4.3,15.789,8.527c-0.789-4.836,1.711-5.563,4.058-6.125c-0.562-9.344,8.039-7.426,9.36,0.69
		l0.847,0.005c1.489-4.048,2.965-6.841,6.356-7.509c2.633-0.515,5.226,1.142,5.883,5.043c-0.114-0.272,8.722-5.159,8.964,5.165
		c4.012-2.48,6.879-0.336,8.035,2.813c1.695-2.57,5.934-2.685,7.289-2.871c0.473-0.543,1.305-0.853,2.82-0.84
		c1.297-0.066,3.043-1.035,3.938,0.145c1.367,0.214,2.406-0.032,3.57,0.863c0.93,0.703,1.965,2.269,3.508,1.187
		c2.945-1.409,6.258-2.046,8.891-3.75c0,0-0.699-0.894-0.492-0.765c0.074,0.047,0.402,0.469,0.895,0.668
		c0.176,0.07,1.797-0.895,1.797-0.895c-10.973-12.578-19.996-37.134-14.039-59.852c0.168-0.387-0.496-0.536-0.82-0.672
		c0.098-0.176,1.711,0.058,1.027,1.504c-0.691,4.351-1.469,9.066-1.645,12.675c-0.004,0.442,0.039,0.835,0.039,0.835
		c24.598,11.289,21.582,35.746,15.262,44.259l0.996,1.323c0.441,0.293,19.352-10.683,18.727-11.132l3.582-1.773l-0.582-47.957
		l-14.152-1.078c0,0,0.152-0.402,0.332-0.508c0.129-2.926-0.137-7.258,0.004-10.883c0.059-10.355,0.16-13.879,0.027-14.164
		c-4.367-2.863-10.875-7.043-16.352-9.074c0.223,0.067-0.09,4.293-0.258,4.535c-5.125,1.629-2.746,3.707-4.641,5.942
		c-1.27,1.39-4.25,1.656-5.688-0.012c-1.719-1.656-2.523-5.453-2.523-5.453c-2.711,2.887-2.152,6.371-5.785,7.683
		c-5.836,2.883-7.688-5.73-7.348-5.531c-2.238,2.145-8.512,3.891-9.191-5.168c-2.82,2.582-5.98,1.301-7.324-1.879
		c-1.723,0.059-3.652,1.403-5.395,2.129c-1.621,0.711-3.687,1.129-5.222,1.098c-1.922,0.23-3.504,0.223-5.239-0.289
		c-0.812,0.262-2.644-0.524-3.21-1.649c-0.868-1.015-1.622-1.074-2.446-0.89c-2.801,1.468-5.808,1.824-9.117,3.363
		c-0.207,0.145,0.289,0.41,0.125,0.359c-0.07-0.023-1.738,0.813-1.738,0.813c16.761,21.933,17.672,44.078,14.16,59.772
		c-0.137,0.548-0.215,0.942,0.148,1.368c-0.531-0.09-0.539,0.066-0.64-0.273l1.742-13.176c0.055-1.591,0.254-1.473-1.152-2.066
		c-1.297-0.547-2.528-1.078-3.598-1.734c-4.09-3.012-8.711-6.723-10.961-11.352c-6.422-9.953-4.305-21.824,0.508-31.231
		l-1.196-1.238c-14.05,7.008-22.347,14.559-22.347,14.559l0.058,47.063l14.442,1.656L38.957,167.848z M31.992,136.422
		c-0.461-0.508-1.641-0.598-2.133-0.211c-0.113,0.098-0.355,0.594-0.426,0.578c-0.656-0.168-1.109-0.306-1.195-0.853l0.695-1.046
		c0.547-0.825,1.34-1.118,2.676-1.43c0.473-0.109,1.188-0.211,1.441-0.316c1.004-0.434,1.352-1.368,0.336-0.949
		c-0.742,0.202-1.777,0.137-1.914-0.539c-0.113-0.555-0.59-0.77-1.117-0.707c-0.98,0.234-1.875,0.741-2.738,1.254
		c-0.387,0.23-1.113,0.754-1.113,0.754c-0.118,0.18-0.539-1.129-0.145-1.512c0.492,0.059,0.914,0.066,1.391-0.125
		c1.195-0.473,2.343-1.044,3.55-1.505c0.766-0.296,0.836-0.272,0.633-0.815c-0.097-0.199-0.188-0.863-0.054-1.211
		c0.14-0.367,0.125-0.556-0.114-0.711c-0.543-0.359-1.843-0.027-3.672,0.848c-0.554,0.265-0.921,0.375-1.277,0.656
		c0.231-0.574,0.098-0.685,0.09-1.285c0.746,0.094,1.418-0.203,2.016-0.516c0.492-0.255,1.043-0.509,2.394-0.68
		c0.367-0.047,0.199-1.391-0.219-1.778c-0.398-0.371-1.234-0.379-2.246-0.082c-0.902,0.207-2.023,0.418-2.644,1.383
		c-0.782,0.733,0.019-1.223,1.449-2.008c0.625-0.012,2.004-0.308,2.328-0.379c0.555-0.121,0.641-1.406-0.16-1.961
		c-0.5-0.433,1.824-0.445,1.777-0.312c-0.031,0.074-0.051,0.625,0.125,0.765c1.004,0.301,0.992,1.114,1.082,1.457
		c1.149,1.878,1.715,0.7,2.504,0.055c-0.164,4.086,1.27,4.551,1.461,4.809c-1.973,3.664-0.484,3.754,1.363,4.597
		c0,0-0.703,0.286-1.171,0.254c-0.735-0.043-2.145,0.825-2.758,1.337c-0.34,0.281-0.352,0.047-1.711,0.008
		c-1.281-0.035-1.375,0.059-1.957,0.315c-1.153,0.509-1.149,0.989-0.02,0.797c1.196-0.198,2.371,0.524,2.508,1.513
		c0.098,0.184,0.012,0.516-0.008,0.504c-0.25-0.047-0.812,0.047-0.804-0.07C32.222,137.184,32.215,136.738,31.992,136.422
		L31.992,136.422z M33.742,131.469c0.324-0.207,0.383-0.793,0.098-1.032c-0.258-0.218-1.352-0.101-1.661,0.177
		C31.48,131.16,32.757,132.074,33.742,131.469L33.742,131.469z M34.441,129.008c0.402-0.313,0.453-1.063,0.106-1.5
		c-0.594-0.738-2.137-0.297-2.219,0.637C32.238,129.137,33.601,129.66,34.441,129.008L34.441,129.008z M33.941,125.633
		c0.07-0.817-0.738-1.332-1.484-0.946c-0.93,0.481-0.367,1.497,0.797,1.438C33.898,126.09,33.898,126.09,33.941,125.633
		L33.941,125.633z M31.222,122.324c-0.433,0.211-0.457,0.719-0.047,1.047C32.804,124.266,32.308,121.867,31.222,122.324
		L31.222,122.324z M145.046,127.195c-0.719-2.625-2.691-0.02-2.691,0.016c-0.07-2.691,0.441-3.887-1.586-4.805
		c2.035-3.066,1.609-3.488-0.547-4.668c0.199,0.02,2.863-0.574,3.316-2.09c0.102,0.071,4.18,1.071,4.691-1.144
		c-1.23,0.558-3.652,0.641-3.68-1.742c0.23-0.067,0.801,0.05,0.754,0.125c-0.32,1.527,2.477,1.906,2.934,0.699
		c0,0,0.938,0.629,1.352,0.723c0.047,0.031-1.273,1.851-2.473,2.125c-2.168,0.714-2.914,0.906-2.918,1.336
		c0,0.167,0.355,0.195,0.996,0.324c1.348,0.093,1.32,0.379,1.496,0.824c0.156,0.394,0.309,0.473,0.754,0.43
		c1.539-0.508,2.309-0.774,3.379-1.84c0.129-0.024,0.281,1.121,0.363,1.16c0.012-0.184-1.086,0.137-2.777,1.121
		c-1.379,0.801-1.918,0.918-2.094,1.137c-0.129,0.16,0.207,0.668,0.242,1.219c0.027,0.46-0.285,0.683-0.055,0.828
		c0.266,0.168,0.676,0.136,1.219-0.004c1.191-0.285,2.066-0.75,3.141-1.41c-0.23,0.429,0.152,1.519,0.152,1.519
		s-0.527-0.371-0.965-0.18c-0.836,0.368-2.191,0.864-2.559,0.95c-0.355,0.086-0.508,0.129-0.648,0.246
		c-0.168,0.144-0.141,0.492-0.145,1c0,0.355-0.105,0.688,0.121,0.793c0.5,0.16,1.512,0.109,2.539-0.246
		c0.438-0.191,1.371-0.696,1.371-0.696l-0.293,1.505c-0.391-0.438-1.512-0.113-2.262,0.18c-0.379,0.117-0.492,0.354-0.586,0.683
		c-0.168,0.563,0.191,0.95,0.602,1.134c0.277,0.125,0.699,0.074,0.699,0.074c-1.941,0.734-1.555,1.007-2.688,0.449
		C145.71,128.44,145.23,127.883,145.046,127.195L145.046,127.195z M147.078,127.199c-0.32-0.371-0.883-0.586-1.211-0.438
		c-0.289,0.152-0.188,0.477-0.094,0.718C146.019,128.164,147.726,127.945,147.078,127.199L147.078,127.199z M145.945,125.32
		c0.453-0.593-0.047-1.395-0.887-1.398c-0.586-0.004-0.898,0.359-0.891,0.815C144.179,125.602,145.562,125.815,145.945,125.32
		L145.945,125.32z M145.007,123.055c0.844-0.227,1.105-1.043,0.52-1.633c-0.414-0.418-1.715-0.473-2.063-0.094
		C142.574,122.301,143.57,123.445,145.007,123.055L145.007,123.055z M145.71,120.078c0.496-0.254,0.59-0.676,0.152-1.152
		c-0.793-0.672-2.18-0.149-1.73,0.832C144.351,120.238,145.109,120.383,145.71,120.078L145.71,120.078z M44.16,97.461
		c0.742-0.27,1.281-0.848,2.066-1.289c0.528-0.285,0.367-0.242-0.308-0.637c-0.532-0.242-1.598-1.316-1.7-1.063
		C43.976,94.934,44.011,97.437,44.16,97.461L44.16,97.461z M63,123.719c0.027-0.512,0.09-1.285,0.078-1.848
		c0.097-1.078-0.094-0.762-0.68-0.41c-0.433,0.277-1.129,0.699-1.402,0.836c-1.074,0.531-0.946,0.562,0.566,1.285
		C62.832,124.148,62.976,124.094,63,123.719L63,123.719z M61.523,121.195c1.027-0.644,1.367-0.976,1.418-1.699
		c0.004-0.832-0.094-1.133-0.824-0.559c-2.5,1.965-5.07-1.886-2.785-4.031c0.468-0.433,1.058-1.117,1.066-1.293
		c0.035-1.242-1.367-0.035-2.516,1.672c-1.269,1.551-2.062,3.488-0.945,5.352C57.828,122,59.812,122.27,61.523,121.195
		L61.523,121.195z M55.847,118.687c-0.047-0.605,0.125-1.285,0.207-1.488c0.278-0.711,0.266-0.801-1.007-0.207
		c-0.508,0.164-1.114,0.301-1.344,0.301c-1.043-0.008-0.781,0.316,0.707,1.555C55.91,120.09,55.961,120.203,55.847,118.687
		L55.847,118.687z M59.386,112.734c0.161-0.375-0.168-0.519-0.484-0.449c-0.027,0.008-0.57,0.41-1.211,0.914
		c-1.941,1.524-3.367,1.699-4.332,0.539c-0.977-1.176-0.566-2.57,1.617-4.164c0.961-0.707,1.196-0.754,0.731-1.062
		c-0.352-0.235-0.375-0.2-1.758,0.734c-2.789,1.883-3.625,3.168-3.348,5.039c0.059,0.766,0.461,1.168,0.856,1.469
		C54.117,118.102,57.808,114.863,59.386,112.734L59.386,112.734z M62.203,113.844l-0.168-2.59
		c-2.836-2.434-5.528-6.594-6.457-10.039c-0.946-3.063-0.192-9.449-0.051-8.977l-1.531-2.89c-1.336,3.066-1.918,7.746-0.465,12.511
		C54.761,105.902,57.23,110.805,62.203,113.844L62.203,113.844z M50.254,112.336c0.902-1.723,0.929-1.535-0.809-1.551
		c-1.988-0.019-1.766-0.258-0.648,1.43C49.699,113.574,49.547,113.691,50.254,112.336L50.254,112.336z M51.449,109.973
		c1.144-0.364,0.883-0.282,2.402-1.262c1.746-1.133,1.817-1.75,0.067-0.879c-2.246,1.117-4.223,0.832-4.953-0.625
		c-0.653-1.301,0.71-2.922,2.953-3.555c0.765-0.215,1.172-0.398,1.172-0.734c0.007-1.02-3.813,0.34-5.387,1.879
		C44.664,107.77,47.324,111.293,51.449,109.973L51.449,109.973z M46.535,105.352c0.105-0.157,0.379-0.528,0.629-0.915
		c1.078-1.242,0.172-0.871-0.785-1.21c-0.504-0.188-1.02-0.372-1.317-0.329c-0.57,0.09,0.192,1.188,0.375,1.895
		C45.953,106.375,45.894,106.324,46.535,105.352L46.535,105.352z M50.605,102.504c1.926-0.188,2.121-0.375,2.125-0.77
		c0-0.394-0.234-0.32-1.203-0.187c-2.562,0.355-4.258-0.293-4.621-1.652c-0.379-1.403,1.355-2.731,3.668-2.653
		c1.25,0.043,2.082-0.387,1.32-0.801c-0.394-0.218-3.844-0.171-4.625,0.055c-2.289,0.664-3.222,1.934-3.012,3.688
		c0.317,2.171,1.504,2.793,4.403,2.636C49.218,102.793,49.925,102.57,50.605,102.504L50.605,102.504z M52.093,95.441
		c0.004-0.339-0.546-0.386-2.363-0.656c-2.422-0.359-3.504-2.59-2.043-3.93c0.551-0.507,1.871-0.726,2.606-0.593
		c1.593,0.289,2.57,0.617,2.586,0.078c0.003-0.481-0.461-0.516-3.457-1.149c-4.528-0.953-7.012,3.473-3.391,5.637
		C47.406,95.648,52.09,96.117,52.093,95.441L52.093,95.441z M53.218,89.113c0-0.172-0.148-0.301-0.492-0.433
		c-0.496-0.196-0.832-0.231-1.953-0.985c-1.496-1.004-1.949-2.957-0.953-4.047c0.969-1.015-0.773-2.218-2.16-1.07
		c-1.442,1.192-1.32,3.067,0.34,4.547C49.527,88.488,53.211,89.906,53.218,89.113L53.218,89.113z M45.882,88.848
		c1.575-0.735,2.704-0.313,1.5-1.325c-0.675-0.625-1.253-2.398-1.722-0.894c-0.36,0.894-0.625,2.476-0.633,2.633
		C45.132,89.367,45.109,89.184,45.882,88.848L45.882,88.848z M101.535,85.035c-1.793-0.445-3.016-2.515-2.563-4.508
		c0.258-1.125,1.324-3.777,1.531-3.941c0.793-0.625,0.684,0.207-0.043,1.648c-0.66,1.473-1.176,2.657-0.973,3.536
		c0.293,1.246,0.797,2.199,2.102,2.515c0.914,0.223,1.777-0.16,2.363-0.57c0.773-0.543,1.504-1.938,2.379-3.867
		c0.277-0.543,0.652-2.211,1.117-1.192c0.227,0.524-1.641,4.028-2.336,4.914C104.238,84.687,102.753,85.344,101.535,85.035
		L101.535,85.035z M112.335,83.863c0.875,0.832,2.352,1.25,3.313,0.949c2.363-0.828,3.438-3.05,2.543-6.621
		c-0.453-2.004-0.84-3.25-1.23-3.496c-0.191-0.121-0.398,0.102-0.586,0.379c-0.164,0.25,0.09,0.602,0.355,1.543
		c1.129,3.969,0.836,5.766-0.543,6.524c-2,1.101-3.715-0.164-4.293-3c-0.094-0.438-0.367-1.329-0.367-1.329
		c-0.156-0.394-1.395-0.308-0.941,1.012C110.718,80.844,111.664,83.277,112.335,83.863L112.335,83.863z M122.476,73.461
		c-0.031-1.395-2.984-7.457-3.184-6.813c0,0-0.012,1.414,0.102,1.973c0.043,0.211,0.199,0.406,0.324,0.629
		c2.566,4.555,2.168,7.762-0.055,8.465c-0.758,0.344-0.922,0.68-0.586,1.031c0.688,0.742,2.406-0.723,2.742-1.258
		C122.66,76.293,122.542,74.113,122.476,73.461L122.476,73.461z M79.519,72.434c0.965-1.079,3.086-4.786,3.738-6.731
		c2.012-5.789,4.125-12.453,4.711-18.609c0.063-0.778,0.106-1.957,0.145-2.059c-0.16-0.172-1.156-0.082-1.492,0.09
		c-0.16,0.207-0.051,0.668-0.11,1.27c-0.898,6.921-2.562,13.226-5.023,19.644c-1.078,2.789-2.078,4.625-3.379,6.563
		c-0.227,0.339-0.512,0.687-0.629,0.886c-0.328,0.469-0.086,0.778,0.297,0.578C78.449,73.687,79.031,72.957,79.519,72.434
		L79.519,72.434z M76.222,74.117c3.082-4.226,5.278-9.297,6.981-15.285c1.074-3.875,2.023-7.797,2.594-11.793
		c0.113-0.852,0.21-1.422,0.043-1.676c-0.418-0.113-1.196-0.043-1.465,0.164c-0.164,0.246-0.055,0.746-0.207,1.895
		c-0.395,2.973-0.985,5.961-1.985,9.867c-2.629,8.652-5.051,13.496-8.226,17.731c-0.258,0.359-0.485,0.589-0.461,0.742
		c0.031,0.222,0.34,0.203,0.844-0.114C75,75.133,75.754,74.684,76.222,74.117L76.222,74.117z M71.523,76.359
		c1.508-0.851,4.164-4.562,6.043-8.554c2.106-4.719,3.867-10.047,5.02-14.66c0.504-2.024,1.214-7.075,1.113-7.407
		c-0.121-0.394-1.598-0.066-1.391,0.207c0,0-1.465,8.117-3.043,12.594c-2.925,8.305-5.457,13.941-8.179,16.652
		c-0.356,0.356-1.059,1.047-1.059,1.047s0.012,0.313,0.242,0.36C70.812,76.695,71.172,76.539,71.523,76.359L71.523,76.359z
		 M69.215,76.031c3.402-1.898,7.39-10.761,10.644-21.886c0.559-1.903,1.574-8.278,1.574-8.278s-1.355,0.051-1.617,0.336
		c-0.262,0.383-0.219,1.363-0.601,3.692c-1.461,7.039-3.672,13.46-6.989,19.804c-1.433,2.813-3.82,5.457-5.324,6.215
		c-0.844,0.418-1.09,0.883-0.473,0.918c1.039,0.035,1.129,0.254,1.883-0.148L69.215,76.031z M115.867,175.137
		c-2.555-0.012-4.723,2.429-6.656,5.5c-4.109,6.289-6.871,16.797-7.543,22.383l1.551-0.293c-0.234,0.109,2.898-14.863,7.668-21.273
		c2.578-4.047,2.469-4.109,3.918-4.477c1.832-0.473,3.297,1.503,2.391,2.691c-0.328,0.406-0.691,0.108-0.586-0.465
		c0.324-1.832-2.355-2.184-3.105-0.383c-0.859,2.066,1.43,3.913,3.664,3.098c2-0.703,2.836-3.488,1.434-5.547
		C117.878,175.676,116.835,175.059,115.867,175.137L115.867,175.137z M102.425,174.879c-3.059,3.828-4.57,7.762-6.449,13.133
		c-1.875,5.363-3.223,10.613-3.809,16.636l1.652-0.211c-0.063-3.875,4.195-22.308,10.172-29.214
		c0.336-0.438,0.605-0.801,0.578-0.902C104.238,173.391,102.82,174.512,102.425,174.879L102.425,174.879z M109.179,173.449
		c-3.961,3.237-7.129,10.309-9.215,16.848c-2.258,7.066-3.27,13.539-3.098,13.539l1.574-0.231
		c-0.117-0.409,4.422-25.308,12.848-29.839c0.73-0.364,0.883-0.73,0.266-0.891C110.609,172.742,109.843,173.055,109.179,173.449
		L109.179,173.449z M113.617,173.465c-8.652,1.137-14.305,27.605-14.496,29.801c-0.004,0.035-0.031,0.207-0.031,0.207l1.723-0.355
		c0,0,0.016-0.082,0.023-0.125c1.184-6.763,2.34-11.504,5.039-17.617c2.102-4.531,5-10.32,9.332-10.883
		c0.352-0.047,0.688,0.094,0.563-0.316C115.507,173.527,114.21,173.445,113.617,173.465L113.617,173.465z M62.054,165.129
		c-3.129,0.805-3.23,4.543-1.148,9.32c0.16,0.359,0.129,0.555,0.289,0.695c0.355,0.313,0.637-0.122,0.676-0.411
		c0.058-0.433-0.125-1.015-0.457-1.866c-1.289-3.306-0.981-5.211,0.297-6.052c3.269-1.683,4.152,1.771,4.644,3.356
		c0.121,0.39,0.164,0.922,0.379,0.949c0.652,0.09,0.961-0.142,0.953-0.142c0,0-0.867-2.972-1.394-4.089
		C65.437,165.082,63.406,164.703,62.054,165.129L62.054,165.129z M39.367,168.66l-0.031,39.401l-5.989,5.614
		c-2.566-2.199-5.941-5.641-5.941-5.641l0.105-66.613l-1.925-0.152c-0.473,28.617-0.137,57.664-0.157,86.339l17.7,0.134
		l14.648-22.832c0,0,0.184-0.273,0.242-0.418c0.18-0.441,0.16-1.098,0.071-3.523c-0.036-0.989,0.074-1.746-0.071-1.977
		c-0.148-0.234-0.461-0.066-0.75,0.063c-0.297,0.132-0.476,0.086-0.316-0.262c0.09-0.199,0.387-0.637,0.637-1.051
		c0.824-1.348,1.023-1.777,0.746-3.273c-0.067-0.367-0.407-0.676-0.7-1.11c-2.464-3.632-3.468-9.015-2.246-12.961
		c0.391-1.741,0.25-2.097-0.593-3.452L39.367,168.66z M116.847,126.293c-1.609-0.828-1.578-0.81-1.59,0.754
		c0.008,1.168,0.031,1.449,0.469,1.293c0.637-0.324,1.414-0.617,1.996-0.867C118.843,127.09,117.421,126.598,116.847,126.293
		L116.847,126.293z M123.218,130.352c-1.25-0.997-0.789-0.883-1.145,1.363c-0.211,1.355-0.488,1.387,0.918,0.941
		c0.797-0.277,2.438-0.102,1.699-1.039C124.699,131.637,123.46,130.559,123.218,130.352L123.218,130.352z M73.035,164.801
		c-1.914,1.156-3.871,6.765-3.871,6.765c-6.696,0.798-9.5,7.371-9.797,12.856c-0.238,4.328-0.531,9.383-0.094,9.824
		c4.391-1.974,6.082,0.305,6.496-0.31c0.192-0.269-0.972-1.155-2.433-1.953c-0.34-0.183-0.868-0.519-1.067-0.683
		c-0.531-0.442,1.067-0.063,2.074,0.625c1.289,0.875,1.504,0.691,0.946-1.864c-0.605-2.78-0.707-3.121,1.433-4.222
		c0.856-0.442,1.344-0.817,1.953-1.504c0.493-0.547,0.618-0.68,0.438,0.125c-0.313,1.397-1.559,2.008-2.68,2.574
		c-0.554,0.285-0.789,0.859-0.789,1.355c-0.004,0.5,0.574,3.218,0.844,4.086c0.246,0.824,0.336,1.652,0.531,2.492
		c0.5,2.184,0.531,2.609,0.278,4.195c-0.149,0.93-0.223,1.457-0.172,2.02c0.047,0.507,0.117,1.203,0.117,1.203
		c0.004-0.023-1.195-1.227-3.817-0.196c-1.89,0.743-3.382-0.03-4.441-0.582c-0.242,0.86-0.187,1.793-0.16,2.778
		c10.902,1.992,20.211,1.727,28.047,0.906c0.203-2.316,1.191-9.676,3.266-16.313c0.863-2.761,1.84-5.671,2.941-7.616
		c0.75-1.324,1.52-2.216,1.789-2.371c0.086-0.052,0.094-0.078,0.09-0.113c0-0.074,0-0.137-0.004-0.207
		c-0.027-0.43-0.129-1.098-0.5-1.391c-0.906-0.723-2.348,0.207-2.824,1.813c-0.414,0.965-2.313,5.129-2.445,5.059
		c-0.113-0.07-0.375-0.074-0.281-0.398c0.727-1.688,1.723-3.473,2.285-4.988c0.777-2.18,2.465-3.332,3.727-1.957
		c0.434,0.473,0.605,0.906,0.805,1.055c0.148,0.113,0.352,0.038,0.473-0.148c0.477-0.715-0.625-2.34-1.809-2.668
		c-1.707-0.473-2.98,0.773-4.914,4.808c-1.117,2.329-1.32,2.915-1.497,2.735c-0.039,0.015-0.336,0.015-0.226-0.438
		c0.23-0.969,1.711-3.789,2.785-5.574c1.594-2.648,4.543-2.859,5.785-0.566c0.191,0.316,0.199,0.722,0.41,1.004
		c0.383,0.492,1.008,0.395,1.164-0.414c-0.168-0.536-1.207-2.469-1.926-2.805c-1.664-1.141-3.68-0.918-5.375,0.598
		c-0.383,0.339-0.785,1.039-1.911,3.32c-1.656,3.66-1.703,3.672-2.152,3.082c0.664-1.777,2.418-4.668,3.125-6.445
		c0.137-0.266,0.164-0.547,0.152-0.82c-0.043-1.293,0.168-3.57-2.563-5.191c-2.328-1.254-5.402,0.063-6.449,2.531
		c-0.801,1.891-1.387,3.19-1.793,3.457c-0.567,0.379-0.461-0.148-0.407-0.336c0.809-1.711,1.946-3.441,2.125-5.164
		C80.836,164.172,76.109,162.449,73.035,164.801L73.035,164.801z M48.636,77.504c3.688-1.711,6.215-2.574,9.973-3.68
		c0.508-0.222,0.59-0.273,0.051-1.34c-2.383-4.711,4.148-8.468,6.371-3.843c0.297,0.617,0.363,0.957,0.656,0.664
		c0.547-0.715,1.195-1.731,1.867-2.891c2.5-3.871,3.633-8.285,4.965-12.184c0.551-2.289,1.324-4.679,1.543-7.136
		c-4.961-8.625-8.414-16.926-13.676-24.606l-34.707-0.023l-0.129,69.34C35.254,83.711,41.859,80.785,48.636,77.504L48.636,77.504z
		 M87.703,74.957c0.422-0.445,0.785-1.18,2.297-4.277c0.27-0.551,0.699-1.407,0.875-1.805c0.227-0.73,1.074-1.188,0.66,0.117
		c-0.094,0.281-0.254,0.664-0.512,1.168c-0.5,0.902-0.98,2.008-1.336,2.727c-1.93,3.867-1.84,6.121,0.316,7.797
		C91.617,82.223,95,82.398,96.8,79.91c0.27-0.398,0.508-0.914,0.586-1.101c0.781-1.899,1.359-2.848,1.508-3.036
		c0.801-1.015,0.93,0.243-0.266,2.18c-1.371,2.223-1.398,4.629-0.211,6.32c1.758,2.512,5.094,2.582,7.188,0.571
		c1.086-1.278,1.953-2.899,2.648-4.973c0.156-0.461,0.316-0.801,0.43-1.07c0.172-0.418,0.426-0.571,1.074-0.696
		c4.457-0.851,8.199-5.425,8.73-10.418c0.07-0.675,0.262-1.871,0.332-2.582c0.141-1.414,0.141-8.742,0.004-9.179
		c-0.078-0.239-0.211-0.36-0.5-0.36c-0.223,0.004-0.539,0.082-0.992,0.243c-1.469,0.527-2.152,0.66-3.563,0.152
		c-0.469-0.164-0.789-0.223-0.98-0.207c-0.625,0.055,0.203,0.949,2.02,1.933c0.777,0.426,1.395,0.993,0.762,0.954
		c-0.184-0.016-2.375-1.145-2.676-1.332c-1-0.61-0.738,0.16-0.227,2.187c0.691,2.719,0.293,3.484-1.855,4.551
		c-0.402,0.199-0.934,0.613-1.203,0.883c-1.141,1.683-0.848,0.441-0.273-0.453c0.98-1.028,0.379-1.379-1.629-0.668
		c-2.293,0.812-3.332,0.218-3.973-1.055c-0.727-1.442,0.641-3.293,1.777-3.258c0.367,0.012,0.301,0.145-0.242,0.516
		c-0.656,0.445-0.965,0.879-1.035,1.644c-0.137,1.559,0.977,2.219,2.535,1.172c0.738-0.492,1.316-0.832,1.875-0.961
		c0.551-0.125,1.383,0.082,1.379,0.524c0,0.179-0.027,0.629,0.012,0.726c0.148,0.492,0.938-0.203,1.281-0.453
		c1.172-0.875,1.137-1.051,0.813-2.473c-0.523-1.988-0.785-3.812-1.285-5.828c-0.27-1.058-0.313-2.254-0.152-3.332
		c0.082-0.539,0.293-1.648,0.336-2.41c0.043-0.758-0.004-1.844,0.023-1.844c1.164,0.891,1.641,1.047,2.777,0.614
		c1.758-0.719,2.871-0.645,4.355,0.062c0.547,0.266,1.047,0.449,1.047,0.449l0.066-2.285c0,0-1.371-0.285-3.91-0.617
		c-7.637-1.004-23.309-1.215-23.891-0.293c-0.148,0.234-0.297,1.867-0.715,4.137c-0.922,4.718-1.961,9.418-3.344,14.023
		c-0.285,0.938-0.558,1.313-0.41,1.344c0.059,0.012,0.34-0.352,0.473-0.504c0.742-0.859,0.175,1.176-0.95,3.629
		c-0.101,0.219-0.183,0.461-0.183,0.539c0,0.148-0.707,1.855-1.192,2.887c-0.3,0.644-0.55,0.836-0.55,0.425
		c0.343-1.41,1.242-3.238,1.371-4.496c-0.789,1.137-1.938,3.02-2.809,4.141c-0.16,0.305,0.012,0.398,0.153,0.77
		c0.523,1.398,1.789,1.523,2.519,0.257c0.41-0.703,1.676-3.359,2.117-4.519c0.453-1.195,0.774-1.824,0.922-1.903
		c0.305-0.156,0.363,0.524-0.176,1.653c-1.632,3.43-2.332,5.351-3.129,6.062c-0.621,0.551-1.695,0.516-2.289-0.465
		c-1.011-1.66-1.875-1.109-0.945,0.59c0.957,1.762,3.145,1.926,4.289,0.34c0.375-0.523,2.152-3.91,2.711-5.289
		c0.313-0.769,0.645-1.367,0.754-1.41c0.598-0.231-0.082,1.527-1.793,5.043c-0.555,1.359-1.449,2.781-2.652,3.223
		c-2.934,0.64-3.328-0.907-4.348-2.672c-0.496-0.442-0.945,0.261-0.758,1.039c0.309,1.258,0.883,1.754,1.774,2.383
		C84.191,77.113,86.769,76.305,87.703,74.957L87.703,74.957z M100.781,82.312c-0.266-0.585-0.227-1.183-0.09-1.742
		c0.305-1.254,0.816-2.472,1.41-3.531c0.961-0.453,0.227,1.356,0.105,1.625c-1.16,2.418-1.27,3.356-0.188,3.633
		c0.93,0.238,1.43-0.328,2.305-2.496c0.453-1.114,0.633-1.606,0.789-1.672c0.34-0.133,0.504,0.004,0.484,0.34
		c-0.582,1.426-1.035,2.922-1.988,4.105C102.675,83.355,101.269,83.359,100.781,82.312L100.781,82.312z M92.074,80.457
		c-0.402-0.082-1.098-0.602-1.578-1.043c-1.641-1.5-1.367-3.574,0.664-7.477c0.16-0.3,0.75-1.48,0.941-1.871
		c0.34-0.691,0.676-0.421,0.672,0.039c0,0.129-0.508,1.207-1.023,2.207c-2.246,4.387-2.168,6.176,0.016,7.219
		c2.129,1.02,3.082,0.434,4.781-2.914c0.984-2.515,1.469-2.558,1.414-1.601c0,0.355-1.191,2.765-1.957,3.886
		C94.89,80.527,93.925,80.816,92.074,80.457L92.074,80.457z M92.234,78.34c-0.836-0.52-1.176-1.805-0.684-2.86
		c0.453-0.867,1.602-4.195,2.145-4.382c0.871-0.032,0.406,0.699-0.672,2.746c-1.277,2.711-1.23,3.437-0.246,3.851
		c0.91,0.383,1.344-0.402,2.688-3.574c0.211-0.5,0.508-1.016,0.68-0.906c0.211-0.02,0.582,0.144-0.121,1.578
		c-0.168,0.344-0.453,1.066-0.77,1.738C94.335,78.492,93.292,78.992,92.234,78.34L92.234,78.34z M107.332,72.582
		c-0.367-0.187-2.094-0.867-1.836-1.426c0.031-0.054,0.133-0.011,0.184,0.024c1.578,1.054,3.543,1.324,5.59-0.145
		c0.344-0.301,0.602-0.098,0.41,0.285C111.058,72.547,108.296,73.074,107.332,72.582L107.332,72.582z M102.257,70.801
		c0.051-0.117,0.191-0.469,0.316-0.942c0.191-0.711,0.145-1.234,0.313-1.144c0.719,0.387,1.996,0.398,2.621,0.015
		c0.688-0.418,2.082-0.546,2.59-0.218c0.723,0.472,1.094,0.254,1.602-0.141c0.574-0.449,0.586-0.258,1.621,0.102
		c0.766,0.265,1.066,0.445,1.391,0.386c0.125-0.019,0.379-0.304,0.457-0.289c0.25,0.043,0.277,0.75,0.508,1.555
		c0.203,0.711,0.086,0.883-0.551,0.457c-0.477-0.316-1.844-0.469-3.266-0.031c-1.051,0.32-1.293,0.191-2.066,0.062
		c-1.926-0.324-3.316-0.578-4.75,0.254C102.277,71.309,102,71.539,102.257,70.801L102.257,70.801z M97.468,67.281
		c-0.934-1.867,1.215-4.344,3.102-3.469c0.625,0.29,1.18,1.387,0.254,0.883c-4.289-0.863-3.219,5.41,1.391,2.094
		c3.063-2.027,5.227-2.344,5.406-0.379c-0.086,0.723-0.727,0.605-1.211,0.672c-1.27,0.176-1.738,0.383-3.211,1.012
		C100.96,68.797,98.777,69.375,97.468,67.281L97.468,67.281z M114.257,68.145c-1.047-0.27-1.957-0.68-3.051-0.879
		c-1.078-0.188-1.566-0.75-1.371-1.508c0.203-0.789,1.285-0.871,2.91,0.117c1.805,1.102,3.113,1.367,3.773,0.953
		c1.332-0.84,0.613-2.203-0.66-2.551c-0.957-0.265-0.254-0.636,0.777-0.332c1.656,0.629,1.691,3.621-0.016,4.242
		C116.05,68.395,115.046,68.34,114.257,68.145L114.257,68.145z M99.644,58.238c1.219-0.75,2.395-1.422,2.813-1.871
		c0.219-0.238,0.832-1.027,0.355-0.785c-2.48,1.488-5.367,0.25-7.457-0.77c-1-0.464-0.754-0.257-1.523-0.207
		c-0.523,0.036-0.945,0.145-1.039-0.23c-0.039-0.164-0.332-0.094-0.52-0.113c-0.77-0.075-0.285-1.098,1.34-2.223
		c1.91-1.324,3.578-2.191,5.234-2.547c1.723-0.371,3.477-0.164,4.762,1.074c0.496,0.477,0.453,0.793,0.902,0.5
		c1.031-0.664,1.043,0.219,0.172,1.036c-0.598,0.562-0.379,0.714,0.352,1.25c0.348,0.253,0.063,0.5-0.133,0.871
		c-0.074,0.226-0.016,0.476-0.051,0.648c-0.164,0.797-3.805,3.621-5.121,4.102C98.82,59.145,99.296,58.461,99.644,58.238
		L99.644,58.238z M102.171,53.051l-0.602,0.008c-0.691,2.097-1.961,2.812-3.02,0.296l-0.48,0.051
		C98.05,55.535,101.718,56.875,102.171,53.051L102.171,53.051z M98.195,55.02c-0.246-0.418-0.527-1.379-0.789-1.391
		c-0.711-0.031-1.691,0.098-1.457,0.535C96.312,54.859,98.484,55.504,98.195,55.02L98.195,55.02z M103.062,54.645
		c0.656-0.395,0.793-0.665,0.367-1.098c-0.551-0.559-0.84-0.274-1.012,0.621C102.269,54.934,102.375,55.059,103.062,54.645
		L103.062,54.645z M94.187,53.168c4.387-1.981,6.047-2.234,7.828-1.746c0.414,0.113,0.781,0.344,1.012,0.332
		c0.852-0.051,0.309-1.004-1.223-1.551c-1.75-0.625-2.859-0.344-6.219,1.406C93.617,52.637,92.019,54.148,94.187,53.168
		L94.187,53.168z M106.894,50.766c-0.063-0.118-0.328-0.907-0.402-1.196c-0.074-0.285-0.145-0.582-0.227-0.586
		c-2.031,0.325-3.82-0.054-4.301-0.168c-3.078-0.734-6.051-0.586-8.27,0.282c-0.543,0.214-1.215,0.554-1.277,0.617
		c-0.176,0.164-0.438-0.024-0.434-0.227c0-0.242,1.363-1.316,2.223-1.742c2.609-1.289,5.363-1.512,8.391-0.699
		c1.973,0.754,3.242,0.633,4.5,0.082c0.621-0.27,0.18,0.398-0.016,1.285c-0.133,0.617,0.016,1.141,0.039,1.488
		C107.199,50.742,107.105,51.164,106.894,50.766L106.894,50.766z M152.726,227.914v-69.48
		c-11.535,8.496-33.352,17.355-33.352,17.355c2.75,5.59-3.305,10.375-6.773,4.699c-3.574,4.004-8.496,18.027-8.668,22.684
		c0,0,9.5,16.566,14.137,24.742H152.726z M89.195,205.035c0.316-3.488,1.063-9.402,3.391-16.285
		c0.977-2.887,2.152-6.199,3.816-9.164c0.664-1.035,0.711-1.438,0-1.066c-0.445,0.238-2.477,2.523-2.754,3.102
		c-3.117,6.569-4.562,14.465-5.703,20.492c-0.258,1.352-0.336,3.034-0.336,3.034L89.195,205.035z M91.476,204.75
		c0.742-8.474,3.863-19.914,8.559-27.375c0.438-0.707,0.984-1.324,0.961-1.57c-0.059-0.727-1.867,0.527-3.27,2.668
		c-1.563,3.098-3.133,6.402-4.332,10.059c-1.691,5.168-2.93,9.938-3.41,16.414L91.476,204.75z M95.984,204.043
		c0.473-4.883,1.988-9.363,3.262-13.853c1.559-5.487,3.633-9.526,6.055-13.163c0.777-1.169,1.691-2.258,2.563-3.371
		c0.113-0.134,0.227-0.375,0.199-0.477c-0.559-0.098-1.004,0.078-1.438,0.32c-0.602,0.336-1.453,1.187-1.949,1.82
		c-3.449,4.391-5.305,9.516-7.023,14.695c-1.656,4.973-2.848,9.754-3.078,14.257L95.984,204.043z M65.015,200.301
		c0.692-0.055,1.141,0.074,1.34-0.11c0.199-0.183,0.133-0.675,0.199-1.304c0.133-1.344-0.007-1.27-0.847-0.398
		c-1.395,1.438-3.934,1.988-5.446,1.12c-0.761-0.437-1.293-0.741-1.363-0.379c-0.086,0.427,0.031,0.75,0.356,0.981
		C61.086,201.043,62.824,200.469,65.015,200.301L65.015,200.301z M63.379,199.27c0.961-0.32,1.941-0.833,2.496-1.618
		c0.523-0.75,0.515-0.854,0.117-0.715c-1.961,0.961-3.246,1.454-5,1.188c-2.371-0.363-2.469-0.06-0.902,0.922
		C61.117,199.687,61.968,199.707,63.379,199.27L63.379,199.27z M59.894,196.266c0.367-0.27,0.461-1.371,0.164-1.434
		c-0.297-0.063-0.734,0.483-0.843,0.93C59.097,196.352,59.535,196.504,59.894,196.266L59.894,196.266z M63.566,196.219l0.633-0.055
		c-0.324-2.767-3.328-2.883-3.883,0.272l0.477,0.075C61.414,193.992,63.23,194.062,63.566,196.219L63.566,196.219z M65.547,195.772
		c0.921-0.511,0.601-1.144-0.637-1.386c-0.813-0.191-0.77,0.472-0.348,1.375C64.773,196.207,64.918,196.125,65.547,195.772
		L65.547,195.772z M58.472,192.387c-0.007-0.305-0.136-0.801-0.281-1.102c-1.059-2.164-1.644-4.724-1.523-7.906
		c0.086-2.277,0.113-2.984-0.36-2.984c-0.664,0.316-1.054,4.559-0.211,8.089C56.691,190.977,58.515,194.07,58.472,192.387
		L58.472,192.387z M58.445,188.937c-0.063-1.19,0.199-3.858,0.066-4.44c-0.171-0.767-0.625-1.457-0.882-1.642
		c-0.395-0.289-0.497,0.263-0.36,1.692C57.593,187.902,58.132,190.445,58.445,188.937L58.445,188.937z M58.781,182.828
		c0.262-0.474,0.16-0.974-0.418-2.095c-2.27-4.422-2.566-7.444-0.191-8.543c0.265-0.12,0.433-0.144,0.609-0.241
		c0.746-0.414,0.461-1.168-0.656-0.855c-3.09,0.855-3.7,3.742-1.094,9.086C58.355,182.844,58.562,183.219,58.781,182.828
		L58.781,182.828z M59.343,180.32c0.039-0.188,0.122-0.91,0.153-1.059c0.031-0.148-0.281-0.575-0.617-1.426
		c-0.872-2.228-0.891-3.149,0.058-3.797c0.309-0.181,0.629-0.188,0.676-0.395c0.074-0.324,0.066-0.855-0.125-1.008
		c-1.363,0.008-1.992,0.8-2.234,1.559c-0.36,1.191,0.015,2.941,1.086,5.105C58.859,179.977,59.132,181.215,59.343,180.32
		L59.343,180.32z M60.386,177.437c0.727-1.468,0.036-3.371-0.964-2.722c-0.653,0.422-0.688,0.867-0.286,2.09
		C59.621,178.293,59.91,178.397,60.386,177.437L60.386,177.437z M62.941,173.508c0.293-0.285,0.035-0.699-0.504-2.324
		c-0.465-1.387-0.254-2.336,0.629-2.613c1.262-0.309,1.707,1.75,1.973,2.616c0.136,0.672,0.578,0.856,0.972,0.392
		c0.11-0.129,0.141-0.238-0.046-0.97c-0.817-3.194-1.879-4.211-3.594-3.413c-1.594,0.738-1.383,2.387-0.231,5.855
		c0.153,0.461,0.258,0.804,0.367,0.855C62.601,173.945,62.781,173.668,62.941,173.508L62.941,173.508z M64.351,172.426
		c0.375-0.371,0.356-0.203-0.078-1.535c-0.492-1.52-0.75-1.836-1.277-1.316c-0.324,0.32-0.16,0.676,0.211,1.918
		C63.636,172.937,63.75,173.02,64.351,172.426L64.351,172.426z M130.285,167.227c2.512-1.727,1.477-4.829-1.828-5.977
		c-0.391-0.137-0.82-0.301-0.953-0.363c-1.52-0.73-2.699-0.953-2.703-0.387c-0.004,0.336,0.453,0.504,1.91,1.211
		c2.152,1.047,2.637,2.254,1.574,3.781C127.519,166.59,128.953,167.848,130.285,167.227L130.285,167.227z M132.562,163.453
		c0.219-0.888,0.543-1.645,0.699-2.164c0.211-0.81-0.063-0.617-0.602-0.492c-1.383,0.715-2.371,0.328-1.699,1.312
		C131.707,163.418,132.324,164.43,132.562,163.453L132.562,163.453z M132.39,160.354c1.727-1.03,2.105-3.71,0.504-4.991
		c-0.387-0.305-1.051-0.707-1.852-0.953c-1.633-0.496-3.992-0.724-4.855-0.461c-0.184,0.219-0.191,0.563-0.008,0.659
		c0.242,0.091,0.676,0.149,1.305,0.216c2.398,0.241,3.582,0.952,3.469,2.652c-0.121,1.75-1.523,2.421-4.055,1.867
		c-1.363-0.297-1.996-0.153-1.449,0.164c0.648,0.379,2.047,0.875,3.422,1.144C130.05,160.858,131.39,160.937,132.39,160.354
		L132.39,160.354z M124.117,159.914c1.938-4.344,2.961-15.734-8.129-23.974l0.367,2.282c6.535,5.707,8.102,12.977,6.75,19.648
		L124.117,159.914z M134.015,152.129c-0.695,0.445-1.273,0.914-2.164,1.308c-0.535,0.239-0.547,0.297,0.176,0.692
		c0.352,0.191,0.93,0.543,1.148,0.781c0.387,0.41,0.836,0.569,1.008,0.418C134.164,154.684,134.386,152.547,134.015,152.129
		L134.015,152.129z M130.734,152.949c2.246-0.707,3.449-1.785,3.191-3.586c-0.375-2.645-2.594-3.203-6.75-2.173
		c-1.996,0.5-2.176,1.435-0.277,0.954c2.395-0.609,4.273,0.309,4.02,2.059c-0.148,1.508-1.363,2.387-3.5,2.387
		c-1.129,0-1.477,0.101-1.324,0.504C126.199,153.371,129.808,153.242,130.734,152.949L130.734,152.949z M127.027,146.668
		c3.672-1.254,5.379-3.203,4.539-5.391c-0.988-2.57-4.191-2.598-7.414-0.203c-1.504,1.098-1.273,1.504,0.184,0.945
		c1.891-0.863,3.105-1,3.879-0.309c1.398,1.242,0.457,3.406-1.664,4.184c-1.023,0.426-1.355,0.66-1.355,0.969
		C125.191,147.348,125.378,147.229,127.027,146.668L127.027,146.668z M133.218,146.629c0.094-0.762-0.766-3.402-1.141-2.793
		c-0.098,0.16-0.441,0.906-0.875,1.293c-1.262,1.129-1.023,0.699,0.23,1.047C132.128,146.367,133.117,146.854,133.218,146.629
		L133.218,146.629z M123.507,140.983c3.711-2.144,5.129-5.202,3.207-7.237c-1.73-1.828-4.598-0.767-7.258,2.559
		c-1.223,1.527-0.305,1.336,1.34-0.118c1.918-1.687,4.355-0.871,4.344,1.239c-0.008,0.898-1.285,2.414-2.492,3.117
		c-0.379,0.219-0.434,0.555-0.301,0.772C122.492,141.551,122.792,141.397,123.507,140.983L123.507,140.983z M130.015,138.746
		c-0.195-0.574-1.59-3.047-1.891-2.965c-0.316,0.637-0.34,1.469-0.719,2.145c-0.52,1.008-0.453,0.852,1.195,0.847
		C129.828,138.77,129.976,138.937,130.015,138.746L130.015,138.746z M119.105,135.949c3.117-3.223,3.395-7.004,0.473-7.871
		c-1.621-0.48-4.207,0.684-4.215,1.891c-0.004,0.75,0.137,0.883,0.793,0.613c2.754-1.021,4.938,1.621,2.406,4.656
		c-0.613,0.879-0.695,1.102-0.52,1.281C118.253,136.733,118.425,136.651,119.105,135.949L119.105,135.949z M152.695,108.363V22.855
		h-18.25L119.949,45.43l-0.023,5.586c0,0.191,0.328,0.313,0.543,0.07c0.824-0.633,0.508,0.031-0.441,1.469
		c-0.957,1.453-0.664,2.652,0.383,4.203c2.219,3.289,3.379,9.328,2.434,12.519c-0.359,1.207-0.438,1.696-0.203,2.368
		c0.266,0.773,0.43,1.183,1.199,1.679c0.672,0.465,6.184,2.61,15.066,8.301l-0.043-40.172l5.594-5.348l5.914,5.641l0.207,66.324
		C150.578,108.77,151.953,109.09,152.695,108.363L152.695,108.363z M149.496,41.934l-4.953-4.594l-4.891,4.527
		c-0.027,21.602,0.121,65.942,0.121,65.942l4.863,0.347c0,0,0.359-1.011-0.098-3.625c-0.684-3.922-0.641-8.715,0.457-16.004
		c0.684-4.472,0.004-8.351-1.031-12.433c-0.902-2.719-0.934-5.239-0.77-7.672c0.348-3.879,1.418-6.809,1.547-12.395
		c0.078-3.183-0.074-6.297,0.039-10.222c0.051-0.528,0.273-0.461,0.313,0.078c0.148,3.554,0.285,6.929,0.32,10.398
		c-0.109,4.516-1.215,9.156-1.336,13.289c-0.094,2.86-0.137,3.852,1.074,7.336c1.902,5.473,0.652,13.887,0.629,14.035
		c-0.809,5.387-1.395,12.282,1.328,17.438l2.641,0.234L149.496,41.934z M115.441,82.687c1.461-0.667,1.75-1.847,0.961-4.695
		c-0.141-0.504-0.301-1.109-0.355-1.34c-0.168-0.703-0.484-0.777-0.906-0.218c-0.254,0.332-0.02,0.41,0.367,1.972
		c0.586,2.367,0.246,3.149-0.637,3.141c-0.781-0.004-1.391-0.645-1.613-2.18c-0.074-0.523-0.188-0.883-0.313-1.09
		c-0.215-0.351-0.469-0.289-0.676,0.098c-0.266,0.504,0.234,2.574,0.902,3.574C113.894,82.961,114.39,83.168,115.441,82.687
		L115.441,82.687z M115.042,80.566c0.309-0.582-0.074-2.015-0.277-2.953c-0.184-0.523-0.395-0.652-0.742-0.566
		c-0.52,0.125-0.492,0.691-0.305,1.621C114.097,80.559,114.304,80.797,115.042,80.566L115.042,80.566z M119.48,77.152
		c1.672-0.949,1.832-2.59,0.711-5.566c-0.461-1.223-1.035-2.082-1.352-2.09c-0.125,0.777-0.238,1.191-0.098,1.496
		c0.129,0.281,0.348,0.715,0.504,1.078c0.953,2.196,0.695,3.461-0.223,4.149C118.167,76.859,118.707,77.398,119.48,77.152
		L119.48,77.152z M64.793,76.008c3.922-0.836,7.457-7.117,9.683-12.715c2.028-5.641,4.184-11.84,4.524-17.008
		c0,0-1.485,0.067-1.664,0.371c-0.168,0.301-0.243,0.949-0.399,1.875c-1.023,4.754-1.836,8.364-3.617,12.836
		c-1.238,3.102-2.586,6.613-5.938,11.328c-1.101,1.321-2.359,2.137-3.945,2.356c-0.402,0.058-1.078-0.02-1.25,0.101
		c-0.301,0.211-0.031,0.692,0.746,0.887C63.625,76.211,64.332,76.098,64.793,76.008L64.793,76.008z M118.792,75.273
		c0.598-0.636,0.656-1.386-0.012-2.98c-0.188-0.445-0.273-0.699-0.5-0.637c-0.473,0.133-1.023,1.371-0.695,2.418
		C118.011,75.441,118.257,75.84,118.792,75.273L118.792,75.273z M63.425,74.273c1.149-0.152,2.606-1.062,3.653-2.488
		c2.16-2.816,3.652-6.019,4.758-8.508c0.882-2.007,2.48-6.34,2.914-7.91c0.922-3.332,1.425-5.48,1.847-7.867
		c0.039-0.219,0.075-0.57,0.012-0.684c-0.457-0.125-1.453-0.05-1.758,0.254c-0.551,3.828-1.832,7.668-2.765,10.856
		c-1.579,5.429-6.071,14.109-8.524,14.519c-1.316,0.223-2.828-0.922-2.582-2.093c0.149-0.719,0.246-0.993,0.602-1.172
		c0.851-0.301,1.351,0.277,0.414,0.656c-1.086,0.941,0.867,2.379,2.066,1.375c2.035-1.703-0.953-4.965-3.402-3.465
		c-2.707,1.66-2.012,4.539-0.309,5.906C61.211,74.34,62.207,74.437,63.425,74.273L63.425,74.273z M82.621,70.379
		c1.676-1.715,2.933-3.93,3.847-6.703c1.985-6.227,3.629-13.367,4.223-18.957c0,0-1.43-0.149-1.75,0.152
		c-0.223,0.215-0.008,0.414-0.617,4.504c-1.02,5.957-2.512,11.871-4.664,16.992c-0.883,2.074-1.133,2.328-1.758,3.403
		C81.031,71.289,81.355,71.676,82.621,70.379L82.621,70.379z M119.777,57.398c-0.156-0.082-0.141-0.027-0.207,0.016
		c-0.23,0.156-0.078,0.953,0.438,2.184c1.367,2.195,1.527,6.457,1.438,8.058c-0.027,0.481-0.078,0.758,0.07,1.184
		c0.145,0.422,0.398,0.91,0.805,0.09c0.449-3.157,0.098-6.457-1.117-9.133C120.777,58.844,120.359,57.914,119.777,57.398
		L119.777,57.398z M120.828,66.703c0.238-0.848-0.203-4.215-0.75-5.398c-0.223-0.477-0.621-0.516-0.574,0.027
		c0.008,1.168-0.121,3.387,0.004,4.043C120.105,66.746,120.57,67.621,120.828,66.703L120.828,66.703z M117.738,53.098l-0.645,0.004
		c0.023,2.199-1.938,2.812-2.66,0.168l-0.582,0.132C114.625,57.137,118.109,55.426,117.738,53.098L117.738,53.098z M113.82,54.758
		c-0.336-0.977-0.195-1.332-1.047-0.895c-0.648,0.336-1.035,0.696-0.125,1.133C113.464,55.34,114.031,55.379,113.82,54.758
		L113.82,54.758z M118.726,54.195c0.27-0.539,0.238-1.031-0.168-1.031c-0.313-0.004-0.398,0.246-0.488,0.773
		C117.914,54.875,118.304,55.047,118.726,54.195L118.726,54.195z M119.07,50.539c0.246-0.082,0.176-0.43,0.109-0.871
		c-1.063-1.473-3.688-1.023-4.633-0.731c-1.09,0.352-1.363,0.223-2.105-0.117c-0.613-0.113-0.699,0.035-0.848,0.328
		c-0.129,0.254-0.152,0.747-0.195,1.594c-0.035,0.719-0.012,1.055,0.238,0.828c0.973-0.871,2.102-1.957,3.742-2.023
		C117.371,49.465,119.07,50.57,119.07,50.539L119.07,50.539z M111.835,52.531c0,0.293,0.254,0.11,0.902-0.297
		c2.355-1.394,3.723-1.195,5.738-0.531c0.453,0.149,0.73-0.32,0.242-0.719C116.32,49.02,113.367,50.27,111.835,52.531
		L111.835,52.531z M120.378,43.484l12.793-21.086l-71.258-0.05l12.097,22.386C83.879,42.457,100.121,39.551,120.378,43.484
		L120.378,43.484z M120.378,43.484"/>
	<path fill="#E2CF00" d="M57.183,208.434c1.512-2.247,8.985,1.753,9.379,3.336c4.426-3.469,9.797-3.723,14.117,0.621
		c4.446-4.844,9.204-4.512,14.153-1.707c-0.551-1.094,6.328-5.926,10.512-2.855l11.313,20.086l-72.465,0.233
		C48.472,221.742,52.265,214.09,57.183,208.434L57.183,208.434z M25.988,103.66c-0.5-0.336-0.285-0.59-0.508-1.203
		c-0.39-1.086-1.93-11.031,2.102-11.309c6.519,2.883,14.843,13.192,18.699,19.493c4.781,7.804,9.609,25.756,6.941,24.972
		c-0.382-0.113,8.231,8.488,8.825,9.327c0.976,1.38-14.524,27.118-17.082,26.196c-0.774-0.282-5.938-3.352-5.938-3.352l0.148-8.59
		c0,0,8.114-15.966,8.563-21.301c0.168-2.016-5.582-5.465-5.844-6.165c-0.656-1.733-0.578-8.183-3.929-11
		c-0.735-0.617-2.043-0.867-3.379-0.812c-0.715,0.027-1.465,0.332-2.086,0.289c-1.52-0.105-2.352-0.867-2.696-1.57
		C26.39,111.637,29.851,106.176,25.988,103.66L25.988,103.66z M152.726,109.402l0.047,3.168c-5.008,1.09-13.859-3.14-16.539,3.672
		c0.332,7.36,1.988,10.66,3.141,12.883c0.867,1.992,6.957-0.281,9.102,1.729c4.477,3.431,5.137,11.263,5.16,17.353
		c0.016,3.625,0.277,7.129-0.91,9.672c-2.371,3.867-13.848-6.367-18.66-15.043c-21.531-39.094-16.035-26.738-18.078-38.113
		c-0.129-6.161,16.922-25.957,16.922-25.957c0.039-0.043,6.211,3.746,6.211,3.746c0.152,0.058-0.129,25.98-0.129,25.863
		C143.867,108.625,148.64,109.203,152.726,109.402L152.726,109.402z M115.25,85.711c-9.465,13.535-12.668,33.762-12.059,47.867
		c1.227,21.066,16.277,39.844,15.273,41.621c-0.172-0.125-0.563,0.077-0.723-0.052c-3.617-2.921-5.887-2.534-7.66-2.562
		c-3.391-0.055-4.324,0.953-6.27,1.147c-4.965,0.489-4.563,0.614-8.773-0.968c-2.137-0.801-3.332-3.211-5.363-4.036
		c-5.648-2.28-8.098-3.948-12.734-5.339c-4.539,0.406-11.465,2.546-14.082,0.813c16.895-34.09,15.008-55.191-3.371-90.125
		c1.562,0.461,1.805,1.918,2.977,2.274c3.875,1.496,9.218,0.929,12.417-0.465c3.477-1.559,6.758,0.726,6.711,0.648
		c6.844,4.82,15.125,7.93,19.438,10.078c1.273,0.657,2.883-0.379,4.289-0.664c2.883-0.582,5.352-1.812,7.5-1.094
		C113.511,85.09,114.539,85.371,115.25,85.711L115.25,85.711z M72.722,41.84c-0.925-1.723-10.297-19.715-10.297-19.715l70.438,0.422
		L122.277,39.91c-0.996,0.942-5.969,3.567-11.043-2.379c0.902,0.555-7.523,6.141-13.91-0.226c-2.176,2.121-4.816,3.496-7.254,3.687
		c-3.484,0.274-6.898-1.687-7.105-2.105C83.664,39.25,77.957,44.836,72.722,41.84L72.722,41.84z M72.722,41.84"/>
	<path fill="#D40000" d="M80.441,211.988c-5.824-6.055-13.887-0.598-13.789-0.255c-2.703-2.745-5.578-4.737-9.145-3.636
		c0,0,0.227-1.215,0.254-1.234c12.164,1.452,28.895,2.113,46.5-1.406l0.434,1.914c-4.555-1.392-7.648,0.699-10,3.483
		C86.297,206.219,84.465,210.315,80.441,211.988L80.441,211.988z M96.386,137.647l4.836-0.093
		c0.91,14.047,12.66,35.543,12.941,35.543c-0.816-1.137-8.574-0.243-8.516-0.098C101.382,161.633,96.699,150.281,96.386,137.647
		L96.386,137.647z M68.179,170.973c0,0-1.554-4.027-2.484-5.75c5.074-8.661,9.242-17.621,11.375-27.59l3.461,0.031
		C79.504,151.426,68.48,172.32,68.179,170.973L68.179,170.973z M130.394,169.129c7.359-14.188,6.352-33.5-15.207-44.344
		c0,0,0.461-14.601,2.07-14.637c0.363,0.114,9.781-0.121,9.781-0.121c3.027-6.746,6.652-13.629,11.984-18.3l0.141,16.21
		c-4.105,0.407-6.609,1.715-7.855,4.922l-5.688,1.266c0.418,16.281,6.551,31.328,24.75,44.844
		c-4.039,3.008-14.957,9.859-18.902,11.023C130.722,170.223,130.394,169.129,130.394,169.129L130.394,169.129z M39.218,158.897
		l0.161-16.878c2.761-0.598,4.933,0.203,7.214-4.738c0,0,3.821,1.813,5.094,2.48C48.113,146.147,45.027,152.973,39.218,158.897
		L39.218,158.897z M75.445,129.012l0.187-8.571l8.145,0.235c-0.691,2.906-0.906,5.813,0.02,8.719L75.445,129.012z M94.031,128.906
		c0.555-2.802,0.953-5.621-0.199-8.597l8.82,0.148l-0.207,8.535L94.031,128.906z M77.254,112.148
		C75.789,95.34,64.257,76.316,64.093,76.723c1.36,0.214,3.75,0.886,5.071,0.265c1.593,0.266,2.972,0.082,3.051-0.062
		c0.105-0.59,10.718,24.406,9.3,35.187C81.347,112.477,77.601,112.5,77.254,112.148L77.254,112.148z M97.644,112.297
		c1.246-7.766,4.457-21.969,12.047-33.488c0.863,2.046,1.586,4.148,2.77,6.062c-5.723,8.313-9.246,17.816-11.387,27.52
		L97.644,112.297z M44.894,108.113c-3.469-7.078-17.914-18.215-17.176-17.09c5.981-5.355,12.649-8.753,19.305-12.187
		c0,0,1.184,1.121,1.004,1.402c-4.094,6.442-6.078,20.094-2.113,27.918c3.808,8.356,10.563,13.293,17.449,17.172
		c-0.535,5.227-0.793,9-2.082,14.194c0,0-4.324-2.272-7.871-3.733C52.843,125.922,50.8,117.098,44.894,108.113L44.894,108.113z
		 M83.156,38.781c5.09,3.102,9.648,2.774,14.07-1.433c5.551,5.031,11.551,2.687,14.086,0.418c2.348,2.64,5.406,4.109,9.875,3.234
		l-1.105,2.324c0.266-1.234-30.84-3.25-45.887,0.961c0,0-0.879-1.754-0.781-1.769C74.722,42.437,79.082,44.051,83.156,38.781
		L83.156,38.781z M83.156,38.781"/>
	<path d="M4.433,8.801v2.363l2.274-0.121v20.418L4.25,31.473v2.425h6.82v-2.425H9.289v-5.871l2.976-3.872l3.907,9.743h-2.461v2.425
		h7.464v-2.425h-2.066l-5.211-12.477l5.332-7.953h1.672V8.801h-7.191v2.242h2.257l-6.679,9.75v-9.75h1.781V8.801H4.433z
		 M61.273,21.566l12.574,23.395c0,0,0.368-0.066,0.555-0.102c17.422-3.402,31.227-3.871,46.047-1.265l13.18-21.782
		C109.644,21.539,61.273,21.566,61.273,21.566L61.273,21.566z M62.675,22.562l69.915,0.079l-3.934,6.441
		c-2.355-0.727-3.668,0.355-3.996,2.609c0,0-0.293-0.125-0.84-0.187c-3.445-0.371-3.879,4.164-0.664,4.715
		c0.82,0.136,0.961-0.024,0.961-0.024c-2.867,2.407-4.5,0.782-5.848-0.011c-0.035,0.281-2.57,2.183-4.961-0.094
		c3.422,0.344,3.953-3.086,2.32-4.387c-0.344-0.336-0.691-0.601-0.691-0.601c0.805-0.7,0.98-1.633,0.465-2.7
		c-1.039-2.144-4.293-2.019-4.789,0.325c-0.195,0.91-0.199,1.07-0.199,1.07c-2.629,0.172-3.164,2.648-2.258,4.023
		c0.512,0.782,1.641,0.953,2.684,0.899c-1.406,1.988-4.621,1.312-6.055-0.324c-2.273,2.671-4.867,2.343-6.16,0.914
		c0.879-0.012,1.484-0.024,2.289-0.77c1.383-1.273,0.703-3.535-1.246-4.172c-0.379-0.121-0.652-0.144-0.672-0.148
		c0.012-0.02,0.051-0.145,0.133-0.824c0.488-3.946-5.43-3.555-4.855,0.324c0.066,0.449,0.188,0.691,0.188,0.691
		s-0.629-0.035-0.988,0.133c-3.281,1.512-1.02,5.68,1.52,4.605c0.238-0.101,0.895-0.421,0.988-0.418
		c-3.145,3.895-5.781,1.137-6.477,0.711c-2.125,3.149-5.813,1-5.887,0.782c0.23,0.062,0.922-0.082,1.578-0.418
		c2.078-1.082,1.488-3.868-0.133-4.473c-0.496-0.172-1.094-0.191-1.769-0.137c0,0,0.05-0.703-0.016-0.949
		c-1.02-3.793-5.742-1.898-4.578,1.305c0.101,0.281,0.375,0.566,0.375,0.566s-0.641,0.387-0.926,0.645
		c-2.254,2.027,0.039,5.367,2.672,3.976c0.34-0.179,0.672-0.554,0.766-0.531c-1.239,2.262-3.118,3.051-5.801,1.176
		c-1.653,2.621-4.348,1.531-5.11,0.222c2.52,0.231,4.157-4.597-0.687-4.753c-0.375-1.313-0.359-3.309-3.43-2.965L62.675,22.562z
		 M46.316,25.379c-2.629,6.969-10.051,13.281-14.351,21.133c-4.86,7.949-3.333,16.078,3.277,17.484
		c3.469,0.738,7.988-2.594,8.39-6.184c0.083-0.73,0.356-1.117,0.848-1.058c0.383,0.047,0.348,0.992,0.203,2.129
		c-0.531,3.726-2.554,9.644-5.168,12.375l12.164,0.008c-0.488-0.278-5.031-5.95-4.589-12.832c0.007-1.235,0.007-1.641,0.554-1.637
		c0.438,0,0.442,0.203,0.571,1.414c0.82,7.637,10.32,8.469,13.3,1.16c1.508-3.684-0.07-10.246-4.043-15.859
		C54.457,38.578,49.324,32.836,46.316,25.379L46.316,25.379z M51.679,71.266c0.028,0.015,0.043,0.015,0.047,0H51.679z M96.82,30.844
		c0.555,0,1,0.453,1,1.008c0,0.554-0.445,1.003-1,1.003s-1.008-0.449-1.008-1.003C95.812,31.297,96.265,30.844,96.82,30.844
		L96.82,30.844z M112.441,30.965c0.586,0,1.063,0.48,1.063,1.066c0,0.59-0.477,1.063-1.063,1.063c-0.59,0-1.066-0.473-1.066-1.063
		C111.375,31.445,111.851,30.965,112.441,30.965L112.441,30.965z M81.82,32.129c0.566,0,1.023,0.457,1.023,1.023
		c0,0.567-0.457,1.032-1.023,1.032s-1.031-0.465-1.031-1.032C80.789,32.586,81.254,32.129,81.82,32.129L81.82,32.129z
		 M125.683,33.391l-0.891,1.582C123.808,34.113,124.488,32.984,125.683,33.391L125.683,33.391z M69.59,35.57l-0.887-1.633
		C70.289,34.043,69.82,35.18,69.59,35.57L69.59,35.57z M96.687,34.68c6,6.836,11.383,4.816,14.898,0.269
		c1.512,3.875,4.875,6.555,10.66,3.949c-0.348,0.618-1.227,1.711-1.227,1.711c-5.117,1.379-7.656-1.027-9.629-3.32
		c-5.203,4.32-10.102,3.273-14.145-0.539c-3.453,4.344-9.039,5.277-14.215,1.734c-2.363,3.489-5.754,4.899-10.02,3.153
		c0,0-0.906-1.422-0.984-1.516c0.617,0.52,8.473,3.781,10.391-4.062C85.152,40.699,94.117,40.945,96.687,34.68L96.687,34.68z
		 M97.289,37.492c6.75,6.313,13.832,0.856,14.016,0.469c0.105,0.351,3.957,4.949,9.512,3.223l-0.902,1.546
		c-10.453-1.769-20.066-2.902-42.082,0.332c0,0,3.515-1.039,5.293-3.843C84.113,39.863,91.75,44.125,97.289,37.492L97.289,37.492z
		 M11.965,39.281c-0.614,1.489-1.618,3.028-2.458,4.403c-3.949,6.125-4.175,6.714-4.488,8.875c-0.879,4.234,4.121,5.949,5.715,3.058
		c0.711-1.222,1.164-0.426,0.844,0.731c-0.203,2.031-2.27,4.382-2.278,4.339l6.055,0.043c0,0-2.598-2.644-2.558-4.769
		c0.003-0.969,0.523-0.996,1.152-0.125c1.808,2.496,5.18,0.488,5.199-3.059c0.016-2.175-0.644-3.394-4.578-9.25
		C13.711,42.246,12.765,40.637,11.965,39.281L11.965,39.281z M73.636,42.723c0,0,2.938,0.343,3.168,0.402
		c0.258,0.199-2.472,0.949-2.484,0.895L73.636,42.723z M79.593,72.832c-0.179,0.008-0.402,0.207-0.769,0.566
		c-0.797,0.786-0.977,0.891-1.75,1c-0.586,0.086-1.817,0.793-2.563,1.477c-0.203,0.184-0.586,0.336-1.046,0.418
		c-0.403,0.07-0.954,0.164-1.227,0.211s-0.57,0.133-0.66,0.187c-0.391,0.239-1.031,0.278-1.746,0.106
		c-0.692-0.168-0.805-0.164-1.563,0.07c-1.109,0.344-1.836,0.344-2.383,0c-0.546-0.34-1.41-0.469-1.961-0.293
		c-0.812,0.266-2.921-0.996-2.914-1.742c0-0.168-1.199-1.066-1.5-1.066c-1.066-0.161-10.445,3.543-10.398,3.757
		c11.516,14.227,21.211,35.899,13.91,62.417l-1.293-0.62c1.086-4.82,1.516-9.673,1.848-14.598
		c-21.617-9.332-23.477-31.036-15.086-44.739l-1.426-1.515c-5.082,2.715-10.25,4.254-22.816,14.797l0.035,17.063
		c0.031,15.43,0.023,30.461,0.023,30.461c4.547,0.504,9.555,0.914,14.496,1.34c0,0-0.066,15.258-0.179,21.223
		c-0.094,5.046,0.093,4.73,0.093,4.73l16.36,8.625c-1.153-4.543,1.687-6.344,4.062-6.156c-1.05-4.379,1.555-6.387,4.532-5.824
		c2.007,0.382,2.71,1.488,3.863,5.152c0.187,0.594,0.441,1.391,0.441,1.391l1.149-0.043c1.433-3.082,2.394-7.004,5.769-7.512
		c4.422-0.664,6.067,2.371,6.063,5.406c4.285-3.773,9.414-0.852,9.078,4.785c2.156-1.387,5.805-2.637,8.105,2.702
		c0.863-0.183,1.305-1.147,2.523-1.448c0.453-0.095,1.484-0.648,1.484-0.648l0.012-0.184c0,0,0.957-0.332,2.238-0.543
		c1.102,0.41,0.781,0.398,1.371-0.332c0.66-0.34,1.73-0.563,2.559-0.488c0.863,0.078,1.25,0.14,1.758-0.082
		c0.789-0.344,1.527-0.434,1.996,0.09c0.336,0.375,0.824,0.195,1.344,0.172c1.043-0.043,2.434,0.387,2.871,1.324
		c0.637,0.652,2.039,1.316,2.039,1.316l1.133-0.263l0.129-0.418l9.266-3.539c-18.895-20.687-18.402-48.131-13.949-62.026l1.707,0.82
		c-0.906,4.118-1.934,8.348-1.801,14.485c17.016,7.586,25.48,27.195,15.164,44.313l1.09,1.409
		c4.293-1.804,15.086-7.862,18.816-11.155l0.797,0.066c0,0,2.262-1.465,3.258-2.25l0.137-45.417l-0.793,0.207l-0.141-2.653
		l-14.027-1.113c0.176-0.133,0.313-0.188,0.352-0.453l-0.078-25.145c-0.523-0.797-12.27-7.679-16.641-9.289
		c-0.176-0.004-0.055,0.293,0.008,1.012c0.215,2.469-1.449,4.664-3.379,4.668c-0.695,0-0.816,0.293-0.781,1.711
		c0.051,2.016-0.676,3.367-2.797,4.133c-2.516,0.906-4.215-0.41-5.613-5.582c-0.371-1.356-1.086-1.016-1.777,0.84
		c-0.34,0.921-1.445,3.156-2.105,4.335c-0.512,0.903-1.316,1.305-2.41,1.79c-0.852,0.421-2.699,0.347-3.762-0.192
		c-1.93-0.98-2.68-2.16-3.234-5.074c-0.07-0.383-0.324-0.348-0.949,0.121c-3.406,2.566-8.196-0.086-8.168-4.523
		c0.008-1.301-0.043-1.352-0.809-0.727c-2.308,1.883-5.449,0.93-6.703-2.043C79.976,73.133,79.82,72.824,79.593,72.832
		L79.593,72.832z M60.015,74.406c0.242-0.011,0.992,0.989,0.992,0.989c0.692,0.765,1.622,1.152,2.586,1.718
		c0.09-0.133,11.278,14.879,13.18,35.578l5.203,0.028c-0.969-20.114-6.515-29.782-9.062-35.985l1.867-0.593
		c4.184,8.019,9.285,24.293,9.117,38.539h-8.594c-1.214-14.27-6.765-28.184-14.523-38.739c-0.543-0.808-0.965-1.375-0.809-1.519
		C59.984,74.41,60,74.406,60.015,74.406L60.015,74.406z M56.726,76.531l0.871,2.735c0,0,0.106-0.641,0.371-0.883
		c1.7-1.528,3.325,0.484,2.559,3.219c-0.176,0.843-0.516,2.5-0.516,2.5s-1.707-0.875-2.566-1.157
		c-2.367-1.004-3.156-2.988-1.348-3.211c0.305-0.039,0.926-0.066,0.926-0.066c-0.75-0.59-2.41-1.945-2.41-1.945L56.726,76.531z
		 M64.672,76.836c0.718,0.406,2.562,0.844,3.621,0.445c0.859-0.32,1.511-0.144,2.402-0.066c0.512,0.043,1.527-0.184,1.527-0.184
		c5.09,10.703,8.586,23.406,9.172,35.02l-4.004,0.023c-1.508-12.34-6.285-24.871-12.343-34.168
		C64.777,77.5,64.422,76.852,64.672,76.836L64.672,76.836z M81.39,77.023c1.547,0.016,3.168,1.563,4.051,4.086
		c0.488,1.411,0.68,1.325,1.34,1.098c1.691-0.582,3.488,1.273,1.223,1.586c-2.223,0.367-0.954,4.715-1.141,5.098
		c-0.902,0.156-2.598-3.539-2.551-4.637c0.106-2.699-2.426-4.953-4-3.82c-0.742,0.539-0.664,0.918-0.894,0.722
		c-0.707-0.594-0.852-2.234-0.024-3.164C79.996,77.32,80.683,77.012,81.39,77.023L81.39,77.023z M127.414,77.949
		c0,0,0.09,3.547-0.043,4.328c-0.266,2.364-3.352,2.614-3.473,0.723c-0.504,0.754-0.852,1.695-1.051,2.539l-2.191-1.504
		c0.832-0.598,1.625-1.121,2.238-1.859c-1.621,0.121-2.527-1.281-1.441-2.477C122.656,78.328,125.992,78.18,127.414,77.949
		L127.414,77.949z M46.937,79.07l0.965,1.094c-8.621,15.285-5.582,34.828,15.234,45.098c-0.136,4.688-0.738,9.434-1.859,13.832
		l-7.68-3.723c0.055-17.285-9.734-33.762-25.359-44.594C33.91,86.223,40.179,82.219,46.937,79.07L46.937,79.07z M109.82,79.203
		c0.367,2.02,2.277,5.672,2.414,5.465c-0.02-0.121-7.949,10.16-11.398,27.355l-2.945,0.012
		C99.82,100.578,103.671,89.766,109.82,79.203L109.82,79.203z M134.269,79.684l1.566,0.949
		c-8.219,6.883-13.633,15.605-17.609,25.015l-2.078-0.984C122.312,91.016,128.406,84.953,134.269,79.684L134.269,79.684z
		 M136.464,81.207c0.43,0.027,0.938,0.57,1.73,1.008c0.773,0.422,0.582,0.648-0.875,1.765c-1.723,1.321-1.887,1.262-1.871-0.621
		c0.012-1.25,0.324-2.086,0.93-2.148C136.406,81.207,136.433,81.207,136.464,81.207L136.464,81.207z M134.57,83.148
		c0.09-0.003,0.164,0.028,0.211,0.102c0.125,0.5,0.113,1.641-0.09,2.77c-0.16,0.742-2.371,2.605-3.16,3.343
		c-0.316,0.207-0.461,0.133-0.516-0.238c0.023-0.586,0.078-1.363,0.09-2.156c0.004-0.246-0.047-0.5,0.172-0.688
		C132.363,85,133.937,83.184,134.57,83.148L134.57,83.148z M138.675,83.758c0.012,0,0.02,0,0.031,0.008
		c0.203,0.121,0.168,2.683,0.027,2.851c-0.645,0.168-2.367-0.105-2.809-0.34C135.828,85.977,138.261,83.738,138.675,83.758
		L138.675,83.758z M61.672,84.586l0.597,2.512c0,0,0.172-0.336,0.215-0.403c1.191-1.82,2.641-0.754,2.617,1.774
		c-0.008,0.797-0.734,3.988-0.734,3.988s-4.469-2.145-4.82-3.086c-0.344-0.926,0.144-1.742,0.968-1.816
		c0.309-0.035,0.629-0.059,0.981,0l-1.918-1.961L61.672,84.586z M112.828,84.922l2.027,0.746c-4.23,6.879-8.594,13.672-11.77,29.168
		h-8.5c1.191-9.469,3.598-18.777,7.898-27.84c0,0,1.668-0.512,2.609-0.816c0,0-7.023,16.07-7.84,26.406l4.105,0.086
		C103.546,102.602,107.648,92.168,112.828,84.922L112.828,84.922z M96.738,85.172c1.141-0.043,1.984,0.758,1.918,2.183
		c-0.012,1.301-0.133,1.493-1.055,0.973c-1.211-0.683-2.168-0.699-3.254,0.074c-0.594,0.426-1.18,0.782-1.18,0.782
		s0.523-2.266,1.324-2.977C95.257,85.523,96.054,85.195,96.738,85.172L96.738,85.172z M92.378,88.52
		c-0.082,0.765-0.309,1.117-0.512,1.769c0,0,0.668-0.258,0.984-0.406c1.512-0.707,3.086,0.597,3.063,2.125
		c0.066,1.019-1.043,2.242-2.359,2.25c-0.461,0.004-0.945-0.141-1.418-0.488c0.344,1.863,0.41,2.73-0.957,3.664
		c-1.141,0.761-3.547-0.106-3.41-2.196l0.082-1.285l-1.156,0.149c-3.227,0.132-3.285-3.84-0.68-4.465
		c1.043-0.246,2.172,0.605,2.172,0.605c-0.496-0.972-0.508-2.648,0.16-3.426C89.988,84.91,92.582,86.645,92.378,88.52L92.378,88.52z
		 M120.57,86.039c0.176,1.484,0.766,3.109,0.598,4.496c-0.25,1.774-1.758,2.824-2.945,1.672c-0.145-0.141-0.41-0.437-0.41-0.437
		c-0.535,0.679-0.867,2.593-0.867,2.593l-2.094-1.289c0,0,1.453-1.019,1.855-1.601c0.109-0.164,0.164-0.469,0.164-0.469
		c-1.164,0.363-2.152-0.828-1.836-1.879C115.667,87.402,118.796,86.766,120.57,86.039L120.57,86.039z M135.195,87.113
		c0.785-0.023,1.996,0.199,2.953,0.301c0.738,0.129,0.328,0.543-1.32,2.148c-1.516,1.477-1.469,1.336-2.633,1.317
		c-2.727-0.043-3.207,0.016-1.617-1.695c0.832-0.899,1.555-1.707,2.152-2.008C134.859,87.137,135.015,87.117,135.195,87.113
		L135.195,87.113z M130.281,87.426c0.035,0,0.063,0.011,0.086,0.035c0.184,0.172,0.121,0.937,0.102,2.074
		c-0.02,1.211-0.008,1.211-0.516,1.844c-0.645,0.808-1.18,1.633-1.855,2.41c-0.582,0.633-0.563,0.566-0.914-0.953
		c-0.336-1.477-0.148-1.938,1.754-4.074C129.578,87.934,130.039,87.414,130.281,87.426L130.281,87.426z M138.792,88.266l0.023,2.992
		c-5.625,5.5-9.445,11.683-12.047,18.504l-1.957-0.782C128.207,100.27,133.285,93.477,138.792,88.266L138.792,88.266z
		 M90.035,90.074c-0.934,0-1.684,0.75-1.684,1.68s0.75,1.687,1.684,1.687c0.93,0,1.684-0.757,1.684-1.687
		S90.964,90.074,90.035,90.074L90.035,90.074z M90.023,90.605c0.641,0,1.16,0.52,1.16,1.161c0,0.644-0.52,1.164-1.16,1.164
		c-0.645,0-1.16-0.52-1.16-1.164C88.863,91.125,89.378,90.605,90.023,90.605L90.023,90.605z M27.527,91.312
		c17.547,11.258,25.414,28.711,25.379,43.7l-0.988-0.446c-1.028-21.183-12.543-34.207-24.989-42.631L27.527,91.312z M131.41,91.477
		c0.398,0,0.938,0.062,1.719,0.152c1.453,0.078,1.633,0.168,0.629,1.316c-0.273,0.317-0.797,0.973-1.168,1.469
		c-0.371,0.492-0.824,1.012-1.031,1.082c-0.305,0.106-2.855-0.016-3.582-0.117c-0.238-0.031,0.074-0.274,1.316-2.047
		c0.953-1.363,1.055-1.812,1.957-1.852C131.3,91.477,131.351,91.477,131.41,91.477L131.41,91.477z M138.718,92.051
		c0,0,0.348,9.656,0.094,15.812c-4.004-0.148-6.352,1.371-7.328,4.25l-4.207-2.082C130.363,102.105,134.488,96.594,138.718,92.051
		L138.718,92.051z M126.328,92.273c0.227,0.004,0.359,0.477,0.422,1.403c0.266,1.66,0.238,1.851-0.457,2.918
		c-0.344,0.531-0.816,1.281-1.047,1.668c-0.402,0.675-0.688,0.875-0.785,0.547c-0.551-1.789-0.723-2.899-0.527-3.258
		c0.32-0.594,1.813-2.715,2.023-2.992C126.101,92.367,126.226,92.273,126.328,92.273L126.328,92.273z M26.238,92.453
		c14.105,8.734,24.422,23.649,24.848,41.664c0,0-3.004-1.41-4.86-2.441l-0.097-1.75l0.98-0.031l0.316,1.973l2.153-0.066l-0.571-4.93
		l-3.371,0.319l-0.679-2.792l1.019-0.218l0.567,1.8l2.191-0.578l-1.168-4.39l-3.387,0.925l-1.082-2.964l1.125-0.403l0.91,1.774
		l2.063-0.719l-1.949-4.398l-3.114,1.468l-1.582-2.871l1.219-0.648l0.977,1.707l1.929-0.996l-2.386-4.047l-2.957,1.648l-1.485-2.226
		l0.918-0.641l1.012,1.172l1.695-1.199l-2.597-3.489l-2.828,2.215l-2.094-2.425l0.965-0.817l1.437,1.289l1.61-1.402l-3.083-3.367
		l-2.695,2.461l-2.008-1.747l0.981-1.085l1.254,0.957l1.332-1.579L30.39,96.84l-2.515,2.488l-2.41-1.594v-1.187
		c0.781,0.305,1.609,0.656,2.351,1.051l1.25-1.891l-3.601-2.43L26.238,92.453z M65.519,93.199l0.531,3.078
		c0.508-0.836,0.911-1.414,2.008-1.09c1.313,0.536,1.332,2.52,0.219,5.551c-0.207,0.563-0.461,1.047-0.461,1.047
		s-0.578-0.238-0.961-0.504c-0.805-0.547-2.16-1.172-2.855-2.265c-0.723-1.141-0.739-2.743,0.593-2.606
		c0.266,0,0.786,0.125,0.786,0.125l-2-2.547L65.519,93.199z M25.465,94.117l2.441,1.574l-0.508,0.922l-1.933-0.871V94.117z
		 M86.691,94.844c0.707,0.988-1.781,3.902,1.477,5.066c0,0,0.078,0.672-0.602,1.082c-1.594,1.156-3.879-0.957-3.172-3.133
		C84.851,96.465,86.164,94.852,86.691,94.844L86.691,94.844z M93.449,94.934c0,0,0.984,0.718,1.18,0.906
		c1.813,1.742,1.832,4.234,0.188,5.105c-1.09,0.578-2.328,0.114-2.754-0.73c-0.199-0.391,0.125-0.797,0.543-0.793
		c0.781,0.004,1.379-1.496,1.148-3.074C93.664,95.723,93.449,94.934,93.449,94.934L93.449,94.934z M114.847,95.516
		c0,0,0.215,2.129,0.527,3.074c0.949,2.648-0.266,4.265-2.043,3.375c-0.254-0.125-0.703-0.703-0.703-0.703l-0.176,3.047
		l-2.531-0.739c0.547-0.879,1.336-1.504,1.922-2.496c0,0-0.379-0.012-0.711-0.015c-1.512,0.054-2.066-1.622-0.484-3
		C111.832,97.039,114.847,95.516,114.847,95.516L114.847,95.516z M128.078,96.223c0.305-0.004,0.688,0.023,1.211,0.023
		c1.605,0,2.02-0.219,1.309,0.781c-0.273,0.391-0.945,1.477-1.148,1.844c-0.402,0.75-0.484,0.984-1.156,1.133
		c-0.977,0.195-2.086,0.058-3.199,0.113c-0.242-0.012,0.254-0.844,0.531-1.359c0.684-1.266,1.098-2.137,1.684-2.403
		C127.539,96.25,127.769,96.223,128.078,96.223L128.078,96.223z M123.113,97.199c0.195-0.008,0.34,0.34,0.523,1.059
		c0.43,1.676,0.543,1.719-0.152,3.094c-0.352,0.695-0.949,1.871-1.195,2.359c-0.629,1.246-0.664,1.234-1.063,0.117
		c-0.762-2.144-0.828-1.922,0.43-4.332C122.441,97.992,122.832,97.215,123.113,97.199L123.113,97.199z M30.562,97.789l2.27,1.82
		l-0.645,0.625l-1.258-0.925l-1.851,1.984l3.047,2.781l2.582-2.543l2.211,2.313l-0.676,0.574l-1.297-1.254L33,104.824l2.898,3.426
		l2.926-2.23l1.828,2.402l-0.746,0.469l-1.195-1.161l-1.903,1.317l2.367,3.332l2.981-1.707l1.691,2.785l-0.937,0.453l-0.961-1.531
		l-2.141,1.234l2.02,3.899l3.219-1.344l1.293,2.977l-0.981,0.398l-0.828-1.789l-2.164,0.855l1.453,4.094l3.262-0.937l0.793,3.043
		l-1.008,0.276l-0.496-1.684l-2.078,0.5l0.871,4.106l3.32-0.211l0.395,3.324l-1.032,0.043l-0.257-1.98l-2.118,0.027
		c0.012,0.699,0.094,2.125,0.094,2.125l-1.281-0.594c-1.899-12.629-8.672-23.156-18.77-30.484l-0.05-1.508l2.457,1.559
		C27.922,100.309,30.175,98.301,30.562,97.789L30.562,97.789z M127.519,100.734c0.703-0.007,0.395,0.539-0.465,2.172
		c-0.957,1.824-1.125,1.86-2.918,2.297c-2.18,0.531-2.117,0.652-0.938-1.863c0.453-0.969,0.785-1.817,1.203-2.137
		c0.547-0.422,1.602-0.262,2.754-0.433C127.296,100.746,127.417,100.734,127.519,100.734L127.519,100.734z M25.582,101.27
		c10.484,6.765,17.109,20.753,17.933,29.234c0,0-0.285-0.188-0.855-0.453c-0.797-0.364-0.992-0.602-1.223-1.758
		c-2.078-10.371-7.93-19.172-15.808-25.387L25.582,101.27z M120.121,103.004c0.441-0.094,1.25,3.09,1.008,3.758
		c-0.172,0.48-1.73-0.653-2.301-0.895C118.546,105.746,119.82,103.066,120.121,103.004L120.121,103.004z M69.566,103.148
		l-0.051,3.305c0,0,0.399-0.473,0.602-0.625c0.781-0.566,1.973,0.223,2.019,1.195c0.063,1.352-0.144,1.903-1.226,3.778
		c-0.336,0.582-0.84,1.324-0.84,1.324s-1.281-0.914-2.68-2.305c-1.508-1.508-1.218-3.515,0.102-3.523
		c0.394-0.004,0.75,0.133,1.094,0.242c-0.286-0.973-1.348-2.859-1.348-2.859L69.566,103.148z M110.542,105.621
		c0,0,0.684,0.902,1.469,3.274c0.754,2.261-0.402,3.968-1.973,3.113c-0.281-0.153-0.574-0.485-0.574-0.485
		c-0.109,1.098,0.086,3.075,0.109,3.09l-2.531-0.441c0,0,1.391-2.211,1.492-2.754c0,0-0.156,0.121-0.852,0.121
		c-2.543,0-2.016-3.027,0.922-4.703C109.042,106.582,110.542,105.621,110.542,105.621L110.542,105.621z M125.121,105.66
		c0.547-0.023,0.289,0.508-0.32,1.75c-0.672,1.375-0.504,1.258-1.926,0.531c-1.992-0.972-1.875-1.125,0.648-1.804
		C124.32,105.844,124.832,105.672,125.121,105.66L125.121,105.66z M89.031,106.062c1.992,0.012,3.461,1.981,3.168,4.774
		c-0.508,4.797-0.215,4.504,0.309,4.98c0.949,0.875-0.34,1.399-1.473,0.567c-0.789-0.578-1.047-1.153-1.008-3.797
		c0.039-3.047-0.125-3.82-1.211-3.555c-0.68,0.168-0.894,0.742-0.82,2.797c0.105,2.879-0.082,3.606-1.176,4.527
		c-1.18,0.915-2.453,0.098-1.375-0.503c0.492-0.555,0.586-1.258,0.395-3C85.632,111.371,84.765,106.039,89.031,106.062
		L89.031,106.062z M138.3,108.484c0.254-0.007,0.504-0.004,0.758,0.008c3.836,0.141,13.531,0.93,13.531,0.93l0.086,2.867
		c-0.434,0.266-7.672-0.836-12.996-0.738c-1.242,0.023-2.125,0.574-3.023,0.113c0.863,0.356,0.785,4.68-3.023,3.633
		c-3.227-1.164-1.656-5.527,2.473-6.629C136.816,108.57,137.55,108.496,138.3,108.484L138.3,108.484z M116.964,110.402l8.285,4.086
		c1.16,15.559,6.531,31.992,24.82,44.453c-2.961,2.121-10.395,7.329-18.891,10.896l-0.695-0.746
		c10.086-17.156,2.465-36.035-15.199-44.582C115.332,119.746,115.929,115.047,116.964,110.402L116.964,110.402z M146.113,113.012
		c1.59-0.063,2.004,0.117,2.137,0.84c0.129,0.679,0.637,0.839,1.234,0.621c1.457-0.532,2.348,2.054,1.141,3.203
		c-0.75,0.711-0.617,0.988-0.004,0.992c1.523,0.008,1.477,2-0.07,3.133c-0.641,0.469-0.633,0.679,0.039,1.011
		c1.125,0.559,0.898,1.657-0.527,2.559c-0.777,0.492-0.805,0.612-0.164,0.789c1.617,0.438-0.031,2.742-1.801,2.332
		c-0.727-0.168-1.414-0.013-2.109,0.441c-1.891,0.789-2.207,0.945-4.254,0.691c-1.793-0.328-2.598-0.918-3.059-2.496
		c-1.055-3.203-2.188-6.754-2.203-10.25c-0.156-2.149,3.445-4.09,5.148-4.176C143.011,112.492,144.601,112.996,146.113,113.012
		L146.113,113.012z M32.765,113.062c1.907,0,3.45,1.547,3.45,3.45c0,1.906-1.543,3.449-3.45,3.449c-1.902,0-3.445-1.543-3.445-3.449
		C29.32,114.609,30.863,113.062,32.765,113.062L32.765,113.062z M71.09,114.078l-0.309,3.016c0,0,0.504-0.399,0.625-0.496
		c0.894-0.75,2.312,0.086,1.992,1.254c-0.105,1.031-1.879,4.085-2.59,4.726c0,0-2.847-3.101-3.152-3.707
		c-0.676-1.348,0.25-2.754,1.48-2.16c0.176,0.086,0.684,0.461,0.684,0.461l-0.902-2.86L71.09,114.078z M32.996,114.32
		c-1.219,0.039-2.375,0.789-2.219,1.785c0.105,0.426,0.754-0.187,1.395-0.589c0.488-0.309,1.082-0.36,1.64-0.118
		c0.496,0.176,0.707,0.633,0.992,0.989c0.246,0.297,0.512,0.543,0.661,0.394c0.128-0.156,0.078-0.355,0.042-0.535
		C35.246,114.891,34.121,114.285,32.996,114.32L32.996,114.32z M125.859,114.789l1.234,0.629
		c1.66,21.983,12.777,34.91,24.457,42.608l-0.93,0.56C136.285,149.401,126.332,132.949,125.859,114.789L125.859,114.789z
		 M127.726,115.691c0,0,3.094,1.582,4.715,2.317l0.063,1.988l-1.082,0.039l-0.371-1.871l-2.25,0.16l0.703,4.602l3.629-0.446
		l0.508,2.782l-1.23,0.254l-0.629-1.707l-2.082,0.507l1.348,4.469l3.273-1.056l1.023,2.922l-1.098,0.399l-0.703-1.711l-2.152,0.75
		l1.668,4.363l3.406-1.095l1.371,2.731l-1.031,0.457l-0.988-1.695l-2.043,1.046l2.398,4.075l3.074-1.614l1.438,2.177l-1.129,0.758
		l-1.027-1.332l-1.652,1.09l2.648,3.617l2.648-1.984l1.984,2.285l-0.879,0.773l-1.352-1.371l-1.602,1.43l3.16,3.465l2.738-2.383
		l1.949,1.813l-0.578,0.605l-1.309-0.817l-1.734,1.845l3.313,2.883l2.633-2.883l2.23,1.645v1.211l-1.992-1.008l-1.34,2.011
		l3.332,2.521l-0.023,0.988C133.695,146.358,128.695,128.77,127.726,115.691L127.726,115.691z M88.816,115.91
		c0.82-0.027,1.688,0.746,3.121,2.406c4.004,4.641,2.938,11.817-2.301,15.563c-0.761,0.543-1.07,0.496-2-0.305
		c-5.371-4.613-5.679-10.785-0.898-16.208C87.566,116.434,88.175,115.93,88.816,115.91L88.816,115.91z M108.011,116.547
		c0.988,1.515,2.234,3.07,2.379,4.91c-0.074,1.82-1.297,2.156-2.566,1.098c-0.16,0.953,0.383,2.813,0.383,2.813l-2.297-0.246
		c0,0,0.902-1.574,0.938-2.559c-1.594,1.114-2.813-0.335-2.594-1.503C104.707,119.074,106.339,117.734,108.011,116.547
		L108.011,116.547z M88.886,117.734c-0.191,0.016-0.386,0.145-0.683,0.383c-1.403,1.121-2.5,2.52-3.071,3.969
		c-1.203,3.06-0.417,6.504,2.297,9.18c1.379,1.359,1.864,1.266,3.977-1.543c1.773-2.355,2.141-5.395,1.051-8.036
		c-0.531-1.289-1.496-2.542-2.652-3.453C89.359,117.883,89.129,117.715,88.886,117.734L88.886,117.734z M133.062,118.297
		l1.781,0.875c2.273,14.996,9.641,24.14,17.898,30.449l-0.016,1.391l-2.215-1.719l-2.656,2.777l-2.148-1.762l0.805-0.786
		l1.227,0.782l1.566-1.754l-3.086-2.75l-2.688,2.332l-2.238-2.305l0.68-0.57l1.547,1.351l1.734-1.534l-2.996-3.359l-2.68,2.031
		l-1.871-2.48l0.813-0.484l0.98,1.344l2.066-1.285l-2.184-3.36l-3.117,1.599l-1.594-2.875l0.906-0.434l1.035,1.613l1.938-0.934
		l-1.949-3.961l-3.184,1.051l-1.172-3.117l0.91-0.336l0.805,1.844l2.152-0.691l-1.461-4.266l-3.293,0.93l-0.813-3.136l1.016-0.22
		l0.535,1.691l2.262-0.453l-0.832-4.063l-3.367,0.425c-0.109-0.687-0.605-2.546-0.598-3.25l1.035-0.086l0.328,1.79l2.266-0.079
		L133.062,118.297z M89.004,118.625c1.234,0.168,2.742,2.547,3.082,3.41c0.652,1.707,0.707,3.684,0.113,5.219
		c-0.484,1.254-1.938,3.476-2.859,4.104c-0.747,0.403-1.372,0.103-2.434-1.339c-2.098-2.855-2.504-6.29-0.848-8.641
		C87.324,119.582,88.265,118.621,89.004,118.625L89.004,118.625z M135.449,119.367l0.895,0.422
		c1.098,8.688,6.246,20.608,16.383,27.742v1.09C144.843,142.965,137.609,133.211,135.449,119.367L135.449,119.367z M88.847,119.957
		c-3.531,2.66-2.965,6.824-0.293,9.629C91.433,127.68,92.453,122.535,88.847,119.957L88.847,119.957z M34.992,120.133
		c1.988-0.047,3.25,0.648,3.855,2.027c0.946,2.145,1.071,2.551,1.266,3.676c0.109,0.644,0.281,1.613,0.375,2.152
		c1.035,5.827,0.273,8.02-3.262,8.93c-1.058,0.269-2.527,0.359-3.558,0.113c-0.27-0.066-1.258-0.074-2.036-0.098
		c-1.539-0.051-2.011-0.215-2.785-0.84c-0.281-0.227-0.55-0.41-0.882-0.461c-1.766-0.281-2.293-1.899-0.954-3.094
		c0.762-0.681,0.836-0.77,0.766-0.887c-0.039-0.063-0.363-0.121-0.723-0.121c-1.781-0.012-1.761-1.841,0.028-3.148
		c0.851-0.621,1.238-1.207,0.672-1.067c-1.622,0.384-2.192-1.987-0.497-2.722c0.903-0.504,1.551-0.926,0.68-0.973
		c-0.734,0.063-1.328-0.476-1.105-1.113c0.273-0.77,1.758-1.473,2.613-1.211c0.668,0.207,1.32,0.394,1.738,0.094
		c1.016-0.731,1.469-1.059,2.344-1.176C34.035,120.145,34.562,120.133,34.992,120.133L34.992,120.133z M94.152,120.578l8.18,0.16
		l-0.242,8.02l-7.703-0.145C94.386,128.613,96.078,125.026,94.152,120.578L94.152,120.578z M75.824,120.762l7.836,0.097
		c-1.293,3.024-0.809,6.129-0.336,7.879l-7.668-0.117L75.824,120.762z M88.906,120.773c2.105,1.227,2.688,5.696-0.238,7.989
		C85.886,125.902,86.441,122.422,88.906,120.773L88.906,120.773z M69.582,124.262l2.101,0.195l-0.75,3.008
		c0,0,0.336-0.36,0.449-0.391c2.7-1.27,2.891,1.602,0.145,4.195c-0.605,0.57-1.582,1.355-1.582,1.355s-0.762-1.156-1.371-2.199
		c-0.688-1.051-1.156-2.176-1.039-2.774c0.172-0.866,1.211-1.437,1.879-0.909c0.324,0.262,0.703,0.655,0.703,0.655L69.582,124.262z
		 M107.082,126.465c0,0,0.883,0.906,1.418,1.492c1.855,2.026,2.172,3.926,1.234,4.504c-0.809,0.367-1.309,0.117-1.961-0.41
		c0.137,1.258,1.133,3.113,1.109,3.117l-2.766,0.445c0,0,0.68-2.52,0.625-3.473c0,0-0.57,0.438-0.824,0.546
		c-1.805,0.661-2.703-1.394-1.215-3.44C105.949,127.527,107.082,126.465,107.082,126.465L107.082,126.465z M144.902,130.266
		c1.859,0,3.363,1.507,3.363,3.367c0,1.855-1.504,3.363-3.363,3.363c-1.855,0-3.363-1.508-3.363-3.363
		C141.539,131.772,143.046,130.266,144.902,130.266L144.902,130.266z M146.562,131.809c-0.145,0.031-0.266,0.363-0.281,1.102
		c-0.168,1.508-1.422,2.117-2.793,1.418c-0.559-0.285-1.027-0.703-1.031-0.383c0,0.172,0.445,1.074,0.762,1.379
		c1.164,1.047,3.996,0.797,3.93-1.641C147.121,132.539,146.804,131.754,146.562,131.809L146.562,131.809z M85.488,133.07
		c0.363-0.023,0.828,0.125,1.125,0.434c0.918,0.629,1.094,1.43,1.152,4.457c0.051,2.672-0.004,2.738,0.438,3.062
		c1.078,0.793,1.727-0.418,1.418-3.12c-0.297-2.605,0.645-4.5,2.219-4.488c0.773,0.004,0.918,0.457,0.328,1.039
		c-0.621,0.612-0.77,1.362-0.574,2.867c0.496,3.863,0.066,5.758-1.559,6.538c-1.692,0.821-3.867-0.12-4.25-2.257
		c-0.242-1.422-0.242-3.113-0.07-4.707c0.027-1.676-0.008-1.863-0.594-2.824C84.707,133.426,85.015,133.102,85.488,133.07
		L85.488,133.07z M42.922,134.324c0.937-0.004,1.91,0.539,2.488,1.737c1.402,2.896-1.633,5.274-4.418,5.461
		c-4.836,0.071-10.582-0.625-15.434-1.272l0.078-2.734c4.454,0.257,9.473,0.621,14.883,0.875
		C39.902,135.848,41.363,134.324,42.922,134.324L42.922,134.324z M68.351,134.883l2.692,0.594l-1.711,2.801
		c0.508-0.219,0.859-0.375,1.367-0.188c1.098,0.394,1.109,1.785,0.308,3.082c-0.636,0.945-2.425,2.07-3.644,2.762
		c-0.688-1.473-2.203-4.047-1.598-5.457c0.321-0.747,1.203-1.109,2.032-0.704c0.273,0.164,0.793,0.431,0.793,0.431L68.351,134.883z
		 M74.715,134.961l8.203,0.094c-1.192,8.293-3.524,19.367-8.121,28.395l-1.934,0.5c4.055-8.97,6.75-17.384,8.012-26.785h-4.102
		c-2.359,10.094-5.848,19.444-11.215,27.569l-2.386-0.772C68.906,154.867,73.453,144.723,74.715,134.961L74.715,134.961z
		 M93.425,135.104h9.141c1.684,16.888,7.387,28.411,15.879,39.81c0,0-0.535,0.121-0.852-0.017c-0.883-1.097-1.688-1.769-3.008-2.104
		c-7.137-10.277-11.926-24.641-13.078-35.629H96.07c0.617,13.801,4.441,25.117,9.531,36.078l-2.762,0.504
		C98.753,163.94,94.273,155.406,93.425,135.104L93.425,135.104z M107.652,137.19c0.75,0.582,1.563,1.153,2.328,1.707
		c2.059,1.446,2.035,4.177,0.031,4.164c-0.211,0-0.707-0.03-0.707-0.03s0.82,1.789,1.336,2.695
		c-0.836,0.223-2.578,0.551-2.578,0.551s0.25-1.758,0.199-3.216c0,0-0.336,0.375-0.609,0.504c-1.328,0.556-2.453-0.604-2.285-1.976
		C105.589,139.742,107.652,137.19,107.652,137.19L107.652,137.19z M46.566,137.52l4.504,2.238c-3.07,6.98-6.582,13.515-11.66,18.484
		l0.129-16.134C42.312,142.031,45.156,142.004,46.566,137.52L46.566,137.52z M77.343,137.772h2.766
		c-1.227,12.88-9.738,30.302-11.336,32.403l-0.523,0.398c0.031-0.02-1.09-3.953-2.368-5.367
		C70.683,158.729,75.715,146.289,77.343,137.772L77.343,137.772z M96.812,137.772h4.18c1.305,10.263,4.477,21.353,12.516,34.817
		c0,0-0.805,0.078-1.43-0.293c-1.371-0.852-2.32,0.273-3.141,0.23c-1.281-0.07-1.488-0.145-2.813,0.168
		C99.492,158.703,97.609,147.687,96.812,137.772L96.812,137.772z M51.64,140.078l1.492,0.703c-3.21,7.43-6.085,13.332-13.695,20.577
		l-0.027-2.155C44.754,154.022,48.355,147.203,51.64,140.078L51.64,140.078z M53.812,141.117c0.707,0.266,1.512,0.703,2.18,1.063
		c0.223,0.09,0.164,0.289,0.164,0.5c-0.281,0.703-1.527,1.016-2,1.152c-0.57,0.16-1.133,0.272-1.234,0.297
		c-0.649,0.152-0.446-0.5,0.261-1.926C53.504,141.559,53.629,141.129,53.812,141.117L53.812,141.117z M56.797,142.69
		c0.449-0.026,2.253,0.97,2.64,1.329c0.137,0.421-0.254,1.089-0.824,2.32c-0.875,1.898-1.051,1.941-1.313,0.383
		c-0.046-0.27-0.304-1.157-0.464-1.746C56.468,143.613,56.433,142.828,56.797,142.69L56.797,142.69z M60.066,144.223
		c0,0,1.047,0.507,1.391,0.734c-4.688,14.031-17.164,25.629-17.098,25.363l-1.945-1.145C50.715,161.672,56.8,152.812,60.066,144.223
		L60.066,144.223z M55.113,144.422c0.453,0.008,0.059,0.566-0.555,1.914c-0.578,1.324-0.769,1.793-1.313,2.004
		c-0.778,0.281-1.895,0.289-2.887,0.465c-0.426,0.07-0.246-0.254,0.406-1.578c0.766-1.559,0.809-1.883,2.012-2.207
		C53.472,144.914,54.406,144.418,55.113,144.422L55.113,144.422z M56.754,147.211c0.484,1.738,0.472,2.078,0.152,2.684
		c-0.606,1.133-1.399,2.453-1.617,2.809c-0.547,0.895-0.703,0.711-1.028-1.465c-0.199-1.352-0.375-1.957-0.226-2.543
		c0.273-0.664,1.086-2.23,1.543-3.148C56.238,143.59,56.59,147.035,56.754,147.211L56.754,147.211z M65.379,145.69l2.457,0.81
		l-1.926,2.328c0,0,0.808-0.148,0.902-0.109c1.934,0.129,1.613,2.051,0.117,3.215c-0.621,0.566-3.679,1.957-3.679,1.957
		c-0.328-1.719-1.004-2.82-0.844-4.586c0.117-0.95,0.199-1.809,1.363-1.836c0.613-0.032,0.863,0.597,1.262,1.102L65.379,145.69z
		 M109.933,147.777c0,0,1.48,0.766,2.852,1.82c1.789,1.379,2.098,2.996,0.309,3.621c-0.207,0.074-0.797,0.043-0.797,0.043
		c0.492,0.859,1.664,2.136,1.664,2.136c-0.586,0.411-1.414,0.731-2.332,1.017c0,0-0.227-2.138-0.445-2.961
		c0,0-0.234,0.465-0.531,0.648c-1.723,1.074-3.074-0.95-2.148-3.504C109.066,149.043,109.933,147.777,109.933,147.777
		L109.933,147.777z M90.98,148.137c4.305-0.105,1.785,6.941-0.367,6.488c-0.035-0.063,1.777-4.172-0.664-4.824
		C88.828,149.5,89.792,148.121,90.98,148.137L90.98,148.137z M83.922,148.633c1.339-0.008,2.312,0.938,1.035,1.531
		c-2.012,0.934-0.813,3.168-0.77,4.438c0.028,0.773-1.789-0.676-2.176-2.25C81.511,150.315,81.742,148.809,83.922,148.633
		L83.922,148.633z M52.086,149.375c0.296,0,0.519,0.022,0.593,0.082c0.129,0.332-0.472,1.371-1.351,2.703
		c-0.465,0.707-0.664,0.905-0.949,1.073c-0.68,0.384-1.633,0.282-2.426,0.341c-1.184,0.012-0.973-0.013,0.336-2.047
		c0.582-0.914,0.953-1.656,1.301-1.895C49.66,149.59,51.195,149.379,52.086,149.375L52.086,149.375z M53.636,150.848
		c0,2.547,0.868,3.382,0.231,4.188c-0.777,1.254-1.77,2.625-2.129,3.059c-0.609,0.727-0.543,0.59-0.699-1.321
		c-0.117-1.382-0.242-2.308-0.063-2.737c0.52-1.25,1.137-1.849,1.781-3.177C53.261,149.785,53.636,149.965,53.636,150.848
		L53.636,150.848z M87.613,152.125c1.25,0.016,2.023,1.344,1.969,2.565l-0.055,1.164c1.613-0.616,3.621-0.015,3.707,1.571
		c0.152,2.683-1.828,2.371-3.5,2.261c0.168,0.063,0.414,2.427-0.582,3.333c-1.562,1.75-4.473-0.04-3.742-2.605
		c0.152-0.531,0.183-0.867,0.183-0.867s-1.043,0.379-1.414,0.363c-3.168-0.138-2.925-4.617,0.258-4.09
		c0.653,0.105,1.09,0.262,1.09,0.262s-0.066-0.281-0.176-0.685C84.89,153.676,85.863,152.102,87.613,152.125L87.613,152.125z
		 M151.015,152.922l1.711,0.984v1.905l-2.434-1.796L151.015,152.922z M48.582,154.199c0.675-0.009,1.203,0.047,1.101,0.207
		c-0.004,0.34-1.476,2.391-2.347,3.323c-0.743,0.798-0.848,0.685-2.664,0.599c-0.715-0.035-1.18-0.043-1.161-0.23
		c0.836-1.098,1.989-2.512,2.789-3.691C46.613,154.309,47.718,154.207,48.582,154.199L48.582,154.199z M50.246,155.094
		c0.125-0.004,0.164,0.27,0.16,0.863c0,0.449,0.062,1.832,0.129,2.434c0.117,1.093,0.117,1.093-0.352,1.746
		c-0.57,0.613-1.152,1.516-1.886,2.218c-1.106,1.224-0.993,1.293-0.977-1.323c0.012-2.048-0.141-2.048,0.273-2.527
		c0.227-0.266,0.93-1.125,1.395-1.797C49.691,155.684,50.062,155.098,50.246,155.094L50.246,155.094z M60.785,155.453l2.273,1.215
		l-2.277,2.309c0,0,0.566-0.004,0.758,0.035c1.465,0.281,1.355,1.832-0.117,2.988c-0.907,0.574-4.008,1.703-4.008,1.703
		c-0.11-1.306-0.383-2.504-0.332-3.902c0.023-0.645,0.082-1.348,0.574-1.906c0.344-0.375,0.914-0.598,1.719-0.079
		c0.422,0.375,0.64,0.798,0.64,0.798L60.785,155.453z M87.609,156.242c-0.891,0-1.613,0.723-1.613,1.612
		c0,0.892,0.722,1.614,1.613,1.614s1.613-0.723,1.613-1.614C89.222,156.965,88.5,156.242,87.609,156.242L87.609,156.242z
		 M113.023,156.621c0,0,2.977,1.117,4.316,2.348c1.25,1.043,0.664,2.761-0.578,2.797c-0.094,0-0.621-0.075-0.621-0.075
		c0.422,0.642,1.832,2.212,1.832,2.212l-2.301,0.934c0,0-0.367-1.771-0.652-2.766c-0.801,1.852-2.777,0.648-2.91-0.509
		C111.789,159.871,112.507,158.223,113.023,156.621L113.023,156.621z M87.609,156.762c0.621,0,1.121,0.504,1.121,1.125
		c0,0.617-0.5,1.121-1.121,1.121c-0.617,0-1.121-0.504-1.121-1.121C86.488,157.266,86.992,156.762,87.609,156.762L87.609,156.762z
		 M43.695,159.055c0.801-0.008,1.801,0.031,2.25,0.059c0.344,0.262-0.371,1.073-1.75,2.523c-1.105,1.16-1.27,1-2.609,1.008
		c-2.246,0.02-2.301,0.035-1.27-1.137c1.129-1.289,1.789-2.113,2.313-2.383C42.804,159.078,43.215,159.062,43.695,159.055
		L43.695,159.055z M46.433,160.184c0.239-0.047,0.172,0.559,0.133,1.934l-0.062,2.328l-1.75,1.68
		c-2.02,1.809-1.778,1.922-1.766,0.229c0.012-1.343-0.004-2.289,0.289-2.886c0.883-1.066,1.801-2.008,2.809-3.023
		C46.242,160.289,46.355,160.199,46.433,160.184L46.433,160.184z M90.851,160.766c0.484-0.043,1.727,2.082,2.039,3.863
		c0.711,4.062,3.145,5.988,4.855,4.359c0.699-0.961,0.777,0.086,0.742,0.586c-0.359,5.148-6.195,3.004-6.859-2.109
		c-2.047,1.328-3.957-1.356-2.734-1.313C91.777,165.233,90.992,162.586,90.851,160.766L90.851,160.766z M84.093,160.805
		c0.286,1.781-2.925,4.828-4.73,2.691c-0.922-1.09-0.082-3.336,1.086-1.953C81.738,162.5,82.992,161.391,84.093,160.805
		L84.093,160.805z M39.976,163.246c0.66-0.017,1.617,0.108,2.035,0.055c0.586,0.058,0.168,0.344-1.109,1.504
		c-1.098,1-1.41,1.445-1.535,1.011c-0.059-0.679-0.035-1.483-0.031-2.437C39.437,163.285,39.679,163.25,39.976,163.246
		L39.976,163.246z M54.945,164.43l1.961,1.425l-1.945,1.79c1.742-0.086,1.898,1.551,1.238,2.46c-0.43,0.638-2.082,1.31-3.734,1.579
		c-0.993,0.16-1.805,0.277-1.805,0.277s-0.035-0.766-0.063-2.039c-0.058-2.602,0.118-3.625,1.121-4.133
		c0.715-0.363,1.93,0.207,2.227,0.871c0.098,0.219,0.355,0.602,0.355,0.602L54.945,164.43z M42.343,164.57
		c0.008,0,0.012,0,0.016,0.004c0.109,0.148-0.289,4.387-0.289,4.387l-2.836-1.598C39.234,167.363,42.105,164.621,42.343,164.57
		L42.343,164.57z M117.445,165.07c2.023,0.952,3.539,0.766,4.898,1.945c1.184,0.621,0.832,2.328-0.031,2.707
		c-0.391,0.121-1.035,0.055-1.035,0.055c0.715,0.883,2.281,1.995,2.281,1.995l-2.492,1.043c0,0-0.34-1.679-0.656-2.593
		c-0.453,1.359-1.984,1.328-2.859,0.688c-0.617-0.474-0.875-2.063-0.578-3.441C117.05,167.104,117.445,165.07,117.445,165.07
		L117.445,165.07z M126.539,178.875c2.57,3.613,4,6.652,4.398,11.184c0.234,2.796,0.156,3.32-0.508,3.316
		c-0.426-0.004-0.609-0.215-0.605-0.691c0.043-7.594-9.309-9.379-12.789-2.82c-2.039,3.848-1.031,8.941,3.352,15.883
		c4.039,6.574,9.234,11.569,12.195,18.641c2.93-7.023,8.813-12.93,13.016-19.7c6.074-8.703,3.969-17.878-3.523-18.843
		c-3.438-0.442-7.207,3.004-7.645,6.566c-0.094,0.797-0.266,1.026-0.699,0.965c-0.586-0.086-0.367-1.656-0.113-3.754
		c0.695-4.004,2.109-7.344,4.402-10.746H126.539z M162.816,188.91c0.066-0.02,1.906,2.543,2.168,3.5
		c0.211,0.78,0.375,1.59,0.242,1.93c-0.164,0.406-0.547,0.094-1.023-0.539c-1.309-1.742-3.887-1.184-4.938,1.078
		c-0.758,1.633-0.336,3.734,1.07,6.117c1.684,3.108,5.797,8.703,5.922,9.215c0.109-0.441,2.73-5.191,4.844-8.34
		c1.113-1.898,1.945-3.508,1.996-6.02c-0.258-3.129-4-4.415-5.668-1.988c-0.539,0.784-0.863,1.023-1.043,0.383
		c-0.121-0.435,0.258-1.363,0.457-2.363c0.168-0.832,1.785-2.992,1.824-2.973H162.816z M104.156,204.504
		c-24.535,5.812-44.469,2.219-46.445,1.531l-1.563,2.332c-0.191,0.395-0.308,1.578-1.367,1.898l-1.59,2.375l0.313,0.328l-1.411,1.23
		l0.34,0.409l-1.023,1.493l-0.403-0.043l-2.375,3.605l0.364,0.401l-5.449,8.528l73.714,0.023
		C112.976,220.535,108.394,212.608,104.156,204.504L104.156,204.504z M103.71,205.551l0.438,1.219
		c-1.219-0.152-2.641-0.227-4.09-0.29C101.332,206.219,102.605,205.895,103.71,205.551L103.71,205.551z M99.429,206.608
		c-2.344,1.078-3.75,2.371-4.828,3.735c-1.34-1.043-3.047-1.782-5.082-2.242L99.429,206.608z M58.004,207.203l1.043,0.117
		c0,0-0.348,0.273-0.598,0.215C58.257,207.492,58.004,207.203,58.004,207.203L58.004,207.203z M104.964,207.809l0.664,1.313
		c-1.598-0.845-8.43-2.781-10.367,4.008c-2.039-2.758-10.445-6.754-14.711,1.742c-1.21-2.301-8.269-8.926-14.71-0.484
		c-2.536-5.246-4.657-5.684-9.317-4.969c3.313-3.18,7.969,0.129,9.945,2.836c5.555-4.606,10.2-3.219,14.258,0.527
		c5.235-5.699,10.457-4.328,14.129-1.466C97.437,207.52,99.957,206.375,104.964,207.809L104.964,207.809z M62.074,207.844
		c3.301,0.445,6.601,0.648,9.902,0.808c-1.91,0.703-3.867,1.306-5.426,2.716C65.371,209.723,63.734,208.766,62.074,207.844
		L62.074,207.844z M85.89,208.371c-1.8,0.848-3.742,2.121-5.3,3.461c-1.68-1.367-3.407-2.551-5.29-3.146
		C78.754,208.858,82.582,208.707,85.89,208.371L85.89,208.371z M166.257,210.215c-0.004,0.015-0.004,0.019,0,0.023
		C166.261,210.233,166.257,210.227,166.257,210.215L166.257,210.215z M107.023,211.065c0,0-0.664,0.11-0.879,0.168
		c-2.914,0.774-2.277,4.884,0.719,4.88c0.285,0,0.996-0.109,0.996-0.109c-0.059,2.781,0.789,3.457,3.629,3.301l4.816,8.609
		l-71.234-0.306l4.523-7.233c2.274,0.266,3.707-1,3.2-2.93c0,0,1.402,0.426,1.793,0.43c2.574,0.016,3.242-3.938,0.773-4.621
		c-0.277-0.074-0.965-0.152-1.051-0.176c1.129-2.82,4.23-1.156,5.121,0.016c2-1.645,4.207-0.91,5.157,1.218
		c0,0-0.375-0.207-0.489-0.289c-2.34-1.714-4.519,1.832-2.226,3.47c0.226,0.164,0.703,0.301,0.703,0.301s-0.281,0.227-0.535,0.656
		c-1.192,2.004,0.726,4.441,3.043,3.813c1.777-0.696,1.8-2.032,1.8-3.5c0,0,0.614,0.047,1.165,0.054
		c2.128,0.024,2.742-2.707,1.437-3.976c-0.707-0.688-1.629-0.633-2.086-0.723c2.461-2.414,4.125-0.746,5.863,0.366
		c0.262-0.007,3.008-3.308,6.278-0.065c-1.586-0.414-3.211,0.613-3.23,2.266c0.032,1.059,0.789,2,2.434,2.074
		c-0.18,0.535-0.297,0.933-0.305,1.449c-0.031,1.733,1.313,2.813,3.024,2.547c1.429-0.184,2.488-1.817,1.98-3.176
		c-0.23-0.613-0.547-0.836-0.547-0.836c3.852,0.48,3.781-4.395,0.789-4.691c-0.711-0.071-1.258,0.238-1.972,0.895
		c1.761-3.602,4.98-2.88,6.187-1.406c1.652-1.203,3.934-2.844,6.664,0.078c-0.453-0.095-1.086-0.117-1.633,0.03
		c-2.16,0.575-2.172,3.321-0.457,4.153c0.48,0.238,1.07,0.375,1.707,0.347c-0.57,2.31,1.992,3.957,3.809,2.853
		c1.297-0.789,1.637-2.66,0.23-4.367c2.367-0.106,2.602-3.055,1.234-4.09c-1.07-0.81-2.336-0.426-3.25,0.644
		c-0.293-0.843,2.047-3.789,5.352-1.667C103.304,210.051,105.039,209.602,107.023,211.065L107.023,211.065z M108.058,213.371
		l0.926,1.68C108.367,215.113,107.484,214.453,108.058,213.371L108.058,213.371z M96.117,215.078c0.578,0,1.047,0.469,1.047,1.047
		c0,0.582-0.469,1.051-1.047,1.051c-0.582,0-1.051-0.469-1.051-1.051C95.066,215.547,95.535,215.078,96.117,215.078L96.117,215.078z
		 M52.882,215.141c0.137,0.563,0.2,1.125-0.824,1.23L52.882,215.141z M157.601,215.629v2.344h1.922l5.422,12.488l-5.203,8.104
		h-2.141v2.087h7.449v-2.087h-2.176l6.621-10.104v10.104h-1.902v2.087h6.734v-2.087h-2.457v-20.593h2.457v-2.344h-6.734v2.344h1.902
		c0.047,2.02,0.059,3.757,0,5.781c-0.949,1.262-1.93,2.805-2.969,3.992l-4.188-9.773h2.711v-2.344H157.601z M64.922,216.151
		c0.531,0,0.96,0.431,0.96,0.962s-0.429,0.961-0.96,0.961c-0.528,0-0.957-0.43-0.957-0.961S64.394,216.151,64.922,216.151
		L64.922,216.151z M80.902,216.453c0.563,0,1.016,0.457,1.016,1.016c0,0.563-0.453,1.02-1.016,1.02c-0.562,0-1.02-0.457-1.02-1.02
		C79.882,216.91,80.34,216.453,80.902,216.453L80.902,216.453z M80.902,216.453"/>
</g>
</svg>
