<?xml version="1.0" encoding="utf-8"?>
<!-- Generator: Adobe Illustrator 15.0.0, SVG Export Plug-In . SVG Version: 6.00 Build 0)  -->
<!DOCTYPE svg PUBLIC "-//W3C//DTD SVG 1.1//EN" "http://www.w3.org/Graphics/SVG/1.1/DTD/svg11.dtd">
<svg version="1.1" id="Layer_1" xmlns="http://www.w3.org/2000/svg" xmlns:xlink="http://www.w3.org/1999/xlink" x="0px" y="0px"
	 width="178.582px" height="249.449px" viewBox="0 0 178.582 249.449" enable-background="new 0 0 178.582 249.449"
	 xml:space="preserve">
<g>
	<path fill="#FFFFFF" d="M8.504,0"/>
	<path d="M6.757,31.371l2.04-1.469c1.769,2.825,3.746,4.688,6.769,4.368c4.539-0.305,6.422-4.977,5.469-8.497
		c-0.918-3.156-4.676-4.695-7.66-3.011c-0.707,0.398-1.52,0.886-1.52,0.886l-1.062-1.73l7.011-8.156h-7.609v3.375H7.273v-6.051
		h14.875v2.055c0,0-3.984,4.054-5.305,6.277c3.247,0.117,5.86,2.133,6.793,5.324c0.551,1.68,0.305,5.524-0.41,7.176
		c-1.195,2.762-4.469,5-7.457,5.129C10.75,37.379,8.086,33.926,6.757,31.371L6.757,31.371z"/>
	<path d="M171.824,218.078l-2.039,1.473c-1.773-2.824-3.75-4.691-6.773-4.367c-4.539,0.306-6.418,4.974-5.469,8.496
		c0.918,3.156,4.676,4.695,7.664,3.012c0.703-0.397,1.52-0.813,1.52-0.813l1.258,1.625l-7.207,8.188h7.609v-3.375h2.918v6.052
		h-14.871v-2.056c0,0,3.984-4.055,5.301-6.276c-3.241-0.117-5.854-2.138-6.793-5.328c-0.547-1.676-0.301-5.521,0.414-7.172
		c1.195-2.763,4.47-5,7.457-5.129C167.828,212.074,170.492,215.527,171.824,218.078L171.824,218.078z"/>
	<path d="M87.527,55.148c0.012-1.621-1.27-1.652-1.254-0.468c-0.109,5.945-5.133,8.871-8.785,8.175
		c-5.629-1.07-7.426-6.656-7.371-9.949c0.164-10.156,10.39-17.644,19.613-30.668c6.762,11.754,17.918,20.985,18.579,30.071
		c0.879,12.078-14.406,16.582-16.586,2.503c-0.142-0.992-1.313-1.437-1.224-0.05c0.332,3.859-0.142,5.465,4.211,14.976H83.336
		C85.855,65.293,87.355,59.84,87.527,55.148L87.527,55.148z"/>
	<path d="M87.586,115.586c0.011,1.621-1.27,1.652-1.254,0.469c-0.11-5.942-5.133-8.871-8.785-8.176
		c-5.629,1.07-7.426,6.66-7.372,9.949c0.165,10.154,10.391,17.648,19.618,30.668c6.758-11.754,17.918-20.984,18.578-30.07
		c0.875-12.078-14.41-16.582-16.59-2.504c-0.141,0.992-1.313,1.441-1.223,0.051c0.332-3.86-0.142-5.465,4.215-14.977H83.394
		C85.914,105.441,87.414,110.898,87.586,115.586L87.586,115.586z"/>
	<path d="M87.535,194.531c0.012,1.619-1.27,1.652-1.254,0.469c-0.109-5.941-5.133-8.871-8.785-8.176
		c-5.629,1.07-7.426,6.654-7.371,9.947c0.164,10.158,10.39,17.646,19.617,30.668c6.758-11.754,17.918-20.982,18.578-30.068
		c0.875-12.078-14.41-16.582-16.59-2.504c-0.142,0.99-1.313,1.441-1.224,0.051c0.332-3.859-0.141-5.465,4.216-14.979h-11.38
		C85.863,184.387,87.363,189.844,87.535,194.531L87.535,194.531z"/>
	<path d="M14.394,55.777c0.008-0.695-0.719-0.371-0.816-0.152c-0.93,1.59-2.289,1.961-3.637,1.387
		c-1.336-0.567-2.086-1.825-1.965-3.617c0.25-2.75,2.43-5.762,3.485-7.461c1.004-1.543,2.101-3.379,3.261-5.723
		c1.36,2.687,2.047,3.453,3.524,5.91c1.301,2.164,3.113,4.285,3.254,6.899c0,1.988-0.836,3.867-2.719,4.207
		c-1.066,0.195-2.063-0.352-2.805-1.629c-0.222-0.325-0.676-0.157-0.668,0.289c0.129,1.675,0.762,3.187,2.262,4.968h-5.508
		C13.187,59.598,14.34,57.895,14.394,55.777L14.394,55.777z"/>
	<path d="M163.98,193.258c0.008,0.699-0.719,0.371-0.816,0.152c-0.93-1.59-2.293-1.957-3.637-1.389
		c-1.336,0.571-2.086,1.826-1.965,3.619c0.25,2.754,2.43,5.762,3.483,7.461c1,1.545,2.103,3.377,3.263,5.727
		c1.358-2.691,2.047-3.457,3.522-5.914c1.301-2.164,3.112-4.281,3.254-6.898c0-1.988-0.836-3.867-2.719-4.207
		c-1.066-0.194-2.063,0.353-2.806,1.629c-0.223,0.324-0.676,0.156-0.668-0.289c0.129-1.676,0.762-3.188,2.262-4.969h-5.508
		C162.773,189.439,163.925,191.141,163.98,193.258L163.98,193.258z"/>
</g>
</svg>
