<?xml version="1.0" encoding="utf-8"?>
<!-- Generator: Adobe Illustrator 15.0.0, SVG Export Plug-In . SVG Version: 6.00 Build 0)  -->
<!DOCTYPE svg PUBLIC "-//W3C//DTD SVG 1.1//EN" "http://www.w3.org/Graphics/SVG/1.1/DTD/svg11.dtd">
<svg version="1.1" id="Layer_1" xmlns="http://www.w3.org/2000/svg" xmlns:xlink="http://www.w3.org/1999/xlink" x="0px" y="0px"
	 width="178.582px" height="249.449px" viewBox="0 0 178.582 249.449" enable-background="new 0 0 178.582 249.449"
	 xml:space="preserve">
<g>
	<path fill="#FFFFFF" d="M8.504,0"/>
	<path d="M3.933,26.496l2.574-0.023c0.492,1.558,1.578,3.14,3.055,3.582c4.168,0.976,6.855-1.352,7.738-4.039
		c1.07-3.258-0.024-7.836-2.895-9.461c-2.379-1.352-5.914-0.211-7.539,2.668l-1.804-1.102L6.03,7.383h11.785v2.539h-9.55
		l-0.149,4.473c2.051-1.442,5.215-1.43,7.27-0.418c3.89,1.855,5.699,6.074,4.941,11.05c-1.051,4.946-3.359,7.747-8.574,8.153
		C5.956,33.227,3.909,29.242,3.933,26.496L3.933,26.496z"/>
	<path d="M174.368,223.714l-2.578,0.021c-0.488-1.555-1.578-3.142-3.052-3.577c-4.172-0.978-6.854,1.352-7.737,4.038
		c-1.074,3.259,0.022,7.837,2.896,9.462c2.379,1.348,5.914,0.211,7.535-2.673l1.805,1.104l-0.969,10.738h-11.781v-2.539h9.548
		l0.151-4.476c-2.056,1.442-5.215,1.433-7.271,0.418c-3.892-1.854-5.699-6.071-4.94-11.049c1.047-4.945,3.358-7.75,8.573-8.151
		C172.346,216.979,174.393,220.964,174.368,223.714L174.368,223.714z"/>
	<path d="M43.422,54.99c0.011-1.621-1.27-1.652-1.258-0.469c-0.106,5.946-5.133,8.871-8.782,8.176
		c-5.628-1.07-7.425-6.656-7.375-9.949c0.168-10.156,10.391-17.645,19.618-30.668c6.761,11.754,17.918,20.984,18.578,30.07
		c0.879,12.078-14.406,16.582-16.59,2.508c-0.141-0.996-1.313-1.441-1.219-0.055c0.332,3.86-0.14,5.465,4.211,14.977H39.23
		C41.75,65.135,43.25,59.681,43.422,54.99L43.422,54.99z"/>
	<path d="M131.964,54.99c0.013-1.621-1.271-1.652-1.254-0.469c-0.108,5.946-5.133,8.871-8.785,8.176
		c-5.629-1.07-7.426-6.656-7.37-9.949c0.163-10.156,10.391-17.645,19.616-30.668c6.759,11.754,17.918,20.984,18.578,30.07
		c0.879,12.078-14.41,16.582-16.59,2.508c-0.142-0.996-1.313-1.441-1.224-0.055c0.332,3.86-0.142,5.465,4.215,14.977h-11.379
		C130.292,65.135,131.792,59.681,131.964,54.99L131.964,54.99z"/>
	<path d="M87.77,134.4c0.016-1.621-1.269-1.652-1.254-0.471c-0.105,5.945-5.133,8.872-8.785,8.178
		c-5.629-1.07-7.426-6.656-7.371-9.949c0.168-10.156,10.391-17.644,19.617-30.668c6.762,11.754,17.918,20.984,18.578,30.068
		c0.879,12.08-14.406,16.582-16.591,2.506c-0.141-0.992-1.313-1.438-1.219-0.051c0.328,3.857-0.142,5.463,4.211,14.977H83.579
		C86.098,144.545,87.602,139.092,87.77,134.4L87.77,134.4z"/>
	<path d="M43.43,194.014c0.012,1.617-1.269,1.648-1.254,0.471c-0.109-5.945-5.136-8.871-8.785-8.178
		c-5.629,1.07-7.425,6.656-7.371,9.945c0.164,10.16,10.387,17.648,19.613,30.668c6.762-11.75,17.918-20.98,18.579-30.066
		c0.879-12.076-14.407-16.586-16.59-2.508c-0.141,0.996-1.309,1.441-1.219,0.057c0.332-3.859-0.141-5.467,4.211-14.979H39.238
		C41.757,183.865,43.257,189.322,43.43,194.014L43.43,194.014z"/>
	<path d="M131.973,194.014c0.012,1.617-1.271,1.648-1.255,0.471c-0.104-5.945-5.133-8.871-8.784-8.178
		c-5.629,1.07-7.427,6.656-7.371,9.945c0.168,10.16,10.392,17.648,19.617,30.668c6.758-11.75,17.918-20.98,18.577-30.066
		c0.88-12.076-14.405-16.586-16.59-2.508c-0.142,0.996-1.313,1.441-1.224,0.057c0.332-3.859-0.137-5.467,4.216-14.979h-11.38
		C130.3,183.865,131.8,189.322,131.973,194.014L131.973,194.014z"/>
	<path d="M11.873,52.055c0.008-0.696-0.715-0.371-0.813-0.153c-0.929,1.59-2.293,1.961-3.64,1.387
		c-1.332-0.566-2.082-1.824-1.961-3.617c0.246-2.75,2.429-5.758,3.484-7.461c1-1.543,2.102-3.379,3.262-5.723
		c1.355,2.692,2.047,3.457,3.523,5.914c1.301,2.16,3.114,4.282,3.254,6.895c0,1.988-0.836,3.867-2.719,4.211
		c-1.066,0.191-2.062-0.356-2.804-1.633c-0.227-0.324-0.68-0.152-0.672,0.293c0.133,1.672,0.765,3.184,2.265,4.969H9.541
		C10.67,55.875,11.822,54.171,11.873,52.055L11.873,52.055z"/>
	<path d="M165.748,198.57c0.008,0.695-0.716,0.371-0.813,0.152c-0.935-1.593-2.294-1.962-3.642-1.39
		c-1.332,0.567-2.082,1.825-1.961,3.618c0.245,2.75,2.426,5.761,3.483,7.462c1,1.543,2.103,3.379,3.258,5.723
		c1.358-2.688,2.047-3.456,3.526-5.909c1.302-2.164,3.113-4.285,3.255-6.898c0-1.988-0.841-3.867-2.724-4.207
		c-1.063-0.195-2.063,0.354-2.801,1.629c-0.228,0.324-0.68,0.156-0.672-0.289c0.133-1.676,0.766-3.188,2.262-4.973h-5.508
		C164.545,194.75,165.692,196.453,165.748,198.57L165.748,198.57z"/>
</g>
</svg>
