<?xml version="1.0" encoding="utf-8"?>
<!-- Generator: Adobe Illustrator 15.0.0, SVG Export Plug-In . SVG Version: 6.00 Build 0)  -->
<!DOCTYPE svg PUBLIC "-//W3C//DTD SVG 1.1//EN" "http://www.w3.org/Graphics/SVG/1.1/DTD/svg11.dtd">
<svg version="1.1" id="Layer_1" xmlns="http://www.w3.org/2000/svg" xmlns:xlink="http://www.w3.org/1999/xlink" x="0px" y="0px"
	 width="178.582px" height="249.449px" viewBox="0 0 178.582 249.449" enable-background="new 0 0 178.582 249.449"
	 xml:space="preserve">
<g>
	<path fill="#FFFFFF" d="M8.504,0"/>
	<path d="M4.182,25.153c-0.325-2.196-0.321-7.875-0.051-9.551c0.82-5.145,2.824-7.496,6.176-8.27
		c3.257-0.746,7.832,0.086,8.835,4.387l-2.726,0.051c-1.469-2.906-5.195-2.129-7.289-0.867c-1.676,1.011-2.434,5.219-2.11,5.476
		c-0.003,0,3.168-2.3,5.661-2.132c5.336,0.546,7.535,5.085,7.347,9.375c-0.168,5.16-1.836,9.281-7.488,9.558
		C7.162,32.977,4.697,30.098,4.182,25.153L4.182,25.153z M17.439,23.789c0.028-3.578-1.629-6.257-4.761-6.554
		c-3.133-0.293-6.289,2.707-6.071,6.355c0.219,3.66,1.664,6.746,5.461,6.727C16.154,30.301,17.416,26.336,17.439,23.789
		L17.439,23.789z"/>
	<path d="M174.385,225.053c0.328,2.201,0.324,7.879,0.055,9.557c-0.824,5.145-2.828,7.496-6.18,8.266
		c-3.254,0.75-7.832-0.082-8.836-4.383l2.727-0.051c1.473,2.904,5.195,2.129,7.293,0.861c1.676-1.006,2.43-5.213,2.105-5.472
		c0.004,0-3.164,2.302-5.66,2.134c-5.332-0.548-7.531-5.086-7.348-9.375c0.168-5.162,1.836-9.287,7.487-9.56
		C171.403,217.234,173.869,220.113,174.385,225.053L174.385,225.053z M161.131,226.422c-0.031,3.578,1.625,6.258,4.758,6.551
		c3.133,0.298,6.293-2.702,6.074-6.352c-0.224-3.66-1.664-6.746-5.461-6.73C162.416,219.91,161.149,223.875,161.131,226.422
		L161.131,226.422z"/>
	<path d="M43.078,54.852c0.012-1.622-1.27-1.653-1.258-0.469c-0.105,5.941-5.133,8.867-8.781,8.172
		c-5.629-1.071-7.426-6.657-7.375-9.946c0.168-10.16,10.39-17.648,19.617-30.668c6.762,11.75,17.918,20.985,18.578,30.067
		c0.879,12.078-14.406,16.586-16.59,2.508c-0.14-0.996-1.312-1.442-1.219-0.051c0.332,3.855-0.14,5.465,4.211,14.972H38.886
		C41.406,64.996,42.906,59.539,43.078,54.852L43.078,54.852z"/>
	<path d="M132.305,54.852c0.012-1.622-1.271-1.653-1.259-0.469c-0.104,5.941-5.133,8.867-8.78,8.172
		c-5.629-1.071-7.427-6.657-7.375-9.946c0.168-10.16,10.391-17.648,19.616-30.668c6.763,11.75,17.918,20.985,18.578,30.067
		c0.879,12.078-14.405,16.586-16.59,2.508c-0.142-0.996-1.313-1.442-1.22-0.051c0.332,3.855-0.141,5.465,4.211,14.972h-11.379
		C130.632,64.996,132.132,59.539,132.305,54.852L132.305,54.852z"/>
	<path d="M43.086,115.664c0.011,1.621-1.27,1.652-1.254,0.469c-0.11-5.942-5.133-8.871-8.785-8.176
		c-5.629,1.07-7.426,6.66-7.372,9.949c0.165,10.156,10.391,17.648,19.614,30.668c6.761-11.754,17.918-20.984,18.578-30.07
		c0.879-12.078-14.406-16.582-16.586-2.504c-0.145,0.992-1.313,1.441-1.223,0.051c0.332-3.86-0.14-5.465,4.211-14.977H38.894
		C41.414,105.52,42.914,110.977,43.086,115.664L43.086,115.664z"/>
	<path d="M132.313,115.664c0.012,1.621-1.271,1.652-1.254,0.469c-0.109-5.942-5.138-8.871-8.785-8.176
		c-5.629,1.07-7.426,6.66-7.371,9.949c0.164,10.156,10.387,17.648,19.613,30.668c6.762-11.754,17.918-20.984,18.577-30.07
		c0.88-12.078-14.405-16.582-16.59-2.504c-0.142,0.992-1.31,1.441-1.219,0.051c0.332-3.86-0.142-5.465,4.211-14.977H128.12
		C130.641,105.52,132.141,110.977,132.313,115.664L132.313,115.664z"/>
	<path d="M132.313,194.543c0.012,1.621-1.271,1.652-1.254,0.469c-0.109-5.941-5.138-8.871-8.785-8.176
		c-5.629,1.07-7.426,6.66-7.371,9.949c0.164,10.154,10.387,17.648,19.613,30.668c6.762-11.754,17.918-20.984,18.577-30.07
		c0.88-12.078-14.405-16.582-16.59-2.504c-0.142,0.992-1.31,1.441-1.219,0.051c0.332-3.859-0.142-5.465,4.211-14.977H128.12
		C130.641,184.396,132.141,189.854,132.313,194.543L132.313,194.543z"/>
	<path d="M43.086,194.543c0.011,1.621-1.27,1.652-1.254,0.469c-0.11-5.941-5.133-8.871-8.785-8.176
		c-5.629,1.07-7.426,6.66-7.372,9.949c0.165,10.154,10.391,17.648,19.614,30.668c6.761-11.754,17.918-20.984,18.578-30.07
		c0.879-12.078-14.406-16.582-16.586-2.504c-0.145,0.992-1.313,1.441-1.223,0.051c0.332-3.859-0.14-5.465,4.211-14.977H38.894
		C41.414,184.396,42.914,189.854,43.086,194.543L43.086,194.543z"/>
	<path d="M11.645,52.058c0.008-0.699-0.715-0.371-0.816-0.152c-0.93,1.59-2.289,1.957-3.637,1.386
		c-1.332-0.57-2.082-1.824-1.965-3.621c0.25-2.75,2.43-5.757,3.485-7.461c1.004-1.543,2.105-3.375,3.261-5.722
		c1.36,2.691,2.047,3.457,3.524,5.914c1.301,2.164,3.117,4.281,3.258,6.898c0,1.989-0.84,3.864-2.723,4.207
		c-1.062,0.196-2.062-0.351-2.801-1.629c-0.226-0.324-0.679-0.156-0.672,0.289c0.133,1.676,0.766,3.188,2.262,4.969H9.313
		C10.441,55.874,11.59,54.175,11.645,52.058L11.645,52.058z"/>
	<path d="M166.244,198.455c0.008,0.701-0.715,0.371-0.813,0.153c-0.93-1.586-2.293-1.957-3.642-1.387
		c-1.332,0.569-2.082,1.824-1.961,3.621c0.246,2.75,2.431,5.758,3.484,7.461c1,1.543,2.102,3.375,3.262,5.723
		c1.355-2.69,2.047-3.456,3.523-5.913c1.301-2.164,3.113-4.283,3.254-6.898c0-1.988-0.836-3.863-2.719-4.207
		c-1.066-0.195-2.063,0.352-2.805,1.629c-0.228,0.324-0.68,0.154-0.672-0.289c0.133-1.676,0.766-3.188,2.266-4.969h-5.512
		C165.041,194.641,166.193,196.34,166.244,198.455L166.244,198.455z"/>
</g>
</svg>
