<?xml version="1.0" encoding="utf-8"?>
<!-- Generator: Adobe Illustrator 15.0.0, SVG Export Plug-In . SVG Version: 6.00 Build 0)  -->
<!DOCTYPE svg PUBLIC "-//W3C//DTD SVG 1.1//EN" "http://www.w3.org/Graphics/SVG/1.1/DTD/svg11.dtd">
<svg version="1.1" id="Layer_1" xmlns="http://www.w3.org/2000/svg" xmlns:xlink="http://www.w3.org/1999/xlink" x="0px" y="0px"
	 width="178.582px" height="249.449px" viewBox="0 0 178.582 249.449" enable-background="new 0 0 178.582 249.449"
	 xml:space="preserve">
<g>
	<path fill="#FFFFFF" d="M8.504,0"/>
	<path d="M9.871,37.211c1.707-8.871,3.527-15.527,8.304-22.758H8.468v3.109H5.886v-5.863h14.207l1.75,2.754
		c-5.074,5.438-9.718,23.012-8.898,22.758H9.871z M9.871,37.211"/>
	<path d="M168.707,212.242c-1.707,8.871-3.527,15.527-8.305,22.758h9.707v-3.113h2.582v5.867h-14.203l-1.75-2.754
		c5.074-5.438,9.719-23.017,8.895-22.758H168.707z M168.707,212.242"/>
	<path d="M42.476,56.004c0.012-1.617-1.269-1.649-1.254-0.469c-0.109,5.945-5.136,8.871-8.785,8.176
		c-5.629-1.07-7.426-6.656-7.371-9.949c0.164-10.157,10.387-17.645,19.613-30.664c6.762,11.75,17.918,20.98,18.578,30.066
		c0.879,12.078-14.406,16.586-16.589,2.508c-0.141-0.996-1.309-1.442-1.219-0.055c0.332,3.86-0.141,5.465,4.211,14.977H38.285
		C40.804,66.148,42.304,60.695,42.476,56.004L42.476,56.004z M42.476,56.004"/>
	<path d="M131.703,56.004c0.012-1.617-1.27-1.649-1.258-0.469c-0.105,5.945-5.133,8.871-8.781,8.176
		c-5.629-1.07-7.426-6.656-7.375-9.949c0.168-10.157,10.391-17.645,19.617-30.664c6.762,11.75,17.918,20.98,18.578,30.066
		c0.879,12.078-14.406,16.586-16.59,2.508c-0.141-0.996-1.309-1.442-1.219-0.055c0.332,3.86-0.141,5.465,4.211,14.977h-11.375
		C130.031,66.148,131.531,60.695,131.703,56.004L131.703,56.004z M131.703,56.004"/>
	<path d="M87.621,96.105c0.015-1.621-1.27-1.652-1.254-0.468c-0.106,5.941-5.133,8.867-8.785,8.175
		c-5.629-1.07-7.426-6.66-7.371-9.949c0.168-10.156,10.39-17.648,19.617-30.668c6.762,11.754,17.918,20.985,18.578,30.071
		c0.879,12.078-14.406,16.582-16.59,2.504c-0.141-0.993-1.313-1.442-1.219-0.051c0.328,3.855-0.141,5.465,4.211,14.976H83.429
		C85.949,106.25,87.453,100.793,87.621,96.105L87.621,96.105z M87.621,96.105"/>
	<path d="M131.703,136.203c0.012-1.621-1.27-1.652-1.258-0.47c-0.105,5.946-5.133,8.871-8.781,8.177
		c-5.629-1.07-7.426-6.656-7.375-9.949c0.168-10.156,10.391-17.645,19.617-30.668c6.762,11.754,17.918,20.984,18.578,30.07
		c0.879,12.077-14.406,16.582-16.59,2.508c-0.141-0.996-1.309-1.441-1.219-0.056c0.332,3.86-0.141,5.466,4.211,14.978h-11.375
		C130.031,146.348,131.531,140.895,131.703,136.203L131.703,136.203z M131.703,136.203"/>
	<path d="M42.476,136.203c0.012-1.621-1.269-1.652-1.254-0.47c-0.109,5.946-5.136,8.871-8.785,8.177
		c-5.629-1.07-7.426-6.656-7.371-9.949c0.164-10.156,10.387-17.645,19.613-30.668c6.762,11.754,17.918,20.984,18.578,30.07
		c0.879,12.077-14.406,16.582-16.589,2.508c-0.141-0.996-1.309-1.441-1.219-0.056c0.332,3.86-0.141,5.466,4.211,14.978H38.285
		C40.804,146.348,42.304,140.895,42.476,136.203L42.476,136.203z M42.476,136.203"/>
	<path d="M131.71,196.781c0.012,1.62-1.27,1.652-1.254,0.469c-0.109-5.941-5.133-8.867-8.785-8.176
		c-5.629,1.07-7.426,6.659-7.371,9.948c0.164,10.157,10.391,17.649,19.613,30.668c6.762-11.754,17.918-20.983,18.578-30.065
		c0.879-12.078-14.406-16.586-16.586-2.508c-0.141,0.996-1.313,1.441-1.223,0.051c0.332-3.856-0.141-5.465,4.211-14.973h-11.375
		C130.039,186.637,131.539,192.094,131.71,196.781L131.71,196.781z M131.71,196.781"/>
	<path d="M42.484,196.781c0.012,1.62-1.269,1.652-1.254,0.469c-0.109-5.941-5.133-8.867-8.785-8.176
		c-5.629,1.07-7.426,6.659-7.371,9.948c0.164,10.157,10.391,17.649,19.613,30.668c6.762-11.754,17.918-20.983,18.582-30.065
		c0.875-12.078-14.41-16.586-16.59-2.508c-0.14,0.996-1.312,1.441-1.222,0.051c0.332-3.856-0.141-5.465,4.215-14.973H38.293
		C40.812,186.637,42.312,192.094,42.484,196.781L42.484,196.781z M42.484,196.781"/>
	<path d="M13.656,56.816c0.008-0.699-0.715-0.375-0.813-0.152c-0.929,1.586-2.293,1.957-3.64,1.383
		c-1.332-0.567-2.082-1.824-1.961-3.617c0.246-2.75,2.43-5.758,3.484-7.461c1-1.543,2.102-3.379,3.262-5.723
		c1.355,2.691,2.047,3.457,3.523,5.914c1.301,2.164,3.114,4.281,3.254,6.899c0,1.988-0.836,3.863-2.718,4.207
		c-1.067,0.191-2.063-0.356-2.805-1.629c-0.227-0.328-0.68-0.157-0.672,0.289c0.133,1.672,0.766,3.183,2.266,4.969h-5.512
		C12.453,60.633,13.605,58.93,13.656,56.816L13.656,56.816z M13.656,56.816"/>
	<path d="M164.71,195.012c0.008,0.695-0.719,0.371-0.816,0.152c-0.93-1.59-2.289-1.957-3.637-1.387
		c-1.336,0.566-2.086,1.824-1.965,3.617c0.25,2.75,2.43,5.762,3.484,7.46c1.004,1.547,2.102,3.379,3.262,5.724
		c1.359-2.688,2.047-3.453,3.523-5.91c1.301-2.164,3.113-4.285,3.254-6.898c0-1.988-0.836-3.868-2.719-4.208
		c-1.066-0.194-2.063,0.353-2.805,1.629c-0.223,0.325-0.676,0.157-0.668-0.288c0.129-1.676,0.762-3.188,2.262-4.969h-5.508
		C163.503,191.19,164.656,192.895,164.71,195.012L164.71,195.012z M164.71,195.012"/>
</g>
</svg>
