<?xml version="1.0" encoding="utf-8"?>
<!-- Generator: Adobe Illustrator 15.0.0, SVG Export Plug-In . SVG Version: 6.00 Build 0)  -->
<!DOCTYPE svg PUBLIC "-//W3C//DTD SVG 1.1//EN" "http://www.w3.org/Graphics/SVG/1.1/DTD/svg11.dtd">
<svg version="1.1" id="Layer_1" xmlns="http://www.w3.org/2000/svg" xmlns:xlink="http://www.w3.org/1999/xlink" x="0px" y="0px"
	 width="178.582px" height="249.449px" viewBox="0 0 178.582 249.449" enable-background="new 0 0 178.582 249.449"
	 xml:space="preserve">
<g>
	<path fill="#FFFFFF" d="M8.504,0"/>
	<path d="M4.115,28.17l2.418-0.75c0.914,2.395,2.761,3.102,4.715,2.95c3.503-0.274,4.668-4.118,4.933-7.52
		c-1.367,1.418-3.422,2.141-5.168,2.07c-5.586-0.296-7.015-4.683-7.07-9.281c-0.152-3.875,1.48-6.683,4.281-7.969
		c1.481-0.656,4.875-0.656,6.367,0.118c3.426,1.773,4.692,4.839,4.461,12.152c0.004,6.02-1.297,13.031-7.867,13.18
		C7.384,33.635,4.5,30.737,4.115,28.17L4.115,28.17z M13.623,21.577c1.14-0.707,1.785-1.371,2.293-2.367
		c0.421-0.821,0.562-1.247,0.441-2.938c-0.305-4.363-2.637-6.84-6.02-6.348c-1.882,0.274-2.914,1.313-3.503,3.239
		c-1.094,3.558,0.292,7.726,2.886,8.688C10.888,22.28,12.693,22.155,13.623,21.577L13.623,21.577z"/>
	<path d="M174.461,222.034l-2.422,0.754c-0.914-2.395-2.762-3.102-4.715-2.949c-3.504,0.273-4.668,4.117-4.932,7.521
		c1.363-1.422,3.418-2.143,5.168-2.068c5.588,0.293,7.018,4.684,7.066,9.279c0.154,3.875-1.479,6.684-4.277,7.971
		c-1.482,0.65-4.879,0.65-6.371-0.119c-3.426-1.771-4.689-4.838-4.461-12.15c-0.004-6.02,1.299-13.031,7.867-13.182
		C171.187,216.573,174.07,219.472,174.461,222.034L174.461,222.034z M164.949,228.63c-1.142,0.707-1.78,1.371-2.293,2.369
		c-0.418,0.818-0.563,1.24-0.44,2.938c0.31,4.361,2.642,6.84,6.021,6.348c1.883-0.271,2.914-1.313,3.504-3.238
		c1.094-3.559-0.289-7.727-2.888-8.688C167.683,227.923,165.883,228.048,164.949,228.63L164.949,228.63z"/>
	<path d="M43.007,55.102c0.011-1.622-1.27-1.653-1.254-0.469c-0.11,5.941-5.133,8.867-8.785,8.172
		c-5.629-1.071-7.426-6.657-7.371-9.946c0.164-10.16,10.391-17.648,19.617-30.668c6.758,11.75,17.918,20.985,18.578,30.067
		c0.879,12.078-14.41,16.586-16.59,2.508c-0.141-0.996-1.313-1.442-1.223-0.051c0.332,3.855-0.141,5.465,4.215,14.972H38.815
		C41.335,65.246,42.835,59.789,43.007,55.102L43.007,55.102z"/>
	<path d="M132.233,55.102c0.012-1.622-1.271-1.653-1.254-0.469c-0.109,5.941-5.134,8.867-8.785,8.172
		c-5.629-1.071-7.427-6.657-7.371-9.946c0.164-10.16,10.392-17.648,19.617-30.668c6.758,11.75,17.918,20.985,18.577,30.067
		c0.875,12.078-14.409,16.586-16.59,2.508c-0.142-0.996-1.313-1.442-1.224-0.051c0.332,3.855-0.141,5.465,4.216,14.972h-11.379
		C130.562,65.246,132.062,59.789,132.233,55.102L132.233,55.102z"/>
	<path d="M132.233,107.363c0.012-1.621-1.271-1.652-1.254-0.468c-0.109,5.945-5.134,8.871-8.785,8.175
		c-5.629-1.07-7.427-6.656-7.371-9.949c0.164-10.156,10.392-17.644,19.617-30.668c6.758,11.754,17.918,20.984,18.577,30.07
		c0.875,12.079-14.409,16.582-16.59,2.508c-0.142-0.996-1.313-1.441-1.224-0.054c0.332,3.859-0.141,5.464,4.216,14.976h-11.379
		C130.562,117.508,132.062,112.055,132.233,107.363L132.233,107.363z"/>
	<path d="M43.007,107.363c0.011-1.621-1.27-1.652-1.254-0.468c-0.11,5.945-5.133,8.871-8.785,8.175
		c-5.629-1.07-7.426-6.656-7.371-9.949c0.164-10.156,10.391-17.644,19.617-30.668c6.758,11.754,17.918,20.984,18.578,30.07
		c0.879,12.079-14.41,16.582-16.59,2.508c-0.141-0.996-1.313-1.441-1.223-0.054c0.332,3.859-0.141,5.464,4.215,14.976H38.815
		C41.335,117.508,42.835,112.055,43.007,107.363L43.007,107.363z"/>
	<path d="M132.241,194.664c0.012,1.621-1.271,1.65-1.254,0.469c-0.105-5.941-5.133-8.867-8.785-8.172
		c-5.629,1.07-7.426,6.656-7.371,9.945c0.164,10.158,10.391,17.648,19.617,30.668c6.758-11.75,17.918-20.984,18.578-30.066
		c0.879-12.078-14.406-16.586-16.59-2.508c-0.143,0.996-1.313,1.439-1.225,0.051c0.332-3.854-0.139-5.465,4.215-14.973H128.05
		C130.569,184.52,132.069,189.977,132.241,194.664L132.241,194.664z"/>
	<path d="M132.241,142.582c0.012,1.621-1.271,1.65-1.254,0.469c-0.105-5.945-5.133-8.871-8.785-8.176
		c-5.629,1.07-7.426,6.656-7.371,9.949c0.164,10.154,10.391,17.645,19.617,30.668c6.758-11.754,17.918-20.984,18.578-30.07
		c0.879-12.078-14.406-16.582-16.59-2.504c-0.143,0.992-1.313,1.438-1.225,0.051c0.332-3.859-0.139-5.465,4.215-14.977H128.05
		C130.569,132.438,132.069,137.891,132.241,142.582L132.241,142.582z"/>
	<path d="M88.171,115.574c0.011,1.621-1.27,1.653-1.254,0.469c-0.11-5.945-5.133-8.871-8.785-8.176
		c-5.629,1.07-7.426,6.656-7.371,9.949c0.164,10.157,10.391,17.645,19.617,30.667c6.758-11.754,17.918-20.981,18.578-30.067
		c0.879-12.078-14.41-16.582-16.59-2.504c-0.143,0.992-1.313,1.438-1.225,0.051c0.332-3.859-0.141-5.465,4.217-14.977H83.979
		C86.499,105.43,87.999,110.883,88.171,115.574L88.171,115.574z"/>
	<path d="M43.015,142.582c0.012,1.621-1.27,1.65-1.254,0.469c-0.105-5.945-5.133-8.871-8.786-8.176
		c-5.628,1.07-7.425,6.656-7.37,9.949c0.168,10.154,10.391,17.645,19.617,30.668c6.758-11.754,17.918-20.984,18.578-30.07
		c0.879-12.078-14.407-16.582-16.59-2.504c-0.141,0.992-1.313,1.438-1.223,0.051c0.332-3.859-0.138-5.465,4.215-14.977H38.823
		C41.343,132.438,42.843,137.891,43.015,142.582L43.015,142.582z"/>
	<path d="M43.015,194.664c0.012,1.621-1.27,1.65-1.254,0.469c-0.105-5.941-5.133-8.867-8.786-8.172
		c-5.628,1.07-7.425,6.656-7.37,9.945c0.168,10.158,10.391,17.648,19.617,30.668c6.758-11.75,17.918-20.984,18.578-30.066
		c0.879-12.078-14.407-16.586-16.59-2.508c-0.141,0.996-1.313,1.439-1.223,0.051c0.332-3.855-0.138-5.465,4.215-14.973H38.823
		C41.343,184.52,42.843,189.977,43.015,194.664L43.015,194.664z"/>
	<path d="M11.165,52.058c0.007-0.695-0.715-0.371-0.813-0.152c-0.93,1.59-2.293,1.957-3.641,1.387
		c-1.332-0.567-2.082-1.825-1.96-3.618c0.246-2.75,2.425-5.761,3.484-7.461c1-1.546,2.101-3.378,3.262-5.726
		c1.355,2.691,2.047,3.457,3.523,5.914c1.301,2.164,3.113,4.285,3.254,6.898c0,1.989-0.836,3.868-2.719,4.207
		c-1.066,0.196-2.066-0.351-2.804-1.628c-0.227-0.325-0.68-0.157-0.672,0.289c0.132,1.675,0.765,3.188,2.265,4.968H8.833
		C9.96,55.879,11.114,54.175,11.165,52.058L11.165,52.058z"/>
	<path d="M166.728,198.58c0.008,0.699-0.72,0.375-0.815,0.152c-0.931-1.586-2.293-1.957-3.638-1.383
		c-1.336,0.564-2.086,1.824-1.965,3.617c0.25,2.75,2.43,5.758,3.483,7.461c1,1.543,2.103,3.379,3.262,5.723
		c1.359-2.691,2.048-3.457,3.523-5.914c1.301-2.164,3.112-4.281,3.254-6.898c0-1.986-0.836-3.861-2.72-4.207
		c-1.065-0.189-2.063,0.355-2.805,1.631c-0.224,0.326-0.677,0.154-0.668-0.289c0.129-1.672,0.762-3.188,2.262-4.971h-5.508
		C165.521,194.764,166.672,196.467,166.728,198.58L166.728,198.58z"/>
</g>
</svg>
