<?xml version="1.0" encoding="utf-8"?>
<!-- Generator: Adobe Illustrator 15.0.0, SVG Export Plug-In . SVG Version: 6.00 Build 0)  -->
<!DOCTYPE svg PUBLIC "-//W3C//DTD SVG 1.1//EN" "http://www.w3.org/Graphics/SVG/1.1/DTD/svg11.dtd">
<svg version="1.1" id="Layer_1" xmlns="http://www.w3.org/2000/svg" xmlns:xlink="http://www.w3.org/1999/xlink" x="0px" y="0px"
	 width="178.582px" height="249.449px" viewBox="0 0 178.582 249.449" enable-background="new 0 0 178.582 249.449"
	 xml:space="preserve">
<g>
	<path fill="#FFFFFF" d="M8.504,0"/>
	<path d="M6.621,31.48l2.418-0.75c0.914,2.395,2.761,3.102,4.715,2.95c3.503-0.274,4.668-4.118,4.933-7.52
		c-1.367,1.418-3.422,2.141-5.168,2.07c-5.586-0.296-7.015-4.683-7.07-9.281c-0.152-3.875,1.48-6.683,4.281-7.969
		c1.481-0.656,4.875-0.656,6.367,0.118c3.426,1.773,4.692,4.839,4.461,12.152c0.004,6.02-1.297,13.031-7.867,13.18
		C9.89,36.945,7.007,34.047,6.621,31.48L6.621,31.48z M16.129,24.887c1.14-0.707,1.785-1.371,2.293-2.367
		c0.421-0.821,0.562-1.247,0.441-2.938c-0.305-4.363-2.637-6.84-6.02-6.348c-1.882,0.274-2.914,1.313-3.503,3.239
		c-1.094,3.558,0.292,7.726,2.886,8.688C13.394,25.59,15.199,25.465,16.129,24.887L16.129,24.887z"/>
	<path d="M171.449,217.969l-2.422,0.754c-0.914-2.395-2.762-3.102-4.715-2.949c-3.504,0.273-4.668,4.117-4.931,7.521
		c1.363-1.422,3.418-2.142,5.168-2.069c5.587,0.293,7.017,4.684,7.066,9.28c0.155,3.875-1.479,6.683-4.277,7.97
		c-1.483,0.651-4.879,0.651-6.371-0.119c-3.426-1.771-4.69-4.838-4.461-12.15c-0.004-6.02,1.298-13.031,7.867-13.182
		C168.175,212.508,171.059,215.406,171.449,217.969L171.449,217.969z M161.938,224.564c-1.142,0.707-1.781,1.371-2.293,2.369
		c-0.418,0.819-0.563,1.241-0.441,2.938c0.309,4.361,2.641,6.84,6.02,6.348c1.883-0.272,2.914-1.313,3.504-3.238
		c1.094-3.559-0.289-7.727-2.887-8.688C164.671,223.857,162.871,223.982,161.938,224.564L161.938,224.564z"/>
	<path d="M43.207,55.102c0.011-1.622-1.27-1.653-1.254-0.469c-0.11,5.941-5.133,8.867-8.785,8.172
		c-5.629-1.071-7.426-6.657-7.371-9.946c0.164-10.16,10.39-17.648,19.617-30.668c6.758,11.75,17.918,20.985,18.578,30.067
		c0.879,12.078-14.41,16.586-16.59,2.508c-0.141-0.996-1.312-1.442-1.223-0.051c0.332,3.855-0.14,5.465,4.215,14.972H39.015
		C41.535,65.246,43.035,59.789,43.207,55.102L43.207,55.102z"/>
	<path d="M132.434,55.102c0.012-1.622-1.271-1.653-1.254-0.469c-0.109,5.941-5.134,8.867-8.785,8.172
		c-5.629-1.071-7.427-6.657-7.371-9.946c0.164-10.16,10.391-17.648,19.617-30.668c6.758,11.75,17.918,20.985,18.577,30.067
		c0.875,12.078-14.409,16.586-16.59,2.508c-0.142-0.996-1.313-1.442-1.224-0.051c0.332,3.855-0.141,5.465,4.216,14.972h-11.379
		C130.762,65.246,132.262,59.789,132.434,55.102L132.434,55.102z"/>
	<path d="M132.434,107.363c0.012-1.621-1.271-1.652-1.254-0.468c-0.109,5.945-5.134,8.871-8.785,8.175
		c-5.629-1.07-7.427-6.656-7.371-9.949c0.164-10.156,10.391-17.644,19.617-30.668c6.758,11.754,17.918,20.984,18.577,30.07
		c0.875,12.079-14.409,16.582-16.59,2.508c-0.142-0.996-1.313-1.441-1.224-0.054c0.332,3.859-0.141,5.464,4.216,14.976h-11.379
		C130.762,117.508,132.262,112.055,132.434,107.363L132.434,107.363z"/>
	<path d="M43.207,107.363c0.011-1.621-1.27-1.652-1.254-0.468c-0.11,5.945-5.133,8.871-8.785,8.175
		c-5.629-1.07-7.426-6.656-7.371-9.949c0.164-10.156,10.39-17.644,19.617-30.668c6.758,11.754,17.918,20.984,18.578,30.07
		c0.879,12.079-14.41,16.582-16.59,2.508c-0.141-0.996-1.312-1.441-1.223-0.054c0.332,3.859-0.14,5.464,4.215,14.976H39.015
		C41.535,117.508,43.035,112.055,43.207,107.363L43.207,107.363z"/>
	<path d="M132.441,194.664c0.012,1.621-1.271,1.65-1.254,0.469c-0.105-5.941-5.133-8.867-8.785-8.172
		c-5.629,1.07-7.426,6.656-7.371,9.945c0.164,10.158,10.391,17.648,19.617,30.668c6.758-11.75,17.918-20.984,18.578-30.066
		c0.879-12.078-14.406-16.586-16.59-2.508c-0.142,0.996-1.313,1.439-1.224,0.051c0.332-3.854-0.138-5.465,4.215-14.973H128.25
		C130.77,184.52,132.27,189.977,132.441,194.664L132.441,194.664z"/>
	<path d="M132.441,142.582c0.012,1.621-1.271,1.65-1.254,0.469c-0.105-5.945-5.133-8.871-8.785-8.176
		c-5.629,1.07-7.426,6.656-7.371,9.949c0.164,10.154,10.391,17.645,19.617,30.668c6.758-11.754,17.918-20.984,18.578-30.07
		c0.879-12.078-14.406-16.582-16.59-2.504c-0.142,0.992-1.313,1.438-1.224,0.051c0.332-3.859-0.138-5.465,4.215-14.977H128.25
		C130.77,132.438,132.27,137.891,132.441,142.582L132.441,142.582z"/>
	<path d="M88.371,115.574c0.011,1.621-1.27,1.653-1.254,0.469c-0.11-5.945-5.133-8.871-8.785-8.176
		c-5.629,1.07-7.426,6.656-7.371,9.949c0.164,10.157,10.39,17.645,19.617,30.667c6.758-11.754,17.918-20.982,18.578-30.068
		c0.879-12.078-14.41-16.582-16.59-2.504c-0.142,0.992-1.313,1.438-1.224,0.051c0.332-3.859-0.141-5.465,4.216-14.977H84.179
		C86.699,105.43,88.199,110.883,88.371,115.574L88.371,115.574z"/>
	<path d="M43.215,142.582c0.011,1.621-1.27,1.65-1.254,0.469c-0.106-5.945-5.133-8.871-8.786-8.176
		c-5.628,1.07-7.425,6.656-7.371,9.949c0.168,10.154,10.391,17.645,19.618,30.668c6.757-11.754,17.918-20.984,18.578-30.07
		c0.879-12.078-14.407-16.582-16.59-2.504c-0.141,0.992-1.313,1.438-1.223,0.051c0.332-3.859-0.137-5.465,4.215-14.977H39.023
		C41.543,132.438,43.043,137.891,43.215,142.582L43.215,142.582z"/>
	<path d="M43.215,194.664c0.011,1.621-1.27,1.65-1.254,0.469c-0.106-5.941-5.133-8.867-8.786-8.172
		c-5.628,1.07-7.425,6.656-7.371,9.945c0.168,10.158,10.391,17.648,19.618,30.668C52.179,215.824,63.34,206.59,64,197.508
		c0.879-12.078-14.407-16.586-16.59-2.508c-0.141,0.996-1.313,1.439-1.223,0.051c0.332-3.855-0.137-5.465,4.215-14.973H39.023
		C41.543,184.52,43.043,189.977,43.215,194.664L43.215,194.664z"/>
	<path d="M13.461,57.906c0.007-0.695-0.715-0.371-0.813-0.152c-0.93,1.59-2.293,1.957-3.641,1.387
		c-1.332-0.567-2.082-1.825-1.96-3.618c0.246-2.75,2.425-5.761,3.484-7.461c1-1.546,2.101-3.378,3.262-5.726
		c1.355,2.691,2.047,3.457,3.523,5.914c1.301,2.164,3.113,4.285,3.254,6.898c0,1.989-0.836,3.868-2.719,4.207
		c-1.066,0.196-2.066-0.351-2.804-1.628c-0.227-0.325-0.68-0.157-0.672,0.289c0.132,1.675,0.765,3.188,2.265,4.968h-5.511
		C12.257,61.727,13.41,60.023,13.461,57.906L13.461,57.906z"/>
	<path d="M164.516,192.102c0.008,0.699-0.72,0.375-0.816,0.152c-0.93-1.586-2.293-1.957-3.637-1.383
		c-1.336,0.564-2.086,1.824-1.965,3.617c0.25,2.75,2.43,5.758,3.483,7.461c1,1.543,2.103,3.379,3.262,5.723
		c1.359-2.691,2.048-3.457,3.523-5.914c1.301-2.164,3.112-4.281,3.254-6.898c0-1.987-0.836-3.862-2.72-4.207
		c-1.065-0.19-2.063,0.355-2.805,1.63c-0.223,0.327-0.676,0.155-0.668-0.289c0.129-1.672,0.762-3.188,2.262-4.97h-5.508
		C163.309,188.285,164.46,189.988,164.516,192.102L164.516,192.102z"/>
</g>
</svg>
